<?xml version="1.0" encoding="UTF-8" standalone="no"?>
<!-- Created with Inkscape (http://www.inkscape.org/) -->

<svg
   xmlns:dc="http://purl.org/dc/elements/1.1/"
   xmlns:cc="http://creativecommons.org/ns#"
   xmlns:rdf="http://www.w3.org/1999/02/22-rdf-syntax-ns#"
   xmlns:svg="http://www.w3.org/2000/svg"
   xmlns="http://www.w3.org/2000/svg"
   xmlns:sodipodi="http://sodipodi.sourceforge.net/DTD/sodipodi-0.dtd"
   xmlns:inkscape="http://www.inkscape.org/namespaces/inkscape"
   width="64px"
   height="64px"
   id="svg3369"
   version="1.1"
   inkscape:version="0.91 r13725"
   sodipodi:docname="AccumResults.svg">
  <defs
     id="defs3371" />
  <sodipodi:namedview
     id="base"
     pagecolor="#ffffff"
     bordercolor="#666666"
     borderopacity="1.0"
     inkscape:pageopacity="0.0"
     inkscape:pageshadow="2"
     inkscape:zoom="5.5"
     inkscape:cx="-0.54545427"
     inkscape:cy="29.818184"
     inkscape:current-layer="layer1"
     showgrid="true"
     inkscape:document-units="px"
     inkscape:grid-bbox="true"
     inkscape:window-width="1920"
     inkscape:window-height="1015"
     inkscape:window-x="0"
     inkscape:window-y="0"
     inkscape:window-maximized="1" />
  <metadata
     id="metadata3374">
    <rdf:RDF>
      <cc:Work
         rdf:about="">
        <dc:format>image/svg+xml</dc:format>
        <dc:type
           rdf:resource="http://purl.org/dc/dcmitype/StillImage" />
        <dc:title />
      </cc:Work>
    </rdf:RDF>
  </metadata>
  <g
     id="layer1"
     inkscape:label="Layer 1"
     inkscape:groupmode="layer">
    <path
       inkscape:connector-curvature="0"
       style="fill:#000080;fill-opacity:1;stroke:#000000;stroke-width:1.29969895;stroke-linecap:round;stroke-linejoin:round;stroke-miterlimit:4;stroke-dasharray:none;stroke-opacity:1"
       d="m 16.818712,19.932196 c 0.0019,2.024673 0.455838,4.070063 1.447537,5.982752 3.30752,6.379226 11.14254,8.832483 17.498153,5.512678 0.16494,-0.08616 0.308625,-0.206969 0.468321,-0.299138 L 50.622931,45.57256 55.519008,40.615423 41.128799,26.171352 C 43.161082,22.48182 43.382107,17.881487 41.299098,13.863977 37.991577,7.4847504 30.156557,5.031494 23.800944,8.3512984 l -0.638619,0.341872 c -4.05963,2.4287366 -6.347896,6.7847536 -6.343613,11.2390256 z m 3.235669,-0.04266 c -0.0033,-3.3407 1.72363,-6.554305 4.768353,-8.375852 l 0.468321,-0.299137 c 4.766709,-2.4898626 10.632331,-0.596497 13.112971,4.187927 2.480641,4.784423 0.636976,10.672189 -4.129734,13.162054 -4.766711,2.489863 -10.632331,0.639231 -13.112972,-4.145192 -0.743775,-1.434521 -1.105478,-3.011301 -1.106939,-4.529799 z"
       id="path6229" />
    <path
       style="fill:#008000;fill-opacity:1;fill-rule:nonzero;stroke:#ffffff;stroke-width:2;stroke-linecap:round;stroke-linejoin:round;stroke-miterlimit:4;stroke-dasharray:none;stroke-opacity:1"
       d="m 8.2226458,39.79935 6.7872692,6e-6 0,6.919298 5.812776,0 0,-6.919304 6.787262,0 0,-5.958287 -6.787262,0 -6e-6,-6.919305 -5.81277,0 -5e-6,6.91931 -6.7872642,-5e-6 0,5.958287 z"
       id="rect3117-7"
       inkscape:connector-curvature="0"
       inkscape:export-filename="/home/oeichler/Code/cpp/MapRoom/src/icons/16x16/add.png"
       inkscape:export-xdpi="75.913841"
       inkscape:export-ydpi="75.913841" />
    <path
       style="fill:#008000;fill-opacity:1;fill-rule:nonzero;stroke:#ffffff;stroke-width:2;stroke-linecap:round;stroke-linejoin:round;stroke-miterlimit:4;stroke-dasharray:none;stroke-opacity:1"
       d="m 22.262334,47.549804 6.787269,7e-6 0,6.919297 5.812776,0 0,-6.919304 6.787262,0 0,-5.958286 -6.787262,0 -6e-6,-6.919305 -5.81277,0 -5e-6,6.91931 -6.787264,-5e-6 0,5.958286 z"
       id="rect3117-7-3"
       inkscape:connector-curvature="0"
       inkscape:export-filename="/home/oeichler/Code/cpp/MapRoom/src/icons/16x16/add.png"
       inkscape:export-xdpi="75.913841"
       inkscape:export-ydpi="75.913841" />
  </g>
</svg>
