<?xml version="1.0" encoding="UTF-8" standalone="no"?>
<!-- Created with Inkscape (http://www.inkscape.org/) -->

<svg
   width="60"
   height="60.000019"
   id="svg2"
   version="1.1"
   xmlns="http://www.w3.org/2000/svg"
   xmlns:svg="http://www.w3.org/2000/svg"
   xmlns:rdf="http://www.w3.org/1999/02/22-rdf-syntax-ns#"
   xmlns:cc="http://creativecommons.org/ns#"
   xmlns:dc="http://purl.org/dc/elements/1.1/">
  <style
     id="current-color-scheme">.ink{color:#000080}</style>
  <defs
     id="defs4" />
  <metadata
     id="metadata7">
    <rdf:RDF>
      <cc:Work
         rdf:about="">
        <dc:format>image/svg+xml</dc:format>
        <dc:type
           rdf:resource="http://purl.org/dc/dcmitype/StillImage" />
        <dc:title />
      </cc:Work>
    </rdf:RDF>
  </metadata>
  <g
     id="layer1"
     transform="translate(0,-988.61218)">
    <g
       id="g3785"
       transform="translate(85)">
      <path
         id="path3005"
         style="fill:currentColor"
         transform="matrix(1.5,0,0,1.5,27.5,986.3622)"
         d="m -50,9 a 5,5 0 0 1 -4.994507,4.999997 5,5 0 0 1 -5.005481,-4.9890115 5,5 0 0 1 4.98351,-5.0109583 5,5 0 0 1 5.01643,4.9780018"
         class="ink" />
      <path
         transform="translate(0,988.3622)"
         id="path3009"
         d="m -55,14 v 20 l 10,10 v 10"
         style="fill:none;stroke:currentColor;stroke-width:5;stroke-linecap:round;stroke-linejoin:miter;stroke-miterlimit:4;stroke-dasharray:none;stroke-opacity:1"
         class="ink" />
      <path
         transform="translate(0,988.3622)"
         id="path3011"
         d="M -55,34 -65,54"
         style="fill:none;stroke:currentColor;stroke-width:5;stroke-linecap:round;stroke-linejoin:miter;stroke-miterlimit:4;stroke-dasharray:none;stroke-opacity:1"
         class="ink" />
      <path
         transform="translate(0,988.3622)"
         id="path3013"
         d="m -55,19 -10,5 v 10"
         style="fill:none;stroke:currentColor;stroke-width:5;stroke-linecap:round;stroke-linejoin:miter;stroke-miterlimit:4;stroke-dasharray:none;stroke-opacity:1"
         class="ink" />
      <path
         transform="translate(0,988.3622)"
         id="path3015"
         d="m -55,24 10,10"
         style="fill:none;stroke:currentColor;stroke-width:5;stroke-linecap:round;stroke-linejoin:miter;stroke-miterlimit:4;stroke-dasharray:none;stroke-opacity:1"
         class="ink" />
    </g>
    <path
       id="rect3792"
       style="fill:none"
       d="m 0,988.61218 h 60 v 60.00002 H 0 Z" />
  </g>
</svg>
