<?xml version="1.0" encoding="UTF-8" standalone="no"?>
<!-- Created with Inkscape (http://www.inkscape.org/) -->

<svg
   xmlns:dc="http://purl.org/dc/elements/1.1/"
   xmlns:cc="http://creativecommons.org/ns#"
   xmlns:rdf="http://www.w3.org/1999/02/22-rdf-syntax-ns#"
   xmlns:svg="http://www.w3.org/2000/svg"
   xmlns="http://www.w3.org/2000/svg"
   version="1.1"
   width="64"
   height="64"
   id="svg3513">
  <defs
     id="defs3515" />
  <metadata
     id="metadata3518">
    <rdf:RDF>
      <cc:Work
         rdf:about="">
        <dc:format>image/svg+xml</dc:format>
        <dc:type
           rdf:resource="http://purl.org/dc/dcmitype/StillImage" />
        <dc:title></dc:title>
      </cc:Work>
    </rdf:RDF>
  </metadata>
  <g
     id="layer1">
    <path
       d="m 5,39 55,0"
       id="path3031"
       style="fill:none;stroke:#000080;stroke-width:1px;stroke-linecap:butt;stroke-linejoin:miter;stroke-opacity:1" />
    <path
       d="m 40.518979,18.390611 5.107143,4e-6 0,5.09877 4.373878,0 0,-5.098774 5.107138,0 0,-4.390611 L 50,14 l -5e-6,-5.098774 -4.373873,0 -5e-6,5.098778 -5.107138,-4e-6 0,4.390611 z"
       id="rect3117-7"
       style="fill:#008000;fill-opacity:1;fill-rule:nonzero;stroke:#000000;stroke-width:0.41184056;stroke-linecap:round;stroke-linejoin:round;stroke-miterlimit:4;stroke-opacity:1;stroke-dasharray:none" />
    <path
       d="M 24.153011,13.037711 A 7.5,7.5 0 1 1 23.942394,12.660006"
       id="path3004"
       style="fill:#ffcc00;fill-opacity:1;fill-rule:evenodd;stroke:#ffcc00;stroke-width:2.5;stroke-linecap:round;stroke-linejoin:round;stroke-miterlimit:4;stroke-opacity:1;stroke-dasharray:none;stroke-dashoffset:0" />
    <path
       d="M 39.435341,26.691808 A 5,5 0 1 1 39.29493,26.440004"
       transform="translate(2.4999995,0)"
       id="path3006"
       style="fill:#000080;fill-opacity:1;fill-rule:evenodd;stroke:#000080;stroke-width:2.5;stroke-linecap:round;stroke-linejoin:round;stroke-miterlimit:4;stroke-opacity:1;stroke-dasharray:none;stroke-dashoffset:0" />
    <path
       d="m 35,35 0,2 -6,0 -6,13 4,0 4,-8 0,17 13,0 0,-17 4,8 4,0 -6,-13 -6,0 0,-2 z"
       id="path3027"
       style="fill:#000080;stroke:#000080;stroke-width:1px;stroke-linecap:butt;stroke-linejoin:miter;stroke-opacity:1" />
    <rect
       width="55"
       height="55"
       x="5"
       y="4"
       id="rect3029"
       style="fill:none;stroke:#000080;stroke-width:2.5;stroke-linecap:round;stroke-linejoin:round;stroke-miterlimit:4;stroke-opacity:1;stroke-dasharray:none;stroke-dashoffset:0" />
    <path
       d="m 28,17 10,0"
       id="path3033"
       style="fill:none;stroke:#ffd42a;stroke-width:1px;stroke-linecap:butt;stroke-linejoin:miter;stroke-opacity:1" />
    <path
       d="m 25,24 5,6"
       id="path3035"
       style="fill:none;stroke:#ffd42a;stroke-width:1px;stroke-linecap:butt;stroke-linejoin:miter;stroke-opacity:1" />
    <path
       d="m 17,28 0,6"
       id="path3037"
       style="fill:none;stroke:#ffd42a;stroke-width:1px;stroke-linecap:butt;stroke-linejoin:miter;stroke-opacity:1" />
    <path
       d="M 10,24 6,29"
       id="path3039"
       style="fill:none;stroke:#ffd42a;stroke-width:1px;stroke-linecap:butt;stroke-linejoin:miter;stroke-opacity:1" />
  </g>
</svg>
