<?xml version="1.0" encoding="UTF-8" standalone="no"?>
<!-- Created with Inkscape (http://www.inkscape.org/) -->

<svg
   xmlns:dc="http://purl.org/dc/elements/1.1/"
   xmlns:cc="http://creativecommons.org/ns#"
   xmlns:rdf="http://www.w3.org/1999/02/22-rdf-syntax-ns#"
   xmlns:svg="http://www.w3.org/2000/svg"
   xmlns="http://www.w3.org/2000/svg"
   xmlns:sodipodi="http://sodipodi.sourceforge.net/DTD/sodipodi-0.dtd"
   xmlns:inkscape="http://www.inkscape.org/namespaces/inkscape"
   id="svg2"
   version="1.1"
   inkscape:version="0.48.5 r10040"
   width="64"
   height="67"
   sodipodi:docname="AddRte.svg">
  <metadata
     id="metadata8">
    <rdf:RDF>
      <cc:Work
         rdf:about="">
        <dc:format>image/svg+xml</dc:format>
        <dc:type
           rdf:resource="http://purl.org/dc/dcmitype/StillImage" />
        <dc:title />
      </cc:Work>
    </rdf:RDF>
  </metadata>
  <defs
     id="defs6" />
  <sodipodi:namedview
     pagecolor="#ffffff"
     bordercolor="#666666"
     borderopacity="1"
     objecttolerance="10"
     gridtolerance="10"
     guidetolerance="10"
     inkscape:pageopacity="0"
     inkscape:pageshadow="2"
     inkscape:window-width="1920"
     inkscape:window-height="996"
     id="namedview4"
     showgrid="true"
     inkscape:zoom="3.5223881"
     inkscape:cx="51.937619"
     inkscape:cy="45.751544"
     inkscape:window-x="-2"
     inkscape:window-y="-3"
     inkscape:window-maximized="1"
     inkscape:current-layer="svg2">
    <inkscape:grid
       type="xygrid"
       id="grid2982" />
  </sodipodi:namedview>
  <g
     id="g3063"
     transform="matrix(0.72727272,0,0,0.66666667,8.6363638,13.593741)">
    <path
       inkscape:connector-curvature="0"
       id="path3036"
       d="M 15,12 50,32 20,52"
       style="fill:none;stroke:#ff0000;stroke-width:10;stroke-linecap:round;stroke-linejoin:round;stroke-miterlimit:4;stroke-opacity:1;stroke-dasharray:none" />
    <path
       transform="matrix(1.3333333,0,0,1.3333333,-1.6666667,-7.3333333)"
       sodipodi:open="true"
       sodipodi:end="6.2789689"
       sodipodi:start="0"
       d="M 20,14.5 C 20,18.642136 16.642136,22 12.5,22 8.3578644,22 5,18.642136 5,14.5 5,10.357864 8.3578644,7 12.5,7 c 4.129791,0 7.482521,3.338622 7.499933,7.468377"
       sodipodi:ry="7.5"
       sodipodi:rx="7.5"
       sodipodi:cy="14.5"
       sodipodi:cx="12.5"
       id="path2984"
       style="fill:#ff0000;fill-opacity:1;fill-rule:evenodd;stroke:none"
       sodipodi:type="arc" />
    <path
       transform="matrix(1.3333333,0,0,1.3333333,33.333334,12.666667)"
       sodipodi:open="true"
       sodipodi:end="6.2789689"
       sodipodi:start="0"
       d="M 20,14.5 C 20,18.642136 16.642136,22 12.5,22 8.3578644,22 5,18.642136 5,14.5 5,10.357864 8.3578644,7 12.5,7 c 4.129791,0 7.482521,3.338622 7.499933,7.468377"
       sodipodi:ry="7.5"
       sodipodi:rx="7.5"
       sodipodi:cy="14.5"
       sodipodi:cx="12.5"
       id="path2984-8"
       style="fill:#ff0000;fill-opacity:1;fill-rule:evenodd;stroke:none"
       sodipodi:type="arc" />
    <path
       transform="matrix(1.3333333,0,0,1.3333333,3.3333338,32.666667)"
       sodipodi:open="true"
       sodipodi:end="6.2789689"
       sodipodi:start="0"
       d="M 20,14.5 C 20,18.642136 16.642136,22 12.5,22 8.3578644,22 5,18.642136 5,14.5 5,10.357864 8.3578644,7 12.5,7 c 4.129791,0 7.482521,3.338622 7.499933,7.468377"
       sodipodi:ry="7.5"
       sodipodi:rx="7.5"
       sodipodi:cy="14.5"
       sodipodi:cx="12.5"
       id="path2984-0"
       style="fill:#ff0000;fill-opacity:1;fill-rule:evenodd;stroke:none"
       sodipodi:type="arc" />
  </g>
  <path
     style="fill:#000080;fill-opacity:1;fill-rule:nonzero;stroke:#000000;stroke-width:0.54912072;stroke-linecap:round;stroke-linejoin:round;stroke-miterlimit:4;stroke-opacity:1;stroke-dasharray:none"
     d="m 32.547287,47.854148 6.809525,5e-6 0,6.798361 5.831837,0 0,-6.798366 6.809518,0 0,-5.854148 -6.809518,0 -6e-6,-6.798366 -5.831831,0 -5e-6,6.798371 -6.80952,-5e-6 0,5.854148 z"
     id="rect3117-7"
     inkscape:connector-curvature="0"
     inkscape:export-filename="/home/oeichler/Code/cpp/MapRoom/src/icons/16x16/add.png"
     inkscape:export-xdpi="75.913841"
     inkscape:export-ydpi="75.913841" />
</svg>
