<?xml version="1.0" encoding="UTF-8" standalone="no"?>
<!-- Created with Inkscape (http://www.inkscape.org/) -->

<svg
   id="svg3020"
   version="1.1"
   width="64"
   height="64"
   viewBox="0 0 64 64"
   xmlns="http://www.w3.org/2000/svg"
   xmlns:svg="http://www.w3.org/2000/svg"
   xmlns:rdf="http://www.w3.org/1999/02/22-rdf-syntax-ns#"
   xmlns:cc="http://creativecommons.org/ns#"
   xmlns:dc="http://purl.org/dc/elements/1.1/">
  <defs
     id="defs13" />
  <g
     transform="translate(0.2877,-0.0000) scale(1.582877)"
     id="g8">
    <style id="current-color-scheme">.ink{color:#000080}.ink-lead{fill:#000080;color:#000000}</style>
    <defs
       id="defs3022" />
    <metadata
       id="metadata3025">
      <rdf:RDF>
        <cc:Work
           rdf:about="">
          <dc:format>image/svg+xml</dc:format>
          <dc:type
             rdf:resource="http://purl.org/dc/dcmitype/StillImage" />
          <dc:title />
        </cc:Work>
      </rdf:RDF>
    </metadata>
    <g
       id="layer1"
       transform="translate(-10.681303,-11.269887)">
      <path
         id="rect4156-1"
         style="fill:none;stroke:currentColor;stroke-width:0;stroke-linecap:round;stroke-linejoin:round"
         d="m 11.625697,11.454543 h 37.47588 v 40 h -37.47588 z"
         class="ink" />
      <path
         style="stroke:currentColor;stroke-width:1.5794;stroke-miterlimit:4;stroke-dasharray:none;stroke-opacity:1"
         d="m 31.10239,12.202208 -2.157429,0.07067 -0.636623,2.367451 v 0.282681 l 0.318322,2.014099 -3.006253,0.742037 -0.671982,-1.94343 -0.106001,-0.212008 -1.697647,-1.802091 -1.909847,0.91871 0.353661,2.473459 0.141401,0.21201 1.061043,1.73142 -2.440369,1.908095 -1.379344,-1.484074 -0.212263,-0.176677 -2.298898,-0.954048 -1.379335,1.625416 1.379335,2.120103 0.176822,0.141333 1.697646,1.130724 -1.450074,2.685472 -1.874481,-0.742035 -0.247576,-0.07069 -2.440365,0.07069 -0.636619,2.049434 2.086691,1.342734 0.247575,0.07067 2.015952,0.35335 -0.247573,3.038821 -2.015954,0.07067 -0.247574,0.03528 -2.228159,1.060053 0.282942,2.120105 2.440366,0.388687 h 0.28294 l 1.945219,-0.530026 1.061028,2.897477 -1.839117,0.883377 -0.212203,0.141333 -1.626913,1.872759 1.131764,1.802089 2.369631,-0.600695 0.247574,-0.141334 1.591543,-1.272064 2.122063,2.190778 -1.308605,1.554743 -0.141401,0.247346 -0.707355,2.36745 1.768379,1.16606 1.945229,-1.519409 0.1414,-0.247346 0.919543,-1.766755 2.864793,1.130724 -0.565883,1.978763 -0.0708,0.247348 0.318301,2.438122 2.122069,0.388685 1.131765,-2.190776 0.0354,-0.282681 0.1414,-2.014099 3.041613,-0.141333 0.318301,2.049436 0.0354,0.247346 1.308606,2.120107 2.051328,-0.530027 0.1414,-2.438122 -0.0354,-0.282681 -0.742722,-1.908094 2.794031,-1.342733 1.061044,1.731418 0.176801,0.176677 2.015949,1.448739 1.662286,-1.3074 -0.848823,-2.332115 -0.1768,-0.212012 -1.414707,-1.448739 1.980588,-2.367451 1.662267,1.130724 0.247582,0.141334 2.440349,0.459356 0.990305,-1.872761 -1.733008,-1.766756 -0.247581,-0.141333 -1.874487,-0.742037 0.848823,-2.932813 1.980588,0.318014 0.282962,0.03528 2.404989,-0.565362 0.106001,-2.15544 -2.26353,-0.848042 -0.24756,-0.03528 -2.05133,0.07067 -0.424421,-3.038819 1.980589,-0.494691 0.24758,-0.07067 1.980589,-1.519409 -0.742724,-1.978766 -2.47573,0.105929 -0.24758,0.10593 -1.803748,0.883376 -1.662287,-2.6148 1.626927,-1.236729 0.1768,-0.212012 1.202506,-2.120105 -1.485447,-1.554745 -2.228169,1.095387 -0.1768,0.212013 -1.308606,1.554742 -2.54647,-1.731417 0.954923,-1.802091 0.106,-0.247346 0.212222,-2.438121 -1.980588,-0.812708 -1.591547,1.908097 -0.0708,0.282679 -0.530522,1.94343 -3.041613,-0.565362 0.1414,-2.014099 -0.0354,-0.282683 -0.778083,-2.29678 z m 0.176801,8.904445 c 2.364249,0.08888 4.71318,0.959474 6.613747,2.614796 l 0.141401,0.141334 c 0.827163,0.74895 1.487325,1.594843 2.015948,2.508796 l -5.588083,2.049434 c -0.911344,-1.0588 -2.215089,-1.690975 -3.572115,-1.731409 l -1.980588,-5.406276 c 0.776783,-0.143358 1.581547,-0.206312 2.369629,-0.176677 z m -5.694184,1.413403 1.980589,5.370941 c -1.084425,0.929319 -1.714667,2.282521 -1.733027,3.67485 l -5.517344,2.014101 c -0.544702,-3.120978 0.306682,-6.481793 2.652571,-9.010451 0.770404,-0.830431 1.679268,-1.514971 2.617211,-2.049441 z m 15.667865,7.208365 c 0.556022,3.118637 -0.266162,6.47625 -2.617211,9.010451 -0.777103,0.837638 -1.670246,1.513721 -2.617211,2.049436 l -2.015948,-5.512276 c 0.998764,-0.900147 1.614926,-2.185428 1.662267,-3.498175 z m -10.645664,0.388685 c 0.575882,-0.04897 1.156585,0.238471 1.450066,0.777374 v 0.03528 c 0.382702,0.735784 0.0988,1.631181 -0.636622,2.014099 -0.735364,0.38291 -1.633247,0.09973 -2.015949,-0.636031 -0.382701,-0.735796 -0.0988,-1.631193 0.636623,-2.014101 0.181401,-0.09441 0.373921,-0.160381 0.565882,-0.176677 z m -3.536774,4.770241 c 0.925843,1.034882 2.250629,1.607527 3.607514,1.625414 l 2.015949,5.47694 c -3.178174,0.596773 -6.574807,-0.199956 -9.124838,-2.508792 -0.833704,-0.754847 -1.521726,-1.620214 -2.051328,-2.544126 l 5.552723,-2.049436 z"
         id="path6034"
         class="ink-lead" />
    </g>
  </g>
</svg>
