<?xml version="1.0" encoding="UTF-8" standalone="no"?>
<!-- Created with Inkscape (http://www.inkscape.org/) -->

<svg
   xmlns:dc="http://purl.org/dc/elements/1.1/"
   xmlns:cc="http://creativecommons.org/ns#"
   xmlns:rdf="http://www.w3.org/1999/02/22-rdf-syntax-ns#"
   xmlns:svg="http://www.w3.org/2000/svg"
   xmlns="http://www.w3.org/2000/svg"
   xmlns:sodipodi="http://sodipodi.sourceforge.net/DTD/sodipodi-0.dtd"
   xmlns:inkscape="http://www.inkscape.org/namespaces/inkscape"
   width="64px"
   height="64px"
   id="svg3513"
   version="1.1"
   inkscape:version="0.48.4 r9939"
   sodipodi:docname="Reset.svg">
  <defs
     id="defs3515" />
  <sodipodi:namedview
     id="base"
     pagecolor="#ffffff"
     bordercolor="#666666"
     borderopacity="1.0"
     inkscape:pageopacity="0.0"
     inkscape:pageshadow="2"
     inkscape:zoom="11"
     inkscape:cx="10.807399"
     inkscape:cy="28.929652"
     inkscape:current-layer="layer1"
     showgrid="true"
     inkscape:document-units="px"
     inkscape:grid-bbox="true"
     inkscape:window-width="1920"
     inkscape:window-height="996"
     inkscape:window-x="-2"
     inkscape:window-y="-3"
     inkscape:window-maximized="1">
    <inkscape:grid
       type="xygrid"
       id="grid2983" />
  </sodipodi:namedview>
  <metadata
     id="metadata3518">
    <rdf:RDF>
      <cc:Work
         rdf:about="">
        <dc:format>image/svg+xml</dc:format>
        <dc:type
           rdf:resource="http://purl.org/dc/dcmitype/StillImage" />
        <dc:title></dc:title>
      </cc:Work>
    </rdf:RDF>
  </metadata>
  <g
     id="layer1"
     inkscape:label="Layer 1"
     inkscape:groupmode="layer">
    <g
       id="g3802"
       transform="matrix(0.5008634,0.5008634,-0.5901085,0.5901085,26.198928,-1.0442194)">
      <path
         inkscape:connector-curvature="0"
         id="path2985"
         d="M 47.450321,2.8460541 25.71827,36.48707 l 0.113261,0.678826 c -1.109489,-0.860424 -2.476507,-1.405207 -3.985856,-1.471294 -3.878786,-0.169833 -7.178242,2.848455 -7.348076,6.727241 -0.169834,3.878787 2.848455,7.178243 6.727241,7.348077 3.261057,0.142786 6.095959,-1.990567 7.018529,-4.968949 C 33.994625,33.922742 53.422885,17.314064 47.450321,2.8460541 z"
         style="fill:#000080;fill-opacity:1;fill-rule:evenodd;stroke:#000000;stroke-width:1;stroke-linecap:round;stroke-linejoin:round;stroke-miterlimit:4;stroke-dasharray:none" />
      <path
         inkscape:connector-curvature="0"
         id="path2985-4"
         d="m 15.618132,2.846054 21.73205,33.641016 -0.113261,0.678826 c 1.109489,-0.860424 2.476508,-1.405207 3.985857,-1.471294 3.878786,-0.169833 7.178242,2.848455 7.348076,6.727241 0.169835,3.878787 -2.848455,7.178243 -6.727241,7.348077 -3.261057,0.142786 -6.095959,-1.990567 -7.018529,-4.968949 C 29.073828,33.922742 9.6455677,17.314064 15.618132,2.846054 z"
         style="fill:#000080;fill-opacity:1;fill-rule:evenodd;stroke:#000000;stroke-width:1;stroke-linecap:round;stroke-linejoin:round;stroke-miterlimit:4;stroke-dasharray:none" />
      <path
         transform="translate(-0.27272727,-0.45454545)"
         sodipodi:open="true"
         sodipodi:end="12.08609"
         sodipodi:start="5.8033439"
         d="m 25.548273,41.153446 c 1.019823,1.959657 0.257938,4.375003 -1.701719,5.394827 -1.959657,1.019823 -4.375003,0.257938 -5.394827,-1.701719 -1.019823,-1.959657 -0.257938,-4.375003 1.701719,-5.394827 1.959048,-1.019506 4.373648,-0.25844 5.394015,1.700161"
         sodipodi:ry="4"
         sodipodi:rx="4"
         sodipodi:cy="43"
         sodipodi:cx="22"
         id="path3780"
         style="fill:#ffffff;fill-opacity:1;fill-rule:evenodd;stroke:#000000;stroke-width:1;stroke-linecap:round;stroke-linejoin:round;stroke-miterlimit:4;stroke-opacity:1;stroke-dasharray:none;stroke-dashoffset:0"
         sodipodi:type="arc" />
      <path
         transform="translate(19.636364,-0.27272769)"
         sodipodi:open="true"
         sodipodi:end="12.08609"
         sodipodi:start="5.8033439"
         d="m 25.548273,41.153446 c 1.019823,1.959657 0.257938,4.375003 -1.701719,5.394827 -1.959657,1.019823 -4.375003,0.257938 -5.394827,-1.701719 -1.019823,-1.959657 -0.257938,-4.375003 1.701719,-5.394827 1.959048,-1.019506 4.373648,-0.25844 5.394015,1.700161"
         sodipodi:ry="4"
         sodipodi:rx="4"
         sodipodi:cy="43"
         sodipodi:cx="22"
         id="path3780-5"
         style="fill:#ffffff;fill-opacity:1;fill-rule:evenodd;stroke:#000000;stroke-width:1;stroke-linecap:round;stroke-linejoin:round;stroke-miterlimit:4;stroke-opacity:1;stroke-dasharray:none;stroke-dashoffset:0"
         sodipodi:type="arc" />
      <path
         transform="translate(0.18181818,0.9090909)"
         sodipodi:open="true"
         sodipodi:end="12.08609"
         sodipodi:start="5.8033439"
         d="m 31.887068,31.538362 c 0.254956,0.489914 0.06449,1.09375 -0.42543,1.348706 -0.489914,0.254956 -1.09375,0.06448 -1.348706,-0.42543 -0.254956,-0.489914 -0.06449,-1.09375 0.42543,-1.348706 0.489762,-0.254877 1.093411,-0.06461 1.348503,0.42504"
         sodipodi:ry="1"
         sodipodi:rx="1"
         sodipodi:cy="32"
         sodipodi:cx="31"
         id="path3800"
         style="fill:#000000;fill-opacity:1;fill-rule:evenodd;stroke:#000000;stroke-width:1;stroke-linecap:round;stroke-linejoin:round;stroke-miterlimit:4;stroke-opacity:1;stroke-dasharray:none;stroke-dashoffset:0"
         sodipodi:type="arc" />
    </g>
  </g>
</svg>
