<?xml version="1.0" encoding="UTF-8" standalone="no"?>
<!-- Created with Inkscape (http://www.inkscape.org/) -->

<svg
   xmlns:dc="http://purl.org/dc/elements/1.1/"
   xmlns:cc="http://creativecommons.org/ns#"
   xmlns:rdf="http://www.w3.org/1999/02/22-rdf-syntax-ns#"
   xmlns:svg="http://www.w3.org/2000/svg"
   xmlns="http://www.w3.org/2000/svg"
   xmlns:sodipodi="http://sodipodi.sourceforge.net/DTD/sodipodi-0.dtd"
   xmlns:inkscape="http://www.inkscape.org/namespaces/inkscape"
   width="64px"
   height="64px"
   id="svg3513"
   version="1.1"
   inkscape:version="0.48.4 r9939"
   sodipodi:docname="CutHistory.svg">
  <defs
     id="defs3515" />
  <sodipodi:namedview
     id="base"
     pagecolor="#ffffff"
     bordercolor="#666666"
     borderopacity="1.0"
     inkscape:pageopacity="0.0"
     inkscape:pageshadow="2"
     inkscape:zoom="11"
     inkscape:cx="-12.101692"
     inkscape:cy="28.929652"
     inkscape:current-layer="layer1"
     showgrid="true"
     inkscape:document-units="px"
     inkscape:grid-bbox="true"
     inkscape:window-width="1920"
     inkscape:window-height="996"
     inkscape:window-x="-2"
     inkscape:window-y="-3"
     inkscape:window-maximized="1">
    <inkscape:grid
       type="xygrid"
       id="grid2983" />
  </sodipodi:namedview>
  <metadata
     id="metadata3518">
    <rdf:RDF>
      <cc:Work
         rdf:about="">
        <dc:format>image/svg+xml</dc:format>
        <dc:type
           rdf:resource="http://purl.org/dc/dcmitype/StillImage" />
        <dc:title />
      </cc:Work>
    </rdf:RDF>
  </metadata>
  <g
     id="layer1"
     inkscape:label="Layer 1"
     inkscape:groupmode="layer">
    <g
       id="g3775"
       transform="matrix(0.8660254,0.5,-0.5,0.8660254,35.26718,4.2611783)">
      <path
         inkscape:connector-curvature="0"
         id="path2985"
         d="m 8.9371346,25.289416 -21.5767716,6.313192 -0.241381,0.321965 c -0.03367,-0.748711 -0.288635,-1.457098 -0.791946,-2.016795 -1.293429,-1.438332 -3.703844,-1.347833 -5.370343,0.203764 -1.666499,1.551598 -1.972065,3.986732 -0.678636,5.425064 1.08744,1.209266 2.967933,1.322609 4.526103,0.410531 6.5284443,-2.491424 20.2395651,-2.54072 24.1329746,-10.657721 z"
         style="fill:#000080;fill-opacity:1;fill-rule:evenodd;stroke:#000000;stroke-width:0.54051167;stroke-linecap:round;stroke-linejoin:round;stroke-miterlimit:4;stroke-dasharray:none" />
      <path
         transform="matrix(0.35160043,0.35262913,-0.41424948,0.41546148,-6.475038,7.0896072)"
         sodipodi:open="true"
         sodipodi:end="12.08609"
         sodipodi:start="5.8033439"
         d="m 25.548273,41.153446 c 1.019823,1.959657 0.257938,4.375003 -1.701719,5.394827 -1.959657,1.019823 -4.375003,0.257938 -5.394827,-1.701719 -1.019823,-1.959657 -0.257938,-4.375003 1.701719,-5.394827 1.959048,-1.019506 4.373648,-0.25844 5.394015,1.700161"
         sodipodi:ry="4"
         sodipodi:rx="4"
         sodipodi:cy="43"
         sodipodi:cx="22"
         id="path3780"
         style="fill:#ffffff;fill-opacity:1;fill-rule:evenodd;stroke:#000000;stroke-width:1;stroke-linecap:round;stroke-linejoin:round;stroke-miterlimit:4;stroke-opacity:1;stroke-dasharray:none;stroke-dashoffset:0"
         sodipodi:type="arc" />
    </g>
    <rect
       style="fill:#ffffff;stroke:#000080;stroke-width:1.23895322999999991;stroke-linecap:round;stroke-linejoin:round;stroke-miterlimit:4;stroke-opacity:1;stroke-dasharray:none;stroke-dashoffset:0"
       id="rect3759"
       width="23.761047"
       height="38.761047"
       x="15.119476"
       y="5.1194768" />
    <path
       style="fill:none;stroke:#000080;stroke-width:1.01503849000000002px;stroke-linecap:butt;stroke-linejoin:miter;stroke-opacity:1"
       d="m 15.287879,14 23.696969,0"
       id="path3759"
       inkscape:connector-curvature="0" />
    <path
       style="fill:none;stroke:#000080;stroke-width:1px;stroke-linecap:butt;stroke-linejoin:miter;stroke-opacity:1"
       d="m 15,24 24,0"
       id="path3761"
       inkscape:connector-curvature="0" />
    <path
       style="fill:none;stroke:#000080;stroke-width:1.01317083999999991px;stroke-linecap:butt;stroke-linejoin:miter;stroke-opacity:1"
       d="m 15.013258,34 23.609848,0"
       id="path3763"
       inkscape:connector-curvature="0" />
    <g
       id="g3770"
       transform="matrix(0.8660254,0.5,-0.5,0.8660254,35.267181,4.2611781)">
      <path
         inkscape:connector-curvature="0"
         id="path2985-4"
         d="m -2.2550767,14.064459 -6.2947752,21.6399 -0.321026,0.242087 c 0.746527,0.03376 1.4528476,0.28948 2.0109119,0.794263 1.434136,1.297214 1.3439019,3.714681 -0.2031695,5.386056 -1.5470714,1.671375 -3.9751015,1.977835 -5.4092375,0.680621 -1.205738,-1.090621 -1.318751,-2.976616 -0.409334,-4.539344 2.484157,-6.547546 2.533309,-20.298782 10.6266303,-24.203583 z"
         style="fill:#000080;fill-opacity:1;fill-rule:evenodd;stroke:#000000;stroke-width:0.54051167;stroke-linecap:round;stroke-linejoin:round;stroke-miterlimit:4;stroke-dasharray:none" />
      <path
         transform="matrix(0.35160043,0.35262913,-0.41424948,0.41546148,0.44968913,14.185671)"
         sodipodi:open="true"
         sodipodi:end="12.08609"
         sodipodi:start="5.8033439"
         d="m 25.548273,41.153446 c 1.019823,1.959657 0.257938,4.375003 -1.701719,5.394827 -1.959657,1.019823 -4.375003,0.257938 -5.394827,-1.701719 -1.019823,-1.959657 -0.257938,-4.375003 1.701719,-5.394827 1.959048,-1.019506 4.373648,-0.25844 5.394015,1.700161"
         sodipodi:ry="4"
         sodipodi:rx="4"
         sodipodi:cy="43"
         sodipodi:cx="22"
         id="path3780-5"
         style="fill:#ffffff;fill-opacity:1;fill-rule:evenodd;stroke:#000000;stroke-width:1;stroke-linecap:round;stroke-linejoin:round;stroke-miterlimit:4;stroke-opacity:1;stroke-dasharray:none;stroke-dashoffset:0"
         sodipodi:type="arc" />
      <path
         transform="matrix(0.35160043,0.35262913,-0.41424948,0.41546148,-6.8801053,7.8164315)"
         sodipodi:open="true"
         sodipodi:end="12.08609"
         sodipodi:start="5.8033439"
         d="m 31.887068,31.538362 c 0.254956,0.489914 0.06449,1.09375 -0.42543,1.348706 -0.489914,0.254956 -1.09375,0.06448 -1.348706,-0.42543 -0.254956,-0.489914 -0.06449,-1.09375 0.42543,-1.348706 0.489762,-0.254877 1.093411,-0.06461 1.348503,0.42504"
         sodipodi:ry="1"
         sodipodi:rx="1"
         sodipodi:cy="32"
         sodipodi:cx="31"
         id="path3800"
         style="fill:#000000;fill-opacity:1;fill-rule:evenodd;stroke:#000000;stroke-width:1;stroke-linecap:round;stroke-linejoin:round;stroke-miterlimit:4;stroke-opacity:1;stroke-dasharray:none;stroke-dashoffset:0"
         sodipodi:type="arc" />
    </g>
  </g>
</svg>
