<?xml version="1.0" encoding="UTF-8" standalone="no"?>
<!-- Created with Inkscape (http://www.inkscape.org/) -->

<svg
   xmlns:dc="http://purl.org/dc/elements/1.1/"
   xmlns:cc="http://creativecommons.org/ns#"
   xmlns:rdf="http://www.w3.org/1999/02/22-rdf-syntax-ns#"
   xmlns:svg="http://www.w3.org/2000/svg"
   xmlns="http://www.w3.org/2000/svg"
   xmlns:sodipodi="http://sodipodi.sourceforge.net/DTD/sodipodi-0.dtd"
   xmlns:inkscape="http://www.inkscape.org/namespaces/inkscape"
   width="64px"
   height="64px"
   id="svg3376"
   version="1.1"
   inkscape:version="0.91 r13725"
   sodipodi:docname="DatabaseSync.svg">
  <defs
     id="defs3378" />
  <sodipodi:namedview
     id="base"
     pagecolor="#ffffff"
     bordercolor="#666666"
     borderopacity="1.0"
     inkscape:pageopacity="0.0"
     inkscape:pageshadow="2"
     inkscape:zoom="11"
     inkscape:cx="15.862319"
     inkscape:cy="23.880871"
     inkscape:current-layer="layer1"
     showgrid="true"
     inkscape:document-units="px"
     inkscape:grid-bbox="true"
     inkscape:window-width="1920"
     inkscape:window-height="981"
     inkscape:window-x="0"
     inkscape:window-y="0"
     inkscape:window-maximized="1">
    <inkscape:grid
       type="xygrid"
       id="grid3010" />
  </sodipodi:namedview>
  <metadata
     id="metadata3381">
    <rdf:RDF>
      <cc:Work
         rdf:about="">
        <dc:format>image/svg+xml</dc:format>
        <dc:type
           rdf:resource="http://purl.org/dc/dcmitype/StillImage" />
        <dc:title />
      </cc:Work>
    </rdf:RDF>
  </metadata>
  <g
     id="layer1"
     inkscape:label="Layer 1"
     inkscape:groupmode="layer">
    <g
       id="g4145"
       transform="translate(3.7272608,1.0891519)">
      <g
         style="stroke-width:3.38945651;stroke-miterlimit:4;stroke-dasharray:none"
         transform="matrix(0.71058554,0,0,0.75774157,8.7726785,6.0245905)"
         id="g3856">
        <path
           sodipodi:type="arc"
           style="fill:#ffffff;fill-opacity:1;fill-rule:evenodd;stroke:#000080;stroke-width:3.60437727;stroke-linecap:round;stroke-linejoin:round;stroke-miterlimit:4;stroke-dasharray:none;stroke-dashoffset:0;stroke-opacity:1"
           id="path3012-6"
           sodipodi:cx="30"
           sodipodi:cy="19"
           sodipodi:rx="20"
           sodipodi:ry="5"
           d="m 47.741363,16.691808 a 20,5 0 0 1 -8.506645,6.743279 20,5 0 0 1 -26.974053,-2.125921 20,5 0 0 1 8.500722,-6.743746 20,5 0 0 1 26.975919,2.12444"
           sodipodi:start="5.8033439"
           sodipodi:end="5.8029047"
           sodipodi:open="true"
           transform="matrix(0.97628959,0,0,0.90577639,0.75264714,41.745822)" />
        <rect
           style="fill:#ffffff;fill-opacity:1;fill-rule:evenodd;stroke:none"
           id="rect3032"
           width="40"
           height="40"
           x="10.056155"
           y="18.943857" />
        <path
           sodipodi:type="arc"
           style="fill:#ffffff;fill-opacity:1;fill-rule:evenodd;stroke:#000080;stroke-width:3.60437727;stroke-linecap:round;stroke-linejoin:round;stroke-miterlimit:4;stroke-dasharray:none;stroke-dashoffset:0;stroke-opacity:1"
           id="path3012"
           sodipodi:cx="30"
           sodipodi:cy="19"
           sodipodi:rx="20"
           sodipodi:ry="5"
           d="m 47.741363,16.691808 a 20,5 0 0 1 -8.506645,6.743279 20,5 0 0 1 -26.974053,-2.125921 20,5 0 0 1 8.500722,-6.743746 20,5 0 0 1 26.975919,2.12444"
           sodipodi:start="5.8033439"
           sodipodi:end="5.8029047"
           sodipodi:open="true"
           transform="matrix(0.97628959,0,0,0.90577639,0.75264717,1.7458229)" />
        <path
           sodipodi:type="arc"
           style="fill:#ffffff;fill-opacity:1;fill-rule:evenodd;stroke:#000080;stroke-width:3.67074943;stroke-linecap:round;stroke-linejoin:round;stroke-miterlimit:4;stroke-dasharray:none;stroke-dashoffset:0;stroke-opacity:1"
           id="path3012-0"
           sodipodi:cx="30"
           sodipodi:cy="19"
           sodipodi:rx="20"
           sodipodi:ry="5"
           d="M 49.959676,19.317345 A 20,5 0 0 1 30.145537,23.999868 20,5 0 0 1 10.060911,19.389931"
           sodipodi:start="0.063511676"
           sodipodi:end="3.0635271"
           transform="matrix(0.9793945,0,0,0.87054856,0.71290745,12.690707)"
           sodipodi:open="true" />
        <path
           sodipodi:type="arc"
           style="fill:#ffffff;fill-opacity:1;fill-rule:evenodd;stroke:#000080;stroke-width:3.67074943;stroke-linecap:round;stroke-linejoin:round;stroke-miterlimit:4;stroke-dasharray:none;stroke-dashoffset:0;stroke-opacity:1"
           id="path3012-0-2"
           sodipodi:cx="30"
           sodipodi:cy="19"
           sodipodi:rx="20"
           sodipodi:ry="5"
           d="M 49.959676,19.317345 A 20,5 0 0 1 30.145537,23.999868 20,5 0 0 1 10.060911,19.389931"
           sodipodi:start="0.063511676"
           sodipodi:end="3.0635271"
           transform="matrix(0.9793945,0,0,0.87054856,0.6219979,22.236163)"
           sodipodi:open="true" />
        <path
           sodipodi:type="arc"
           style="fill:#ffffff;fill-opacity:1;fill-rule:evenodd;stroke:#000080;stroke-width:3.67074943;stroke-linecap:round;stroke-linejoin:round;stroke-miterlimit:4;stroke-dasharray:none;stroke-dashoffset:0;stroke-opacity:1"
           id="path3012-0-1"
           sodipodi:cx="30"
           sodipodi:cy="19"
           sodipodi:rx="20"
           sodipodi:ry="5"
           d="M 49.959676,19.317345 A 20,5 0 0 1 30.145537,23.999868 20,5 0 0 1 10.060911,19.389931"
           sodipodi:start="0.063511676"
           sodipodi:end="3.0635271"
           transform="matrix(0.9793945,0,0,0.87054856,0.71290699,32.327076)"
           sodipodi:open="true" />
        <path
           style="fill:#ffffff;stroke:#000080;stroke-width:3.38945651;stroke-linecap:round;stroke-linejoin:miter;stroke-miterlimit:4;stroke-dasharray:none;stroke-opacity:1"
           d="m 10.454545,19 0,40"
           id="path3084"
           inkscape:connector-curvature="0" />
        <path
           style="fill:#ffffff;stroke:#000080;stroke-width:3.38945651;stroke-linecap:round;stroke-linejoin:miter;stroke-miterlimit:4;stroke-dasharray:none;stroke-opacity:1"
           d="m 49.545455,19 0,40"
           id="path3086"
           inkscape:connector-curvature="0" />
      </g>
      <rect
         y="15.542849"
         x="14.933648"
         height="40"
         width="40"
         id="rect4150"
         style="fill:none;stroke:none;stroke-width:3;stroke-miterlimit:4;stroke-dasharray:none" />
    </g>
    <path
       inkscape:connector-curvature="0"
       style="fill:#0000ff;fill-opacity:1;fill-rule:nonzero;stroke:#000000;stroke-width:0.55265534;stroke-linecap:round;stroke-linejoin:round;stroke-miterlimit:4;stroke-dasharray:none;stroke-opacity:1"
       d="m 55.943133,26.909748 -3.260991,3.590955 c -0.518388,-0.393613 -1.055618,-0.772604 -1.642227,-1.104908 -2.202489,-1.247679 -4.592863,-1.895958 -6.96773,-1.95661 -5.224702,-0.13345 -10.363731,2.473647 -13.161267,7.227945 -4.069139,6.915348 -1.652075,15.757669 5.395886,19.750251 7.047961,3.992574 16.059851,1.620991 20.128997,-5.294355 1.3776,-2.34117 1.983967,-4.892634 1.94721,-7.4121 l -7.343096,0.06903 c 0.02469,1.270815 -0.290256,2.547803 -0.985335,3.729069 -2.034574,3.457672 -6.540511,4.643477 -10.0645,2.647179 -3.523979,-1.996293 -4.732521,-6.417445 -2.697942,-9.875126 2.034574,-3.457672 6.540511,-4.643477 10.064498,-2.647178 0.142832,0.0809 0.265926,0.184263 0.398827,0.276227 l -3.706738,4.074353 13.865078,0.02298 -1.97067,-13.097777 z"
       id="path4064"
       inkscape:export-filename="/home/oeichler/dateien/cpp/MapRoom/src/icons/16x16/reset.png"
       inkscape:export-xdpi="36.030266"
       inkscape:export-ydpi="36.030266" />
  </g>
</svg>
