<?xml version="1.0" encoding="UTF-8" standalone="no"?>
<!-- Created with Inkscape (http://www.inkscape.org/) -->

<svg
   xmlns:dc="http://purl.org/dc/elements/1.1/"
   xmlns:cc="http://creativecommons.org/ns#"
   xmlns:rdf="http://www.w3.org/1999/02/22-rdf-syntax-ns#"
   xmlns:svg="http://www.w3.org/2000/svg"
   xmlns="http://www.w3.org/2000/svg"
   xmlns:sodipodi="http://sodipodi.sourceforge.net/DTD/sodipodi-0.dtd"
   xmlns:inkscape="http://www.inkscape.org/namespaces/inkscape"
   width="64px"
   height="64px"
   id="svg3020"
   version="1.1"
   inkscape:version="0.92.2 5c3e80d, 2017-08-06"
   sodipodi:docname="EditView.svg">
  <defs
     id="defs3022" />
  <sodipodi:namedview
     id="base"
     pagecolor="#ffffff"
     bordercolor="#666666"
     borderopacity="1.0"
     inkscape:pageopacity="0.0"
     inkscape:pageshadow="2"
     inkscape:zoom="11"
     inkscape:cx="23.9331"
     inkscape:cy="28.667849"
     inkscape:current-layer="layer1"
     showgrid="true"
     inkscape:document-units="px"
     inkscape:grid-bbox="true"
     inkscape:window-width="1912"
     inkscape:window-height="993"
     inkscape:window-x="0"
     inkscape:window-y="0"
     inkscape:window-maximized="0">
    <inkscape:grid
       type="xygrid"
       id="grid3017" />
  </sodipodi:namedview>
  <metadata
     id="metadata3025">
    <rdf:RDF>
      <cc:Work
         rdf:about="">
        <dc:format>image/svg+xml</dc:format>
        <dc:type
           rdf:resource="http://purl.org/dc/dcmitype/StillImage" />
        <dc:title></dc:title>
      </cc:Work>
    </rdf:RDF>
  </metadata>
  <g
     id="layer1"
     inkscape:label="Layer 1"
     inkscape:groupmode="layer">
    <g
       id="g3019"
       transform="translate(0.79694032,2.7272728)">
      <rect
         style="fill:none;stroke:#000080;stroke-width:0;stroke-linecap:round;stroke-linejoin:round;stroke-miterlimit:4;stroke-dasharray:none;stroke-opacity:1"
         id="rect4156-1"
         width="37.47588"
         height="40"
         x="11.625697"
         y="11.454543" />
      <g
         id="g3012">
        <path
           id="path4129-7-3-9"
           style="fill:#ffffff;stroke:#ffffff;stroke-width:4.43720007;stroke-linecap:round;stroke-linejoin:round;stroke-miterlimit:4;stroke-dasharray:none;stroke-opacity:1"
           d="m 12.578659,31.869715 c 5.995718,9.867863 18.720945,12.923577 28.422579,6.82512 2.822568,-1.774263 5.18323,-4.214229 6.882092,-7.113257 M 12.843943,31.039361 c 5.995719,-9.867863 18.720945,-12.923577 28.422579,-6.82512 2.822568,1.774263 5.18323,4.214228 6.882092,7.113257"
           inkscape:connector-curvature="0" />
        <path
           id="path4129-7-3"
           style="fill:#ffffff;stroke:#000080;stroke-width:2.03560519;stroke-linecap:round;stroke-linejoin:round;stroke-miterlimit:4;stroke-opacity:1"
           d="m 12.578658,31.869715 c 5.995718,9.867863 18.720946,12.923577 28.42258,6.82512 2.822568,-1.774263 5.18323,-4.214229 6.882092,-7.113257 M 12.843942,31.039361 c 5.995719,-9.867863 18.720946,-12.923577 28.42258,-6.82512 2.822568,1.774263 5.18323,4.214228 6.882092,7.113257"
           inkscape:connector-curvature="0" />
        <path
           sodipodi:open="true"
           sodipodi:end="5.7456747"
           sodipodi:start="5.8033439"
           d="m 379.43534,30.05399 a 5,5 0 0 1 -2.06344,6.709796 5,5 0 0 1 -6.73885,-1.966497 5,5 0 0 1 1.86914,-6.766497 5,5 0 0 1 6.79274,1.771394"
           sodipodi:ry="5"
           sodipodi:rx="5"
           sodipodi:cy="32.362183"
           sodipodi:cx="375"
           id="path4149-5"
           style="fill:#000080;stroke:#000080;stroke-width:2;stroke-linecap:round;stroke-linejoin:round;stroke-miterlimit:4;stroke-dasharray:none;stroke-opacity:1"
           sodipodi:type="arc"
           transform="matrix(0.89711754,0,0,0.95224119,-306.05544,0.63780763)" />
      </g>
    </g>
    <path
       style="fill:#808080;stroke:#000000;stroke-width:0.70703268;stroke-miterlimit:4;stroke-dasharray:none;stroke-opacity:1"
       d="m 38.90012,29.493773 -1.3484,0.0443 -0.3979,1.47966 v 0.17668 l 0.19895,1.25882 -1.87892,0.46378 -0.41998,-1.21464 -0.0662,-0.1325 -1.06103,-1.12632 -1.19366,0.5742 0.22103,1.54592 0.0885,0.1325 0.66313,1.08215 -1.52523,1.19258 -0.86209,-0.92755 -0.13266,-0.11049 -1.43681,-0.59626 -0.86211,1.01589 0.86211,1.32507 0.11046,0.0882 1.06104,0.70671 -0.90629,1.67844 -1.17158,-0.46378 -0.15468,-0.0442 -1.52524,0.0442 -0.39789,1.2809 1.3042,0.83924 0.15469,0.0442 1.25998,0.22085 -0.1547,1.89929 -1.25995,0.0443 -0.15469,0.022 -1.39263,0.66253 0.17687,1.32507 1.52523,0.24295 h 0.17683 l 1.21576,-0.33127 0.66317,1.81094 -1.14947,0.55211 -0.13265,0.0882 -1.01683,1.17048 0.70735,1.12632 1.48103,-0.37544 0.15469,-0.0882 0.99472,-0.79504 1.32628,1.36925 -0.81786,0.97173 -0.0884,0.15453 -0.4421,1.47968 1.10524,0.72879 1.21577,-0.94964 0.0884,-0.15453 0.57475,-1.10423 1.79048,0.70669 -0.35369,1.23674 -0.0442,0.15454 0.19895,1.52385 1.32627,0.24294 0.70737,-1.36927 0.022,-0.17668 0.0884,-1.25881 1.90102,-0.0882 0.19893,1.28091 0.022,0.15454 0.81787,1.32507 1.28209,-0.33127 0.0884,-1.52384 -0.022,-0.17668 -0.4642,-1.19256 1.74626,-0.83923 0.66316,1.08215 0.11046,0.11047 1.25999,0.90548 1.03892,-0.81714 -0.53052,-1.45759 -0.11047,-0.1325 -0.88419,-0.90548 1.23786,-1.47967 1.03894,0.70671 0.15469,0.0882 1.52525,0.28711 0.61892,-1.17049 -1.08313,-1.10422 -0.15469,-0.0882 -1.17155,-0.46376 0.5305,-1.83305 1.23787,0.19877 0.17683,0.0221 1.50314,-0.35335 0.0662,-1.34718 -1.41472,-0.53003 -0.15468,-0.022 -1.28208,0.0443 -0.26526,-1.89929 1.23787,-0.3092 0.1547,-0.0442 1.23787,-0.94964 -0.46421,-1.23674 -1.54734,0.0662 -0.15469,0.0662 -1.12735,0.55212 -1.03892,-1.63427 1.01682,-0.77297 0.11047,-0.1325 0.75157,-1.32508 -0.92841,-0.97171 -1.39259,0.6846 -0.11047,0.1325 -0.81788,0.97174 -1.59155,-1.08215 0.59682,-1.12633 0.0663,-0.15454 0.13267,-1.52384 -1.23788,-0.50794 -0.99471,1.19258 -0.0442,0.17668 -0.33159,1.21464 -1.90101,-0.35334 0.0884,-1.25883 -0.022,-0.17668 -0.48632,-1.43552 z m 0.11046,5.56534 c 1.47765,0.0556 2.94575,0.59967 4.13362,1.63426 l 0.0884,0.0883 c 0.51697,0.46811 0.92957,0.9968 1.25996,1.56802 L 41,39.630623 c -0.5696,-0.66178 -1.38445,-1.05689 -2.23258,-1.08217 l -1.23789,-3.37895 c 0.48551,-0.0895 0.98847,-0.12892 1.48104,-0.11048 z m -3.55887,0.88338 1.23786,3.35687 c -0.67777,0.58085 -1.07167,1.4266 -1.08314,2.29681 l -3.44836,1.25884 c -0.34044,-1.95065 0.19167,-4.05116 1.65786,-5.6316 0.48151,-0.51902 1.04955,-0.94687 1.63578,-1.28092 z m 9.79245,4.50527 c 0.34751,1.94919 -0.16635,4.04773 -1.63577,5.63161 -0.48568,0.52352 -1.0439,0.94608 -1.63575,1.2809 l -1.25998,-3.4452 c 0.62422,-0.56261 1.00932,-1.36591 1.03893,-2.18638 z m -6.65359,0.24295 c 0.35994,-0.0306 0.72289,0.14906 0.90632,0.48586 v 0.0221 c 0.23918,0.45987 0.0618,1.01951 -0.39788,1.25883 -0.45962,0.23932 -1.02079,0.0623 -1.26,-0.39753 -0.23918,-0.45986 -0.0616,-1.01951 0.3979,-1.25883 0.11329,-0.059 0.2337,-0.10015 0.35366,-0.11047 z m -2.21047,2.98142 c 0.57866,0.64682 1.40664,1.00472 2.2547,1.01591 l 1.25998,3.42312 c -1.98638,0.37299 -4.10929,-0.125 -5.70305,-1.56802 -0.52107,-0.47178 -0.9511,-1.01264 -1.2821,-1.5901 z"
       id="path6034-2-1"
       inkscape:connector-curvature="0" />
  </g>
</svg>
