<?xml version="1.0" encoding="UTF-8" standalone="no"?>
<!-- Created with Inkscape (http://www.inkscape.org/) -->

<svg
   xmlns:dc="http://purl.org/dc/elements/1.1/"
   xmlns:cc="http://creativecommons.org/ns#"
   xmlns:rdf="http://www.w3.org/1999/02/22-rdf-syntax-ns#"
   xmlns:svg="http://www.w3.org/2000/svg"
   xmlns="http://www.w3.org/2000/svg"
   xmlns:sodipodi="http://sodipodi.sourceforge.net/DTD/sodipodi-0.dtd"
   xmlns:inkscape="http://www.inkscape.org/namespaces/inkscape"
   width="64px"
   height="64px"
   id="svg3513"
   version="1.1"
   inkscape:version="0.92.3 (d244b95, 2018-08-02)"
   sodipodi:docname="FilterDriftCleaner.svg">
  <defs
     id="defs3515">
    <marker
       inkscape:stockid="Arrow2Mend"
       orient="auto"
       refY="0.0"
       refX="0.0"
       id="Arrow2Mend"
       style="overflow:visible;">
      <path
         id="path3901"
         style="fill-rule:evenodd;stroke-width:0.62500000;stroke-linejoin:round;"
         d="M 8.7185878,4.0337352 L -2.2072895,0.016013256 L 8.7185884,-4.0017078 C 6.9730900,-1.6296469 6.9831476,1.6157441 8.7185878,4.0337352 z "
         transform="scale(0.6) rotate(180) translate(0,0)" />
    </marker>
    <marker
       inkscape:stockid="Arrow2Lend"
       orient="auto"
       refY="0.0"
       refX="0.0"
       id="Arrow2Lend"
       style="overflow:visible;">
      <path
         id="path3895"
         style="fill-rule:evenodd;stroke-width:0.62500000;stroke-linejoin:round;"
         d="M 8.7185878,4.0337352 L -2.2072895,0.016013256 L 8.7185884,-4.0017078 C 6.9730900,-1.6296469 6.9831476,1.6157441 8.7185878,4.0337352 z "
         transform="scale(1.1) rotate(180) translate(1,0)" />
    </marker>
    <marker
       inkscape:stockid="Arrow1Mstart"
       orient="auto"
       refY="0.0"
       refX="0.0"
       id="Arrow1Mstart"
       style="overflow:visible">
      <path
         id="path3880"
         d="M 0.0,0.0 L 5.0,-5.0 L -12.5,0.0 L 5.0,5.0 L 0.0,0.0 z "
         style="fill-rule:evenodd;stroke:#000000;stroke-width:1.0pt"
         transform="scale(0.4) translate(10,0)" />
    </marker>
    <marker
       inkscape:stockid="Arrow1Lstart"
       orient="auto"
       refY="0.0"
       refX="0.0"
       id="Arrow1Lstart"
       style="overflow:visible">
      <path
         id="path3874"
         d="M 0.0,0.0 L 5.0,-5.0 L -12.5,0.0 L 5.0,5.0 L 0.0,0.0 z "
         style="fill-rule:evenodd;stroke:#000000;stroke-width:1.0pt"
         transform="scale(0.8) translate(12.5,0)" />
    </marker>
    <marker
       inkscape:stockid="Arrow1Mstart"
       orient="auto"
       refY="0"
       refX="0"
       id="Arrow1Mstart-0"
       style="overflow:visible">
      <path
         inkscape:connector-curvature="0"
         id="path3880-4"
         d="M 0,0 5,-5 -12.5,0 5,5 0,0 z"
         style="fill-rule:evenodd;stroke:#000000;stroke-width:1pt"
         transform="matrix(0.4,0,0,0.4,4,0)" />
    </marker>
  </defs>
  <sodipodi:namedview
     id="base"
     pagecolor="#ffffff"
     bordercolor="#666666"
     borderopacity="1.0"
     inkscape:pageopacity="0.0"
     inkscape:pageshadow="2"
     inkscape:zoom="2.75"
     inkscape:cx="21.787415"
     inkscape:cy="12.651532"
     inkscape:current-layer="layer1"
     showgrid="true"
     inkscape:document-units="px"
     inkscape:grid-bbox="true"
     inkscape:window-width="634"
     inkscape:window-height="454"
     inkscape:window-x="994"
     inkscape:window-y="154"
     inkscape:window-maximized="0">
    <inkscape:grid
       type="xygrid"
       id="grid3090" />
  </sodipodi:namedview>
  <metadata
     id="metadata3518">
    <rdf:RDF>
      <cc:Work
         rdf:about="">
        <dc:format>image/svg+xml</dc:format>
        <dc:type
           rdf:resource="http://purl.org/dc/dcmitype/StillImage" />
        <dc:title></dc:title>
      </cc:Work>
    </rdf:RDF>
  </metadata>
  <g
     id="layer1"
     inkscape:label="Layer 1"
     inkscape:groupmode="layer">
    <rect
       style="fill:none;stroke:none"
       id="rect3859"
       width="44"
       height="44"
       x="9.954546"
       y="9.636364" />
    <g
       id="g180"
       transform="matrix(0.65945453,0,0,0.65945453,18.510868,14.1476)">
      <path
         style="fill:none;stroke:#999999;stroke-width:6.35872507;stroke-linecap:round;stroke-linejoin:round;stroke-miterlimit:4;stroke-dasharray:none;stroke-opacity:1"
         d="M 53.142854,11.773139 H 37.246041 L 27.104284,19.831846 36.558504,23.26736 19.141227,39.969806 28.85434,42.191163 48.032803,37.879396 47.069982,25.700569 33.646728,33.677367 17.422174,30.104274 18.488504,19.123012 4.7046081,31.159936 10.112467,38.078403 -4,41.087695 -6.827938,29.904688 -0.90388433,23.753299 5.452418,11.773074 H -10.444395 5.452418"
         id="path3021-3"
         inkscape:connector-curvature="0"
         sodipodi:nodetypes="ccccccccccccccccccc" />
      <path
         sodipodi:type="arc"
         style="fill:#ff0000;stroke:none;stroke-width:6.48983574"
         id="path3026-67"
         sodipodi:cx="7.1143594"
         sodipodi:cy="11.700882"
         sodipodi:rx="7.9483924"
         sodipodi:ry="7.9483924"
         d="M 7.2173401,19.648607 A 7.9483924,7.9483924 0 0 1 -0.83226499,11.868521 7.9483924,7.9483924 0 0 1 6.8820738,3.7558845 7.9483924,7.9483924 0 0 1 15.057204,11.403965 7.9483924,7.9483924 0 0 1 7.4758883,19.641048"
         sodipodi:start="1.5578398"
         sodipodi:end="1.5252961"
         sodipodi:open="true" />
      <path
         sodipodi:type="arc"
         style="fill:#ff0000;stroke:none;stroke-width:6.48983574"
         id="path3026-6-5"
         sodipodi:cx="37.173786"
         sodipodi:cy="11.484113"
         sodipodi:rx="7.9483924"
         sodipodi:ry="7.9483924"
         d="m 37.276767,19.431838 a 7.9483924,7.9483924 0 0 1 -8.049605,-7.780087 7.9483924,7.9483924 0 0 1 7.714339,-8.1126357 7.9483924,7.9483924 0 0 1 8.17513,7.6480807 7.9483924,7.9483924 0 0 1 -7.581316,8.237083"
         sodipodi:start="1.5578398"
         sodipodi:end="1.5252961"
         sodipodi:open="true" />
      <path
         style="fill:none;stroke:#ff0000;stroke-width:6.35872507;stroke-linecap:round;stroke-linejoin:round;stroke-miterlimit:4;stroke-dasharray:none;stroke-opacity:1"
         d="M -10.444395,11.773123 H 5.452418"
         id="path3853-3"
         inkscape:connector-curvature="0" />
      <path
         style="fill:none;stroke:#ff0000;stroke-width:6.35872507;stroke-linecap:round;stroke-linejoin:round;stroke-miterlimit:4;stroke-dasharray:none;stroke-opacity:1"
         d="M 37.246041,11.700928 H 53.142854"
         id="path3855-5"
         inkscape:connector-curvature="0" />
      <path
         style="fill:none;stroke:#ff0000;stroke-width:6.35872507;stroke-linecap:round;stroke-linejoin:round;stroke-miterlimit:4;stroke-dasharray:none;stroke-opacity:1"
         d="M 5.452418,11.628623 H 37.246041"
         id="path3857-6"
         inkscape:connector-curvature="0" />
    </g>
  </g>
</svg>
