<?xml version="1.0" encoding="UTF-8" standalone="no"?>
<!-- Created with Inkscape (http://www.inkscape.org/) -->

<svg
   xmlns:dc="http://purl.org/dc/elements/1.1/"
   xmlns:cc="http://creativecommons.org/ns#"
   xmlns:rdf="http://www.w3.org/1999/02/22-rdf-syntax-ns#"
   xmlns:svg="http://www.w3.org/2000/svg"
   xmlns="http://www.w3.org/2000/svg"
   xmlns:sodipodi="http://sodipodi.sourceforge.net/DTD/sodipodi-0.dtd"
   xmlns:inkscape="http://www.inkscape.org/namespaces/inkscape"
   width="64"
   height="64"
   id="svg2"
   version="1.1"
   inkscape:version="0.91 r13725"
   sodipodi:docname="FilterModifyExtension.svg">
  <defs
     id="defs4" />
  <sodipodi:namedview
     id="base"
     pagecolor="#ffffff"
     bordercolor="#666666"
     borderopacity="1.0"
     inkscape:pageopacity="0.0"
     inkscape:pageshadow="2"
     inkscape:zoom="7.919596"
     inkscape:cx="5.4312524"
     inkscape:cy="15.143237"
     inkscape:document-units="px"
     inkscape:current-layer="layer1"
     showgrid="true"
     inkscape:window-width="1916"
     inkscape:window-height="1041"
     inkscape:window-x="0"
     inkscape:window-y="18"
     inkscape:window-maximized="0">
    <inkscape:grid
       type="xygrid"
       id="grid2985"
       empspacing="5"
       visible="true"
       enabled="true"
       snapvisiblegridlinesonly="true" />
  </sodipodi:namedview>
  <metadata
     id="metadata7">
    <rdf:RDF>
      <cc:Work
         rdf:about="">
        <dc:format>image/svg+xml</dc:format>
        <dc:type
           rdf:resource="http://purl.org/dc/dcmitype/StillImage" />
        <dc:title></dc:title>
      </cc:Work>
    </rdf:RDF>
  </metadata>
  <g
     inkscape:label="Ebene 1"
     inkscape:groupmode="layer"
     id="layer1"
     transform="translate(0,-988.36218)">
    <g
       id="g2999"
       transform="translate(-1.7110747,11.490486)">
      <path
         style="fill:none;stroke:#000080;stroke-width:3;stroke-linecap:round;stroke-linejoin:round;stroke-miterlimit:4;stroke-dasharray:none;stroke-opacity:1"
         d="m 54.195846,1014.5765 c 0,0 -15,1 -22.999999,6 -6.836782,4.273 14.726779,4.2732 10.999999,8 -3.72678,3.7268 -28.376052,2.4145 -32.8593748,5.1854 -2.005004,1.2391 -5.0000008,5 -5.0000008,5"
         id="path3078"
         inkscape:connector-curvature="0"
         sodipodi:nodetypes="csssc" />
    </g>
    <rect
       style="fill:none;stroke:none"
       id="rect3769"
       width="40"
       height="40"
       x="2.6406245"
       y="991.49402" />
    <flowRoot
       xml:space="preserve"
       id="flowRoot3859"
       style="fill:black;stroke:none;stroke-opacity:1;stroke-width:1px;stroke-linejoin:miter;stroke-linecap:butt;fill-opacity:1;font-family:Sans;font-style:normal;font-weight:normal;font-size:12px;line-height:125%;letter-spacing:0px;word-spacing:0px"><flowRegion
         id="flowRegion3861"><rect
           id="rect3863"
           width="75.35714"
           height="62.142857"
           x="-9.4642859"
           y="2.2142856" /></flowRegion><flowPara
         id="flowPara3865" /></flowRoot>    <g
       id="layer1-9"
       inkscape:label="Ebene 1"
       transform="matrix(0.67643556,0,0,0.70405692,-2.8073296,299.56164)">
      <path
         d="m 28.158906,1034.2969 a 9.2698154,7.55445 0 0 1 -3.825532,10.1377 9.2698154,7.55445 0 0 1 -12.493581,-2.9711 9.2698154,7.55445 0 0 1 3.46532,-10.2235 9.2698154,7.55445 0 0 1 12.593492,2.6764"
         sodipodi:open="true"
         sodipodi:end="5.7456763"
         sodipodi:start="5.8033419"
         sodipodi:ry="7.55445"
         sodipodi:rx="9.2698154"
         sodipodi:cy="1037.7843"
         sodipodi:cx="19.935957"
         sodipodi:type="arc"
         id="path4170"
         style="opacity:1;fill:#000080;fill-opacity:1;stroke:#000080;stroke-width:5.65799999;stroke-linecap:round;stroke-linejoin:miter;stroke-miterlimit:4;stroke-dasharray:none;stroke-dashoffset:0;stroke-opacity:1" />
      <rect
         ry="3.1495821"
         y="988.65399"
         x="17.021328"
         height="49.531399"
         width="6.2991643"
         id="rect4172"
         style="opacity:1;fill:#000080;fill-opacity:1;stroke:#000080;stroke-width:4.46860266;stroke-linecap:round;stroke-linejoin:miter;stroke-miterlimit:4;stroke-dasharray:none;stroke-dashoffset:0;stroke-opacity:1" />
      <rect
         ry="0"
         y="988.3689"
         x="0.0011160693"
         height="64"
         width="64"
         id="rect4142"
         style="opacity:1;fill:#000080;fill-opacity:0;stroke:#000000;stroke-width:0;stroke-linecap:round;stroke-linejoin:miter;stroke-miterlimit:4;stroke-dasharray:none;stroke-dashoffset:0;stroke-opacity:1" />
      <path
         style="fill:none;fill-rule:evenodd;stroke:#000080;stroke-width:2.8980968;stroke-linecap:butt;stroke-linejoin:miter;stroke-miterlimit:4;stroke-dasharray:none;stroke-opacity:1"
         d="m 67.722427,980.28102 18.931119,25.50448 -19.226918,22.6134"
         id="path4137"
         inkscape:connector-curvature="0"
         sodipodi:nodetypes="ccc" />
      <path
         style="fill:none;fill-rule:evenodd;stroke:#000080;stroke-width:2.53583479;stroke-linecap:butt;stroke-linejoin:miter;stroke-miterlimit:4;stroke-dasharray:none;stroke-opacity:1"
         d="m 54.447376,983.04023 15.860418,22.68907 -16.108238,20.1174"
         id="path4137-1"
         inkscape:connector-curvature="0"
         sodipodi:nodetypes="ccc" />
      <path
         style="fill:none;fill-rule:evenodd;stroke:#000080;stroke-width:2.17357254;stroke-linecap:butt;stroke-linejoin:miter;stroke-miterlimit:4;stroke-dasharray:none;stroke-opacity:1"
         d="m 43.300793,986.23544 11.723927,19.53136 -11.907114,17.3169"
         id="path4137-1-4"
         inkscape:connector-curvature="0"
         sodipodi:nodetypes="ccc" />
      <path
         style="fill:none;fill-rule:evenodd;stroke:#000080;stroke-width:1.81131053;stroke-linecap:butt;stroke-linejoin:miter;stroke-miterlimit:4;stroke-dasharray:none;stroke-opacity:1"
         d="m 32.8209,991.05801 9.196833,14.74639 -9.340533,13.0748"
         id="path4137-1-4-8"
         inkscape:connector-curvature="0"
         sodipodi:nodetypes="ccc" />
    </g>
    <g
       id="g4576"
       transform="matrix(1.5329038,0,0,1.6343352,-27.443868,-618.33751)">
      <g
         transform="translate(69.522529,965.1479)"
         id="g3856">
        <path
           inkscape:connector-curvature="0"
           id="path3828"
           d="m -23.809459,52.661657 c -0.04491,-2.475537 -0.08983,-4.951075 -0.134742,-7.426612 1.975921,-5.428799 3.951843,-10.857598 5.927764,-16.286397 1.032875,-0.238862 2.065749,-0.477724 3.098624,-0.716586 0.63769,0.846898 1.27538,1.693795 1.91307,2.540693 -1.975921,5.428799 -3.951843,10.857598 -5.927764,16.286397 -1.625651,1.867502 -3.251301,3.735003 -4.876952,5.602505 z"
           style="fill:none;stroke:#ffffff;stroke-width:3.04031777;stroke-linecap:butt;stroke-linejoin:miter;stroke-miterlimit:4;stroke-dasharray:none;stroke-opacity:1" />
        <path
           inkscape:connector-curvature="0"
           id="path3026"
           d="m -18.016437,28.948648 c 1.670565,0.608036 3.341129,1.216071 5.011694,1.824107 -1.975921,5.428799 -3.951843,10.857598 -5.927764,16.286397 -1.625651,1.867502 -3.251301,3.735003 -4.876952,5.602505 -0.04491,-2.475537 -0.08983,-4.951075 -0.134742,-7.426612 1.975921,-5.428799 3.951843,-10.857598 5.927764,-16.286397 z"
           style="fill:#00ff00;stroke:#008000;stroke-width:1.52015889px;stroke-linecap:round;stroke-linejoin:round;stroke-opacity:1" />
        <path
           inkscape:connector-curvature="0"
           id="path3032"
           d="m -23.809459,52.661657 c -0.04491,-2.475537 -0.08983,-4.951075 -0.134742,-7.426612 1.032875,-0.238862 2.065749,-0.477724 3.098624,-0.716586 0.63769,0.846898 1.27538,1.693795 1.91307,2.540693 -1.625651,1.867502 -3.251301,3.735003 -4.876952,5.602505 z"
           style="fill:none;stroke:#000000;stroke-width:1.52015889px;stroke-linecap:round;stroke-linejoin:round;stroke-opacity:1" />
        <path
           inkscape:connector-curvature="0"
           id="path3034"
           d="m -15.51059,29.860701 c -1.778329,4.885919 -3.556658,9.771839 -5.334987,14.657758"
           style="fill:none;stroke:#008000;stroke-width:1.52015889px;stroke-linecap:butt;stroke-linejoin:miter;stroke-opacity:1" />
        <path
           inkscape:connector-curvature="0"
           id="path3036"
           d="m -18.016437,28.948648 c 1.032875,-0.238862 2.065749,-0.477724 3.098624,-0.716586 0.63769,0.846898 1.27538,1.693795 1.91307,2.540693 -1.670565,-0.608036 -3.341129,-1.216071 -5.011694,-1.824107 z"
           style="fill:none;stroke:#008000;stroke-width:1.52015889px;stroke-linecap:round;stroke-linejoin:round;stroke-opacity:1" />
      </g>
    </g>
  </g>
</svg>
