<?xml version="1.0" encoding="UTF-8" standalone="no"?>
<!-- Created with Inkscape (http://www.inkscape.org/) -->

<svg
   xmlns:dc="http://purl.org/dc/elements/1.1/"
   xmlns:cc="http://creativecommons.org/ns#"
   xmlns:rdf="http://www.w3.org/1999/02/22-rdf-syntax-ns#"
   xmlns:svg="http://www.w3.org/2000/svg"
   xmlns="http://www.w3.org/2000/svg"
   xmlns:sodipodi="http://sodipodi.sourceforge.net/DTD/sodipodi-0.dtd"
   xmlns:inkscape="http://www.inkscape.org/namespaces/inkscape"
   width="64px"
   height="64px"
   id="svg3513"
   version="1.1"
   inkscape:version="0.48.4 r9939"
   sodipodi:docname="FolderMap.svg">
  <defs
     id="defs3515" />
  <sodipodi:namedview
     id="base"
     pagecolor="#ffffff"
     bordercolor="#666666"
     borderopacity="1.0"
     inkscape:pageopacity="0.0"
     inkscape:pageshadow="2"
     inkscape:zoom="15.556349"
     inkscape:cx="19.471582"
     inkscape:cy="31.074351"
     inkscape:current-layer="layer1"
     showgrid="true"
     inkscape:document-units="px"
     inkscape:grid-bbox="true"
     inkscape:window-width="1920"
     inkscape:window-height="996"
     inkscape:window-x="-2"
     inkscape:window-y="-3"
     inkscape:window-maximized="1">
    <inkscape:grid
       type="xygrid"
       id="grid3060" />
  </sodipodi:namedview>
  <metadata
     id="metadata3518">
    <rdf:RDF>
      <cc:Work
         rdf:about="">
        <dc:format>image/svg+xml</dc:format>
        <dc:type
           rdf:resource="http://purl.org/dc/dcmitype/StillImage" />
        <dc:title />
      </cc:Work>
    </rdf:RDF>
  </metadata>
  <g
     id="layer1"
     inkscape:label="Layer 1"
     inkscape:groupmode="layer">
    <rect
       style="fill:#ffffff;stroke:#000080"
       id="rect3797"
       width="40"
       height="40"
       x="10.155192"
       y="13.161652" />
    <path
       style="fill:#000080;fill-opacity:1"
       d="m 16.31268,51.395951 c -0.446621,-0.114609 -0.934711,-0.247135 -1.08462,-0.294522 -0.270279,-0.08541 -0.271327,-0.08668 -0.124935,-0.149144 0.0812,-0.03466 0.212425,-0.06376 0.291579,-0.06474 0.07915,-7.07e-4 0.388358,-0.05264 0.687117,-0.114753 0.91623,-0.190674 1.385669,-0.22527 2.448363,-0.180425 0.532497,0.02248 1.010358,0.05414 1.061898,0.07053 0.05144,0.01632 0.134742,0.0095 0.184909,-0.01489 0.07807,-0.03827 0.07409,-0.05918 -0.02663,-0.144814 l -0.117827,-0.100195 0.463874,0.03527 c 0.806776,0.06128 2.198625,0.0476 2.228841,-0.02196 0.01518,-0.03504 -0.05711,-0.08352 -0.169319,-0.113608 -0.249954,-0.06707 -0.211654,-0.161778 0.06542,-0.161778 0.205137,0 0.212956,-0.006 0.214751,-0.185657 0.0011,-0.135325 0.04132,-0.210232 0.147464,-0.276371 0.19957,-0.124339 0.256689,-0.11409 0.256689,0.04609 0,0.0757 0.05578,0.175583 0.124923,0.223744 0.06867,0.04782 0.124934,0.113112 0.124934,0.145039 0,0.03188 0.08433,0.139686 0.187391,0.239482 0.103128,0.09977 0.187402,0.211449 0.187402,0.248128 0,0.08785 0.187933,0.139107 0.944879,0.257806 1.358104,0.212961 1.901528,0.151777 2.990401,-0.336676 0.18309,-0.08214 0.724237,-0.201945 1.124366,-0.248963 0.223317,-0.02617 1.108764,-0.05692 1.967658,-0.06835 2.313296,-0.03053 2.549262,-0.0391 2.68598,-0.09883 0.06867,-0.03 0.251424,-0.06903 0.406032,-0.0868 0.154597,-0.01775 0.444802,-0.0776 0.644891,-0.132933 0.353311,-0.09777 0.370479,-0.0982 0.593423,-0.01519 0.126284,0.04715 0.426368,0.09502 0.666853,0.10657 0.273074,0.01316 0.52598,0.05745 0.67354,0.117903 0.178873,0.07331 0.296434,0.089 0.483776,0.06474 0.136116,-0.01775 0.261388,-0.04955 0.278363,-0.07061 0.01699,-0.02113 0.12673,-0.05226 0.243906,-0.06918 0.117224,-0.01692 0.249834,-0.06489 0.294784,-0.106548 0.06831,-0.06324 0.175101,-0.07076 0.646553,-0.04504 0.407888,0.02218 0.608169,0.01338 0.72096,-0.03158 0.197197,-0.07855 0.862219,-0.07279 1.12139,0.0095 0.154102,0.0491 0.249074,0.05068 0.437501,0.0075 0.159837,-0.03684 0.29294,-0.04015 0.396334,-0.0095 0.08795,0.02564 0.559412,0.03429 1.083476,0.01985 0.510293,-0.01414 0.969974,-0.02647 1.021502,-0.02767 0.214028,-0.0045 0.856581,0.104849 1.030671,0.175297 0.103128,0.04173 0.286205,0.07602 0.406948,0.07612 0.120754,1.13e-4 0.324445,0.04354 0.452645,0.0964 0.128199,0.05286 0.30347,0.09608 0.389478,0.09608 0.297001,0 0.15503,0.08594 -0.265242,0.160581 -0.675384,0.11994 -1.168208,0.285567 -1.18999,0.399928 -0.01747,0.09133 0.01229,0.0984 0.40602,0.09555 0.23363,-7e-4 0.618579,0.01572 0.855437,0.0385 0.56258,0.05429 0.497667,0.08996 -0.738285,0.406605 l -0.954758,0.24458 -13.079839,-6.99e-4 -13.079839,-7.07e-4 -0.812041,-0.208367 z m 4.59117,-2.961407 c 0,-0.02639 0.02651,-0.04805 0.05879,-0.04805 0.03229,0 0.07614,0.02166 0.09735,0.04805 0.02132,0.02639 -0.006,0.04805 -0.05879,0.04805 -0.05349,0 -0.09747,-0.02165 -0.09747,-0.04805 z m -0.390864,-0.108962 c -0.2211,-0.13167 -0.551737,-0.488926 -0.540027,-0.583466 0.0072,-0.05527 -0.0036,-0.133098 -0.02337,-0.172756 -0.01976,-0.0397 -0.04795,-0.18641 -0.06277,-0.32611 -0.01518,-0.1434 -0.06723,-0.279454 -0.119393,-0.312427 -0.14291,-0.09027 -0.242208,-0.42902 -0.198209,-0.676051 0.02181,-0.122166 0.0084,-0.314359 -0.0294,-0.427095 -0.03795,-0.112729 -0.08253,-0.49382 -0.09915,-0.846874 -0.03301,-0.703308 -0.08337,-0.817661 -0.422284,-0.960873 -0.363601,-0.153619 -0.467151,-0.244031 -0.733803,-0.640687 -0.147958,-0.220082 -0.339276,-0.472384 -0.425176,-0.560668 -0.132887,-0.136581 -0.145717,-0.178238 -0.0859,-0.279131 0.03867,-0.06519 0.05361,-0.169416 0.03349,-0.231527 -0.04072,-0.124805 0.03867,-0.265438 0.27064,-0.479978 0.135079,-0.124888 0.15038,-0.177914 0.128308,-0.4446 -0.01807,-0.217397 -0.0036,-0.302816 0.05144,-0.302816 0.04205,0 0.14179,-0.06241 0.221582,-0.138769 0.07976,-0.07634 0.208329,-0.153476 0.285627,-0.171462 0.120237,-0.02797 0.140537,-0.01504 0.140537,0.09069 0,0.07761 0.03482,0.123392 0.09373,0.123392 0.05265,0 0.09373,-0.04286 0.09373,-0.09766 0,-0.122744 0.158066,-0.173192 0.286229,-0.09133 0.05349,0.03421 0.254617,0.06564 0.446959,0.07008 0.265472,0.006 0.388575,0.03444 0.510992,0.117669 0.08867,0.0603 0.266761,0.182569 0.395683,0.271702 0.158801,0.109766 0.296399,0.162055 0.426466,0.162055 0.249388,0 0.524726,0.20939 0.615156,0.467827 0.07373,0.211022 0.281098,0.349286 0.52357,0.349286 0.0818,0 0.197451,0.04151 0.257051,0.09218 0.06518,0.05542 0.237063,0.105713 0.43132,0.126203 0.295254,0.03113 0.463307,0.100405 0.807041,0.332638 0.162921,0.11006 0.135453,0.216052 -0.140802,0.5432 -0.218136,0.258325 -0.253231,0.338608 -0.274459,0.62795 -0.03036,0.41247 -0.222738,0.777253 -0.410116,0.777253 -0.138622,0 -0.585917,0.198464 -0.662661,0.293997 -0.02542,0.03166 -0.04253,0.131812 -0.03819,0.22254 0.006,0.118775 -0.06144,0.24552 -0.240111,0.45248 -0.136488,0.158123 -0.248171,0.320066 -0.248171,0.359873 0,0.05324 -0.05699,0.06858 -0.215281,0.05812 -0.282001,-0.01865 -0.31453,0.01496 -0.191426,0.198141 0.121393,0.180613 0.06205,0.263153 -0.220365,0.306621 -0.122947,0.01887 -0.207558,0.0703 -0.246918,0.149994 -0.03301,0.06662 -0.102767,0.121196 -0.155138,0.121196 -0.111321,0 -0.121261,0.06512 -0.03012,0.195982 0.04867,0.07001 0.03795,0.13743 -0.04253,0.268093 -0.105659,0.171364 -0.105056,0.176184 0.03385,0.262776 0.127344,0.0794 0.134489,0.104744 0.07108,0.252626 -0.03879,0.09037 -0.05337,0.21687 -0.03253,0.280965 0.04976,0.152642 -0.09241,0.254242 -0.235943,0.168695 z m 2.13988,-3.78434 c 0,-0.02639 -0.02807,-0.04805 -0.06253,-0.04805 -0.03434,0 -0.06253,0.02166 -0.06253,0.04805 0,0.02639 0.02807,0.04805 0.06253,0.04805 0.03434,0 0.06253,-0.02166 0.06253,-0.04805 z m 26.672491,2.939707 c 0,-0.0394 0.274844,-0.153492 0.362106,-0.15031 0.06301,0.0023 -0.23987,0.190659 -0.306566,0.190659 -0.03048,0 -0.05554,-0.0182 -0.05554,-0.04038 z m -2.340825,-0.390251 c -0.02241,-0.02797 0.0048,-0.06406 0.05964,-0.08034 0.137417,-0.0406 0.180162,0.0045 0.07084,0.07391 -0.06156,0.0394 -0.102406,0.04143 -0.130392,0.006 z m 4.008844,-0.409027 c 0.102406,-0.108277 0.205932,-0.157356 0.205932,-0.09767 0,0.03256 -0.241244,0.216292 -0.284013,0.216292 -0.01879,0 0.01638,-0.05346 0.07807,-0.118647 z m -4.146332,-0.124632 c -0.07313,-0.01963 -0.130791,-0.115827 -0.17409,-0.289656 -0.0612,-0.245686 -0.07433,-0.259296 -0.236593,-0.244685 -0.125068,0.0112 -0.171789,-0.0053 -0.171789,-0.06256 0,-0.04414 -0.09759,-0.10936 -0.224292,-0.150107 -0.187222,-0.06015 -0.282748,-0.06264 -0.577809,-0.01481 -0.194426,0.03158 -0.446452,0.09755 -0.560075,0.146664 -0.11361,0.0491 -0.290193,0.08932 -0.392418,0.08932 -0.102165,0 -0.288278,0.03293 -0.413502,0.07316 -0.246147,0.07918 -0.406586,0.03218 -0.284423,-0.0832 0.03614,-0.03421 0.07831,-0.3199 0.09373,-0.634981 0.02675,-0.549689 0.03458,-0.576946 0.192787,-0.674013 0.09072,-0.05564 0.333096,-0.139588 0.538726,-0.186553 0.251207,-0.0573 0.415141,-0.127971 0.499788,-0.215187 0.06927,-0.07136 0.151512,-0.148378 0.18274,-0.171071 0.0312,-0.02271 0.155729,-0.113443 0.2767,-0.201682 0.205486,-0.149889 0.232907,-0.156657 0.417309,-0.103052 0.164283,0.04775 0.206353,0.04519 0.251026,-0.01466 0.143236,-0.19196 0.242364,-0.24855 0.477958,-0.272875 0.292952,-0.03023 0.37531,0.02752 0.26517,0.185854 -0.06723,0.09671 -0.04783,0.124752 0.200125,0.290372 0.159367,0.106398 0.326855,0.177861 0.399177,0.170312 0.144247,-0.01504 0.336457,-0.286628 0.34089,-0.48164 0.0036,-0.145814 0.127923,-0.186659 0.127923,-0.04188 0,0.04963 0.03867,0.114865 0.08566,0.144965 0.04723,0.03008 0.1,0.153054 0.117707,0.273228 0.01759,0.120188 0.08698,0.265851 0.154006,0.323682 0.06711,0.05782 0.21057,0.238948 0.318807,0.402469 0.210786,0.318464 0.215461,0.466181 0.02409,0.760132 -0.139452,0.214217 -1.005503,0.906945 -1.193303,0.954475 -0.205185,0.05181 -0.592651,0.06662 -0.736056,0.02797 z M 31.277843,46.06382 c -0.03711,-0.02842 -0.06723,-0.100518 -0.06723,-0.160071 0,-0.126594 -0.103008,-0.323712 -0.26511,-0.507641 -0.06325,-0.07181 -0.132441,-0.244805 -0.153717,-0.384536 -0.02132,-0.139722 -0.120682,-0.394627 -0.220931,-0.566465 -0.197474,-0.33851 -0.1998,-0.543809 -0.0084,-0.827158 0.174041,-0.258978 -0.0036,-0.854174 -0.356155,-1.197265 -0.200342,-0.194637 -0.205896,-0.24094 -0.07819,-0.651057 0.04361,-0.139843 -0.177427,-0.304583 -0.408514,-0.304583 -0.123309,0 -0.212534,-0.0379 -0.282543,-0.120158 -0.118309,-0.138919 -0.272773,-0.148709 -0.630397,-0.03993 -0.137429,0.04166 -0.390407,0.07993 -0.562183,0.08468 -0.171777,0.0053 -0.384769,0.02511 -0.473319,0.04519 -0.131537,0.02978 -0.211582,0.0045 -0.43726,-0.139257 -0.151934,-0.09662 -0.30435,-0.223819 -0.33871,-0.282597 -0.03434,-0.0588 -0.153825,-0.195096 -0.265472,-0.302952 -0.218389,-0.210946 -0.246496,-0.347827 -0.131898,-0.642154 0.05036,-0.12946 0.05253,-0.239106 0.0072,-0.376596 -0.06,-0.181989 -0.04795,-0.214728 0.194353,-0.529816 0.147428,-0.191644 0.352228,-0.383934 0.476982,-0.447833 0.141536,-0.07256 0.247195,-0.178688 0.299639,-0.301162 0.04446,-0.103999 0.184125,-0.261821 0.310144,-0.350647 0.185114,-0.130489 0.263906,-0.156168 0.410069,-0.133662 0.115778,0.01782 0.285181,-0.0084 0.470668,-0.07158 0.181993,-0.06256 0.484873,-0.109353 0.814522,-0.126113 l 0.524787,-0.02662 -0.03699,0.175093 c -0.04072,0.192607 0.06,0.274657 0.414682,0.338157 0.09783,0.01752 0.255737,0.07613 0.35071,0.130099 0.238785,0.135843 0.58276,0.145716 0.616204,0.01775 0.03988,-0.152582 0.11084,-0.157672 0.56481,-0.04053 0.346348,0.08943 0.504896,0.104736 0.836798,0.08088 0.225209,-0.01624 0.439935,-0.04391 0.477151,-0.06158 0.03723,-0.01774 0.08614,-0.168244 0.10867,-0.334548 0.04494,-0.330878 -0.01518,-0.412176 -0.253858,-0.343052 -0.07156,0.02068 -0.195992,0.0188 -0.276459,-0.0045 -0.08048,-0.02309 -0.173427,-0.02918 -0.20657,-0.01338 -0.115658,0.05497 -0.344625,-0.02714 -0.417225,-0.149739 -0.104212,-0.176026 -0.09192,-0.215209 0.06735,-0.214931 0.07723,1.13e-4 0.274194,-0.03662 0.437537,-0.08173 0.246436,-0.06797 0.332264,-0.07211 0.504161,-0.02429 0.224076,0.06241 0.534895,0.07504 0.692889,0.02835 0.183029,-0.05406 0.106261,-0.209126 -0.18074,-0.364753 -0.224377,-0.1217 -0.272688,-0.172628 -0.244798,-0.258129 0.01916,-0.05858 0.0036,-0.121768 -0.03663,-0.140415 -0.09903,-0.04715 -0.438561,0.06857 -0.438561,0.149415 0,0.08868 -0.102406,0.08458 -0.147512,-0.0053 -0.02072,-0.04166 -0.114092,-0.07211 -0.220208,-0.07211 -0.143838,0 -0.214462,0.0376 -0.321867,0.171319 -0.07566,0.09418 -0.145236,0.240226 -0.154573,0.324434 -0.01301,0.117173 -0.04422,0.150634 -0.13297,0.142491 -0.06385,-0.006 -0.195607,0.01376 -0.292917,0.04354 -0.161548,0.04948 -0.173258,0.0691 -0.134946,0.226271 l 0.04205,0.172101 -0.131067,-0.09122 c -0.07204,-0.0503 -0.164295,-0.176598 -0.204908,-0.280883 -0.05349,-0.137467 -0.142211,-0.222849 -0.322481,-0.310411 -0.136778,-0.06639 -0.305362,-0.161439 -0.37466,-0.211111 -0.182198,-0.13061 -0.352312,-0.117564 -0.352312,0.02707 0,0.06452 0.02795,0.130617 0.06205,0.146866 0.0341,0.01624 0.09132,0.07158 0.12714,0.123008 0.106381,0.152927 -0.03711,0.110315 -0.282086,-0.08383 -0.21304,-0.168801 -0.233605,-0.174553 -0.429079,-0.120166 -0.112887,0.03151 -0.294676,0.05715 -0.403888,0.05715 -0.109273,0 -0.198583,0.02075 -0.198583,0.04617 0,0.02541 -0.112405,0.131865 -0.249858,0.236564 -0.137428,0.104743 -0.249857,0.221134 -0.249857,0.258768 0,0.174485 -0.51757,0.322239 -0.770308,0.219902 -0.182583,-0.07392 -0.233593,-0.142566 -0.188571,-0.253671 0.02072,-0.05121 0.04205,-0.159326 0.04711,-0.240323 l 0.0084,-0.147288 0.433839,-0.01444 c 0.249641,-0.0084 0.45403,-0.03887 0.481439,-0.07211 0.0818,-0.09892 0.05409,-0.33463 -0.04976,-0.422899 -0.09217,-0.07834 -0.08433,-0.09037 0.109273,-0.166658 0.114694,-0.04527 0.370564,-0.176567 0.568484,-0.291853 0.197932,-0.115308 0.392478,-0.209637 0.432332,-0.209637 0.03988,0 0.116863,-0.03023 0.17109,-0.06722 0.07373,-0.05038 0.177017,-0.05775 0.410936,-0.02985 0.171776,0.0206 0.379274,0.01774 0.461114,-0.006 0.08193,-0.02384 0.199872,-0.03105 0.262291,-0.01572 0.127911,0.03128 0.369721,-0.126745 0.369721,-0.241557 0,-0.04572 0.05976,-0.07211 0.163451,-0.07211 0.132682,0 0.157295,-0.01805 0.13079,-0.09608 -0.03867,-0.113895 0.06217,-0.17759 0.160958,-0.101563 0.107827,0.08298 0.213979,0.06346 0.251255,-0.04624 0.02048,-0.0603 0.07891,-0.09619 0.147826,-0.0906 0.214979,0.01729 0.270098,-0.0023 0.270098,-0.09481 0,-0.117143 -0.223474,-0.176049 -0.353312,-0.09313 -0.08144,0.05203 -0.111803,0.04722 -0.184692,-0.02955 -0.04795,-0.05053 -0.07108,-0.13079 -0.05144,-0.178432 0.01976,-0.04775 0.0084,-0.08669 -0.02614,-0.08669 -0.104695,0 -0.446248,0.244617 -0.446248,0.319532 0,0.03887 -0.02807,0.0573 -0.06253,0.04098 -0.113008,-0.05376 -0.0653,-0.1869 0.104213,-0.290921 0.110477,-0.06775 0.153259,-0.129182 0.126886,-0.18205 -0.06819,-0.13652 -0.29241,-0.08827 -0.57876,0.124497 -0.266906,0.198314 -0.352143,0.37916 -0.21045,0.44654 0.04458,0.0212 0.03638,0.05782 -0.02482,0.110992 -0.05024,0.04376 -0.101442,0.122594 -0.113972,0.17547 -0.02771,0.117481 -0.271495,0.155581 -0.323855,0.05068 -0.02289,-0.04572 -0.0036,-0.07467 0.05084,-0.07467 0.04843,0 0.106261,-0.02263 0.128344,-0.05015 0.05156,-0.06429 -0.09012,-0.198314 -0.169704,-0.160492 -0.03313,0.01572 -0.14938,0.03466 -0.258412,0.04211 -0.109032,0.0075 -0.257604,0.0285 -0.330167,0.04692 -0.104093,0.02624 -0.140176,0.0095 -0.170934,-0.07877 -0.06819,-0.195757 -0.04723,-0.223488 0.26905,-0.355895 0.170343,-0.07136 0.424213,-0.23421 0.564159,-0.36191 0.216497,-0.197569 0.317036,-0.246475 0.674094,-0.327961 0.339264,-0.07739 0.467524,-0.08636 0.669528,-0.04654 0.137417,0.02714 0.404442,0.0775 0.593411,0.112172 0.398382,0.07309 0.687106,0.156236 0.687106,0.197998 0,0.01609 -0.13273,0.02203 -0.294965,0.01316 -0.346613,-0.0188 -0.414454,0.06406 -0.198486,0.242481 0.106743,0.08816 0.175873,0.105263 0.329867,0.08182 0.107104,-0.01632 0.23699,-0.07106 0.288506,-0.121609 0.05144,-0.05053 0.206149,-0.106616 0.343565,-0.124617 0.137429,-0.01797 0.317506,-0.06542 0.40019,-0.105488 0.0859,-0.04166 0.352311,-0.0814 0.621867,-0.09301 0.259363,-0.0112 0.507835,-0.04354 0.552195,-0.07181 0.05747,-0.03677 0.160584,-0.03602 0.358372,0.0023 0.152753,0.02963 0.307446,0.05384 0.343769,0.05384 0.102768,0 0.07759,-0.134415 -0.0341,-0.18253 -0.109995,-0.0473 -0.09867,-0.207127 0.01663,-0.236692 0.106261,-0.02715 0.461043,0.392874 0.442646,0.524048 -0.02349,0.168214 0.209895,0.147799 0.319361,-0.0279 0.0806,-0.129542 0.07638,-0.145649 -0.06168,-0.227955 -0.126212,-0.07528 -0.134416,-0.09565 -0.0547,-0.136242 0.122658,-0.06241 0.413996,-0.06203 0.566303,5.27e-4 0.153042,0.06301 0.166078,-0.02541 0.01337,-0.09122 -0.231738,-0.09977 0.366829,-0.3403 0.856966,-0.34433 0.120237,-0.0015 0.269737,-0.03158 0.332228,-0.06813 0.08289,-0.04835 0.167199,-0.05444 0.311916,-0.02248 0.109032,0.02406 0.296868,0.04414 0.417345,0.04444 0.120477,3.46e-4 0.261207,0.02248 0.312735,0.04903 0.08168,0.04203 0.07976,0.05459 -0.01566,0.09777 -0.180764,0.08204 -0.123911,0.143724 0.124923,0.135648 0.128838,-0.0045 0.613711,0.0095 1.077524,0.03008 0.675986,0.03023 0.873026,0.05542 0.993226,0.127196 0.125983,0.07519 0.215871,0.08457 0.562183,0.0588 0.226726,-0.01692 0.438935,-0.04963 0.471572,-0.07264 0.09084,-0.06429 0.529919,-0.05015 0.930024,0.03008 0.197848,0.0397 0.4998,0.07211 0.670998,0.07211 0.17121,0 0.414996,0.03338 0.541738,0.07414 0.167957,0.05406 0.459609,0.07452 1.075524,0.0757 0.60617,7.07e-4 0.992432,0.0279 1.366393,0.09429 0.54481,0.09682 0.832678,0.184111 0.616687,0.18696 -0.162367,0.0023 -0.202197,0.134573 -0.07349,0.244069 0.107465,0.09134 0.106501,0.09894 -0.02193,0.204246 -0.09217,0.07549 -0.213137,0.111834 -0.390563,0.117286 -0.474608,0.01459 -0.558967,0.175635 -0.214775,0.410109 0.17939,0.122202 0.21863,0.182575 0.21863,0.336359 0,0.103051 -0.02602,0.180208 -0.05771,0.171402 -0.09542,-0.02647 -0.629433,-0.426643 -0.629433,-0.471616 0,-0.02286 0.03325,-0.152303 0.07361,-0.28741 0.06373,-0.212676 0.06,-0.256174 -0.02807,-0.32399 -0.08686,-0.06685 -0.116862,-0.06873 -0.204847,-0.01256 -0.05891,0.03767 -0.207618,0.05993 -0.347288,0.05226 -0.223714,-0.01248 -0.247195,-0.0023 -0.279507,0.122323 l -0.0353,0.135896 -0.545123,-0.01647 c -0.589844,-0.01775 -0.623072,-0.006 -0.741899,0.256768 -0.03578,0.0793 -0.08433,0.180583 -0.107827,0.225052 -0.05072,0.09608 0.240991,0.231564 0.49839,0.231564 0.244352,0 0.530943,0.131302 0.530943,0.243256 0,0.05309 0.04241,0.14631 0.09409,0.207044 0.07578,0.08901 0.08205,0.159362 0.03193,0.362527 -0.07711,0.313005 -0.09952,0.340758 -0.273351,0.340758 -0.178451,0 -0.289892,0.08573 -0.289892,0.223067 0,0.05925 -0.02807,0.121083 -0.06253,0.13743 -0.109153,0.05196 -0.06831,0.124279 0.156162,0.277304 0.214522,0.146128 0.279134,0.289063 0.156946,0.347165 -0.03385,0.01609 -0.107225,-0.05835 -0.162933,-0.165394 -0.05578,-0.107098 -0.137152,-0.194735 -0.181005,-0.194735 -0.04385,0 -0.125766,-0.05406 -0.182041,-0.12015 -0.06482,-0.07612 -0.160645,-0.120158 -0.261508,-0.120158 -0.08759,0 -0.200149,-0.03158 -0.250231,-0.07001 -0.117345,-0.09037 -0.221558,-0.05707 -0.398732,0.127339 l -0.142922,0.148747 0.14903,0.08816 c 0.08205,0.04842 0.213269,0.08869 0.291772,0.08922 0.125092,0.0015 0.134151,0.01338 0.07337,0.100946 -0.03819,0.05497 -0.05289,0.133377 -0.03229,0.174327 0.02036,0.04083 0.006,0.103886 -0.03349,0.139866 -0.08096,0.07504 0.01518,0.11888 0.221931,0.10115 0.08915,-0.0075 0.158572,0.0476 0.256147,0.20396 0.12991,0.208111 0.130742,0.221338 0.02819,0.445397 -0.112888,0.24667 -0.342252,0.469662 -0.483078,0.469662 -0.04723,0 -0.175764,0.03579 -0.285567,0.0795 -0.109875,0.04376 -0.319506,0.07592 -0.465982,0.07166 -0.23834,-0.0075 -0.279363,0.0084 -0.390431,0.148859 -0.06831,0.08616 -0.124212,0.172131 -0.12432,0.191065 -1.33e-4,0.01902 0.123549,0.141708 0.274869,0.272799 0.151307,0.131091 0.295386,0.309449 0.320204,0.396357 0.04,0.140196 0.02157,0.173131 -0.163439,0.291981 l -0.208534,0.133893 -0.252207,-0.186651 c -0.324988,-0.240482 -0.491078,-0.307283 -0.584785,-0.235173 -0.06795,0.05226 -0.126657,-0.02324 -0.28282,-0.363061 -0.03144,-0.06827 -0.08036,-0.0812 -0.219413,-0.05767 -0.158922,0.02692 -0.182981,0.01519 -0.214293,-0.104315 -0.0194,-0.07399 -0.114574,-0.203479 -0.211438,-0.287703 -0.09686,-0.08425 -0.204281,-0.188207 -0.238641,-0.231082 -0.04964,-0.06188 -0.118308,-0.07106 -0.333806,-0.04421 -0.149235,0.01842 -0.303844,0.06474 -0.343553,0.102728 -0.03976,0.03805 -0.254918,0.220992 -0.478234,0.406695 -0.392298,0.326225 -0.406165,0.346362 -0.41037,0.595972 -0.0048,0.259685 -0.125513,0.515476 -0.231268,0.488339 -0.08084,-0.02068 -0.597483,-0.93988 -0.641397,-1.141193 -0.06807,-0.312073 -0.135404,-0.389875 -0.308518,-0.356437 -0.117826,0.02278 -0.166813,0.0084 -0.198932,-0.05903 -0.02349,-0.0491 -0.152837,-0.162928 -0.287519,-0.253024 -0.234268,-0.156709 -0.267447,-0.164055 -0.765319,-0.169552 -0.397262,-0.0045 -0.548581,-0.02534 -0.639337,-0.08858 -0.06698,-0.04677 -0.218883,-0.08277 -0.348239,-0.08277 -0.184836,0 -0.278531,-0.0379 -0.483017,-0.195223 -0.171693,-0.132114 -0.297892,-0.190374 -0.390407,-0.180245 -0.232244,0.02542 -0.192017,0.187433 0.126104,0.507641 0.232858,0.234407 0.334589,0.300418 0.46303,0.300418 0.0906,0 0.197498,-0.03053 0.237701,-0.06782 0.06168,-0.05722 0.111442,-0.04857 0.319964,0.05662 0.13579,0.06843 0.246882,0.151739 0.246882,0.185192 0,0.140182 -0.283929,0.413936 -0.553629,0.533786 -0.159295,0.07076 -0.307555,0.148701 -0.329445,0.173146 -0.0553,0.06173 -0.949518,0.362309 -1.00407,0.337511 -0.02446,-0.01105 -0.06301,-0.100518 -0.08566,-0.198765 -0.04385,-0.189598 -0.206149,-0.427779 -0.443621,-0.650891 -0.07952,-0.07474 -0.144609,-0.170019 -0.144609,-0.211758 0,-0.105473 -0.566725,-0.733844 -0.661806,-0.733844 -0.04265,0 -0.123453,-0.01361 -0.179547,-0.03008 -0.150223,-0.04436 -0.07,0.168537 0.225136,0.59682 0.13279,0.192734 0.241424,0.389897 0.241424,0.438126 0,0.04827 0.05241,0.139294 0.116381,0.202336 0.06397,0.06301 0.135778,0.162409 0.159548,0.220804 0.02373,0.05835 0.154223,0.17383 0.289844,0.256482 0.135646,0.08268 0.263147,0.200915 0.283315,0.262792 0.0753,0.230615 0.203546,0.26813 0.64577,0.188741 0.218461,-0.03918 0.411249,-0.06053 0.428429,-0.04722 0.01723,0.01331 -0.06072,0.186358 -0.17315,0.38474 -0.14126,0.249316 -0.293543,0.425102 -0.493137,0.569262 -0.376805,0.272175 -0.724659,0.602482 -0.853594,0.810556 -0.08915,0.14394 -0.09313,0.208351 -0.02891,0.47576 0.142561,0.594647 0.148331,0.845715 0.02132,0.92957 -0.06301,0.04166 -0.247954,0.165056 -0.410948,0.274296 l -0.296362,0.198644 0.03891,0.254092 c 0.03783,0.247903 0.03397,0.255986 -0.156512,0.331818 -0.133007,0.05286 -0.19533,0.113038 -0.19533,0.188411 0,0.140122 -0.316241,0.510243 -0.59941,0.701564 -0.144067,0.09734 -0.284471,0.146971 -0.417815,0.147731 -0.110478,5.26e-4 -0.304085,0.01963 -0.430261,0.04226 -0.149861,0.02684 -0.252749,0.02308 -0.296711,-0.01075 z m 1.312913,-1.984752 c 0.07241,-0.06715 0.06795,-0.07527 -0.03398,-0.06008 -0.06482,0.0095 -0.129464,0.04459 -0.143765,0.07761 -0.03711,0.08573 0.07879,0.07429 0.177776,-0.01752 z m 0.930988,-0.540861 c 0,-0.07264 -0.03964,-0.173884 -0.08807,-0.224864 -0.08265,-0.087 -0.09084,-0.08161 -0.132019,0.08743 -0.02867,0.117715 -0.01735,0.204788 0.03265,0.251219 0.104213,0.09661 0.187403,0.04609 0.187403,-0.113826 z m -0.869822,-0.404086 c -0.0084,-0.05745 -0.09337,-0.04632 -0.120236,0.01564 -0.01373,0.03166 0.0084,0.04903 0.05,0.03842 0.0412,-0.0106 0.07289,-0.03496 0.07024,-0.05406 z m 0.370106,-0.121369 c 0,-0.02113 -0.0259,-0.05903 -0.05759,-0.08415 -0.03169,-0.02511 -0.08217,-0.119895 -0.112164,-0.210623 -0.07409,-0.223826 -0.205016,-0.250655 -0.205016,-0.04203 0,0.180847 0.14744,0.375191 0.284627,0.375191 0.04952,0 0.09012,-0.01729 0.09012,-0.03842 z m 0.365119,-0.77796 c 0.04879,-0.107796 0.04506,-0.15886 -0.01506,-0.205148 -0.04409,-0.03391 -0.09289,-0.09134 -0.10867,-0.127632 -0.04169,-0.09629 -0.428743,-0.120707 -0.428743,-0.02707 0,0.05437 0.04108,0.06459 0.164307,0.04083 0.09036,-0.01737 0.152717,-0.01248 0.138549,0.01105 -0.01422,0.02354 -0.06361,0.100939 -0.110116,0.171951 -0.108309,0.165823 -0.05024,0.279454 0.142693,0.279454 0.112526,0 0.168873,-0.0373 0.217016,-0.143505 z m 0.294771,-0.710587 c -0.02048,-0.01572 -0.0694,-0.0045 -0.10855,0.02609 -0.05337,0.04106 -0.04928,0.07539 0.01663,0.136904 0.08144,0.07601 0.08939,0.07399 0.10855,-0.02609 0.01084,-0.05955 0.0036,-0.121105 -0.01663,-0.13691 z m -2.985401,-1.029479 c -0.03867,-0.08911 -0.17309,-0.103894 -0.17309,-0.01902 0,0.04181 0.04446,0.07613 0.09891,0.07613 0.05446,0 0.08771,-0.02564 0.07421,-0.05715 z m 2.419207,-1.144555 c 0.02132,-0.02639 0.0084,-0.04805 -0.02759,-0.04805 -0.03638,0 -0.06614,0.02166 -0.06614,0.04805 0,0.02647 0.01241,0.04805 0.02759,0.04805 0.01518,0 0.04494,-0.02158 0.06614,-0.04805 z m 2.493493,-1.615344 c 0.10855,-0.03211 0.131573,-0.241046 0.03891,-0.353737 -0.0359,-0.04361 -0.03518,-0.09164 0.0024,-0.126083 0.07988,-0.07399 0.01084,-0.201712 -0.127115,-0.235429 -0.06096,-0.01489 -0.158994,-0.06797 -0.217751,-0.117917 -0.100478,-0.08553 -0.100598,-0.09819 -7.59e-4,-0.215315 0.08554,-0.100405 0.09108,-0.138339 0.02855,-0.196321 -0.109995,-0.101984 -0.302687,-0.0891 -0.542027,0.03632 -0.267592,0.140175 -0.273953,0.310735 -0.02,0.533396 0.134658,0.118007 0.187402,0.213367 0.187402,0.338833 0,0.145408 0.03386,0.190531 0.203005,0.269845 0.216569,0.10157 0.291157,0.112669 0.447765,0.06639 z m -1.30666,-0.25922 c 0.02132,-0.02639 0.0084,-0.04805 -0.02759,-0.04805 -0.03638,0 -0.06614,0.02166 -0.06614,0.04805 0,0.02647 0.01241,0.04805 0.02759,0.04805 0.01518,0 0.04494,-0.02158 0.06614,-0.04805 z m 4.235292,-0.455961 c 0.0072,-0.02609 -0.03687,-0.05466 -0.09698,-0.06354 -0.06843,-0.01053 -0.109273,0.01354 -0.109273,0.06286 0,0.08363 0.184608,0.08426 0.206318,5.26e-4 z M 36.321008,36.69455 c -0.01458,-0.115857 -0.05012,-0.156213 -0.137693,-0.156213 -0.06506,0 -0.146741,0.03496 -0.181716,0.07761 -0.09602,0.117023 -0.0084,0.234835 0.176897,0.234835 0.145235,0 0.160042,-0.01624 0.142512,-0.156213 z m 1.693585,-0.103902 c 0.05229,-0.04842 0.05373,-0.07707 0.006,-0.100307 -0.07241,-0.03444 -0.250171,0.05497 -0.250171,0.125918 0,0.06639 0.164511,0.04925 0.245255,-0.02564 z m -3.876608,-0.295131 c 0.01976,-0.07835 0.0084,-0.08193 -0.07807,-0.02617 -0.119393,0.07623 -0.134248,0.165348 -0.02289,0.136798 0.04289,-0.01098 0.08831,-0.06076 0.10096,-0.110616 z m 4.840016,0.0015 c -0.0194,-0.03872 -0.06024,-0.07053 -0.09096,-0.07053 -0.06409,0 -0.07542,0.11309 -0.0159,0.158897 0.06662,0.05121 0.144368,-0.01293 0.106743,-0.08837 z m 1.102559,0.04963 c 0,-0.03955 -0.02651,-0.07211 -0.05879,-0.07211 -0.07879,0 -0.135176,0.07504 -0.0853,0.113451 0.07036,0.05414 0.144054,0.03293 0.144054,-0.04143 z m 1.370983,-0.477993 c 0.105659,-0.08658 0.132899,-0.149852 0.10337,-0.240339 -0.05542,-0.169928 -0.219546,-0.15613 -0.26593,0.02241 -0.02072,0.07982 -0.06217,0.156838 -0.09217,0.171072 -0.08518,0.04053 -0.06361,0.164386 0.02843,0.164386 0.04566,0 0.147355,-0.05286 0.226268,-0.117504 z m -8.117189,-0.677096 c 0,-0.07675 -0.166006,-0.151123 -0.22904,-0.102624 -0.02,0.01527 -0.01964,0.06128 7.59e-4,0.102097 0.04783,0.09609 0.228305,0.09651 0.228305,5.27e-4 z m 1.936406,-0.04655 c 0,-0.0397 -0.02651,-0.07211 -0.05879,-0.07211 -0.07879,0 -0.135175,0.07504 -0.0853,0.113466 0.07036,0.05414 0.144055,0.03294 0.144055,-0.04143 z m -2.339065,-0.268949 c 0.06433,-0.08013 -0.08048,-0.172041 -0.166584,-0.105736 -0.07205,0.05542 -0.02687,0.157995 0.06952,0.157995 0.03024,0 0.07397,-0.02354 0.0971,-0.05226 z m 1.745462,10.077473 c -0.01699,-0.04166 -0.04494,-0.109457 -0.0618,-0.150784 -0.01699,-0.04143 0.01385,-0.141663 0.06867,-0.222947 0.05976,-0.08901 0.08506,-0.202936 0.06325,-0.286349 -0.02675,-0.103164 -0.0036,-0.159807 0.09132,-0.22166 0.07012,-0.04572 0.223196,-0.15692 0.340336,-0.247099 0.318988,-0.245609 0.322421,-0.116008 0.01518,0.573819 -0.192173,0.431517 -0.297542,0.603648 -0.376383,0.614965 -0.06024,0.0084 -0.123465,-0.01842 -0.140548,-0.05993 z m 13.141704,-1.926281 c -0.09891,-0.04143 -0.17827,-0.125249 -0.20092,-0.212315 -0.02506,-0.0965 -0.101562,-0.169469 -0.232497,-0.221547 -0.187715,-0.07467 -0.19098,-0.0812 -0.08614,-0.170305 0.137079,-0.116549 0.191944,-0.115811 0.623349,0.0085 0.403286,0.116098 0.77803,0.347646 0.77803,0.4807 0,0.105601 -0.02422,0.11027 -0.19898,0.03835 -0.103249,-0.04256 -0.162946,-0.03316 -0.305699,0.04805 -0.206667,0.117578 -0.171066,0.114871 -0.377166,0.02872 z m -3.990411,-0.07203 c -0.08012,-0.03978 -0.07783,-0.04677 0.01566,-0.0473 0.06012,-3.61e-4 0.109273,0.0209 0.109273,0.0473 0,0.05858 -0.0072,0.05858 -0.124923,0 z m -1.054669,-0.426667 c -0.20086,-0.165439 -0.546569,-0.664411 -0.490319,-0.707684 0.07168,-0.05512 0.417623,0.145318 0.47697,0.276311 0.03301,0.07279 0.118068,0.17059 0.189173,0.217427 0.136368,0.08986 0.173475,0.277432 0.06506,0.328976 -0.0353,0.01677 -0.143705,-0.03496 -0.240906,-0.11503 z m 1.265649,-0.136392 c -0.155765,-0.01504 -0.216931,-0.05624 -0.303747,-0.204434 -0.109875,-0.187523 -0.0906,-0.289988 0.05458,-0.289988 0.04361,0 0.252352,-0.120444 0.463777,-0.267672 0.211426,-0.147227 0.405984,-0.257422 0.432357,-0.24488 0.0865,0.04106 0.0359,0.584519 -0.06867,0.740371 -0.05626,0.08362 -0.102044,0.185463 -0.102044,0.226428 0,0.07497 -0.06277,0.08024 -0.476138,0.04015 z m 1.015732,-0.08584 c 0.01976,-0.0397 0.06108,-0.07211 0.09168,-0.07211 0.0306,0 0.05578,0.03241 0.05578,0.07211 0,0.03955 -0.04132,0.07211 -0.09168,0.07211 -0.0559,0 -0.07771,-0.0282 -0.05578,-0.07211 z m 1.740378,-0.07211 c -0.02132,-0.02639 -0.0084,-0.0482 0.02759,-0.0482 0.03638,0 0.06614,0.02166 0.06614,0.0482 0,0.02639 -0.01241,0.04805 -0.02759,0.04805 -0.01518,0 -0.04494,-0.02165 -0.06614,-0.04805 z M 42.541464,41.58084 c -0.105779,-0.19469 -0.09578,-0.275815 0.02663,-0.2173 0.100719,0.0482 0.211341,0.390002 0.126248,0.390002 -0.03253,0 -0.101321,-0.0777 -0.152849,-0.172702 z M 39.6433,41.149887 c 0,-0.04128 0.02807,-0.06158 0.06253,-0.04527 0.03434,0.01632 0.06253,0.05008 0.06253,0.07497 0,0.02496 -0.02807,0.04527 -0.06253,0.04527 -0.03434,0 -0.06253,-0.03369 -0.06253,-0.07497 z m 5.996634,0.0023 c 0,-0.0397 0.04229,-0.07211 0.09373,-0.07211 0.05144,0 0.09373,0.03256 0.09373,0.07211 0,0.03955 -0.04229,0.07211 -0.09373,0.07211 -0.05144,0 -0.09373,-0.03256 -0.09373,-0.07211 z M 17.187188,40.791698 c 0.02132,-0.02647 0.05108,-0.04805 0.06614,-0.04805 0.01518,0 0.02759,0.02166 0.02759,0.04805 0,0.02639 -0.02976,0.04805 -0.06614,0.04805 -0.03638,0 -0.04879,-0.02166 -0.02759,-0.04805 z m -0.156163,-0.240399 c -0.0859,-0.05173 -0.254544,-0.118203 -0.374792,-0.147701 -0.120236,-0.02955 -0.278905,-0.108548 -0.352589,-0.175666 -0.109273,-0.09946 -0.195739,-0.123804 -0.468488,-0.131549 -0.18398,-0.0053 -0.418851,-0.04624 -0.521919,-0.09112 -0.557798,-0.243031 -0.560822,-0.24543 -0.595471,-0.473361 -0.01831,-0.12043 -0.105779,-0.302614 -0.194269,-0.404838 -0.302037,-0.348767 -0.428333,-0.533599 -0.428333,-0.626958 0,-0.05136 -0.04048,-0.135272 -0.08988,-0.186583 -0.07674,-0.07961 -0.10867,-0.08447 -0.21863,-0.03278 -0.116983,0.05497 -0.12873,0.04925 -0.12873,-0.06241 0,-0.07113 -0.06964,-0.17253 -0.165331,-0.24079 -0.12514,-0.08922 -0.172861,-0.178177 -0.196281,-0.365783 -0.03337,-0.266814 0.04988,-0.43969 0.366395,-0.761425 0.09108,-0.09249 0.210389,-0.235767 0.265255,-0.318321 0.05482,-0.08257 0.159548,-0.162146 0.232617,-0.176839 0.18021,-0.03617 0.137453,-0.203155 -0.05084,-0.19805 -0.125453,0.0038 -0.134585,-0.01361 -0.10337,-0.192268 0.0188,-0.107804 0.04614,-0.242188 0.06096,-0.298651 0.0147,-0.05647 -0.01518,-0.129399 -0.06638,-0.162085 -0.0512,-0.03263 -0.09301,-0.129159 -0.09301,-0.214345 0,-0.191042 -0.132356,-0.284431 -0.499727,-0.352616 -0.380058,-0.07053 -1.158895,0.0053 -1.387307,0.134805 -0.09301,0.05279 -0.214402,0.09608 -0.26958,0.09608 -0.192005,0 -0.463211,-0.147333 -0.465958,-0.253129 -0.0011,-0.05241 0.364142,-0.169102 0.633048,-0.202103 0.125368,-0.01542 0.264592,-0.06196 0.309361,-0.103473 0.06843,-0.06346 0.06205,-0.08425 -0.0406,-0.130912 -0.107225,-0.0488 -0.08795,-0.05835 0.159114,-0.07951 0.223618,-0.0191 0.284857,-0.04421 0.299471,-0.12294 0.02012,-0.108224 0.40143,-0.226976 0.992057,-0.308974 0.338843,-0.04715 1.448619,0.0379 1.778437,0.136204 0.09096,0.02714 0.178596,0.0391 0.194752,0.02662 0.01614,-0.01248 0.202666,-0.04399 0.414477,-0.07031 0.471657,-0.0585 1.349478,0.01459 1.508737,0.125437 0.156102,0.108706 0.768018,0.07929 0.797077,-0.03835 0.01614,-0.06512 -0.02193,-0.08415 -0.167499,-0.08415 -0.22869,0 -0.315362,-0.08088 -0.11855,-0.110632 l 0.141464,-0.02143 -0.136223,-0.03489 c -0.07494,-0.0191 -0.151332,-0.06512 -0.169813,-0.10221 -0.01843,-0.03707 -0.111682,-0.06797 -0.207329,-0.0688 -0.168584,-7.07e-4 -0.17003,-0.0045 -0.04879,-0.07421 0.142717,-0.0831 0.478897,-0.05692 0.786366,0.06106 0.103731,0.03978 0.286736,0.07452 0.406599,0.07718 0.182451,0.0045 0.214931,0.02075 0.199595,0.103262 -0.0147,0.07887 -0.07156,0.101571 -0.283796,0.113346 -0.302314,0.01692 -0.333891,0.06873 -0.110358,0.181342 0.125658,0.06331 0.241099,0.07166 0.609025,0.04384 0.50739,-0.03835 0.610157,-0.07982 0.610157,-0.245828 0,-0.104007 0.03843,-0.12791 0.171776,-0.106917 0.02578,0.0045 0.03795,0.04752 0.02723,0.0965 -0.01084,0.04903 0.02578,0.12403 0.0812,0.166695 0.168439,0.12961 0.08337,0.211525 -0.373913,0.359948 -0.716069,0.232413 -0.819836,0.275401 -1.030274,0.426659 -0.128513,0.09238 -0.187438,0.171996 -0.163222,0.220555 0.02084,0.04181 0.03795,0.09492 0.03795,0.118075 0,0.02308 0.181656,0.111662 0.403695,0.19669 0.381275,0.146009 0.403274,0.163589 0.395816,0.31623 -0.0048,0.0889 0.02193,0.184621 0.05843,0.212713 0.110116,0.08479 0.325577,-0.0045 0.416514,-0.171116 0.09036,-0.166462 0.628698,-0.444344 0.696719,-0.35967 0.04253,0.05286 0.152549,0.01143 0.152549,-0.05745 0,-0.02609 -0.04928,-0.04098 -0.109273,-0.03324 -0.166873,0.02158 -0.168476,-0.162146 -0.0036,-0.361384 0.119995,-0.144543 0.18039,-0.173523 0.365455,-0.175229 0.256882,-0.0023 0.37166,0.06722 0.37166,0.22539 0,0.142573 0.153115,0.18814 0.395503,0.117752 0.104333,-0.0303 0.19945,-0.0476 0.211389,-0.03835 0.01205,0.0095 0.02964,0.09449 0.0394,0.189515 0.01241,0.121023 0.06891,0.203856 0.188812,0.276394 0.222281,0.134543 0.198523,0.286567 -0.05433,0.347413 -0.103128,0.02481 -0.400418,0.05993 -0.660769,0.07824 -0.342312,0.02384 -0.528426,0.06324 -0.672227,0.14207 -0.224522,0.123008 -0.21557,0.19626 0.01976,0.161657 0.135332,-0.01985 0.157657,-0.006 0.157657,0.09977 0,0.06752 0.02807,0.136302 0.06253,0.152649 0.122188,0.05812 0.06,0.121504 -0.09072,0.09238 -0.238918,-0.04609 -0.762175,0.109684 -0.912001,0.271604 -0.07156,0.07728 -0.194438,0.152897 -0.273218,0.168108 -0.177379,0.03429 -0.703888,0.443826 -0.732935,0.57015 -0.01205,0.05113 -0.175945,0.174906 -0.364865,0.275145 -0.514245,0.272822 -0.644542,0.405695 -0.601616,0.613558 0.01952,0.0946 0.0084,0.204404 -0.02398,0.244068 -0.04578,0.05557 -0.05988,0.04106 -0.06048,-0.06324 -0.0011,-0.241489 -0.09638,-0.311531 -0.469693,-0.34742 -0.244845,-0.02354 -0.372467,-0.01504 -0.442031,0.0294 -0.0547,0.03496 -0.218328,0.05767 -0.371455,0.05158 -0.267218,-0.0106 -0.719129,0.120068 -0.811137,0.234609 -0.02229,0.02767 -0.09445,0.195464 -0.160283,0.372731 -0.127802,0.343887 -0.09433,0.558382 0.11614,0.743807 0.147247,0.129708 0.54616,0.111323 0.734839,-0.03391 0.08433,-0.06497 0.153331,-0.14058 0.153331,-0.168221 0,-0.02767 0.05626,-0.0503 0.124923,-0.0503 0.152573,0 0.152573,0.02135 0,0.264363 -0.208317,0.331878 -0.167692,0.39001 0.255617,0.365685 0.22181,-0.01271 0.300807,0.07919 0.233123,0.271182 -0.06385,0.181358 -0.09084,0.186742 -0.301338,0.05993 z m -2.186276,-3.361675 c 0,-0.02496 -0.02807,-0.05858 -0.06253,-0.07497 -0.03434,-0.01632 -0.06253,0.0045 -0.06253,0.04519 0,0.04128 0.02807,0.07497 0.06253,0.07497 0.03434,0 0.06253,-0.02038 0.06253,-0.04527 z m 4.05171,-0.09259 c 0.124935,-0.04948 0.311192,-0.10933 0.413923,-0.133174 0.241581,-0.05609 0.293724,-0.2096 0.0712,-0.2096 -0.0865,0 -0.193932,-0.03978 -0.238822,-0.08837 -0.04494,-0.04865 -0.158921,-0.103052 -0.253399,-0.121083 -0.09735,-0.01842 -0.171777,-0.06579 -0.171777,-0.108984 0,-0.04188 -0.06891,-0.139317 -0.153247,-0.216398 -0.145765,-0.133309 -0.156427,-0.135595 -0.218148,-0.04692 -0.03566,0.05136 -0.1635,0.118339 -0.284013,0.148942 -0.120501,0.0306 -0.219088,0.0756 -0.219088,0.09999 0,0.02436 -7.59e-4,0.06061 -0.0024,0.08035 -0.0011,0.01985 0.08433,0.04692 0.190486,0.06008 l 0.192969,0.02406 -0.159271,0.165552 c -0.177283,0.184275 -0.212052,0.387198 -0.06638,0.387198 0.0512,0 0.162403,-0.08468 0.247327,-0.188223 0.08494,-0.103473 0.180656,-0.200704 0.212751,-0.215961 0.08879,-0.04226 0.149826,0.211547 0.06891,0.286507 -0.07566,0.07023 -0.03193,0.165755 0.0759,0.165755 0.03626,0 0.168102,-0.04045 0.293024,-0.08986 z m -1.33231,-1.015688 c 0.04711,0 0.114936,-0.0811 0.150705,-0.180267 0.102044,-0.282658 0.08951,-0.315427 -0.105658,-0.277725 -0.234377,0.04519 -0.313374,0.104007 -0.360131,0.267859 -0.04747,0.165951 0.0084,0.255251 0.136971,0.217429 0.05084,-0.01496 0.131031,-0.02722 0.178137,-0.02722 z m 0.466307,0 c 0,-0.02647 -0.01241,-0.04805 -0.02759,-0.04805 -0.01518,0 -0.04494,0.02165 -0.06614,0.04805 -0.02132,0.02639 -0.0084,0.04805 0.02759,0.04805 0.03638,0 0.06614,-0.02165 0.06614,-0.04805 z m 2.30279,-0.07452 c 0.01976,-0.07846 0.0084,-0.08194 -0.07807,-0.02617 -0.119393,0.07623 -0.13426,0.165356 -0.02289,0.136798 0.04289,-0.01098 0.08831,-0.06076 0.10096,-0.110616 z m 0.757995,-0.259092 c 0,-0.02496 -0.02807,-0.05858 -0.06253,-0.07497 -0.03434,-0.01624 -0.06253,0.0045 -0.06253,0.04527 0,0.04128 0.02807,0.07497 0.06253,0.07497 0.03434,0 0.06253,-0.02038 0.06253,-0.04519 z m -2.93585,-0.09914 c 0,-0.02639 -0.02807,-0.04805 -0.06253,-0.04805 -0.03434,0 -0.06253,0.02166 -0.06253,0.04805 0,0.02647 0.02807,0.04805 0.06253,0.04805 0.03434,0 0.06253,-0.02166 0.06253,-0.04805 z m -1.342984,-0.192296 c 0,-0.03526 -0.03518,-0.07309 -0.07807,-0.08415 -0.04638,-0.01188 -0.07807,0.02218 -0.07807,0.08415 0,0.06196 0.03169,0.09598 0.07807,0.08415 0.04289,-0.01098 0.07807,-0.04888 0.07807,-0.08415 z m 0.893423,-0.174132 c 0.0096,-0.05654 -0.02217,-0.114165 -0.07361,-0.129317 -0.09747,-0.0288 -0.180355,0.02955 -0.247653,0.174433 -0.03373,0.07256 -0.01205,0.08468 0.13085,0.07211 0.119152,-0.01053 0.177174,-0.04624 0.190318,-0.11721 z m 0.387094,0.05399 c 0,-0.04 -0.05554,-0.07211 -0.124923,-0.07211 -0.0694,0 -0.124923,0.03196 -0.124923,0.07211 0,0.04 0.05554,0.07211 0.124923,0.07211 0.0694,0 0.124923,-0.03211 0.124923,-0.07211 z m -0.936976,-0.264354 c 0,-0.02639 -0.04048,-0.04805 -0.09,-0.04805 -0.0494,0 -0.107345,0.02165 -0.128622,0.04805 -0.02132,0.02647 0.01928,0.04805 0.09,0.04805 0.07072,0 0.128609,-0.02165 0.128609,-0.04805 z m -0.308205,-0.145898 c 0.143706,-0.05918 0.158789,-0.182372 0.02711,-0.221246 -0.05144,-0.01519 -0.09373,-0.06925 -0.09373,-0.120165 0,-0.05083 0.04217,-0.104948 0.09373,-0.120167 0.152958,-0.04519 0.116019,-0.209734 -0.04687,-0.208983 -0.264218,7.07e-4 -0.421646,0.05692 -0.421646,0.149145 0,0.06452 0.04482,0.09048 0.15615,0.09048 0.0859,0 0.156175,0.02166 0.156175,0.04805 0,0.02639 -0.03,0.04805 -0.06674,0.04805 -0.03687,0 -0.05,0.04045 -0.0294,0.09049 0.02349,0.05715 0.0024,0.100834 -0.05819,0.118655 -0.05265,0.01549 -0.09554,0.06136 -0.09554,0.101781 0,0.085 0.199872,0.09756 0.378901,0.02384 z m 1.057778,-0.02226 c 0,-0.0397 -0.02735,-0.07211 -0.06096,-0.07211 -0.03434,0 -0.04446,-0.06279 -0.02349,-0.144198 0.02964,-0.113789 0.01566,-0.144189 -0.06602,-0.144189 -0.131091,0 -0.20116,0.133294 -0.107827,0.205103 0.03891,0.03 0.07072,0.09334 0.07072,0.140964 0,0.0476 0.04229,0.08658 0.09373,0.08658 0.05144,0 0.09373,-0.03256 0.09373,-0.07211 z m 0.257798,-0.05361 c 0.06132,-0.04271 0.193076,-0.08078 0.292844,-0.08468 0.223389,-0.0084 0.418297,-0.120767 0.329168,-0.189351 -0.04169,-0.03196 -0.09192,-0.02925 -0.150898,0.0084 -0.04867,0.03106 -0.133429,0.04316 -0.188427,0.02692 -0.111562,-0.03278 -0.469029,0.160115 -0.474547,0.256182 -0.0048,0.08129 0.05819,0.07559 0.19186,-0.01752 z m 26.851965,5.217786 c 0,-0.05452 0.02687,-0.08616 0.05976,-0.07053 0.03289,0.01564 0.04398,0.06015 0.02458,0.09893 -0.04952,0.09935 -0.08421,0.08763 -0.08421,-0.02842 z M 19.143112,39.797508 c 0.04506,-0.01384 0.09903,-0.01211 0.119754,0.0045 0.02072,0.01602 -0.01614,0.0273 -0.08205,0.02519 -0.07277,-0.0023 -0.08759,-0.01361 -0.03771,-0.02902 z m 27.087052,-1.893745 c -0.01699,-0.02113 0.05409,-0.105368 0.15791,-0.18717 0.103851,-0.08173 0.192149,-0.196569 0.196221,-0.255137 0.006,-0.08416 0.01735,-0.07623 0.05506,0.03767 0.0947,0.286559 0.07554,0.333803 -0.15791,0.390047 -0.121188,0.02918 -0.23428,0.03579 -0.251291,0.01459 z m 0.09686,-1.005418 c 0,-0.06083 0.127645,-0.06083 0.249869,0 0.07301,0.03632 0.05578,0.04677 -0.07807,0.0473 -0.09457,3.61e-4 -0.171788,-0.0209 -0.171788,-0.0473 z m -24.29786,-0.564773 c 0.0036,-0.11382 0.112285,-0.164372 0.240954,-0.111406 0.189716,0.07813 0.16409,0.147461 -0.05458,0.147461 -0.103128,0 -0.186956,-0.01617 -0.186438,-0.03602 z m 6.495397,-0.421275 c 0,-0.04 0.03385,-0.114519 0.0753,-0.16556 0.06433,-0.07918 0.0506,-0.110443 -0.09301,-0.212916 -0.103128,-0.07346 -0.153946,-0.149115 -0.131115,-0.194922 0.05168,-0.103796 0.211353,-0.09407 0.211353,0.01271 0,0.0482 0.08361,0.17253 0.185643,0.276372 0.256316,0.260655 0.24834,0.357053 -0.02952,0.357053 -0.15356,0 -0.21863,-0.02166 -0.21863,-0.07279 z m -0.62465,-0.108203 c 0,-0.09059 0.110959,-0.203569 0.199884,-0.203569 0.104092,0 0.04446,0.191125 -0.07494,0.240331 -0.103852,0.04271 -0.124923,0.03654 -0.124923,-0.03677 z m -3.920582,-0.9263 c -0.164259,-0.05076 -0.264568,-0.223954 -0.264568,-0.456766 0,-0.133279 0.03482,-0.177711 0.186487,-0.238075 0.217883,-0.08667 0.320794,-0.302832 0.174258,-0.365941 -0.05699,-0.02451 -0.08325,-0.08457 -0.0665,-0.15201 0.01638,-0.06587 -0.02241,-0.159033 -0.09457,-0.227676 -0.09975,-0.09492 -0.180909,-0.116549 -0.44179,-0.118053 -0.390298,-0.0023 -0.450561,-0.08774 -0.08807,-0.125023 0.144777,-0.01489 0.314048,-0.06241 0.376166,-0.105683 0.06843,-0.0476 0.272869,-0.08922 0.517594,-0.105481 2.049788,-0.135941 2.708485,-0.146678 3.039014,-0.04963 0.268195,0.07887 0.273833,0.08446 0.149717,0.151408 -0.07482,0.04038 -0.145115,0.147228 -0.167391,0.254475 -0.03048,0.146709 -0.08241,0.203209 -0.251086,0.273093 -0.119273,0.04948 -0.19933,0.114804 -0.182343,0.148859 0.0194,0.03888 -0.0253,0.06068 -0.12391,0.06068 -0.110719,0 -0.154187,0.02617 -0.154187,0.09291 0,0.09977 -0.06385,0.122031 -0.499728,0.173823 -0.154596,0.01842 -0.359709,0.07623 -0.455789,0.12855 -0.09614,0.05226 -0.286772,0.106706 -0.423743,0.12085 -0.194317,0.02008 -0.313734,0.0776 -0.543641,0.261761 -0.16203,0.129843 -0.303988,0.256671 -0.315434,0.281853 -0.02554,0.05609 -0.181475,0.05436 -0.370491,-0.0045 z m -2.451917,-0.288191 c -0.06674,-0.09608 -0.05373,-0.12079 0.119152,-0.224902 0.106743,-0.06429 0.194234,-0.143776 0.194234,-0.176553 0,-0.112262 -0.359745,-0.269912 -0.615952,-0.269912 -0.2131,0 -0.262821,0.02166 -0.369745,0.161101 -0.06795,0.08858 -0.183137,0.173094 -0.256026,0.187756 -0.174776,0.03512 -0.167367,-6.99e-4 0.02361,-0.117105 0.156078,-0.0945 0.211594,-0.231752 0.09373,-0.231752 -0.03434,0 -0.06253,-0.03301 -0.06253,-0.07361 0,-0.09904 0.186848,-0.149048 0.252352,-0.06745 0.04277,0.05331 0.07397,0.05008 0.171632,-0.01797 0.145861,-0.101571 0.71008,-0.08373 0.875146,0.02775 0.05843,0.03948 0.169572,0.08658 0.24687,0.104736 0.09277,0.02173 0.140549,0.07068 0.140549,0.144032 0,0.06136 0.06289,0.143881 0.140537,0.184432 0.110598,0.05775 0.124477,0.08616 0.06506,0.133603 -0.06048,0.04827 -0.09445,0.04805 -0.170969,-0.0015 -0.161018,-0.102841 -0.30082,-0.02451 -0.253315,0.141957 0.03096,0.108676 0.01879,0.144234 -0.04964,0.144234 -0.04988,0 -0.176102,0.01316 -0.28029,0.02918 -0.154199,0.02376 -0.203414,0.0095 -0.264508,-0.07876 z m 5.38867,-0.0303 c -0.155548,-0.04827 -0.07205,-0.09988 0.209474,-0.129617 0.36766,-0.03888 0.489474,0.01624 0.208714,0.09428 -0.236894,0.06587 -0.302048,0.07136 -0.418188,0.03527 z m -6.729955,-0.06497 c 0.02157,-0.02692 0.06542,-0.03639 0.09735,-0.0212 0.08662,0.04121 0.07048,0.07001 -0.03915,0.07001 -0.05349,0 -0.07976,-0.02196 -0.05807,-0.04888 z m 27.952392,-0.09534 c -0.07614,-0.0379 -0.06819,-0.04677 0.04313,-0.04737 0.0753,-3.54e-4 0.154235,0.0209 0.175463,0.04737 0.04915,0.06128 -0.09554,0.06128 -0.218618,0 z M 34.271317,33.760791 c 0,-0.08616 0.180632,-0.275055 0.263086,-0.275055 0.03771,0 0.02205,0.03955 -0.03482,0.08795 -0.05687,0.04835 -0.103369,0.124053 -0.103369,0.168236 0,0.04421 -0.02807,0.08034 -0.06253,0.08034 -0.03434,0 -0.06253,-0.02767 -0.06253,-0.06143 z m -14.523072,-0.03474 c -0.02132,-0.02639 0.0072,-0.04805 0.06253,-0.04805 0.05554,0 0.08373,0.02165 0.06253,0.04805 -0.02132,0.02647 -0.0494,0.04805 -0.06253,0.04805 -0.01313,0 -0.0412,-0.02165 -0.06253,-0.04805 z m 1.967646,-0.504694 c -0.04277,-0.0397 -0.158644,-0.07211 -0.257508,-0.07211 -0.09891,0 -0.179752,-0.0212 -0.179752,-0.04715 0,-0.07391 0.269291,-0.107247 0.446729,-0.05534 0.11602,0.03399 0.184861,0.03 0.247425,-0.01436 0.116622,-0.08267 1.483291,-0.197547 1.568661,-0.131866 0.04289,0.03301 -0.03482,0.05993 -0.240786,0.08331 -0.167342,0.01902 -0.514425,0.0964 -0.771307,0.172041 -0.527533,0.155439 -0.701382,0.16944 -0.813462,0.06557 z m 8.870016,-0.01887 c 0,-0.05301 0.162066,-0.104736 0.210811,-0.06722 0.01964,0.01504 0.02072,0.04609 0.0024,0.06873 -0.04385,0.05459 -0.213245,0.05331 -0.213245,-7e-4 z"
       id="path3319-60"
       inkscape:connector-curvature="0" />
    <rect
       style="fill:none;stroke:none"
       id="rect3856"
       width="40"
       height="40"
       x="9.545454"
       y="17" />
    <text
       xml:space="preserve"
       style="font-size:12px;font-style:normal;font-weight:bold;line-height:125%;letter-spacing:0px;word-spacing:0px;fill:#000080;fill-opacity:1;stroke:none;font-family:Sans;-inkscape-font-specification:Sans Bold"
       x="13.518527"
       y="25.786196"
       id="text3009"
       sodipodi:linespacing="125%"><tspan
         sodipodi:role="line"
         id="tspan3011"
         x="13.518527"
         y="25.786196"
         style="font-size:16px">c://</tspan></text>
  </g>
</svg>
