<?xml version="1.0" encoding="UTF-8" standalone="no"?>
<!-- Created with Inkscape (http://www.inkscape.org/) -->

<svg
   xmlns:dc="http://purl.org/dc/elements/1.1/"
   xmlns:cc="http://creativecommons.org/ns#"
   xmlns:rdf="http://www.w3.org/1999/02/22-rdf-syntax-ns#"
   xmlns:svg="http://www.w3.org/2000/svg"
   xmlns="http://www.w3.org/2000/svg"
   xmlns:sodipodi="http://sodipodi.sourceforge.net/DTD/sodipodi-0.dtd"
   xmlns:inkscape="http://www.inkscape.org/namespaces/inkscape"
   width="64px"
   height="64px"
   id="svg3513"
   version="1.1"
   inkscape:version="0.48.4 r9939"
   sodipodi:docname="FolderMap.svg">
  <defs
     id="defs3515" />
  <sodipodi:namedview
     id="base"
     pagecolor="#ffffff"
     bordercolor="#666666"
     borderopacity="1.0"
     inkscape:pageopacity="0.0"
     inkscape:pageshadow="2"
     inkscape:zoom="11"
     inkscape:cx="12.547133"
     inkscape:cy="26.323091"
     inkscape:current-layer="layer1"
     showgrid="true"
     inkscape:document-units="px"
     inkscape:grid-bbox="true"
     inkscape:window-width="1920"
     inkscape:window-height="1014"
     inkscape:window-x="-1"
     inkscape:window-y="-15"
     inkscape:window-maximized="1" />
  <metadata
     id="metadata3518">
    <rdf:RDF>
      <cc:Work
         rdf:about="">
        <dc:format>image/svg+xml</dc:format>
        <dc:type
           rdf:resource="http://purl.org/dc/dcmitype/StillImage" />
        <dc:title />
      </cc:Work>
    </rdf:RDF>
  </metadata>
  <g
     id="layer1"
     inkscape:label="Layer 1"
     inkscape:groupmode="layer">
    <g
       id="g3861">
      <rect
         y="27.545454"
         x="12.909091"
         height="21.363638"
         width="33.090908"
         id="rect3788"
         style="fill:#ffffff;fill-opacity:1;fill-rule:nonzero;stroke:none" />
      <path
         inkscape:connector-curvature="0"
         id="path3319-60"
         d="m 17.153355,47.90375 c -0.37071,-0.114609 -0.77584,-0.247135 -0.90027,-0.294522 -0.22434,-0.08541 -0.22521,-0.08668 -0.1037,-0.149144 0.0674,-0.03466 0.17632,-0.06376 0.24202,-0.06474 0.0657,-7.07e-4 0.32235,-0.05264 0.57033,-0.114753 0.7605,-0.190674 1.15015,-0.22527 2.03222,-0.180425 0.44199,0.02248 0.83863,0.05414 0.88141,0.07053 0.0427,0.01632 0.11184,0.0095 0.15348,-0.01489 0.0648,-0.03827 0.0615,-0.05918 -0.0221,-0.144814 l -0.0978,-0.100195 0.38503,0.03527 c 0.66965,0.06128 1.82493,0.0476 1.85001,-0.02196 0.0126,-0.03504 -0.0474,-0.08352 -0.14054,-0.113608 -0.20747,-0.06707 -0.17568,-0.161778 0.0543,-0.161778 0.17027,0 0.17676,-0.006 0.17825,-0.185657 9.4e-4,-0.135325 0.0343,-0.210232 0.1224,-0.276371 0.16565,-0.124339 0.21306,-0.11409 0.21306,0.04609 0,0.0757 0.0463,0.175583 0.10369,0.223744 0.057,0.04782 0.1037,0.113112 0.1037,0.145039 0,0.03188 0.07,0.139686 0.15554,0.239482 0.0856,0.09977 0.15555,0.211449 0.15555,0.248128 0,0.08785 0.15599,0.139107 0.78428,0.257806 1.12727,0.212961 1.57833,0.151777 2.48213,-0.336676 0.15197,-0.08214 0.60114,-0.201945 0.93326,-0.248963 0.18536,-0.02617 0.92031,-0.05692 1.63322,-0.06835 1.92011,-0.03053 2.11597,-0.0391 2.22945,-0.09883 0.057,-0.03 0.20869,-0.06903 0.33702,-0.0868 0.12832,-0.01775 0.3692,-0.0776 0.53528,-0.132933 0.29326,-0.09777 0.30751,-0.0982 0.49256,-0.01519 0.10482,0.04715 0.3539,0.09502 0.55351,0.10657 0.22666,0.01316 0.43658,0.05745 0.55906,0.117903 0.14847,0.07331 0.24605,0.089 0.40155,0.06474 0.11298,-0.01775 0.21696,-0.04955 0.23105,-0.07061 0.0141,-0.02113 0.10519,-0.05226 0.20245,-0.06918 0.0973,-0.01692 0.20737,-0.06489 0.24468,-0.106548 0.0567,-0.06324 0.14534,-0.07076 0.53666,-0.04504 0.33856,0.02218 0.5048,0.01338 0.59842,-0.03158 0.16368,-0.07855 0.71567,-0.07279 0.93079,0.0095 0.12791,0.0491 0.20674,0.05068 0.36314,0.0075 0.13267,-0.03684 0.24315,-0.04015 0.32897,-0.0095 0.073,0.02564 0.46433,0.03429 0.89932,0.01985 0.42356,-0.01414 0.80511,-0.02647 0.84788,-0.02767 0.17765,-0.0045 0.71099,0.104849 0.85549,0.175297 0.0856,0.04173 0.23756,0.07602 0.33778,0.07612 0.10023,1.13e-4 0.2693,0.04354 0.37571,0.0964 0.10641,0.05286 0.25189,0.09608 0.32328,0.09608 0.24652,0 0.12868,0.08594 -0.22016,0.160581 -0.56059,0.11994 -0.96965,0.285567 -0.98773,0.399928 -0.0145,0.09133 0.0102,0.0984 0.33701,0.09555 0.19392,-7e-4 0.51344,0.01572 0.71004,0.0385 0.46696,0.05429 0.41308,0.08996 -0.6128,0.406605 l -0.79248,0.24458 -10.85669,-6.99e-4 -10.85669,-7.07e-4 -0.67402,-0.208367 z m 3.81082,-2.961407 c 0,-0.02639 0.022,-0.04805 0.0488,-0.04805 0.0268,0 0.0632,0.02166 0.0808,0.04805 0.0177,0.02639 -0.005,0.04805 -0.0488,0.04805 -0.0444,0 -0.0809,-0.02165 -0.0809,-0.04805 z m -0.32443,-0.108962 c -0.18352,-0.13167 -0.45796,-0.488926 -0.44824,-0.583466 0.006,-0.05527 -0.003,-0.133098 -0.0194,-0.172756 -0.0164,-0.0397 -0.0398,-0.18641 -0.0521,-0.32611 -0.0126,-0.1434 -0.0558,-0.279454 -0.0991,-0.312427 -0.11862,-0.09027 -0.20104,-0.42902 -0.16452,-0.676051 0.0181,-0.122166 0.007,-0.314359 -0.0244,-0.427095 -0.0315,-0.112729 -0.0685,-0.49382 -0.0823,-0.846874 -0.0274,-0.703308 -0.0692,-0.817661 -0.35051,-0.960873 -0.3018,-0.153619 -0.38775,-0.244031 -0.60908,-0.640687 -0.12281,-0.220082 -0.28161,-0.472384 -0.35291,-0.560668 -0.1103,-0.136581 -0.12095,-0.178238 -0.0713,-0.279131 0.0321,-0.06519 0.0445,-0.169416 0.0278,-0.231527 -0.0338,-0.124805 0.0321,-0.265438 0.22464,-0.479978 0.11212,-0.124888 0.12482,-0.177914 0.1065,-0.4446 -0.015,-0.217397 -0.003,-0.302816 0.0427,-0.302816 0.0349,0 0.11769,-0.06241 0.18392,-0.138769 0.0662,-0.07634 0.17292,-0.153476 0.23708,-0.171462 0.0998,-0.02797 0.11665,-0.01504 0.11665,0.09069 0,0.07761 0.0289,0.123392 0.0778,0.123392 0.0437,0 0.0778,-0.04286 0.0778,-0.09766 0,-0.122744 0.1312,-0.173192 0.23758,-0.09133 0.0444,0.03421 0.21134,0.06564 0.37099,0.07008 0.22035,0.006 0.32253,0.03444 0.42414,0.117669 0.0736,0.0603 0.22142,0.182569 0.32843,0.271702 0.13181,0.109766 0.24602,0.162055 0.35398,0.162055 0.207,0 0.43554,0.20939 0.5106,0.467827 0.0612,0.211022 0.23332,0.349286 0.43458,0.349286 0.0679,0 0.16389,0.04151 0.21336,0.09218 0.0541,0.05542 0.19677,0.105713 0.35801,0.126203 0.24507,0.03113 0.38456,0.100405 0.66987,0.332638 0.13523,0.11006 0.11243,0.216052 -0.11687,0.5432 -0.18106,0.258325 -0.21019,0.338608 -0.22781,0.62795 -0.0252,0.41247 -0.18488,0.777253 -0.34041,0.777253 -0.11506,0 -0.48633,0.198464 -0.55003,0.293997 -0.0211,0.03166 -0.0353,0.131812 -0.0317,0.22254 0.005,0.118775 -0.051,0.24552 -0.1993,0.45248 -0.11329,0.158123 -0.20599,0.320066 -0.20599,0.359873 0,0.05324 -0.0473,0.06858 -0.17869,0.05812 -0.23407,-0.01865 -0.26107,0.01496 -0.15889,0.198141 0.10076,0.180613 0.0515,0.263153 -0.18291,0.306621 -0.10205,0.01887 -0.17228,0.0703 -0.20495,0.149994 -0.0274,0.06662 -0.0853,0.121196 -0.12877,0.121196 -0.0924,0 -0.10065,0.06512 -0.025,0.195982 0.0404,0.07001 0.0315,0.13743 -0.0353,0.268093 -0.0877,0.171364 -0.0872,0.176184 0.0281,0.262776 0.1057,0.0794 0.11163,0.104744 0.059,0.252626 -0.0322,0.09037 -0.0443,0.21687 -0.027,0.280965 0.0413,0.152642 -0.0767,0.254242 -0.19584,0.168695 z m 1.77617,-3.78434 c 0,-0.02639 -0.0233,-0.04805 -0.0519,-0.04805 -0.0285,0 -0.0519,0.02166 -0.0519,0.04805 0,0.02639 0.0233,0.04805 0.0519,0.04805 0.0285,0 0.0519,-0.02166 0.0519,-0.04805 z m 22.13903,2.939707 c 0,-0.0394 0.22813,-0.153492 0.30056,-0.15031 0.0523,0.0023 -0.1991,0.190659 -0.25446,0.190659 -0.0253,0 -0.0461,-0.0182 -0.0461,-0.04038 z m -1.94296,-0.390251 c -0.0186,-0.02797 0.004,-0.06406 0.0495,-0.08034 0.11406,-0.0406 0.14954,0.0045 0.0588,0.07391 -0.0511,0.0394 -0.085,0.04143 -0.10823,0.006 z m 3.32747,-0.409027 c 0.085,-0.108277 0.17093,-0.157356 0.17093,-0.09767 0,0.03256 -0.20024,0.216292 -0.23574,0.216292 -0.0156,0 0.0136,-0.05346 0.0648,-0.118647 z m -3.44159,-0.124632 c -0.0607,-0.01963 -0.10856,-0.115827 -0.1445,-0.289656 -0.0508,-0.245686 -0.0617,-0.259296 -0.19638,-0.244685 -0.10381,0.0112 -0.14259,-0.0053 -0.14259,-0.06256 0,-0.04414 -0.081,-0.10936 -0.18617,-0.150107 -0.1554,-0.06015 -0.23469,-0.06264 -0.4796,-0.01481 -0.16138,0.03158 -0.37057,0.09755 -0.46488,0.146664 -0.0943,0.0491 -0.24087,0.08932 -0.32572,0.08932 -0.0848,0 -0.23928,0.03293 -0.34322,0.07316 -0.20431,0.07918 -0.33748,0.03218 -0.23608,-0.0832 0.03,-0.03421 0.065,-0.3199 0.0778,-0.634981 0.0222,-0.549689 0.0287,-0.576946 0.16002,-0.674013 0.0753,-0.05564 0.27648,-0.139588 0.44716,-0.186553 0.20851,-0.0573 0.34458,-0.127971 0.41484,-0.215187 0.0575,-0.07136 0.12576,-0.148378 0.15168,-0.171071 0.0259,-0.02271 0.12926,-0.113443 0.22967,-0.201682 0.17056,-0.149889 0.19332,-0.156657 0.34638,-0.103052 0.13636,0.04775 0.17128,0.04519 0.20836,-0.01466 0.11889,-0.19196 0.20117,-0.24855 0.39672,-0.272875 0.24316,-0.03023 0.31152,0.02752 0.2201,0.185854 -0.0558,0.09671 -0.0397,0.124752 0.16611,0.290372 0.13228,0.106398 0.2713,0.177861 0.33133,0.170312 0.11973,-0.01504 0.27927,-0.286628 0.28295,-0.48164 0.003,-0.145814 0.10618,-0.186659 0.10618,-0.04188 0,0.04963 0.0321,0.114865 0.0711,0.144965 0.0392,0.03008 0.083,0.153054 0.0977,0.273228 0.0146,0.120188 0.0722,0.265851 0.12783,0.323682 0.0557,0.05782 0.17478,0.238948 0.26462,0.402469 0.17496,0.318464 0.17884,0.466181 0.02,0.760132 -0.11575,0.214217 -0.8346,0.906945 -0.99048,0.954475 -0.17031,0.05181 -0.49192,0.06662 -0.61095,0.02797 z m -12.92294,-0.493219 c -0.0308,-0.02842 -0.0558,-0.100518 -0.0558,-0.160071 0,-0.126594 -0.0855,-0.323712 -0.22005,-0.507641 -0.0525,-0.07181 -0.10993,-0.244805 -0.12759,-0.384536 -0.0177,-0.139722 -0.10017,-0.394627 -0.18338,-0.566465 -0.16391,-0.33851 -0.16584,-0.543809 -0.007,-0.827158 0.14446,-0.258978 -0.003,-0.854174 -0.29562,-1.197265 -0.16629,-0.194637 -0.1709,-0.24094 -0.0649,-0.651057 0.0362,-0.139843 -0.14727,-0.304583 -0.33908,-0.304583 -0.10235,0 -0.17641,-0.0379 -0.23452,-0.120158 -0.0982,-0.138919 -0.22641,-0.148709 -0.52325,-0.03993 -0.11407,0.04166 -0.32405,0.07993 -0.46663,0.08468 -0.14258,0.0053 -0.31937,0.02511 -0.39287,0.04519 -0.10918,0.02978 -0.17562,0.0045 -0.36294,-0.139257 -0.12611,-0.09662 -0.25262,-0.223819 -0.28114,-0.282597 -0.0285,-0.0588 -0.12768,-0.195096 -0.22035,-0.302952 -0.18127,-0.210946 -0.2046,-0.347827 -0.10948,-0.642154 0.0418,-0.12946 0.0436,-0.239106 0.006,-0.376596 -0.0498,-0.181989 -0.0398,-0.214728 0.16132,-0.529816 0.12237,-0.191644 0.29236,-0.383934 0.39591,-0.447833 0.11748,-0.07256 0.20518,-0.178688 0.24871,-0.301162 0.0369,-0.103999 0.15283,-0.261821 0.25743,-0.350647 0.15365,-0.130489 0.21905,-0.156168 0.34037,-0.133662 0.0961,0.01782 0.23671,-0.0084 0.39067,-0.07158 0.15106,-0.06256 0.40246,-0.109353 0.67608,-0.126113 l 0.43559,-0.02662 -0.0307,0.175093 c -0.0338,0.192607 0.0498,0.274657 0.3442,0.338157 0.0812,0.01752 0.21227,0.07613 0.2911,0.130099 0.1982,0.135843 0.48371,0.145716 0.51147,0.01775 0.0331,-0.152582 0.092,-0.157672 0.46881,-0.04053 0.28748,0.08943 0.41908,0.104736 0.69457,0.08088 0.18693,-0.01624 0.36516,-0.04391 0.39605,-0.06158 0.0309,-0.01774 0.0715,-0.168244 0.0902,-0.334548 0.0373,-0.330878 -0.0126,-0.412176 -0.21071,-0.343052 -0.0594,0.02068 -0.16268,0.0188 -0.22947,-0.0045 -0.0668,-0.02309 -0.14395,-0.02918 -0.17146,-0.01338 -0.096,0.05497 -0.28605,-0.02714 -0.34631,-0.149739 -0.0865,-0.176026 -0.0763,-0.215209 0.0559,-0.214931 0.0641,1.13e-4 0.22759,-0.03662 0.36317,-0.08173 0.20455,-0.06797 0.27579,-0.07211 0.41847,-0.02429 0.18599,0.06241 0.44398,0.07504 0.57512,0.02835 0.15192,-0.05406 0.0882,-0.209126 -0.15002,-0.364753 -0.18624,-0.1217 -0.22634,-0.172628 -0.20319,-0.258129 0.0159,-0.05858 0.003,-0.121768 -0.0304,-0.140415 -0.0822,-0.04715 -0.36402,0.06857 -0.36402,0.149415 0,0.08868 -0.085,0.08458 -0.12244,-0.0053 -0.0172,-0.04166 -0.0947,-0.07211 -0.18278,-0.07211 -0.11939,0 -0.17801,0.0376 -0.26716,0.171319 -0.0628,0.09418 -0.12055,0.240226 -0.1283,0.324434 -0.0108,0.117173 -0.0367,0.150634 -0.11037,0.142491 -0.053,-0.006 -0.16236,0.01376 -0.24313,0.04354 -0.13409,0.04948 -0.14381,0.0691 -0.11201,0.226271 l 0.0349,0.172101 -0.10879,-0.09122 c -0.0598,-0.0503 -0.13637,-0.176598 -0.17008,-0.280883 -0.0444,-0.137467 -0.11804,-0.222849 -0.26767,-0.310411 -0.11353,-0.06639 -0.25346,-0.161439 -0.31098,-0.211111 -0.15123,-0.13061 -0.29243,-0.117564 -0.29243,0.02707 0,0.06452 0.0232,0.130617 0.0515,0.146866 0.0283,0.01624 0.0758,0.07158 0.10553,0.123008 0.0883,0.152927 -0.0308,0.110315 -0.23414,-0.08383 -0.17683,-0.168801 -0.1939,-0.174553 -0.35615,-0.120166 -0.0937,0.03151 -0.24459,0.05715 -0.33524,0.05715 -0.0907,0 -0.16483,0.02075 -0.16483,0.04617 0,0.02541 -0.0933,0.131865 -0.20739,0.236564 -0.11407,0.104743 -0.20739,0.221134 -0.20739,0.258768 0,0.174485 -0.4296,0.322239 -0.63938,0.219902 -0.15155,-0.07392 -0.19389,-0.142566 -0.15652,-0.253671 0.0172,-0.05121 0.0349,-0.159326 0.0391,-0.240323 l 0.007,-0.147288 0.3601,-0.01444 c 0.20721,-0.0084 0.37686,-0.03887 0.39961,-0.07211 0.0679,-0.09892 0.0449,-0.33463 -0.0413,-0.422899 -0.0765,-0.07834 -0.07,-0.09037 0.0907,-0.166658 0.0952,-0.04527 0.30758,-0.176567 0.47186,-0.291853 0.16429,-0.115308 0.32577,-0.209637 0.35885,-0.209637 0.0331,0 0.097,-0.03023 0.14201,-0.06722 0.0612,-0.05038 0.14693,-0.05775 0.34109,-0.02985 0.14258,0.0206 0.31481,0.01774 0.38274,-0.006 0.068,-0.02384 0.1659,-0.03105 0.21771,-0.01572 0.10617,0.03128 0.30688,-0.126745 0.30688,-0.241557 0,-0.04572 0.0496,-0.07211 0.13567,-0.07211 0.11013,0 0.13056,-0.01805 0.10856,-0.09608 -0.0321,-0.113895 0.0516,-0.17759 0.1336,-0.101563 0.0895,0.08298 0.17761,0.06346 0.20855,-0.04624 0.017,-0.0603 0.0655,-0.09619 0.1227,-0.0906 0.17844,0.01729 0.22419,-0.0023 0.22419,-0.09481 0,-0.117143 -0.18549,-0.176049 -0.29326,-0.09313 -0.0676,0.05203 -0.0928,0.04722 -0.1533,-0.02955 -0.0398,-0.05053 -0.059,-0.13079 -0.0427,-0.178432 0.0164,-0.04775 0.007,-0.08669 -0.0217,-0.08669 -0.0869,0 -0.3704,0.244617 -0.3704,0.319532 0,0.03887 -0.0233,0.0573 -0.0519,0.04098 -0.0938,-0.05376 -0.0542,-0.1869 0.0865,-0.290921 0.0917,-0.06775 0.12721,-0.129182 0.10532,-0.18205 -0.0566,-0.13652 -0.24271,-0.08827 -0.48039,0.124497 -0.22154,0.198314 -0.29229,0.37916 -0.17468,0.44654 0.037,0.0212 0.0302,0.05782 -0.0206,0.110992 -0.0417,0.04376 -0.0842,0.122594 -0.0946,0.17547 -0.023,0.117481 -0.22535,0.155581 -0.26881,0.05068 -0.019,-0.04572 -0.003,-0.07467 0.0422,-0.07467 0.0402,0 0.0882,-0.02263 0.10653,-0.05015 0.0428,-0.06429 -0.0748,-0.198314 -0.14086,-0.160492 -0.0275,0.01572 -0.12399,0.03466 -0.21449,0.04211 -0.0905,0.0075 -0.21382,0.0285 -0.27405,0.04692 -0.0864,0.02624 -0.11635,0.0095 -0.14188,-0.07877 -0.0566,-0.195757 -0.0392,-0.223488 0.22332,-0.355895 0.14139,-0.07136 0.35211,-0.23421 0.46827,-0.36191 0.1797,-0.197569 0.26315,-0.246475 0.55952,-0.327961 0.2816,-0.07739 0.38806,-0.08636 0.55573,-0.04654 0.11406,0.02714 0.3357,0.0775 0.49255,0.112172 0.33067,0.07309 0.57032,0.156236 0.57032,0.197998 0,0.01609 -0.11017,0.02203 -0.24483,0.01316 -0.2877,-0.0188 -0.34401,0.06406 -0.16475,0.242481 0.0886,0.08816 0.14598,0.105263 0.2738,0.08182 0.0889,-0.01632 0.19671,-0.07106 0.23947,-0.121609 0.0427,-0.05053 0.17111,-0.106616 0.28517,-0.124617 0.11407,-0.01797 0.26354,-0.06542 0.33217,-0.105488 0.0713,-0.04166 0.29243,-0.0814 0.51617,-0.09301 0.21528,-0.0112 0.42152,-0.04354 0.45834,-0.07181 0.0477,-0.03677 0.13329,-0.03602 0.29746,0.0023 0.12679,0.02963 0.25519,0.05384 0.28534,0.05384 0.0853,0 0.0644,-0.134415 -0.0283,-0.18253 -0.0913,-0.0473 -0.0819,-0.207127 0.0138,-0.236692 0.0882,-0.02715 0.38268,0.392874 0.36741,0.524048 -0.0195,0.168214 0.17422,0.147799 0.26508,-0.0279 0.0669,-0.129542 0.0634,-0.145649 -0.0512,-0.227955 -0.10476,-0.07528 -0.11157,-0.09565 -0.0454,-0.136242 0.10181,-0.06241 0.34363,-0.06203 0.47005,5.27e-4 0.12703,0.06301 0.13785,-0.02541 0.0111,-0.09122 -0.19235,-0.09977 0.30448,-0.3403 0.71131,-0.34433 0.0998,-0.0015 0.22389,-0.03158 0.27576,-0.06813 0.0688,-0.04835 0.13878,-0.05444 0.2589,-0.02248 0.0905,0.02406 0.24641,0.04414 0.34641,0.04444 0.1,3.46e-4 0.21681,0.02248 0.25958,0.04903 0.0678,0.04203 0.0662,0.05459 -0.013,0.09777 -0.15004,0.08204 -0.10285,0.143724 0.10369,0.135648 0.10694,-0.0045 0.5094,0.0095 0.89438,0.03008 0.56109,0.03023 0.72464,0.05542 0.82441,0.127196 0.10457,0.07519 0.17918,0.08457 0.46663,0.0588 0.18819,-0.01692 0.36433,-0.04963 0.39142,-0.07264 0.0754,-0.06429 0.43985,-0.05015 0.77195,0.03008 0.16422,0.0397 0.41485,0.07211 0.55695,0.07211 0.14211,0 0.34446,0.03338 0.44966,0.07414 0.13941,0.05406 0.38149,0.07452 0.89272,0.0757 0.50314,7.07e-4 0.82375,0.0279 1.13415,0.09429 0.45221,0.09682 0.69115,0.184111 0.51187,0.18696 -0.13477,0.0023 -0.16783,0.134573 -0.061,0.244069 0.0892,0.09134 0.0884,0.09894 -0.0182,0.204246 -0.0765,0.07549 -0.17691,0.111834 -0.32418,0.117286 -0.39394,0.01459 -0.46396,0.175635 -0.17827,0.410109 0.1489,0.122202 0.18147,0.182575 0.18147,0.336359 0,0.103051 -0.0216,0.180208 -0.0479,0.171402 -0.0792,-0.02647 -0.52245,-0.426643 -0.52245,-0.471616 0,-0.02286 0.0276,-0.152303 0.0611,-0.28741 0.0529,-0.212676 0.0498,-0.256174 -0.0233,-0.32399 -0.0721,-0.06685 -0.097,-0.06873 -0.17003,-0.01256 -0.0489,0.03767 -0.17233,0.05993 -0.28826,0.05226 -0.18569,-0.01248 -0.20518,-0.0023 -0.232,0.122323 l -0.0293,0.135896 -0.45247,-0.01647 c -0.48959,-0.01775 -0.51717,-0.006 -0.6158,0.256768 -0.0297,0.0793 -0.07,0.180583 -0.0895,0.225052 -0.0421,0.09608 0.20003,0.231564 0.41368,0.231564 0.20282,0 0.4407,0.131302 0.4407,0.243256 0,0.05309 0.0352,0.14631 0.0781,0.207044 0.0629,0.08901 0.0681,0.159362 0.0265,0.362527 -0.064,0.313005 -0.0826,0.340758 -0.22689,0.340758 -0.14812,0 -0.24062,0.08573 -0.24062,0.223067 0,0.05925 -0.0233,0.121083 -0.0519,0.13743 -0.0906,0.05196 -0.0567,0.124279 0.12962,0.277304 0.17806,0.146128 0.23169,0.289063 0.13027,0.347165 -0.0281,0.01609 -0.089,-0.05835 -0.13524,-0.165394 -0.0463,-0.107098 -0.11384,-0.194735 -0.15024,-0.194735 -0.0364,0 -0.10439,-0.05406 -0.1511,-0.12015 -0.0538,-0.07612 -0.13334,-0.120158 -0.21706,-0.120158 -0.0727,0 -0.16613,-0.03158 -0.2077,-0.07001 -0.0974,-0.09037 -0.1839,-0.05707 -0.33096,0.127339 l -0.11863,0.148747 0.1237,0.08816 c 0.0681,0.04842 0.17702,0.08869 0.24218,0.08922 0.10383,0.0015 0.11135,0.01338 0.0609,0.100946 -0.0317,0.05497 -0.0439,0.133377 -0.0268,0.174327 0.0169,0.04083 0.005,0.103886 -0.0278,0.139866 -0.0672,0.07504 0.0126,0.11888 0.18421,0.10115 0.074,-0.0075 0.13162,0.0476 0.21261,0.20396 0.10783,0.208111 0.10852,0.221338 0.0234,0.445397 -0.0937,0.24667 -0.28408,0.469662 -0.40097,0.469662 -0.0392,0 -0.14589,0.03579 -0.23703,0.0795 -0.0912,0.04376 -0.2652,0.07592 -0.38678,0.07166 -0.19783,-0.0075 -0.23188,0.0084 -0.32407,0.148859 -0.0567,0.08616 -0.1031,0.172131 -0.10319,0.191065 -1.1e-4,0.01902 0.10255,0.141708 0.22815,0.272799 0.12559,0.131091 0.24518,0.309449 0.26578,0.396357 0.0332,0.140196 0.0179,0.173131 -0.13566,0.291981 l -0.17309,0.133893 -0.20934,-0.186651 c -0.26975,-0.240482 -0.40761,-0.307283 -0.48539,-0.235173 -0.0564,0.05226 -0.10513,-0.02324 -0.23475,-0.363061 -0.0261,-0.06827 -0.0667,-0.0812 -0.18212,-0.05767 -0.13191,0.02692 -0.15188,0.01519 -0.17787,-0.104315 -0.0161,-0.07399 -0.0951,-0.203479 -0.1755,-0.287703 -0.0804,-0.08425 -0.16956,-0.188207 -0.19808,-0.231082 -0.0412,-0.06188 -0.0982,-0.07106 -0.27707,-0.04421 -0.12387,0.01842 -0.2522,0.06474 -0.28516,0.102728 -0.033,0.03805 -0.21159,0.220992 -0.39695,0.406695 -0.32562,0.326225 -0.33713,0.346362 -0.34062,0.595972 -0.004,0.259685 -0.10418,0.515476 -0.19196,0.488339 -0.0671,-0.02068 -0.49593,-0.93988 -0.53238,-1.141193 -0.0565,-0.312073 -0.11239,-0.389875 -0.25608,-0.356437 -0.0978,0.02278 -0.13846,0.0084 -0.16512,-0.05903 -0.0195,-0.0491 -0.12686,-0.162928 -0.23865,-0.253024 -0.19445,-0.156709 -0.22199,-0.164055 -0.63524,-0.169552 -0.32974,-0.0045 -0.45534,-0.02534 -0.53067,-0.08858 -0.0556,-0.04677 -0.18168,-0.08277 -0.28905,-0.08277 -0.15342,0 -0.23119,-0.0379 -0.40092,-0.195223 -0.14251,-0.132114 -0.24726,-0.190374 -0.32405,-0.180245 -0.19277,0.02542 -0.15938,0.187433 0.10467,0.507641 0.19328,0.234407 0.27772,0.300418 0.38433,0.300418 0.0752,0 0.16393,-0.03053 0.1973,-0.06782 0.0512,-0.05722 0.0925,-0.04857 0.26558,0.05662 0.11271,0.06843 0.20492,0.151739 0.20492,0.185192 0,0.140182 -0.23567,0.413936 -0.45953,0.533786 -0.13222,0.07076 -0.25528,0.148701 -0.27345,0.173146 -0.0459,0.06173 -0.78813,0.362309 -0.83341,0.337511 -0.0203,-0.01105 -0.0523,-0.100518 -0.0711,-0.198765 -0.0364,-0.189598 -0.17111,-0.427779 -0.36822,-0.650891 -0.066,-0.07474 -0.12003,-0.170019 -0.12003,-0.211758 0,-0.105473 -0.4704,-0.733844 -0.54932,-0.733844 -0.0354,0 -0.10247,-0.01361 -0.14903,-0.03008 -0.12469,-0.04436 -0.0581,0.168537 0.18687,0.59682 0.11022,0.192734 0.20039,0.389897 0.20039,0.438126 0,0.04827 0.0435,0.139294 0.0966,0.202336 0.0531,0.06301 0.1127,0.162409 0.13243,0.220804 0.0197,0.05835 0.12801,0.17383 0.24058,0.256482 0.11259,0.08268 0.21842,0.200915 0.23516,0.262792 0.0625,0.230615 0.16895,0.26813 0.53601,0.188741 0.18133,-0.03918 0.34135,-0.06053 0.35561,-0.04722 0.0143,0.01331 -0.0504,0.186358 -0.14372,0.38474 -0.11725,0.249316 -0.24365,0.425102 -0.40932,0.569262 -0.31276,0.272175 -0.60149,0.602482 -0.70851,0.810556 -0.074,0.14394 -0.0773,0.208351 -0.024,0.47576 0.11833,0.594647 0.12312,0.845715 0.0177,0.92957 -0.0523,0.04166 -0.20581,0.165056 -0.3411,0.274296 l -0.24599,0.198644 0.0323,0.254092 c 0.0314,0.247903 0.0282,0.255986 -0.12991,0.331818 -0.1104,0.05286 -0.16213,0.113038 -0.16213,0.188411 0,0.140122 -0.26249,0.510243 -0.49753,0.701564 -0.11958,0.09734 -0.23612,0.146971 -0.3468,0.147731 -0.0917,5.26e-4 -0.2524,0.01963 -0.35713,0.04226 -0.12439,0.02684 -0.20979,0.02308 -0.24628,-0.01075 z m 1.08976,-1.984752 c 0.0601,-0.06715 0.0564,-0.07527 -0.0282,-0.06008 -0.0538,0.0095 -0.10746,0.04459 -0.11933,0.07761 -0.0308,0.08573 0.0654,0.07429 0.14756,-0.01752 z m 0.77275,-0.540861 c 0,-0.07264 -0.0329,-0.173884 -0.0731,-0.224864 -0.0686,-0.087 -0.0754,-0.08161 -0.10958,0.08743 -0.0238,0.117715 -0.0144,0.204788 0.0271,0.251219 0.0865,0.09661 0.15555,0.04609 0.15555,-0.113826 z m -0.72198,-0.404086 c -0.007,-0.05745 -0.0775,-0.04632 -0.0998,0.01564 -0.0114,0.03166 0.007,0.04903 0.0415,0.03842 0.0342,-0.0106 0.0605,-0.03496 0.0583,-0.05406 z m 0.3072,-0.121369 c 0,-0.02113 -0.0215,-0.05903 -0.0478,-0.08415 -0.0263,-0.02511 -0.0682,-0.119895 -0.0931,-0.210623 -0.0615,-0.223826 -0.17017,-0.250655 -0.17017,-0.04203 0,0.180847 0.12238,0.375191 0.23625,0.375191 0.0411,0 0.0748,-0.01729 0.0748,-0.03842 z m 0.30306,-0.77796 c 0.0405,-0.107796 0.0374,-0.15886 -0.0125,-0.205148 -0.0366,-0.03391 -0.0771,-0.09134 -0.0902,-0.127632 -0.0346,-0.09629 -0.35587,-0.120707 -0.35587,-0.02707 0,0.05437 0.0341,0.06459 0.13638,0.04083 0.075,-0.01737 0.12676,-0.01248 0.115,0.01105 -0.0118,0.02354 -0.0528,0.100939 -0.0914,0.171951 -0.0899,0.165823 -0.0417,0.279454 0.11844,0.279454 0.0934,0 0.14017,-0.0373 0.18013,-0.143505 z m 0.24467,-0.710587 c -0.017,-0.01572 -0.0576,-0.0045 -0.0901,0.02609 -0.0443,0.04106 -0.0409,0.07539 0.0138,0.136904 0.0676,0.07601 0.0742,0.07399 0.0901,-0.02609 0.009,-0.05955 0.003,-0.121105 -0.0138,-0.13691 z m -2.47798,-1.029479 c -0.0321,-0.08911 -0.14367,-0.103894 -0.14367,-0.01902 0,0.04181 0.0369,0.07613 0.0821,0.07613 0.0452,0 0.0728,-0.02564 0.0616,-0.05715 z m 2.00802,-1.144555 c 0.0177,-0.02639 0.007,-0.04805 -0.0229,-0.04805 -0.0302,0 -0.0549,0.02166 -0.0549,0.04805 0,0.02647 0.0103,0.04805 0.0229,0.04805 0.0126,0 0.0373,-0.02158 0.0549,-0.04805 z m 2.06968,-1.615344 c 0.0901,-0.03211 0.10921,-0.241046 0.0323,-0.353737 -0.0298,-0.04361 -0.0292,-0.09164 0.002,-0.126083 0.0663,-0.07399 0.009,-0.201712 -0.10551,-0.235429 -0.0506,-0.01489 -0.13197,-0.06797 -0.18074,-0.117917 -0.0834,-0.08553 -0.0835,-0.09819 -6.3e-4,-0.215315 0.071,-0.100405 0.0756,-0.138339 0.0237,-0.196321 -0.0913,-0.101984 -0.25124,-0.0891 -0.4499,0.03632 -0.22211,0.140175 -0.22739,0.310735 -0.0166,0.533396 0.11177,0.118007 0.15555,0.213367 0.15555,0.338833 0,0.145408 0.0281,0.190531 0.1685,0.269845 0.17976,0.10157 0.24167,0.112669 0.37166,0.06639 z m -1.08457,-0.25922 c 0.0177,-0.02639 0.007,-0.04805 -0.0229,-0.04805 -0.0302,0 -0.0549,0.02166 -0.0549,0.04805 0,0.02647 0.0103,0.04805 0.0229,0.04805 0.0126,0 0.0373,-0.02158 0.0549,-0.04805 z m 3.51543,-0.455961 c 0.006,-0.02609 -0.0306,-0.05466 -0.0805,-0.06354 -0.0568,-0.01053 -0.0907,0.01354 -0.0907,0.06286 0,0.08363 0.15323,0.08426 0.17125,5.26e-4 z m -1.84005,-0.325096 c -0.0121,-0.115857 -0.0416,-0.156213 -0.11429,-0.156213 -0.054,0 -0.1218,0.03496 -0.15083,0.07761 -0.0797,0.117023 -0.007,0.234835 0.14683,0.234835 0.12055,0 0.13284,-0.01624 0.11829,-0.156213 z m 1.40573,-0.103902 c 0.0434,-0.04842 0.0446,-0.07707 0.005,-0.100307 -0.0601,-0.03444 -0.20765,0.05497 -0.20765,0.125918 0,0.06639 0.13655,0.04925 0.20357,-0.02564 z m -3.21771,-0.295131 c 0.0164,-0.07835 0.007,-0.08193 -0.0648,-0.02617 -0.0991,0.07623 -0.11143,0.165348 -0.019,0.136798 0.0356,-0.01098 0.0733,-0.06076 0.0838,-0.110616 z m 4.01737,0.0015 c -0.0161,-0.03872 -0.05,-0.07053 -0.0755,-0.07053 -0.0532,0 -0.0626,0.11309 -0.0132,0.158897 0.0553,0.05121 0.11983,-0.01293 0.0886,-0.08837 z m 0.91516,0.04963 c 0,-0.03955 -0.022,-0.07211 -0.0488,-0.07211 -0.0654,0 -0.1122,0.07504 -0.0708,0.113451 0.0584,0.05414 0.11957,0.03293 0.11957,-0.04143 z m 1.13796,-0.477993 c 0.0877,-0.08658 0.11031,-0.149852 0.0858,-0.240339 -0.046,-0.169928 -0.18223,-0.15613 -0.22073,0.02241 -0.0172,0.07982 -0.0516,0.156838 -0.0765,0.171072 -0.0707,0.04053 -0.0528,0.164386 0.0236,0.164386 0.0379,0 0.12231,-0.05286 0.18781,-0.117504 z m -6.73753,-0.677096 c 0,-0.07675 -0.13779,-0.151123 -0.19011,-0.102624 -0.0166,0.01527 -0.0163,0.06128 6.3e-4,0.102097 0.0397,0.09609 0.1895,0.09651 0.1895,5.27e-4 z m 1.60728,-0.04655 c 0,-0.0397 -0.022,-0.07211 -0.0488,-0.07211 -0.0654,0 -0.1122,0.07504 -0.0708,0.113466 0.0584,0.05414 0.11957,0.03294 0.11957,-0.04143 z m -1.9415,-0.268949 c 0.0534,-0.08013 -0.0668,-0.172041 -0.13827,-0.105736 -0.0598,0.05542 -0.0223,0.157995 0.0577,0.157995 0.0251,0 0.0614,-0.02354 0.0806,-0.05226 z m 1.44879,10.077473 c -0.0141,-0.04166 -0.0373,-0.109457 -0.0513,-0.150784 -0.0141,-0.04143 0.0115,-0.141663 0.057,-0.222947 0.0496,-0.08901 0.0706,-0.202936 0.0525,-0.286349 -0.0222,-0.103164 -0.003,-0.159807 0.0758,-0.22166 0.0582,-0.04572 0.18526,-0.15692 0.28249,-0.247099 0.26477,-0.245609 0.26762,-0.116008 0.0126,0.573819 -0.15951,0.431517 -0.24697,0.603648 -0.31241,0.614965 -0.05,0.0084 -0.10248,-0.01842 -0.11666,-0.05993 z m 10.90804,-1.926281 c -0.0821,-0.04143 -0.14797,-0.125249 -0.16677,-0.212315 -0.0208,-0.0965 -0.0843,-0.169469 -0.19298,-0.221547 -0.15581,-0.07467 -0.15852,-0.0812 -0.0715,-0.170305 0.11378,-0.116549 0.15932,-0.115811 0.5174,0.0085 0.33474,0.116098 0.64579,0.347646 0.64579,0.4807 0,0.105601 -0.0201,0.11027 -0.16516,0.03835 -0.0857,-0.04256 -0.13525,-0.03316 -0.25374,0.04805 -0.17154,0.117578 -0.14199,0.114871 -0.31306,0.02872 z m -3.31217,-0.07203 c -0.0665,-0.03978 -0.0646,-0.04677 0.013,-0.0473 0.0499,-3.61e-4 0.0907,0.0209 0.0907,0.0473 0,0.05858 -0.006,0.05858 -0.10369,0 z m -0.87541,-0.426667 c -0.16672,-0.165439 -0.45367,-0.664411 -0.40698,-0.707684 0.0595,-0.05512 0.34664,0.145318 0.3959,0.276311 0.0274,0.07279 0.098,0.17059 0.15702,0.217427 0.11319,0.08986 0.14399,0.277432 0.054,0.328976 -0.0293,0.01677 -0.11928,-0.03496 -0.19996,-0.11503 z m 1.05053,-0.136392 c -0.12929,-0.01504 -0.18006,-0.05624 -0.25212,-0.204434 -0.0912,-0.187523 -0.0752,-0.289988 0.0453,-0.289988 0.0362,0 0.20946,-0.120444 0.38495,-0.267672 0.17549,-0.147227 0.33698,-0.257422 0.35887,-0.24488 0.0718,0.04106 0.0298,0.584519 -0.057,0.740371 -0.0467,0.08362 -0.0847,0.185463 -0.0847,0.226428 0,0.07497 -0.0521,0.08024 -0.39521,0.04015 z m 0.84309,-0.08584 c 0.0164,-0.0397 0.0507,-0.07211 0.0761,-0.07211 0.0254,0 0.0463,0.03241 0.0463,0.07211 0,0.03955 -0.0343,0.07211 -0.0761,0.07211 -0.0464,0 -0.0645,-0.0282 -0.0463,-0.07211 z m 1.44457,-0.07211 c -0.0177,-0.02639 -0.007,-0.0482 0.0229,-0.0482 0.0302,0 0.0549,0.02166 0.0549,0.0482 0,0.02639 -0.0103,0.04805 -0.0229,0.04805 -0.0126,0 -0.0373,-0.02165 -0.0549,-0.04805 z m -3.53102,-0.653372 c -0.0878,-0.19469 -0.0795,-0.275815 0.0221,-0.2173 0.0836,0.0482 0.17542,0.390002 0.10479,0.390002 -0.027,0 -0.0841,-0.0777 -0.12687,-0.172702 z m -2.40557,-0.430953 c 0,-0.04128 0.0233,-0.06158 0.0519,-0.04527 0.0285,0.01632 0.0519,0.05008 0.0519,0.07497 0,0.02496 -0.0233,0.04527 -0.0519,0.04527 -0.0285,0 -0.0519,-0.03369 -0.0519,-0.07497 z m 4.9774,0.0023 c 0,-0.0397 0.0351,-0.07211 0.0778,-0.07211 0.0427,0 0.0778,0.03256 0.0778,0.07211 0,0.03955 -0.0351,0.07211 -0.0778,0.07211 -0.0427,0 -0.0778,-0.03256 -0.0778,-0.07211 z m -23.6167,-0.360489 c 0.0177,-0.02647 0.0424,-0.04805 0.0549,-0.04805 0.0126,0 0.0229,0.02166 0.0229,0.04805 0,0.02639 -0.0247,0.04805 -0.0549,0.04805 -0.0302,0 -0.0405,-0.02166 -0.0229,-0.04805 z m -0.12962,-0.240399 c -0.0713,-0.05173 -0.21128,-0.118203 -0.31109,-0.147701 -0.0998,-0.02955 -0.2315,-0.108548 -0.29266,-0.175666 -0.0907,-0.09946 -0.16247,-0.123804 -0.38886,-0.131549 -0.15271,-0.0053 -0.34766,-0.04624 -0.43321,-0.09112 -0.46299,-0.243031 -0.4655,-0.24543 -0.49426,-0.473361 -0.0152,-0.12043 -0.0878,-0.302614 -0.16125,-0.404838 -0.2507,-0.348767 -0.35553,-0.533599 -0.35553,-0.626958 0,-0.05136 -0.0336,-0.135272 -0.0746,-0.186583 -0.0637,-0.07961 -0.0902,-0.08447 -0.18147,-0.03278 -0.0971,0.05497 -0.10685,0.04925 -0.10685,-0.06241 0,-0.07113 -0.0578,-0.17253 -0.13723,-0.24079 -0.10387,-0.08922 -0.14348,-0.178177 -0.16292,-0.365783 -0.0277,-0.266814 0.0414,-0.43969 0.30412,-0.761425 0.0756,-0.09249 0.17463,-0.235767 0.22017,-0.318321 0.0455,-0.08257 0.13243,-0.162146 0.19308,-0.176839 0.14958,-0.03617 0.11409,-0.203155 -0.0422,-0.19805 -0.10413,0.0038 -0.11171,-0.01361 -0.0858,-0.192268 0.0156,-0.107804 0.0383,-0.242188 0.0506,-0.298651 0.0122,-0.05647 -0.0126,-0.129399 -0.0551,-0.162085 -0.0425,-0.03263 -0.0772,-0.129159 -0.0772,-0.214345 0,-0.191042 -0.10986,-0.284431 -0.41479,-0.352616 -0.31546,-0.07053 -0.96192,0.0053 -1.15151,0.134805 -0.0772,0.05279 -0.17796,0.09608 -0.22376,0.09608 -0.15937,0 -0.38448,-0.147333 -0.38676,-0.253129 -9.3e-4,-0.05241 0.30225,-0.169102 0.52545,-0.202103 0.10406,-0.01542 0.21962,-0.06196 0.25678,-0.103473 0.0568,-0.06346 0.0515,-0.08425 -0.0337,-0.130912 -0.089,-0.0488 -0.073,-0.05835 0.13207,-0.07951 0.18561,-0.0191 0.23644,-0.04421 0.24857,-0.12294 0.0167,-0.108224 0.3332,-0.226976 0.82344,-0.308974 0.28125,-0.04715 1.2024,0.0379 1.47616,0.136204 0.0755,0.02714 0.14824,0.0391 0.16165,0.02662 0.0134,-0.01248 0.16822,-0.04399 0.34403,-0.07031 0.39149,-0.0585 1.12011,0.01459 1.2523,0.125437 0.12957,0.108706 0.63748,0.07929 0.6616,-0.03835 0.0134,-0.06512 -0.0182,-0.08415 -0.13903,-0.08415 -0.18982,0 -0.26176,-0.08088 -0.0984,-0.110632 l 0.11742,-0.02143 -0.11307,-0.03489 c -0.0622,-0.0191 -0.12561,-0.06512 -0.14095,-0.10221 -0.0153,-0.03707 -0.0927,-0.06797 -0.17209,-0.0688 -0.13993,-7.07e-4 -0.14113,-0.0045 -0.0405,-0.07421 0.11846,-0.0831 0.3975,-0.05692 0.65271,0.06106 0.0861,0.03978 0.238,0.07452 0.33749,0.07718 0.15144,0.0045 0.1784,0.02075 0.16567,0.103262 -0.0122,0.07887 -0.0594,0.101571 -0.23556,0.113346 -0.25093,0.01692 -0.27714,0.06873 -0.0916,0.181342 0.1043,0.06331 0.20012,0.07166 0.50551,0.04384 0.42115,-0.03835 0.50645,-0.07982 0.50645,-0.245828 0,-0.104007 0.0319,-0.12791 0.14258,-0.106917 0.0214,0.0045 0.0315,0.04752 0.0226,0.0965 -0.009,0.04903 0.0214,0.12403 0.0674,0.166695 0.13981,0.12961 0.0692,0.211525 -0.31036,0.359948 -0.59436,0.232413 -0.68049,0.275401 -0.85516,0.426659 -0.10667,0.09238 -0.15558,0.171996 -0.13548,0.220555 0.0173,0.04181 0.0315,0.09492 0.0315,0.118075 0,0.02308 0.15078,0.111662 0.33508,0.19669 0.31647,0.146009 0.33473,0.163589 0.32854,0.31623 -0.004,0.0889 0.0182,0.184621 0.0485,0.212713 0.0914,0.08479 0.27024,-0.0045 0.34572,-0.171116 0.075,-0.166462 0.52184,-0.444344 0.5783,-0.35967 0.0353,0.05286 0.12662,0.01143 0.12662,-0.05745 0,-0.02609 -0.0409,-0.04098 -0.0907,-0.03324 -0.13851,0.02158 -0.13984,-0.162146 -0.003,-0.361384 0.0996,-0.144543 0.14973,-0.173523 0.30334,-0.175229 0.21322,-0.0023 0.30849,0.06722 0.30849,0.22539 0,0.142573 0.12709,0.18814 0.32828,0.117752 0.0866,-0.0303 0.16555,-0.0476 0.17546,-0.03835 0.01,0.0095 0.0246,0.09449 0.0327,0.189515 0.0103,0.121023 0.0572,0.203856 0.15672,0.276394 0.1845,0.134543 0.16478,0.286567 -0.0451,0.347413 -0.0856,0.02481 -0.33236,0.05993 -0.54846,0.07824 -0.28413,0.02384 -0.43861,0.06324 -0.55797,0.14207 -0.18636,0.123008 -0.17893,0.19626 0.0164,0.161657 0.11233,-0.01985 0.13086,-0.006 0.13086,0.09977 0,0.06752 0.0233,0.136302 0.0519,0.152649 0.10142,0.05812 0.0498,0.121504 -0.0753,0.09238 -0.19831,-0.04609 -0.63263,0.109684 -0.75699,0.271604 -0.0594,0.07728 -0.16139,0.152897 -0.22678,0.168108 -0.14723,0.03429 -0.58425,0.443826 -0.60836,0.57015 -0.01,0.05113 -0.14604,0.174906 -0.30285,0.275145 -0.42684,0.272822 -0.53499,0.405695 -0.49936,0.613558 0.0162,0.0946 0.007,0.204404 -0.0199,0.244068 -0.038,0.05557 -0.0497,0.04106 -0.0502,-0.06324 -9.3e-4,-0.241489 -0.08,-0.311531 -0.38986,-0.34742 -0.20323,-0.02354 -0.30916,-0.01504 -0.3669,0.0294 -0.0454,0.03496 -0.18122,0.05767 -0.30832,0.05158 -0.2218,-0.0106 -0.5969,0.120068 -0.67327,0.234609 -0.0185,0.02767 -0.0784,0.195464 -0.13304,0.372731 -0.10608,0.343887 -0.0783,0.558382 0.0964,0.743807 0.12222,0.129708 0.45333,0.111323 0.60994,-0.03391 0.07,-0.06497 0.12727,-0.14058 0.12727,-0.168221 0,-0.02767 0.0467,-0.0503 0.10369,-0.0503 0.12664,0 0.12664,0.02135 0,0.264363 -0.17291,0.331878 -0.13919,0.39001 0.21217,0.365685 0.18411,-0.01271 0.24968,0.07919 0.1935,0.271182 -0.053,0.181358 -0.0754,0.186742 -0.25012,0.05993 z m -1.81468,-3.361675 c 0,-0.02496 -0.0233,-0.05858 -0.0519,-0.07497 -0.0285,-0.01632 -0.0519,0.0045 -0.0519,0.04519 0,0.04128 0.0233,0.07497 0.0519,0.07497 0.0285,0 0.0519,-0.02038 0.0519,-0.04527 z m 3.36305,-0.09259 c 0.1037,-0.04948 0.2583,-0.10933 0.34357,-0.133174 0.20052,-0.05609 0.2438,-0.2096 0.0591,-0.2096 -0.0718,0 -0.16097,-0.03978 -0.19823,-0.08837 -0.0373,-0.04865 -0.13191,-0.103052 -0.21033,-0.121083 -0.0808,-0.01842 -0.14258,-0.06579 -0.14258,-0.108984 0,-0.04188 -0.0572,-0.139317 -0.1272,-0.216398 -0.12099,-0.133309 -0.12984,-0.135595 -0.18107,-0.04692 -0.0296,0.05136 -0.13571,0.118339 -0.23574,0.148942 -0.10002,0.0306 -0.18185,0.0756 -0.18185,0.09999 0,0.02436 -6.3e-4,0.06061 -0.002,0.08035 -9.4e-4,0.01985 0.07,0.04692 0.15811,0.06008 l 0.16017,0.02406 -0.1322,0.165552 c -0.14715,0.184275 -0.17601,0.387198 -0.0551,0.387198 0.0425,0 0.1348,-0.08468 0.20529,-0.188223 0.0705,-0.103473 0.14995,-0.200704 0.17659,-0.215961 0.0737,-0.04226 0.12436,0.211547 0.0572,0.286507 -0.0628,0.07023 -0.0265,0.165755 0.063,0.165755 0.0301,0 0.13953,-0.04045 0.24322,-0.08986 z m -1.10586,-1.015688 c 0.0391,0 0.0954,-0.0811 0.12509,-0.180267 0.0847,-0.282658 0.0743,-0.315427 -0.0877,-0.277725 -0.19454,0.04519 -0.26011,0.104007 -0.29892,0.267859 -0.0394,0.165951 0.007,0.255251 0.11369,0.217429 0.0422,-0.01496 0.10876,-0.02722 0.14786,-0.02722 z m 0.38705,0 c 0,-0.02647 -0.0103,-0.04805 -0.0229,-0.04805 -0.0126,0 -0.0373,0.02165 -0.0549,0.04805 -0.0177,0.02639 -0.007,0.04805 0.0229,0.04805 0.0302,0 0.0549,-0.02165 0.0549,-0.04805 z m 1.91139,-0.07452 c 0.0164,-0.07846 0.007,-0.08194 -0.0648,-0.02617 -0.0991,0.07623 -0.11144,0.165356 -0.019,0.136798 0.0356,-0.01098 0.0733,-0.06076 0.0838,-0.110616 z m 0.62916,-0.259092 c 0,-0.02496 -0.0233,-0.05858 -0.0519,-0.07497 -0.0285,-0.01624 -0.0519,0.0045 -0.0519,0.04527 0,0.04128 0.0233,0.07497 0.0519,0.07497 0.0285,0 0.0519,-0.02038 0.0519,-0.04519 z m -2.43685,-0.09914 c 0,-0.02639 -0.0233,-0.04805 -0.0519,-0.04805 -0.0285,0 -0.0519,0.02166 -0.0519,0.04805 0,0.02647 0.0233,0.04805 0.0519,0.04805 0.0285,0 0.0519,-0.02166 0.0519,-0.04805 z m -1.11472,-0.192296 c 0,-0.03526 -0.0292,-0.07309 -0.0648,-0.08415 -0.0385,-0.01188 -0.0648,0.02218 -0.0648,0.08415 0,0.06196 0.0263,0.09598 0.0648,0.08415 0.0356,-0.01098 0.0648,-0.04888 0.0648,-0.08415 z m 0.74157,-0.174132 c 0.008,-0.05654 -0.0184,-0.114165 -0.0611,-0.129317 -0.0809,-0.0288 -0.1497,0.02955 -0.20556,0.174433 -0.028,0.07256 -0.01,0.08468 0.10861,0.07211 0.0989,-0.01053 0.14706,-0.04624 0.15797,-0.11721 z m 0.3213,0.05399 c 0,-0.04 -0.0461,-0.07211 -0.10369,-0.07211 -0.0576,0 -0.10369,0.03196 -0.10369,0.07211 0,0.04 0.0461,0.07211 0.10369,0.07211 0.0576,0 0.10369,-0.03211 0.10369,-0.07211 z m -0.77772,-0.264354 c 0,-0.02639 -0.0336,-0.04805 -0.0747,-0.04805 -0.041,0 -0.0891,0.02165 -0.10676,0.04805 -0.0177,0.02647 0.016,0.04805 0.0747,0.04805 0.0587,0 0.10675,-0.02165 0.10675,-0.04805 z m -0.25582,-0.145898 c 0.11928,-0.05918 0.1318,-0.182372 0.0225,-0.221246 -0.0427,-0.01519 -0.0778,-0.06925 -0.0778,-0.120165 0,-0.05083 0.035,-0.104948 0.0778,-0.120167 0.12696,-0.04519 0.0963,-0.209734 -0.0389,-0.208983 -0.21931,7.07e-4 -0.34998,0.05692 -0.34998,0.149145 0,0.06452 0.0372,0.09048 0.12961,0.09048 0.0713,0 0.12963,0.02166 0.12963,0.04805 0,0.02639 -0.0249,0.04805 -0.0554,0.04805 -0.0306,0 -0.0415,0.04045 -0.0244,0.09049 0.0195,0.05715 0.002,0.100834 -0.0483,0.118655 -0.0437,0.01549 -0.0793,0.06136 -0.0793,0.101781 0,0.085 0.1659,0.09756 0.3145,0.02384 z m 0.87799,-0.02226 c 0,-0.0397 -0.0227,-0.07211 -0.0506,-0.07211 -0.0285,0 -0.0369,-0.06279 -0.0195,-0.144198 0.0246,-0.113789 0.013,-0.144189 -0.0548,-0.144189 -0.10881,0 -0.16697,0.133294 -0.0895,0.205103 0.0323,0.03 0.0587,0.09334 0.0587,0.140964 0,0.0476 0.0351,0.08658 0.0778,0.08658 0.0427,0 0.0778,-0.03256 0.0778,-0.07211 z m 0.21398,-0.05361 c 0.0509,-0.04271 0.16026,-0.08078 0.24307,-0.08468 0.18542,-0.0084 0.3472,-0.120767 0.27322,-0.189351 -0.0346,-0.03196 -0.0763,-0.02925 -0.12525,0.0084 -0.0404,0.03106 -0.11075,0.04316 -0.1564,0.02692 -0.0926,-0.03278 -0.38931,0.160115 -0.39389,0.256182 -0.004,0.08129 0.0483,0.07559 0.15925,-0.01752 z m 22.288,5.217786 c 0,-0.05452 0.0223,-0.08616 0.0496,-0.07053 0.0273,0.01564 0.0365,0.06015 0.0204,0.09893 -0.0411,0.09935 -0.0699,0.08763 -0.0699,-0.02842 z m -21.47474,-0.270312 c 0.0374,-0.01384 0.0822,-0.01211 0.0994,0.0045 0.0172,0.01602 -0.0134,0.0273 -0.0681,0.02519 -0.0604,-0.0023 -0.0727,-0.01361 -0.0313,-0.02902 z m 22.48313,-1.893745 c -0.0141,-0.02113 0.0449,-0.105368 0.13107,-0.18717 0.0862,-0.08173 0.15949,-0.196569 0.16287,-0.255137 0.005,-0.08416 0.0144,-0.07623 0.0457,0.03767 0.0786,0.286559 0.0627,0.333803 -0.13107,0.390047 -0.10059,0.02918 -0.19446,0.03579 -0.20858,0.01459 z m 0.0804,-1.005418 c 0,-0.06083 0.10595,-0.06083 0.2074,0 0.0606,0.03632 0.0463,0.04677 -0.0648,0.0473 -0.0785,3.61e-4 -0.14259,-0.0209 -0.14259,-0.0473 z m -20.16801,-0.564773 c 0.003,-0.11382 0.0932,-0.164372 0.2,-0.111406 0.15747,0.07813 0.1362,0.147461 -0.0453,0.147461 -0.0856,0 -0.15518,-0.01617 -0.15475,-0.03602 z m 5.39139,-0.421275 c 0,-0.04 0.0281,-0.114519 0.0625,-0.16556 0.0534,-0.07918 0.042,-0.110443 -0.0772,-0.212916 -0.0856,-0.07346 -0.12778,-0.149115 -0.10883,-0.194922 0.0429,-0.103796 0.17543,-0.09407 0.17543,0.01271 0,0.0482 0.0694,0.17253 0.15409,0.276372 0.21275,0.260655 0.20613,0.357053 -0.0245,0.357053 -0.12746,0 -0.18147,-0.02166 -0.18147,-0.07279 z m -0.51848,-0.108203 c 0,-0.09059 0.0921,-0.203569 0.16591,-0.203569 0.0864,0 0.0369,0.191125 -0.0622,0.240331 -0.0862,0.04271 -0.10369,0.03654 -0.10369,-0.03677 z m -3.25421,-0.9263 c -0.13634,-0.05076 -0.2196,-0.223954 -0.2196,-0.456766 0,-0.133279 0.0289,-0.177711 0.15479,-0.238075 0.18085,-0.08667 0.26627,-0.302832 0.14464,-0.365941 -0.0473,-0.02451 -0.0691,-0.08457 -0.0552,-0.15201 0.0136,-0.06587 -0.0186,-0.159033 -0.0785,-0.227676 -0.0828,-0.09492 -0.15016,-0.116549 -0.3667,-0.118053 -0.32396,-0.0023 -0.37398,-0.08774 -0.0731,-0.125023 0.12017,-0.01489 0.26067,-0.06241 0.31223,-0.105683 0.0568,-0.0476 0.22649,-0.08922 0.42962,-0.105481 1.70139,-0.135941 2.24813,-0.146678 2.52248,-0.04963 0.22261,0.07887 0.22729,0.08446 0.12427,0.151408 -0.0621,0.04038 -0.12045,0.147228 -0.13894,0.254475 -0.0253,0.146709 -0.0684,0.203209 -0.20841,0.273093 -0.099,0.04948 -0.16545,0.114804 -0.15135,0.148859 0.0161,0.03888 -0.021,0.06068 -0.10285,0.06068 -0.0919,0 -0.12798,0.02617 -0.12798,0.09291 0,0.09977 -0.053,0.122031 -0.41479,0.173823 -0.12832,0.01842 -0.29857,0.07623 -0.37832,0.12855 -0.0798,0.05226 -0.23803,0.106706 -0.35172,0.12085 -0.16129,0.02008 -0.26041,0.0776 -0.45124,0.261761 -0.13449,0.129843 -0.25232,0.256671 -0.26182,0.281853 -0.0212,0.05609 -0.15063,0.05436 -0.30752,-0.0045 z m -2.03517,-0.288191 c -0.0554,-0.09608 -0.0446,-0.12079 0.0989,-0.224902 0.0886,-0.06429 0.16122,-0.143776 0.16122,-0.176553 0,-0.112262 -0.2986,-0.269912 -0.51126,-0.269912 -0.17688,0 -0.21815,0.02166 -0.3069,0.161101 -0.0564,0.08858 -0.15201,0.173094 -0.21251,0.187756 -0.14507,0.03512 -0.13892,-6.99e-4 0.0196,-0.117105 0.12955,-0.0945 0.17563,-0.231752 0.0778,-0.231752 -0.0285,0 -0.0519,-0.03301 -0.0519,-0.07361 0,-0.09904 0.15509,-0.149048 0.20946,-0.06745 0.0355,0.05331 0.0614,0.05008 0.14246,-0.01797 0.12107,-0.101571 0.58939,-0.08373 0.7264,0.02775 0.0485,0.03948 0.14075,0.08658 0.20491,0.104736 0.077,0.02173 0.11666,0.07068 0.11666,0.144032 0,0.06136 0.0522,0.143881 0.11665,0.184432 0.0918,0.05775 0.10332,0.08616 0.054,0.133603 -0.0502,0.04827 -0.0784,0.04805 -0.14191,-0.0015 -0.13365,-0.102841 -0.24969,-0.02451 -0.21026,0.141957 0.0257,0.108676 0.0156,0.144234 -0.0412,0.144234 -0.0414,0 -0.14617,0.01316 -0.23265,0.02918 -0.12799,0.02376 -0.16884,0.0095 -0.21955,-0.07876 z m 4.47277,-0.0303 c -0.12911,-0.04827 -0.0598,-0.09988 0.17387,-0.129617 0.30517,-0.03888 0.40628,0.01624 0.17324,0.09428 -0.19663,0.06587 -0.25071,0.07136 -0.34711,0.03527 z m -5.58608,-0.06497 c 0.0179,-0.02692 0.0543,-0.03639 0.0808,-0.0212 0.0719,0.04121 0.0585,0.07001 -0.0325,0.07001 -0.0444,0 -0.0662,-0.02196 -0.0482,-0.04888 z m 23.20139,-0.09534 c -0.0632,-0.0379 -0.0566,-0.04677 0.0358,-0.04737 0.0625,-3.54e-4 0.12802,0.0209 0.14564,0.04737 0.0408,0.06128 -0.0793,0.06128 -0.18146,0 z M 32.059605,30.26859 c 0,-0.08616 0.14993,-0.275055 0.21837,-0.275055 0.0313,0 0.0183,0.03955 -0.0289,0.08795 -0.0472,0.04835 -0.0858,0.124053 -0.0858,0.168236 0,0.04421 -0.0233,0.08034 -0.0519,0.08034 -0.0285,0 -0.0519,-0.02767 -0.0519,-0.06143 z m -12.05462,-0.03474 c -0.0177,-0.02639 0.006,-0.04805 0.0519,-0.04805 0.0461,0 0.0695,0.02165 0.0519,0.04805 -0.0177,0.02647 -0.041,0.04805 -0.0519,0.04805 -0.0109,0 -0.0342,-0.02165 -0.0519,-0.04805 z m 1.63321,-0.504694 c -0.0355,-0.0397 -0.13168,-0.07211 -0.21374,-0.07211 -0.0821,0 -0.1492,-0.0212 -0.1492,-0.04715 0,-0.07391 0.22352,-0.107247 0.3708,-0.05534 0.0963,0.03399 0.15344,0.03 0.20537,-0.01436 0.0968,-0.08267 1.23118,-0.197547 1.30204,-0.131866 0.0356,0.03301 -0.0289,0.05993 -0.19986,0.08331 -0.1389,0.01902 -0.42699,0.0964 -0.64021,0.172041 -0.43787,0.155439 -0.58217,0.16944 -0.6752,0.06557 z m 7.3624,-0.01887 c 0,-0.05301 0.13452,-0.104736 0.17498,-0.06722 0.0163,0.01504 0.0172,0.04609 0.002,0.06873 -0.0364,0.05459 -0.177,0.05331 -0.177,-7e-4 z"
         style="fill:#000080;fill-opacity:1" />
      <path
         id="path3006"
         d="m 18.125872,23.021115 -3.828918,3.121631 -3.795332,0 0,24.836138 38.087665,0 0,-24.836138 -19.043833,0 -3.828919,-3.121631 -7.590663,0 z"
         style="fill:none;stroke:#000080;stroke-width:1.94090378;stroke-linecap:round;stroke-linejoin:round;stroke-miterlimit:4;stroke-opacity:1;stroke-dasharray:none"
         inkscape:connector-curvature="0" />
      <rect
         y="17"
         x="9.545454"
         height="40"
         width="40"
         id="rect3856"
         style="fill:none;stroke:none" />
    </g>
  </g>
</svg>
