<?xml version="1.0" encoding="UTF-8" standalone="no"?>
<!-- Created with Inkscape (http://www.inkscape.org/) -->

<svg
   xmlns:dc="http://purl.org/dc/elements/1.1/"
   xmlns:cc="http://creativecommons.org/ns#"
   xmlns:rdf="http://www.w3.org/1999/02/22-rdf-syntax-ns#"
   xmlns:svg="http://www.w3.org/2000/svg"
   xmlns="http://www.w3.org/2000/svg"
   xmlns:sodipodi="http://sodipodi.sourceforge.net/DTD/sodipodi-0.dtd"
   xmlns:inkscape="http://www.inkscape.org/namespaces/inkscape"
   width="64px"
   height="64px"
   id="svg3513"
   version="1.1"
   inkscape:version="0.48.4 r9939"
   sodipodi:docname="Lock.svg">
  <defs
     id="defs3515" />
  <sodipodi:namedview
     id="base"
     pagecolor="#ffffff"
     bordercolor="#666666"
     borderopacity="1.0"
     inkscape:pageopacity="0.0"
     inkscape:pageshadow="2"
     inkscape:zoom="7.3666667"
     inkscape:cx="-11.088894"
     inkscape:cy="26.053634"
     inkscape:current-layer="layer1"
     showgrid="true"
     inkscape:document-units="px"
     inkscape:grid-bbox="true"
     inkscape:window-width="1920"
     inkscape:window-height="996"
     inkscape:window-x="-2"
     inkscape:window-y="-3"
     inkscape:window-maximized="1">
    <inkscape:grid
       type="xygrid"
       id="grid2983" />
  </sodipodi:namedview>
  <metadata
     id="metadata3518">
    <rdf:RDF>
      <cc:Work
         rdf:about="">
        <dc:format>image/svg+xml</dc:format>
        <dc:type
           rdf:resource="http://purl.org/dc/dcmitype/StillImage" />
        <dc:title></dc:title>
      </cc:Work>
    </rdf:RDF>
  </metadata>
  <g
     id="layer1"
     inkscape:label="Layer 1"
     inkscape:groupmode="layer">
    <rect
       style="fill:none;fill-opacity:1;fill-rule:evenodd;stroke:none"
       id="rect3833"
       width="40"
       height="40"
       x="13.302095"
       y="14.255609" />
    <g
       id="g3809"
       transform="matrix(1,0,0,0.99201287,7.771143,-5.0510161)">
      <path
         inkscape:connector-curvature="0"
         id="path2985-1"
         d="m 25.542643,20.087077 c -5.619045,0.0082 -10.178973,4.506194 -10.196525,10.081437 l -0.02339,0 0,6.689985 3.414432,0 0,-6.109257 0,-0.534269 0.02339,0 c 0.276807,-3.474753 3.188298,-6.220567 6.758706,-6.225404 3.594667,-0.0049 6.530081,2.764158 6.782092,6.271861 l 0.07016,0 0,6.643528 3.367659,0 0,-6.643528 0,-0.04645 c 8e-6,-0.008 1.2e-5,-0.01519 0,-0.02323 -0.0083,-5.597096 -4.561505,-10.112893 -10.196524,-10.104668 z"
         style="fill:#000080;stroke:#000000;stroke-width:1.25;stroke-miterlimit:4;stroke-dasharray:none" />
      <rect
         y="36.85783"
         x="10.994746"
         height="22.301298"
         width="29.072412"
         id="rect3800"
         style="fill:#000080;fill-opacity:1;fill-rule:evenodd;stroke:#000000;stroke-width:1.25;stroke-linecap:round;stroke-linejoin:miter;stroke-miterlimit:4;stroke-opacity:1;stroke-dasharray:none;stroke-dashoffset:0" />
      <path
         inkscape:connector-curvature="0"
         id="path3804"
         d="m 25.530953,40.342867 c -2.066561,0.0028 -3.744663,1.664006 -3.741844,3.716659 l 0,0.02322 c 0.0068,1.53612 0.950234,2.85445 2.29188,3.414679 l -2.666064,7.944359 8.232055,0 -2.666064,-7.967588 c 1.342229,-0.566038 2.293994,-1.87519 2.29188,-3.414679 -0.0028,-2.052653 -1.675282,-3.71946 -3.741843,-3.716659 z"
         style="fill:#ffffff;fill-opacity:1;fill-rule:evenodd;stroke:#000000;stroke-width:1.25;stroke-miterlimit:4;stroke-dasharray:none" />
    </g>
  </g>
</svg>
