<?xml version="1.0" encoding="UTF-8" standalone="no"?>
<!-- Created with Inkscape (http://www.inkscape.org/) -->

<svg
   xmlns:dc="http://purl.org/dc/elements/1.1/"
   xmlns:cc="http://creativecommons.org/ns#"
   xmlns:rdf="http://www.w3.org/1999/02/22-rdf-syntax-ns#"
   xmlns:svg="http://www.w3.org/2000/svg"
   xmlns="http://www.w3.org/2000/svg"
   xmlns:sodipodi="http://sodipodi.sourceforge.net/DTD/sodipodi-0.dtd"
   xmlns:inkscape="http://www.inkscape.org/namespaces/inkscape"
   width="64px"
   height="64px"
   id="svg3462"
   version="1.1"
   inkscape:version="0.92.2 5c3e80d, 2017-08-06"
   sodipodi:docname="MapLayer.svg"
   inkscape:export-filename="/home/norbert/Development/QMapShack/QMapShack_touch/src/icons/48x48/ToggleMaps.png"
   inkscape:export-xdpi="67.5"
   inkscape:export-ydpi="67.5">
  <defs
     id="defs3464" />
  <sodipodi:namedview
     id="base"
     pagecolor="#ffffff"
     bordercolor="#666666"
     borderopacity="1.0"
     inkscape:pageopacity="0.0"
     inkscape:pageshadow="2"
     inkscape:zoom="5.5"
     inkscape:cx="28"
     inkscape:cy="39.272727"
     inkscape:current-layer="layer1"
     showgrid="true"
     inkscape:document-units="px"
     inkscape:grid-bbox="true"
     inkscape:window-width="1920"
     inkscape:window-height="1020"
     inkscape:window-x="0"
     inkscape:window-y="0"
     inkscape:window-maximized="1" />
  <metadata
     id="metadata3467">
    <rdf:RDF>
      <cc:Work
         rdf:about="">
        <dc:format>image/svg+xml</dc:format>
        <dc:type
           rdf:resource="http://purl.org/dc/dcmitype/StillImage" />
        <dc:title />
      </cc:Work>
    </rdf:RDF>
  </metadata>
  <g
     id="layer1"
     inkscape:label="Layer 1"
     inkscape:groupmode="layer">
    <rect
       style="fill:none;fill-rule:evenodd;stroke:#000000;stroke-width:1.10540044px;stroke-linecap:butt;stroke-linejoin:miter;stroke-opacity:1"
       id="rect3336"
       width="29.544342"
       height="29.544342"
       x="12.714433"
       y="6.491425" />
    <rect
       style="fill:none;fill-rule:evenodd;stroke:#000000;stroke-width:1.10540044px;stroke-linecap:butt;stroke-linejoin:miter;stroke-opacity:1"
       id="rect3338"
       width="20.299173"
       height="20.299173"
       x="38.390823"
       y="15.026155" />
    <rect
       style="fill:#ffffff;fill-opacity:1"
       id="rect3342"
       width="37.454121"
       height="35.975674"
       x="6.8615112"
       y="20.427578" />
    <rect
       style="fill:none;stroke:#550000;stroke-width:2.06893063;stroke-linecap:round;stroke-linejoin:round;stroke-miterlimit:4;stroke-dasharray:none;stroke-opacity:1"
       id="rect3167"
       width="36.621914"
       height="36.686684"
       x="7.4428391"
       y="20.172607" />
    <path
       style="fill:#550000;stroke:none;stroke-width:1.10540044"
       d="m 12.055552,51.978686 c -0.409783,-0.168476 -0.857614,-0.363304 -0.995159,-0.432964 -0.247986,-0.125572 -0.248948,-0.127435 -0.11463,-0.219263 0.0745,-0.05094 0.194904,-0.0937 0.267529,-0.09515 0.07263,-0.001 0.356326,-0.07734 0.630443,-0.168695 0.840657,-0.280308 1.271376,-0.331166 2.246417,-0.265243 0.488576,0.03303 0.927022,0.07962 0.974311,0.103686 0.0472,0.02402 0.123628,0.01397 0.169657,-0.02184 0.07163,-0.05622 0.06798,-0.08697 -0.02443,-0.212885 l -0.108108,-0.147292 0.425613,0.05188 c 0.740231,0.09008 2.017278,0.06999 2.045002,-0.0323 0.01393,-0.05157 -0.0524,-0.122785 -0.155353,-0.167017 -0.229338,-0.09857 -0.194197,-0.237827 0.06002,-0.237827 0.188216,0 0.19539,-0.0093 0.197037,-0.272936 10e-4,-0.198938 0.03792,-0.309062 0.135301,-0.406294 0.18311,-0.182785 0.235517,-0.167721 0.235517,0.06772 0,0.111293 0.05118,0.258131 0.114619,0.32893 0.06301,0.0703 0.11463,0.166282 0.11463,0.213216 0,0.0469 0.07738,0.205357 0.171934,0.35206 0.09462,0.146682 0.171945,0.310852 0.171945,0.364775 0,0.129142 0.172432,0.204498 0.866944,0.379 1.246084,0.313068 1.744686,0.223124 2.743747,-0.494943 0.167988,-0.120756 0.664501,-0.296884 1.031626,-0.366005 0.204897,-0.03851 1.017312,-0.08366 1.805363,-0.100437 2.12249,-0.04483 2.338994,-0.05746 2.464435,-0.145284 0.06301,-0.04411 0.230686,-0.101465 0.372542,-0.127591 0.141845,-0.02609 0.408114,-0.114077 0.591699,-0.195427 0.324169,-0.143732 0.339921,-0.144353 0.544476,-0.02236 0.115868,0.06926 0.391201,0.139694 0.61185,0.156674 0.25055,0.01935 0.482596,0.08449 0.617985,0.173322 0.164119,0.107721 0.271984,0.130841 0.443874,0.09515 0.124888,-0.02609 0.239827,-0.07279 0.255402,-0.103841 0.01559,-0.03106 0.116278,-0.07683 0.223789,-0.101675 0.107555,-0.02485 0.229227,-0.09536 0.270469,-0.156633 0.06268,-0.09298 0.160659,-0.103996 0.593224,-0.06626 0.374245,0.03261 0.558007,0.01968 0.661494,-0.04638 0.180932,-0.115476 0.791102,-0.106948 1.028896,0.01397 0.141392,0.07217 0.22853,0.07455 0.401415,0.01083 0.146654,-0.05415 0.268778,-0.05902 0.363644,-0.01397 0.08069,0.03768 0.51327,0.05042 0.994108,0.02919 0.468204,-0.02081 0.889969,-0.03893 0.937247,-0.04069 0.196375,-0.0062 0.785929,0.154137 0.94566,0.257697 0.09462,0.06129 0.262598,0.111758 0.373382,0.111914 0.110794,1.66e-4 0.297684,0.06398 0.41531,0.141712 0.117625,0.07775 0.278439,0.141246 0.357354,0.141246 0.272503,0 0.142243,0.126347 -0.243365,0.236067 -0.619677,0.176325 -1.071852,0.419816 -1.091838,0.58793 -0.01603,0.134268 0.01127,0.144663 0.372531,0.140469 0.21436,-10e-4 0.567557,0.02309 0.784879,0.05663 0.516178,0.07983 0.456619,0.132249 -0.677389,0.597745 l -0.876008,0.359557 -12.000991,-10e-4 -12.00099,-0.001 -0.745062,-0.306318 z m 4.212482,-4.353522 c 0,-0.03882 0.02432,-0.07061 0.05394,-0.07061 0.02962,0 0.06986,0.03179 0.08932,0.07061 0.01957,0.03883 -0.0055,0.07061 -0.05394,0.07061 -0.04908,0 -0.08943,-0.03178 -0.08943,-0.07061 z M 15.909409,47.46498 c -0.202863,-0.193574 -0.506229,-0.718771 -0.495485,-0.85775 0.0066,-0.08128 -0.0033,-0.195666 -0.02144,-0.253968 -0.01813,-0.0584 -0.044,-0.274034 -0.05759,-0.479412 -0.01393,-0.210813 -0.06168,-0.410818 -0.109545,-0.459294 -0.131123,-0.132704 -0.22223,-0.630692 -0.181861,-0.993851 0.02001,-0.179597 0.0077,-0.462142 -0.02697,-0.627864 -0.03482,-0.165723 -0.07572,-0.725967 -0.09098,-1.244982 -0.03029,-1.03393 -0.07649,-1.202035 -0.387454,-1.412568 -0.33361,-0.225838 -0.428619,-0.358749 -0.673277,-0.941875 -0.135754,-0.323536 -0.311292,-0.69444 -0.390107,-0.824225 -0.121926,-0.20079 -0.133698,-0.262023 -0.07882,-0.410351 0.03548,-0.09588 0.04919,-0.249051 0.03073,-0.34036 -0.03736,-0.18348 0.03548,-0.390214 0.248317,-0.705612 0.123938,-0.183594 0.137976,-0.261547 0.117725,-0.653604 -0.01658,-0.31959 -0.0033,-0.445162 0.0472,-0.445162 0.03858,0 0.130095,-0.09174 0.203305,-0.204 0.07318,-0.112225 0.191146,-0.22563 0.262069,-0.252074 0.110319,-0.04111 0.128945,-0.02205 0.128945,0.133326 0,0.114089 0.03195,0.181399 0.086,0.181399 0.04831,0 0.086,-0.06305 0.086,-0.143567 0,-0.180445 0.145028,-0.25461 0.262621,-0.134267 0.04908,0.05032 0.233615,0.0965 0.410092,0.103023 0.243575,0.0093 0.356525,0.05063 0.468845,0.172981 0.08136,0.08863 0.244758,0.268401 0.363047,0.399429 0.145703,0.161364 0.27195,0.238241 0.391289,0.238241 0.228818,0 0.481446,0.307818 0.564418,0.687741 0.06765,0.31022 0.257912,0.513486 0.480385,0.513486 0.07506,0 0.181164,0.06099 0.235848,0.13551 0.0598,0.08148 0.21751,0.15541 0.395744,0.18553 0.270901,0.04576 0.425093,0.147603 0.740475,0.48901 0.149483,0.161798 0.12428,0.317613 -0.129188,0.798546 -0.200144,0.379767 -0.232344,0.49779 -0.251821,0.923145 -0.02786,0.60637 -0.204367,1.142634 -0.37629,1.142634 -0.127187,0 -0.537589,0.29175 -0.608003,0.432199 -0.02332,0.04659 -0.03902,0.193771 -0.03504,0.327149 0.0055,0.174606 -0.05638,0.360933 -0.220307,0.66519 -0.125231,0.232453 -0.227701,0.470518 -0.227701,0.529038 0,0.07827 -0.05229,0.100846 -0.197524,0.08541 -0.258741,-0.02744 -0.288587,0.02205 -0.175637,0.291293 0.11138,0.265513 0.05693,0.386849 -0.202189,0.450753 -0.112806,0.02774 -0.190438,0.103332 -0.226552,0.220505 -0.03029,0.09795 -0.09429,0.178168 -0.142342,0.178168 -0.102139,0 -0.111259,0.09567 -0.02764,0.288115 0.04466,0.102913 0.03482,0.202033 -0.03902,0.394118 -0.09694,0.251928 -0.09639,0.259009 0.03106,0.386309 0.116841,0.11673 0.123396,0.153983 0.06522,0.371381 -0.03559,0.13286 -0.04897,0.318814 -0.02985,0.413044 0.04565,0.224398 -0.08479,0.373751 -0.216482,0.247994 z m 1.963379,-5.563323 c 0,-0.03882 -0.02576,-0.07061 -0.05737,-0.07061 -0.0315,0 -0.05737,0.03179 -0.05737,0.07061 0,0.03883 0.02576,0.07061 0.05737,0.07061 0.0315,0 0.05737,-0.03179 0.05737,-0.07061 z m 24.472495,4.321634 c 0,-0.05788 0.252175,-0.225641 0.332239,-0.220971 0.05781,0.0031 -0.220085,0.280288 -0.28128,0.280288 -0.02797,0 -0.05096,-0.02672 -0.05096,-0.05933 z m -2.147749,-0.573704 c -0.02056,-0.04111 0.0044,-0.09422 0.05472,-0.118116 0.126082,-0.05975 0.165302,0.0062 0.065,0.10865 -0.05649,0.05788 -0.09396,0.06088 -0.119638,0.0093 z m 3.678187,-0.601307 c 0.09396,-0.159179 0.188946,-0.231325 0.188946,-0.143577 0,0.04783 -0.221345,0.317965 -0.260587,0.317965 -0.01724,0 0.01503,-0.07858 0.07163,-0.17442 z m -3.804335,-0.183221 c -0.0671,-0.02888 -0.120003,-0.170268 -0.159731,-0.42582 -0.05615,-0.361172 -0.0682,-0.381186 -0.217078,-0.359712 -0.114752,0.01646 -0.157619,-0.0083 -0.157619,-0.09195 0,-0.06492 -0.08954,-0.160764 -0.205793,-0.220671 -0.171779,-0.08842 -0.259426,-0.09205 -0.53015,-0.02174 -0.178389,0.04638 -0.409628,0.143421 -0.513878,0.215608 -0.10424,0.07216 -0.266258,0.131317 -0.360051,0.131317 -0.09374,0 -0.264501,0.04846 -0.379396,0.107567 -0.225844,0.116407 -0.373051,0.04732 -0.260963,-0.122309 0.03316,-0.05032 0.07185,-0.470291 0.086,-0.933478 0.02454,-0.808093 0.03173,-0.848163 0.176886,-0.990869 0.08324,-0.0818 0.305621,-0.205202 0.494291,-0.274241 0.230487,-0.08428 0.380899,-0.188128 0.458565,-0.31635 0.06356,-0.104925 0.139015,-0.218123 0.167667,-0.251483 0.02863,-0.03334 0.142884,-0.16678 0.253877,-0.296492 0.188537,-0.220349 0.213696,-0.230299 0.382889,-0.151496 0.150732,0.07019 0.189333,0.06647 0.230321,-0.02153 0.131421,-0.282203 0.222373,-0.365396 0.438534,-0.401148 0.26879,-0.04442 0.344355,0.04048 0.243299,0.273217 -0.06168,0.142178 -0.04388,0.183397 0.183618,0.426877 0.146223,0.156414 0.299895,0.261464 0.366253,0.250365 0.132349,-0.02216 0.308705,-0.421359 0.312773,-0.708044 0.0033,-0.214366 0.117371,-0.274407 0.117371,-0.0616 0,0.07299 0.03548,0.16886 0.07859,0.213111 0.04333,0.04422 0.09175,0.224999 0.107998,0.401666 0.01614,0.176687 0.07981,0.390824 0.141303,0.47584 0.06157,0.08501 0.193202,0.351273 0.292511,0.591667 0.193401,0.468167 0.19769,0.685328 0.02211,1.117454 -0.12795,0.314921 -0.922567,1.3333 -1.094877,1.403167 -0.188261,0.07621 -0.543769,0.09795 -0.675344,0.04111 z M 25.786361,44.139983 c -0.03405,-0.04173 -0.06168,-0.147769 -0.06168,-0.235311 0,-0.18611 -0.09451,-0.475892 -0.243243,-0.74628 -0.05803,-0.105544 -0.121517,-0.359888 -0.141038,-0.565308 -0.01957,-0.205399 -0.110728,-0.580133 -0.202709,-0.832746 -0.181186,-0.497644 -0.183319,-0.799447 -0.0077,-1.216001 0.159687,-0.38072 -0.0033,-1.255708 -0.326778,-1.760083 -0.183817,-0.286127 -0.188913,-0.354203 -0.07174,-0.957115 0.04002,-0.205575 -0.162792,-0.44776 -0.374819,-0.44776 -0.113138,0 -0.195004,-0.0557 -0.259238,-0.176647 -0.108551,-0.204218 -0.250274,-0.218609 -0.578401,-0.05871 -0.126093,0.06129 -0.358205,0.117505 -0.515813,0.124483 -0.157608,0.0083 -0.353032,0.03697 -0.434279,0.06647 -0.120688,0.0438 -0.19413,0.0062 -0.401194,-0.204726 -0.139402,-0.142023 -0.279246,-0.329033 -0.310772,-0.415436 -0.0315,-0.08645 -0.141138,-0.28681 -0.243575,-0.445368 -0.200376,-0.310107 -0.226165,-0.511333 -0.121019,-0.944017 0.04621,-0.190324 0.04819,-0.351512 0.0066,-0.553639 -0.05505,-0.267531 -0.04399,-0.315666 0.178323,-0.778874 0.135268,-0.281727 0.323175,-0.564417 0.437639,-0.658357 0.129863,-0.106638 0.226806,-0.262686 0.274924,-0.442728 0.04079,-0.152885 0.168939,-0.384903 0.284564,-0.515485 0.169844,-0.191825 0.242138,-0.229574 0.376245,-0.196494 0.106229,0.0262 0.261659,-0.01242 0.431847,-0.105234 0.166981,-0.09194 0.444879,-0.160763 0.747339,-0.185394 l 0.481501,-0.03914 -0.03394,0.257396 c -0.03736,0.283155 0.05505,0.403778 0.380479,0.497127 0.08976,0.02578 0.234644,0.111915 0.321782,0.191255 0.219091,0.199705 0.534694,0.21422 0.56538,0.02609 0.03659,-0.224304 0.101696,-0.23179 0.518222,-0.05964 0.317781,0.131472 0.463252,0.153971 0.767778,0.118892 0.206633,-0.02392 0.403648,-0.06461 0.437794,-0.09049 0.03416,-0.02609 0.07904,-0.247331 0.09971,-0.491816 0.04123,-0.48642 -0.01393,-0.605935 -0.232919,-0.504312 -0.06566,0.03044 -0.179826,0.02765 -0.253656,-0.0062 -0.07384,-0.03396 -0.159122,-0.04287 -0.189532,-0.01968 -0.106118,0.08086 -0.3162,-0.03986 -0.382811,-0.220132 -0.09562,-0.258773 -0.08434,-0.316371 0.06179,-0.315968 0.07086,1.66e-4 0.251578,-0.05384 0.401448,-0.120145 0.22611,-0.09992 0.304859,-0.106008 0.462577,-0.03571 0.205594,0.09174 0.490776,0.110363 0.635738,0.04173 0.167932,-0.07952 0.0975,-0.307435 -0.165832,-0.536212 -0.20587,-0.178914 -0.250197,-0.253783 -0.224606,-0.379478 0.01757,-0.08614 0.0033,-0.179006 -0.03361,-0.206423 -0.09086,-0.06927 -0.402388,0.100845 -0.402388,0.219656 0,0.130374 -0.09396,0.124328 -0.135345,-0.0083 -0.01901,-0.06119 -0.104681,-0.106007 -0.202045,-0.106007 -0.131974,0 -0.196772,0.05529 -0.295319,0.251856 -0.06942,0.138451 -0.133256,0.353147 -0.141823,0.476947 -0.01194,0.172246 -0.04057,0.221438 -0.122003,0.209468 -0.05859,-0.0093 -0.179472,0.02018 -0.268756,0.06398 -0.148223,0.07279 -0.158967,0.101575 -0.123816,0.332637 l 0.03858,0.253005 -0.120257,-0.134113 c -0.0661,-0.07393 -0.150743,-0.259611 -0.188006,-0.41292 -0.04908,-0.202085 -0.130482,-0.327604 -0.295883,-0.456322 -0.125496,-0.09764 -0.280174,-0.23733 -0.343757,-0.310356 -0.16717,-0.19201 -0.323252,-0.172836 -0.323252,0.03976 0,0.09484 0.02565,0.192022 0.05693,0.215908 0.03128,0.02392 0.08379,0.105234 0.116653,0.180829 0.09761,0.224822 -0.03405,0.162172 -0.258819,-0.123241 -0.195468,-0.24815 -0.214337,-0.256608 -0.393688,-0.176657 -0.103576,0.04628 -0.27037,0.08397 -0.370575,0.08397 -0.100259,0 -0.182203,0.03054 -0.182203,0.06782 0,0.03737 -0.103134,0.193854 -0.229249,0.347773 -0.126093,0.153982 -0.229249,0.325088 -0.229249,0.380409 0,0.256515 -0.47488,0.473727 -0.706771,0.323277 -0.167523,-0.10865 -0.214326,-0.209582 -0.173017,-0.372913 0.01901,-0.07527 0.03858,-0.234224 0.04322,-0.353302 l 0.0077,-0.216519 0.398055,-0.02122 c 0.22905,-0.01243 0.416581,-0.05715 0.441729,-0.106019 0.07506,-0.145429 0.04963,-0.49194 -0.04565,-0.621704 -0.08456,-0.115165 -0.07738,-0.13286 0.100259,-0.245002 0.105235,-0.06658 0.34,-0.259569 0.521595,-0.429051 0.181606,-0.169512 0.360106,-0.30818 0.396673,-0.30818 0.03659,0 0.107224,-0.04441 0.156978,-0.09878 0.06765,-0.07403 0.162416,-0.08491 0.377041,-0.0439 0.157608,0.03023 0.347991,0.02609 0.423081,-0.0093 0.07517,-0.0351 0.183386,-0.04566 0.240656,-0.02309 0.117361,0.04597 0.339226,-0.186326 0.339226,-0.355114 0,-0.0672 0.05483,-0.106008 0.149969,-0.106008 0.121738,0 0.144321,-0.02651 0.120003,-0.141246 -0.03548,-0.167441 0.05704,-0.261071 0.147681,-0.149312 0.09893,0.121999 0.19633,0.09328 0.230531,-0.06803 0.01879,-0.08863 0.0724,-0.141412 0.135633,-0.133181 0.197248,0.02547 0.24782,-0.0031 0.24782,-0.139382 0,-0.172215 -0.205041,-0.258814 -0.32417,-0.136908 -0.07473,0.07652 -0.102581,0.06937 -0.169458,-0.04349 -0.04399,-0.07424 -0.06522,-0.19227 -0.0472,-0.262314 0.01813,-0.07019 0.0077,-0.127433 -0.02399,-0.127433 -0.09606,0 -0.40944,0.359607 -0.40944,0.469731 0,0.05715 -0.02576,0.08428 -0.05737,0.06026 -0.103687,-0.079 -0.05991,-0.274758 0.09562,-0.427674 0.101365,-0.09961 0.140618,-0.189909 0.116421,-0.267625 -0.06257,-0.200698 -0.268292,-0.129764 -0.531024,0.183014 -0.24489,0.291542 -0.323097,0.557396 -0.193091,0.656461 0.0409,0.03116 0.03338,0.08501 -0.02277,0.163166 -0.0461,0.0643 -0.09308,0.180218 -0.104571,0.257954 -0.02542,0.172713 -0.249102,0.228717 -0.297143,0.07455 -0.021,-0.0672 -0.0033,-0.109745 0.04665,-0.109745 0.04444,0 0.0975,-0.03324 0.117758,-0.07372 0.04731,-0.09453 -0.08268,-0.291542 -0.155706,-0.235932 -0.0304,0.02309 -0.137059,0.05094 -0.237098,0.06191 -0.100038,0.01083 -0.236356,0.04193 -0.302935,0.06896 -0.09551,0.03862 -0.128613,0.01397 -0.156834,-0.115796 -0.06257,-0.287774 -0.04333,-0.328547 0.246858,-0.523198 0.156293,-0.104925 0.389223,-0.344306 0.517626,-0.53204 0.19864,-0.290445 0.290886,-0.362342 0.618494,-0.482125 0.31128,-0.113768 0.428961,-0.126959 0.614304,-0.06844 0.126082,0.03986 0.371083,0.113934 0.544465,0.164895 0.365523,0.107412 0.630432,0.229689 0.630432,0.291076 0,0.02361 -0.121782,0.03241 -0.270635,0.01937 -0.318024,-0.02765 -0.380269,0.09422 -0.182115,0.356472 0.09794,0.129598 0.161366,0.154747 0.302659,0.12029 0.09827,-0.02402 0.217443,-0.104461 0.26471,-0.178779 0.0472,-0.07424 0.189145,-0.156736 0.315227,-0.1832 0.126093,-0.0264 0.291317,-0.09618 0.367181,-0.155069 0.07882,-0.0612 0.323252,-0.119669 0.570574,-0.136743 0.237971,-0.01646 0.465949,-0.06398 0.50665,-0.105543 0.05273,-0.05404 0.147339,-0.0529 0.328812,0.0031 0.140154,0.04359 0.282087,0.0791 0.315415,0.0791 0.09429,0 0.07119,-0.197602 -0.03128,-0.268339 -0.100923,-0.06957 -0.09053,-0.304485 0.01525,-0.34795 0.0975,-0.03986 0.423014,0.577556 0.406135,0.770395 -0.02156,0.247291 0.192583,0.217275 0.29302,-0.041 0.07395,-0.190437 0.07008,-0.214116 -0.0566,-0.335111 -0.115802,-0.110672 -0.123329,-0.140625 -0.05018,-0.200294 0.112541,-0.09174 0.379849,-0.09122 0.519593,7.77e-4 0.140419,0.09267 0.15238,-0.03737 0.01227,-0.134113 -0.212623,-0.146672 0.336573,-0.500264 0.786283,-0.506187 0.110319,-0.0021 0.247488,-0.04638 0.304825,-0.100127 0.07605,-0.07113 0.153407,-0.08003 0.286188,-0.03303 0.100039,0.03541 0.272382,0.06492 0.382922,0.06533 0.11054,5.07e-4 0.239662,0.03303 0.28694,0.07206 0.07495,0.06181 0.07318,0.08024 -0.01437,0.143732 -0.165855,0.120601 -0.113691,0.211289 0.114619,0.199414 0.118211,-0.0062 0.563091,0.01397 0.988648,0.04422 0.620229,0.04442 0.801017,0.08148 0.911303,0.186989 0.115592,0.110518 0.198066,0.124329 0.515813,0.08645 0.208025,-0.02485 0.402731,-0.073 0.432676,-0.106793 0.08335,-0.09453 0.48621,-0.07372 0.853314,0.04422 0.181529,0.0584 0.458575,0.106008 0.615653,0.106008 0.157088,0 0.380766,0.04908 0.497054,0.108959 0.154104,0.07952 0.421699,0.109579 0.986813,0.111283 0.556171,10e-4 0.910574,0.041 1.25369,0.138616 0.499873,0.142334 0.763998,0.270659 0.565821,0.274842 -0.148974,0.0031 -0.185519,0.197841 -0.06743,0.35881 0.0986,0.134269 0.09772,0.145441 -0.02012,0.30025 -0.08456,0.110983 -0.195557,0.164409 -0.358349,0.172423 -0.435462,0.02143 -0.512862,0.258203 -0.19706,0.602901 0.164594,0.179648 0.200597,0.268401 0.200597,0.494476 0,0.151498 -0.02388,0.264923 -0.05295,0.251981 -0.08755,-0.03893 -0.577517,-0.627212 -0.577517,-0.693322 0,-0.03365 0.03051,-0.223901 0.06754,-0.422517 0.05848,-0.312654 0.05505,-0.376599 -0.02576,-0.476295 -0.0797,-0.09826 -0.107224,-0.101056 -0.187951,-0.01843 -0.05405,0.05539 -0.190494,0.08811 -0.318643,0.07683 -0.205262,-0.01833 -0.226806,-0.0031 -0.256453,0.179825 l -0.03239,0.199777 -0.500161,-0.02423 c -0.541193,-0.02609 -0.571679,-0.0093 -0.680705,0.377479 -0.03283,0.116573 -0.07738,0.265472 -0.09893,0.330845 -0.04654,0.141247 0.221113,0.340423 0.457282,0.340423 0.224197,0 0.48715,0.193015 0.48715,0.357599 0,0.07806 0.03891,0.21509 0.08633,0.304381 0.06953,0.130852 0.07528,0.234275 0.02929,0.532941 -0.07074,0.460143 -0.09131,0.500948 -0.250804,0.500948 -0.163732,0 -0.265981,0.126036 -0.265981,0.327926 0,0.08707 -0.02576,0.178001 -0.05737,0.202033 -0.100149,0.0764 -0.06268,0.182702 0.143282,0.40766 0.196828,0.21482 0.256111,0.42495 0.144001,0.510369 -0.03106,0.02371 -0.09838,-0.08573 -0.149494,-0.243148 -0.05118,-0.15744 -0.125839,-0.286272 -0.166076,-0.286272 -0.04024,0 -0.115393,-0.07952 -0.167026,-0.176636 -0.05947,-0.111904 -0.147394,-0.176646 -0.239938,-0.176646 -0.08036,0 -0.18364,-0.04638 -0.229592,-0.102913 -0.107666,-0.132859 -0.203283,-0.08387 -0.365843,0.187198 l -0.131134,0.218671 0.136738,0.129598 c 0.07528,0.07123 0.195678,0.130387 0.267706,0.131163 0.114774,0.0021 0.123087,0.01968 0.06732,0.148391 -0.03504,0.08076 -0.04853,0.196079 -0.02963,0.256277 0.01868,0.06006 0.0055,0.152729 -0.03073,0.205616 -0.07428,0.110363 0.01393,0.174771 0.203626,0.1487 0.0818,-0.01083 0.145493,0.06999 0.235019,0.299847 0.119196,0.305934 0.119958,0.325378 0.02587,0.654764 -0.103576,0.362631 -0.314023,0.690453 -0.443233,0.690453 -0.04333,0 -0.161267,0.05259 -0.262013,0.116873 -0.100812,0.0643 -0.293152,0.111604 -0.427547,0.1054 -0.218681,-0.01083 -0.25632,0.01243 -0.358227,0.218837 -0.06268,0.126659 -0.113967,0.253037 -0.114066,0.280878 -1.22e-4,0.02796 0.113359,0.208319 0.252197,0.401034 0.138827,0.192715 0.271022,0.454925 0.293793,0.582681 0.0367,0.206103 0.01979,0.254517 -0.149958,0.429237 l -0.191334,0.196929 -0.231405,-0.274396 c -0.298181,-0.35353 -0.450572,-0.451726 -0.53655,-0.345724 -0.06235,0.07682 -0.116211,-0.03417 -0.259493,-0.533728 -0.02885,-0.100426 -0.07373,-0.119369 -0.201315,-0.08479 -0.145814,0.03955 -0.167888,0.02236 -0.196618,-0.15335 -0.0178,-0.108805 -0.105123,-0.299132 -0.193998,-0.422953 -0.08887,-0.123862 -0.187431,-0.276684 -0.218957,-0.339707 -0.04554,-0.09101 -0.108551,-0.104461 -0.306274,-0.06502 -0.136926,0.02713 -0.278782,0.09515 -0.315216,0.15102 -0.03648,0.05591 -0.233891,0.324871 -0.438788,0.59787 -0.359941,0.479588 -0.372664,0.509189 -0.376522,0.876138 -0.0044,0.381755 -0.115161,0.757794 -0.212193,0.717901 -0.07417,-0.03044 -0.548201,-1.381704 -0.588493,-1.677657 -0.06245,-0.458777 -0.124236,-0.573155 -0.283071,-0.523995 -0.108108,0.03355 -0.153053,0.01242 -0.182523,-0.08676 -0.02156,-0.07217 -0.140232,-0.239515 -0.263804,-0.371971 -0.214945,-0.230372 -0.245388,-0.24117 -0.702195,-0.249247 -0.364495,-0.0062 -0.503333,-0.03727 -0.586603,-0.13022 -0.06146,-0.06874 -0.200829,-0.121688 -0.319516,-0.121688 -0.16959,0 -0.255557,-0.0557 -0.443177,-0.286986 -0.157531,-0.194227 -0.273321,-0.279873 -0.358205,-0.264985 -0.213088,0.03737 -0.176179,0.275546 0.115702,0.74628 0.213652,0.344596 0.306992,0.441642 0.424839,0.441642 0.08313,0 0.181208,-0.04483 0.218095,-0.09971 0.0566,-0.08408 0.10225,-0.07144 0.293573,0.08325 0.124589,0.100536 0.226518,0.223073 0.226518,0.272253 0,0.206082 -0.260509,0.608523 -0.507964,0.784714 -0.146156,0.103996 -0.282187,0.2186 -0.302272,0.254537 -0.05074,0.0908 -0.871199,0.532631 -0.921252,0.496165 -0.02244,-0.01625 -0.05781,-0.147769 -0.07859,-0.292194 -0.04024,-0.278724 -0.189145,-0.62888 -0.40703,-0.956867 -0.07296,-0.109899 -0.132682,-0.249941 -0.132682,-0.311308 0,-0.155058 -0.51998,-1.078813 -0.607218,-1.078813 -0.03913,0 -0.113271,-0.01999 -0.164738,-0.04422 -0.137833,-0.06523 -0.06422,0.247766 0.206566,0.877381 0.121837,0.283332 0.221511,0.573176 0.221511,0.644078 0,0.07092 0.04809,0.204778 0.106782,0.297455 0.0587,0.09267 0.124579,0.238759 0.146388,0.324602 0.02178,0.08583 0.141502,0.255542 0.265937,0.377054 0.124457,0.121532 0.241442,0.295362 0.259946,0.386321 0.06909,0.339024 0.186758,0.394179 0.592506,0.277471 0.200442,-0.05757 0.377329,-0.08894 0.393092,-0.06938 0.01581,0.01957 -0.05571,0.273961 -0.158869,0.565597 -0.129608,0.366514 -0.26933,0.624935 -0.452462,0.836867 -0.345725,0.400121 -0.664887,0.885704 -0.783187,1.191586 -0.0818,0.211611 -0.08545,0.306297 -0.02653,0.69941 0.130802,0.874181 0.136097,1.243284 0.01957,1.366556 -0.05781,0.0612 -0.227503,0.242641 -0.377053,0.403239 l -0.271917,0.292018 0.0357,0.373545 c 0.03471,0.364433 0.03117,0.376319 -0.143602,0.487797 -0.122036,0.07775 -0.179219,0.16618 -0.179219,0.276985 0,0.205989 -0.290156,0.750102 -0.54997,1.031353 -0.132183,0.14311 -0.261007,0.216063 -0.383353,0.21718 -0.101365,7.77e-4 -0.279003,0.02888 -0.394771,0.06212 -0.137501,0.03945 -0.231902,0.03396 -0.272238,-0.01584 z m 1.204622,-2.917751 c 0.06643,-0.09867 0.06234,-0.110672 -0.03117,-0.08832 -0.05947,0.01397 -0.118786,0.06554 -0.131907,0.114079 -0.03405,0.126036 0.07229,0.109269 0.163113,-0.02578 z m 0.854198,-0.79512 c 0,-0.106793 -0.03637,-0.255625 -0.08081,-0.330566 -0.07583,-0.1279 -0.08335,-0.11998 -0.12113,0.128522 -0.02631,0.173053 -0.01592,0.301057 0.02996,0.36931 0.09562,0.142022 0.171945,0.06772 0.171945,-0.167328 z m -0.798077,-0.594039 c -0.0077,-0.08449 -0.08567,-0.06813 -0.110319,0.02298 -0.0126,0.04659 0.0077,0.07206 0.04587,0.05653 0.0378,-0.01553 0.06688,-0.05136 0.06444,-0.07952 z m 0.339579,-0.178427 c 0,-0.03106 -0.02377,-0.08676 -0.05284,-0.123707 -0.02907,-0.03696 -0.07539,-0.176253 -0.102913,-0.30963 -0.06798,-0.329044 -0.188106,-0.368482 -0.188106,-0.06181 0,0.265855 0.135279,0.551557 0.261151,0.551557 0.04543,0 0.08268,-0.02547 0.08268,-0.05653 z m 0.335002,-1.14367 c 0.04477,-0.158465 0.04134,-0.23354 -0.01382,-0.301585 -0.04046,-0.0498 -0.08523,-0.134269 -0.09971,-0.187632 -0.03825,-0.141556 -0.393379,-0.177453 -0.393379,-0.03976 0,0.07993 0.03769,0.09494 0.150754,0.06006 0.08291,-0.02558 0.140121,-0.01833 0.127122,0.01625 -0.01304,0.03458 -0.05837,0.14839 -0.101034,0.252787 -0.09938,0.243771 -0.0461,0.410819 0.130924,0.410819 0.103244,0 0.154944,-0.05477 0.199115,-0.210969 z m 0.270459,-1.044625 c -0.01879,-0.02309 -0.06367,-0.0062 -0.0996,0.03831 -0.04897,0.06037 -0.04521,0.110827 0.01525,0.201257 0.07473,0.111749 0.08202,0.108804 0.0996,-0.03831 0.0099,-0.08759 0.0033,-0.178034 -0.01525,-0.201267 z m -2.739161,-1.513425 c -0.03548,-0.131007 -0.158812,-0.152739 -0.158812,-0.02796 0,0.0615 0.04079,0.111914 0.09075,0.111914 0.04996,0 0.08047,-0.03768 0.06809,-0.08397 z M 27.47265,34.27033 c 0.01957,-0.03883 0.0077,-0.07061 -0.02531,-0.07061 -0.03338,0 -0.06069,0.03178 -0.06069,0.07061 0,0.03893 0.01139,0.07061 0.02531,0.07061 0.01393,0 0.04123,-0.03178 0.06069,-0.07061 z m 2.287825,-2.374695 c 0.0996,-0.04721 0.120721,-0.354368 0.0357,-0.520029 -0.03294,-0.06409 -0.03228,-0.134724 0.0022,-0.185354 0.07329,-0.108804 0.0099,-0.296532 -0.116631,-0.346096 -0.05593,-0.02184 -0.145879,-0.09992 -0.19979,-0.173353 -0.09219,-0.125726 -0.0923,-0.144354 -6.96e-4,-0.316526 0.07848,-0.147604 0.08357,-0.203381 0.0262,-0.288613 -0.100923,-0.149933 -0.277721,-0.130996 -0.49732,0.05342 -0.24552,0.206061 -0.251357,0.45681 -0.01835,0.784135 0.12355,0.173488 0.171945,0.313668 0.171945,0.498111 0,0.213765 0.03106,0.280101 0.18626,0.396695 0.198706,0.149322 0.267142,0.16564 0.410833,0.09764 z m -1.198884,-0.381081 c 0.01957,-0.03883 0.0077,-0.07061 -0.02531,-0.07061 -0.03338,0 -0.06069,0.03178 -0.06069,0.07061 0,0.03893 0.01138,0.07061 0.02531,0.07061 0.01393,0 0.04123,-0.03178 0.06069,-0.07061 z m 3.885958,-0.670305 c 0.0066,-0.03831 -0.03383,-0.08034 -0.08899,-0.0934 -0.06279,-0.01553 -0.10026,0.01987 -0.10026,0.09246 0,0.122942 0.169381,0.123874 0.1893,7.77e-4 z m -2.033992,-0.477921 c -0.01338,-0.17032 -0.04599,-0.229647 -0.126336,-0.229647 -0.05969,0 -0.134638,0.05136 -0.166728,0.114088 -0.0881,0.172039 -0.0077,0.345227 0.162306,0.345227 0.133256,0 0.146841,-0.02392 0.130758,-0.229637 z m 1.553894,-0.152739 c 0.04797,-0.07123 0.0493,-0.113301 0.0055,-0.147459 -0.06643,-0.05063 -0.229536,0.08086 -0.229536,0.185106 0,0.09764 0.150942,0.07237 0.225026,-0.03769 z m -3.556858,-0.433876 c 0.01813,-0.115175 0.0077,-0.120446 -0.07163,-0.03851 -0.109545,0.112068 -0.123175,0.243086 -0.021,0.201112 0.03935,-0.01615 0.08103,-0.08935 0.09263,-0.162617 z m 4.440803,0.0021 c -0.0178,-0.05695 -0.05527,-0.103687 -0.08346,-0.103687 -0.05881,0 -0.0692,0.166262 -0.01459,0.233603 0.06113,0.07527 0.13246,-0.01905 0.09794,-0.129919 z m 1.011618,0.07299 c 0,-0.05819 -0.02432,-0.106008 -0.05394,-0.106008 -0.07229,0 -0.124026,0.110363 -0.07826,0.166789 0.06456,0.07962 0.132173,0.04846 0.132173,-0.06088 z m 1.257902,-0.702692 c 0.09694,-0.12728 0.121937,-0.220287 0.09484,-0.353313 -0.05085,-0.249816 -0.201437,-0.229533 -0.243995,0.03293 -0.01901,0.117339 -0.05704,0.230558 -0.08456,0.251483 -0.07815,0.05964 -0.05836,0.241668 0.02609,0.241668 0.04189,0 0.135202,-0.07775 0.207606,-0.172743 z m -7.447669,-0.995383 c 0,-0.112836 -0.152313,-0.222172 -0.210148,-0.150865 -0.01835,0.02246 -0.01802,0.09008 6.96e-4,0.150088 0.04388,0.141257 0.209474,0.141878 0.209474,7.77e-4 z m 1.776688,-0.06844 c 0,-0.0584 -0.02432,-0.106008 -0.05394,-0.106008 -0.07229,0 -0.124026,0.110363 -0.07826,0.1668 0.06455,0.07962 0.132173,0.04846 0.132173,-0.06089 z M 27.3038,27.692912 c 0.05903,-0.117806 -0.07384,-0.252922 -0.152844,-0.155441 -0.0661,0.08148 -0.02465,0.232267 0.06378,0.232267 0.02774,0 0.06787,-0.03458 0.0891,-0.07683 z m 1.601493,14.814771 c -0.01559,-0.06119 -0.04123,-0.160909 -0.05671,-0.221665 -0.01559,-0.06087 0.01271,-0.208256 0.06301,-0.327749 0.05483,-0.130851 0.07804,-0.298334 0.05803,-0.420965 -0.02454,-0.151652 -0.0033,-0.234927 0.08379,-0.325854 0.06433,-0.0672 0.204786,-0.230683 0.312264,-0.363264 0.292677,-0.361068 0.295828,-0.170536 0.01393,0.843566 -0.176322,0.634377 -0.273,0.887424 -0.345338,0.904052 -0.05527,0.01242 -0.113281,-0.02703 -0.128956,-0.08811 z m 12.057753,-2.831805 c -0.09075,-0.06088 -0.163566,-0.184121 -0.184348,-0.312115 -0.02299,-0.141867 -0.09318,-0.249133 -0.21332,-0.3257 -0.172232,-0.109744 -0.175228,-0.119369 -0.07904,-0.250354 0.125772,-0.171345 0.176112,-0.170258 0.571934,0.01242 0.370022,0.170683 0.713857,0.511075 0.713857,0.706677 0,0.155246 -0.02222,0.162111 -0.182568,0.05633 -0.09473,-0.06253 -0.149506,-0.04877 -0.280485,0.07061 -0.18962,0.172847 -0.156955,0.168871 -0.346056,0.04225 z m -3.661274,-0.105853 c -0.07351,-0.0585 -0.07141,-0.06874 0.01437,-0.06957 0.05516,-5.28e-4 0.10026,0.03075 0.10026,0.06957 0,0.08614 -0.0066,0.08614 -0.114619,0 z m -0.967679,-0.627234 c -0.184293,-0.24321 -0.501487,-0.976745 -0.449876,-1.040359 0.06577,-0.08097 0.383176,0.21363 0.437628,0.406199 0.03029,0.106948 0.108329,0.25079 0.17357,0.319644 0.12512,0.132093 0.159167,0.407846 0.05969,0.483624 -0.03239,0.02464 -0.131853,-0.05136 -0.221036,-0.169108 z m 1.161256,-0.200511 c -0.142917,-0.02215 -0.199038,-0.08273 -0.278693,-0.30053 -0.100813,-0.27568 -0.08313,-0.426307 0.05007,-0.426307 0.04002,0 0.231538,-0.17707 0.425524,-0.393506 0.193987,-0.216435 0.372498,-0.378431 0.396695,-0.359992 0.07937,0.06037 0.03294,0.859293 -0.06301,1.088402 -0.05162,0.122931 -0.09363,0.272647 -0.09363,0.332875 0,0.110208 -0.05759,0.11796 -0.436865,0.05902 z m 0.931952,-0.126192 c 0.01813,-0.0584 0.05604,-0.106008 0.08412,-0.106008 0.02808,0 0.05118,0.04763 0.05118,0.106008 0,0.05819 -0.03791,0.106007 -0.08412,0.106007 -0.05129,0 -0.0713,-0.04142 -0.05118,-0.106007 z M 40.02413,38.51008 c -0.01957,-0.03882 -0.0077,-0.07082 0.02531,-0.07082 0.03338,0 0.06069,0.03178 0.06069,0.07082 0,0.03883 -0.01139,0.07061 -0.02531,0.07061 -0.01393,0 -0.04123,-0.03179 -0.06069,-0.07061 z m -3.903192,-0.960512 c -0.09705,-0.28621 -0.08788,-0.405475 0.02443,-0.319456 0.09241,0.07082 0.193909,0.573341 0.115835,0.573341 -0.02985,0 -0.09296,-0.114233 -0.140242,-0.253885 z M 33.46182,36.91603 c 0,-0.06067 0.02576,-0.09049 0.05737,-0.06658 0.0315,0.02402 0.05737,0.07362 0.05737,0.110208 0,0.03666 -0.02576,0.06658 -0.05737,0.06658 -0.0315,0 -0.05737,-0.04949 -0.05737,-0.110208 z m 5.502021,0.0031 c 0,-0.0584 0.0388,-0.106019 0.086,-0.106019 0.0472,0 0.086,0.04783 0.086,0.106019 0,0.05819 -0.0388,0.106008 -0.086,0.106008 -0.0472,0 -0.086,-0.04783 -0.086,-0.106008 z M 12.857929,36.389172 c 0.01957,-0.03893 0.04687,-0.07061 0.06069,-0.07061 0.01393,0 0.02531,0.03178 0.02531,0.07061 0,0.03883 -0.0273,0.07061 -0.06069,0.07061 -0.03338,0 -0.04477,-0.03178 -0.02531,-0.07061 z m -0.143282,-0.353405 c -0.07881,-0.0761 -0.233549,-0.173768 -0.343879,-0.217141 -0.110319,-0.04349 -0.255901,-0.159572 -0.323507,-0.258243 -0.10026,-0.146217 -0.179594,-0.182 -0.429846,-0.193389 -0.168806,-0.0073 -0.384303,-0.06803 -0.47887,-0.133947 -0.51179,-0.357279 -0.514564,-0.360809 -0.546356,-0.695889 -0.0168,-0.177039 -0.09705,-0.444861 -0.178246,-0.595147 -0.277123,-0.512709 -0.393003,-0.784434 -0.393003,-0.921674 0,-0.07548 -0.037141,-0.198865 -0.082463,-0.274303 -0.070414,-0.117039 -0.099707,-0.124173 -0.200597,-0.04825 -0.1073344,0.08076 -0.1181121,0.07237 -0.1181121,-0.09174 0,-0.104615 -0.063892,-0.253626 -0.1516941,-0.353975 C 9.3532559,32.120907 9.309471,31.990128 9.287982,31.714334 9.257362,31.32209 9.333746,31.067947 9.6241564,30.594975 c 0.083568,-0.135977 0.1930361,-0.346604 0.243376,-0.467961 0.050296,-0.121387 0.1463886,-0.238375 0.2134316,-0.259973 0.165345,-0.05321 0.126115,-0.298655 -0.04665,-0.291148 -0.1151061,0.0052 -0.1234851,-0.01999 -0.094845,-0.282649 0.017244,-0.158486 0.042337,-0.356046 0.055933,-0.439042 0.013486,-0.08304 -0.013928,-0.190231 -0.060907,-0.238282 -0.04698,-0.04794 -0.085337,-0.189879 -0.085337,-0.315108 0,-0.280847 -0.1214393,-0.418138 -0.4585091,-0.518383 -0.3487097,-0.103687 -1.0633069,0.0083 -1.2728798,0.198182 -0.085337,0.07765 -0.196717,0.141245 -0.2473444,0.141245 -0.1761676,0 -0.4250044,-0.216591 -0.4275247,-0.372125 -0.00103,-0.07703 0.3341073,-0.248585 0.5808327,-0.297102 0.115028,-0.02267 0.2427681,-0.09112 0.2838448,-0.152118 0.062787,-0.09328 0.056928,-0.123863 -0.037252,-0.192446 -0.098381,-0.07175 -0.080694,-0.08572 0.1459902,-0.116884 0.2051734,-0.02805 0.2613609,-0.06502 0.2747694,-0.180736 0.01846,-0.159096 0.3683195,-0.333672 0.910231,-0.454222 0.3108939,-0.06926 1.3291334,0.0557 1.6317474,0.200233 0.08346,0.03986 0.163865,0.05747 0.178688,0.03914 0.01481,-0.01833 0.185951,-0.06471 0.380291,-0.103333 0.432753,-0.08604 1.23817,0.02143 1.384293,0.184401 0.143227,0.159811 0.704671,0.116563 0.731333,-0.05632 0.01481,-0.09567 -0.02012,-0.123708 -0.153684,-0.123708 -0.209827,0 -0.289349,-0.118892 -0.108771,-0.162636 l 0.129796,-0.03147 -0.124987,-0.05125 c -0.06876,-0.02806 -0.13885,-0.09577 -0.155807,-0.150254 -0.01691,-0.05446 -0.10247,-0.09992 -0.190228,-0.101156 -0.154679,-0.001 -0.156005,-0.0062 -0.04477,-0.109114 0.130946,-0.122154 0.439397,-0.08366 0.721506,0.08977 0.09518,0.0585 0.263085,0.109589 0.373062,0.113457 0.167402,0.0062 0.197203,0.03054 0.183131,0.151807 -0.01348,0.115942 -0.06566,0.149323 -0.260388,0.166624 -0.277378,0.02485 -0.30635,0.101055 -0.101254,0.266589 0.115293,0.09307 0.221212,0.105389 0.558791,0.0644 0.465539,-0.05632 0.55983,-0.11734 0.55983,-0.361389 0,-0.152894 0.03526,-0.188035 0.157608,-0.15717 0.02365,0.0062 0.03482,0.06988 0.02498,0.141867 -0.0099,0.07206 0.02365,0.18233 0.0745,0.245054 0.154546,0.19054 0.07649,0.310966 -0.343072,0.529151 -0.657006,0.341676 -0.752214,0.404865 -0.945295,0.627233 -0.117913,0.13581 -0.171978,0.25285 -0.149759,0.324229 0.01912,0.06151 0.03482,0.139538 0.03482,0.173581 0,0.03396 0.166672,0.16416 0.370397,0.289151 0.349827,0.214655 0.370011,0.240499 0.363169,0.464896 -0.0044,0.130686 0.02012,0.271403 0.05361,0.312706 0.101033,0.124638 0.298723,-0.0062 0.382159,-0.251556 0.08291,-0.244713 0.576842,-0.653232 0.639253,-0.528749 0.03902,0.07775 0.139966,0.01677 0.139966,-0.08449 0,-0.03831 -0.04521,-0.06026 -0.10026,-0.04887 -0.153109,0.03168 -0.154579,-0.238366 -0.0033,-0.531264 0.110098,-0.212491 0.165511,-0.255096 0.335312,-0.257602 0.235693,-0.0031 0.341005,0.09888 0.341005,0.331342 0,0.209592 0.140485,0.276581 0.362881,0.173105 0.09573,-0.04453 0.182999,-0.06999 0.193953,-0.05632 0.01105,0.01397 0.02719,0.138917 0.03615,0.2786 0.01139,0.177919 0.06323,0.29969 0.173238,0.406324 0.203947,0.197789 0.182148,0.421286 -0.04985,0.510733 -0.09462,0.03645 -0.367391,0.08811 -0.606268,0.11502 -0.314078,0.0351 -0.48484,0.09297 -0.616781,0.208846 -0.206002,0.18084 -0.197789,0.288529 0.01813,0.23765 0.12417,-0.02919 0.144653,-0.0093 0.144653,0.146683 0,0.09929 0.02576,0.200367 0.05737,0.224398 0.11211,0.08541 0.05505,0.178623 -0.08324,0.135811 -0.219212,-0.06782 -0.699309,0.161249 -0.836777,0.399284 -0.06566,0.113612 -0.1784,0.22477 -0.250683,0.247134 -0.162748,0.05042 -0.64583,0.652465 -0.672481,0.838171 -0.01105,0.07517 -0.161433,0.257126 -0.334771,0.404492 -0.471829,0.401064 -0.591378,0.59641 -0.551992,0.901981 0.01791,0.139072 0.0077,0.300498 -0.022,0.358801 -0.04201,0.08169 -0.05494,0.06037 -0.05549,-0.09297 -10e-4,-0.355012 -0.08843,-0.45798 -0.430951,-0.510743 -0.224651,-0.03458 -0.341746,-0.02215 -0.405572,0.04318 -0.05018,0.05136 -0.20032,0.08479 -0.340817,0.07579 -0.245178,-0.01563 -0.659813,0.176512 -0.744233,0.344905 -0.02045,0.04069 -0.08666,0.287349 -0.147062,0.547944 -0.117261,0.505545 -0.08655,0.82087 0.10656,1.093464 0.135102,0.190676 0.501111,0.163653 0.674228,-0.0498 0.07738,-0.09546 0.140685,-0.206672 0.140685,-0.2473 0,-0.04069 0.05162,-0.07393 0.114619,-0.07393 0.139987,0 0.139987,0.03137 0,0.388628 -0.191135,0.487892 -0.153861,0.573353 0.234532,0.537591 0.203516,-0.01874 0.275997,0.116417 0.213895,0.398663 -0.05859,0.26662 -0.08335,0.27453 -0.276482,0.08811 z m -2.005949,-4.941961 c 0,-0.03665 -0.02576,-0.08614 -0.05737,-0.110197 -0.0315,-0.02402 -0.05737,0.0062 -0.05737,0.06647 0,0.06067 0.02576,0.110208 0.05737,0.110208 0.0315,0 0.05737,-0.02992 0.05737,-0.06658 z m 3.717518,-0.136121 c 0.11463,-0.07268 0.285525,-0.160722 0.379782,-0.19577 0.221655,-0.08242 0.269497,-0.308139 0.06533,-0.308139 -0.07937,0 -0.177936,-0.0585 -0.219123,-0.129919 -0.04123,-0.07154 -0.145814,-0.151486 -0.232499,-0.178002 -0.08932,-0.02713 -0.157608,-0.0967 -0.157608,-0.160215 0,-0.0616 -0.06323,-0.204809 -0.140607,-0.318121 -0.133743,-0.195976 -0.143525,-0.199331 -0.200155,-0.06895 -0.03272,0.07548 -0.150014,0.173965 -0.260587,0.218962 -0.110562,0.04503 -0.201017,0.111138 -0.201017,0.146993 0,0.03583 -6.97e-4,0.08915 -0.0022,0.118127 -0.001,0.02919 0.07738,0.06895 0.174775,0.08832 l 0.177052,0.03541 -0.146134,0.243377 c -0.16266,0.270896 -0.194562,0.56921 -0.06091,0.56921 0.04698,0 0.149008,-0.124484 0.226928,-0.276705 0.07793,-0.152108 0.165755,-0.295053 0.195203,-0.317479 0.08147,-0.06212 0.137467,0.310987 0.06323,0.421193 -0.06942,0.103222 -0.02929,0.243667 0.06964,0.243667 0.03327,0 0.154236,-0.05943 0.268855,-0.132095 z m -1.222419,-1.493152 c 0.04322,0 0.105456,-0.119214 0.138275,-0.265005 0.09363,-0.415529 0.08213,-0.463706 -0.09694,-0.408281 -0.215044,0.06647 -0.287525,0.152893 -0.330426,0.393775 -0.04355,0.243967 0.0077,0.375242 0.125673,0.319643 0.04665,-0.02205 0.120223,-0.04007 0.163445,-0.04007 z m 0.427846,0 c 0,-0.03893 -0.01139,-0.07061 -0.02531,-0.07061 -0.01393,0 -0.04123,0.03179 -0.06069,0.07061 -0.01957,0.03883 -0.0077,0.07061 0.02531,0.07061 0.03338,0 0.06069,-0.03179 0.06069,-0.07061 z m 2.112851,-0.109589 c 0.01813,-0.115341 0.0077,-0.120456 -0.07163,-0.03851 -0.109545,0.112068 -0.123186,0.243086 -0.021,0.201112 0.03935,-0.01615 0.08103,-0.08935 0.09263,-0.162617 z m 0.695474,-0.380885 c 0,-0.03665 -0.02576,-0.08614 -0.05737,-0.110208 -0.0315,-0.02392 -0.05737,0.0062 -0.05737,0.06658 0,0.06068 0.02576,0.110197 0.05737,0.110197 0.0315,0 0.05737,-0.02992 0.05737,-0.06647 z M 13.746273,28.82862 c 0,-0.03883 -0.02576,-0.07061 -0.05737,-0.07061 -0.0315,0 -0.05737,0.03178 -0.05737,0.07061 0,0.03893 0.02576,0.07061 0.05737,0.07061 0.0315,0 0.05737,-0.03179 0.05737,-0.07061 z m -1.232212,-0.282628 c 0,-0.05188 -0.03228,-0.107412 -0.07163,-0.123708 -0.04256,-0.0175 -0.07163,0.03262 -0.07163,0.123708 0,0.09112 0.02907,0.141091 0.07163,0.123707 0.03935,-0.01615 0.07163,-0.07185 0.07163,-0.123707 z m 0.819732,-0.255988 c 0.0088,-0.08314 -0.02034,-0.167835 -0.06754,-0.190105 -0.08943,-0.04235 -0.165479,0.04349 -0.227227,0.256432 -0.03095,0.106638 -0.01105,0.124483 0.120058,0.106018 0.109324,-0.01553 0.16256,-0.06803 0.17462,-0.172308 z m 0.355165,0.07931 c 0,-0.05881 -0.05096,-0.106008 -0.114619,-0.106008 -0.06367,0 -0.114619,0.047 -0.114619,0.106008 0,0.05881 0.05096,0.106019 0.114619,0.106019 0.06367,0 0.114619,-0.04721 0.114619,-0.106019 z m -0.859692,-0.38863 c 0,-0.03882 -0.03714,-0.07061 -0.08257,-0.07061 -0.04532,0 -0.09849,0.03179 -0.118012,0.07061 -0.01957,0.03893 0.01769,0.07061 0.08257,0.07061 0.06489,0 0.118002,-0.03178 0.118002,-0.07061 z m -0.282784,-0.214479 c 0.131852,-0.08697 0.145692,-0.2681 0.02487,-0.325254 -0.0472,-0.02236 -0.086,-0.101774 -0.086,-0.176656 0,-0.07476 0.03869,-0.154282 0.086,-0.176647 0.140341,-0.06647 0.10645,-0.308336 -0.043,-0.307228 -0.242426,0.001 -0.386869,0.08366 -0.386869,0.219253 0,0.09484 0.04112,0.133015 0.143271,0.133015 0.07882,0 0.143293,0.03178 0.143293,0.07061 0,0.03882 -0.02752,0.07061 -0.06124,0.07061 -0.03382,0 -0.04587,0.05943 -0.02697,0.133026 0.02156,0.08397 0.0022,0.148235 -0.05339,0.17443 -0.04831,0.02278 -0.08766,0.09018 -0.08766,0.149634 0,0.124949 0.183386,0.14342 0.347649,0.0351 z m 0.970531,-0.03272 c 0,-0.0584 -0.02509,-0.106008 -0.05593,-0.106008 -0.0315,0 -0.04079,-0.09236 -0.02155,-0.211983 0.02719,-0.167276 0.01437,-0.211974 -0.06058,-0.211974 -0.120278,0 -0.184569,0.195956 -0.09893,0.301523 0.0357,0.04411 0.06489,0.137209 0.06489,0.207232 0,0.06999 0.0388,0.127279 0.086,0.127279 0.0472,0 0.086,-0.04783 0.086,-0.106008 z m 0.236533,-0.07879 c 0.05626,-0.06274 0.177152,-0.118747 0.26869,-0.124493 0.204963,-0.01243 0.383795,-0.177536 0.302017,-0.278362 -0.03825,-0.047 -0.08434,-0.04297 -0.138451,0.01242 -0.04466,0.04566 -0.122423,0.06347 -0.172885,0.03955 -0.10236,-0.04825 -0.430343,0.235383 -0.435406,0.376609 -0.0044,0.119513 0.05339,0.111127 0.176035,-0.02578 z m 24.637167,7.67061 c 0,-0.08014 0.02465,-0.126658 0.05483,-0.103687 0.03018,0.02298 0.04035,0.08842 0.02255,0.14544 -0.04543,0.14605 -0.07727,0.128821 -0.07727,-0.04173 z M 14.652524,34.927921 c 0.04134,-0.02029 0.09086,-0.01781 0.109877,0.0062 0.01901,0.0236 -0.01481,0.04017 -0.07528,0.03706 -0.06677,-0.0031 -0.08036,-0.01999 -0.0346,-0.04266 z m 24.852863,-2.78397 c -0.01559,-0.03106 0.04963,-0.154903 0.144885,-0.275163 0.09529,-0.120146 0.176301,-0.288975 0.180037,-0.375067 0.0055,-0.123716 0.01592,-0.112068 0.05052,0.05539 0.08688,0.421265 0.06931,0.490717 -0.144885,0.573403 -0.111192,0.04287 -0.214956,0.0526 -0.230565,0.02143 z m 0.08888,-1.478056 c 0,-0.08946 0.117117,-0.08946 0.22926,0 0.06699,0.05342 0.05118,0.06874 -0.07163,0.06957 -0.08677,5.28e-4 -0.157619,-0.03075 -0.157619,-0.06957 z M 17.300533,29.835624 c 0.0033,-0.167318 0.103024,-0.241637 0.22108,-0.163776 0.174068,0.114854 0.150556,0.216786 -0.05007,0.216786 -0.09462,0 -0.171536,-0.02371 -0.171061,-0.0529 z m 5.959645,-0.619302 c 0,-0.05881 0.03106,-0.168353 0.06909,-0.243387 0.05903,-0.116407 0.04643,-0.162368 -0.08534,-0.313005 -0.09462,-0.108031 -0.141248,-0.219222 -0.120301,-0.286563 0.04742,-0.152584 0.193921,-0.138296 0.193921,0.01864 0,0.07082 0.07672,0.253637 0.170331,0.406293 0.235174,0.383184 0.227856,0.524896 -0.02708,0.524896 -0.140895,0 -0.200597,-0.03178 -0.200597,-0.106958 z M 22.68705,29.057246 c 0,-0.133171 0.101808,-0.299256 0.183397,-0.299256 0.09551,0 0.04079,0.280971 -0.06875,0.353303 -0.09529,0.06284 -0.114619,0.05373 -0.114619,-0.05404 z m -3.597205,-1.361742 c -0.15071,-0.07465 -0.242746,-0.32923 -0.242746,-0.671485 0,-0.195935 0.03195,-0.261247 0.171105,-0.349989 0.199912,-0.127425 0.294335,-0.445193 0.159885,-0.537963 -0.05229,-0.03604 -0.07638,-0.124329 -0.06102,-0.223476 0.01503,-0.09681 -0.02056,-0.233789 -0.08677,-0.334697 -0.09153,-0.139538 -0.165987,-0.171335 -0.40535,-0.17355 -0.358106,-0.0031 -0.413398,-0.128988 -0.0808,-0.18379 0.132836,-0.02184 0.288145,-0.09174 0.345139,-0.155369 0.06279,-0.06999 0.250362,-0.131162 0.474902,-0.155069 1.880718,-0.199838 2.485084,-0.215628 2.788351,-0.07299 0.246073,0.115952 0.251246,0.124173 0.137368,0.222586 -0.06865,0.05933 -0.133145,0.216436 -0.153584,0.374103 -0.02797,0.215669 -0.07561,0.298728 -0.230377,0.401468 -0.109434,0.07268 -0.182888,0.168768 -0.167302,0.218839 0.0178,0.05715 -0.02321,0.08925 -0.113691,0.08925 -0.101586,0 -0.141469,0.03851 -0.141469,0.136588 0,0.146682 -0.05859,0.179399 -0.458509,0.255542 -0.141845,0.02703 -0.330039,0.112059 -0.418195,0.188977 -0.08821,0.07682 -0.263118,0.15687 -0.388791,0.177661 -0.17829,0.02951 -0.287858,0.114078 -0.498801,0.38481 -0.148666,0.190881 -0.278915,0.377332 -0.289416,0.414348 -0.02343,0.08242 -0.166507,0.07993 -0.339933,-0.0062 z m -2.249678,-0.423666 c -0.06124,-0.141247 -0.0493,-0.177569 0.109324,-0.330628 0.09794,-0.09453 0.178213,-0.211362 0.178213,-0.259539 0,-0.16504 -0.330073,-0.396799 -0.565147,-0.396799 -0.195523,0 -0.241143,0.03179 -0.339248,0.236833 -0.06234,0.130229 -0.168031,0.254465 -0.234908,0.276022 -0.160361,0.05167 -0.153562,-10e-4 0.02167,-0.172163 0.143204,-0.138928 0.194141,-0.340692 0.086,-0.340692 -0.0315,0 -0.05737,-0.04856 -0.05737,-0.108186 0,-0.145594 0.171437,-0.219117 0.231538,-0.09919 0.03924,0.07838 0.06787,0.07362 0.157475,-0.0264 0.133831,-0.149312 0.651512,-0.123087 0.802963,0.04079 0.05361,0.05809 0.155585,0.127279 0.226508,0.153971 0.08511,0.03199 0.128956,0.103853 0.128956,0.211735 0,0.09018 0.0577,0.211518 0.128945,0.271135 0.101475,0.08491 0.11421,0.126658 0.05969,0.196412 -0.05549,0.07092 -0.08666,0.07061 -0.156867,-0.0021 -0.147737,-0.151186 -0.276008,-0.03604 -0.232422,0.208692 0.02841,0.159759 0.01724,0.212034 -0.04554,0.212034 -0.04576,0 -0.161577,0.01937 -0.257172,0.04287 -0.14148,0.0349 -0.186635,0.01397 -0.24269,-0.115798 z m 4.944202,-0.04453 c -0.142718,-0.07092 -0.0661,-0.146828 0.192196,-0.190551 0.337335,-0.05715 0.449102,0.02392 0.1915,0.138606 -0.217355,0.09681 -0.277135,0.104925 -0.383696,0.05188 z m -6.174855,-0.09556 c 0.01979,-0.03955 0.06002,-0.05353 0.08932,-0.03116 0.07948,0.06057 0.06467,0.102913 -0.03592,0.102913 -0.04908,0 -0.07318,-0.0323 -0.05328,-0.07185 z m 25.646828,-0.140159 c -0.06986,-0.0557 -0.06257,-0.06874 0.03957,-0.06968 0.06909,-5.27e-4 0.141514,0.03075 0.160991,0.06968 0.0451,0.09008 -0.08766,0.09008 -0.200586,0 z M 28.532928,26.053382 c 0,-0.126658 0.165733,-0.404357 0.241386,-0.404357 0.0346,0 0.02023,0.05819 -0.03195,0.129298 -0.05217,0.07113 -0.09484,0.182371 -0.09484,0.247321 0,0.06502 -0.02576,0.118116 -0.05737,0.118116 -0.0315,0 -0.05737,-0.04069 -0.05737,-0.09029 z m -13.325183,-0.05105 c -0.01957,-0.03883 0.0066,-0.07061 0.05737,-0.07061 0.05096,0 0.07682,0.03178 0.05737,0.07061 -0.01957,0.03893 -0.04532,0.07061 -0.05737,0.07061 -0.01205,0 -0.03781,-0.03179 -0.05737,-0.07061 z m 1.805351,-0.741943 c -0.03924,-0.0584 -0.145559,-0.106019 -0.236268,-0.106019 -0.09075,0 -0.164926,-0.03116 -0.164926,-0.06926 0,-0.10865 0.247079,-0.157668 0.409882,-0.08138 0.10645,0.05001 0.169613,0.04411 0.227017,-0.02112 0.107002,-0.121543 1.360947,-0.290413 1.439275,-0.193854 0.03935,0.04856 -0.03195,0.08811 -0.220925,0.122465 -0.15354,0.02796 -0.471995,0.141712 -0.707689,0.252912 -0.484021,0.228509 -0.643531,0.249091 -0.746366,0.09639 z m 8.138401,-0.02774 c 0,-0.07796 0.148698,-0.153982 0.193423,-0.09888 0.01802,0.02215 0.01901,0.06772 0.0022,0.101055 -0.04024,0.08024 -0.195655,0.07837 -0.195655,-0.001 z"
       id="path3319"
       inkscape:connector-curvature="0" />
  </g>
</svg>
