<?xml version="1.0" encoding="UTF-8" standalone="no"?>
<!-- Created with Inkscape (http://www.inkscape.org/) -->

<svg
   xmlns:dc="http://purl.org/dc/elements/1.1/"
   xmlns:cc="http://creativecommons.org/ns#"
   xmlns:rdf="http://www.w3.org/1999/02/22-rdf-syntax-ns#"
   xmlns:svg="http://www.w3.org/2000/svg"
   xmlns="http://www.w3.org/2000/svg"
   xmlns:sodipodi="http://sodipodi.sourceforge.net/DTD/sodipodi-0.dtd"
   xmlns:inkscape="http://www.inkscape.org/namespaces/inkscape"
   width="64px"
   height="64px"
   id="svg3513"
   version="1.1"
   inkscape:version="0.48.5 r10040"
   sodipodi:docname="MimeVRT.svg">
  <defs
     id="defs3515" />
  <sodipodi:namedview
     id="base"
     pagecolor="#ffffff"
     bordercolor="#666666"
     borderopacity="1.0"
     inkscape:pageopacity="0.0"
     inkscape:pageshadow="2"
     inkscape:zoom="15.556349"
     inkscape:cx="29.286701"
     inkscape:cy="30.431648"
     inkscape:current-layer="layer1"
     showgrid="true"
     inkscape:document-units="px"
     inkscape:grid-bbox="true"
     inkscape:window-width="1920"
     inkscape:window-height="992"
     inkscape:window-x="-4"
     inkscape:window-y="-1"
     inkscape:window-maximized="1" />
  <metadata
     id="metadata3518">
    <rdf:RDF>
      <cc:Work
         rdf:about="">
        <dc:format>image/svg+xml</dc:format>
        <dc:type
           rdf:resource="http://purl.org/dc/dcmitype/StillImage" />
        <dc:title />
      </cc:Work>
    </rdf:RDF>
  </metadata>
  <g
     id="layer1"
     inkscape:label="Layer 1"
     inkscape:groupmode="layer">
    <g
       id="g3092">
      <rect
         y="13.769343"
         x="17.798641"
         height="33.188591"
         width="33.129997"
         id="rect3167-8-3"
         style="fill:#ffffff;stroke:#806600;stroke-width:1.87165701000000007;stroke-linecap:round;stroke-linejoin:round;stroke-miterlimit:4;stroke-opacity:1;stroke-dasharray:none" />
      <path
         inkscape:connector-curvature="0"
         id="path3319-6-1"
         d="m 21.97154,42.54271 c -0.37071,-0.15242 -0.77584,-0.32867 -0.90027,-0.3917 -0.22434,-0.11358 -0.22521,-0.11528 -0.1037,-0.19835 0.0674,-0.0461 0.17632,-0.0848 0.24202,-0.0861 0.0657,-9.5e-4 0.32235,-0.07 0.57033,-0.15262 0.7605,-0.25358 1.15015,-0.29958 2.03222,-0.23994 0.44199,0.0299 0.83863,0.072 0.88141,0.0938 0.0427,0.0217 0.11184,0.0126 0.15348,-0.0198 0.0648,-0.0509 0.0615,-0.0787 -0.0221,-0.19259 l -0.0978,-0.13325 0.38503,0.0469 c 0.66965,0.0815 1.82493,0.0633 1.85001,-0.0292 0.0126,-0.0466 -0.0474,-0.11108 -0.14054,-0.15109 -0.20747,-0.0892 -0.17568,-0.21515 0.0543,-0.21515 0.17027,0 0.17676,-0.008 0.17825,-0.24691 9.4e-4,-0.17997 0.0343,-0.27959 0.1224,-0.36755 0.16565,-0.16536 0.21306,-0.15173 0.21306,0.0613 0,0.10068 0.0463,0.23351 0.10369,0.29756 0.057,0.0636 0.1037,0.15043 0.1037,0.19289 0,0.0424 0.07,0.18577 0.15554,0.31849 0.0856,0.13269 0.15555,0.28121 0.15555,0.32999 0,0.11683 0.15599,0.185 0.78428,0.34286 1.12728,0.28322 1.57833,0.20185 2.48214,-0.44775 0.15197,-0.10924 0.60113,-0.26857 0.93325,-0.3311 0.18536,-0.0348 0.92031,-0.0757 1.63322,-0.0909 1.92011,-0.0406 2.11597,-0.052 2.22946,-0.13143 0.057,-0.0399 0.20868,-0.0918 0.33701,-0.11543 0.12832,-0.0236 0.36921,-0.1032 0.53528,-0.17679 0.29327,-0.13003 0.30752,-0.13059 0.49256,-0.0202 0.10482,0.0627 0.35391,0.12637 0.55351,0.14173 0.22666,0.0175 0.43658,0.0764 0.55906,0.1568 0.14847,0.0974 0.24605,0.11836 0.40155,0.0861 0.11298,-0.0236 0.21696,-0.0658 0.23105,-0.0939 0.0141,-0.0281 0.10519,-0.0695 0.20245,-0.092 0.0973,-0.0225 0.20737,-0.0863 0.24468,-0.1417 0.0567,-0.0841 0.14534,-0.0941 0.53666,-0.0599 0.33856,0.0295 0.5048,0.0178 0.59842,-0.042 0.16368,-0.10446 0.71567,-0.0967 0.93079,0.0126 0.12791,0.0653 0.20674,0.0674 0.36314,0.01 0.13267,-0.049 0.24315,-0.0534 0.32897,-0.0126 0.073,0.0341 0.46433,0.0456 0.89932,0.0264 0.42356,-0.0188 0.80511,-0.0352 0.84788,-0.0368 0.17765,-0.006 0.71099,0.13944 0.85549,0.23313 0.0856,0.0555 0.23756,0.1011 0.33778,0.10124 0.10023,1.5e-4 0.2693,0.0579 0.37571,0.1282 0.10641,0.0703 0.25189,0.12778 0.32328,0.12778 0.24652,0 0.12868,0.1143 -0.22016,0.21356 -0.56059,0.15951 -0.96965,0.37978 -0.98773,0.53187 -0.0145,0.12146 0.0102,0.13087 0.33701,0.12707 0.19392,-9.3e-4 0.51344,0.0209 0.71004,0.0512 0.46696,0.0722 0.41308,0.11964 -0.6128,0.54075 l -0.79248,0.32527 -10.85669,-9.3e-4 -10.85669,-9.4e-4 -0.67402,-0.27711 z m 3.81082,-3.93842 c 0,-0.0351 0.022,-0.0639 0.0488,-0.0639 0.0268,0 0.0632,0.0288 0.0808,0.0639 0.0177,0.0351 -0.005,0.0639 -0.0488,0.0639 -0.0444,0 -0.0809,-0.0288 -0.0809,-0.0639 z m -0.32443,-0.14492 c -0.18352,-0.1751 -0.45796,-0.65023 -0.44824,-0.77596 0.006,-0.0735 -0.003,-0.17701 -0.0194,-0.22975 -0.0164,-0.0528 -0.0398,-0.2479 -0.0521,-0.43369 -0.0126,-0.19071 -0.0558,-0.37165 -0.0991,-0.4155 -0.11861,-0.12005 -0.20104,-0.57056 -0.16452,-0.89909 0.0181,-0.16248 0.007,-0.41807 -0.0244,-0.56801 -0.0315,-0.14992 -0.0685,-0.65674 -0.0823,-1.12627 -0.0274,-0.93534 -0.0692,-1.08742 -0.35051,-1.27788 -0.3018,-0.2043 -0.38775,-0.32454 -0.60908,-0.85206 -0.12281,-0.29269 -0.28161,-0.62823 -0.35291,-0.74564 -0.1103,-0.18164 -0.12095,-0.23704 -0.0713,-0.37122 0.0321,-0.0867 0.0445,-0.22531 0.0278,-0.30791 -0.0338,-0.16598 0.0321,-0.35301 0.22464,-0.63833 0.11212,-0.16609 0.12482,-0.23661 0.1065,-0.59128 -0.015,-0.28912 -0.003,-0.40272 0.0427,-0.40272 0.0349,0 0.11769,-0.083 0.18392,-0.18455 0.0662,-0.10152 0.17292,-0.2041 0.23708,-0.22803 0.0998,-0.0372 0.11665,-0.0199 0.11665,0.12061 0,0.10321 0.0289,0.1641 0.0778,0.1641 0.0437,0 0.0778,-0.057 0.0778,-0.12988 0,-0.16324 0.1312,-0.23033 0.23758,-0.12146 0.0444,0.0455 0.21134,0.0873 0.37099,0.0932 0.22035,0.008 0.32253,0.0458 0.42414,0.15649 0.0736,0.0802 0.22142,0.2428 0.32843,0.36134 0.13181,0.14598 0.24602,0.21552 0.35398,0.21552 0.207,0 0.43554,0.27847 0.5106,0.62217 0.0612,0.28064 0.23332,0.46452 0.43458,0.46452 0.0679,0 0.16389,0.0552 0.21336,0.12259 0.0541,0.0737 0.19677,0.14059 0.35801,0.16784 0.24507,0.0414 0.38456,0.13353 0.66987,0.44238 0.13523,0.14637 0.11243,0.28733 -0.11687,0.72241 -0.18106,0.34355 -0.21019,0.45032 -0.22781,0.83512 -0.0252,0.54855 -0.18488,1.03368 -0.34041,1.03368 -0.11506,0 -0.48633,0.26394 -0.55003,0.39099 -0.0211,0.0421 -0.0353,0.1753 -0.0317,0.29596 0.005,0.15796 -0.051,0.32652 -0.1993,0.60176 -0.11329,0.21029 -0.20599,0.42566 -0.20599,0.4786 0,0.0708 -0.0473,0.0912 -0.17869,0.0773 -0.23407,-0.0248 -0.26107,0.02 -0.15889,0.26351 0.10076,0.2402 0.0515,0.34997 -0.18291,0.40778 -0.10205,0.0251 -0.17228,0.0935 -0.20495,0.19948 -0.0274,0.0886 -0.0853,0.16118 -0.12877,0.16118 -0.0924,0 -0.10065,0.0865 -0.025,0.26064 0.0404,0.0931 0.0315,0.18277 -0.0353,0.35654 -0.0877,0.2279 -0.0872,0.23431 0.0281,0.34947 0.1057,0.1056 0.11163,0.1393 0.059,0.33597 -0.0322,0.12019 -0.0443,0.28842 -0.027,0.37366 0.0413,0.203 -0.0767,0.33812 -0.19584,0.22435 z m 1.77617,-5.03285 c 0,-0.0351 -0.0233,-0.0639 -0.0519,-0.0639 -0.0285,0 -0.0519,0.0288 -0.0519,0.0639 0,0.0351 0.0233,0.0639 0.0519,0.0639 0.0285,0 0.0519,-0.0288 0.0519,-0.0639 z m 22.13903,3.90956 c 0,-0.0524 0.22813,-0.20412 0.30056,-0.1999 0.0523,0.003 -0.1991,0.25356 -0.25446,0.25356 -0.0253,0 -0.0461,-0.0242 -0.0461,-0.0537 z m -1.94296,-0.519 c -0.0186,-0.0372 0.004,-0.0852 0.0495,-0.10685 0.11406,-0.0541 0.14954,0.006 0.0588,0.0983 -0.0511,0.0524 -0.085,0.0551 -0.10823,0.008 z m 3.32747,-0.54397 c 0.085,-0.144 0.17093,-0.20927 0.17093,-0.12989 0,0.0433 -0.20024,0.28766 -0.23574,0.28766 -0.0156,0 0.0136,-0.0711 0.0648,-0.15779 z m -3.44159,-0.16575 c -0.0607,-0.0261 -0.10856,-0.15404 -0.1445,-0.38522 -0.0508,-0.32674 -0.0617,-0.34484 -0.19638,-0.32541 -0.10381,0.0149 -0.14259,-0.008 -0.14259,-0.0832 0,-0.0587 -0.081,-0.14544 -0.18617,-0.19963 -0.1554,-0.08 -0.23469,-0.0833 -0.4796,-0.0197 -0.16138,0.042 -0.37057,0.12974 -0.46488,0.19505 -0.0943,0.0653 -0.24087,0.11879 -0.32572,0.11879 -0.0848,0 -0.23928,0.0438 -0.34322,0.0973 -0.20431,0.10531 -0.33748,0.0428 -0.23608,-0.11065 0.03,-0.0455 0.065,-0.42544 0.0778,-0.84447 0.0222,-0.73104 0.0287,-0.76729 0.16002,-0.89638 0.0753,-0.074 0.27648,-0.18564 0.44716,-0.2481 0.20851,-0.0762 0.34458,-0.17019 0.41484,-0.28618 0.0575,-0.0949 0.12577,-0.19733 0.15168,-0.22751 0.0259,-0.0302 0.12926,-0.15087 0.22967,-0.26822 0.17056,-0.19934 0.19332,-0.20834 0.34638,-0.13705 0.13636,0.0635 0.17128,0.0601 0.20836,-0.0195 0.11889,-0.25529 0.20117,-0.33055 0.39672,-0.3629 0.24316,-0.0402 0.31152,0.0366 0.2201,0.24717 -0.0558,0.12863 -0.0397,0.16591 0.16611,0.38617 0.13228,0.1415 0.2713,0.23654 0.33133,0.2265 0.11974,-0.02 0.27927,-0.38119 0.28295,-0.64054 0.003,-0.19392 0.10618,-0.24824 0.10618,-0.0557 0,0.066 0.0321,0.15276 0.0711,0.19279 0.0392,0.04 0.083,0.20355 0.0977,0.36337 0.0146,0.15984 0.0722,0.35356 0.12783,0.43047 0.0557,0.0769 0.17478,0.31778 0.26462,0.53525 0.17496,0.42353 0.17885,0.61998 0.02,1.01091 -0.11575,0.28489 -0.8346,1.20616 -0.99048,1.26937 -0.17031,0.0689 -0.49192,0.0886 -0.61095,0.0372 z M 34.39311,35.45142 c -0.0308,-0.0377 -0.0558,-0.13368 -0.0558,-0.21288 0,-0.16836 -0.0855,-0.43051 -0.22005,-0.67512 -0.0525,-0.0955 -0.10993,-0.32557 -0.12759,-0.5114 -0.0177,-0.18582 -0.10017,-0.52482 -0.18338,-0.75335 -0.1639,-0.45019 -0.16584,-0.72322 -0.007,-1.10005 0.14446,-0.34442 -0.003,-1.13598 -0.29562,-1.59226 -0.16629,-0.25885 -0.1709,-0.32043 -0.0649,-0.86585 0.0362,-0.18598 -0.14727,-0.40507 -0.33908,-0.40507 -0.10235,0 -0.17641,-0.0504 -0.23452,-0.1598 -0.0982,-0.18475 -0.22641,-0.19777 -0.52325,-0.0531 -0.11407,0.0555 -0.32405,0.1063 -0.46663,0.11261 -0.14258,0.008 -0.31937,0.0334 -0.39287,0.0601 -0.10918,0.0396 -0.17562,0.006 -0.36294,-0.1852 -0.12611,-0.12849 -0.25262,-0.29766 -0.28114,-0.37583 -0.0285,-0.0782 -0.12768,-0.25946 -0.22035,-0.4029 -0.18127,-0.28054 -0.2046,-0.46258 -0.10948,-0.85401 0.0418,-0.17217 0.0436,-0.31799 0.006,-0.50084 -0.0498,-0.24203 -0.0398,-0.28557 0.16132,-0.70461 0.12237,-0.25487 0.29236,-0.5106 0.39591,-0.59558 0.11748,-0.0965 0.20518,-0.23764 0.24871,-0.40052 0.0369,-0.13831 0.15283,-0.3482 0.25743,-0.46633 0.15365,-0.17354 0.21905,-0.20769 0.34037,-0.17776 0.0961,0.0237 0.23671,-0.0112 0.39067,-0.0952 0.15106,-0.0832 0.40246,-0.14543 0.67608,-0.16772 l 0.43559,-0.0354 -0.0307,0.23286 c -0.0338,0.25615 0.0498,0.36527 0.3442,0.44972 0.0812,0.0233 0.21227,0.10125 0.2911,0.17302 0.1982,0.18066 0.48371,0.19379 0.51147,0.0236 0.0331,-0.20292 0.092,-0.20969 0.46881,-0.054 0.28748,0.11894 0.41908,0.13929 0.69457,0.10756 0.18693,-0.0216 0.36516,-0.0584 0.39605,-0.0819 0.0309,-0.0236 0.0715,-0.22375 0.0902,-0.44492 0.0373,-0.44004 -0.0126,-0.54816 -0.21071,-0.45623 -0.0594,0.0275 -0.16268,0.025 -0.22947,-0.006 -0.0668,-0.0307 -0.14395,-0.0388 -0.17146,-0.0178 -0.096,0.0731 -0.28604,-0.0361 -0.3463,-0.19914 -0.0865,-0.2341 -0.0763,-0.28621 0.0559,-0.28584 0.0641,1.5e-4 0.22759,-0.0487 0.36317,-0.10869 0.20455,-0.0904 0.27579,-0.0959 0.41847,-0.0323 0.18599,0.083 0.44398,0.0998 0.57512,0.0378 0.15192,-0.0719 0.0882,-0.27812 -0.15002,-0.48509 -0.18624,-0.16185 -0.22634,-0.22958 -0.2032,-0.34329 0.0159,-0.0779 0.003,-0.16194 -0.0304,-0.18674 -0.0822,-0.0627 -0.36402,0.0912 -0.36402,0.19871 0,0.11794 -0.085,0.11247 -0.12245,-0.007 -0.0172,-0.0554 -0.0947,-0.0959 -0.18278,-0.0959 -0.11939,0 -0.17801,0.05 -0.26716,0.22784 -0.0628,0.12525 -0.12055,0.31948 -0.1283,0.43147 -0.0108,0.15583 -0.0367,0.20033 -0.11036,0.1895 -0.053,-0.008 -0.16236,0.0183 -0.24313,0.0579 -0.13409,0.0659 -0.14382,0.0919 -0.11201,0.30092 l 0.0349,0.22888 -0.10879,-0.12133 c -0.0598,-0.0669 -0.13637,-0.23485 -0.17008,-0.37354 -0.0444,-0.18282 -0.11804,-0.29637 -0.26767,-0.41282 -0.11353,-0.0883 -0.25346,-0.2147 -0.31098,-0.28076 -0.15123,-0.1737 -0.29243,-0.15635 -0.29243,0.036 0,0.0858 0.0232,0.17371 0.0515,0.19532 0.0283,0.0216 0.0758,0.0952 0.10553,0.16359 0.0883,0.20338 -0.0308,0.14671 -0.23414,-0.11149 -0.17683,-0.22449 -0.1939,-0.23214 -0.35615,-0.15981 -0.0937,0.0419 -0.24459,0.076 -0.33524,0.076 -0.0907,0 -0.16483,0.0276 -0.16483,0.0613 0,0.0338 -0.0933,0.17537 -0.20739,0.31461 -0.11407,0.1393 -0.20739,0.29409 -0.20739,0.34414 0,0.23205 -0.4296,0.42855 -0.63938,0.29245 -0.15155,-0.0983 -0.19389,-0.1896 -0.15652,-0.33736 0.0172,-0.0681 0.0349,-0.21189 0.0391,-0.31961 l 0.007,-0.19588 0.3601,-0.0192 c 0.20721,-0.0112 0.37686,-0.0517 0.39961,-0.0959 0.0679,-0.13156 0.0449,-0.44503 -0.0413,-0.56242 -0.0765,-0.10418 -0.07,-0.12019 0.0907,-0.22164 0.0952,-0.0602 0.30758,-0.23482 0.47186,-0.38814 0.16429,-0.15335 0.32577,-0.2788 0.35885,-0.2788 0.0331,0 0.097,-0.0402 0.14201,-0.0894 0.0612,-0.067 0.14693,-0.0768 0.34109,-0.0397 0.14258,0.0273 0.31481,0.0236 0.38274,-0.008 0.068,-0.0318 0.1659,-0.0413 0.21771,-0.0209 0.10617,0.0416 0.30688,-0.16856 0.30688,-0.32125 0,-0.0608 0.0496,-0.0959 0.13567,-0.0959 0.11013,0 0.13056,-0.024 0.10856,-0.12778 -0.0321,-0.15147 0.0516,-0.23618 0.1336,-0.13507 0.0895,0.11036 0.17761,0.0844 0.20855,-0.0615 0.017,-0.0802 0.0655,-0.12793 0.1227,-0.12049 0.17844,0.023 0.22419,-0.003 0.22419,-0.12609 0,-0.15579 -0.18549,-0.23413 -0.29326,-0.12385 -0.0676,0.0692 -0.0928,0.0628 -0.1533,-0.0393 -0.0398,-0.0672 -0.059,-0.17394 -0.0427,-0.2373 0.0164,-0.0635 0.007,-0.11529 -0.0217,-0.11529 -0.0869,0 -0.3704,0.32532 -0.3704,0.42495 0,0.0517 -0.0233,0.0762 -0.0519,0.0545 -0.0938,-0.0715 -0.0542,-0.24856 0.0865,-0.3869 0.0917,-0.0901 0.12721,-0.1718 0.10532,-0.24211 -0.0566,-0.18156 -0.2427,-0.11739 -0.48039,0.16557 -0.22154,0.26374 -0.29229,0.50425 -0.17467,0.59386 0.037,0.0282 0.0302,0.0769 -0.0206,0.14761 -0.0417,0.0582 -0.0842,0.16304 -0.0946,0.23336 -0.023,0.15624 -0.22535,0.20691 -0.26881,0.0674 -0.019,-0.0608 -0.003,-0.0993 0.0422,-0.0993 0.0402,0 0.0882,-0.0301 0.10653,-0.0667 0.0428,-0.0855 -0.0748,-0.26374 -0.14086,-0.21344 -0.0275,0.0209 -0.12399,0.0461 -0.21449,0.056 -0.0905,0.01 -0.21382,0.0379 -0.27405,0.0624 -0.0864,0.0349 -0.11635,0.0126 -0.14188,-0.10475 -0.0566,-0.26034 -0.0392,-0.29722 0.22332,-0.47331 0.14139,-0.0949 0.35212,-0.31148 0.46827,-0.48131 0.1797,-0.26275 0.26315,-0.32779 0.55952,-0.43616 0.2816,-0.10292 0.38806,-0.11485 0.55573,-0.0619 0.11406,0.0361 0.3357,0.10307 0.49255,0.14918 0.33067,0.0972 0.57032,0.20778 0.57032,0.26332 0,0.0214 -0.11017,0.0293 -0.24483,0.0175 -0.2877,-0.025 -0.34401,0.0852 -0.16475,0.32248 0.0886,0.11724 0.14598,0.13999 0.2738,0.10882 0.0889,-0.0217 0.19671,-0.0945 0.23947,-0.16173 0.0427,-0.0672 0.17111,-0.14179 0.28517,-0.16573 0.11407,-0.0239 0.26354,-0.087 0.33217,-0.14029 0.0713,-0.0554 0.29243,-0.10825 0.51617,-0.1237 0.21528,-0.0149 0.42152,-0.0579 0.45834,-0.0955 0.0477,-0.0489 0.13329,-0.0479 0.29746,0.003 0.12679,0.0394 0.25519,0.0716 0.28534,0.0716 0.0853,0 0.0644,-0.17876 -0.0283,-0.24275 -0.0913,-0.0629 -0.0819,-0.27546 0.0138,-0.31478 0.0882,-0.0361 0.38268,0.52249 0.36741,0.69694 -0.0195,0.22371 0.17422,0.19656 0.26508,-0.0371 0.0669,-0.17228 0.0634,-0.1937 -0.0512,-0.30316 -0.10476,-0.10012 -0.11157,-0.12721 -0.0454,-0.18119 0.10181,-0.083 0.34363,-0.0825 0.47005,7e-4 0.12703,0.0838 0.13785,-0.0338 0.0111,-0.12132 -0.19235,-0.13269 0.30448,-0.45257 0.71131,-0.45793 0.0998,-0.002 0.22389,-0.042 0.27576,-0.0906 0.0688,-0.0643 0.13878,-0.0724 0.2589,-0.0299 0.0905,0.032 0.24641,0.0587 0.34641,0.0591 0.1,4.6e-4 0.21681,0.0299 0.25958,0.0652 0.0678,0.0559 0.0662,0.0726 -0.013,0.13003 -0.15004,0.1091 -0.10285,0.19114 0.10369,0.1804 0.10694,-0.006 0.5094,0.0126 0.89438,0.04 0.56109,0.0402 0.72464,0.0737 0.82441,0.16916 0.10457,0.1 0.17918,0.11247 0.46663,0.0782 0.18819,-0.0225 0.36433,-0.066 0.39142,-0.0966 0.0754,-0.0855 0.43985,-0.0667 0.77195,0.04 0.16422,0.0528 0.41485,0.0959 0.55695,0.0959 0.14211,0 0.34446,0.0444 0.44966,0.0986 0.13941,0.0719 0.38149,0.0991 0.89272,0.10067 0.50314,9.4e-4 0.82375,0.0371 1.13415,0.1254 0.45221,0.12876 0.69115,0.24485 0.51187,0.24864 -0.13477,0.003 -0.16783,0.17897 -0.061,0.32459 0.0892,0.12147 0.0884,0.13158 -0.0182,0.27163 -0.0765,0.1004 -0.17691,0.14873 -0.32418,0.15598 -0.39394,0.0194 -0.46396,0.23358 -0.17827,0.54541 0.1489,0.16252 0.18147,0.24281 0.18147,0.44733 0,0.13705 -0.0216,0.23966 -0.0479,0.22795 -0.0792,-0.0352 -0.52245,-0.5674 -0.52245,-0.62721 0,-0.0304 0.0276,-0.20255 0.0611,-0.38223 0.0529,-0.28284 0.0498,-0.34069 -0.0233,-0.43088 -0.0721,-0.0889 -0.097,-0.0914 -0.17003,-0.0167 -0.0489,0.0501 -0.17233,0.0797 -0.28826,0.0695 -0.18569,-0.0166 -0.20518,-0.003 -0.232,0.16268 l -0.0293,0.18073 -0.45247,-0.0219 c -0.48959,-0.0236 -0.51717,-0.008 -0.6158,0.34148 -0.0297,0.10546 -0.07,0.24016 -0.0895,0.2993 -0.0421,0.12778 0.20003,0.30796 0.41368,0.30796 0.20282,0 0.4407,0.17462 0.4407,0.32351 0,0.0706 0.0352,0.19458 0.0781,0.27535 0.0629,0.11838 0.0681,0.21194 0.0265,0.48213 -0.064,0.41627 -0.0826,0.45318 -0.22689,0.45318 -0.14812,0 -0.24062,0.11402 -0.24062,0.29666 0,0.0788 -0.0233,0.16103 -0.0519,0.18277 -0.0906,0.0691 -0.0567,0.16528 0.12962,0.36879 0.17806,0.19434 0.23169,0.38443 0.13027,0.4617 -0.0281,0.0215 -0.089,-0.0776 -0.13524,-0.21996 -0.0463,-0.14242 -0.11384,-0.25898 -0.15024,-0.25898 -0.0364,0 -0.10439,-0.0719 -0.1511,-0.15979 -0.0538,-0.10122 -0.13334,-0.15979 -0.21706,-0.15979 -0.0727,0 -0.16613,-0.042 -0.2077,-0.0931 -0.0974,-0.12019 -0.1839,-0.0759 -0.33096,0.16935 l -0.11863,0.19782 0.1237,0.11724 c 0.0681,0.0644 0.17702,0.11795 0.24218,0.11865 0.10383,0.002 0.11135,0.0178 0.0609,0.13425 -0.0317,0.0731 -0.0439,0.17738 -0.0268,0.23184 0.0169,0.0543 0.005,0.13816 -0.0278,0.18601 -0.0672,0.0998 0.0126,0.1581 0.18421,0.13452 0.074,-0.01 0.13162,0.0633 0.21261,0.27125 0.10783,0.27677 0.10852,0.29436 0.0234,0.59234 -0.0937,0.32805 -0.28408,0.62461 -0.40097,0.62461 -0.0392,0 -0.14589,0.0476 -0.23703,0.10573 -0.0912,0.0582 -0.2652,0.10097 -0.38678,0.0953 -0.19783,-0.01 -0.23188,0.0112 -0.32407,0.19797 -0.0567,0.11459 -0.1031,0.22891 -0.10319,0.2541 -1.1e-4,0.0253 0.10255,0.18846 0.22815,0.3628 0.12559,0.17434 0.24518,0.41154 0.26578,0.52712 0.0332,0.18645 0.0179,0.23025 -0.13566,0.38831 l -0.17309,0.17815 -0.20934,-0.24823 c -0.26975,-0.31982 -0.40761,-0.40866 -0.48539,-0.31276 -0.0564,0.0695 -0.10513,-0.0309 -0.23475,-0.48284 -0.0261,-0.0909 -0.0667,-0.10799 -0.18212,-0.0767 -0.13191,0.0358 -0.15188,0.0202 -0.17787,-0.13873 -0.0161,-0.0984 -0.0951,-0.27061 -0.1755,-0.38262 -0.0804,-0.11205 -0.16956,-0.2503 -0.19808,-0.30732 -0.0412,-0.0823 -0.0982,-0.0945 -0.27707,-0.0588 -0.12387,0.0245 -0.2522,0.0861 -0.28516,0.13662 -0.033,0.0506 -0.21159,0.2939 -0.39695,0.54087 -0.32562,0.43385 -0.33713,0.46063 -0.34062,0.79259 -0.004,0.34536 -0.10418,0.68554 -0.19196,0.64945 -0.0671,-0.0275 -0.49593,-1.24996 -0.53238,-1.51769 -0.0565,-0.41503 -0.11239,-0.5185 -0.25608,-0.47403 -0.0978,0.0303 -0.13846,0.0112 -0.16512,-0.0785 -0.0195,-0.0653 -0.12686,-0.21668 -0.23865,-0.3365 -0.19445,-0.20841 -0.22199,-0.21818 -0.63524,-0.22549 -0.32974,-0.006 -0.45534,-0.0337 -0.53067,-0.1178 -0.0556,-0.0622 -0.18168,-0.11008 -0.28905,-0.11008 -0.15342,0 -0.23119,-0.0504 -0.40092,-0.25963 -0.14251,-0.1757 -0.24726,-0.25318 -0.32405,-0.23971 -0.19277,0.0338 -0.15938,0.24927 0.10467,0.67512 0.19328,0.31174 0.27772,0.39953 0.38433,0.39953 0.0752,0 0.16393,-0.0406 0.1973,-0.0902 0.0512,-0.0761 0.0925,-0.0646 0.26558,0.0753 0.11271,0.0909 0.20492,0.2018 0.20492,0.24629 0,0.18643 -0.23567,0.5505 -0.45953,0.70989 -0.13222,0.0941 -0.25528,0.19776 -0.27345,0.23027 -0.0459,0.0821 -0.78813,0.48184 -0.83341,0.44886 -0.0203,-0.0147 -0.0523,-0.13368 -0.0711,-0.26434 -0.0364,-0.25215 -0.17111,-0.56891 -0.36822,-0.86564 -0.066,-0.0994 -0.12003,-0.22611 -0.12003,-0.28162 0,-0.14026 -0.4704,-0.97595 -0.54932,-0.97595 -0.0354,0 -0.10247,-0.0181 -0.14903,-0.04 -0.12469,-0.059 -0.0581,0.22414 0.18687,0.79372 0.11022,0.25632 0.20039,0.51853 0.20039,0.58268 0,0.0642 0.0435,0.18525 0.0966,0.26909 0.0531,0.0838 0.1127,0.21599 0.13243,0.29365 0.0197,0.0777 0.12801,0.23118 0.24058,0.3411 0.11259,0.10995 0.21842,0.2672 0.23516,0.34949 0.0625,0.3067 0.16895,0.35659 0.53601,0.25101 0.18133,-0.0521 0.34135,-0.0805 0.35561,-0.0628 0.0143,0.0177 -0.0504,0.24784 -0.14372,0.51167 -0.11725,0.33157 -0.24365,0.56535 -0.40932,0.75707 -0.31276,0.36197 -0.60149,0.80125 -0.70851,1.07797 -0.074,0.19143 -0.0773,0.27709 -0.024,0.63272 0.11833,0.79083 0.12312,1.12473 0.0177,1.23625 -0.0523,0.0554 -0.20581,0.21951 -0.3411,0.36479 l -0.24599,0.26418 0.0323,0.33792 c 0.0314,0.32969 0.0282,0.34044 -0.12991,0.44129 -0.1104,0.0703 -0.16213,0.15033 -0.16213,0.25057 0,0.18635 -0.26249,0.67858 -0.49753,0.93302 -0.11958,0.12946 -0.23612,0.19546 -0.3468,0.19647 -0.0917,7e-4 -0.2524,0.0261 -0.35713,0.0562 -0.12439,0.0357 -0.20979,0.0307 -0.24628,-0.0143 z m 1.08976,-2.63955 c 0.0601,-0.0893 0.0564,-0.10011 -0.0282,-0.0799 -0.0538,0.0126 -0.10746,0.0593 -0.11932,0.10321 -0.0308,0.11401 0.0654,0.0988 0.14755,-0.0233 z m 0.77275,-0.7193 c 0,-0.0966 -0.0329,-0.23125 -0.0731,-0.29905 -0.0686,-0.1157 -0.0754,-0.10854 -0.10958,0.11627 -0.0238,0.15655 -0.0144,0.27235 0.0271,0.3341 0.0865,0.12848 0.15555,0.0613 0.15555,-0.15138 z m -0.72198,-0.5374 c -0.007,-0.0764 -0.0775,-0.0616 -0.0998,0.0208 -0.0114,0.0421 0.007,0.0652 0.0415,0.0511 0.0342,-0.014 0.0605,-0.0465 0.0583,-0.0719 z m 0.3072,-0.16141 c 0,-0.0281 -0.0215,-0.0785 -0.0478,-0.1119 -0.0263,-0.0334 -0.0682,-0.15945 -0.0931,-0.28012 -0.0615,-0.29767 -0.17017,-0.33334 -0.17017,-0.0559 0,0.24051 0.12238,0.49898 0.23625,0.49898 0.0411,0 0.0748,-0.023 0.0748,-0.0511 z m 0.30306,-1.03461 c 0.0405,-0.14336 0.0374,-0.21128 -0.0125,-0.27283 -0.0366,-0.0451 -0.0771,-0.12147 -0.0902,-0.16974 -0.0346,-0.12806 -0.35587,-0.16053 -0.35587,-0.036 0,0.0723 0.0341,0.0859 0.13638,0.0543 0.075,-0.0231 0.12676,-0.0166 0.115,0.0147 -0.0118,0.0313 -0.0528,0.13424 -0.0914,0.22868 -0.0899,0.22053 -0.0417,0.37165 0.11844,0.37165 0.0934,0 0.14017,-0.0495 0.18013,-0.19085 z m 0.24467,-0.94502 c -0.017,-0.0209 -0.0576,-0.006 -0.0901,0.0347 -0.0443,0.0546 -0.0409,0.10026 0.0138,0.18208 0.0676,0.10109 0.0742,0.0984 0.0901,-0.0347 0.009,-0.0792 0.003,-0.16106 -0.0138,-0.18208 z m -2.47798,-1.36912 c -0.0321,-0.11852 -0.14367,-0.13818 -0.14367,-0.0253 0,0.0556 0.0369,0.10124 0.0821,0.10124 0.0452,0 0.0728,-0.0341 0.0616,-0.076 z m 2.00802,-1.52217 c 0.0177,-0.0351 0.007,-0.0639 -0.0229,-0.0639 -0.0302,0 -0.0549,0.0288 -0.0549,0.0639 0,0.0352 0.0103,0.0639 0.0229,0.0639 0.0126,0 0.0373,-0.0288 0.0549,-0.0639 z m 2.06968,-2.14827 c 0.0901,-0.0427 0.10921,-0.32058 0.0323,-0.47044 -0.0298,-0.058 -0.0292,-0.12188 0.002,-0.16767 0.0663,-0.0984 0.009,-0.26826 -0.10551,-0.3131 -0.0506,-0.0198 -0.13197,-0.0904 -0.18074,-0.15682 -0.0834,-0.11375 -0.0835,-0.1306 -6.3e-4,-0.28635 0.071,-0.13354 0.0756,-0.18398 0.0237,-0.26109 -0.0913,-0.13564 -0.25124,-0.11851 -0.4499,0.0483 -0.22211,0.18642 -0.22739,0.41325 -0.0166,0.70937 0.11177,0.15694 0.15555,0.28376 0.15555,0.45061 0,0.19339 0.0281,0.2534 0.1685,0.35887 0.17976,0.13509 0.24167,0.14985 0.37166,0.0883 z m -1.08457,-0.34474 c 0.0177,-0.0351 0.007,-0.0639 -0.0229,-0.0639 -0.0302,0 -0.0549,0.0288 -0.0549,0.0639 0,0.0352 0.0103,0.0639 0.0229,0.0639 0.0126,0 0.0373,-0.0288 0.0549,-0.0639 z m 3.51543,-0.60639 c 0.006,-0.0347 -0.0306,-0.0727 -0.0805,-0.0845 -0.0568,-0.014 -0.0907,0.018 -0.0907,0.0836 0,0.11122 0.15323,0.11206 0.17125,7e-4 z M 38.5791,22.99109 c -0.0121,-0.15408 -0.0416,-0.20775 -0.11429,-0.20775 -0.054,0 -0.1218,0.0465 -0.15083,0.10321 -0.0797,0.15563 -0.007,0.31231 0.14683,0.31231 0.12055,0 0.13284,-0.0216 0.11829,-0.20775 z m 1.40573,-0.13818 c 0.0434,-0.0644 0.0446,-0.1025 0.005,-0.1334 -0.0601,-0.0458 -0.20765,0.0731 -0.20765,0.16746 0,0.0883 0.13655,0.0655 0.20357,-0.0341 z m -3.21771,-0.3925 c 0.0164,-0.1042 0.007,-0.10897 -0.0648,-0.0348 -0.0991,0.10138 -0.11143,0.2199 -0.019,0.18193 0.0356,-0.0146 0.0733,-0.0808 0.0838,-0.14711 z m 4.01737,0.002 c -0.0161,-0.0515 -0.05,-0.0938 -0.0755,-0.0938 -0.0532,0 -0.0626,0.1504 -0.0132,0.21132 0.0553,0.0681 0.11983,-0.0172 0.0886,-0.11753 z m 0.91516,0.066 c 0,-0.0526 -0.022,-0.0959 -0.0488,-0.0959 -0.0654,0 -0.1122,0.0998 -0.0708,0.15088 0.0584,0.072 0.11957,0.0438 0.11957,-0.0551 z m 1.13796,-0.63569 c 0.0877,-0.11515 0.11031,-0.19929 0.0858,-0.31963 -0.046,-0.22599 -0.18223,-0.20764 -0.22073,0.0298 -0.0172,0.10615 -0.0516,0.20858 -0.0765,0.22751 -0.0707,0.054 -0.0528,0.21862 0.0236,0.21862 0.0379,0 0.12231,-0.0703 0.18781,-0.15627 z m -6.73753,-0.90048 c 0,-0.10207 -0.13779,-0.20098 -0.19011,-0.13648 -0.0166,0.0203 -0.0163,0.0815 6.3e-4,0.13578 0.0397,0.12779 0.1895,0.12835 0.1895,7e-4 z m 1.60728,-0.0619 c 0,-0.0528 -0.022,-0.0959 -0.0488,-0.0959 -0.0654,0 -0.1122,0.0998 -0.0708,0.1509 0.0584,0.072 0.11957,0.0438 0.11957,-0.0551 z m -1.9415,-0.35768 c 0.0534,-0.10657 -0.0668,-0.2288 -0.13827,-0.14062 -0.0598,0.0737 -0.0223,0.21012 0.0577,0.21012 0.0251,0 0.0614,-0.0313 0.0806,-0.0695 z m 1.44879,13.40218 c -0.0141,-0.0554 -0.0373,-0.14557 -0.0513,-0.20053 -0.0141,-0.0551 0.0115,-0.1884 0.057,-0.2965 0.0496,-0.11837 0.0706,-0.26989 0.0525,-0.38083 -0.0222,-0.13719 -0.003,-0.21252 0.0758,-0.29478 0.0582,-0.0608 0.18526,-0.20869 0.28249,-0.32863 0.26477,-0.32664 0.26762,-0.15427 0.0126,0.76314 -0.15951,0.57388 -0.24697,0.8028 -0.31241,0.81785 -0.05,0.0112 -0.10248,-0.0245 -0.11666,-0.0797 z m 10.90804,-2.56179 c -0.0821,-0.0551 -0.14797,-0.16657 -0.16677,-0.28236 -0.0208,-0.12834 -0.0843,-0.22538 -0.19298,-0.29464 -0.15581,-0.0993 -0.15852,-0.10799 -0.0715,-0.22649 0.11378,-0.155 0.15932,-0.15402 0.5174,0.0112 0.33474,0.15441 0.64579,0.46235 0.64579,0.6393 0,0.14044 -0.0201,0.14665 -0.16516,0.051 -0.0857,-0.0566 -0.13525,-0.0441 -0.25373,0.0639 -0.17154,0.15637 -0.14199,0.15277 -0.31307,0.0382 z m -3.31217,-0.0958 c -0.0665,-0.0529 -0.0646,-0.0622 0.013,-0.0629 0.0499,-4.8e-4 0.0907,0.0278 0.0907,0.0629 0,0.0779 -0.006,0.0779 -0.10369,0 z m -0.87541,-0.56743 c -0.16672,-0.22002 -0.45367,-0.88361 -0.40698,-0.94116 0.0595,-0.0733 0.34664,0.19326 0.3959,0.36747 0.0274,0.0967 0.098,0.22687 0.15702,0.28916 0.11319,0.1195 0.14399,0.36896 0.054,0.43751 -0.0293,0.0223 -0.11928,-0.0465 -0.19996,-0.15298 z m 1.05053,-0.18139 c -0.12929,-0.02 -0.18006,-0.0748 -0.25212,-0.27188 -0.0912,-0.24939 -0.0752,-0.38566 0.0453,-0.38566 0.0362,0 0.20947,-0.16018 0.38495,-0.35598 0.17549,-0.1958 0.33699,-0.34235 0.35887,-0.32567 0.0718,0.0546 0.0298,0.77736 -0.057,0.98463 -0.0467,0.1112 -0.0847,0.24665 -0.0847,0.30113 0,0.0997 -0.0521,0.10671 -0.39521,0.0534 z m 0.84309,-0.11416 c 0.0164,-0.0528 0.0507,-0.0959 0.0761,-0.0959 0.0254,0 0.0463,0.0431 0.0463,0.0959 0,0.0526 -0.0343,0.0959 -0.0761,0.0959 -0.0464,0 -0.0645,-0.0375 -0.0463,-0.0959 z m 1.44457,-0.0959 c -0.0177,-0.0351 -0.007,-0.0641 0.0229,-0.0641 0.0302,0 0.0549,0.0288 0.0549,0.0641 0,0.0351 -0.0103,0.0639 -0.0229,0.0639 -0.0126,0 -0.0373,-0.0288 -0.0549,-0.0639 z m -3.53102,-0.86893 c -0.0878,-0.25892 -0.0795,-0.36681 0.0221,-0.28899 0.0836,0.0641 0.17542,0.51867 0.10479,0.51867 -0.027,0 -0.0841,-0.10334 -0.12687,-0.22968 z m -2.40557,-0.57313 c 0,-0.0549 0.0233,-0.0819 0.0519,-0.0602 0.0285,0.0217 0.0519,0.0666 0.0519,0.0997 0,0.0332 -0.0233,0.0602 -0.0519,0.0602 -0.0285,0 -0.0519,-0.0448 -0.0519,-0.0997 z m 4.9774,0.003 c 0,-0.0528 0.0351,-0.0959 0.0778,-0.0959 0.0427,0 0.0778,0.0433 0.0778,0.0959 0,0.0526 -0.0351,0.0959 -0.0778,0.0959 -0.0427,0 -0.0778,-0.0433 -0.0778,-0.0959 z m -23.6167,-0.47942 c 0.0177,-0.0352 0.0424,-0.0639 0.0549,-0.0639 0.0126,0 0.0229,0.0288 0.0229,0.0639 0,0.0351 -0.0247,0.0639 -0.0549,0.0639 -0.0302,0 -0.0405,-0.0288 -0.0229,-0.0639 z m -0.12962,-0.31971 c -0.0713,-0.0688 -0.21128,-0.1572 -0.31109,-0.19643 -0.0998,-0.0393 -0.2315,-0.14436 -0.29266,-0.23362 -0.0907,-0.13228 -0.16247,-0.16465 -0.38886,-0.17495 -0.15271,-0.007 -0.34766,-0.0615 -0.43321,-0.12118 -0.46299,-0.32321 -0.4655,-0.3264 -0.49426,-0.62953 -0.0152,-0.16016 -0.0878,-0.40245 -0.16125,-0.5384 -0.2507,-0.46383 -0.35553,-0.70964 -0.35553,-0.8338 0,-0.0683 -0.0336,-0.1799 -0.0746,-0.24814 -0.0637,-0.10588 -0.0902,-0.11234 -0.18147,-0.0436 -0.0971,0.0731 -0.10685,0.0655 -0.10685,-0.083 0,-0.0946 -0.0578,-0.22945 -0.13723,-0.32023 -0.10387,-0.11865 -0.14348,-0.23696 -0.16292,-0.48646 -0.0277,-0.35484 0.0414,-0.58475 0.30412,-1.01263 0.0756,-0.12301 0.17463,-0.31355 0.22017,-0.42334 0.0455,-0.10981 0.13243,-0.21564 0.19308,-0.23518 0.14958,-0.0481 0.11409,-0.27018 -0.0422,-0.26339 -0.10413,0.005 -0.11171,-0.0181 -0.0858,-0.2557 0.0156,-0.14337 0.0383,-0.32209 0.0506,-0.39718 0.0122,-0.0751 -0.0126,-0.17209 -0.0551,-0.21556 -0.0425,-0.0434 -0.0772,-0.17177 -0.0772,-0.28506 0,-0.25407 -0.10986,-0.37826 -0.41479,-0.46895 -0.31546,-0.0938 -0.96192,0.008 -1.15151,0.17928 -0.0772,0.0703 -0.17796,0.12778 -0.22376,0.12778 -0.15937,0 -0.38448,-0.19594 -0.38676,-0.33663 -9.3e-4,-0.0697 0.30225,-0.22489 0.52545,-0.26878 0.10406,-0.0205 0.21962,-0.0824 0.25678,-0.13761 0.0568,-0.0844 0.0515,-0.11205 -0.0337,-0.1741 -0.089,-0.0649 -0.073,-0.0776 0.13207,-0.10574 0.18561,-0.0254 0.23644,-0.0588 0.24857,-0.1635 0.0167,-0.14393 0.3332,-0.30186 0.82344,-0.41091 0.28125,-0.0627 1.2024,0.0504 1.47616,0.18114 0.0755,0.0361 0.14824,0.052 0.16165,0.0354 0.0134,-0.0166 0.16822,-0.0585 0.34403,-0.0935 0.39149,-0.0778 1.12011,0.0194 1.2523,0.16682 0.12957,0.14457 0.63748,0.10545 0.6616,-0.051 0.0134,-0.0865 -0.0182,-0.11191 -0.13903,-0.11191 -0.18982,0 -0.26176,-0.10756 -0.0984,-0.14713 l 0.11742,-0.0285 -0.11307,-0.0464 c -0.0622,-0.0254 -0.12561,-0.0866 -0.14095,-0.13593 -0.0153,-0.0493 -0.0927,-0.0904 -0.17209,-0.0915 -0.13993,-9.4e-4 -0.14113,-0.006 -0.0405,-0.0987 0.11846,-0.11051 0.3975,-0.0757 0.65271,0.0812 0.0861,0.0529 0.238,0.0991 0.33749,0.10264 0.15144,0.006 0.1784,0.0276 0.16567,0.13733 -0.0122,0.10489 -0.0594,0.13507 -0.23556,0.15074 -0.25093,0.0225 -0.27714,0.0914 -0.0916,0.24117 0.1043,0.0842 0.20012,0.0953 0.50551,0.0583 0.42115,-0.051 0.50645,-0.10616 0.50645,-0.32693 0,-0.13832 0.0319,-0.17011 0.14258,-0.14219 0.0214,0.006 0.0315,0.0632 0.0226,0.12834 -0.009,0.0652 0.0214,0.16495 0.0674,0.22169 0.13981,0.17237 0.0692,0.28131 -0.31036,0.4787 -0.59436,0.30909 -0.68049,0.36626 -0.85516,0.56742 -0.10667,0.12286 -0.15558,0.22874 -0.13548,0.29332 0.0173,0.0556 0.0315,0.12623 0.0315,0.15703 0,0.0307 0.15078,0.1485 0.33508,0.26158 0.31647,0.19418 0.33473,0.21756 0.32854,0.42056 -0.004,0.11823 0.0182,0.24553 0.0485,0.28289 0.0914,0.11276 0.27024,-0.006 0.34572,-0.22757 0.075,-0.22138 0.52184,-0.59094 0.5783,-0.47833 0.0353,0.0703 0.12662,0.0152 0.12662,-0.0764 0,-0.0347 -0.0409,-0.0545 -0.0907,-0.0442 -0.13851,0.0287 -0.13984,-0.21564 -0.003,-0.48061 0.0996,-0.19223 0.14973,-0.23077 0.30334,-0.23304 0.21322,-0.003 0.30849,0.0894 0.30849,0.29975 0,0.18961 0.12709,0.25021 0.32828,0.1566 0.0866,-0.0403 0.16555,-0.0633 0.17546,-0.051 0.01,0.0126 0.0246,0.12567 0.0327,0.25204 0.0103,0.16095 0.0572,0.27111 0.15672,0.36758 0.1845,0.17893 0.16478,0.38111 -0.0451,0.46203 -0.0856,0.033 -0.33236,0.0797 -0.54846,0.10405 -0.28413,0.0318 -0.43861,0.0841 -0.55797,0.18894 -0.18636,0.16359 -0.17893,0.26101 0.0164,0.21499 0.11233,-0.0264 0.13086,-0.008 0.13086,0.13269 0,0.0898 0.0233,0.18127 0.0519,0.20301 0.10142,0.0773 0.0498,0.16159 -0.0753,0.12286 -0.19831,-0.0614 -0.63263,0.14587 -0.75699,0.36121 -0.0594,0.10278 -0.16139,0.20334 -0.22678,0.22357 -0.14723,0.0456 -0.58425,0.59025 -0.60836,0.75825 -0.01,0.068 -0.14604,0.23261 -0.30285,0.36592 -0.42684,0.36283 -0.53499,0.53954 -0.49936,0.81598 0.0162,0.12581 0.007,0.27184 -0.0199,0.32459 -0.038,0.0739 -0.0497,0.0546 -0.0502,-0.0841 -9.3e-4,-0.32116 -0.08,-0.41431 -0.38986,-0.46204 -0.20323,-0.0313 -0.30916,-0.02 -0.3669,0.0391 -0.0454,0.0465 -0.18122,0.0767 -0.30832,0.0686 -0.2218,-0.0141 -0.5969,0.15968 -0.67327,0.31201 -0.0185,0.0368 -0.0784,0.25995 -0.13304,0.4957 -0.10608,0.45733 -0.0783,0.7426 0.0964,0.9892 0.12222,0.1725 0.45333,0.14805 0.60994,-0.0451 0.07,-0.0864 0.12727,-0.18696 0.12727,-0.22372 0,-0.0368 0.0467,-0.0669 0.10369,-0.0669 0.12664,0 0.12664,0.0284 0,0.35158 -0.17291,0.44137 -0.13919,0.51868 0.21217,0.48633 0.18411,-0.017 0.24968,0.10531 0.1935,0.36065 -0.053,0.24119 -0.0754,0.24835 -0.25012,0.0797 z m -1.81468,-4.47074 c 0,-0.0332 -0.0233,-0.0779 -0.0519,-0.0997 -0.0285,-0.0217 -0.0519,0.006 -0.0519,0.0601 0,0.0549 0.0233,0.0997 0.0519,0.0997 0.0285,0 0.0519,-0.0271 0.0519,-0.0602 z m 3.36305,-0.12314 c 0.1037,-0.0657 0.2583,-0.1454 0.34357,-0.17711 0.20052,-0.0746 0.2438,-0.27875 0.0591,-0.27875 -0.0718,0 -0.16097,-0.0529 -0.19823,-0.11753 -0.0373,-0.0647 -0.13191,-0.13705 -0.21033,-0.16103 -0.0808,-0.0245 -0.14258,-0.0875 -0.14258,-0.14494 0,-0.0557 -0.0572,-0.18528 -0.1272,-0.28779 -0.12099,-0.17729 -0.12984,-0.18033 -0.18107,-0.0624 -0.0296,0.0683 -0.13571,0.15738 -0.23574,0.19808 -0.10002,0.0407 -0.18185,0.10054 -0.18185,0.13298 0,0.0324 -6.3e-4,0.0807 -0.002,0.10686 -9.4e-4,0.0264 0.07,0.0624 0.15811,0.0799 l 0.16017,0.032 -0.1322,0.22017 c -0.14715,0.24507 -0.17601,0.51494 -0.0551,0.51494 0.0425,0 0.1348,-0.1126 0.20529,-0.25031 0.0705,-0.13761 0.14995,-0.26692 0.17659,-0.28721 0.0737,-0.0562 0.12436,0.28134 0.0572,0.38103 -0.0628,0.0934 -0.0265,0.22044 0.063,0.22044 0.0301,0 0.13953,-0.0538 0.24322,-0.1195 z M 23.0103,22.17552 c 0.0391,0 0.0954,-0.10785 0.12509,-0.23974 0.0847,-0.37591 0.0743,-0.41949 -0.0877,-0.36935 -0.19454,0.0601 -0.26011,0.13832 -0.29892,0.35623 -0.0394,0.2207 0.007,0.33946 0.11369,0.28916 0.0422,-0.0199 0.10876,-0.0362 0.14786,-0.0362 z m 0.38705,0 c 0,-0.0352 -0.0103,-0.0639 -0.0229,-0.0639 -0.0126,0 -0.0373,0.0288 -0.0549,0.0639 -0.0177,0.0351 -0.007,0.0639 0.0229,0.0639 0.0302,0 0.0549,-0.0288 0.0549,-0.0639 z m 1.91139,-0.0991 c 0.0164,-0.10434 0.007,-0.10897 -0.0648,-0.0348 -0.0991,0.10138 -0.11144,0.21991 -0.019,0.18193 0.0356,-0.0146 0.0733,-0.0808 0.0838,-0.14711 z m 0.62916,-0.34457 c 0,-0.0332 -0.0233,-0.0779 -0.0519,-0.0997 -0.0285,-0.0216 -0.0519,0.006 -0.0519,0.0602 0,0.0549 0.0233,0.0997 0.0519,0.0997 0.0285,0 0.0519,-0.0271 0.0519,-0.0601 z m -2.43685,-0.13157 c 0,-0.0351 -0.0233,-0.0639 -0.0519,-0.0639 -0.0285,0 -0.0519,0.0288 -0.0519,0.0639 0,0.0352 0.0233,0.0639 0.0519,0.0639 0.0285,0 0.0519,-0.0288 0.0519,-0.0639 z M 22.38633,21.3446 c 0,-0.0469 -0.0292,-0.0972 -0.0648,-0.11191 -0.0385,-0.0158 -0.0648,0.0295 -0.0648,0.11191 0,0.0824 0.0263,0.12764 0.0648,0.11191 0.0356,-0.0146 0.0648,-0.065 0.0648,-0.11191 z m 0.74157,-0.23158 c 0.008,-0.0752 -0.0184,-0.15183 -0.0611,-0.17198 -0.0809,-0.0383 -0.1497,0.0393 -0.20556,0.23198 -0.028,0.0965 -0.01,0.11262 0.10861,0.0959 0.0989,-0.014 0.14706,-0.0615 0.15797,-0.15588 z m 0.3213,0.0718 c 0,-0.0532 -0.0461,-0.0959 -0.10369,-0.0959 -0.0576,0 -0.10369,0.0425 -0.10369,0.0959 0,0.0532 0.0461,0.0959 0.10369,0.0959 0.0576,0 0.10369,-0.0427 0.10369,-0.0959 z m -0.77772,-0.35157 c 0,-0.0351 -0.0336,-0.0639 -0.0747,-0.0639 -0.041,0 -0.0891,0.0288 -0.10676,0.0639 -0.0177,0.0352 0.016,0.0639 0.0747,0.0639 0.0587,0 0.10675,-0.0288 0.10675,-0.0639 z m -0.25582,-0.19403 c 0.11928,-0.0787 0.1318,-0.24254 0.0225,-0.29424 -0.0427,-0.0202 -0.0778,-0.0921 -0.0778,-0.15981 0,-0.0676 0.035,-0.13957 0.0778,-0.15981 0.12696,-0.0601 0.0963,-0.27893 -0.0389,-0.27793 -0.21931,9.4e-4 -0.34998,0.0757 -0.34998,0.19835 0,0.0858 0.0372,0.12033 0.12961,0.12033 0.0713,0 0.12963,0.0288 0.12963,0.0639 0,0.0351 -0.0249,0.0639 -0.0554,0.0639 -0.0306,0 -0.0415,0.0538 -0.0244,0.12034 0.0195,0.076 0.002,0.1341 -0.0483,0.1578 -0.0437,0.0206 -0.0793,0.0816 -0.0793,0.13536 0,0.11304 0.1659,0.12975 0.3145,0.0317 z m 0.87799,-0.0296 c 0,-0.0528 -0.0227,-0.0959 -0.0506,-0.0959 -0.0285,0 -0.0369,-0.0836 -0.0195,-0.19177 0.0246,-0.15133 0.013,-0.19176 -0.0548,-0.19176 -0.10881,0 -0.16697,0.17727 -0.0895,0.27277 0.0323,0.0399 0.0587,0.12413 0.0587,0.18747 0,0.0633 0.0351,0.11514 0.0778,0.11514 0.0427,0 0.0778,-0.0433 0.0778,-0.0959 z m 0.21398,-0.0713 c 0.0509,-0.0568 0.16026,-0.10743 0.24307,-0.11262 0.18542,-0.0112 0.3472,-0.16061 0.27322,-0.25182 -0.0346,-0.0425 -0.0763,-0.0389 -0.12525,0.0112 -0.0404,0.0413 -0.11075,0.0574 -0.1564,0.0358 -0.0926,-0.0437 -0.38931,0.21294 -0.39389,0.3407 -0.004,0.10811 0.0483,0.10053 0.15925,-0.0233 z m 22.288,6.93921 c 0,-0.0725 0.0223,-0.11458 0.0496,-0.0938 0.0273,0.0208 0.0365,0.08 0.0204,0.13157 -0.0411,0.13213 -0.0699,0.11654 -0.0699,-0.0377 z M 24.32089,27.11804 c 0.0374,-0.0184 0.0822,-0.0161 0.0994,0.006 0.0172,0.0214 -0.0134,0.0363 -0.0681,0.0335 -0.0604,-0.003 -0.0727,-0.0181 -0.0313,-0.0386 z m 22.48313,-2.51852 c -0.0141,-0.0281 0.0449,-0.14013 0.13107,-0.24892 0.0862,-0.10869 0.15949,-0.26142 0.16287,-0.33931 0.005,-0.11192 0.0144,-0.10138 0.0457,0.0501 0.0786,0.3811 0.0627,0.44393 -0.13107,0.51873 -0.10059,0.0388 -0.19446,0.0476 -0.20858,0.0194 z m 0.0804,-1.33712 c 0,-0.0809 0.10595,-0.0809 0.2074,0 0.0606,0.0483 0.0463,0.0622 -0.0648,0.0629 -0.0785,4.8e-4 -0.14259,-0.0278 -0.14259,-0.0629 z M 26.71641,22.5113 c 0.003,-0.15137 0.0932,-0.2186 0.2,-0.14816 0.15747,0.1039 0.1362,0.19611 -0.0453,0.19611 -0.0856,0 -0.15518,-0.0214 -0.15475,-0.0479 z m 5.39139,-0.56026 c 0,-0.0532 0.0281,-0.1523 0.0625,-0.22018 0.0534,-0.1053 0.042,-0.14688 -0.0772,-0.28316 -0.0856,-0.0977 -0.12778,-0.19831 -0.10883,-0.25923 0.0429,-0.13804 0.17543,-0.12511 0.17543,0.0169 0,0.0641 0.0694,0.22945 0.15409,0.36755 0.21275,0.34665 0.20613,0.47485 -0.0245,0.47485 -0.12746,0 -0.18147,-0.0288 -0.18147,-0.0968 z m -0.51848,-0.1439 c 0,-0.12048 0.0921,-0.27073 0.16591,-0.27073 0.0864,0 0.0369,0.25418 -0.0622,0.31962 -0.0862,0.0568 -0.10369,0.0486 -0.10369,-0.0489 z m -3.25421,-1.2319 c -0.13634,-0.0675 -0.2196,-0.29784 -0.2196,-0.60746 0,-0.17725 0.0289,-0.23634 0.15479,-0.31662 0.18085,-0.11527 0.26627,-0.40274 0.14464,-0.48667 -0.0473,-0.0326 -0.0691,-0.11247 -0.0552,-0.20216 0.0136,-0.0876 -0.0186,-0.2115 -0.0785,-0.30279 -0.0828,-0.12623 -0.15016,-0.155 -0.3667,-0.157 -0.32396,-0.003 -0.37398,-0.11669 -0.0731,-0.16627 0.12017,-0.0198 0.26067,-0.083 0.31223,-0.14055 0.0568,-0.0633 0.22649,-0.11866 0.42962,-0.14028 1.70139,-0.18079 2.24813,-0.19507 2.52248,-0.066 0.22261,0.10489 0.22729,0.11233 0.12427,0.20136 -0.0621,0.0537 -0.12045,0.1958 -0.13894,0.33843 -0.0253,0.19511 -0.0684,0.27025 -0.20841,0.36319 -0.099,0.0657 -0.16545,0.15268 -0.15135,0.19797 0.0161,0.0517 -0.021,0.0807 -0.10285,0.0807 -0.0919,0 -0.12798,0.0348 -0.12798,0.12357 0,0.13269 -0.053,0.16229 -0.41479,0.23117 -0.12832,0.0245 -0.29857,0.10138 -0.37832,0.17096 -0.0798,0.0695 -0.23803,0.14191 -0.35172,0.16072 -0.16129,0.0267 -0.26041,0.1032 -0.45124,0.34812 -0.13449,0.17268 -0.25232,0.34135 -0.26182,0.37484 -0.0212,0.0746 -0.15063,0.0723 -0.30752,-0.006 z m -2.03517,-0.38327 c -0.0554,-0.12778 -0.0446,-0.16064 0.0989,-0.2991 0.0886,-0.0855 0.16122,-0.19121 0.16122,-0.2348 0,-0.1493 -0.2986,-0.35896 -0.51126,-0.35896 -0.17688,0 -0.21815,0.0288 -0.3069,0.21425 -0.0564,0.11781 -0.15201,0.2302 -0.21251,0.2497 -0.14507,0.0467 -0.13892,-9.3e-4 0.0196,-0.15574 0.12955,-0.12568 0.17563,-0.30821 0.0778,-0.30821 -0.0285,0 -0.0519,-0.0439 -0.0519,-0.0979 0,-0.13171 0.15509,-0.19822 0.20946,-0.0897 0.0355,0.0709 0.0614,0.0666 0.14246,-0.0239 0.12107,-0.13508 0.58939,-0.11135 0.7264,0.0369 0.0485,0.0525 0.14075,0.11514 0.20491,0.13929 0.077,0.0289 0.11666,0.0939 0.11666,0.19155 0,0.0816 0.0522,0.19134 0.11665,0.24528 0.0918,0.0768 0.10332,0.11458 0.054,0.17768 -0.0502,0.0642 -0.0784,0.0639 -0.14191,-0.002 -0.13365,-0.13677 -0.24969,-0.0326 -0.21026,0.18879 0.0257,0.14453 0.0156,0.19182 -0.0412,0.19182 -0.0414,0 -0.14617,0.0175 -0.23265,0.0388 -0.12799,0.0316 -0.16884,0.0126 -0.21955,-0.10475 z m 4.47277,-0.0403 c -0.12911,-0.0642 -0.0598,-0.13283 0.17387,-0.17238 0.30517,-0.0517 0.40628,0.0216 0.17324,0.12539 -0.19663,0.0876 -0.25071,0.0949 -0.34711,0.0469 z m -5.58608,-0.0865 c 0.0179,-0.0358 0.0543,-0.0484 0.0808,-0.0282 0.0719,0.0548 0.0585,0.0931 -0.0325,0.0931 -0.0444,0 -0.0662,-0.0292 -0.0482,-0.065 z m 23.20139,-0.1268 c -0.0632,-0.0504 -0.0566,-0.0622 0.0358,-0.063 0.0625,-4.7e-4 0.12802,0.0278 0.14564,0.063 0.0408,0.0815 -0.0793,0.0815 -0.18146,0 z M 36.87779,19.08962 c 0,-0.11458 0.14993,-0.3658 0.21837,-0.3658 0.0313,0 0.0183,0.0526 -0.0289,0.11697 -0.0472,0.0643 -0.0858,0.16498 -0.0858,0.22374 0,0.0588 -0.0233,0.10685 -0.0519,0.10685 -0.0285,0 -0.0519,-0.0368 -0.0519,-0.0817 z m -12.05462,-0.0462 c -0.0177,-0.0351 0.006,-0.0639 0.0519,-0.0639 0.0461,0 0.0695,0.0288 0.0519,0.0639 -0.0177,0.0352 -0.041,0.0639 -0.0519,0.0639 -0.0109,0 -0.0342,-0.0288 -0.0519,-0.0639 z m 1.63321,-0.6712 c -0.0355,-0.0528 -0.13168,-0.0959 -0.21374,-0.0959 -0.0821,0 -0.1492,-0.0282 -0.1492,-0.0627 0,-0.0983 0.22352,-0.14263 0.3708,-0.0736 0.0963,0.0452 0.15344,0.0399 0.20537,-0.0191 0.0968,-0.10995 1.23118,-0.26272 1.30204,-0.17537 0.0356,0.0439 -0.0289,0.0797 -0.19986,0.11079 -0.1389,0.0253 -0.42699,0.1282 -0.64021,0.2288 -0.43787,0.20672 -0.58217,0.22534 -0.6752,0.0872 z m 7.3624,-0.0251 c 0,-0.0705 0.13452,-0.13929 0.17498,-0.0894 0.0163,0.02 0.0172,0.0613 0.002,0.0914 -0.0364,0.0726 -0.177,0.0709 -0.177,-9.3e-4 z"
         style="fill:#806600" />
      <rect
         ry="1.5290817e-06"
         y="36.892117"
         x="18.957796"
         height="9.0398445"
         width="30.74741"
         id="rect3241-2"
         style="fill:#ffffff;fill-opacity:1;stroke:none" />
      <text
         sodipodi:linespacing="125%"
         id="text3207-3"
         y="45.057064"
         x="23.465206"
         style="font-size:40px;font-style:normal;font-weight:normal;line-height:125%;letter-spacing:0px;word-spacing:0px;fill:#806600;fill-opacity:1;stroke:none;font-family:Sans"
         xml:space="preserve"><tspan
           style="font-size:10px;font-style:normal;font-variant:normal;font-weight:bold;font-stretch:normal;text-align:start;line-height:125%;writing-mode:lr-tb;text-anchor:start;fill:#806600;font-family:Sans;-inkscape-font-specification:Sans Bold"
           y="45.057064"
           x="23.465206"
           id="tspan3209-8"
           sodipodi:role="line">VRT</tspan></text>
    </g>
  </g>
</svg>
