<?xml version="1.0" encoding="UTF-8" standalone="no"?>
<!-- Created with Inkscape (http://www.inkscape.org/) -->

<svg
   xmlns:dc="http://purl.org/dc/elements/1.1/"
   xmlns:cc="http://creativecommons.org/ns#"
   xmlns:rdf="http://www.w3.org/1999/02/22-rdf-syntax-ns#"
   xmlns:svg="http://www.w3.org/2000/svg"
   xmlns="http://www.w3.org/2000/svg"
   xmlns:sodipodi="http://sodipodi.sourceforge.net/DTD/sodipodi-0.dtd"
   xmlns:inkscape="http://www.inkscape.org/namespaces/inkscape"
   id="svg2"
   version="1.1"
   inkscape:version="0.91 r13725"
   width="64"
   height="67"
   sodipodi:docname="NogoRoute.svg">
  <metadata
     id="metadata8">
    <rdf:RDF>
      <cc:Work
         rdf:about="">
        <dc:format>image/svg+xml</dc:format>
        <dc:type
           rdf:resource="http://purl.org/dc/dcmitype/StillImage" />
        <dc:title></dc:title>
      </cc:Work>
    </rdf:RDF>
  </metadata>
  <defs
     id="defs6" />
  <sodipodi:namedview
     pagecolor="#ffffff"
     bordercolor="#666666"
     borderopacity="1"
     objecttolerance="10"
     gridtolerance="10"
     guidetolerance="10"
     inkscape:pageopacity="0"
     inkscape:pageshadow="2"
     inkscape:window-width="1272"
     inkscape:window-height="737"
     id="namedview4"
     showgrid="true"
     inkscape:zoom="7.0447761"
     inkscape:cx="32.505195"
     inkscape:cy="33.755278"
     inkscape:window-x="455"
     inkscape:window-y="118"
     inkscape:window-maximized="0"
     inkscape:current-layer="svg2">
    <inkscape:grid
       type="xygrid"
       id="grid2982" />
  </sodipodi:namedview>
  <path
     style="fill:none;stroke:#000080;stroke-width:10;stroke-linecap:round;stroke-linejoin:round;stroke-opacity:1;stroke-miterlimit:4;stroke-dasharray:none"
     d="M 15,12 50,32 20,52"
     id="path3036"
     inkscape:connector-curvature="0" />
  <path
     sodipodi:type="arc"
     style="fill:#ff0000;fill-opacity:1;fill-rule:evenodd;stroke:none"
     id="path2984"
     sodipodi:cx="12.5"
     sodipodi:cy="14.5"
     sodipodi:rx="7.5"
     sodipodi:ry="7.5"
     d="m 20,14.5 a 7.5,7.5 0 1 1 -6.7e-5,-0.03162"
     sodipodi:start="0"
     sodipodi:end="6.2789689"
     sodipodi:open="true"
     transform="matrix(1.3333333,0,0,1.3333333,-1.6666667,-7.3333333)" />
  <path
     sodipodi:type="arc"
     style="fill:#ff0000;fill-opacity:1;fill-rule:evenodd;stroke:none"
     id="path2984-8"
     sodipodi:cx="12.5"
     sodipodi:cy="14.5"
     sodipodi:rx="7.5"
     sodipodi:ry="7.5"
     d="m 20,14.5 a 7.5,7.5 0 1 1 -6.7e-5,-0.03162"
     sodipodi:start="0"
     sodipodi:end="6.2789689"
     sodipodi:open="true"
     transform="matrix(1.3333333,0,0,1.3333333,33.333334,12.666667)" />
  <path
     sodipodi:type="arc"
     style="fill:#ff0000;fill-opacity:1;fill-rule:evenodd;stroke:none"
     id="path2984-0"
     sodipodi:cx="12.5"
     sodipodi:cy="14.5"
     sodipodi:rx="7.5"
     sodipodi:ry="7.5"
     d="m 20,14.5 a 7.5,7.5 0 1 1 -6.7e-5,-0.03162"
     sodipodi:start="0"
     sodipodi:end="6.2789689"
     sodipodi:open="true"
     transform="matrix(1.3333333,0,0,1.3333333,3.3333338,32.666667)" />
  <path
     inkscape:connector-curvature="0"
     style="fill:#ff0000;stroke:#ffffff;stroke-width:0.8673085;stroke-linecap:round;stroke-linejoin:round;stroke-miterlimit:4;stroke-dasharray:none;stroke-opacity:1"
     d="m 43.053484,23.852153 c -10.77752,0.0147 -19.502042,8.764026 -19.48734,19.541544 l 0,0.05421 c 0.04782,10.753937 8.787512,19.447801 19.541546,19.433132 10.777518,-0.0147 19.502041,-8.764028 19.487338,-19.541546 -0.0147,-10.777518 -8.764026,-19.50204 -19.541544,-19.487338 z m 0,6.775847 c 2.265636,-0.0031 4.390317,0.590645 6.233779,1.626204 L 31.968195,49.57327 c -1.023203,-1.825742 -1.616244,-3.91311 -1.626202,-6.152469 l 0,-0.02711 c -0.0096,-7.028815 5.682674,-12.756108 12.711491,-12.765696 z m 11.139493,6.531917 c 1.018272,1.82756 1.596043,3.938982 1.5991,6.179574 0.0096,7.028816 -5.682674,12.756109 -12.71149,12.765696 -2.2607,0.0031 -4.365644,-0.59281 -6.206677,-1.626202 L 54.192977,37.159917 Z"
     id="path3005" />
</svg>
