<?xml version="1.0" encoding="UTF-8" standalone="no"?>
<!-- Created with Inkscape (http://www.inkscape.org/) -->

<svg
   xmlns:dc="http://purl.org/dc/elements/1.1/"
   xmlns:cc="http://creativecommons.org/ns#"
   xmlns:rdf="http://www.w3.org/1999/02/22-rdf-syntax-ns#"
   xmlns:svg="http://www.w3.org/2000/svg"
   xmlns="http://www.w3.org/2000/svg"
   xmlns:sodipodi="http://sodipodi.sourceforge.net/DTD/sodipodi-0.dtd"
   xmlns:inkscape="http://www.inkscape.org/namespaces/inkscape"
   id="svg2"
   version="1.1"
   inkscape:version="0.91 r13725"
   width="64"
   height="67"
   sodipodi:docname="NoGoRoute.svg">
  <metadata
     id="metadata8">
    <rdf:RDF>
      <cc:Work
         rdf:about="">
        <dc:format>image/svg+xml</dc:format>
        <dc:type
           rdf:resource="http://purl.org/dc/dcmitype/StillImage" />
        <dc:title />
      </cc:Work>
    </rdf:RDF>
  </metadata>
  <defs
     id="defs6" />
  <sodipodi:namedview
     pagecolor="#ffffff"
     bordercolor="#666666"
     borderopacity="1"
     objecttolerance="10"
     gridtolerance="10"
     guidetolerance="10"
     inkscape:pageopacity="0"
     inkscape:pageshadow="2"
     inkscape:window-width="1272"
     inkscape:window-height="716"
     id="namedview4"
     showgrid="true"
     inkscape:zoom="7.0447761"
     inkscape:cx="30.055084"
     inkscape:cy="33.755278"
     inkscape:window-x="94"
     inkscape:window-y="24"
     inkscape:window-maximized="0"
     inkscape:current-layer="svg2">
    <inkscape:grid
       type="xygrid"
       id="grid2982" />
  </sodipodi:namedview>
  <path
     style="fill:none;stroke:#000080;stroke-width:10;stroke-linecap:round;stroke-linejoin:round;stroke-opacity:1;stroke-miterlimit:4;stroke-dasharray:none"
     d="M 15,12 50,32 20,52"
     id="path3036"
     inkscape:connector-curvature="0" />
  <path
     sodipodi:type="arc"
     style="fill:#ff0000;fill-opacity:1;fill-rule:evenodd;stroke:none"
     id="path2984"
     sodipodi:cx="12.5"
     sodipodi:cy="14.5"
     sodipodi:rx="7.5"
     sodipodi:ry="7.5"
     d="m 20,14.5 a 7.5,7.5 0 1 1 -6.7e-5,-0.03162"
     sodipodi:start="0"
     sodipodi:end="6.2789689"
     sodipodi:open="true"
     transform="matrix(1.3333333,0,0,1.3333333,-1.6666667,-7.3333333)" />
  <path
     sodipodi:type="arc"
     style="fill:#ff0000;fill-opacity:1;fill-rule:evenodd;stroke:none"
     id="path2984-8"
     sodipodi:cx="12.5"
     sodipodi:cy="14.5"
     sodipodi:rx="7.5"
     sodipodi:ry="7.5"
     d="m 20,14.5 a 7.5,7.5 0 1 1 -6.7e-5,-0.03162"
     sodipodi:start="0"
     sodipodi:end="6.2789689"
     sodipodi:open="true"
     transform="matrix(1.3333333,0,0,1.3333333,33.333334,12.666667)" />
  <path
     sodipodi:type="arc"
     style="fill:#ff0000;fill-opacity:1;fill-rule:evenodd;stroke:none"
     id="path2984-0"
     sodipodi:cx="12.5"
     sodipodi:cy="14.5"
     sodipodi:rx="7.5"
     sodipodi:ry="7.5"
     d="m 20,14.5 a 7.5,7.5 0 1 1 -6.7e-5,-0.03162"
     sodipodi:start="0"
     sodipodi:end="6.2789689"
     sodipodi:open="true"
     transform="matrix(1.3333333,0,0,1.3333333,3.3333338,32.666667)" />
  <path
     inkscape:connector-curvature="0"
     style="fill:#ff0000;stroke:#ffffff;stroke-width:3;stroke-linecap:round;stroke-linejoin:round;stroke-miterlimit:4;stroke-dasharray:none;stroke-opacity:1"
     d="M 30.483752,6.9339787 C 16.830284,6.952605 5.7776497,18.036658 5.7962749,31.690123 l 0,0.06867 C 5.85686,45.382391 16.928708,56.396186 30.552422,56.377602 44.205888,56.35898 55.258524,45.274921 55.239896,31.621456 55.221275,17.96799 44.137217,6.9153557 30.483752,6.9339809 Z m 0,8.5839613 c 2.870214,-0.004 5.56186,0.748256 7.897243,2.06015 L 16.440388,39.518697 c -1.296242,-2.312936 -2.047535,-4.957312 -2.06015,-7.794237 l 0,-0.03434 c -0.01216,-8.904437 7.199079,-16.16004 16.103514,-16.172187 z m 14.112032,8.274938 c 1.289995,2.315239 2.021942,4.990088 2.025815,7.828574 0.01216,8.904434 -7.199078,16.160038 -16.103512,16.172184 -2.863961,0.004 -5.530603,-0.751 -7.862909,-2.060149 L 44.595784,23.792878 Z"
     id="path3005" />
</svg>
