<?xml version="1.0" encoding="UTF-8" standalone="no"?>
<!-- Created with Inkscape (http://www.inkscape.org/) -->

<svg
   xmlns:dc="http://purl.org/dc/elements/1.1/"
   xmlns:cc="http://creativecommons.org/ns#"
   xmlns:rdf="http://www.w3.org/1999/02/22-rdf-syntax-ns#"
   xmlns:svg="http://www.w3.org/2000/svg"
   xmlns="http://www.w3.org/2000/svg"
   xmlns:sodipodi="http://sodipodi.sourceforge.net/DTD/sodipodi-0.dtd"
   xmlns:inkscape="http://www.inkscape.org/namespaces/inkscape"
   width="64px"
   height="64px"
   id="svg3513"
   version="1.1"
   inkscape:version="0.92.2 5c3e80d, 2017-08-06"
   sodipodi:docname="PasteNormal.svg">
  <defs
     id="defs3515" />
  <sodipodi:namedview
     id="base"
     pagecolor="#ffffff"
     bordercolor="#666666"
     borderopacity="1.0"
     inkscape:pageopacity="0.0"
     inkscape:pageshadow="2"
     inkscape:zoom="7.7781746"
     inkscape:cx="13.415827"
     inkscape:cy="28.090775"
     inkscape:current-layer="layer1"
     showgrid="true"
     inkscape:document-units="px"
     inkscape:grid-bbox="true"
     inkscape:window-width="1912"
     inkscape:window-height="993"
     inkscape:window-x="0"
     inkscape:window-y="0"
     inkscape:window-maximized="0">
    <inkscape:grid
       type="xygrid"
       id="grid2983" />
  </sodipodi:namedview>
  <metadata
     id="metadata3518">
    <rdf:RDF>
      <cc:Work
         rdf:about="">
        <dc:format>image/svg+xml</dc:format>
        <dc:type
           rdf:resource="http://purl.org/dc/dcmitype/StillImage" />
        <dc:title />
      </cc:Work>
    </rdf:RDF>
  </metadata>
  <g
     id="layer1"
     inkscape:label="Layer 1"
     inkscape:groupmode="layer">
    <g
       id="g864"
       transform="translate(-0.05569491,0.08645184)">
      <g
         style="stroke-width:2.76948881;stroke-miterlimit:4;stroke-dasharray:none"
         transform="matrix(1.4572544,0,0,1.4314803,-36.677609,-4.0197373)"
         id="g833">
        <rect
           style="fill:#80b3ff;fill-opacity:1;fill-rule:evenodd;stroke:#000080;stroke-width:2.76948881;stroke-linecap:round;stroke-linejoin:round;stroke-miterlimit:4;stroke-dasharray:none;stroke-dashoffset:0;stroke-opacity:1"
           id="rect3828"
           width="24.230301"
           height="34.230301"
           x="35.560623"
           y="10.415644" />
        <path
           style="fill:#80b3ff;fill-opacity:1;fill-rule:evenodd;stroke:#000080;stroke-width:2.76948881;stroke-linecap:round;stroke-linejoin:round;stroke-miterlimit:4;stroke-dasharray:none;stroke-opacity:1"
           d="m 42.039412,13.985339 h 11 V 7.9853392 h -3 c 0,0 -1,-2.5 -2.5,-2.5 -1.5,0 -2.5,2.5 -2.5,2.5 h -3 z"
           id="path4527"
           inkscape:connector-curvature="0"
           sodipodi:nodetypes="cccczccc" />
        <path
           style="fill:none;fill-rule:evenodd;stroke:#000080;stroke-width:2.76948881;stroke-linecap:round;stroke-linejoin:miter;stroke-miterlimit:4;stroke-dasharray:none;stroke-opacity:1"
           d="m 40.039412,19.985339 h 15"
           id="path4529"
           inkscape:connector-curvature="0" />
        <path
           style="fill:none;fill-rule:evenodd;stroke:#000080;stroke-width:2.76948881;stroke-linecap:round;stroke-linejoin:miter;stroke-miterlimit:4;stroke-dasharray:none;stroke-opacity:1"
           d="m 40.039412,28.485339 h 15"
           id="path4531"
           inkscape:connector-curvature="0" />
        <path
           style="fill:none;fill-rule:evenodd;stroke:#000080;stroke-width:2.76948881;stroke-linecap:round;stroke-linejoin:miter;stroke-miterlimit:4;stroke-dasharray:none;stroke-opacity:1"
           d="m 40.039412,36.985339 h 15"
           id="path4535"
           inkscape:connector-curvature="0" />
      </g>
      <g
         id="g844">
        <rect
           style="fill:none;stroke:none;stroke-width:3.93846154;stroke-linejoin:bevel;stroke-miterlimit:4;stroke-dasharray:none"
           id="rect836"
           width="64"
           height="64"
           x="0"
           y="-3.5527137e-15" />
      </g>
    </g>
    <g
       id="g852"
       transform="matrix(1.5877837,0,0,1.3166213,-10.58931,-12.618927)">
      <g
         transform="translate(-2,-4.2727273)"
         id="g4527">
        <path
           style="fill:#ffffff;fill-opacity:1;stroke:#000080;stroke-width:1.180161;stroke-linecap:butt;stroke-linejoin:miter;stroke-miterlimit:4;stroke-dasharray:none;stroke-opacity:1"
           d="m 17.439034,43.737161 c -1.63949,-4.702838 1.816795,-10.591354 5.450385,-12.517053 5.450384,-2.88855 9.083968,-0.96285 11.809163,0.962849 11.809158,8.665649 -0.468445,8.057395 -3.633589,11.554204 -3.060759,1.872799 11.083924,10.029565 -4.54199,9.628499 -3.633584,-0.96285 -5.399693,-2.477112 -9.083969,-9.628499 z"
           id="path4185"
           inkscape:connector-curvature="0"
           sodipodi:nodetypes="cccccc" />
        <path
           sodipodi:type="arc"
           style="fill:#ffffff;fill-opacity:1;fill-rule:nonzero;stroke:#000080;stroke-width:1.18116081;stroke-linecap:round;stroke-linejoin:round;stroke-miterlimit:4;stroke-dasharray:none;stroke-opacity:1"
           id="path4189"
           sodipodi:cx="-53.340767"
           sodipodi:cy="-13.459412"
           sodipodi:rx="3.7440784"
           sodipodi:ry="2.808059"
           d="m -50.113421,-14.882903 a 3.7440784,2.808059 0 0 1 -1.30852,3.834742 3.7440784,2.808059 0 0 1 -5.121347,-0.956564 3.7440784,2.808059 0 0 1 1.242263,-3.847117 3.7440784,2.808059 0 0 1 5.137418,0.906791"
           sodipodi:start="5.7515649"
           sodipodi:end="5.7256897"
           sodipodi:open="true"
           transform="matrix(-0.68623957,-0.72737559,0.68623957,-0.72737559,0,0)" />
        <path
           sodipodi:type="arc"
           style="fill:#ffff00;fill-opacity:1;fill-rule:nonzero;stroke:#000000;stroke-width:0.29821113;stroke-linecap:round;stroke-linejoin:round;stroke-miterlimit:4;stroke-dasharray:none;stroke-opacity:1"
           id="path4191"
           sodipodi:cx="33.342445"
           sodipodi:cy="37.012634"
           sodipodi:rx="1.7776624"
           sodipodi:ry="1.8842443"
           d="m 34.874767,36.057453 a 1.7776624,1.8842443 0 0 1 -0.621276,2.573162 1.7776624,1.8842443 0 0 1 -2.43158,-0.641867 1.7776624,1.8842443 0 0 1 0.589817,-2.581466 1.7776624,1.8842443 0 0 1 2.439211,0.608469"
           sodipodi:start="5.7515649"
           sodipodi:end="5.7256897"
           sodipodi:open="true"
           inkscape:transform-center-x="99.300349"
           inkscape:transform-center-y="-24.715677" />
        <path
           sodipodi:type="arc"
           style="fill:#0000ff;fill-opacity:1;fill-rule:nonzero;stroke:#000000;stroke-width:0.29821113;stroke-linecap:round;stroke-linejoin:round;stroke-miterlimit:4;stroke-dasharray:none;stroke-opacity:1"
           id="path4191-2"
           sodipodi:cx="27.578352"
           sodipodi:cy="33.945057"
           sodipodi:rx="1.7776624"
           sodipodi:ry="1.8842443"
           d="m 29.110673,32.989875 a 1.7776624,1.8842443 0 0 1 -0.621276,2.573163 1.7776624,1.8842443 0 0 1 -2.43158,-0.641867 1.7776624,1.8842443 0 0 1 0.589818,-2.581466 1.7776624,1.8842443 0 0 1 2.439211,0.608469"
           sodipodi:start="5.7515649"
           sodipodi:end="5.7256897"
           sodipodi:open="true"
           inkscape:transform-center-x="99.300349"
           inkscape:transform-center-y="-24.715677" />
        <path
           sodipodi:type="arc"
           style="fill:#808000;fill-opacity:1;fill-rule:nonzero;stroke:#000000;stroke-width:0.29821113;stroke-linecap:round;stroke-linejoin:round;stroke-miterlimit:4;stroke-dasharray:none;stroke-opacity:1"
           id="path4191-1"
           sodipodi:cx="22.377262"
           sodipodi:cy="36.569653"
           sodipodi:rx="1.7776624"
           sodipodi:ry="1.8842443"
           d="m 23.909584,35.614471 a 1.7776624,1.8842443 0 0 1 -0.621277,2.573162 1.7776624,1.8842443 0 0 1 -2.43158,-0.641866 1.7776624,1.8842443 0 0 1 0.589818,-2.581467 1.7776624,1.8842443 0 0 1 2.439211,0.608469"
           sodipodi:start="5.7515649"
           sodipodi:end="5.7256897"
           sodipodi:open="true"
           inkscape:transform-center-x="99.300349"
           inkscape:transform-center-y="-24.715677" />
        <path
           sodipodi:type="arc"
           style="fill:#ff0000;fill-opacity:1;fill-rule:nonzero;stroke:#000000;stroke-width:0.29821113;stroke-linecap:round;stroke-linejoin:round;stroke-miterlimit:4;stroke-dasharray:none;stroke-opacity:1"
           id="path4191-15"
           sodipodi:cx="21.774462"
           sodipodi:cy="43.088116"
           sodipodi:rx="1.7776624"
           sodipodi:ry="1.8842443"
           d="m 23.306783,42.132934 a 1.7776624,1.8842443 0 0 1 -0.621276,2.573163 1.7776624,1.8842443 0 0 1 -2.43158,-0.641867 1.7776624,1.8842443 0 0 1 0.589818,-2.581467 1.7776624,1.8842443 0 0 1 2.43921,0.608469"
           sodipodi:start="5.7515649"
           sodipodi:end="5.7256897"
           sodipodi:open="true"
           inkscape:transform-center-x="99.300349"
           inkscape:transform-center-y="-24.715677" />
      </g>
      <path
         style="fill:#00ff00;stroke:#008000;stroke-width:1.60022128px;stroke-linecap:round;stroke-linejoin:round;stroke-opacity:1"
         d="m 37.37245,31.595022 c 1.782616,0.631418 3.565232,1.262835 5.347849,1.894252 -2.108454,5.637562 -4.21691,11.275123 -6.325364,16.912684 -1.73469,1.939316 -3.469379,3.878631 -5.204069,5.817947 -0.04792,-2.570732 -0.09585,-5.141466 -0.14378,-7.712199 2.108454,-5.637561 4.21691,-11.275123 6.325364,-16.912684 z"
         id="path3026"
         inkscape:connector-curvature="0" />
      <path
         style="fill:none;stroke:#000000;stroke-width:1.60022128px;stroke-linecap:round;stroke-linejoin:round;stroke-opacity:1"
         d="m 31.190866,56.219905 c -0.04792,-2.570732 -0.09585,-5.141466 -0.14378,-7.712199 1.102155,-0.248047 2.204308,-0.496095 3.306462,-0.744142 0.680462,0.879465 1.360925,1.758929 2.041387,2.638394 -1.73469,1.939316 -3.469379,3.878631 -5.204069,5.817947 z"
         id="path3032"
         inkscape:connector-curvature="0" />
      <path
         style="fill:none;stroke:#008000;stroke-width:1.60022128px;stroke-linecap:butt;stroke-linejoin:miter;stroke-opacity:1"
         d="m 40.046374,32.542148 c -1.897609,5.073805 -3.795217,10.147611 -5.692826,15.221416"
         id="path3034"
         inkscape:connector-curvature="0" />
      <path
         style="fill:none;stroke:#008000;stroke-width:1.60022128px;stroke-linecap:round;stroke-linejoin:round;stroke-opacity:1"
         d="m 37.37245,31.595022 c 1.102154,-0.248047 2.204307,-0.496095 3.306461,-0.744142 0.680463,0.879465 1.360925,1.758929 2.041388,2.638394 -1.782617,-0.631417 -3.565233,-1.262834 -5.347849,-1.894252 z"
         id="path3036"
         inkscape:connector-curvature="0" />
    </g>
  </g>
</svg>
