<?xml version="1.0" encoding="UTF-8" standalone="no"?>
<!-- Created with Inkscape (http://www.inkscape.org/) -->

<svg
   width="63.971481"
   height="63.9072"
   id="svg3513"
   version="1.1"
   xmlns="http://www.w3.org/2000/svg"
   xmlns:svg="http://www.w3.org/2000/svg"
   xmlns:rdf="http://www.w3.org/1999/02/22-rdf-syntax-ns#"
   xmlns:cc="http://creativecommons.org/ns#"
   xmlns:dc="http://purl.org/dc/elements/1.1/">
  <defs
     id="defs3515" />
  <metadata
     id="metadata3518">
    <rdf:RDF>
      <cc:Work
         rdf:about="">
        <dc:format>image/svg+xml</dc:format>
        <dc:type
           rdf:resource="http://purl.org/dc/dcmitype/StillImage" />
        <dc:title />
      </cc:Work>
    </rdf:RDF>
  </metadata>
  <g
     id="layer1"
     transform="translate(0,-0.02976681)">
    <g
       id="g3792"
       style="fill:none;stroke:#000000;stroke-linecap:round" />
    <g
       id="g4172"
       transform="matrix(1.2776886,0,0,1.2824305,10.638234,7.5887277)">
      <path
         id="path4155-3"
         style="fill:#ffffff;stroke:#ff0000;stroke-width:3;stroke-linecap:round;stroke-linejoin:round"
         d="M 36.75,19.022192 A 20.042089,19.977808 0 0 1 16.707911,39 20.042089,19.977808 0 0 1 -3.3341789,19.022192 20.042089,19.977808 0 0 1 16.707911,-0.955616 20.042089,19.977808 0 0 1 36.75,19.022192 Z" />
      <path
         id="path4155"
         style="fill:#ff0000;stroke-width:0;stroke-linecap:round;stroke-linejoin:round"
         d="M 26.529093,19.022192 A 9.8211823,10.01403 0 0 1 16.707911,29.036222 9.8211823,10.01403 0 0 1 6.8867283,19.022192 9.8211823,10.01403 0 0 1 16.707911,9.0081615 9.8211823,10.01403 0 0 1 26.529093,19.022192 Z" />
    </g>
    <path
       id="rect4176"
       style="fill:none;stroke-width:3;stroke-linecap:round;stroke-linejoin:round"
       d="M 0,0.02976681 H 63.971481 V 63.936967 H 0 Z" />
  </g>
</svg>
