<?xml version="1.0" encoding="UTF-8" standalone="no"?>
<!-- Created with Inkscape (http://www.inkscape.org/) -->

<svg
   xmlns:dc="http://purl.org/dc/elements/1.1/"
   xmlns:cc="http://creativecommons.org/ns#"
   xmlns:rdf="http://www.w3.org/1999/02/22-rdf-syntax-ns#"
   xmlns:svg="http://www.w3.org/2000/svg"
   xmlns="http://www.w3.org/2000/svg"
   xmlns:sodipodi="http://sodipodi.sourceforge.net/DTD/sodipodi-0.dtd"
   xmlns:inkscape="http://www.inkscape.org/namespaces/inkscape"
   id="svg2"
   version="1.1"
   inkscape:version="0.48.5 r10040"
   width="64"
   height="67"
   sodipodi:docname="Route.svg">
  <metadata
     id="metadata8">
    <rdf:RDF>
      <cc:Work
         rdf:about="">
        <dc:format>image/svg+xml</dc:format>
        <dc:type
           rdf:resource="http://purl.org/dc/dcmitype/StillImage" />
        <dc:title></dc:title>
      </cc:Work>
    </rdf:RDF>
  </metadata>
  <defs
     id="defs6" />
  <sodipodi:namedview
     pagecolor="#ffffff"
     bordercolor="#666666"
     borderopacity="1"
     objecttolerance="10"
     gridtolerance="10"
     guidetolerance="10"
     inkscape:pageopacity="0"
     inkscape:pageshadow="2"
     inkscape:window-width="1920"
     inkscape:window-height="996"
     id="namedview4"
     showgrid="true"
     inkscape:zoom="3.5223881"
     inkscape:cx="90.831686"
     inkscape:cy="45.751543"
     inkscape:window-x="-2"
     inkscape:window-y="-3"
     inkscape:window-maximized="1"
     inkscape:current-layer="svg2">
    <inkscape:grid
       type="xygrid"
       id="grid2982" />
  </sodipodi:namedview>
  <path
     style="fill:none;stroke:#000080;stroke-width:10;stroke-linecap:round;stroke-linejoin:round;stroke-opacity:1;stroke-miterlimit:4;stroke-dasharray:none"
     d="M 15,12 50,32 20,52"
     id="path3036"
     inkscape:connector-curvature="0" />
  <path
     sodipodi:type="arc"
     style="fill:#ff0000;fill-opacity:1;fill-rule:evenodd;stroke:none"
     id="path2984"
     sodipodi:cx="12.5"
     sodipodi:cy="14.5"
     sodipodi:rx="7.5"
     sodipodi:ry="7.5"
     d="m 20,14.5 a 7.5,7.5 0 1 1 -6.7e-5,-0.03162"
     sodipodi:start="0"
     sodipodi:end="6.2789689"
     sodipodi:open="true"
     transform="matrix(1.3333333,0,0,1.3333333,-1.6666667,-7.3333333)" />
  <path
     sodipodi:type="arc"
     style="fill:#ff0000;fill-opacity:1;fill-rule:evenodd;stroke:none"
     id="path2984-8"
     sodipodi:cx="12.5"
     sodipodi:cy="14.5"
     sodipodi:rx="7.5"
     sodipodi:ry="7.5"
     d="m 20,14.5 a 7.5,7.5 0 1 1 -6.7e-5,-0.03162"
     sodipodi:start="0"
     sodipodi:end="6.2789689"
     sodipodi:open="true"
     transform="matrix(1.3333333,0,0,1.3333333,33.333334,12.666667)" />
  <path
     sodipodi:type="arc"
     style="fill:#ff0000;fill-opacity:1;fill-rule:evenodd;stroke:none"
     id="path2984-0"
     sodipodi:cx="12.5"
     sodipodi:cy="14.5"
     sodipodi:rx="7.5"
     sodipodi:ry="7.5"
     d="m 20,14.5 a 7.5,7.5 0 1 1 -6.7e-5,-0.03162"
     sodipodi:start="0"
     sodipodi:end="6.2789689"
     sodipodi:open="true"
     transform="matrix(1.3333333,0,0,1.3333333,3.3333338,32.666667)" />
  <path
     style="fill:#cccccc;stroke:#000000;stroke-width:1.41405463;stroke-miterlimit:4;stroke-opacity:1;stroke-dasharray:none"
     d="m 36.326331,14.3856 -2.696786,0.08834 -0.795779,2.959313 0,0.353352 0.397902,2.517623 -3.757816,0.927547 -0.839978,-2.429288 -0.132501,-0.265009 -2.122059,-2.252614 -2.387308,1.148387 0.442076,3.091824 0.176751,0.265012 1.326304,2.164276 -3.050461,2.385118 -1.72418,-1.855092 -0.265329,-0.220846 -2.873622,-1.192561 -1.72417,2.03177 1.72417,2.65013 0.221027,0.176666 2.122057,1.413404 -1.812592,3.356841 -2.343101,-0.927545 -0.30947,-0.08836 -3.050456,0.08836 -0.795774,2.561793 2.608363,1.678418 0.30947,0.08834 2.519939,0.441687 -0.309465,3.798527 -2.519944,0.08834 -0.309466,0.0441 -2.785199,1.325065 0.353677,2.650132 3.050458,0.485859 0.353675,0 2.431523,-0.662533 1.326285,3.621847 -2.298896,1.10422 -0.265254,0.176668 -2.033641,2.340948 1.414705,2.252611 2.962039,-0.750869 0.309467,-0.176667 1.989429,-1.59008 2.652578,2.738472 -1.635756,1.943429 -0.176751,0.309183 -0.884194,2.959312 2.210474,1.457575 2.431536,-1.899261 0.17675,-0.309183 1.149429,-2.208443 3.580991,1.413404 -0.707353,2.473455 -0.0885,0.309184 0.397877,3.047653 2.652586,0.485856 1.414706,-2.73847 0.04425,-0.353351 0.17675,-2.517623 3.802016,-0.176667 0.397877,2.561795 0.04425,0.309183 1.635757,2.650133 2.56416,-0.662533 0.17675,-3.047653 -0.04425,-0.353352 -0.928403,-2.385117 3.492539,-1.678416 1.326305,2.164272 0.221001,0.220847 2.519936,1.810924 2.077858,-1.634251 -1.061029,-2.915144 -0.221,-0.265015 -1.768384,-1.810923 2.475736,-2.959315 2.077833,1.413406 0.309478,0.176668 3.050436,0.574195 1.237881,-2.340952 -2.16626,-2.208445 -0.309476,-0.176666 -2.343108,-0.927547 1.061028,-3.666016 2.475735,0.397518 0.353702,0.0441 3.006236,-0.706704 0.132501,-2.6943 -2.829411,-1.060052 -0.30945,-0.0441 -2.564163,0.08834 -0.530526,-3.798525 2.475736,-0.618363 0.309475,-0.08834 2.475736,-1.899261 -0.928405,-2.473458 -3.094662,0.132412 -0.309475,0.132412 -2.254685,1.10422 -2.077859,-3.2685 2.033659,-1.545912 0.220999,-0.265015 1.503133,-2.650131 -1.856808,-1.943431 -2.785212,1.369233 -0.221,0.265017 -1.635757,1.943427 -3.183088,-2.164271 1.193654,-2.252614 0.1325,-0.309183 0.265278,-3.04765 -2.475736,-1.015885 -1.989433,2.385121 -0.0885,0.353349 -0.663152,2.429287 -3.802017,-0.706702 0.17675,-2.517624 -0.04425,-0.353354 -0.972604,-2.870975 z m 0.221001,11.130557 c 2.955311,0.111106 5.891475,1.199343 8.267184,3.268495 l 0.176751,0.176668 c 1.033953,0.936187 1.859156,1.993553 2.519934,3.135995 l -6.985103,2.561793 c -1.13918,-1.3235 -2.768862,-2.113719 -4.465144,-2.164262 l -2.475735,-6.757845 c 0.970979,-0.179198 1.976934,-0.25789 2.962037,-0.220847 z m -7.11773,1.766754 2.475736,6.713676 c -1.355531,1.161649 -2.143334,2.853152 -2.166284,4.593563 l -6.89668,2.517627 c -0.680877,-3.901223 0.383353,-8.102242 3.315714,-11.263065 0.963005,-1.038038 2.099085,-1.893714 3.271514,-2.561801 z m 19.58483,9.010456 c 0.695028,3.898297 -0.332702,8.095314 -3.271513,11.263065 -0.971379,1.047047 -2.087807,1.892151 -3.271514,2.561795 L 39.95147,43.227881 c 1.248455,-1.125183 2.018658,-2.731784 2.077834,-4.372718 l 6.985128,-2.561796 z m -13.307079,0.485857 c 0.719852,-0.06121 1.445732,0.298088 1.812583,0.971717 l 0,0.0441 c 0.478377,0.919731 0.1235,2.038977 -0.795778,2.517624 -0.919205,0.478638 -2.041559,0.124665 -2.519936,-0.795039 C 33.725845,38.597882 34.080722,37.478635 35,37 c 0.226752,-0.118017 0.467402,-0.200477 0.707353,-0.220846 z m -4.420968,5.962801 c 1.157304,1.293603 2.813287,2.009409 4.509394,2.031768 l 2.519935,6.846175 c -3.972717,0.745966 -8.218508,-0.249945 -11.406047,-3.13599 -1.04213,-0.943558 -1.902157,-2.025268 -2.56416,-3.180157 l 6.940903,-2.561796 z"
     id="path6034"
     inkscape:connector-curvature="0" />
</svg>
