<?xml version="1.0" encoding="UTF-8" standalone="no"?>
<!-- Created with Inkscape (http://www.inkscape.org/) -->

<svg
   xmlns:dc="http://purl.org/dc/elements/1.1/"
   xmlns:cc="http://creativecommons.org/ns#"
   xmlns:rdf="http://www.w3.org/1999/02/22-rdf-syntax-ns#"
   xmlns:svg="http://www.w3.org/2000/svg"
   xmlns="http://www.w3.org/2000/svg"
   xmlns:sodipodi="http://sodipodi.sourceforge.net/DTD/sodipodi-0.dtd"
   xmlns:inkscape="http://www.inkscape.org/namespaces/inkscape"
   width="64"
   height="64"
   id="svg2"
   version="1.1"
   inkscape:version="0.48.4 r9939"
   sodipodi:docname="SaveGISAs.svg">
  <defs
     id="defs4" />
  <sodipodi:namedview
     id="base"
     pagecolor="#ffffff"
     bordercolor="#666666"
     borderopacity="1.0"
     inkscape:pageopacity="0.0"
     inkscape:pageshadow="2"
     inkscape:zoom="0.49497475"
     inkscape:cx="-253.13768"
     inkscape:cy="189.49637"
     inkscape:document-units="px"
     inkscape:current-layer="layer1"
     showgrid="true"
     inkscape:window-width="1920"
     inkscape:window-height="1012"
     inkscape:window-x="-2"
     inkscape:window-y="-3"
     inkscape:window-maximized="1">
    <inkscape:grid
       type="xygrid"
       id="grid2985"
       empspacing="5"
       visible="true"
       enabled="true"
       snapvisiblegridlinesonly="true" />
  </sodipodi:namedview>
  <metadata
     id="metadata7">
    <rdf:RDF>
      <cc:Work
         rdf:about="">
        <dc:format>image/svg+xml</dc:format>
        <dc:type
           rdf:resource="http://purl.org/dc/dcmitype/StillImage" />
        <dc:title></dc:title>
      </cc:Work>
    </rdf:RDF>
  </metadata>
  <g
     inkscape:label="Ebene 1"
     inkscape:groupmode="layer"
     id="layer1"
     transform="translate(0,-988.36218)">
    <path
       style="fill:none;stroke:#000080;stroke-width:3;stroke-linecap:round;stroke-linejoin:round;stroke-miterlimit:4;stroke-opacity:1;stroke-dasharray:none"
       d="m 56.537945,1016.3229 c 0,0 -15,1 -22.999999,6 -6.836782,4.273 14.726779,4.2732 10.999999,8 -3.72678,3.7268 -28.376052,2.4145 -32.859375,5.1854 -2.0050037,1.2391 -5.0000005,5 -5.0000005,5"
       id="path3078"
       inkscape:connector-curvature="0"
       sodipodi:nodetypes="csssc" />
    <rect
       style="fill:none;stroke:none"
       id="rect3769"
       width="40"
       height="40"
       x="18.037945"
       y="993.24042" />
    <flowRoot
       xml:space="preserve"
       id="flowRoot3859"
       style="fill:black;stroke:none;stroke-opacity:1;stroke-width:1px;stroke-linejoin:miter;stroke-linecap:butt;fill-opacity:1;font-family:Sans;font-style:normal;font-weight:normal;font-size:12px;line-height:125%;letter-spacing:0px;word-spacing:0px"><flowRegion
         id="flowRegion3861"><rect
           id="rect3863"
           width="75.35714"
           height="62.142857"
           x="-9.4642859"
           y="2.2142856" /></flowRegion><flowPara
         id="flowPara3865" /></flowRoot>    <g
       id="g4570"
       transform="translate(0,-1.2413321)">
      <rect
         y="993.10114"
         x="5.1785688"
         height="29.999996"
         width="30"
         id="rect3366"
         style="fill:#000080;fill-opacity:1;stroke:#0000ff;stroke-width:0;stroke-linecap:round;stroke-linejoin:round;stroke-miterlimit:4;stroke-dasharray:none" />
      <rect
         y="1012.6011"
         x="10.535714"
         height="10.499999"
         width="19.5"
         id="rect4136"
         style="fill:#cccccc;fill-opacity:1;stroke:#0000ff;stroke-width:0;stroke-linecap:round;stroke-linejoin:round;stroke-miterlimit:4;stroke-dasharray:none" />
      <rect
         y="1015.2748"
         x="14.932288"
         height="5.0856576"
         width="3.8534257"
         id="rect4138"
         style="fill:#000080;fill-opacity:1;stroke:#0000ff;stroke-width:0;stroke-linecap:round;stroke-linejoin:round;stroke-miterlimit:4;stroke-dasharray:none" />
      <rect
         y="995.12585"
         x="9.2061701"
         height="14.050763"
         width="21.944799"
         id="rect4145"
         style="fill:#ececec;fill-opacity:1;stroke:#0000ff;stroke-width:0;stroke-linecap:round;stroke-linejoin:round;stroke-miterlimit:4;stroke-dasharray:none" />
    </g>
    <g
       id="g4576"
       transform="matrix(1.5329038,0,0,1.6343352,-30.928639,-623.91809)">
      <g
         transform="translate(69.522529,965.1479)"
         id="g3856">
        <path
           inkscape:connector-curvature="0"
           id="path3828"
           d="m -23.809459,52.661657 c -0.04491,-2.475537 -0.08983,-4.951075 -0.134742,-7.426612 1.975921,-5.428799 3.951843,-10.857598 5.927764,-16.286397 1.032875,-0.238862 2.065749,-0.477724 3.098624,-0.716586 0.63769,0.846898 1.27538,1.693795 1.91307,2.540693 -1.975921,5.428799 -3.951843,10.857598 -5.927764,16.286397 -1.625651,1.867502 -3.251301,3.735003 -4.876952,5.602505 z"
           style="fill:none;stroke:#ffffff;stroke-width:3.04031777;stroke-linecap:butt;stroke-linejoin:miter;stroke-miterlimit:4;stroke-opacity:1;stroke-dasharray:none" />
        <path
           inkscape:connector-curvature="0"
           id="path3026"
           d="m -18.016437,28.948648 c 1.670565,0.608036 3.341129,1.216071 5.011694,1.824107 -1.975921,5.428799 -3.951843,10.857598 -5.927764,16.286397 -1.625651,1.867502 -3.251301,3.735003 -4.876952,5.602505 -0.04491,-2.475537 -0.08983,-4.951075 -0.134742,-7.426612 1.975921,-5.428799 3.951843,-10.857598 5.927764,-16.286397 z"
           style="fill:#00ff00;stroke:#008000;stroke-width:1.52015889px;stroke-linecap:round;stroke-linejoin:round;stroke-opacity:1" />
        <path
           inkscape:connector-curvature="0"
           id="path3032"
           d="m -23.809459,52.661657 c -0.04491,-2.475537 -0.08983,-4.951075 -0.134742,-7.426612 1.032875,-0.238862 2.065749,-0.477724 3.098624,-0.716586 0.63769,0.846898 1.27538,1.693795 1.91307,2.540693 -1.625651,1.867502 -3.251301,3.735003 -4.876952,5.602505 z"
           style="fill:none;stroke:#000000;stroke-width:1.52015889px;stroke-linecap:round;stroke-linejoin:round;stroke-opacity:1" />
        <path
           inkscape:connector-curvature="0"
           id="path3034"
           d="m -15.51059,29.860701 c -1.778329,4.885919 -3.556658,9.771839 -5.334987,14.657758"
           style="fill:none;stroke:#008000;stroke-width:1.52015889px;stroke-linecap:butt;stroke-linejoin:miter;stroke-opacity:1" />
        <path
           inkscape:connector-curvature="0"
           id="path3036"
           d="m -18.016437,28.948648 c 1.032875,-0.238862 2.065749,-0.477724 3.098624,-0.716586 0.63769,0.846898 1.27538,1.693795 1.91307,2.540693 -1.670565,-0.608036 -3.341129,-1.216071 -5.011694,-1.824107 z"
           style="fill:none;stroke:#008000;stroke-width:1.52015889px;stroke-linecap:round;stroke-linejoin:round;stroke-opacity:1" />
      </g>
    </g>
  </g>
</svg>
