<?xml version="1.0" encoding="UTF-8" standalone="no"?>
<!-- Created with Inkscape (http://www.inkscape.org/) -->

<svg
   xmlns:dc="http://purl.org/dc/elements/1.1/"
   xmlns:cc="http://creativecommons.org/ns#"
   xmlns:rdf="http://www.w3.org/1999/02/22-rdf-syntax-ns#"
   xmlns:svg="http://www.w3.org/2000/svg"
   xmlns="http://www.w3.org/2000/svg"
   xmlns:sodipodi="http://sodipodi.sourceforge.net/DTD/sodipodi-0.dtd"
   xmlns:inkscape="http://www.inkscape.org/namespaces/inkscape"
   width="64px"
   height="64px"
   id="svg3020"
   version="1.1"
   inkscape:version="0.92.4 (5da689c313, 2019-01-14)"
   sodipodi:docname="Screenshot.svg">
  <defs
     id="defs3022" />
  <sodipodi:namedview
     id="base"
     pagecolor="#ffffff"
     bordercolor="#666666"
     borderopacity="1.0"
     inkscape:pageopacity="0.0"
     inkscape:pageshadow="2"
     inkscape:zoom="3.8890873"
     inkscape:cx="54.496777"
     inkscape:cy="67.866065"
     inkscape:current-layer="layer1"
     showgrid="true"
     inkscape:document-units="px"
     inkscape:grid-bbox="true"
     inkscape:window-width="1912"
     inkscape:window-height="994"
     inkscape:window-x="0"
     inkscape:window-y="0"
     inkscape:window-maximized="0">
    <inkscape:grid
       type="xygrid"
       id="grid3017" />
  </sodipodi:namedview>
  <metadata
     id="metadata3025">
    <rdf:RDF>
      <cc:Work
         rdf:about="">
        <dc:format>image/svg+xml</dc:format>
        <dc:type
           rdf:resource="http://purl.org/dc/dcmitype/StillImage" />
        <dc:title></dc:title>
      </cc:Work>
    </rdf:RDF>
  </metadata>
  <g
     id="layer1"
     inkscape:label="Layer 1"
     inkscape:groupmode="layer">
    <g
       id="g890"
       transform="matrix(0.78257521,0,0,0.85975189,1.0871239,10.457271)">
      <g
         id="g850">
        <rect
           style="fill:#000080;fill-opacity:1;stroke:#000000;stroke-width:3;stroke-linecap:round;stroke-linejoin:round;stroke-miterlimit:4;stroke-dasharray:none;stroke-dashoffset:0;stroke-opacity:1"
           id="rect841"
           width="60"
           height="35"
           x="0"
           y="-6" />
        <path
           style="fill:#000000;fill-opacity:1;stroke:#ffffff;stroke-width:4;stroke-linecap:round;stroke-linejoin:round;stroke-miterlimit:4;stroke-dasharray:none;stroke-dashoffset:0;stroke-opacity:1"
           id="path843"
           sodipodi:type="arc"
           sodipodi:cx="33.642933"
           sodipodi:cy="11.719306"
           sodipodi:rx="10"
           sodipodi:ry="10"
           sodipodi:start="5.4018464"
           sodipodi:end="5.4013128"
           sodipodi:open="true"
           d="M 40.004119,4.0033933 A 10,10 0 0 1 41.359694,18.079463 10,10 0 0 1 27.283805,19.436916 10,10 0 0 1 25.924475,5.3612082 10,10 0 0 1 40.000001,4" />
        <rect
           style="fill:#000000;fill-opacity:1;stroke:#000000;stroke-width:3;stroke-linecap:round;stroke-linejoin:round;stroke-miterlimit:4;stroke-dasharray:none;stroke-dashoffset:0;stroke-opacity:1"
           id="rect845"
           width="10"
           height="5"
           x="5"
           y="-11" />
      </g>
      <g
         id="g827"
         transform="matrix(1.2531758,0,0,1.2531758,16.96261,-2.6634808)">
        <path
           id="path4129-7-3-9"
           style="fill:#ffffff;stroke:#ffffff;stroke-width:4.43720007;stroke-linecap:round;stroke-linejoin:round;stroke-miterlimit:4;stroke-dasharray:none;stroke-opacity:1"
           d="m 12.578659,31.869715 c 5.995718,9.867863 18.720945,12.923577 28.422579,6.82512 2.822568,-1.774263 5.18323,-4.214229 6.882092,-7.113257 M 12.843943,31.039361 c 5.995719,-9.867863 18.720945,-12.923577 28.422579,-6.82512 2.822568,1.774263 5.18323,4.214228 6.882092,7.113257"
           inkscape:connector-curvature="0" />
        <rect
           y="11.454543"
           x="11.625697"
           height="40"
           width="37.47588"
           id="rect4156-1"
           style="fill:none;stroke:#000080;stroke-width:0;stroke-linecap:round;stroke-linejoin:round;stroke-miterlimit:4;stroke-dasharray:none;stroke-opacity:1" />
        <path
           id="path4129-7-3-2"
           style="fill:#ffffff;stroke:#000080;stroke-width:2.03560519;stroke-linecap:round;stroke-linejoin:round;stroke-miterlimit:4;stroke-opacity:1"
           d="m 12.578658,31.869715 c 5.995718,9.867863 18.720946,12.923577 28.42258,6.82512 2.822568,-1.774263 5.18323,-4.214229 6.882092,-7.113257 M 12.843942,31.039361 c 5.995719,-9.867863 18.720946,-12.923577 28.42258,-6.82512 2.822568,1.774263 5.18323,4.214228 6.882092,7.113257"
           inkscape:connector-curvature="0" />
        <path
           sodipodi:open="true"
           sodipodi:end="5.7456747"
           sodipodi:start="5.8033439"
           d="m 34.34266,29.256454 a 4.4855876,4.7612062 0 0 1 -1.851153,6.389344 4.4855876,4.7612062 0 0 1 -6.045537,-1.872579 4.4855876,4.7612062 0 0 1 1.676838,-6.443337 4.4855876,4.7612062 0 0 1 6.093886,1.686795"
           sodipodi:ry="4.7612062"
           sodipodi:rx="4.4855876"
           sodipodi:cy="31.454411"
           sodipodi:cx="30.363638"
           id="path4149-5-9"
           style="fill:#000080;stroke:#000080;stroke-width:1.84853697;stroke-linecap:round;stroke-linejoin:round;stroke-miterlimit:4;stroke-dasharray:none;stroke-opacity:1"
           sodipodi:type="arc" />
      </g>
    </g>
  </g>
</svg>
