<?xml version="1.0" encoding="UTF-8" standalone="no"?>
<!-- Created with Inkscape (http://www.inkscape.org/) -->

<svg
   xmlns:dc="http://purl.org/dc/elements/1.1/"
   xmlns:cc="http://creativecommons.org/ns#"
   xmlns:rdf="http://www.w3.org/1999/02/22-rdf-syntax-ns#"
   xmlns:svg="http://www.w3.org/2000/svg"
   xmlns="http://www.w3.org/2000/svg"
   xmlns:sodipodi="http://sodipodi.sourceforge.net/DTD/sodipodi-0.dtd"
   xmlns:inkscape="http://www.inkscape.org/namespaces/inkscape"
   width="64"
   height="64"
   id="svg2"
   version="1.1"
   inkscape:version="0.91 r13725"
   sodipodi:docname="SearchDatabase.svg">
  <defs
     id="defs4" />
  <sodipodi:namedview
     id="base"
     pagecolor="#ffffff"
     bordercolor="#666666"
     borderopacity="1.0"
     inkscape:pageopacity="0.0"
     inkscape:pageshadow="2"
     inkscape:zoom="0.45184044"
     inkscape:cx="-243.4793"
     inkscape:cy="513.43589"
     inkscape:document-units="px"
     inkscape:current-layer="layer1"
     showgrid="true"
     inkscape:window-width="1920"
     inkscape:window-height="996"
     inkscape:window-x="0"
     inkscape:window-y="0"
     inkscape:window-maximized="1">
    <inkscape:grid
       type="xygrid"
       id="grid2985"
       empspacing="5"
       visible="true"
       enabled="true"
       snapvisiblegridlinesonly="true" />
  </sodipodi:namedview>
  <metadata
     id="metadata7">
    <rdf:RDF>
      <cc:Work
         rdf:about="">
        <dc:format>image/svg+xml</dc:format>
        <dc:type
           rdf:resource="http://purl.org/dc/dcmitype/StillImage" />
        <dc:title></dc:title>
      </cc:Work>
    </rdf:RDF>
  </metadata>
  <g
     inkscape:label="Ebene 1"
     inkscape:groupmode="layer"
     id="layer1"
     transform="translate(0,-988.36218)">
    <flowRoot
       xml:space="preserve"
       id="flowRoot3859"
       style="font-style:normal;font-weight:normal;font-size:12px;line-height:125%;font-family:Sans;letter-spacing:0px;word-spacing:0px;fill:#000000;fill-opacity:1;stroke:none;stroke-width:1px;stroke-linecap:butt;stroke-linejoin:miter;stroke-opacity:1"
       transform="translate(-56.338127,-9.7809249)"><flowRegion
         id="flowRegion3861"><rect
           id="rect3863"
           width="75.35714"
           height="62.142857"
           x="-9.4642859"
           y="2.2142856" /></flowRegion><flowPara
         id="flowPara3865" /></flowRoot>    <g
       id="g4172"
       transform="translate(2.7754746,-2.1815968)">
      <g
         style="stroke-width:3.38945651;stroke-miterlimit:4;stroke-dasharray:none"
         transform="matrix(0.9270579,0,0,0.9609277,5.3800344,983.04727)"
         id="g3856">
        <path
           sodipodi:type="arc"
           style="fill:#ffffff;fill-opacity:1;fill-rule:evenodd;stroke:#000080;stroke-width:3.60437727;stroke-linecap:round;stroke-linejoin:round;stroke-miterlimit:4;stroke-dasharray:none;stroke-dashoffset:0;stroke-opacity:1"
           id="path3012-6"
           sodipodi:cx="30"
           sodipodi:cy="19"
           sodipodi:rx="20"
           sodipodi:ry="5"
           d="m 47.741363,16.691808 a 20,5 0 0 1 -8.506645,6.743279 20,5 0 0 1 -26.974053,-2.125921 20,5 0 0 1 8.500722,-6.743746 20,5 0 0 1 26.975919,2.12444"
           sodipodi:start="5.8033439"
           sodipodi:end="5.8029047"
           sodipodi:open="true"
           transform="matrix(0.97628959,0,0,0.90577639,0.75264714,41.745822)" />
        <rect
           style="fill:#ffffff;fill-opacity:1;fill-rule:evenodd;stroke:none"
           id="rect3032"
           width="40"
           height="40"
           x="10.056155"
           y="18.943857" />
        <path
           sodipodi:type="arc"
           style="fill:#ffffff;fill-opacity:1;fill-rule:evenodd;stroke:#000080;stroke-width:3.60437727;stroke-linecap:round;stroke-linejoin:round;stroke-miterlimit:4;stroke-dasharray:none;stroke-dashoffset:0;stroke-opacity:1"
           id="path3012"
           sodipodi:cx="30"
           sodipodi:cy="19"
           sodipodi:rx="20"
           sodipodi:ry="5"
           d="m 47.741363,16.691808 a 20,5 0 0 1 -8.506645,6.743279 20,5 0 0 1 -26.974053,-2.125921 20,5 0 0 1 8.500722,-6.743746 20,5 0 0 1 26.975919,2.12444"
           sodipodi:start="5.8033439"
           sodipodi:end="5.8029047"
           sodipodi:open="true"
           transform="matrix(0.97628959,0,0,0.90577639,0.75264717,1.7458229)" />
        <path
           sodipodi:type="arc"
           style="fill:#ffffff;fill-opacity:1;fill-rule:evenodd;stroke:#000080;stroke-width:3.67074943;stroke-linecap:round;stroke-linejoin:round;stroke-miterlimit:4;stroke-dasharray:none;stroke-dashoffset:0;stroke-opacity:1"
           id="path3012-0"
           sodipodi:cx="30"
           sodipodi:cy="19"
           sodipodi:rx="20"
           sodipodi:ry="5"
           d="M 49.959676,19.317345 A 20,5 0 0 1 30.145537,23.999868 20,5 0 0 1 10.060911,19.389931"
           sodipodi:start="0.063511676"
           sodipodi:end="3.0635271"
           transform="matrix(0.9793945,0,0,0.87054856,0.71290745,12.690707)"
           sodipodi:open="true" />
        <path
           sodipodi:type="arc"
           style="fill:#ffffff;fill-opacity:1;fill-rule:evenodd;stroke:#000080;stroke-width:3.67074943;stroke-linecap:round;stroke-linejoin:round;stroke-miterlimit:4;stroke-dasharray:none;stroke-dashoffset:0;stroke-opacity:1"
           id="path3012-0-2"
           sodipodi:cx="30"
           sodipodi:cy="19"
           sodipodi:rx="20"
           sodipodi:ry="5"
           d="M 49.959676,19.317345 A 20,5 0 0 1 30.145537,23.999868 20,5 0 0 1 10.060911,19.389931"
           sodipodi:start="0.063511676"
           sodipodi:end="3.0635271"
           transform="matrix(0.9793945,0,0,0.87054856,0.6219979,22.236163)"
           sodipodi:open="true" />
        <path
           sodipodi:type="arc"
           style="fill:#ffffff;fill-opacity:1;fill-rule:evenodd;stroke:#000080;stroke-width:3.67074943;stroke-linecap:round;stroke-linejoin:round;stroke-miterlimit:4;stroke-dasharray:none;stroke-dashoffset:0;stroke-opacity:1"
           id="path3012-0-1"
           sodipodi:cx="30"
           sodipodi:cy="19"
           sodipodi:rx="20"
           sodipodi:ry="5"
           d="M 49.959676,19.317345 A 20,5 0 0 1 30.145537,23.999868 20,5 0 0 1 10.060911,19.389931"
           sodipodi:start="0.063511676"
           sodipodi:end="3.0635271"
           transform="matrix(0.9793945,0,0,0.87054856,0.71290699,32.327076)"
           sodipodi:open="true" />
        <path
           style="fill:#ffffff;stroke:#000080;stroke-width:3.38945651;stroke-linecap:round;stroke-linejoin:miter;stroke-miterlimit:4;stroke-dasharray:none;stroke-opacity:1"
           d="m 10.454545,19 0,40"
           id="path3084"
           inkscape:connector-curvature="0" />
        <path
           style="fill:#ffffff;stroke:#000080;stroke-width:3.38945651;stroke-linecap:round;stroke-linejoin:miter;stroke-miterlimit:4;stroke-dasharray:none;stroke-opacity:1"
           d="m 49.545455,19 0,40"
           id="path3086"
           inkscape:connector-curvature="0" />
      </g>
      <rect
         y="995.48077"
         x="8.237051"
         height="50"
         width="50"
         id="rect2997"
         style="fill:none;stroke:none" />
    </g>
    <path
       inkscape:connector-curvature="0"
       style="fill:#008000;fill-opacity:1;stroke:#000000;stroke-width:1.29969895;stroke-linecap:round;stroke-linejoin:round;stroke-miterlimit:4;stroke-dasharray:none;stroke-opacity:1"
       d="m 21.662403,1017.1498 c 0.0019,2.0247 0.455839,4.0701 1.447538,5.9828 3.30752,6.3792 11.142539,8.8324 17.498152,5.5126 0.16494,-0.086 0.308625,-0.2069 0.468321,-0.2991 l 14.390209,14.4441 4.89608,-4.9572 -14.39021,-14.444 c 2.03228,-3.6896 2.25331,-8.2899 0.1703,-12.3074 -3.307525,-6.3792 -11.142545,-8.8325 -17.498157,-5.5127 l -0.638619,0.3419 c -4.05963,2.4287 -6.347897,6.7848 -6.343614,11.239 z m 3.23567,-0.043 c -0.0033,-3.3407 1.72363,-6.5543 4.768353,-8.3759 l 0.468321,-0.2991 c 4.766708,-2.4899 10.63233,-0.5965 13.11297,4.1879 2.480646,4.7844 0.636976,10.6722 -4.129734,13.162 -4.766711,2.4899 -10.63233,0.6393 -13.112971,-4.1451 -0.743775,-1.4346 -1.105478,-3.0113 -1.106939,-4.5298 z"
       id="path6229" />
  </g>
</svg>
