<?xml version="1.0" encoding="UTF-8" standalone="no"?>
<!-- Created with Inkscape (http://www.inkscape.org/) -->

<svg
   xmlns:dc="http://purl.org/dc/elements/1.1/"
   xmlns:cc="http://creativecommons.org/ns#"
   xmlns:rdf="http://www.w3.org/1999/02/22-rdf-syntax-ns#"
   xmlns:svg="http://www.w3.org/2000/svg"
   xmlns="http://www.w3.org/2000/svg"
   xmlns:sodipodi="http://sodipodi.sourceforge.net/DTD/sodipodi-0.dtd"
   xmlns:inkscape="http://www.inkscape.org/namespaces/inkscape"
   width="64px"
   height="64px"
   id="svg3369"
   version="1.1"
   inkscape:version="0.92.2 5c3e80d, 2017-08-06"
   sodipodi:docname="SearchWeb.svg">
  <defs
     id="defs3371" />
  <sodipodi:namedview
     id="base"
     pagecolor="#ffffff"
     bordercolor="#666666"
     borderopacity="1.0"
     inkscape:pageopacity="0.0"
     inkscape:pageshadow="2"
     inkscape:zoom="11"
     inkscape:cx="25.961648"
     inkscape:cy="30.238068"
     inkscape:current-layer="layer1"
     showgrid="true"
     inkscape:document-units="px"
     inkscape:grid-bbox="true"
     inkscape:window-width="1920"
     inkscape:window-height="1020"
     inkscape:window-x="0"
     inkscape:window-y="0"
     inkscape:window-maximized="1" />
  <metadata
     id="metadata3374">
    <rdf:RDF>
      <cc:Work
         rdf:about="">
        <dc:format>image/svg+xml</dc:format>
        <dc:type
           rdf:resource="http://purl.org/dc/dcmitype/StillImage" />
        <dc:title />
      </cc:Work>
    </rdf:RDF>
  </metadata>
  <g
     id="layer1"
     inkscape:label="Layer 1"
     inkscape:groupmode="layer">
    <text
       xml:space="preserve"
       style="font-style:normal;font-weight:normal;font-size:40px;line-height:125%;font-family:sans-serif;letter-spacing:0px;word-spacing:0px;fill:#008000;fill-opacity:1;stroke:none;stroke-width:1px;stroke-linecap:butt;stroke-linejoin:miter;stroke-opacity:1;"
       x="11.545453"
       y="43.909088"
       id="text817"><tspan
         sodipodi:role="line"
         id="tspan815"
         x="11.545453"
         y="43.909088"
         style="font-style:normal;font-variant:normal;font-weight:bold;font-stretch:normal;font-size:53.33333206px;font-family:sans-serif;-inkscape-font-specification:'sans-serif Bold';fill:#008000;">w</tspan></text>
    <path
       inkscape:connector-curvature="0"
       style="fill:#000080;fill-opacity:1;stroke:#000000;stroke-width:0.97485495;stroke-linecap:round;stroke-linejoin:round;stroke-miterlimit:4;stroke-dasharray:none;stroke-opacity:1"
       d="m 23.110834,36.13784 c 0.0014,1.518759 0.341877,3.053059 1.08565,4.487817 2.480634,4.785221 8.356888,6.625472 13.123587,4.135201 0.123705,-0.06463 0.231469,-0.155253 0.35124,-0.224391 l 10.792634,10.83487 3.67205,-3.718476 -10.792634,-10.83487 c 1.524209,-2.767612 1.689978,-6.21844 0.127724,-9.232079 C 38.990449,26.80069 33.114196,24.96044 28.347497,27.45071 l -0.478963,0.256447 c -3.044717,1.821859 -4.760913,5.089419 -4.7577,8.430683 z m 2.426746,-0.032 c -0.0025,-2.505944 1.29272,-4.916553 3.576258,-6.282942 l 0.35124,-0.22439 c 3.575024,-1.867711 7.974232,-0.447448 9.834708,3.141472 1.860476,3.588919 0.47773,8.005483 -3.097295,9.873195 -3.575025,1.86771 -7.974231,0.479504 -9.834709,-3.109415 -0.55783,-1.076072 -0.829107,-2.258855 -0.830202,-3.39792 z"
       id="path6229" />
  </g>
</svg>
