<?xml version="1.0" encoding="UTF-8" standalone="no"?>
<!-- Created with Inkscape (http://www.inkscape.org/) -->

<svg
   xmlns:dc="http://purl.org/dc/elements/1.1/"
   xmlns:cc="http://creativecommons.org/ns#"
   xmlns:rdf="http://www.w3.org/1999/02/22-rdf-syntax-ns#"
   xmlns:svg="http://www.w3.org/2000/svg"
   xmlns="http://www.w3.org/2000/svg"
   xmlns:xlink="http://www.w3.org/1999/xlink"
   xmlns:sodipodi="http://sodipodi.sourceforge.net/DTD/sodipodi-0.dtd"
   xmlns:inkscape="http://www.inkscape.org/namespaces/inkscape"
   width="64px"
   height="64px"
   id="svg3369"
   version="1.1"
   inkscape:version="0.91 r13725"
   sodipodi:docname="SearchGeonames.svg"
   inkscape:export-filename="/home/norbert/Development/QMapShack/QMapShack_brouter/src/icons/48x48/SearchGeonames.png"
   inkscape:export-xdpi="67.5"
   inkscape:export-ydpi="67.5">
  <defs
     id="defs3371">
    <linearGradient
       inkscape:collect="always"
       id="linearGradient5665">
      <stop
         style="stop-color:#2778ca;stop-opacity:1;"
         offset="0"
         id="stop5667" />
      <stop
         style="stop-color:#2778ca;stop-opacity:0;"
         offset="1"
         id="stop5669" />
    </linearGradient>
    <linearGradient
       inkscape:collect="always"
       xlink:href="#linearGradient5665"
       id="linearGradient5671"
       x1="39.090908"
       y1="38.545456"
       x2="11.272728"
       y2="8.727273"
       gradientUnits="userSpaceOnUse"
       gradientTransform="matrix(1.1772083,0,0,1.1892181,-5.3474916,-5.8750995)" />
  </defs>
  <sodipodi:namedview
     id="base"
     pagecolor="#ffffff"
     bordercolor="#666666"
     borderopacity="1.0"
     inkscape:pageopacity="0.0"
     inkscape:pageshadow="2"
     inkscape:zoom="6.8739496"
     inkscape:cx="24.479829"
     inkscape:cy="31.5"
     inkscape:current-layer="layer1"
     showgrid="true"
     inkscape:document-units="px"
     inkscape:grid-bbox="true"
     inkscape:window-width="1366"
     inkscape:window-height="744"
     inkscape:window-x="0"
     inkscape:window-y="24"
     inkscape:window-maximized="1" />
  <metadata
     id="metadata3374">
    <rdf:RDF>
      <cc:Work
         rdf:about="">
        <dc:format>image/svg+xml</dc:format>
        <dc:type
           rdf:resource="http://purl.org/dc/dcmitype/StillImage" />
        <dc:title />
      </cc:Work>
    </rdf:RDF>
  </metadata>
  <g
     id="layer1"
     inkscape:label="Layer 1"
     inkscape:groupmode="layer">
    <path
       style="opacity:1;fill:url(#linearGradient5671);fill-opacity:1;stroke:none;stroke-width:3;stroke-linecap:round;stroke-miterlimit:4;stroke-dasharray:none;stroke-opacity:1"
       id="path4138"
       sodipodi:type="arc"
       sodipodi:cx="32.109135"
       sodipodi:cy="31.963659"
       sodipodi:rx="31.891644"
       sodipodi:ry="32.000778"
       sodipodi:start="0"
       sodipodi:end="6.2789616"
       sodipodi:open="true"
       d="M 64.000778,31.963659 A 31.891644,32.000778 0 0 1 32.14281,63.96442 31.891644,32.000778 0 0 1 0.21756227,32.03124 31.891644,32.000778 0 0 1 32.008109,-0.03695835 31.891644,32.000778 0 0 1 64.000494,31.828498" />
    <path
       style="fill:#5bebe0;fill-opacity:1;fill-rule:evenodd;stroke:#000000;stroke-width:1.18319786px;stroke-linecap:butt;stroke-linejoin:miter;stroke-opacity:1"
       d="m 31.252984,33.69343 c 0.285383,0.216221 0.570768,0.432444 0.856152,0.648665 0,0.07208 -0.05045,0.165257 0,0.216221 0.05045,0.05097 0.150224,-0.03223 0.214037,0 0.09024,0.04558 0.123792,0.170638 0.214038,0.216221 0.05534,0.02796 1.132516,0 1.284227,0 0.07135,0 0.163588,0.05097 0.214037,0 0.05045,-0.05097 -0.05046,-0.165256 0,-0.216221 0.100894,-0.101931 0.327178,0.101931 0.428077,0 0.05046,-0.05097 -0.05046,-0.165258 0,-0.216221 0.107023,-0.108106 0.535094,0.108106 0.642113,0 0.05046,-0.05097 -0.05046,-0.165258 0,-0.216221 0.100894,-0.101931 0.300448,0.06446 0.428077,0 0.09024,-0.04558 0.123792,-0.170639 0.214037,-0.216223 0.227161,-0.114736 0.200916,0.114736 0.428075,0 0.09024,-0.04558 0.123792,-0.170637 0.214038,-0.216221 0.06381,-0.03223 0.150225,0.03223 0.214039,0 0.09024,-0.04558 0.118317,-0.183989 0.214038,-0.216221 0.135369,-0.04558 0.285383,0 0.428075,0 0.07135,0 0.150224,0.03223 0.214037,0 0.09024,-0.04558 0.123792,-0.170637 0.21404,-0.216221 0.06381,-0.03223 0.150223,0.03223 0.214037,0 0.09024,-0.04558 0.123792,-0.17064 0.214038,-0.216222 0.127627,-0.06447 0.327177,0.101931 0.428075,0 0.05045,-0.05096 -0.05046,-0.165257 0,-0.216221 0.100895,-0.10193 0.300449,0.06446 0.428077,0 0.09024,-0.04558 0.123791,-0.170639 0.214037,-0.216223 0.06381,-0.03223 0.163589,0.05097 0.214038,0 0.05046,-0.05097 -0.05046,-0.165257 0,-0.216221 0.100894,-0.101931 0.300448,0.06446 0.428076,0 0.09024,-0.04558 0.123791,-0.170637 0.214038,-0.216221 0.06381,-0.03223 0.150224,0.03223 0.214038,0 0.09024,-0.04558 0.123791,-0.170638 0.214037,-0.216221 0.127627,-0.06446 0.327177,0.101931 0.428076,0 0.05045,-0.05096 -0.05046,-0.165258 0,-0.216221 0.100894,-0.101931 0.300448,0.06447 0.428076,0 0.09024,-0.04558 0.123792,-0.170639 0.214038,-0.216223 0.134527,-0.06795 0.721624,0.06795 0.856152,0 0.09024,-0.04558 0.12379,-0.170638 0.214037,-0.216222 0.06514,-0.0329 0.54572,0 0.642113,0 0.111929,0 0.799872,-0.02843 0.856152,0 0.09024,0.04558 0.123792,0.17064 0.214038,0.216222 0.134528,0.06795 0.721624,-0.06795 0.856152,0 0.09024,0.04558 0.123792,0.170639 0.214037,0.216223 0.127628,0.06447 0.300448,-0.06446 0.428075,0 0.09024,0.04558 0.123792,0.170637 0.214039,0.216221 0.17123,0.08649 0.470884,-0.08649 0.642113,0 0.09024,0.04558 0.123792,0.170637 0.214038,0.216221 0.08487,0.04287 0.598357,-0.04421 0.642114,0 0.05046,0.05097 -0.05045,0.165258 0,0.216221 0.05046,0.05097 0.150224,-0.03223 0.214038,0 0.09024,0.04558 0.123791,0.170639 0.214037,0.216221 0.06381,0.03223 0.163589,-0.05097 0.214038,0 0.05045,0.05097 -0.05046,0.165259 0,0.216223 0.05045,0.05097 0.150224,-0.03223 0.214039,0 0.180492,0.09116 0.247582,0.341275 0.428075,0.432443 0.06381,0.03223 0.163589,-0.05096 0.214038,0 0.05046,0.05097 -0.05046,0.165256 0,0.216221 0.05046,0.05096 0.150224,-0.03223 0.214037,0 0.04097,0.02069 0.835667,0.823496 0.856152,0.864886 0.03191,0.06446 -0.03191,0.151756 0,0.216221 0.04512,0.09117 0.168915,0.125054 0.214038,0.216221 0.02768,0.0559 0,1.144071 0,1.297329 0,0.07208 0,0.144148 0,0.216221 0,0.07208 -0.05046,0.165259 0,0.216222 0.05045,0.05097 0.163588,-0.05097 0.214037,0 0.05045,0.05097 0,0.144149 0,0.216223 0,0.101952 0.0097,1.071306 0,1.081106 -0.05046,0.05097 -0.163587,-0.05096 -0.214037,0 -0.07513,0.0759 0.07392,0.931757 0,1.081108 -0.04512,0.09117 -0.168914,0.125055 -0.214038,0.216221 -0.07392,0.149352 0.07513,1.00521 0,1.081107 -0.05046,0.05097 -0.163588,-0.05096 -0.214037,0 -0.107023,0.108118 0.107023,0.540554 0,0.648665 -0.05045,0.05096 -0.163589,-0.05097 -0.214038,0 -0.100894,0.101931 0.06381,0.303513 0,0.432443 -0.04512,0.09117 -0.168915,0.125055 -0.214037,0.216221 -0.06381,0.128929 0.100894,0.330515 0,0.432443 -0.05045,0.05097 -0.16359,-0.05097 -0.21404,0 -0.100894,0.101931 0.100894,0.330516 0,0.432444 -0.05046,0.05097 -0.163588,-0.05096 -0.214037,0 -0.100894,0.101931 0.100894,0.330514 0,0.432442 -0.05046,0.05097 -0.163589,-0.05096 -0.214038,0 -0.100894,0.101931 0.100894,0.330514 0,0.432443 -0.05046,0.05096 -0.163588,-0.05097 -0.214037,0 -0.05046,0.05096 0.0319,0.151757 0,0.216221 -0.709875,0.717116 0.100894,-0.203855 -0.214038,0.432444 -0.04512,0.09117 -0.168916,0.125055 -0.214039,0.216221 -0.03191,0.06447 0.05045,0.165257 0,0.216222 -0.05046,0.05097 -0.163589,-0.05097 -0.214038,0 0,0.57659 0.07134,-0.07208 -0.214037,0.216221 -0.05046,0.05097 0.0319,0.151757 0,0.216222 -0.04512,0.09117 -0.168914,0.125053 -0.214038,0.216221 -0.0319,0.06446 0.03191,0.151756 0,0.216221 -0.04512,0.09117 -0.168915,0.125055 -0.214037,0.216221 -0.03191,0.06446 0.05046,0.165258 0,0.216223 -0.05045,0.05096 -0.163589,-0.05097 -0.214039,0 -0.100894,0.10193 0.100895,0.330515 0,0.432443 -0.05045,0.05097 -0.163589,-0.05097 -0.214038,0 -0.100894,0.101931 0.100894,0.330514 0,0.432442 -0.05046,0.05097 -0.163589,-0.05097 -0.214038,0 -0.05046,0.05097 0.03191,0.151756 0,0.216221 -0.04512,0.09117 -0.168914,0.125055 -0.214037,0.216222 -0.03191,0.06447 0.05046,0.165258 0,0.216222 -0.05046,0.05097 -0.163589,-0.05096 -0.214038,0 -0.05046,0.05097 0.03191,0.151756 0,0.216222 -0.709874,0.717116 0.100894,-0.203857 -0.214038,0.432442 -0.709874,0.717116 0.100895,-0.203856 -0.214039,0.432443 -0.04512,0.09116 -0.168914,0.125054 -0.214037,0.216222 -0.06381,0.128929 0.100894,0.330515 0,0.432442 -0.05046,0.05097 -0.163589,-0.05097 -0.214038,0 -0.100894,0.101931 0.100894,0.330515 0,0.432443 -0.05046,0.05097 -0.163588,-0.05097 -0.214037,0 -0.100895,0.10193 0.06381,0.303514 0,0.432444 -0.04512,0.09116 -0.168916,0.125054 -0.214039,0.216221 -0.06727,0.135901 0.06727,0.728986 0,0.864887 -0.04512,0.09117 -0.168915,0.125054 -0.214037,0.216221 -0.08561,0.172976 0.08562,0.475686 0,0.648663 -0.04512,0.09117 -0.168915,0.125055 -0.214039,0.216223 -0.04243,0.08573 0.04375,0.60446 0,0.648663 -0.05046,0.05096 -0.163588,-0.05097 -0.214037,0 -0.05857,0.05916 0.05805,0.74759 0,0.864887 -0.04512,0.09117 -0.168914,0.125054 -0.214038,0.216221 -0.06381,0.128929 0.06381,0.303513 0,0.432442 -0.04512,0.09117 -0.168916,0.125055 -0.214038,0.216222 -0.03191,0.06446 0.03191,0.151757 0,0.216223 -0.04512,0.09116 -0.168915,0.125054 -0.214038,0.216221 -0.0319,0.06446 0.03191,0.151756 0,0.216221 -0.04512,0.09116 -0.168915,0.125054 -0.214038,0.216221 -0.03191,0.06446 0.03191,0.151757 0,0.216221 -0.04512,0.09117 -0.168914,0.125055 -0.214038,0.216222 -0.0319,0.06446 0.03191,0.151757 0,0.216222 -0.09024,0.182333 -0.337829,0.250109 -0.428076,0.432442 -0.0319,0.06447 0.03191,0.151758 0,0.216222 -0.0565,0.114165 -0.371568,0.318278 -0.428074,0.432443 -0.03191,0.06447 0.05046,0.165258 0,0.216222 -0.05045,0.05097 -0.16359,-0.05096 -0.214039,0 -0.05046,0.05097 0.03191,0.151756 0,0.216221 -0.04512,0.09117 -0.142692,0.144148 -0.214037,0.216221 -0.07135,0.07208 -0.142692,0.144148 -0.214039,0.216221 -0.112682,0.113832 -0.527799,0.590925 -0.642113,0.648666 -0.06381,0.03223 -0.163589,-0.05097 -0.214038,0 -0.05046,0.05097 0.05045,0.165256 0,0.216221 -0.05046,0.05097 -0.163588,-0.05097 -0.214038,0 -0.05046,0.05097 0.05045,0.165257 0,0.216221 -0.100894,0.101931 -0.300449,-0.06446 -0.428075,0 -0.09024,0.04558 -0.123792,0.170638 -0.214038,0.216222 -0.06381,0.03223 -0.163589,-0.05096 -0.214038,0 -0.05046,0.05097 0.05046,0.165258 0,0.216221 -0.05046,0.05097 -0.150224,-0.03223 -0.214039,0 -0.256845,0.129733 -0.385268,0.518932 -0.642112,0.648665 -0.06381,0.03223 -0.150225,-0.03223 -0.214039,0 -0.09024,0.04558 -0.12379,0.170638 -0.214038,0.216221 -0.127627,0.06446 -0.327176,-0.101931 -0.428075,0 -0.05045,0.05096 0.05046,0.165259 0,0.216222 -0.05045,0.05097 -0.150225,-0.03223 -0.214038,0 -0.09024,0.04558 -0.113141,0.216221 -0.214037,0.216221 -0.07135,0 0,-0.144147 0,-0.216221 0,-0.216222 0,-0.432443 0,-0.648665 0,-0.05244 0.0068,-0.64171 0,-0.648664 -0.05045,-0.05096 -0.16359,0.05097 -0.21404,0 -0.100894,-0.101931 0.06381,-0.303513 0,-0.432443 -0.04512,-0.09117 -0.168914,-0.125055 -0.214037,-0.216221 -0.03191,-0.06446 0.03191,-0.151756 0,-0.216222 -0.04512,-0.09117 -0.168914,-0.125054 -0.214038,-0.216222 -0.0319,-0.06446 0.03191,-0.151757 0,-0.216222 -0.04512,-0.09116 -0.168915,-0.125053 -0.214037,-0.216221 -0.03191,-0.06446 0.03191,-0.151756 0,-0.216221 -0.04512,-0.09117 -0.168915,-0.125055 -0.214038,-0.216221 -0.06381,-0.12893 0.100894,-0.330517 0,-0.432443 -0.05046,-0.05096 -0.163589,0.05097 -0.214039,0 -0.04375,-0.04421 0.04243,-0.562936 0,-0.648665 -0.04512,-0.09117 -0.168914,-0.125055 -0.214038,-0.216221 -0.04243,-0.08573 0.04375,-0.604461 0,-0.648665 -0.05046,-0.05097 -0.163588,0.05096 -0.214037,0 -0.107023,-0.108106 0.107024,-0.540553 0,-0.648663 -0.05046,-0.05096 -0.163589,0.05097 -0.214038,0 -0.100894,-0.101931 0.06381,-0.303515 0,-0.432445 -0.04512,-0.09117 -0.168915,-0.125054 -0.214037,-0.216221 -0.03191,-0.06447 0.05046,-0.165257 0,-0.216221 -0.05045,-0.05097 -0.163589,0.05097 -0.214038,0 -0.05045,-0.05097 0.03191,-0.151756 0,-0.216221 -0.04512,-0.09117 -0.168916,-0.125055 -0.214039,-0.216221 -0.03191,-0.06447 0.05046,-0.165259 0,-0.216223 -0.05046,-0.05097 -0.163589,0.05096 -0.214038,0 -0.05046,-0.05097 0.03191,-0.151756 0,-0.216222 -0.09024,-0.182333 -0.337829,-0.250109 -0.428075,-0.432442 -0.0319,-0.06446 0.03191,-0.151757 0,-0.216221 -0.169518,-0.342495 -0.258558,-0.08995 -0.428077,-0.432444 -0.0319,-0.06446 0.05045,-0.165257 0,-0.216221 -0.05046,-0.05097 -0.150223,0.03223 -0.214037,0 -0.890773,-0.449932 0.228814,0.01492 -0.214038,-0.432442 -0.05046,-0.05097 -0.163588,0.05097 -0.214037,0 -0.05045,-0.05097 0.05046,-0.165258 0,-0.216221 -0.05045,-0.05097 -0.150225,0.03223 -0.214038,0 -0.09024,-0.04558 -0.123791,-0.17064 -0.214038,-0.216224 -0.06381,-0.03223 -0.16359,0.05096 -0.214039,0 -0.05046,-0.05097 0.03191,-0.151756 0,-0.216221 -0.04512,-0.09117 -0.168914,-0.125054 -0.214037,-0.216221 -0.03191,-0.06446 0.05046,-0.165257 0,-0.216221 -0.05046,-0.05096 -0.163588,0.05097 -0.214038,0 -0.05045,-0.05096 0.05046,-0.165258 0,-0.216221 -0.05045,-0.05096 -0.163588,0.05097 -0.214037,0 -0.05045,-0.05096 0.03191,-0.151757 0,-0.216221 -0.105318,-0.21277 -0.750843,-0.652119 -0.856152,-0.864887 -0.03191,-0.06446 0.03191,-0.151757 0,-0.216221 -0.04512,-0.09117 -0.168914,-0.125055 -0.214037,-0.216222 -0.03191,-0.06447 0.05045,-0.165258 0,-0.216222 -0.442852,-0.447369 0.0173,0.683641 -0.428076,-0.216221 -0.03191,-0.06447 0.0319,-0.151756 0,-0.216221 -0.230638,-0.46598 -0.197439,0.03353 -0.428076,-0.432443 -0.03191,-0.06446 0.0319,-0.151757 0,-0.216222 -0.04512,-0.09117 -0.168914,-0.125055 -0.214038,-0.216222 -0.03191,-0.06447 0.03191,-0.151756 0,-0.216221 -0.09024,-0.182334 -0.33783,-0.250109 -0.428076,-0.432442 -0.06381,-0.12893 0.100894,-0.330516 0,-0.432443 -0.05045,-0.05097 -0.163589,0.05096 -0.214038,0 -0.05045,-0.05097 0.0319,-0.151758 0,-0.216223 -0.709875,-0.717115 0.100894,0.203857 -0.214038,-0.432442 -0.09024,-0.182334 -0.337829,-0.250109 -0.428076,-0.432443 -0.06381,-0.128929 0.06381,-0.303514 0,-0.432443 -0.04512,-0.09116 -0.168915,-0.125054 -0.214037,-0.216221 -0.03871,-0.07819 0,-0.930717 0,-1.081108 0,-0.576591 0.07135,0.07208 -0.214038,-0.216221 -0.05045,-0.05096 0,-0.144148 0,-0.216221 0,-0.07208 0,-0.144149 0,-0.216222 0,-1.081108 0,-2.162215 0,-3.243322 0,-0.07941 -0.0086,-0.856185 0,-0.864886 0.05045,-0.05096 0.163589,0.05097 0.214038,0 0.04375,-0.04421 -0.04244,-0.562934 0,-0.648665 0.04512,-0.09116 0.168914,-0.125054 0.214037,-0.216221 0.06381,-0.128929 -0.100894,-0.330515 0,-0.432442 0.05045,-0.05097 0.163589,0.05097 0.214039,0 0.100894,-0.101931 -0.100895,-0.330517 0,-0.432445 0.05045,-0.05097 0.163587,0.05096 0.214037,0 0.100894,-0.101931 -0.06381,-0.303512 0,-0.432442 0.04512,-0.09117 0.168915,-0.125055 0.214038,-0.216221 0.0319,-0.06446 -0.03191,-0.151757 0,-0.216221 0.09024,-0.182335 0.33783,-0.25011 0.428076,-0.432445 0.03191,-0.06446 -0.03191,-0.151756 0,-0.216221 0.04512,-0.09117 0.142692,-0.144147 0.214038,-0.216221 0.07135,-0.07208 0.123792,-0.170639 0.214038,-0.216221 0.06381,-0.03223 0.163588,0.05097 0.214037,0 0.05045,-0.05097 -0.05707,-0.172977 0,-0.216221 0.569819,-0.431725 1.712304,-0.522056 1.712304,-1.513552"
       id="path4142"
       inkscape:connector-curvature="0" />
    <path
       style="fill:#5bebe0;fill-opacity:1;fill-rule:evenodd;stroke:#000000;stroke-width:1.18319786px;stroke-linecap:butt;stroke-linejoin:miter;stroke-opacity:1"
       d="M 24.61781,0.82776618 C 24.54646,1.1160615 24.513025,1.4167386 24.403771,1.6926522 c -0.03747,0.094638 -0.168914,0.1250544 -0.214037,0.2162214 -0.08561,0.1729772 0.08561,0.4756871 0,0.6486644 -0.04512,0.091167 -0.168914,0.1250545 -0.214038,0.2162216 -0.03871,0.078193 0,0.9307166 0,1.0811073 0,0.097377 -0.03257,0.5828608 0,0.6486643 0.04512,0.091167 0.168914,0.1250546 0.214038,0.2162216 0.03191,0.064465 -0.05045,0.1652575 0,0.2162215 0.05045,0.050964 0.163588,-0.050964 0.214037,0 0.05045,0.050964 -0.05045,0.1652575 0,0.2162214 0.05045,0.050964 0.163589,-0.050964 0.214039,0 0.05045,0.050964 -0.03191,0.1517567 0,0.2162215 0.04512,0.091167 0.168915,0.1250545 0.214038,0.2162215 0.03191,0.064465 -0.05045,0.1652576 0,0.2162214 0.05045,0.050964 0.163589,-0.050964 0.214038,0 0.05045,0.050964 -0.05045,0.1652576 0,0.2162215 0.05045,0.050958 0.163588,-0.050964 0.214037,0 0.05045,0.050958 -0.0319,0.1517561 0,0.2162213 0.09024,0.1823345 0.337829,0.2501092 0.428076,0.4324437 0.03191,0.064467 -0.05045,0.1652573 0,0.2162212 0.05045,0.050958 0.16359,-0.050958 0.214039,0 0.05045,0.050958 -0.03191,0.1517561 0,0.2162213 0.128422,0.259466 0.51369,0.389199 0.642112,0.6486637 0.03191,0.064467 -0.05045,0.1652585 0,0.2162225 0.05045,0.050958 0.163589,-0.05097 0.214039,0 0.05045,0.050958 -0.05045,0.1652573 0,0.2162212 0.05045,0.050958 0.163587,-0.050958 0.214037,0 0.05045,0.050958 -0.0319,0.1517561 0,0.2162213 0.05715,0.115485 0.52943,0.5348318 0.642114,0.6486649 l 0.214038,0.2162214 c 0.07135,0.072078 0.123792,0.1706373 0.214038,0.2162212 0.06381,0.032228 0.163589,-0.050958 0.214038,0 0.05045,0.050958 -0.05045,0.1652574 0,0.2162213 0.05045,0.050958 0.150224,-0.032228 0.214038,0 0.09024,0.045583 0.123791,0.1706385 0.214037,0.2162212 0.06381,0.032228 0.142692,0 0.214039,0 0.07134,0.072078 0.123791,0.1706382 0.214037,0.2162212 0.06381,0.03223 0.150225,-0.03223 0.214038,0 0.180492,0.09117 0.247583,0.341277 0.428076,0.432444 0.06381,0.03223 0.163588,-0.05096 0.214038,0 0.05045,0.05096 -0.05045,0.165257 0,0.216221 0.05045,0.05096 0.163589,-0.05096 0.214038,0 0.05045,0.05096 -0.03191,0.151756 0,0.216221 0.09024,0.182335 0.337829,0.250109 0.428076,0.432444 0.0319,0.06447 -0.05045,0.165257 0,0.216221 0.05045,0.05096 0.163588,-0.05096 0.214037,0 0.100895,0.101931 -0.06381,0.303513 0,0.432443 0.0554,0.111929 0.372677,0.320517 0.428076,0.432442 0.03191,0.06447 -0.03191,0.151758 0,0.216223 0.09024,0.182333 0.337829,0.250108 0.428075,0.432442 0.03191,0.06447 -0.03191,0.151756 0,0.216221 0.09024,0.182334 0.33783,0.250109 0.428077,0.432445 0.03191,0.06446 -0.05045,0.165256 0,0.216221 0.05045,0.05096 0.163587,-0.05096 0.214037,0 0.100905,0.101931 -0.06381,0.303513 0,0.432442 0.264487,0.534371 0.214038,-0.07464 0.214038,0.432442 0,0.507079 -0.05046,-0.101931 0.214037,0.432444 0.02814,0.05685 0,0.751819 0,0.864886 0,0.113071 0.02814,0.808032 0,0.864885 -0.04512,0.09117 -0.168914,0.125055 -0.214037,0.216221 -0.06381,0.128931 0.06381,0.303515 0,0.432445 -0.04512,0.09117 -0.168914,0.125054 -0.214038,0.216221 -0.05807,0.117292 0.05857,0.805722 0,0.864885 -0.05045,0.05096 -0.163588,-0.05096 -0.214037,0 -0.107024,0.108117 0.107023,0.540554 0,0.648665 -0.05045,0.05096 -0.163588,-0.05096 -0.214038,0 -0.107023,0.108117 0.107024,0.540554 0,0.648664 -0.05045,0.05096 -0.16359,-0.05096 -0.214039,0 -0.100894,0.101931 0.06381,0.303514 0,0.432443 -0.04512,0.09117 -0.168914,0.125054 -0.214037,0.216221 -0.03191,0.06447 0.0319,0.151758 0,0.216223 -0.04512,0.09117 -0.168915,0.125054 -0.214038,0.216221 -0.03191,0.06447 0.03191,0.151756 0,0.216222 -0.04512,0.09117 -0.168914,0.125054 -0.214037,0.216221 -0.03191,0.06446 0.05045,0.165257 0,0.216221 -0.05045,0.05096 -0.163589,-0.05096 -0.214039,0 -0.100894,0.101931 0.100895,0.330516 0,0.432443 -0.05045,0.05096 -0.163588,-0.05096 -0.214037,0 -0.05045,0.05096 0,0.144148 0,0.216221 -0.07135,0 -0.16359,-0.05096 -0.214039,0 -0.100894,0.101931 0.100894,0.330515 0,0.432444 -0.05045,0.05096 -0.163588,-0.05096 -0.214037,0 -0.100894,0.101931 0.06381,0.303513 0,0.432443 -0.04512,0.09117 -0.168914,0.125054 -0.214038,0.216221 -0.04244,0.08574 0.04375,0.604461 0,0.648664 -0.05045,0.05096 -0.163588,-0.05096 -0.214038,0 -0.05045,0.05096 0,0.144148 0,0.216222 l 0,0.216222 0,3.243322 0,1.51355 c 0,0.09737 -0.03257,0.582861 0,0.648664 0.04512,0.09117 0.168914,0.125055 0.214038,0.216221 0.06381,0.128931 -0.100895,0.330517 0,0.432444 0.05045,0.05096 0.163589,-0.05096 0.214038,0 0.100894,0.101931 -0.06381,0.303513 0,0.432442 0.04512,0.09117 0.168915,0.125055 0.214037,0.216221 0.03191,0.06447 -0.03191,0.151759 0,0.216222 0.264488,0.534371 0.214039,-0.07464 0.214039,0.432444 0,0.576589 -0.07135,-0.07208 0.214037,0.216221 0.100895,0.101931 -0.06381,0.303513 0,0.432442 0.04512,0.09117 0.168914,0.125055 0.214039,0.216223 0.03257,0.06579 0,0.551286 0,0.648664 l 0,0.216221 c 0,0.07208 0.05045,0.165258 0,0.216221 -0.0214,0.02162 -0.620711,0.02162 -0.642115,0 -0.05045,-0.05097 0.05045,-0.165257 0,-0.216221 -0.05045,-0.05097 -0.150223,0.03223 -0.214037,0 -0.09024,-0.04558 -0.123792,-0.170637 -0.214038,-0.216221 -0.06382,-0.03223 -0.150223,0.03223 -0.214038,0 -0.114318,-0.05774 -0.529431,-0.534832 -0.642114,-0.648664 -0.07135,-0.07208 -0.123792,-0.170639 -0.214037,-0.216223 -0.06382,-0.03223 -0.163589,0.05097 -0.214039,0 -0.05045,-0.05097 0.05045,-0.165257 0,-0.216221 -0.05045,-0.05097 -0.150224,0.03223 -0.214037,0 -0.09024,-0.04558 -0.123792,-0.170637 -0.214038,-0.216221 -0.06381,-0.03223 -0.163589,0.05097 -0.214038,0 -0.05045,-0.05096 0.05045,-0.165258 0,-0.216221 -0.05045,-0.05096 -0.163589,0.05096 -0.214038,0 -0.05045,-0.05096 0.05045,-0.165258 0,-0.216221 -0.05045,-0.05096 -0.163588,0.05096 -0.214038,0 -0.05045,-0.05096 0.05045,-0.165259 0,-0.216223 -0.05045,-0.05096 -0.163589,0.05096 -0.214038,0 0,-0.57659 0.07135,0.07208 -0.214037,-0.216222 -0.100894,-0.10193 0.100894,-0.330514 0,-0.432442 -0.05045,-0.05096 -0.16359,0.05096 -0.214039,0 -0.05045,-0.05096 0.05045,-0.165258 0,-0.216221 -0.05045,-0.05096 -0.163588,0.05096 -0.214037,0 -0.442852,-0.447371 0.676736,0.01748 -0.214039,-0.432444 -0.06381,-0.03223 -0.150223,0.03223 -0.214037,0 -0.09024,-0.04558 -0.123792,-0.170637 -0.214038,-0.216221 -0.06381,-0.03223 -0.150224,0.03223 -0.214037,0 -0.09024,-0.04558 -0.123792,-0.170637 -0.214039,-0.216221 -0.127628,-0.06446 -0.327177,0.10193 -0.428076,0 -0.05045,-0.05096 0.05045,-0.165257 0,-0.216221 -0.107023,-0.108107 -0.535093,0.108106 -0.642113,0 -0.05045,-0.05096 0.05045,-0.165258 0,-0.216222 -0.04375,-0.04421 -0.557249,0.04286 -0.642114,0 -0.09024,-0.04558 -0.123791,-0.170639 -0.214037,-0.216222 -0.127628,-0.06446 -0.327178,0.101931 -0.428077,0 -0.05045,-0.05096 0.05045,-0.165258 0,-0.216222 -0.05857,-0.05916 -0.740037,0.05865 -0.85615,0 -0.09024,-0.04558 -0.123792,-0.170637 -0.21404,-0.216221 -0.135029,-0.0682 -0.935158,0.0682 -1.070187,0 -0.09024,-0.04558 -0.123793,-0.170637 -0.214039,-0.216221 -0.06381,-0.03223 -0.142691,0 -0.214038,0 l -0.214037,0 -1.07019,0 -0.214037,0 c -0.07135,0 -0.150225,0.03223 -0.214038,0 -0.09024,-0.04558 -0.123791,-0.170638 -0.214038,-0.216221 -0.134528,-0.06795 -0.721624,0.06795 -0.856151,0 -0.09024,-0.04558 -0.123792,-0.170638 -0.214039,-0.216221 -0.127628,-0.06447 -0.300448,0.06446 -0.428076,0 -0.09024,-0.04558 -0.123791,-0.170639 -0.214037,-0.216222 -0.134528,-0.06795 -0.721624,0.06795 -0.856152,0 -0.09024,-0.04558 -0.123792,-0.170639 -0.214038,-0.216223 -0.06381,-0.03223 -0.150223,0.03223 -0.214037,0 -0.09024,-0.04558 -0.123792,-0.170637 -0.214039,-0.216221 -0.06381,-0.03223 -0.150224,0.03223 -0.214037,0 -0.09024,-0.04558 -0.123792,-0.170638 -0.214039,-0.216221 -0.06381,-0.03223 -0.150223,0.03223 -0.214037,0 -0.09024,-0.04558 -0.123792,-0.170638 -0.214038,-0.216221 -0.06382,-0.03223 -0.150223,0.03223 -0.214038,0 -0.890774,-0.449931 0.228814,0.01492 -0.214038,-0.432443 -0.05045,-0.05096 -0.163588,0.05096 -0.214037,0 -0.05045,-0.05096 0.05045,-0.165258 0,-0.216222 -0.05045,-0.05096 -0.150225,0.03223 -0.214039,0 -0.180492,-0.09117 -0.247582,-0.341275 -0.428076,-0.432443 -0.06381,-0.03223 -0.163588,0.05096 -0.214037,0 -0.05045,-0.05096 0.05045,-0.165256 0,-0.216221 -0.05045,-0.05096 -0.150225,0.03223 -0.214038,0 -0.09024,-0.04558 -0.123791,-0.170638 -0.214038,-0.216222 -0.06381,-0.03223 -0.163589,0.05096 -0.214038,0 -0.05045,-0.05096 0.03191,-0.151756 0,-0.216221 -0.04512,-0.09117 -0.168915,-0.125055 -0.214038,-0.216222 -0.03191,-0.06447 0.05045,-0.165257 0,-0.216221 -0.05045,-0.05096 -0.163587,0.05096 -0.214037,0 -0.05045,-0.05096 0.03191,-0.151757 0,-0.216221 -0.04512,-0.09117 -0.168916,-0.125054 -0.214038,-0.216222 -0.03191,-0.06447 0.05045,-0.165258 0,-0.216222 -0.05045,-0.05096 -0.163588,0.05096 -0.214037,0 -0.05046,-0.05096 0.03191,-0.151756 0,-0.216221 -0.04512,-0.09117 -0.168916,-0.125055 -0.214039,-0.216222 -0.03191,-0.06446 0.05046,-0.165257 0,-0.216221 -0.05045,-0.05096 -0.163588,0.05096 -0.214038,0 -0.05045,-0.05096 0.05045,-0.165257 0,-0.216221 -0.05045,-0.05096 -0.163589,0.05096 -0.214038,0 -0.100894,-0.101931 0.06381,-0.303513 0,-0.432443 -0.04512,-0.09117 -0.168915,-0.125055 -0.214037,-0.216221 -0.05807,-0.117293 0.05856,-0.805724 0,-0.864887 -0.05045,-0.05096 -0.163589,0.05096 -0.214038,0 -0.05045,-0.05096 0,-0.144147 0,-0.216221 l 0,-0.216221 0,-2.378436 0,-0.216223 c 0,-0.07208 0.05044,-0.165256 0,-0.216221 -0.05045,-0.05096 -0.16359,0.05096 -0.214039,0 -0.100898,-0.101931 0.06382,-0.303513 0,-0.432443 -0.04512,-0.09117 -0.168914,-0.125055 -0.214038,-0.216221 -0.06382,-0.128929 0.100899,-0.330515 0,-0.432443 -0.05044,-0.05096 -0.163588,0.05096 -0.214037,0 -0.05044,-0.05096 0.0319,-0.151757 0,-0.216223 -0.04512,-0.09117 -0.1689142,-0.125052 -0.2140379,-0.216221 -0.031903,-0.06446 0.031903,-0.151756 0,-0.216221 -0.7098741,-0.717116 0.1008985,0.203855 -0.2140375,-0.432442 -0.045122,-0.09117 -0.1689153,-0.125055 -0.2140377,-0.216222 -0.1141539,-0.230637 0.1141538,-0.201807 0,-0.432443 -0.045123,-0.09117 -0.1689153,-0.125054 -0.2140389,-0.216221 -0.063816,-0.12893 0.1008985,-0.330515 0,-0.432443 -0.050444,-0.05096 -0.1635883,0.05096 -0.2140376,0 -0.050444,-0.05096 0.031903,-0.151758 0,-0.216223 -0.045122,-0.09117 -0.1689141,-0.125053 -0.2140377,-0.216221 -0.031903,-0.06447 0.050444,-0.165257 0,-0.216221 -0.050444,-0.05096 -0.1635884,0.05096 -0.2140376,0 -0.050444,-0.05096 0.050444,-0.165257 0,-0.216221 -0.050444,-0.05096 -0.1635885,0.05096 -0.2140377,0 -0.050455,-0.05096 0.050444,-0.165258 0,-0.216221 -0.050455,-0.05096 -0.1635895,0.05096 -0.2140388,0 -0.050444,-0.05096 0.050455,-0.165258 0,-0.216221 -0.050444,-0.05096 -0.1635884,0.05096 -0.2140377,0 -0.050444,-0.05096 0.031903,-0.151759 0,-0.216224 -0.045122,-0.09117 -0.168914,-0.125054 -0.2140377,-0.216221 -0.011949,-0.02412 -0.011949,-1.056973 0,-1.081107 0.045122,-0.09117 0.1689153,-0.125054 0.2140377,-0.216221 0.031903,-0.06447 -0.031903,-0.151756 0,-0.216222 0.045122,-0.09117 0.1689153,-0.125055 0.2140377,-0.216221 0.031903,-0.06447 -0.050444,-0.165257 0,-0.216221 0.050455,-0.05097 0.1635895,0.05096 0.2140388,0 0.050444,-0.05097 -0.031903,-0.151758 0,-0.216223 0.045122,-0.09117 0.1689141,-0.125054 0.2140377,-0.216221 0.031903,-0.06447 -0.050444,-0.165257 0,-0.216221 0.050444,-0.05096 0.1502235,0.03223 0.2140376,0 0.8907747,-0.449931 -0.228814,0.01492 0.2140377,-0.432443 0.050443,-0.05097 0.1502247,0.03223 0.2140376,0 0.890775,-0.4499306 -0.2288139,0.01493 0.2140389,-0.4324432 0.050444,-0.050958 0.1635884,0.050958 0.2140377,0 0.050443,-0.050958 -0.050444,-0.1652573 0,-0.2162212 0.050443,-0.050958 0.1635883,0.050958 0.2140375,0 0.4428519,-0.4473696 -0.676737,0.017493 0.2140379,-0.4324425 0.06382,-0.032228 0.163588,0.050958 0.214037,0 0.05044,-0.050958 -0.05044,-0.1652573 0,-0.2162214 0.05044,-0.05097 0.163589,0.050958 0.214038,0 0.05045,-0.05097 -0.05044,-0.1652584 0,-0.2162224 0.05045,-0.050958 0.16359,0.05097 0.214039,0 0.05044,-0.050958 -0.05045,-0.1652572 0,-0.2162213 0.05044,-0.050958 0.163589,0.050958 0.214038,0 0.05045,-0.050958 -0.05045,-0.1652572 0,-0.2162212 0.05045,-0.050958 0.163588,0.050958 0.214037,0 0.05045,-0.050958 -0.05045,-0.1652572 0,-0.2162213 0.05045,-0.050958 0.163589,0.050958 0.214038,0 0.442851,-0.4473695 -0.676736,0.017482 0.214038,-0.4324437 0.570768,0 -0.07136,0.072078 0.214039,-0.2162212 0.05045,-0.050958 0.163588,0.050958 0.214037,0 0.05045,-0.050958 -0.03191,-0.1517561 0,-0.2162213 0.02049,-0.041384 0.81518,-0.8441914 0.856151,-0.8648862 0.06381,-0.032228 0.163589,0.05097 0.214038,0 0.05045,-0.050958 -0.05046,-0.1652573 0,-0.2162212 0.05045,-0.050958 0.150224,0.032228 0.214038,0 0.180493,-0.091166 0.247583,-0.3412757 0.428076,-0.4324428 0.06381,-0.032233 0.142691,0 0.214037,0 0.07135,-0.072074 0.123792,-0.1706379 0.214039,-0.2162214 0.06381,-0.032233 0.163588,0.050964 0.214037,0 0.05045,-0.050964 -0.05045,-0.1652577 0,-0.2162215 0.05045,-0.050964 0.150224,0.032233 0.214038,0 0.09024,-0.045584 0.123792,-0.1706381 0.214038,-0.2162215 0.06381,-0.032233 0.150225,0.032233 0.214038,0 0.461273,-0.2329896 -0.0332,-0.1994533 0.428076,-0.4324429 0.127627,-0.064465 0.327177,0.1019276 0.428076,0 0.05045,-0.050964 -0.05045,-0.1652577 0,-0.2162216 0.05045,-0.050964 0.150223,0.032233 0.214037,0 0.09024,-0.045584 0.123792,-0.1706378 0.214038,-0.2162215 0.127628,-0.064465 0.300448,0.064465 0.428076,0 0.09024,-0.045584 0.123791,-0.1706379 0.214038,-0.2162213 0.06381,-0.032233 0.142691,0 0.214038,0 0.07136,-0.072074 0.123791,-0.1706381 0.214037,-0.2162215 0.127628,-0.064465 0.327178,0.1019276 0.428076,0 0.05045,-0.050964 -0.05045,-0.1652575 0,-0.2162215 0.05045,-0.050964 0.150224,0.032232 0.214039,0 0.09024,-0.045583 0.123791,-0.1706379 0.214037,-0.2162215 0.06381,-0.032233 0.150224,0.032233 0.214038,0 0.09024,-0.045584 0.123791,-0.1706379 0.214037,-0.2162215 0.06381,-0.032233 0.150225,0.032233 0.214039,0 0.09024,-0.045584 0.12379,-0.170638 0.214038,-0.2162214 0.127627,-0.064465 0.300448,0.064465 0.428075,0 0.09024,-0.045584 0.123792,-0.170638 0.214038,-0.2162214 0.06381,-0.032233 0.150224,0.032233 0.214037,0 0.09024,-0.045584 0.123792,-0.1706381 0.21404,-0.2162216 0.06381,-0.032233 0.163587,0.050964 0.214037,0 0.05045,-0.050964 -0.05045,-0.1652576 0,-0.2162215 0.05045,-0.050964 0.150224,0.032233 0.214038,0 0.09024,-0.045584 0.123791,-0.1706379 0.214037,-0.2162215 0.06381,-0.032233 0.150225,0.032233 0.214038,0 0.09024,-0.045584 0.123791,-0.1706379 0.214039,-0.2162214 0.127627,-0.064465 0.327176,0.1019276 0.428075,0 0.05045,-0.050964 -0.05045,-0.1652576 0,-0.2162214 0.107023,-0.1081106 0.535094,0.1081105 0.642112,0 0.05045,-0.050964 -0.05045,-0.1652578 0,-0.2162216 0.0068,-0.00696 2.323828,-0.3391129 2.375738,-0.3391129"
       id="path4150"
       inkscape:connector-curvature="0"
       sodipodi:nodetypes="ccsccsccscscccsccscccccccccccsscccccccccccccccccccccccccscscsccscscscccccccccscccscccscsccscssccccssccssccccccsccccccccccccsscccccccsscsccssccsscsccsccsccssccccccccscccccccccccccccccccccccscscsccsccccsccccssscscccccccccccccccccccccccccsccccccccccccccccsccccccccccsscsscssssccscsscscssscsscsscssccccc" />
    <path
       inkscape:connector-curvature="0"
       style="fill:#000080;fill-opacity:1;stroke:#000000;stroke-width:1.75589406;stroke-linecap:round;stroke-linejoin:round;stroke-miterlimit:4;stroke-dasharray:none;stroke-opacity:1"
       d="m 9.0792759,26.422827 c 0.00259,2.731222 0.6167653,5.490392 1.9585671,8.070553 4.475188,8.605386 15.076238,11.914756 23.6756,7.436438 0.223169,-0.116223 0.417581,-0.279196 0.633654,-0.403529 L 54.817541,61.010913 61.4421,54.323882 41.971656,34.839262 C 44.721404,29.862193 45.020459,23.65648 42.202076,18.23698 37.726887,9.6315923 27.125836,6.3222231 18.526475,10.80054 l -0.864073,0.461176 c -5.492819,3.276293 -8.5889203,9.15243 -8.5831261,15.161111 z m 4.3779711,-0.05755 c -0.0045,-4.506505 2.33213,-8.841562 6.451744,-11.298774 l 0.633656,-0.403527 c 6.44952,-3.358752 14.385907,-0.804658 17.742298,5.649388 3.356392,6.454045 0.86185,14.396465 -5.587672,17.755219 -6.449524,3.35875 -14.385908,0.862303 -17.742299,-5.591741 -1.006354,-1.935127 -1.49575,-4.062155 -1.497727,-6.110564 z"
       id="path6229" />
  </g>
</svg>
