<?xml version="1.0" encoding="UTF-8" standalone="no"?>
<!-- Created with Inkscape (http://www.inkscape.org/) -->

<svg
   xmlns:dc="http://purl.org/dc/elements/1.1/"
   xmlns:cc="http://creativecommons.org/ns#"
   xmlns:rdf="http://www.w3.org/1999/02/22-rdf-syntax-ns#"
   xmlns:svg="http://www.w3.org/2000/svg"
   xmlns="http://www.w3.org/2000/svg"
   xmlns:sodipodi="http://sodipodi.sourceforge.net/DTD/sodipodi-0.dtd"
   xmlns:inkscape="http://www.inkscape.org/namespaces/inkscape"
   width="96"
   height="96"
   viewBox="0 0 96.000001 96.000002"
   id="svg4157"
   version="1.1"
   inkscape:version="0.91 r13725"
   inkscape:export-filename="/home/m/zz/iconos-QMS/SearchWeb16.png"
   inkscape:export-xdpi="15"
   inkscape:export-ydpi="15"
   sodipodi:docname="SearchWeb.svg">
  <defs
     id="defs4159" />
  <sodipodi:namedview
     id="base"
     pagecolor="#ffffff"
     bordercolor="#666666"
     borderopacity="1.0"
     inkscape:pageopacity="0.0"
     inkscape:pageshadow="2"
     inkscape:zoom="0.98994949"
     inkscape:cx="-330.01991"
     inkscape:cy="-128.06305"
     inkscape:document-units="px"
     inkscape:current-layer="layer1"
     showgrid="false"
     units="px"
     inkscape:window-width="1920"
     inkscape:window-height="1152"
     inkscape:window-x="0"
     inkscape:window-y="26"
     inkscape:window-maximized="1" />
  <metadata
     id="metadata4162">
    <rdf:RDF>
      <cc:Work
         rdf:about="">
        <dc:format>image/svg+xml</dc:format>
        <dc:type
           rdf:resource="http://purl.org/dc/dcmitype/StillImage" />
        <dc:title></dc:title>
      </cc:Work>
    </rdf:RDF>
  </metadata>
  <g
     inkscape:label="Capa 1"
     inkscape:groupmode="layer"
     id="layer1"
     transform="translate(0,-956.36216)">
    <path
       style="fill:#80b3ff;fill-opacity:1;fill-rule:evenodd;stroke:#000080;stroke-width:1.9649508;stroke-linecap:butt;stroke-linejoin:miter;stroke-miterlimit:4;stroke-dasharray:none;stroke-opacity:1"
       id="path4705"
       sodipodi:type="arc"
       sodipodi:cx="47.650105"
       sodipodi:cy="1014.4956"
       sodipodi:rx="47.166203"
       sodipodi:ry="36.900848"
       sodipodi:start="0"
       sodipodi:end="6.2789616"
       d="M 94.816307,1014.4956 A 47.166203,36.900848 0 0 1 47.699909,1051.3964 47.166203,36.900848 0 0 1 0.48400716,1014.5735 47.166203,36.900848 0 0 1 47.500693,977.59494 47.166203,36.900848 0 0 1 94.815886,1014.3397"
       sodipodi:open="true" />
    <path
       style="fill:#80b3ff;fill-opacity:1;fill-rule:evenodd;stroke:#000080;stroke-width:1.94394624;stroke-linecap:butt;stroke-linejoin:miter;stroke-miterlimit:4;stroke-dasharray:none;stroke-opacity:1"
       id="path4705-6"
       sodipodi:type="arc"
       sodipodi:cx="47.650105"
       sodipodi:cy="1014.4324"
       sodipodi:rx="26.566895"
       sodipodi:ry="36.611244"
       sodipodi:start="0"
       sodipodi:end="6.2789616"
       d="m 74.216999,1014.4324 a 26.566895,36.611244 0 0 1 -26.538842,36.6112 26.566895,36.611244 0 0 1 -26.594888,-36.5339 26.566895,36.611244 0 0 1 26.482678,-36.68839 26.566895,36.611244 0 0 1 26.650815,36.45639"
       sodipodi:open="true" />
    <path
       style="fill:#80b3ff;fill-opacity:1;fill-rule:evenodd;stroke:#000080;stroke-width:1.9649508;stroke-linecap:butt;stroke-linejoin:miter;stroke-miterlimit:4;stroke-dasharray:none;stroke-opacity:1"
       d="m 0.48389866,1014.2229 94.33240634,0.5453"
       id="path4728"
       inkscape:connector-curvature="0" />
    <path
       style="fill:#80b3ff;fill-opacity:1;fill-rule:evenodd;stroke:#000080;stroke-width:1.9649508;stroke-linecap:butt;stroke-linejoin:miter;stroke-miterlimit:4;stroke-dasharray:none;stroke-opacity:1"
       d="m 47.650102,977.413 0,74.1652"
       id="path4730"
       inkscape:connector-curvature="0" />
    <path
       style="fill:#80b3ff;fill-opacity:1;fill-rule:evenodd;stroke:#000080;stroke-width:1.9649508;stroke-linecap:butt;stroke-linejoin:miter;stroke-miterlimit:4;stroke-dasharray:none;stroke-opacity:1"
       d="m 5.4994565,997.49821 84.3012895,0.54768"
       id="path4728-4"
       inkscape:connector-curvature="0" />
    <path
       style="fill:#80b3ff;fill-opacity:1;fill-rule:evenodd;stroke:#000080;stroke-width:1.9649508;stroke-linecap:butt;stroke-linejoin:miter;stroke-miterlimit:4;stroke-dasharray:none;stroke-opacity:1"
       d="m 6.9483134,1032.7626 81.4035756,0.5486"
       id="path4728-3"
       inkscape:connector-curvature="0" />
    <g
       style="fill:#008000;stroke:#ffffff;stroke-width:15.09149742;stroke-miterlimit:4;stroke-dasharray:none"
       id="g4764"
       transform="matrix(0.21395026,0.01066722,0,0.14720785,253.20251,908.27407)"
       inkscape:export-xdpi="45"
       inkscape:export-ydpi="45">
      <path
         sodipodi:nodetypes="ccccccc"
         inkscape:connector-curvature="0"
         id="path8785"
         d="m -862.1771,400.35276 c -65.2622,4.73679 -118.1639,71.70282 -118.1625,149.57697 0,22.28342 4.4219,43.92945 12.9088,63.16362 l 107.4925,225.43629 106.51492,-249.90539 c 6.21359,-17.88739 9.4184,-36.87218 9.42297,-55.82051 10e-4,-77.88094 -52.90891,-137.18219 -118.17669,-132.45098 z"
         style="fill:#ff0000;fill-rule:evenodd;stroke:#ffffff;stroke-width:15.09149742;stroke-linecap:butt;stroke-linejoin:miter;stroke-miterlimit:4;stroke-dasharray:none;stroke-opacity:1" />
      <ellipse
         ry="60.550022"
         rx="45.830776"
         transform="matrix(0.99738481,-0.07227413,0,1,0,0)"
         cy="464.86554"
         cx="-864.43066"
         id="path8794"
         style="fill:#ffffff;fill-rule:evenodd;stroke:#ffffff;stroke-width:12.10419369;stroke-linecap:butt;stroke-linejoin:miter;stroke-miterlimit:4;stroke-dasharray:none;stroke-opacity:1" />
    </g>
    <g
       id="g4768"
       transform="matrix(0.13783651,0.00837052,0,0.11551339,34.713853,954.21934)" />
    <g
       id="g4770"
       transform="matrix(0.13783651,0.00837052,0,0.11551339,34.713853,954.21934)" />
    <g
       id="g4772"
       transform="matrix(0.13783651,0.00837052,0,0.11551339,34.713853,954.21934)" />
    <g
       id="g4774"
       transform="matrix(0.13783651,0.00837052,0,0.11551339,34.713853,954.21934)" />
    <g
       id="g4776"
       transform="matrix(0.13783651,0.00837052,0,0.11551339,34.713853,954.21934)" />
    <g
       id="g4778"
       transform="matrix(0.13783651,0.00837052,0,0.11551339,34.713853,954.21934)" />
    <g
       id="g4780"
       transform="matrix(0.13783651,0.00837052,0,0.11551339,34.713853,954.21934)" />
    <g
       id="g4782"
       transform="matrix(0.13783651,0.00837052,0,0.11551339,34.713853,954.21934)" />
    <g
       id="g4784"
       transform="matrix(0.13783651,0.00837052,0,0.11551339,34.713853,954.21934)" />
    <g
       id="g4786"
       transform="matrix(0.13783651,0.00837052,0,0.11551339,34.713853,954.21934)" />
    <g
       id="g4788"
       transform="matrix(0.13783651,0.00837052,0,0.11551339,34.713853,954.21934)" />
    <g
       id="g4790"
       transform="matrix(0.13783651,0.00837052,0,0.11551339,34.713853,954.21934)" />
    <g
       id="g4792"
       transform="matrix(0.13783651,0.00837052,0,0.11551339,34.713853,954.21934)" />
    <g
       id="g4794"
       transform="matrix(0.13783651,0.00837052,0,0.11551339,34.713853,954.21934)" />
    <g
       id="g4796"
       transform="matrix(0.13783651,0.00837052,0,0.11551339,34.713853,954.21934)" />
  </g>
</svg>
