<?xml version="1.0" encoding="UTF-8" standalone="no"?>
<!-- Created with Inkscape (http://www.inkscape.org/) -->

<svg
   xmlns:dc="http://purl.org/dc/elements/1.1/"
   xmlns:cc="http://creativecommons.org/ns#"
   xmlns:rdf="http://www.w3.org/1999/02/22-rdf-syntax-ns#"
   xmlns:svg="http://www.w3.org/2000/svg"
   xmlns="http://www.w3.org/2000/svg"
   xmlns:sodipodi="http://sodipodi.sourceforge.net/DTD/sodipodi-0.dtd"
   xmlns:inkscape="http://www.inkscape.org/namespaces/inkscape"
   width="64px"
   height="64px"
   id="svg3369"
   version="1.1"
   inkscape:version="0.91 r13725"
   sodipodi:docname="SearchNominatim.svg"
   inkscape:export-filename="/home/norbert/Development/QMapShack/QMapShack_brouter/src/icons/48x48/SearchNominatim.png"
   inkscape:export-xdpi="67.5"
   inkscape:export-ydpi="67.5">
  <defs
     id="defs3371" />
  <sodipodi:namedview
     id="base"
     pagecolor="#ffffff"
     bordercolor="#666666"
     borderopacity="1.0"
     inkscape:pageopacity="0.0"
     inkscape:pageshadow="2"
     inkscape:zoom="9.3604886"
     inkscape:cx="22.438533"
     inkscape:cy="32"
     inkscape:current-layer="layer1"
     showgrid="true"
     inkscape:document-units="px"
     inkscape:grid-bbox="true"
     inkscape:window-width="1366"
     inkscape:window-height="744"
     inkscape:window-x="0"
     inkscape:window-y="24"
     inkscape:window-maximized="1" />
  <metadata
     id="metadata3374">
    <rdf:RDF>
      <cc:Work
         rdf:about="">
        <dc:format>image/svg+xml</dc:format>
        <dc:type
           rdf:resource="http://purl.org/dc/dcmitype/StillImage" />
        <dc:title />
      </cc:Work>
    </rdf:RDF>
  </metadata>
  <g
     id="layer1"
     inkscape:label="Layer 1"
     inkscape:groupmode="layer">
    <path
       style="fill:#a6f398;fill-opacity:1;fill-rule:evenodd;stroke:none;stroke-width:1px;stroke-linecap:butt;stroke-linejoin:miter;stroke-opacity:1"
       d="M 0.61936188,1.2422749 3.6845207,16.256038 -0.02593471,32.491853 4.1684933,46.807302 0.94201023,61.297331 19.494288,63.741431 31.916247,59.027807 44.499531,63.91601 56.437519,59.900701 63.85843,46.108988 59.18003,33.364746 62.72916,19.223876 56.92149,1.9405895 42.724966,4.5592691 29.335061,0.02022433 16.267805,4.7338479 Z"
       id="path4156"
       inkscape:connector-curvature="0" />
    <path
       style="fill:#78b2f0;fill-opacity:1;fill-rule:evenodd;stroke:none;stroke-width:1px;stroke-linecap:butt;stroke-linejoin:miter;stroke-opacity:1"
       d="m 28.782615,22.830283 c 0.7588,0.0498 -0.189699,-0.665669 0,-0.870954 0.03794,-0.04105 0.123026,0.04106 0.160966,0 0.03794,-0.04105 -0.02399,-0.122257 0,-0.174191 0.03394,-0.07344 0.12703,-0.100744 0.160965,-0.174191 0.02399,-0.05194 -0.02399,-0.122256 0,-0.17419 0.06787,-0.146891 0.254064,-0.201491 0.321932,-0.348381 0.02399,-0.05194 -0.02399,-0.122257 0,-0.174191 0.06787,-0.146891 0.254063,-0.201491 0.321931,-0.348382 0.02399,-0.05194 -0.03795,-0.133133 0,-0.17419 0.03794,-0.04106 0.123027,0.04105 0.160966,0 0.03794,-0.04106 -0.03794,-0.133134 0,-0.174191 0.03794,-0.04106 0.123026,0.04106 0.160965,0 0.03794,-0.04106 -0.03795,-0.133133 0,-0.17419 0.03794,-0.04106 0.112975,0.02596 0.160966,0 0.06787,-0.03673 0.0931,-0.137469 0.160965,-0.174191 0.06382,-0.03453 0.449991,0.03561 0.482897,0 0.03794,-0.04106 -0.03795,-0.133135 0,-0.17419 0.03794,-0.04106 0.107316,0 0.160966,0 0.114094,0 0.924177,0.02251 0.965795,0 0.06787,-0.03673 0.0931,-0.137469 0.160965,-0.174191 0.04162,-0.02252 0.851701,0 0.965794,0 0.377493,0 -0.07588,0.04105 0.321931,-0.174191 0.04232,-0.0229 0.559691,0 0.643863,0 0.05365,0 0.123026,-0.04106 0.160965,0 0.03795,0.04106 -0.03794,0.133133 0,0.174191 0.07588,0.08211 0.22595,-0.05194 0.321932,0 0.06787,0.03673 0.0931,0.137468 0.160965,0.174191 0.04799,0.02596 0.112976,-0.02596 0.160966,0 0.06787,0.03673 0.0931,0.137467 0.160966,0.17419 0.048,0.02596 0.112975,-0.02596 0.160965,0 0.06787,0.03673 0.0931,0.137468 0.160966,0.174191 0.048,0.02596 0.112975,-0.02596 0.160966,0 0.06787,0.03673 0.0931,0.137468 0.160965,0.17419 0.048,0.02596 0.112976,-0.02596 0.160966,0 0.06787,0.03673 0.0931,0.137468 0.160965,0.174191 0.048,0.02596 0.112976,-0.02596 0.160966,0 0.06787,0.03673 0.0931,0.137468 0.160966,0.17419 0.128773,0.06968 0.354125,-0.06968 0.482897,0 0.06787,0.03673 0.0931,0.137468 0.160966,0.17419 0.101176,0.05475 0.542693,-0.05475 0.643863,0 0.06787,0.03673 0.0931,0.137469 0.160965,0.174192 0.04898,0.02651 0.410405,0 0.482897,0 0.321931,0 0.643863,0 0.965794,0 0.321931,0 0.643863,0 0.965794,0 0.05366,0 0.107316,0 0.160965,0 0.05366,0 0.112976,0.02596 0.160966,0 0.06787,-0.03673 0.0931,-0.137468 0.160966,-0.174192 0.048,-0.02596 0.107316,0 0.160965,0 0.131588,0 1.045177,0.02943 1.126761,0 0.07199,-0.02596 0.0931,-0.137466 0.160965,-0.17419 0.04799,-0.02596 0.107315,0 0.160966,0 0.107315,0 0.220128,0.03673 0.321931,0 0.07199,-0.02596 0.0931,-0.137468 0.160966,-0.17419 0.106677,-0.05772 0.508953,0.04866 0.643862,0 0.11382,-0.04106 0.208111,-0.133134 0.321932,-0.174191 0.110716,-0.03994 0.387923,0.05138 0.482896,0 0.06787,-0.03673 0.0931,-0.137468 0.160966,-0.17419 0.04799,-0.02596 0.110063,0.01836 0.160966,0 0.113819,-0.04106 0.20811,-0.133134 0.321931,-0.174191 0.101804,-0.03673 0.225951,0.05194 0.321931,0 0.06787,-0.03673 0.0931,-0.137469 0.160966,-0.17419 0.048,-0.02596 0.112975,0.02596 0.160966,0 0.06787,-0.03673 0.0931,-0.137469 0.160965,-0.174191 0.09598,-0.05194 0.225951,0.05194 0.321931,0 0.06787,-0.03673 0.0931,-0.137469 0.160966,-0.174191 0.09598,-0.05194 0.225951,0.05194 0.321931,0 0.06787,-0.03673 0.0931,-0.137468 0.160966,-0.17419 0.09598,-0.05194 0.225951,0.05194 0.321932,0 0.06787,-0.03673 0.0931,-0.137469 0.160966,-0.174192 0.06874,-0.0372 0.741196,0 0.804828,0 0.268275,0 0.536551,0 0.804828,0 0.107316,0 0.217824,0.02817 0.321931,0 0.116395,-0.03149 0.205537,-0.142702 0.321932,-0.174191 0.104104,-0.02817 0.21462,0 0.321931,0 0.107316,0 0.217825,-0.02817 0.321931,0 0.116395,0.03149 0.205537,0.142702 0.321931,0.174191 0.145923,0.03948 0.617839,0 0.804829,0 0.107316,0 0.220127,-0.03673 0.321931,0 0.07199,0.02596 0.08898,0.148224 0.160965,0.174192 0.144446,0.110165 0.330191,-0.05508 0.482898,0 0.113819,0.04105 0.208111,0.133132 0.321932,0.17419 0.0509,0.01836 0.112973,-0.02596 0.160965,0 0.03081,0.01667 0.628456,0.663419 0.643863,0.696763 0.02399,0.05194 -0.02399,0.122256 0,0.17419 0.03393,0.07344 0.12703,0.100744 0.160964,0.174191 0.02658,0.0575 0.0046,0.860968 0,0.870953 -0.03393,0.07344 -0.13697,0.09628 -0.160964,0.174191 -0.101804,0.156313 0.0509,0.357321 0,0.522572 -0.03795,0.123171 -0.123027,0.225209 -0.160967,0.348381 -0.0509,0.165252 0.0509,0.357321 0,0.522573 -0.02399,0.0779 -0.13697,0.09628 -0.160966,0.17419 -0.03393,0.110165 0.03393,0.238213 0,0.348382 -0.02399,0.0779 -0.13697,0.09628 -0.160964,0.17419 -0.06787,0.220337 0.06787,0.476428 0,0.696763 -0.02399,0.0779 -0.136971,0.09628 -0.160966,0.174192 -0.06787,0.220334 0.05206,0.471442 0,0.696762 -0.0291,0.125958 -0.131868,0.222424 -0.160965,0.348381 -0.02603,0.112657 0,0.232254 0,0.348382 0,0.116133 0,0.232254 0,0.34838 0,1.328839 0.07199,-0.137411 -0.160966,0.870954 -0.02603,0.112658 0,0.232255 0,0.348381 0,0.290319 0,0.580637 0,0.870954 0,0.81289 0,1.62578 0,2.43867 0,0.406445 0,0.81289 0,1.219335 0,0.116133 -0.02603,0.235722 0,0.348381 0.0291,0.125957 0.131866,0.222425 0.160966,0.348381 0.03904,0.16899 0,0.348381 0,0.522572 0,0.348382 0,0.696763 0,1.045145 0,0.150951 0.03107,0.595859 0,0.696762 -0.03794,0.123172 -0.123027,0.225211 -0.160966,0.348383 -0.01697,0.05508 0,0.116133 0,0.17419 0,0.09722 0.02456,0.791215 0,0.870953 -0.02399,0.0779 -0.136971,0.09628 -0.160966,0.174191 -0.03393,0.110164 0.03393,0.238213 0,0.348381 -0.02399,0.0779 -0.136971,0.09628 -0.160965,0.174192 -0.03393,0.110164 0.03393,0.238212 0,0.34838 -0.02399,0.0779 -0.127033,0.100744 -0.160967,0.174191 -0.02399,0.05194 0.01696,0.119107 0,0.17419 -0.09745,0.316371 -0.137762,0.323272 -0.321931,0.522572 -0.05365,0.05807 -0.127032,0.100745 -0.160966,0.174191 -0.02399,0.05194 0.02399,0.122257 0,0.17419 -0.03393,0.07344 -0.107315,0.116134 -0.160965,0.174192 -0.05365,0.05807 -0.0931,0.137469 -0.160966,0.174191 -0.04799,0.02596 -0.112974,-0.02596 -0.160966,0 -0.533856,0.577718 0.151761,-0.08212 -0.321931,0.17419 -0.06787,0.03673 -0.08898,0.148223 -0.160966,0.174191 -0.101804,0.03673 -0.214621,0 -0.321931,0 -0.05365,0 -0.112975,-0.02596 -0.160966,0 -0.06787,0.03673 -0.08898,0.148223 -0.160965,0.174191 -0.14487,0.05225 -0.338029,-0.05226 -0.482897,0 -0.113821,0.04106 -0.205537,0.1427 -0.321931,0.17419 -0.104105,0.02817 -0.214621,0 -0.321932,0 -0.268276,0 -0.536553,0 -0.804828,0 -0.268276,0 -0.536553,0 -0.804828,0 -0.107316,0 -0.214622,0 -0.321932,0 -0.05365,0 -0.110064,0.01836 -0.160966,0 -0.113819,-0.04106 -0.208111,-0.133132 -0.321931,-0.17419 -0.101804,-0.03673 -0.220128,0.03673 -0.321931,0 -0.11382,-0.04105 -0.208112,-0.133133 -0.321931,-0.174191 -0.101804,-0.03673 -0.220128,0.03673 -0.321932,0 -0.11382,-0.04107 -0.208111,-0.133134 -0.321931,-0.174191 -0.384707,-0.138771 0.15828,0.231286 -0.482897,0 -0.07199,-0.02596 -0.0931,-0.137467 -0.160966,-0.17419 -0.04799,-0.02596 -0.107316,0 -0.160965,0 -0.107316,0 -0.220128,0.03673 -0.321931,0 -0.07199,-0.02596 -0.107316,-0.116133 -0.160966,-0.174191 -0.05366,-0.05807 -0.08898,-0.148224 -0.160966,-0.174192 -0.101804,-0.03672 -0.220127,0.03673 -0.321931,0 -0.07199,-0.02596 -0.0931,-0.137466 -0.160966,-0.17419 -0.048,-0.02596 -0.110064,0.01836 -0.160965,0 -0.113821,-0.04106 -0.208113,-0.133133 -0.321931,-0.174191 -0.0509,-0.01836 -0.112976,0.02596 -0.160966,0 -0.06787,-0.03673 -0.0931,-0.137468 -0.160966,-0.17419 -0.048,-0.02596 -0.112975,0.02596 -0.160965,0 -0.06787,-0.03672 -0.0931,-0.137468 -0.160967,-0.174191 -0.04799,-0.02596 -0.112974,0.02596 -0.160966,0 -0.06787,-0.03672 -0.0931,-0.137468 -0.160965,-0.174191 -0.04799,-0.02596 -0.112975,0.02596 -0.160966,0 -0.06787,-0.03672 -0.0931,-0.137467 -0.160965,-0.17419 -0.04799,-0.02596 -0.112975,0.02596 -0.160966,0 -0.06787,-0.03672 -0.0931,-0.137468 -0.160966,-0.174191 -0.04799,-0.02596 -0.107316,0 -0.160965,0 -0.107316,-0.05807 -0.222105,-0.102172 -0.321932,-0.17419 -0.533856,-0.577718 0.151761,0.08211 -0.321931,-0.17419 -0.135738,-0.07344 -0.186193,-0.274937 -0.321931,-0.348382 -0.04799,-0.02596 -0.112975,0.02596 -0.160966,0 -0.06787,-0.03673 -0.0931,-0.137469 -0.160965,-0.174191 -0.04799,-0.02596 -0.112976,0.02596 -0.160966,0 -0.06787,-0.03673 -0.0931,-0.137469 -0.160966,-0.174191 -0.04799,-0.02596 -0.112975,0.02596 -0.160965,0 -0.06787,-0.03673 -0.0931,-0.137468 -0.160966,-0.17419 -0.09598,-0.05194 -0.225951,0.05194 -0.321931,0 -0.06787,-0.03673 -0.0931,-0.137469 -0.160966,-0.174191 -0.06383,-0.03453 -0.44999,0.03561 -0.482897,0 -0.03795,-0.04106 0.03795,-0.133135 0,-0.174191 -0.03795,-0.04106 -0.107316,0 -0.160965,0 -0.321932,0 -0.643863,0 -0.965795,0 -0.05366,0 -0.107315,0 -0.160966,0 -0.05365,0 -0.123024,-0.04106 -0.160965,0 -0.03795,0.04105 0.03794,0.133133 0,0.174191 -0.03795,0.04105 -0.107315,0 -0.160966,0 -0.05365,0 -0.107315,0 -0.160966,0 -0.114092,0 -0.924175,-0.02252 -0.965793,0 -0.135739,0.07344 -0.186193,0.274936 -0.321932,0.348381 -0.09598,0.05194 -0.225949,-0.05194 -0.321931,0 -0.06787,0.03672 -0.0931,0.137468 -0.160966,0.174191 -0.06382,0.03453 -0.449989,-0.03561 -0.482896,0 -0.03795,0.04105 0.03794,0.133134 0,0.174191 -0.215379,0.233073 -0.106558,-0.233074 -0.321932,0 -0.03794,0.04105 0.03795,0.133133 0,0.17419 -0.08049,0.0871 -0.402413,-0.0871 -0.482897,0 -0.03794,0.04105 0.03795,0.133134 0,0.174192 -0.03794,0.04106 -0.112975,-0.02596 -0.160965,0 -0.06787,0.03673 -0.0931,0.137468 -0.160966,0.17419 -0.048,0.02596 -0.123026,-0.04106 -0.160965,0 -0.03794,0.04106 0.03794,0.133133 0,0.17419 -0.03794,0.04106 -0.123026,-0.04106 -0.160966,0 -0.03794,0.04106 0,0.116133 0,0.174191 -0.05366,0 -0.112975,-0.02596 -0.160966,0 -0.355903,0.192572 -0.04995,0.108105 -0.160965,0.348381 -0.03393,0.07344 -0.127032,0.100745 -0.160967,0.174191 -0.02399,0.05194 0.03794,0.133134 0,0.17419 -0.03795,0.04106 -0.123025,-0.04105 -0.160966,0 -0.07588,0.08212 0.07588,0.266268 0,0.348381 -0.03794,0.04107 -0.123024,-0.04105 -0.160965,0 -0.07588,0.08212 0.048,0.244516 0,0.348383 -0.03393,0.07344 -0.127031,0.100744 -0.160966,0.17419 -0.02399,0.05194 0,0.116133 0,0.174191 0,0.05807 0.02399,0.122257 0,0.174191 -0.03393,0.07344 -0.127031,0.100745 -0.160965,0.17419 -0.0245,0.05302 0,0.444124 0,0.522572 0,0.09109 -0.02116,0.650962 0,0.696764 0.03393,0.07344 0.127031,0.100744 0.160965,0.17419 0.05059,0.109486 -0.05059,0.58728 0,0.696763 0.03393,0.07344 0.136971,0.09628 0.160966,0.17419 0.03394,0.110164 0,0.232255 0,0.348383 0,0.05807 -0.02399,0.122256 0,0.17419 0.03394,0.07344 0.127032,0.100743 0.160965,0.174191 0.02399,0.05194 0,0.116132 0,0.174191 0.05366,0.05807 0.127032,0.100744 0.160966,0.174189 0.02399,0.05194 -0.01696,0.119107 0,0.174191 0.03794,0.123172 0.123027,0.22521 0.160967,0.348381 0.01697,0.05508 -0.02399,0.122257 0,0.174191 0.03393,0.07344 0.12703,0.100745 0.160965,0.17419 0.02399,0.05194 -0.01696,0.119108 0,0.174191 0.03794,0.123173 0.123026,0.225211 0.160966,0.348382 0.01697,0.05508 -0.02399,0.122258 0,0.174191 0.03393,0.07344 0.127031,0.100744 0.160966,0.17419 0.02399,0.05194 -0.01696,0.119108 0,0.174191 0.03794,0.123172 0.123025,0.22521 0.160965,0.348381 0.01696,0.05508 -0.02399,0.122258 0,0.174191 0.533855,0.577718 -0.07588,-0.164228 0.160966,0.348381 0.03393,0.07344 0.127031,0.100745 0.160965,0.174192 0.02399,0.05194 0,0.116133 0,0.17419 0,0.116133 -0.03393,0.238213 0,0.348382 0.02399,0.0779 0.127031,0.100745 0.160966,0.17419 0.02116,0.04581 0,0.605676 0,0.696763 0,0.232254 0,0.464508 0,0.696763 0,0.05807 0,0.116132 0,0.174191 0,0.05807 0.02399,0.122256 0,0.174191 -0.03393,0.07344 -0.127032,0.100744 -0.160966,0.174189 -0.111014,0.240271 0.194939,0.15581 -0.160965,0.348382 -0.048,0.02596 -0.112976,-0.02596 -0.160966,0 -0.135737,0.07344 -0.186193,0.274936 -0.321931,0.348381 -0.048,0.02596 -0.112975,-0.02596 -0.160966,0 -0.06787,0.03673 -0.09783,0.128643 -0.160965,0.17419 -0.813168,0.586653 -0.0037,0.0013 -0.482898,0.174192 -0.113819,0.04106 -0.205537,0.142702 -0.321931,0.174191 -0.104103,0.02817 -0.217825,-0.02817 -0.321932,0 -0.291337,-0.104992 -0.299366,0.282178 -0.482897,0.348381 -0.101804,0.03673 -0.217824,-0.02817 -0.321931,0 -0.116394,0.03149 -0.20811,0.133134 -0.321931,0.174191 -0.0509,0.01836 -0.110063,-0.01836 -0.160966,0 -0.113819,0.04106 -0.205536,0.142701 -0.321931,0.17419 -0.104104,0.02817 -0.220128,-0.03673 -0.321931,0 -0.07199,0.02596 -0.08898,0.148224 -0.160966,0.174191 -0.101804,0.03673 -0.21462,0 -0.321931,0 -0.08984,0 -0.731144,-0.02658 -0.804827,0 -0.07199,0.02596 -0.0931,0.137468 -0.160967,0.17419 -0.04232,0.0229 -0.55969,0 -0.643861,0 -0.05366,0 -0.123027,0.04107 -0.160967,0 -0.03795,-0.04106 0.03794,-0.133132 0,-0.17419 -0.07588,-0.08211 -0.22595,0.05194 -0.321931,0 -0.06787,-0.03673 -0.0931,-0.137468 -0.160966,-0.174191 -0.04799,-0.02596 -0.112974,0.02596 -0.160966,0 -0.36638,-0.396483 0.03334,-0.04604 -0.321931,-0.17419 -1.165941,-0.420579 0.253779,0.05022 -0.482897,-0.348382 -0.04799,-0.02596 -0.112975,0.02596 -0.160965,0 -0.19316,-0.104513 -0.289739,-0.418058 -0.482897,-0.522573 -0.04799,-0.02596 -0.112976,0.02596 -0.160966,0 -0.08597,-0.04652 -0.398154,-0.430866 -0.482897,-0.522571 -0.05365,-0.05807 -0.107316,-0.116132 -0.160965,-0.174191 -0.05366,-0.05807 -0.0931,-0.137468 -0.160966,-0.174191 -0.048,-0.02596 -0.107316,0 -0.160966,0 -0.107316,-0.05807 -0.222104,-0.102172 -0.321931,-0.174189 -0.318884,0.01739 -0.07612,-0.256575 -0.160966,-0.348382 -0.03794,-0.04106 -0.112975,0.02596 -0.160965,0 -0.06787,-0.03673 -0.107316,-0.116134 -0.160966,-0.17419 -0.05366,-0.05807 -0.127032,-0.100745 -0.160965,-0.174191 -0.02399,-0.05194 0.03794,-0.133135 0,-0.17419 -0.333045,-0.360409 0.01302,0.550748 -0.321932,-0.174192 -0.02399,-0.05194 0.02399,-0.122257 0,-0.174191 -0.06787,-0.14689 -0.254062,-0.20149 -0.321931,-0.348381 -0.02399,-0.05194 0.02399,-0.122257 0,-0.174191 -0.03393,-0.07344 -0.127032,-0.100745 -0.160967,-0.17419 -0.02399,-0.05194 0.02399,-0.122258 0,-0.174191 -0.03393,-0.07344 -0.12703,-0.100745 -0.160965,-0.174191 -0.02399,-0.05194 0.02399,-0.122257 0,-0.17419 -0.03393,-0.07344 -0.127031,-0.100745 -0.160966,-0.174192 -0.05077,-0.109895 0.05077,-0.761061 0,-0.870953 -0.03393,-0.07344 -0.127031,-0.100745 -0.160965,-0.174191 -0.07274,-0.157415 0.138638,-0.450085 0.160965,-0.522571 0.01696,-0.05508 0,-0.116133 0,-0.174192 0,-0.181145 -0.03165,-0.908122 0,-1.045144 0.0291,-0.125957 0.123026,-0.225209 0.160966,-0.34838 0.01696,-0.05508 -0.01696,-0.119107 0,-0.174191 0.03795,-0.123171 0.131867,-0.222424 0.160965,-0.348382 0.02603,-0.112657 -0.03393,-0.238214 0,-0.348381 0.02399,-0.0779 0.118876,-0.10587 0.160967,-0.174191 0.06655,-0.108024 0.123025,-0.225209 0.160966,-0.348381 0.01696,-0.05508 -0.01696,-0.119107 0,-0.174191 0.03795,-0.123171 0.123024,-0.225209 0.160965,-0.348381 0.03393,-0.110165 -0.03393,-0.238214 0,-0.348382 0.03794,-0.123172 0.123025,-0.22521 0.160966,-0.348382 0.03393,-0.110165 0,-0.232254 0,-0.348381 0,-0.290317 0,-0.580635 0,-0.870953 0,-0.09109 0.02116,-0.650961 0,-0.696763 -0.03394,-0.07344 -0.127032,-0.100743 -0.160966,-0.174191 -0.02399,-0.05194 0.02399,-0.122256 0,-0.174191 -0.03393,-0.07344 -0.127031,-0.100744 -0.160965,-0.17419 -0.02399,-0.05194 0.02399,-0.122257 0,-0.174191 -0.06787,-0.146891 -0.254063,-0.201491 -0.321933,-0.34838 -0.02399,-0.05194 0.02399,-0.122259 0,-0.174192 -0.06787,-0.14689 -0.254061,-0.201491 -0.321931,-0.348381 -0.04799,-0.103869 0.04799,-0.244515 0,-0.348381 -0.04254,-0.09209 -0.279385,-0.256298 -0.321931,-0.348382 -0.02399,-0.05194 0.03794,-0.133134 0,-0.17419 -0.03794,-0.04106 -0.123026,0.04105 -0.160966,0 -0.07588,-0.08212 0.048,-0.244514 0,-0.348381 -0.03393,-0.07344 -0.12703,-0.100745 -0.160965,-0.174192 -0.02399,-0.05194 0.02399,-0.122257 0,-0.174191 -0.03393,-0.07344 -0.127031,-0.100744 -0.160966,-0.17419 -0.04799,-0.103869 0.048,-0.244514 0,-0.348382 -0.03393,-0.07344 -0.136971,-0.09628 -0.160966,-0.17419 -0.0509,-0.165252 0,-0.348382 0,-0.522572 0,-0.290318 0,-0.580636 0,-0.870954 0,-0.464508 0,-0.929017 0,-1.393525 0,-0.174191 -0.0509,-0.35732 0,-0.522572 0.02399,-0.0779 0.127032,-0.100745 0.160966,-0.174191 0.02399,-0.05194 0,-0.116133 0,-0.17419 0,-0.116133 -0.03393,-0.238214 0,-0.348382 0.02399,-0.0779 0.118875,-0.10587 0.160966,-0.17419 0.468682,-0.760786 -0.07134,0.05741 0.160965,-0.696764 0.02399,-0.0779 0.118876,-0.10587 0.160966,-0.174191 0.06655,-0.108023 0.107316,-0.232254 0.160966,-0.348381 0.05366,-0.116133 0.131866,-0.222424 0.160965,-0.348381 0.139384,-0.603343 -0.203826,-0.104618 0.160966,-0.696764 0.04209,-0.06832 0.118875,-0.10587 0.160965,-0.17419 0.133102,-0.216057 0.17796,-0.489028 0.321933,-0.696763 0.136582,-0.197074 0.356624,-0.317602 0.482897,-0.522573 0.06655,-0.108022 0.107316,-0.232253 0.160965,-0.34838 0.05365,-0.116133 0.07612,-0.256575 0.160966,-0.348381 0.08483,-0.0918 0.222104,-0.102173 0.321931,-0.174191 0.126272,-0.0911 0.21462,-0.232255 0.321931,-0.348381 0.268276,-0.290319 0.536552,-0.580636 0.804829,-0.870954 0.107316,-0.116133 0.195658,-0.257284 0.321931,-0.348381 0.09982,-0.07201 0.222104,-0.102172 0.321931,-0.174191 0.126272,-0.0911 0.186193,-0.274936 0.321931,-0.348381 0.048,-0.02596 0.123026,0.04106 0.160966,0 0.03795,-0.04106 -0.02399,-0.122258 0,-0.174191 0.03393,-0.07344 0.107315,-0.116133 0.160966,-0.174191 0.05366,-0.05807 0.0931,-0.137467 0.160965,-0.17419 0.048,-0.02596 0.112975,0.02596 0.160966,0 0.06787,-0.03673 0.107305,-0.116134 0.160965,-0.174192 0.05366,-0.05807 0.107315,-0.116133 0.160966,-0.17419 0.214621,-0.232254 0.429241,-0.464508 0.643864,-0.696763 0.05365,-0.05807 0.0931,-0.137468 0.160965,-0.174191 0.04799,-0.02596 0.123025,0.04106 0.160966,0 0.03794,-0.04105 -0.02399,-0.122256 0,-0.17419 0.334949,-0.72494 -0.01112,0.186217 0.32193,-0.174191 0.03795,-0.04106 -0.03794,-0.133134 0,-0.17419 0.03795,-0.04105 0.112974,0.02596 0.160967,0 0.171589,-0.09284 0.15034,-0.255538 0.32193,-0.348383 0.04799,-0.02596 0.112974,0.02596 0.160966,0 0.06787,-0.03672 0.0931,-0.137466 0.160965,-0.17419 0.04799,-0.02596 0.123026,0.04106 0.160966,0 0.03794,-0.04105 -0.03795,-0.133133 0,-0.17419 0.0051,-0.0056 0.443859,0 0.482897,0 0.05366,0 0.123025,-0.04106 0.160965,0 0.0051,0.0056 0,0.480326 0,0.522572 0,0.05807 0.03795,0.133134 0,0.174191 -0.03794,0.04106 -0.123024,-0.04105 -0.160965,0 -0.03291,0.03561 0.03192,0.453507 0,0.522571 -0.03393,0.07344 -0.127031,0.100745 -0.160966,0.174191 -0.09227,0.199705 0.223324,1.045145 0,1.045145 -0.21462,0 0,-0.464508 0,-0.696764 0,-0.05807 -0.02399,-0.122256 0,-0.17419 0.03393,-0.07344 0.107316,-0.116132 0.160966,-0.174191"
       id="path4158"
       inkscape:connector-curvature="0" />
    <path
       style="fill:none;fill-rule:evenodd;stroke:#da0036;stroke-width:1.12492251px;stroke-linecap:butt;stroke-linejoin:miter;stroke-opacity:1"
       d="m 14.939569,4.1918781 -4.507039,8.3611539 6.116695,2.264479 1.126761,11.844967 -6.921524,4.528958 3.380279,4.703149 -4.1851068,3.483814 5.9557288,8.535344 4.024142,-1.045144 4.828969,5.399911 -3.380279,6.270866 4.024142,1.916097 10.140836,-12.54173 7.243455,2.961241 4.668004,-4.180576 -1.609657,-5.574102 9.014076,-3.135433 4.024142,-2.78705"
       id="path4160"
       inkscape:connector-curvature="0" />
    <path
       style="fill:#57e83c;fill-opacity:1;fill-rule:evenodd;stroke:none;stroke-width:1px;stroke-linecap:butt;stroke-linejoin:miter;stroke-opacity:1"
       d="M 26.851029,0.35968281 21.378195,9.4175989 34.416413,17.952943 37.15283,8.3724549 39.567314,3.1467339 Z"
       id="path4162"
       inkscape:connector-curvature="0" />
    <path
       style="fill:#57e83c;fill-opacity:1;fill-rule:evenodd;stroke:none;stroke-width:1px;stroke-linecap:butt;stroke-linejoin:miter;stroke-opacity:1"
       d="m 47.293666,62.894142 c -0.552554,0.136502 -0.465483,-0.68734 -0.804829,-0.870953 -0.04799,-0.02596 -0.123025,0.04106 -0.160965,0 -0.03794,-0.04107 0.03795,-0.133133 0,-0.17419 -0.07588,-0.08212 -0.246052,0.08211 -0.321932,0 -0.03795,-0.04106 0.03795,-0.133134 0,-0.174192 -0.03795,-0.04107 -0.123025,0.04106 -0.160965,0 -0.03795,-0.04107 0.03794,-0.133133 0,-0.174191 -0.03795,-0.04105 -0.112975,0.02596 -0.160966,0 -0.06787,-0.03673 -0.107316,-0.116133 -0.160965,-0.17419 -0.05365,-0.05807 -0.127031,-0.100744 -0.160966,-0.174191 -0.02399,-0.05194 0.02399,-0.122256 0,-0.17419 -0.09657,-0.20903 -0.386317,-0.313543 -0.482897,-0.522572 -0.04799,-0.103868 0.048,-0.244514 0,-0.348382 -0.06787,-0.14689 -0.254062,-0.20149 -0.321931,-0.348382 -0.02399,-0.05194 0.03794,-0.133133 0,-0.17419 -0.03795,-0.04106 -0.123026,0.04106 -0.160966,0 -0.03795,-0.04106 0.02399,-0.122257 0,-0.174191 -0.06787,-0.14689 -0.254062,-0.20149 -0.321931,-0.34838 -0.02399,-0.05194 0.02399,-0.122258 0,-0.174191 -0.03393,-0.07344 -0.127031,-0.100745 -0.160966,-0.174191 -0.02399,-0.05194 0.02399,-0.122257 0,-0.17419 -0.03393,-0.07344 -0.127031,-0.100745 -0.160965,-0.174191 -0.02399,-0.05194 0.02399,-0.122257 0,-0.17419 -0.03393,-0.07344 -0.127031,-0.100745 -0.160966,-0.174192 -0.02399,-0.05194 0.02399,-0.122257 0,-0.174191 -0.03393,-0.07344 -0.127031,-0.100744 -0.160966,-0.17419 -0.02399,-0.05194 0.03795,-0.133134 0,-0.174191 -0.03795,-0.04106 -0.123026,0.04106 -0.160965,0 -0.03795,-0.04106 0.02399,-0.122257 0,-0.174191 -0.03393,-0.07344 -0.127032,-0.100745 -0.160966,-0.17419 -0.02399,-0.05194 0.02399,-0.122258 0,-0.174191 -0.03393,-0.07344 -0.127032,-0.100745 -0.160966,-0.174191 -0.02399,-0.05194 0.02399,-0.122257 0,-0.17419 -0.03393,-0.07344 -0.127031,-0.100745 -0.160965,-0.174191 -0.048,-0.10387 0.07588,-0.266267 0,-0.348382 -0.03795,-0.04106 -0.123027,0.04106 -0.160966,0 -0.0065,-0.007 0,-0.632793 0,-0.696763 0,-0.464508 0,-0.929016 0,-1.393526 0,-0.05807 0,-0.116132 0,-0.17419 0,-0.05807 -0.03794,-0.133133 0,-0.17419 0.03795,-0.04107 0.123025,0.04105 0.160966,0 0.0065,-0.007 0,-0.632794 0,-0.696762 0,-0.482368 0.160965,0.133985 0.160965,-0.348383 0,-0.443866 0.187754,-0.232171 0.321932,-0.522571 0.02399,-0.05194 -0.03795,-0.133134 0,-0.174191 0.03794,-0.04107 0.123024,0.04105 0.160965,0 0.03795,-0.04107 -0.03795,-0.133134 0,-0.174191 0.07588,-0.08212 0.246052,0.08211 0.321932,0 0.03794,-0.04107 -0.03795,-0.133133 0,-0.17419 0.07588,-0.08211 0.246051,0.08211 0.321931,0 0.03795,-0.04106 -0.03795,-0.133134 0,-0.174191 0.03795,-0.04106 0.112975,0.02596 0.160965,0 0.06787,-0.03673 0.0931,-0.137468 0.160966,-0.174191 0.09598,-0.05194 0.246052,0.08211 0.321931,0 0.03795,-0.04106 -0.03795,-0.133133 0,-0.17419 0.03291,-0.03561 0.419075,0.03453 0.482897,0 0.06787,-0.03673 0.0931,-0.137468 0.160966,-0.174192 0.09598,-0.05194 0.225951,0.05194 0.321931,0 0.06787,-0.03673 0.0931,-0.137468 0.160966,-0.174191 0.048,-0.02596 0.107316,0 0.160965,0 0.05366,0 0.112976,-0.02596 0.160966,0 0.06787,0.03673 0.0931,0.137468 0.160966,0.174191 0.048,0.02596 0.107316,0 0.160965,0 0.05366,0 0.107316,0 0.160966,0 0.268276,0 0.536552,0 0.804829,0 0.05366,0 0.123025,-0.04106 0.160966,0 0.03795,0.04106 -0.03794,0.133134 0,0.174192 0.03795,0.04106 0.123024,-0.04107 0.160965,0 0.03794,0.04106 -0.03795,0.133132 0,0.17419 0.03794,0.04107 0.123025,-0.04106 0.160966,0 0.21462,0.232254 -0.268277,0.174191 0.160966,0.174191 0.08417,0 0.601538,0.0229 0.643862,0 0.06787,-0.03673 0.0931,-0.137468 0.160966,-0.174191 0.04799,-0.02596 0.123024,0.04107 0.160965,0 0.03794,-0.04106 -0.03795,-0.133133 0,-0.17419 0.03794,-0.04107 0.123025,0.04106 0.160966,0 0.03795,-0.04107 -0.03794,-0.133134 0,-0.174192 0.03795,-0.04106 0.123025,0.04106 0.160966,0 0.03795,-0.04106 -0.02399,-0.122257 0,-0.174191 0.06787,-0.146889 0.254062,-0.201489 0.321931,-0.348381 0.06438,-0.139352 -0.06439,-0.38322 0,-0.522572 0.03393,-0.07344 0.127031,-0.100745 0.160965,-0.17419 0.02911,-0.06299 0,-0.749796 0,-0.870954 0,-0.290317 0,-0.580636 0,-0.870953 0,-0.05807 0,-0.116134 0,-0.17419 0,-0.05807 -0.02399,-0.122258 0,-0.174191 0.03393,-0.07344 0.127031,-0.100745 0.160966,-0.17419 0.0291,-0.06299 0,-0.749799 0,-0.870955 0,-0.05807 -0.03795,-0.133133 0,-0.17419 0.03794,-0.04106 0.123026,0.04106 0.160966,0 0.04984,-0.05393 -0.04984,-0.817017 0,-0.870954 0.03795,-0.04107 0.123025,0.04106 0.160965,0 0.05651,-0.06115 -0.05559,-0.750634 0,-0.870954 0.03393,-0.07344 0.127031,-0.100745 0.160966,-0.17419 0.04366,-0.09449 -0.04404,-0.6491 0,-0.696764 0.03795,-0.04106 0.123026,0.04106 0.160966,0 0.03291,-0.03561 -0.03192,-0.453507 0,-0.522572 0.03393,-0.07344 0.127031,-0.100744 0.160965,-0.17419 0.048,-0.103868 -0.04799,-0.244514 0,-0.34838 0.03393,-0.07344 0.127032,-0.100745 0.160966,-0.174191 0.02399,-0.05194 -0.03795,-0.133135 0,-0.174191 0.03794,-0.04107 0.123026,0.04105 0.160966,0 0.03794,-0.04107 -0.02399,-0.122257 0,-0.17419 0.334949,-0.724941 -0.01112,0.186214 0.321931,-0.174192 0.03795,-0.04106 0,-0.116133 0,-0.174191 0.05366,0 0.123026,0.04106 0.160965,0 0.03794,-0.04106 -0.03794,-0.133133 0,-0.17419 0.03794,-0.04107 0.123026,0.04105 0.160966,0 0.03795,-0.04107 -0.03794,-0.133134 0,-0.174191 0.03795,-0.04107 0.107315,0 0.160967,0 0,-0.05807 -0.03795,-0.133134 0,-0.17419 0.03795,-0.04107 0.123024,0.04105 0.160965,0 0.03795,-0.04107 -0.03794,-0.133134 0,-0.174191 0.07588,-0.08212 0.246051,0.08211 0.321932,0 0.03794,-0.04106 -0.03794,-0.133135 0,-0.174191 0.07588,-0.08212 0.225948,0.05194 0.321931,0 0.06787,-0.03673 0.0931,-0.137468 0.160964,-0.17419 0.05821,-0.03149 0.692871,0 0.804829,0 0.05911,0 0.637385,-0.007 0.643862,0 0.03795,0.04106 -0.03794,0.133132 0,0.17419 0.03873,0.04192 0.60513,-0.04192 0.643863,0 0.03794,0.04105 -0.03795,0.133133 0,0.174191 0.07588,0.08211 0.246051,-0.08212 0.321931,0 0.03794,0.04106 -0.03795,0.133133 0,0.174191 0.03794,0.04105 0.123027,-0.04107 0.160966,0 0.03794,0.04105 -0.03795,0.133132 0,0.17419 0.03794,0.04106 0.123026,-0.04107 0.160965,0 0.03795,0.04106 -0.03794,0.133134 0,0.174191 0.03795,0.04105 0.123027,-0.04107 0.160966,0 0.07588,0.08212 -0.07588,0.266266 0,0.348381 0.03795,0.04105 0.123026,-0.04106 0.160965,0 0.07588,0.08212 -0.07588,0.266266 0,0.348382 0.03795,0.04105 0.123027,-0.04107 0.160966,0 0.03795,0.04105 -0.02399,0.122257 0,0.174191 0.533856,0.577717 -0.07588,-0.16423 0.160966,0.34838 0.03393,0.07344 0.127031,0.100745 0.160965,0.174191 0.048,0.103869 -0.07588,0.266267 0,0.348381 0.03795,0.04106 0.123027,-0.04106 0.160966,0 0.07588,0.08212 -0.07588,0.266268 0,0.348381 0.03794,0.04106 0.123027,-0.04106 0.160966,0 0.08049,0.0871 -0.08049,0.435478 0,0.522573 0.03794,0.04106 0.123026,-0.04105 0.160965,0 0.07588,0.08211 -0.04799,0.244515 0,0.348381 0.03393,0.07344 0.127032,0.100744 0.160967,0.174191 0.02399,0.05194 -0.02399,0.122257 0,0.174191 0.03393,0.07344 0.127031,0.100745 0.160965,0.17419 0.02399,0.05194 -0.02399,0.122258 0,0.174191 0.03393,0.07344 0.127031,0.100745 0.160966,0.174191 0.02399,0.05194 -0.02399,0.122257 0,0.17419 0.03393,0.07344 0.127031,0.100745 0.160966,0.174192 0.02399,0.05194 -0.02399,0.122257 0,0.17419 0.03393,0.07344 0.12703,0.100744 0.160965,0.174191 0.04799,0.103869 -0.048,0.244514 0,0.348381 0.03393,0.07344 0.127031,0.100745 0.160966,0.174191 0.02399,0.05194 -0.03795,0.133134 0,0.174191 0.03794,0.04106 0.123026,-0.04107 0.160966,0 0.03794,0.04106 -0.02399,0.122256 0,0.17419 0.03393,0.07344 0.12703,0.100744 0.160965,0.174191 0.02399,0.05194 -0.03795,0.133134 0,0.174192 0.03794,0.04105 0.123026,-0.04106 0.160966,0 0.03795,0.04105 -0.02399,0.122256 0,0.17419 0.03393,0.07344 0.127031,0.100743 0.160965,0.174191 0.02399,0.05194 -0.02399,0.122256 0,0.17419 0.03393,0.07344 0.127031,0.100743 0.160966,0.174191 0.02399,0.05194 -0.03795,0.133133 0,0.174191 0.03795,0.04106 0.123026,-0.04106 0.160966,0 0.03794,0.04106 -0.02399,0.122256 0,0.174189 0.05736,0.124136 0.264576,0.224248 0.321931,0.348382 0.02399,0.05194 -0.02399,0.122257 0,0.17419 0.03393,0.07344 0.127031,0.100745 0.160966,0.174191 0.02399,0.05194 -0.03794,0.133135 0,0.17419 0.03794,0.04106 0.123025,-0.04105 0.160965,0 0.03794,0.04106 -0.03795,0.133135 0,0.174192 0.03794,0.04106 0.123026,-0.04105 0.160966,0 0.03795,0.04106 -0.03794,0.133134 0,0.174191 0.03795,0.04106 0.123026,-0.04106 0.160965,0 0.03795,0.04106 0,0.116133 0,0.17419 0.05366,0 0.123027,-0.04105 0.160966,0 0.03795,0.04107 -0.03795,0.133134 0,0.174191 0.03795,0.04107 0.123027,-0.04106 0.160966,0 0.03794,0.04107 -0.02399,0.122257 0,0.174191 0.02137,0.04625 0.440159,0.499446 0.482897,0.522571 0.429242,0 -0.05365,-0.05807 0.160965,0.174191 0.03794,0.04106 0.123027,-0.04106 0.160966,0 0.03795,0.04106 -0.03794,0.133134 0,0.174192 0.03795,0.04106 0.123027,-0.04107 0.160966,0 0.03794,0.04106 -0.02399,0.122257 0,0.17419 0.03393,0.07344 0.127031,0.100744 0.160965,0.174191 0.02399,0.05194 0,0.116133 0,0.174191 0,0.05807 0.03795,0.133132 0,0.17419 -0.03795,0.04106 -0.123025,-0.04107 -0.160965,0 -0.03795,0.04106 0.03794,0.133133 0,0.174191 -0.03795,0.04105 -0.123025,-0.04107 -0.160966,0 -0.07588,0.08212 0.07588,0.266267 0,0.348381 -0.03794,0.04105 -0.123025,-0.04106 -0.160966,0 -0.07588,0.08212 0.07588,0.266268 0,0.348381 -0.03795,0.04106 -0.123024,-0.04106 -0.160965,0 -0.03794,0.04106 0.02399,0.122258 0,0.174191 -0.03393,0.07344 -0.127031,0.100744 -0.160966,0.174192 -0.02399,0.05194 0.02399,0.122256 0,0.17419 -0.03393,0.07344 -0.127031,0.100743 -0.160966,0.174191 -0.02399,0.05194 0.03795,0.133133 0,0.174191 -0.03795,0.04105 -0.123024,-0.04106 -0.160965,0 -0.07588,0.08211 0.07588,0.266266 0,0.34838 -0.03795,0.04106 -0.123025,-0.04105 -0.160966,0 -0.07588,0.08212 0.07588,0.266267 0,0.348381 -0.03795,0.04107 -0.123025,-0.04106 -0.160966,0 -0.03794,0.04107 0.02399,0.122257 0,0.174191 -0.03393,0.07344 -0.12703,0.100745 -0.160965,0.17419 -0.02399,0.05194 0.03795,0.133135 0,0.174192 -0.03794,0.04106 -0.123025,-0.04106 -0.160966,0 -0.03795,0.04106 0.03794,0.133134 0,0.174191 -0.03795,0.04106 -0.123025,-0.04105 -0.160965,0 -0.03794,0.04106 0.03794,0.133133 0,0.17419 -0.03794,0.04106 -0.123025,-0.04106 -0.160966,0 0,0.464509 0.05365,-0.05807 -0.160966,0.174191 -0.03795,0.04107 0.02399,0.122257 0,0.17419 -0.06787,0.146892 -0.254062,0.201492 -0.321931,0.348382 -0.02399,0.05194 0.03795,0.133134 0,0.17419 -0.03795,0.04107 -0.123026,-0.04106 -0.160966,0 -0.03794,0.04107 0.02399,0.122258 0,0.174191 -0.0792,0.171408 -0.564664,0.525355 -0.643862,0.696763 -0.02399,0.05194 0.03794,0.133133 0,0.174191 -0.03795,0.04106 -0.123026,-0.04106 -0.160966,0 -0.03795,0.04106 0.02399,0.122257 0,0.174191 -0.03393,0.07344 -0.127031,0.100745 -0.160965,0.17419 -0.02399,0.05194 0.02399,0.122258 0,0.174191 -0.03393,0.07344 -0.127032,0.100745 -0.160966,0.174191 -0.02399,0.05194 0.03795,0.133133 0,0.17419 -0.03795,0.04105 -0.123026,-0.04107 -0.160966,0 -0.03794,0.04105 0.02399,0.122257 0,0.174191 -0.03393,0.07344 -0.127031,0.100745 -0.160965,0.174192 -0.02399,0.05194 0.03795,0.133132 0,0.17419 -0.03795,0.04106 -0.123026,-0.04106 -0.160967,0 -0.07588,0.08212 0.07588,0.266267 0,0.348381 -0.03794,0.04106 -0.123025,-0.04106 -0.160965,0 -0.03794,0.04106 0.02399,0.122257 0,0.174191 -0.03393,0.07344 -0.127031,0.100744 -0.160966,0.174191 -0.04799,0.103868 0.07588,0.266266 0,0.34838 -0.03795,0.04107 -0.123025,-0.04105 -0.160966,0 -0.333043,0.360407 0.508937,-0.01408 -0.160965,0.348381 -0.09598,0.05194 -0.246052,-0.08211 -0.321932,0 -0.03794,0.04106 0.03795,0.133135 0,0.174192 -0.08049,0.0871 -0.402413,-0.0871 -0.482896,0 -0.03795,0.04106 0.03794,0.133134 0,0.17419 -0.03795,0.04107 -0.112976,-0.02596 -0.160966,0 -0.06787,0.03673 -0.0931,0.137469 -0.160966,0.174191 -0.09598,0.05194 -0.246051,-0.08212 -0.321931,0 -0.03795,0.04107 0.03795,0.133134 0,0.174191 -0.08049,0.0871 -0.402414,-0.0871 -0.482897,0 -0.03794,0.04106 0.03795,0.133133 0,0.17419 -0.08049,0.0871 -0.402413,-0.0871 -0.482897,0 -0.03795,0.04106 0.03795,0.133134 0,0.174191 -0.07588,0.08211 -0.225949,-0.05194 -0.321931,0 -0.06787,0.03673 -0.0931,0.137469 -0.160966,0.174191 -0.04162,0.02252 -0.8517,0 -0.965792,0 -0.05366,0 -0.107316,0 -0.160966,0 -0.05366,0 -0.123027,-0.04106 -0.160966,0 -0.03794,0.04106 0.03795,0.133134 0,0.17419 -0.08049,0.0871 -0.402415,-0.0871 -0.482898,0 -0.03794,0.04107 0.03794,0.133135 0,0.174191 -0.07588,0.08212 -0.24605,-0.08211 -0.321931,0 -0.03795,0.04107 0.03794,0.133135 0,0.17419 -0.08049,0.0871 -0.402414,-0.0871 -0.482897,0 -0.03795,0.04106 0.03795,0.133134 0,0.174191 -0.07588,0.08212 -0.246051,-0.08211 -0.321931,0 -0.03794,0.04106 0,0.116134 0,0.174192 -0.05365,0 -0.112975,-0.02596 -0.160966,0 -0.06787,0.03673 -0.0931,0.137466 -0.160965,0.17419 -0.09598,0.05194 -0.246052,-0.08212 -0.321932,0 -0.03794,0.04106 0.03795,0.133133 0,0.174191 -0.07588,0.08211 -0.225949,-0.05194 -0.321931,0 -0.06787,0.03673 -0.0931,0.137468 -0.160965,0.174191 -0.09599,0.05194 -0.22595,-0.05194 -0.321932,0 -0.06787,0.03673 -0.0931,0.137467 -0.160965,0.17419 -0.09598,0.05194 -0.246052,-0.08211 -0.321932,0 -0.03794,0.04107 0.03795,0.133133 0,0.174191 -0.07588,0.08212 -0.22595,-0.05194 -0.321931,0 -0.06787,0.03673 -0.0931,0.137468 -0.160965,0.17419 -0.048,0.02596 -0.123027,-0.04106 -0.160966,0 -0.03795,0.04106 0.05365,0.174191 0,0.174191 -0.221226,0 -0.433989,-0.249896 -0.643863,-0.174191 -0.351695,0.126863 -0.321931,0.436371 -0.321931,0.696764"
       id="path4164"
       inkscape:connector-curvature="0" />
    <path
       style="fill:#57e83c;fill-opacity:1;fill-rule:evenodd;stroke:none;stroke-width:1px;stroke-linecap:butt;stroke-linejoin:miter;stroke-opacity:1"
       d="m 3.3500421,51.049176 c 0.2146208,0 0.4334095,0.04554 0.6438626,0 0.074406,-0.0161 0.093097,-0.137468 0.1609656,-0.174192 0.04799,-0.02596 0.1073104,0 0.1609656,0 0.053655,-0.05807 0.093097,-0.137468 0.1609658,-0.174191 0.04799,-0.02596 0.1129749,0.02596 0.1609656,0 0.1357381,-0.07344 0.1956594,-0.257283 0.3219313,-0.348381 0.099827,-0.07201 0.2221046,-0.102172 0.3219313,-0.17419 0.063136,-0.04554 0.093097,-0.137468 0.1609657,-0.174191 0.04799,-0.02596 0.1129749,0.02596 0.1609656,0 0.067869,-0.03672 0.09783,-0.128641 0.1609656,-0.174191 0.099827,-0.07201 0.2221048,-0.102172 0.3219313,-0.17419 0.063136,-0.04554 0.1073104,-0.116132 0.1609657,-0.174191 0.1609657,-0.174192 0.3219313,-0.348382 0.482897,-0.522573 0.053654,-0.05807 0.093097,-0.137468 0.1609657,-0.17419 0.04799,-0.02596 0.1129749,0.02596 0.1609656,0 0.067869,-0.03672 0.093097,-0.137468 0.1609656,-0.174191 0.04799,-0.02596 0.1073103,0 0.1609658,0 0.053655,-0.05807 0.093097,-0.137468 0.1609656,-0.174191 0.095982,-0.05194 0.2259499,0.05194 0.3219314,0 0.067869,-0.03673 0.093097,-0.137467 0.1609656,-0.174189 0.095981,-0.05194 0.2259498,0.05194 0.3219311,0 0.06787,-0.03673 0.093098,-0.137469 0.1609657,-0.174191 0.047994,-0.02596 0.1129747,0.02596 0.160966,0 0.06787,-0.03673 0.093097,-0.137469 0.160965,-0.174191 0.047994,-0.02596 0.1230265,0.04105 0.1609661,0 0.037949,-0.04106 -0.037949,-0.133134 0,-0.17419 0.075877,-0.08212 0.2259494,0.05194 0.321931,0 0.06787,-0.03673 0.093097,-0.137469 0.1609661,-0.174191 0.1011763,-0.05475 0.5426919,0.05475 0.6438619,0 0.06787,-0.03673 0.0931,-0.137469 0.160966,-0.17419 0.05821,-0.0315 0.692871,0 0.804828,0 0.375587,0 0.751174,0 1.12676,0 0.0725,0 0.433909,-0.02651 0.482897,0 0.06787,0.03673 0.0931,0.137466 0.160966,0.17419 0.04232,0.0229 0.55969,0 0.643862,0 0.03904,0 0.477721,-0.0056 0.482897,0 0.03795,0.04106 -0.03794,0.133133 0,0.174191 0.07588,0.08212 0.246052,-0.08212 0.321932,0 0.03794,0.04105 -0.03794,0.133133 0,0.17419 0.03794,0.04105 0.123025,-0.04106 0.160965,0 0.03794,0.04105 0,0.116132 0,0.174191 0,0.09109 0.02116,0.65096 0,0.696762 -0.03393,0.07344 -0.127031,0.100745 -0.160965,0.17419 -0.04799,0.10387 0.07588,0.266268 0,0.348381 -0.03794,0.04106 -0.123025,-0.04105 -0.160966,0 -0.03795,0.04106 0.02399,0.122259 0,0.174192 -0.03393,0.07344 -0.127031,0.100744 -0.160966,0.174191 -0.02399,0.05194 0.03795,0.133133 0,0.17419 -0.03794,0.04107 -0.123024,-0.04105 -0.160965,0 -0.03794,0.04107 0.03795,0.133134 0,0.174191 -0.03794,0.04107 -0.123026,-0.04106 -0.160966,0 -0.07588,0.08211 0.07588,0.266267 0,0.348381 -0.03795,0.04106 -0.112975,-0.02596 -0.160966,0 -0.135738,0.07344 -0.186192,0.274937 -0.321931,0.348381 -0.04799,0.02596 -0.123026,-0.04106 -0.160966,0 -0.03794,0.04107 0.03795,0.133134 0,0.174191 -0.03794,0.04106 -0.112975,-0.02596 -0.160965,0 -0.135739,0.07344 -0.186193,0.274937 -0.321931,0.348382 -0.048,0.02596 -0.112976,-0.02596 -0.160966,0 -0.193159,0.104512 -0.289739,0.418058 -0.482897,0.522572 -0.04799,0.02596 -0.123026,-0.04107 -0.160967,0 -0.03794,0.04106 0.03794,0.133133 0,0.174191 -0.03794,0.04105 -0.112974,-0.02596 -0.160965,0 -0.06787,0.03672 -0.107315,0.116133 -0.160966,0.174191 -0.05366,0.05807 -0.107315,0.116132 -0.160965,0.17419 -0.08475,0.09171 -0.439912,0.429539 -0.482897,0.522572 -0.02399,0.05194 0.03794,0.133134 0,0.174192 -0.03795,0.04105 -0.123025,-0.04107 -0.160966,0 -0.03795,0.04105 0.02399,0.122256 0,0.17419 -0.06787,0.14689 -0.254061,0.20149 -0.321931,0.348382 -0.02399,0.05194 0.02399,0.122256 0,0.17419 -0.06787,0.146891 -0.254062,0.201491 -0.3219308,0.34838 -0.047994,0.103869 0.047994,0.244515 0,0.348382 -0.033935,0.07344 -0.1270314,0.100745 -0.1609661,0.17419 -0.06438,0.139353 0.06438,0.38322 0,0.522573 -0.033935,0.07344 -0.1270313,0.100744 -0.160966,0.174191 -0.024496,0.05302 0,0.444125 0,0.522572 0,0.348381 0,0.696763 0,1.045144 0,0.05807 0,0.116133 0,0.174191 0,0.05807 -0.037949,0.133133 0,0.174191 0.037938,0.04106 0.1230265,-0.04107 0.160966,0 0.044042,0.04766 -0.043651,0.602267 0,0.696762 0.033935,0.07344 0.1270314,0.100745 0.1609661,0.174191 0.031907,0.06907 -0.032906,0.486961 0,0.522573 0.037938,0.04106 0.1230258,-0.04106 0.1609648,0 0.03873,0.04192 -0.03873,0.654846 0,0.696762 0.03795,0.04105 0.123027,-0.04106 0.160966,0 0.03291,0.03561 -0.03191,0.453507 0,0.522571 0.03393,0.07344 0.127032,0.100745 0.160965,0.174192 0.03191,0.06906 -0.0329,0.486961 0,0.522572 0.03794,0.04106 0.123027,-0.04106 0.160966,0 0.03795,0.04106 0,0.116133 0,0.17419 0,0.07845 0.0245,0.46956 0,0.522572 -0.03393,0.07344 -0.127031,0.100745 -0.160966,0.174191 -0.04799,0.10387 0.07588,0.266267 0,0.348381 -0.03794,0.04106 -0.123024,-0.04107 -0.160965,0 -0.03794,0.04106 0.03795,0.133134 0,0.174192 -0.03794,0.04106 -0.107316,0 -0.160966,0 -0.05366,0 -0.107316,0 -0.1609648,0 -0.084173,0 -0.6015379,0.0229 -0.6438632,0 -0.3978112,-0.215249 0.055559,-0.174192 -0.321931,-0.174192 -0.072491,0 -0.4339095,0.02651 -0.4828971,0 -0.06787,-0.03673 -0.093097,-0.137468 -0.1609657,-0.174191 -0.1111842,-0.06016 -0.748326,0.06115 -0.8048281,0 -0.037941,-0.04105 0.037941,-0.133132 0,-0.17419 -0.00647,-0.007 -0.5847502,0 -0.6438626,0 -0.3774932,0 0.07588,0.04107 -0.3219314,-0.174191 -0.04799,-0.02596 -0.1073104,0 -0.1609656,0 -0.053655,0 -0.1073103,0 -0.1609657,0 -0.268276,0 -0.5365522,0 -0.8048282,0 -0.053655,0 -0.112975,0.02596 -0.1609657,0 -0.067869,-0.03672 -0.093097,-0.137468 -0.1609656,-0.17419 -0.1287725,-0.06968 -0.3541245,0.06968 -0.482897,0 -0.067869,-0.03673 -0.093097,-0.137468 -0.1609656,-0.174191 -0.1011701,-0.05475 -0.5426922,0.05475 -0.6438628,0 -0.067869,-0.03673 -0.093097,-0.137468 -0.1609656,-0.174191 -0.04799,-0.02596 -0.1073103,0 -0.1609656,0 -0.053655,0 -0.1073103,0 -0.1609656,0 -0.2682762,0 -0.5365523,0 -0.8048283,0 -0.482897,0 -0.965794,0 -1.448691,0 -0.053655,0 -0.10731028,0 -0.16096562,0 -0.0536553,0 -0.12302565,0.04106 -0.16096564,0 -0.0379406,-0.04106 0,-0.116132 0,-0.17419 0,-0.09109 -0.0211626,-0.65096 0,-0.696764 0.0339347,-0.07344 0.12703112,-0.100743 0.16096564,-0.17419 0.0319102,-0.06906 -0.0329075,-0.48696 0,-0.522571 0.21462102,-0.232256 0.16096562,0.290316 0.16096562,-0.174191 0,-0.408508 -0.03794,0.08211 0.1609657,-0.348381 0.04799,-0.10387 -0.04799,-0.244515 0,-0.348381 0.033935,-0.07344 0.1270312,-0.100745 0.1609657,-0.174192 0.03191,-0.06906 -0.032908,-0.486961 0,-0.522572 0.2146208,-0.232254 0.1609656,0.290318 0.1609656,-0.174191 0,-0.04224 -0.00518,-0.51697 0,-0.522572 0.037941,-0.04106 0.1230258,0.04106 0.1609657,0 0.049843,-0.05394 -0.049843,-0.817016 0,-0.870954 0.037941,-0.04106 0.1230257,0.04107 0.1609657,0 0.032908,-0.03561 -0.03191,-0.453507 0,-0.522572 0.033935,-0.07344 0.127031,-0.100745 0.1609656,-0.17419 0.04366,-0.09449 -0.044043,-0.6491 0,-0.696764 0.037941,-0.04106 0.1230256,0.04106 0.1609657,0 0.032908,-0.03561 -0.03191,-0.453506 0,-0.522572 0.033935,-0.07344 0.1270311,-0.100744 0.1609657,-0.17419 0.064386,-0.139351 -0.064386,-0.383219 0,-0.522571 0.033935,-0.07344 0.127031,-0.100745 0.1609656,-0.174191 0.03191,-0.06907 -0.032907,-0.486962 0,-0.522573 0.03794,-0.04106 0.1230256,0.04106 0.1609656,0 0.03794,-0.04106 -0.023996,-0.122257 0,-0.17419 0.033935,-0.07344 0.1270311,-0.100744 0.1609658,-0.174191 0.04799,-0.103869 -0.07588,-0.266267 0,-0.348381 0.03794,-0.04107 0.1230256,0.04105 0.1609655,0 0.07588,-0.08211 -0.04799,-0.244514 0,-0.348381 0.086517,-0.187249 0.214621,-0.348382 0.3219314,-0.522572 z"
       id="path4166"
       inkscape:connector-curvature="0" />
    <path
       inkscape:connector-curvature="0"
       style="fill:#000080;fill-opacity:1;stroke:#000000;stroke-width:1.70095408;stroke-linecap:round;stroke-linejoin:round;stroke-miterlimit:4;stroke-dasharray:none;stroke-opacity:1"
       d="m 12.216196,29.061707 c 0.0025,2.658709 0.594557,5.344623 1.888049,7.856279 4.314061,8.376911 14.533423,11.598418 22.823166,7.239 0.215135,-0.113141 0.402545,-0.271783 0.61084,-0.392815 l 18.769416,18.967302 6.386045,-6.509488 -18.769417,-18.9673 C 46.575038,32.409758 46.863326,26.36881 44.146418,21.093197 39.832357,12.716286 29.612995,9.4947801 21.32325,13.854196 l -0.832961,0.448931 c -5.295051,3.189308 -8.279679,8.909433 -8.274093,14.75858 z m 4.220343,-0.05602 c -0.0043,-4.386855 2.248162,-8.606817 6.219451,-10.998789 l 0.610841,-0.392814 c 6.217307,-3.269574 13.867946,-0.783291 17.103491,5.499397 3.235546,6.282689 0.830819,14.014235 -5.38649,17.283814 -6.217308,3.269575 -13.867946,0.83941 -17.103492,-5.443279 -0.970119,-1.883748 -1.441896,-3.954304 -1.443801,-5.948327 z"
       id="path6229" />
  </g>
</svg>
