<?xml version="1.0" encoding="UTF-8" standalone="no"?>
<!-- Created with Inkscape (http://www.inkscape.org/) -->

<svg
   xmlns:dc="http://purl.org/dc/elements/1.1/"
   xmlns:cc="http://creativecommons.org/ns#"
   xmlns:rdf="http://www.w3.org/1999/02/22-rdf-syntax-ns#"
   xmlns:svg="http://www.w3.org/2000/svg"
   xmlns="http://www.w3.org/2000/svg"
   xmlns:sodipodi="http://sodipodi.sourceforge.net/DTD/sodipodi-0.dtd"
   xmlns:inkscape="http://www.inkscape.org/namespaces/inkscape"
   width="64px"
   height="64px"
   id="svg3513"
   version="1.1"
   inkscape:version="0.91 r13725"
   sodipodi:docname="SelectColor.svg">
  <defs
     id="defs3515" />
  <sodipodi:namedview
     id="base"
     pagecolor="#ffffff"
     bordercolor="#666666"
     borderopacity="1.0"
     inkscape:pageopacity="0.0"
     inkscape:pageshadow="2"
     inkscape:zoom="5.6568542"
     inkscape:cx="-46.24654"
     inkscape:cy="34.743237"
     inkscape:current-layer="layer1"
     showgrid="true"
     inkscape:document-units="px"
     inkscape:grid-bbox="true"
     inkscape:window-width="1920"
     inkscape:window-height="1015"
     inkscape:window-x="0"
     inkscape:window-y="0"
     inkscape:window-maximized="1" />
  <metadata
     id="metadata3518">
    <rdf:RDF>
      <cc:Work
         rdf:about="">
        <dc:format>image/svg+xml</dc:format>
        <dc:type
           rdf:resource="http://purl.org/dc/dcmitype/StillImage" />
        <dc:title />
      </cc:Work>
    </rdf:RDF>
  </metadata>
  <g
     id="layer1"
     inkscape:label="Layer 1"
     inkscape:groupmode="layer">
    <path
       sodipodi:type="arc"
       style="fill:#ff0000;fill-opacity:1;fill-rule:nonzero;stroke:#000000;stroke-width:1.66210139;stroke-linecap:round;stroke-linejoin:round;stroke-miterlimit:4;stroke-dasharray:none;stroke-opacity:1"
       id="path4191"
       sodipodi:cx="38.149799"
       sodipodi:cy="11.277327"
       sodipodi:rx="5.1731906"
       sodipodi:ry="5.1371303"
       d="M 42.609021,8.6731572 A 5.1731906,5.1371303 0 0 1 40.80104,15.688527 5.1731906,5.1371303 0 0 1 33.724878,13.938566 5.1731906,5.1371303 0 0 1 35.441312,6.9005565 5.1731906,5.1371303 0 0 1 42.53968,8.5594627"
       sodipodi:start="5.7515649"
       sodipodi:end="5.7256897"
       sodipodi:open="true"
       inkscape:transform-center-x="167.74112"
       inkscape:transform-center-y="-40.420231" />
    <path
       sodipodi:type="arc"
       style="fill:#ff6600;fill-opacity:1;fill-rule:nonzero;stroke:#000000;stroke-width:1.87025416;stroke-linecap:round;stroke-linejoin:round;stroke-miterlimit:4;stroke-dasharray:none;stroke-opacity:1"
       id="path4191-1-7"
       sodipodi:cx="28.334034"
       sodipodi:cy="9.4692659"
       sodipodi:rx="6.0682621"
       sodipodi:ry="6.0458107"
       d="M 33.564796,6.4044584 A 6.0682621,6.0458107 0 0 1 31.443995,14.66074 6.0682621,6.0458107 0 0 1 23.143507,12.601238 6.0682621,6.0458107 0 0 1 25.156921,4.3183116 6.0682621,6.0458107 0 0 1 33.483457,6.2706532"
       sodipodi:start="5.7515649"
       sodipodi:end="5.7256897"
       sodipodi:open="true"
       inkscape:transform-center-x="196.76387"
       inkscape:transform-center-y="-47.569962" />
    <path
       sodipodi:type="arc"
       style="fill:#ffff00;fill-opacity:1;fill-rule:nonzero;stroke:#000000;stroke-width:1.90427971;stroke-linecap:round;stroke-linejoin:round;stroke-miterlimit:4;stroke-dasharray:none;stroke-opacity:1"
       id="path4191-2"
       sodipodi:cx="18.212276"
       sodipodi:cy="14.250398"
       sodipodi:rx="7.0509806"
       sodipodi:ry="7.0284314"
       d="m 24.290128,10.687469 a 7.0509806,7.0284314 0 0 1 -2.464251,9.598169 7.0509806,7.0284314 0 0 1 -9.644702,-2.394231 7.0509806,7.0284314 0 0 1 2.339474,-9.6291441 7.0509806,7.0284314 0 0 1 9.674968,2.2696541"
       sodipodi:start="5.7515649"
       sodipodi:end="5.7256897"
       sodipodi:open="true"
       inkscape:transform-center-x="228.62859"
       inkscape:transform-center-y="-55.301467" />
    <path
       sodipodi:type="arc"
       style="fill:#00ff00;fill-opacity:1;fill-rule:nonzero;stroke:#000000;stroke-width:1.92754292;stroke-linecap:round;stroke-linejoin:round;stroke-miterlimit:4;stroke-dasharray:none;stroke-opacity:1"
       id="path4191-1-6"
       sodipodi:cx="13.169676"
       sodipodi:cy="24.29217"
       sodipodi:rx="8.0393333"
       sodipodi:ry="8.0165215"
       d="M 20.099475,20.228348 A 8.0393333,8.0165215 0 0 1 17.289803,31.175873 8.0393333,8.0165215 0 0 1 6.293181,28.445049 8.0393333,8.0165215 0 0 1 8.9605837,17.462195 8.0393333,8.0165215 0 0 1 19.991715,20.050927"
       sodipodi:start="5.7515649"
       sodipodi:end="5.7256897"
       sodipodi:open="true"
       inkscape:transform-center-x="260.67601"
       inkscape:transform-center-y="-63.076014" />
    <path
       sodipodi:type="arc"
       style="fill:#008000;fill-opacity:1;fill-rule:nonzero;stroke:#000000;stroke-width:1.95241332;stroke-linecap:round;stroke-linejoin:round;stroke-miterlimit:4;stroke-dasharray:none;stroke-opacity:1"
       id="path4191-1"
       sodipodi:cx="16.732843"
       sodipodi:cy="38.08551"
       sodipodi:rx="9.0272388"
       sodipodi:ry="9.0038157"
       d="M 24.514204,33.521199 A 9.0272388,9.0038157 0 0 1 21.359269,45.816992 9.0272388,9.0038157 0 0 1 9.0113374,42.749848 9.0272388,9.0038157 0 0 1 12.006521,30.414373 9.0272388,9.0038157 0 0 1 24.393203,33.321927"
       sodipodi:start="5.7515649"
       sodipodi:end="5.7256897"
       sodipodi:open="true"
       inkscape:transform-center-x="292.70894"
       inkscape:transform-center-y="-70.844286" />
    <path
       sodipodi:type="arc"
       style="fill:#008080;fill-opacity:1;fill-rule:nonzero;stroke:#000000;stroke-width:1.96905339;stroke-linecap:round;stroke-linejoin:round;stroke-miterlimit:4;stroke-dasharray:none;stroke-opacity:1"
       id="path4191-1-3"
       sodipodi:cx="30.09656"
       sodipodi:cy="47.182976"
       sodipodi:rx="10.018713"
       sodipodi:ry="9.9952669"
       d="m 38.732558,42.116067 a 10.018713,9.9952669 0 0 1 -3.501447,13.64974 10.018713,9.9952669 0 0 1 -13.704121,-3.404882 10.018713,9.9952669 0 0 1 3.324149,-13.69379 10.018713,9.9952669 0 0 1 13.747128,3.227718"
       sodipodi:start="5.7515649"
       sodipodi:end="5.7256897"
       sodipodi:open="true"
       inkscape:transform-center-x="324.85754"
       inkscape:transform-center-y="-78.645275" />
    <rect
       style="fill:none;stroke:none;stroke-width:1;stroke-linecap:round;stroke-linejoin:round;stroke-miterlimit:4;stroke-dasharray:none"
       id="rect4177"
       width="64.125"
       height="64.25"
       x="0"
       y="-0.1250001" />
    <path
       sodipodi:type="arc"
       style="fill:#000080;fill-opacity:1;fill-rule:nonzero;stroke:#000000;stroke-width:1.9850167;stroke-linecap:round;stroke-linejoin:round;stroke-miterlimit:4;stroke-dasharray:none;stroke-opacity:1"
       id="path4191-15"
       sodipodi:cx="45.631355"
       sodipodi:cy="47.455017"
       sodipodi:rx="11.010786"
       sodipodi:ry="10.987074"
       d="M 55.122507,41.885331 A 11.010786,10.987074 0 0 1 51.274341,56.889502 11.010786,10.987074 0 0 1 36.21321,53.146762 11.010786,10.987074 0 0 1 39.866522,38.094169 11.010786,10.987074 0 0 1 54.974918,41.642166"
       sodipodi:start="5.7515649"
       sodipodi:end="5.7256897"
       sodipodi:open="true"
       inkscape:transform-center-x="357.02561"
       inkscape:transform-center-y="-86.449058" />
    <g
       id="g3856"
       transform="matrix(1.880201,0,0,1.4854749,77.517952,-39.050083)">
      <path
         inkscape:connector-curvature="0"
         id="path3828"
         d="m -23.809459,52.661657 -0.134742,-7.426612 5.927764,-16.286397 3.098624,-0.716586 1.91307,2.540693 -5.927764,16.286397 z"
         style="fill:none;stroke:#ffffff;stroke-width:3.04031777;stroke-linecap:butt;stroke-linejoin:miter;stroke-miterlimit:4;stroke-dasharray:none;stroke-opacity:1" />
      <path
         inkscape:connector-curvature="0"
         id="path3026"
         d="m -18.016437,28.948648 5.011694,1.824107 -5.927764,16.286397 -4.876952,5.602505 -0.134742,-7.426612 z"
         style="fill:#00ff00;stroke:#008000;stroke-width:1.52015889px;stroke-linecap:round;stroke-linejoin:round;stroke-opacity:1" />
      <path
         inkscape:connector-curvature="0"
         id="path3032"
         d="m -23.809459,52.661657 -0.134742,-7.426612 3.098624,-0.716586 1.91307,2.540693 z"
         style="fill:none;stroke:#000000;stroke-width:1.52015889px;stroke-linecap:round;stroke-linejoin:round;stroke-opacity:1" />
      <path
         inkscape:connector-curvature="0"
         id="path3034"
         d="m -15.51059,29.860701 -5.334987,14.657758"
         style="fill:none;stroke:#008000;stroke-width:1.52015889px;stroke-linecap:butt;stroke-linejoin:miter;stroke-opacity:1" />
      <path
         inkscape:connector-curvature="0"
         id="path3036"
         d="m -18.016437,28.948648 3.098624,-0.716586 1.91307,2.540693 z"
         style="fill:none;stroke:#008000;stroke-width:1.52015889px;stroke-linecap:round;stroke-linejoin:round;stroke-opacity:1" />
    </g>
  </g>
</svg>
