<?xml version="1.0" encoding="UTF-8" standalone="no"?>
<!-- Created with Inkscape (http://www.inkscape.org/) -->

<svg
   xmlns:dc="http://purl.org/dc/elements/1.1/"
   xmlns:cc="http://creativecommons.org/ns#"
   xmlns:rdf="http://www.w3.org/1999/02/22-rdf-syntax-ns#"
   xmlns:svg="http://www.w3.org/2000/svg"
   xmlns="http://www.w3.org/2000/svg"
   xmlns:sodipodi="http://sodipodi.sourceforge.net/DTD/sodipodi-0.dtd"
   xmlns:inkscape="http://www.inkscape.org/namespaces/inkscape"
   width="64px"
   height="64px"
   id="svg3020"
   version="1.1"
   inkscape:version="0.48.4 r9939"
   sodipodi:docname="Neues Dokument 1">
  <defs
     id="defs3022" />
  <sodipodi:namedview
     id="base"
     pagecolor="#ffffff"
     bordercolor="#666666"
     borderopacity="1.0"
     inkscape:pageopacity="0.0"
     inkscape:pageshadow="2"
     inkscape:zoom="5.5"
     inkscape:cx="8.3636364"
     inkscape:cy="32"
     inkscape:current-layer="layer1"
     showgrid="true"
     inkscape:document-units="px"
     inkscape:grid-bbox="true"
     inkscape:window-width="1920"
     inkscape:window-height="1014"
     inkscape:window-x="-1"
     inkscape:window-y="-15"
     inkscape:window-maximized="1" />
  <metadata
     id="metadata3025">
    <rdf:RDF>
      <cc:Work
         rdf:about="">
        <dc:format>image/svg+xml</dc:format>
        <dc:type
           rdf:resource="http://purl.org/dc/dcmitype/StillImage" />
        <dc:title></dc:title>
      </cc:Work>
    </rdf:RDF>
  </metadata>
  <g
     id="layer1"
     inkscape:label="Layer 1"
     inkscape:groupmode="layer">
    <g
       id="g3089">
      <path
         inkscape:connector-curvature="0"
         d="m 12.578659,31.869715 c 5.995718,9.867863 18.720945,12.923577 28.422579,6.82512 2.822568,-1.774263 5.18323,-4.214229 6.882092,-7.113257 M 12.843943,31.039361 c 5.995719,-9.867863 18.720945,-12.923577 28.422579,-6.82512 2.822568,1.774263 5.18323,4.214228 6.882092,7.113257"
         style="fill:#ffffff;stroke:#ffffff;stroke-width:4.43720007;stroke-linecap:round;stroke-linejoin:round;stroke-miterlimit:4;stroke-opacity:1;stroke-dasharray:none"
         id="path4129-7-3-9" />
      <rect
         style="fill:none;stroke:#000080;stroke-width:0;stroke-linecap:round;stroke-linejoin:round;stroke-miterlimit:4;stroke-opacity:1;stroke-dasharray:none"
         id="rect4156-1"
         width="37.47588"
         height="40"
         x="11.625697"
         y="11.454543" />
      <path
         inkscape:connector-curvature="0"
         d="m 12.578658,31.869715 c 5.995718,9.867863 18.720946,12.923577 28.42258,6.82512 2.822568,-1.774263 5.18323,-4.214229 6.882092,-7.113257 M 12.843942,31.039361 c 5.995719,-9.867863 18.720946,-12.923577 28.42258,-6.82512 2.822568,1.774263 5.18323,4.214228 6.882092,7.113257"
         style="fill:#ffffff;stroke:#000080;stroke-width:2.03560519;stroke-linecap:round;stroke-linejoin:round;stroke-miterlimit:4;stroke-opacity:1"
         id="path4129-7-3" />
      <path
         transform="matrix(0.89711754,0,0,0.95224119,-306.05544,0.63780763)"
         sodipodi:type="arc"
         style="fill:#000080;stroke:#000080;stroke-width:2;stroke-linecap:round;stroke-linejoin:round;stroke-miterlimit:4;stroke-opacity:1;stroke-dasharray:none"
         id="path4149-5"
         sodipodi:cx="375"
         sodipodi:cy="32.362183"
         sodipodi:rx="5"
         sodipodi:ry="5"
         d="m 379.43534,30.05399 a 5,5 0 1 1 -0.14041,-0.251804"
         sodipodi:start="5.8033439"
         sodipodi:end="12.02886"
         sodipodi:open="true" />
      <path
         inkscape:connector-curvature="0"
         id="path6034"
         d="m 40.552942,31.737455 -1.078709,0.03533 -0.318307,1.183727 0,0.14134 0.159153,1.007051 -1.503118,0.371019 -0.335991,-0.971716 -0.05303,-0.106005 -0.848819,-0.901046 -0.954922,0.459356 0.176838,1.23673 0.07074,0.106005 0.530511,0.865711 -1.220178,0.954048 -0.689666,-0.742037 -0.106131,-0.08834 -1.149444,-0.477024 -0.689665,0.812708 0.689665,1.060053 0.08841,0.07067 0.84882,0.565362 -0.725034,1.342737 -0.937237,-0.371018 -0.123787,-0.03534 -1.220178,0.03534 -0.318308,1.024718 1.043341,0.671368 0.123787,0.03533 1.007972,0.176675 -0.123786,1.519411 -1.007973,0.03533 -0.123786,0.01764 -1.114075,0.530027 0.14147,1.060054 1.220178,0.194344 0.14147,0 0.972605,-0.265014 0.530512,1.44874 -0.919555,0.441689 -0.106101,0.07067 -0.813453,0.936381 0.56588,0.901045 1.18481,-0.300348 0.123787,-0.07067 0.795768,-0.636032 1.061025,1.095389 -0.654299,0.777373 -0.07074,0.123673 -0.353675,1.183726 0.884187,0.58303 0.972606,-0.759705 0.07074,-0.123673 0.459777,-0.883378 1.432384,0.565362 -0.28294,0.989383 -0.03537,0.123674 0.159153,1.219061 1.061025,0.194343 0.56588,-1.095389 0.01766,-0.14134 0.07074,-1.007051 1.520801,-0.07067 0.159154,1.024719 0.01766,0.123673 0.654299,1.060054 1.025657,-0.265014 0.07074,-1.219061 -0.01766,-0.141341 -0.371359,-0.954048 1.397016,-0.671367 0.530512,0.86571 0.08841,0.08834 1.007974,0.72437 0.831136,-0.6537 -0.42441,-1.166059 -0.08841,-0.106006 -0.70735,-0.72437 0.99029,-1.183726 0.831136,0.565362 0.123786,0.07067 1.220173,0.229678 0.49515,-0.936381 -0.866503,-0.883378 -0.123786,-0.07067 -0.937239,-0.371019 0.42441,-1.466408 0.990288,0.159008 0.14148,0.01764 1.20249,-0.282681 0.053,-1.077722 -1.13176,-0.424021 -0.12378,-0.01764 -1.025664,0.03533 -0.212205,-1.51941 0.99029,-0.247346 0.123789,-0.03533 0.99029,-0.759705 -0.37136,-0.989384 -1.237864,0.05297 -0.123786,0.05297 -0.901871,0.441689 -0.831136,-1.307402 0.813453,-0.618365 0.08841,-0.106006 0.601248,-1.060053 -0.742717,-0.777373 -1.114076,0.547694 -0.08841,0.106006 -0.654299,0.777372 -1.27323,-0.86571 0.477461,-0.901046 0.05303,-0.123673 0.106101,-1.219062 -0.990289,-0.406354 -0.795768,0.954049 -0.03537,0.14134 -0.265256,0.971716 -1.520802,-0.282681 0.07074,-1.007051 -0.01766,-0.141341 -0.389042,-1.148391 z m 0.08841,4.452226 c 1.182118,0.04444 2.356579,0.479738 3.306861,1.3074 l 0.07074,0.07067 c 0.413584,0.374476 0.743656,0.797423 1.007973,1.2544 l -2.794031,1.024718 c -0.455668,-0.529405 -1.107539,-0.845493 -1.786057,-0.86571 l -0.99029,-2.70314 c 0.388392,-0.07168 0.790778,-0.103156 1.184811,-0.08834 z m -2.847083,0.706702 0.99029,2.685473 c -0.542209,0.46466 -0.85733,1.141262 -0.866504,1.837427 l -2.758664,1.007051 c -0.272352,-1.56049 0.153337,-3.240899 1.326281,-4.505229 0.3852,-0.415216 0.83963,-0.757486 1.308597,-1.024722 z m 7.833899,3.604186 c 0.278011,1.55932 -0.133072,3.238128 -1.308597,4.505229 -0.38855,0.41882 -0.83512,0.756861 -1.308597,1.024719 l -1.007973,-2.75614 c 0.499383,-0.450074 0.807459,-1.092715 0.831136,-1.749089 l 2.794036,-1.024719 z m -5.322807,0.194343 c 0.287943,-0.02448 0.578289,0.119235 0.725034,0.388687 l 0,0.01764 c 0.191346,0.367893 0.0494,0.815592 -0.318308,1.007051 -0.367686,0.191455 -0.816626,0.04987 -1.007973,-0.318016 -0.191347,-0.367898 -0.0494,-0.815597 0.318307,-1.007051 0.09069,-0.04721 0.186961,-0.08019 0.28294,-0.08834 z m -1.768375,2.385122 c 0.462913,0.517441 1.125309,0.803764 1.803743,0.812708 l 1.007973,2.738472 c -1.589084,0.298387 -3.287391,-0.09998 -4.562404,-1.254397 -0.41685,-0.377424 -0.760853,-0.810107 -1.025657,-1.272064 l 2.776348,-1.024719 z"
         style="fill:#b3b3b3;stroke:#000000;stroke-width:0.5656209;stroke-miterlimit:4;stroke-opacity:1;stroke-dasharray:none" />
    </g>
  </g>
</svg>
