<?xml version="1.0" encoding="UTF-8" standalone="no"?>
<!-- Created with Inkscape (http://www.inkscape.org/) -->

<svg
   xmlns:dc="http://purl.org/dc/elements/1.1/"
   xmlns:cc="http://creativecommons.org/ns#"
   xmlns:rdf="http://www.w3.org/1999/02/22-rdf-syntax-ns#"
   xmlns:svg="http://www.w3.org/2000/svg"
   xmlns="http://www.w3.org/2000/svg"
   xmlns:sodipodi="http://sodipodi.sourceforge.net/DTD/sodipodi-0.dtd"
   xmlns:inkscape="http://www.inkscape.org/namespaces/inkscape"
   width="64px"
   height="64px"
   id="svg3376"
   version="1.1"
   inkscape:version="0.48.4 r9939"
   sodipodi:docname="Neues Dokument 2">
  <defs
     id="defs3378" />
  <sodipodi:namedview
     id="base"
     pagecolor="#ffffff"
     bordercolor="#666666"
     borderopacity="1.0"
     inkscape:pageopacity="0.0"
     inkscape:pageshadow="2"
     inkscape:zoom="5.5"
     inkscape:cx="-12.727273"
     inkscape:cy="32"
     inkscape:current-layer="layer1"
     showgrid="true"
     inkscape:document-units="px"
     inkscape:grid-bbox="true"
     inkscape:window-width="1920"
     inkscape:window-height="996"
     inkscape:window-x="-2"
     inkscape:window-y="-3"
     inkscape:window-maximized="1" />
  <metadata
     id="metadata3381">
    <rdf:RDF>
      <cc:Work
         rdf:about="">
        <dc:format>image/svg+xml</dc:format>
        <dc:type
           rdf:resource="http://purl.org/dc/dcmitype/StillImage" />
        <dc:title></dc:title>
      </cc:Work>
    </rdf:RDF>
  </metadata>
  <g
     id="layer1"
     inkscape:label="Layer 1"
     inkscape:groupmode="layer">
    <g
       id="g6456"
       transform="translate(-400.67421,-84.079419)"
       inkscape:export-filename="/home/oeichler/Code/android/QLandkarteM/QLandkarteM/icons/32x32/tripcomputer.png"
       inkscape:export-xdpi="82.285713"
       inkscape:export-ydpi="82.285713">
      <rect
         y="95.48851"
         x="412.62875"
         height="35"
         width="35"
         id="rect6452"
         style="fill:none;stroke:none" />
      <g
         transform="matrix(0.75505834,0,0,0.74601516,60.127617,30.809648)"
         id="g6441">
        <g
           id="g6433">
          <path
             inkscape:connector-curvature="0"
             id="path6381"
             d="m 490.01085,93.291991 c -2.96115,0.0029 -5.95261,0.700424 -8.75,2.15625 -9.32986,4.855459 -12.98035,16.357359 -8.125,25.687479 4.85535,9.33012 16.35764,12.94923 25.6875,8.09375 9.32986,-4.85548 12.9491,-16.35738 8.09375,-25.6875 l -0.53125,-0.9375 c -3.55212,-5.959566 -9.86047,-9.318767 -16.375,-9.312479 z m 0,4.78125 c 4.8859,-0.0047 9.61716,2.499039 12.28125,6.968729 l 0.40625,0.71875 c 3.64151,6.99759 0.9349,15.60839 -6.0625,19.25 -6.9974,3.64161 -15.63974,0.93509 -19.28125,-6.0625 -3.64151,-6.99759 -0.90365,-15.63964 6.09375,-19.281241 2.09804,-1.091857 4.34164,-1.591594 6.5625,-1.593738 z"
             style="fill:#000080;fill-opacity:1;stroke:#000000;stroke-width:1.90441298;stroke-linecap:round;stroke-linejoin:round;stroke-miterlimit:4;stroke-opacity:1;stroke-dasharray:none;stroke-dashoffset:0" />
          <g
             id="g6427">
            <g
               id="g6418"
               transform="translate(-1.0205058,-1.0615171)">
              <path
                 inkscape:connector-curvature="0"
                 id="path6404"
                 d="m 490.93972,103.02317 0,11.1925"
                 style="fill:#000080;stroke:#000080;stroke-width:2.96420193;stroke-linecap:round;stroke-linejoin:miter;stroke-miterlimit:4;stroke-opacity:1;stroke-dasharray:none;stroke-dashoffset:0" />
              <path
                 inkscape:connector-curvature="0"
                 id="path6406"
                 d="m 498.55553,106.75401 -7.61581,7.46166"
                 style="fill:#000080;stroke:#000080;stroke-width:2.96420193;stroke-linecap:round;stroke-linejoin:miter;stroke-miterlimit:4;stroke-opacity:1;stroke-dasharray:none;stroke-dashoffset:0" />
              <path
                 transform="matrix(0.57111003,0,0,0.55956543,198.69517,29.405716)"
                 sodipodi:open="true"
                 sodipodi:end="12.02886"
                 sodipodi:start="5.8033439"
                 d="m 514.71767,148.70809 c 0.63739,1.22478 0.16121,2.73437 -1.06357,3.37176 -1.22479,0.63739 -2.73438,0.16121 -3.37177,-1.06357 -0.63739,-1.22479 -0.16121,-2.73438 1.06357,-3.37177 1.17514,-0.61155 2.6233,-0.20026 3.30156,0.93767"
                 sodipodi:ry="2.5"
                 sodipodi:rx="2.5"
                 sodipodi:cy="149.86218"
                 sodipodi:cx="512.5"
                 id="path6408"
                 style="fill:#000080;fill-opacity:1;stroke:#000080;stroke-width:5.24351454;stroke-linecap:round;stroke-linejoin:round;stroke-miterlimit:4;stroke-opacity:1;stroke-dasharray:none;stroke-dashoffset:0"
                 sodipodi:type="arc" />
            </g>
          </g>
        </g>
        <path
           sodipodi:type="arc"
           style="fill:#ffffff;fill-opacity:1;stroke:#000000;stroke-width:1.43510604;stroke-linecap:round;stroke-linejoin:round;stroke-miterlimit:4;stroke-opacity:1;stroke-dasharray:none;stroke-dashoffset:0"
           id="path6423"
           sodipodi:cx="440"
           sodipodi:cy="127.36218"
           sodipodi:rx="5"
           sodipodi:ry="5"
           d="m 444.43534,125.05399 c 1.27478,2.44957 0.32242,5.46875 -2.12715,6.74353 -2.44957,1.27478 -5.46875,0.32243 -6.74353,-2.12714 -1.27478,-2.44958 -0.32242,-5.46876 2.12715,-6.74354 2.35027,-1.2231 5.24659,-0.40052 6.60312,1.87535"
           sodipodi:start="5.8033439"
           sodipodi:end="12.02886"
           sodipodi:open="true"
           transform="matrix(0.93012713,0,0,0.5220231,80.773929,23.326855)" />
        <path
           style="fill:none;stroke:#000000;stroke-width:2.49030304;stroke-linecap:round;stroke-linejoin:miter;stroke-miterlimit:4;stroke-opacity:1;stroke-dasharray:none"
           d="m 476.24851,132.36218 27.56271,0"
           id="path6425"
           inkscape:connector-curvature="0" />
      </g>
    </g>
    <g
       id="g4237"
       transform="translate(-3.9434828,-6.5909089)">
      <path
         inkscape:connector-curvature="0"
         id="path6034-2-1"
         d="m 43.630149,33.353354 -1.3484,0.0443 -0.3979,1.47966 0,0.17668 0.19895,1.25882 -1.87892,0.46378 -0.41998,-1.21464 -0.0662,-0.1325 -1.06103,-1.12632 -1.19366,0.5742 0.22103,1.54592 0.0885,0.1325 0.66313,1.08215 -1.52523,1.19258 -0.86209,-0.92755 -0.13266,-0.11049 -1.43681,-0.59626 -0.86211,1.01589 0.86211,1.32507 0.11046,0.0882 1.06104,0.70671 -0.90629,1.67844 -1.17158,-0.46378 -0.15468,-0.0442 -1.52524,0.0442 -0.39789,1.2809 1.3042,0.83924 0.15469,0.0442 1.25998,0.22085 -0.1547,1.89929 -1.25995,0.0443 -0.15469,0.022 -1.39263,0.66253 0.17687,1.32507 1.52523,0.24295 0.17683,0 1.21576,-0.33127 0.66317,1.81094 -1.14947,0.55211 -0.13265,0.0882 -1.01683,1.17048 0.70735,1.12632 1.48103,-0.37544 0.15469,-0.0882 0.99472,-0.79504 1.32628,1.36925 -0.81786,0.97173 -0.0884,0.15453 -0.4421,1.47968 1.10524,0.72879 1.21577,-0.94964 0.0884,-0.15453 0.57475,-1.10423 1.79048,0.70669 -0.35369,1.23674 -0.0442,0.15454 0.19895,1.52385 1.32627,0.24294 0.70737,-1.36927 0.022,-0.17668 0.0884,-1.25881 1.90102,-0.0882 0.19893,1.28091 0.022,0.15454 0.81787,1.32507 1.28209,-0.33127 0.0884,-1.52384 -0.022,-0.17668 -0.4642,-1.19256 1.74626,-0.83923 0.66316,1.08215 0.11046,0.11047 1.25999,0.90548 1.03892,-0.81714 -0.53052,-1.45759 -0.11047,-0.1325 -0.88419,-0.90548 1.23786,-1.47967 1.03894,0.70671 0.15469,0.0882 1.52525,0.28711 0.61892,-1.17049 -1.08313,-1.10422 -0.15469,-0.0882 -1.17155,-0.46376 0.5305,-1.83305 1.23787,0.19877 0.17683,0.0221 1.50314,-0.35335 0.0662,-1.34718 -1.41472,-0.53003 -0.15468,-0.022 -1.28208,0.0443 -0.26526,-1.89929 1.23787,-0.3092 0.1547,-0.0442 1.23787,-0.94964 -0.46421,-1.23674 -1.54734,0.0662 -0.15469,0.0662 -1.12735,0.55212 -1.03892,-1.63427 1.01682,-0.77297 0.11047,-0.1325 0.75157,-1.32508 -0.92841,-0.97171 -1.39259,0.6846 -0.11047,0.1325 -0.81788,0.97174 -1.59155,-1.08215 0.59682,-1.12633 0.0663,-0.15454 0.13267,-1.52384 -1.23788,-0.50794 -0.99471,1.19258 -0.0442,0.17668 -0.33159,1.21464 -1.90101,-0.35334 0.0884,-1.25883 -0.022,-0.17668 -0.48632,-1.43552 z m 0.11046,5.56534 c 1.47765,0.0556 2.94575,0.59967 4.13362,1.63426 l 0.0884,0.0883 c 0.51697,0.46811 0.92957,0.9968 1.25996,1.56802 l -3.49256,1.28093 c -0.5696,-0.66178 -1.38445,-1.05689 -2.23258,-1.08217 l -1.23789,-3.37895 c 0.48551,-0.0895 0.98847,-0.12892 1.48104,-0.11048 z m -3.55887,0.88338 1.23786,3.35687 c -0.67777,0.58085 -1.07167,1.4266 -1.08314,2.29681 l -3.44836,1.25884 c -0.34044,-1.95065 0.19167,-4.05116 1.65786,-5.6316 0.48151,-0.51902 1.04955,-0.94687 1.63578,-1.28092 z m 9.79245,4.50527 c 0.34751,1.94919 -0.16635,4.04773 -1.63577,5.63161 -0.48568,0.52352 -1.0439,0.94608 -1.63575,1.2809 l -1.25998,-3.4452 c 0.62422,-0.56261 1.00932,-1.36591 1.03893,-2.18638 l 3.49257,-1.28093 z m -6.65359,0.24295 c 0.35994,-0.0306 0.72289,0.14906 0.90632,0.48586 l 0,0.0221 c 0.23918,0.45987 0.0618,1.01951 -0.39788,1.25883 -0.45962,0.23932 -1.02079,0.0623 -1.26,-0.39753 -0.23918,-0.45986 -0.0616,-1.01951 0.3979,-1.25883 0.11329,-0.059 0.2337,-0.10015 0.35366,-0.11047 z m -2.21047,2.98142 c 0.57866,0.64682 1.40664,1.00472 2.2547,1.01591 l 1.25998,3.42312 c -1.98638,0.37299 -4.10929,-0.125 -5.70305,-1.56802 -0.52107,-0.47178 -0.9511,-1.01264 -1.2821,-1.5901 l 3.47047,-1.28091 z"
         style="fill:#808080;stroke:#000000;stroke-width:0.70703268;stroke-miterlimit:4;stroke-opacity:1;stroke-dasharray:none" />
      <rect
         y="18"
         x="15.898026"
         height="40"
         width="40"
         id="rect3467"
         style="fill:none;stroke:none" />
    </g>
  </g>
</svg>
