<?xml version="1.0" encoding="UTF-8" standalone="no"?>
<!-- Created with Inkscape (http://www.inkscape.org/) -->

<svg
   xmlns:dc="http://purl.org/dc/elements/1.1/"
   xmlns:cc="http://creativecommons.org/ns#"
   xmlns:rdf="http://www.w3.org/1999/02/22-rdf-syntax-ns#"
   xmlns:svg="http://www.w3.org/2000/svg"
   xmlns="http://www.w3.org/2000/svg"
   xmlns:sodipodi="http://sodipodi.sourceforge.net/DTD/sodipodi-0.dtd"
   xmlns:inkscape="http://www.inkscape.org/namespaces/inkscape"
   width="64px"
   height="64px"
   id="svg3020"
   version="1.1"
   inkscape:version="0.91 r13725"
   sodipodi:docname="ToolBarSetup.svg"
   inkscape:export-filename="/home/norbert/Development/QMapShack/QMapShack_touch/src/icons/48x48/ToolBarSetup.png"
   inkscape:export-xdpi="67.5"
   inkscape:export-ydpi="67.5">
  <defs
     id="defs3022" />
  <sodipodi:namedview
     id="base"
     pagecolor="#ffffff"
     bordercolor="#666666"
     borderopacity="1.0"
     inkscape:pageopacity="0.0"
     inkscape:pageshadow="2"
     inkscape:zoom="4.2079788"
     inkscape:cx="-83.960856"
     inkscape:cy="-0.49180468"
     inkscape:current-layer="layer1"
     showgrid="true"
     inkscape:document-units="px"
     inkscape:grid-bbox="true"
     inkscape:window-width="1366"
     inkscape:window-height="744"
     inkscape:window-x="0"
     inkscape:window-y="24"
     inkscape:window-maximized="1"
     showguides="true"
     inkscape:guide-bbox="true">
    <sodipodi:guide
       position="-47.636364,-6.1818182"
       orientation="0,1"
       id="guide3378" />
  </sodipodi:namedview>
  <metadata
     id="metadata3025">
    <rdf:RDF>
      <cc:Work
         rdf:about="">
        <dc:format>image/svg+xml</dc:format>
        <dc:type
           rdf:resource="http://purl.org/dc/dcmitype/StillImage" />
        <dc:title />
      </cc:Work>
    </rdf:RDF>
  </metadata>
  <g
     id="layer1"
     inkscape:label="Layer 1"
     inkscape:groupmode="layer">
    <rect
       y="-52.745033"
       x="-51.45879"
       height="27.539677"
       width="25.80184"
       id="rect4156-1"
       style="fill:none;stroke:#000080;stroke-width:0;stroke-linecap:round;stroke-linejoin:round;stroke-miterlimit:4;stroke-dasharray:none;stroke-opacity:1"
       transform="scale(-1,-1)" />
    <rect
       style="fill:#0000ff;fill-rule:evenodd;stroke:#000000;stroke-width:1.11963093;stroke-linecap:butt;stroke-linejoin:miter;stroke-opacity:1"
       id="rect3376"
       width="14.149452"
       height="15.008654"
       x="-57.967514"
       y="-21.629807"
       transform="scale(-1,-1)" />
    <rect
       style="fill:#0000ff;fill-rule:evenodd;stroke:#000000;stroke-width:1.11963093;stroke-linecap:butt;stroke-linejoin:miter;stroke-opacity:1"
       id="rect3376-6"
       width="14.149452"
       height="15.008654"
       x="-43.764492"
       y="-21.648991"
       transform="scale(-1,-1)" />
    <rect
       style="fill:#0000ff;fill-rule:evenodd;stroke:#000000;stroke-width:1.11963093;stroke-linecap:butt;stroke-linejoin:miter;stroke-opacity:1"
       id="rect3376-6-2"
       width="14.149452"
       height="15.008654"
       x="-29.611471"
       y="-21.62529"
       transform="scale(-1,-1)" />
    <rect
       style="fill:#0000ff;fill-rule:evenodd;stroke:#000000;stroke-width:1.11963093;stroke-linecap:butt;stroke-linejoin:miter;stroke-opacity:1"
       id="rect3376-6-9"
       width="14.149452"
       height="15.008654"
       x="-15.409525"
       y="-21.611561"
       transform="scale(-1,-1)" />
    <path
       style="fill:#00ffff;stroke-width:1"
       d="m 14.835522,14.111363 0,6.917858 -6.5048517,0 -6.504853,0 0,-6.917858 0,-6.9178593 6.504853,0 6.5048517,0 0,6.9178593 z"
       id="path4216"
       inkscape:connector-curvature="0" />
    <path
       style="fill:#ff0000;stroke-width:1"
       d="m 29.042946,14.111363 0,6.917858 -6.504852,0 -6.504852,0 0,-6.917858 0,-6.9178593 6.504852,0 6.504852,0 0,6.9178593 z"
       id="path4218"
       inkscape:connector-curvature="0" />
    <path
       style="fill:#ffff00;stroke-width:1"
       d="m 57.377636,14.132012 0,6.93851 -6.484203,0 -6.484201,0 0,-6.93851 0,-6.9385083 6.484201,0 6.484203,0 0,6.9385083 z"
       id="path4220"
       inkscape:connector-curvature="0" />
    <path
       style="fill:#666666;stroke:#000000;stroke-width:1.39968503;stroke-miterlimit:4;stroke-dasharray:none;stroke-opacity:1"
       d="m 37.536002,60.600283 2.66938,-0.08745 0.787693,-2.929242 0,-0.349762 -0.393858,-2.492038 3.71963,-0.918121 0.83144,2.404601 0.131157,0.262317 2.100494,2.229723 2.363049,-1.136719 -0.437586,-3.060404 -0.174949,-0.262318 -1.312826,-2.142283 3.019464,-2.360881 1.706658,1.836241 0.262632,0.218603 2.844423,1.180441 1.706647,-2.011125 -1.706647,-2.623198 -0.218783,-0.174878 -2.100492,-1.399042 1.794173,-3.322725 2.31929,0.918117 0.306325,0.08747 3.019458,-0.08747 0.787688,-2.53576 -2.581858,-1.661363 -0.306326,-0.08746 -2.49433,-0.437199 0.306321,-3.759924 2.494335,-0.08746 0.306321,-0.04365 2.756897,-1.311601 -0.350083,-2.623201 -3.019461,-0.480921 -0.350082,0 -2.406813,0.655801 -1.312806,-3.585043 2.275534,-1.093 0.262559,-0.174875 2.012974,-2.317163 -1.400328,-2.229719 -2.93194,0.743239 -0.30632,0.174877 -1.969213,1.57392 -2.625623,-2.710647 1.619132,-1.923677 0.174949,-0.306041 0.875211,-2.929239 -2.188011,-1.442764 -2.406828,1.87996 -0.174949,0.30604 -1.137749,2.186003 -3.544603,-1.399043 0.700167,-2.448318 0.0876,-0.306042 -0.393832,-3.016682 -2.625631,-0.48092 -1.400329,2.710642 -0.0438,0.34976 -0.174948,2.49204 -3.76338,0.174877 -0.393835,-2.535762 -0.0438,-0.306042 -1.619136,-2.623203 -2.538104,0.655801 -0.174949,3.016683 0.04379,0.34976 0.918967,2.360881 -3.457047,1.661359 -1.312827,-2.142281 -0.218757,-0.218599 -2.494327,-1.792522 -2.056745,1.617644 1.050249,2.88552 0.218753,0.262322 1.750415,1.792519 -2.450578,2.929243 -2.056719,-1.399044 -0.306332,-0.174877 -3.019438,-0.56836 -1.225301,2.317162 2.144247,2.186005 0.30633,0.174877 2.319298,0.918119 -1.050245,3.628761 -2.450576,-0.393477 -0.35011,-0.04365 -2.975688,0.699521 -0.131155,2.66692 2.80066,1.04928 0.306307,0.04365 2.538104,-0.08745 0.525136,3.759923 -2.450577,0.612078 -0.306331,0.08746 -2.450578,1.879961 0.91897,2.448324 3.063216,-0.131066 0.30633,-0.131066 2.231774,-1.092997 2.056742,3.235285 -2.012992,1.530202 -0.218756,0.262322 -1.487856,2.6232 1.837939,1.923684 2.756907,-1.355319 0.218756,-0.262326 1.619132,-1.923678 3.150741,2.14228 -1.181523,2.229722 -0.131155,0.306039 -0.262582,3.016681 2.450577,1.005563 1.969217,-2.360884 0.0876,-0.34976 0.656413,-2.404599 3.76338,0.69952 -0.174948,2.492041 0.04379,0.349763 0.962721,2.8418 z M 37.317246,49.582836 C 34.391966,49.472874 31.48564,48.395681 29.134072,46.347554 L 28.959123,46.172678 C 27.935677,45.246004 27.118859,44.199381 26.464795,43.06855 l 6.914122,-2.53576 c 1.127605,1.310051 2.740725,2.092239 4.419769,2.14227 l 2.450576,6.689171 c -0.961111,0.177375 -1.956843,0.255269 -2.931935,0.218599 z m 7.045399,-1.7488 -2.450577,-6.645453 c 1.341757,-1.149843 2.121553,-2.824158 2.14427,-4.546883 l 6.826595,-2.492041 c 0.673959,3.861579 -0.379455,8.019906 -3.282018,11.148608 -0.95322,1.02749 -2.077756,1.874471 -3.23827,2.535769 z m -19.38581,-8.918892 c -0.687966,-3.858684 0.329322,-8.013048 3.238269,-11.148609 0.961508,-1.036408 2.06659,-1.872924 3.238269,-2.535762 l 2.494325,6.820324 c -1.235767,1.11375 -1.998141,2.704025 -2.056716,4.328286 l -6.914147,2.535761 z m 13.171854,-0.480921 c -0.712539,0.06059 -1.43104,-0.295058 -1.794164,-0.961843 l 0,-0.04364 c -0.473515,-0.910382 -0.122235,-2.018256 0.787692,-2.492039 0.909864,-0.473775 2.020812,-0.123391 2.494327,0.786959 0.473516,0.910398 0.122235,2.018272 -0.787691,2.492041 -0.224447,0.116816 -0.462652,0.198441 -0.700164,0.218604 z m 4.37604,-5.902205 c -1.145544,-1.280458 -2.784696,-1.98899 -4.463566,-2.01112 l -2.494329,-6.776607 c 3.932348,-0.738386 8.134992,0.247407 11.290138,3.104123 1.031542,0.933971 1.882828,2.004686 2.538104,3.147841 l -6.87037,2.535763 z"
       id="path6034"
       inkscape:connector-curvature="0" />
  </g>
</svg>
