<?xml version="1.0" encoding="UTF-8" standalone="no"?>
<svg
   viewBox="0 0 28.771999 28.771999"
   id="waypoint_waypoint"
   version="1.1"
   width="28.771999"
   height="28.771999"
   xmlns="http://www.w3.org/2000/svg"
   xmlns:svg="http://www.w3.org/2000/svg">
  <style
     id="current-color-scheme">.paper{color:#ffffff}.lead{color:#000000}</style>
  <defs
     id="defs12" />
  <path
     id="marker_gc"
     style="fill:currentColor;stroke:#383838;stroke-width:0.75"
     d="M 28.397,14.385999 A 14.011,14.011 0 0 1 14.386,28.396999 14.011,14.011 0 0 1 0.375,14.385999 14.011,14.011 0 0 1 14.386,0.375 14.011,14.011 0 0 1 28.397,14.385999 Z"
     class="paper" />
  <g
     transform="translate(2.6170006,2.3850002)"
     id="g7">
    <path
       id="circle3"
       style="fill:currentColor;fill-opacity:0;stroke:#c62828;stroke-width:1.75"
       d="M 19.75,12 A 7.75,7.75 0 0 1 12,19.75 7.75,7.75 0 0 1 4.25,12 7.75,7.75 0 0 1 12,4.25 7.75,7.75 0 0 1 19.75,12 Z"
       class="lead" />
    <path
       id="circle5"
       style="fill:#c62828"
       d="m 15,12 a 3,3 0 0 1 -3,3 3,3 0 0 1 -3,-3 3,3 0 0 1 3,-3 3,3 0 0 1 3,3 z" />
  </g>
</svg>
