<?xml version="1.0" encoding="UTF-8" standalone="no"?>
<!-- Created with Inkscape (http://www.inkscape.org/) -->

<svg
   xmlns:dc="http://purl.org/dc/elements/1.1/"
   xmlns:cc="http://creativecommons.org/ns#"
   xmlns:rdf="http://www.w3.org/1999/02/22-rdf-syntax-ns#"
   xmlns:svg="http://www.w3.org/2000/svg"
   xmlns="http://www.w3.org/2000/svg"
   xmlns:sodipodi="http://sodipodi.sourceforge.net/DTD/sodipodi-0.dtd"
   xmlns:inkscape="http://www.inkscape.org/namespaces/inkscape"
   width="64px"
   height="64px"
   id="svg3513"
   version="1.1"
   inkscape:version="0.91 r13725"
   sodipodi:docname="WptAvoid.svg"
   inkscape:export-filename="/home/norbert/Development/QMapShack/QMapShack_brouter/src/icons/32x32/WptAvoid.png"
   inkscape:export-xdpi="71.999756"
   inkscape:export-ydpi="71.999756">
  <defs
     id="defs3515">
    <marker
       inkscape:stockid="Arrow2Mend"
       orient="auto"
       refY="0.0"
       refX="0.0"
       id="Arrow2Mend"
       style="overflow:visible;">
      <path
         id="path3901"
         style="fill-rule:evenodd;stroke-width:0.62500000;stroke-linejoin:round;"
         d="M 8.7185878,4.0337352 L -2.2072895,0.016013256 L 8.7185884,-4.0017078 C 6.9730900,-1.6296469 6.9831476,1.6157441 8.7185878,4.0337352 z "
         transform="scale(0.6) rotate(180) translate(0,0)" />
    </marker>
    <marker
       inkscape:stockid="Arrow2Lend"
       orient="auto"
       refY="0.0"
       refX="0.0"
       id="Arrow2Lend"
       style="overflow:visible;">
      <path
         id="path3895"
         style="fill-rule:evenodd;stroke-width:0.62500000;stroke-linejoin:round;"
         d="M 8.7185878,4.0337352 L -2.2072895,0.016013256 L 8.7185884,-4.0017078 C 6.9730900,-1.6296469 6.9831476,1.6157441 8.7185878,4.0337352 z "
         transform="scale(1.1) rotate(180) translate(1,0)" />
    </marker>
    <marker
       inkscape:stockid="Arrow1Mstart"
       orient="auto"
       refY="0.0"
       refX="0.0"
       id="Arrow1Mstart"
       style="overflow:visible">
      <path
         id="path3880"
         d="M 0.0,0.0 L 5.0,-5.0 L -12.5,0.0 L 5.0,5.0 L 0.0,0.0 z "
         style="fill-rule:evenodd;stroke:#000000;stroke-width:1.0pt"
         transform="scale(0.4) translate(10,0)" />
    </marker>
    <marker
       inkscape:stockid="Arrow1Lstart"
       orient="auto"
       refY="0.0"
       refX="0.0"
       id="Arrow1Lstart"
       style="overflow:visible">
      <path
         id="path3874"
         d="M 0.0,0.0 L 5.0,-5.0 L -12.5,0.0 L 5.0,5.0 L 0.0,0.0 z "
         style="fill-rule:evenodd;stroke:#000000;stroke-width:1.0pt"
         transform="scale(0.8) translate(12.5,0)" />
    </marker>
  </defs>
  <sodipodi:namedview
     id="base"
     pagecolor="#ffffff"
     bordercolor="#666666"
     borderopacity="1.0"
     inkscape:pageopacity="0.0"
     inkscape:pageshadow="2"
     inkscape:zoom="5.5"
     inkscape:cx="28.818182"
     inkscape:cy="32"
     inkscape:current-layer="layer1"
     showgrid="true"
     inkscape:document-units="px"
     inkscape:grid-bbox="true"
     inkscape:window-width="1366"
     inkscape:window-height="744"
     inkscape:window-x="0"
     inkscape:window-y="24"
     inkscape:window-maximized="1">
    <inkscape:grid
       type="xygrid"
       id="grid3090" />
  </sodipodi:namedview>
  <metadata
     id="metadata3518">
    <rdf:RDF>
      <cc:Work
         rdf:about="">
        <dc:format>image/svg+xml</dc:format>
        <dc:type
           rdf:resource="http://purl.org/dc/dcmitype/StillImage" />
        <dc:title />
      </cc:Work>
    </rdf:RDF>
  </metadata>
  <g
     id="layer1"
     inkscape:label="Layer 1"
     inkscape:groupmode="layer">
    <g
       id="g3029">
      <g
         transform="translate(3.9999971,1.44e-6)"
         id="g3024">
        <path
           style="fill:#0000ff;stroke:#0000ff;stroke-width:0.65424097;stroke-linecap:round;stroke-linejoin:round;stroke-miterlimit:4;stroke-opacity:1;stroke-dasharray:none"
           d="M 25.452924,20.082225 37.356669,25.47591 23.964955,30.86956 25.452924,20.082225"
           id="path3763"
           inkscape:connector-curvature="0" />
        <path
           style="fill:#000000;stroke:#000000;stroke-width:0.34846967px;stroke-linecap:round;stroke-linejoin:round;stroke-opacity:1"
           d="m 22.375757,39.34786 1.695469,-19.695725 1.69547,0 z"
           id="path3761"
           inkscape:connector-curvature="0"
           sodipodi:nodetypes="cccc" />
        <rect
           style="fill:none;stroke:none"
           id="rect3769"
           width="18.790668"
           height="20"
           x="22.205851"
           y="19.500017" />
      </g>
      <path
         transform="matrix(0.93023255,0,0,0.93023256,119.97111,7.1744175)"
         sodipodi:open="true"
         sodipodi:end="6.2789689"
         sodipodi:start="0"
         d="m -75,24 a 20,20 0 1 1 -1.78e-4,-0.08433"
         sodipodi:ry="20"
         sodipodi:rx="20"
         sodipodi:cy="24"
         sodipodi:cx="-95"
         id="path3019"
         style="fill:none;stroke:#ff0000;stroke-width:3;stroke-linecap:round;stroke-linejoin:round;stroke-miterlimit:4;stroke-opacity:1;stroke-dasharray:none;stroke-dashoffset:0"
         sodipodi:type="arc" />
    </g>
    <path
       style="opacity:1;fill:#ffaaaa;fill-opacity:1;stroke:#000080;stroke-width:0.72727275;stroke-linecap:round;stroke-miterlimit:4;stroke-dasharray:none;stroke-opacity:1"
       d="m 28.607559,46.361476 c -6.54581,-1.249603 -11.68172,-5.926709 -13.528888,-12.320318 -0.492332,-1.704111 -0.673823,-5.406083 -0.360314,-7.349513 1.048644,-6.500507 5.864204,-11.833956 12.384783,-13.716706 1.692373,-0.488655 5.30862,-0.673321 7.260496,-0.370762 5.358482,0.830615 10.06364,4.344103 12.558257,9.377641 1.353334,2.730708 1.678665,4.164887 1.690998,7.454546 0.0086,2.282151 -0.05713,2.979509 -0.402446,4.272727 -1.609281,6.026802 -6.311363,10.750722 -12.306787,12.363951 -1.862351,0.501114 -5.440938,0.642585 -7.296099,0.288434 z M 27.326998,35.333689 c 0.384714,-2.241425 0.713977,-4.080291 0.731696,-4.086369 1.010545,-0.346625 13.542299,-5.444513 13.660786,-5.557175 0.109755,-0.104359 0.07618,-0.259865 -0.09091,-0.421062 -0.145715,-0.140576 -2.801298,-1.401634 -5.901298,-2.80235 -3.549507,-1.603823 -5.658129,-2.653115 -5.69515,-2.834018 -0.04478,-0.218823 -0.291296,-0.28726 -1.034724,-0.28726 -0.536766,0 -1.022316,0.07504 -1.078999,0.166755 -0.102643,0.166081 -1.736582,18.538248 -1.736582,19.526299 0,0.328951 0.08162,0.49186 0.22285,0.444784 0.137124,-0.04571 0.491925,-1.641975 0.92233,-4.149604 z"
       id="path3348"
       inkscape:connector-curvature="0" />
  </g>
</svg>
