<?xml version="1.0" encoding="UTF-8" standalone="no"?>
<!-- Created with Inkscape (http://www.inkscape.org/) -->

<svg
   xmlns:dc="http://purl.org/dc/elements/1.1/"
   xmlns:cc="http://creativecommons.org/ns#"
   xmlns:rdf="http://www.w3.org/1999/02/22-rdf-syntax-ns#"
   xmlns:svg="http://www.w3.org/2000/svg"
   xmlns="http://www.w3.org/2000/svg"
   xmlns:sodipodi="http://sodipodi.sourceforge.net/DTD/sodipodi-0.dtd"
   xmlns:inkscape="http://www.inkscape.org/namespaces/inkscape"
   width="64"
   height="64"
   id="svg2"
   version="1.1"
   inkscape:version="0.48.4 r9939"
   sodipodi:docname="Default.svg">
  <defs
     id="defs4" />
  <sodipodi:namedview
     id="base"
     pagecolor="#ffffff"
     bordercolor="#666666"
     borderopacity="1.0"
     inkscape:pageopacity="0.0"
     inkscape:pageshadow="2"
     inkscape:zoom="11.2"
     inkscape:cx="53.597935"
     inkscape:cy="30.47412"
     inkscape:document-units="px"
     inkscape:current-layer="layer1"
     showgrid="true"
     inkscape:window-width="1920"
     inkscape:window-height="1014"
     inkscape:window-x="-1"
     inkscape:window-y="-15"
     inkscape:window-maximized="1">
    <inkscape:grid
       type="xygrid"
       id="grid2985"
       empspacing="5"
       visible="true"
       enabled="true"
       snapvisiblegridlinesonly="true" />
  </sodipodi:namedview>
  <metadata
     id="metadata7">
    <rdf:RDF>
      <cc:Work
         rdf:about="">
        <dc:format>image/svg+xml</dc:format>
        <dc:type
           rdf:resource="http://purl.org/dc/dcmitype/StillImage" />
        <dc:title />
      </cc:Work>
    </rdf:RDF>
  </metadata>
  <g
     inkscape:label="Ebene 1"
     inkscape:groupmode="layer"
     id="layer1"
     transform="translate(0,-988.36215)">
    <g
       id="g3754"
       transform="translate(8.125,-10.625)">
      <path
         inkscape:connector-curvature="0"
         id="path2987"
         d="m 22.369449,1012.2695 c -2.72282,0.1063 -5.450881,0.8763 -7.961438,2.3525 -8.1223856,4.7759 -10.850415,15.2124 -6.0736736,23.3335 4.7767396,8.1211 15.2421086,10.8487 23.3644936,6.0727 8.122386,-4.776 10.823057,-15.2397 6.046315,-23.3608 l -0.109435,-0.2189 c -3.333139,-5.4715 -9.276059,-8.4128 -15.266262,-8.179 z m -0.875484,4.6503 0,10.8324 -10.834122,0 c 0.472447,-3.702 2.580482,-7.1533 6.046315,-9.1911 1.509848,-0.8878 3.146968,-1.4338 4.787807,-1.6413 z m 3.091554,0 c 3.659779,0.4523 7.073905,2.5204 9.13787,5.9086 l 0.08207,0.1641 c 0.888621,1.5108 1.408462,3.1243 1.614175,4.7597 l -10.834122,0 0,-10.8324 z m -13.925676,13.9508 10.834122,0 0,10.8324 c -3.712844,-0.4653 -7.176692,-2.5715 -9.219947,-6.0453 -0.89344,-1.519 -1.410934,-3.1426 -1.614175,-4.7871 z m 13.925676,0 10.834122,0 c -0.465484,3.7123 -2.571957,7.1756 -6.046315,9.2185 -1.519207,0.8933 -3.143111,1.4107 -4.787807,1.6139 l 0,-10.8324 z"
         style="fill:#cccccc;fill-opacity:1;fill-rule:nonzero;stroke:#000080;stroke-width:0.87541574;stroke-linecap:round;stroke-linejoin:round;stroke-miterlimit:4;stroke-opacity:1;stroke-dasharray:none" />
      <rect
         y="1009.6882"
         x="3.4126542"
         height="39.261307"
         width="39.261307"
         id="rect3752"
         style="fill:none;stroke:none" />
    </g>
  </g>
</svg>
