<?xml version="1.0" encoding="UTF-8" standalone="no"?>
<!-- Created with Inkscape (http://www.inkscape.org/) -->

<svg
   xmlns:dc="http://purl.org/dc/elements/1.1/"
   xmlns:cc="http://creativecommons.org/ns#"
   xmlns:rdf="http://www.w3.org/1999/02/22-rdf-syntax-ns#"
   xmlns:svg="http://www.w3.org/2000/svg"
   xmlns="http://www.w3.org/2000/svg"
   xmlns:sodipodi="http://sodipodi.sourceforge.net/DTD/sodipodi-0.dtd"
   xmlns:inkscape="http://www.inkscape.org/namespaces/inkscape"
   width="64"
   height="64"
   id="svg2"
   version="1.1"
   inkscape:version="0.48.4 r9939"
   sodipodi:docname="PinRed.svg">
  <defs
     id="defs4" />
  <sodipodi:namedview
     id="base"
     pagecolor="#ffffff"
     bordercolor="#666666"
     borderopacity="1.0"
     inkscape:pageopacity="0.0"
     inkscape:pageshadow="2"
     inkscape:zoom="11.2"
     inkscape:cx="7.8496064"
     inkscape:cy="26.902691"
     inkscape:document-units="px"
     inkscape:current-layer="layer1"
     showgrid="true"
     inkscape:window-width="1920"
     inkscape:window-height="1014"
     inkscape:window-x="-1"
     inkscape:window-y="-15"
     inkscape:window-maximized="1">
    <inkscape:grid
       type="xygrid"
       id="grid2985"
       empspacing="5"
       visible="true"
       enabled="true"
       snapvisiblegridlinesonly="true" />
  </sodipodi:namedview>
  <metadata
     id="metadata7">
    <rdf:RDF>
      <cc:Work
         rdf:about="">
        <dc:format>image/svg+xml</dc:format>
        <dc:type
           rdf:resource="http://purl.org/dc/dcmitype/StillImage" />
        <dc:title></dc:title>
      </cc:Work>
    </rdf:RDF>
  </metadata>
  <g
     inkscape:label="Ebene 1"
     inkscape:groupmode="layer"
     id="layer1"
     transform="translate(0,-988.36215)">
    <path
       style="fill:#cccccc;fill-opacity:1;fill-rule:nonzero;stroke:#000080;stroke-width:1;stroke-linecap:round;stroke-linejoin:round;stroke-miterlimit:4;stroke-opacity:1;stroke-dasharray:none"
       d="M 30.46875 11.875 C 27.358679 11.996414 24.242619 12.876065 21.375 14.5625 C 12.097411 20.018611 8.9813889 31.941161 14.4375 41.21875 C 19.893611 50.496339 31.847411 53.612361 41.125 48.15625 C 50.402589 42.700139 53.487361 30.746339 48.03125 21.46875 L 47.90625 21.21875 C 44.099056 14.968069 37.310907 11.607889 30.46875 11.875 z M 29.46875 17.1875 L 29.46875 29.5625 L 17.09375 29.5625 C 17.633391 25.333418 20.041241 21.390645 24 19.0625 C 25.724585 18.048272 27.594544 17.424531 29.46875 17.1875 z M 33 17.1875 C 37.18029 17.704312 41.079988 20.066891 43.4375 23.9375 L 43.53125 24.125 C 44.546254 25.850928 45.140029 27.694192 45.375 29.5625 L 33 29.5625 L 33 17.1875 z M 17.09375 33.125 L 29.46875 33.125 L 29.46875 45.5 C 25.22785 44.968319 21.271357 42.562276 18.9375 38.59375 C 17.916992 36.858463 17.325898 35.003612 17.09375 33.125 z M 33 33.125 L 45.375 33.125 C 44.843313 37.36589 42.437248 41.322377 38.46875 43.65625 C 36.733475 44.676765 34.878612 45.267847 33 45.5 L 33 33.125 z "
       transform="translate(0,988.36215)"
       id="path2987" />
  </g>
</svg>
