<?xml version="1.0" encoding="UTF-8" standalone="no"?>
<!-- Created with Inkscape (http://www.inkscape.org/) -->

<svg
   xmlns:dc="http://purl.org/dc/elements/1.1/"
   xmlns:cc="http://creativecommons.org/ns#"
   xmlns:rdf="http://www.w3.org/1999/02/22-rdf-syntax-ns#"
   xmlns:svg="http://www.w3.org/2000/svg"
   xmlns="http://www.w3.org/2000/svg"
   xmlns:sodipodi="http://sodipodi.sourceforge.net/DTD/sodipodi-0.dtd"
   xmlns:inkscape="http://www.inkscape.org/namespaces/inkscape"
   version="1.0"
   width="580"
   height="580"
   id="svg2"
   sodipodi:version="0.32"
   inkscape:version="0.48.1 r9760"
   sodipodi:docname="night_club_lesbian.svg"
   inkscape:output_extension="org.inkscape.output.svg.inkscape">
  <metadata
     id="metadata2975">
    <rdf:RDF>
      <cc:Work
         rdf:about="">
        <dc:format>image/svg+xml</dc:format>
        <dc:type
           rdf:resource="http://purl.org/dc/dcmitype/StillImage" />
        <cc:license
           rdf:resource="http://web.resource.org/cc/PublicDomain" />
        <dc:language>en</dc:language>
        <dc:title></dc:title>
      </cc:Work>
    </rdf:RDF>
  </metadata>
  <sodipodi:namedview
     inkscape:window-height="1003"
     inkscape:window-width="1920"
     inkscape:pageshadow="2"
     inkscape:pageopacity="0.0"
     guidetolerance="10.0"
     gridtolerance="10.0"
     objecttolerance="10.0"
     borderopacity="1.0"
     bordercolor="#666666"
     pagecolor="#ffffff"
     id="base"
     inkscape:zoom="0.32586207"
     inkscape:cx="1767.0583"
     inkscape:cy="13.156581"
     inkscape:window-x="0"
     inkscape:window-y="24"
     inkscape:current-layer="svg2"
     showgrid="false"
     inkscape:window-maximized="1" />
  <defs
     id="defs4">
    <inkscape:perspective
       sodipodi:type="inkscape:persp3d"
       inkscape:vp_x="0 : 290 : 1"
       inkscape:vp_y="0 : 1000 : 0"
       inkscape:vp_z="580 : 290 : 1"
       inkscape:persp3d-origin="290 : 193.33333 : 1"
       id="perspective2441" />
    <inkscape:perspective
       id="perspective3452"
       inkscape:persp3d-origin="30 : 20 : 1"
       inkscape:vp_z="60 : 30 : 1"
       inkscape:vp_y="0 : 1000 : 0"
       inkscape:vp_x="0 : 30 : 1"
       sodipodi:type="inkscape:persp3d" />
    <symbol
       viewBox="244.5 110 489 219.9"
       id="symbol-university">
      <path
         id="path4460"
         d="M79,43l57,119c0,0,21-96,104-96s124,106,124,106l43-133l82-17L0,17L79,43z" />
      <path
         id="path4462"
         d="M94,176l-21,39"
         stroke-width="20"
         stroke="#000000"
         fill="none" />
      <path
         id="path4464"
         d="M300,19c0,10.5-22.6,19-50.5,19S199,29.5,199,19s22.6-19,50.5-19S300,8.5,300,19z" />
      <path
         id="path4466"
         d="M112,216l-16-38L64,88c0,0-9-8-4-35s16-24,16-24"
         stroke-width="20"
         stroke="#000000"
         ill="none" />
    </symbol>
    <inkscape:perspective
       id="perspective4471"
       inkscape:persp3d-origin="372.04724 : 350.78739 : 1"
       inkscape:vp_z="744.09448 : 526.18109 : 1"
       inkscape:vp_y="0 : 1000 : 0"
       inkscape:vp_x="0 : 526.18109 : 1"
       sodipodi:type="inkscape:persp3d" />
    <inkscape:perspective
       id="perspective4668"
       inkscape:persp3d-origin="6 : 4 : 1"
       inkscape:vp_z="12 : 6 : 1"
       inkscape:vp_y="0 : 1000 : 0"
       inkscape:vp_x="0 : 6 : 1"
       sodipodi:type="inkscape:persp3d" />
  </defs>
  <g
     id="g1327">
    <path
       d="M 66.275,1.768 C 24.94,1.768 1.704,23.139 1.704,66.804 L 1.704,516.927 C 1.704,557.771 22.599,579.156 63.896,579.156 L 515.92,579.156 C 557.227,579.156 578.149,558.841 578.149,516.927 L 578.149,66.804 C 578.149,24.203 557.227,1.768 514.628,1.768 C 514.624,1.768 66.133,1.625 66.275,1.768 z"
       style="fill:#111111;stroke:#eeeeee;stroke-width:3.40799999"
       id="path1329" />
  </g>
  <path
     sodipodi:nodetypes="cc"
     id="path19383"
     d="m 447.45388,229.85558 -23.1008,79.54309"
     style="fill:none;stroke:#ffffff;stroke-width:81.73775482;stroke-linecap:round;stroke-linejoin:round;stroke-miterlimit:4;stroke-opacity:1;stroke-dasharray:none"
     inkscape:connector-curvature="0" />
  <path
     sodipodi:nodetypes="ccc"
     id="path19385"
     d="m 497.42412,95.162213 30.04727,64.590987 -46.42326,50.75109"
     style="fill:none;stroke:#ffffff;stroke-width:35.91173553;stroke-linecap:round;stroke-linejoin:round;stroke-miterlimit:4;stroke-opacity:1;stroke-dasharray:none"
     inkscape:connector-curvature="0" />
  <path
     sodipodi:nodetypes="cc"
     id="path19387"
     d="m 473.8954,494.5902 7.74704,-90.70195"
     style="fill:none;stroke:#ffffff;stroke-width:45.49554062;stroke-linecap:round;stroke-linejoin:round;stroke-miterlimit:4;stroke-opacity:1;stroke-dasharray:none"
     inkscape:connector-curvature="0" />
  <path
     sodipodi:nodetypes="cc"
     id="path19389"
     d="m 441.18738,322.51828 39.80337,77.46334"
     style="fill:none;stroke:#ffffff;stroke-width:49.68157196;stroke-linecap:round;stroke-linejoin:round;stroke-miterlimit:4;stroke-opacity:1;stroke-dasharray:none"
     inkscape:connector-curvature="0" />
  <path
     style="fill:none;stroke:#ffffff;stroke-width:49.68157196;stroke-linecap:round;stroke-linejoin:round;stroke-miterlimit:4;stroke-opacity:1;stroke-dasharray:none"
     d="m 405.42609,313.69546 -29.9469,83.77227"
     id="path19391"
     sodipodi:nodetypes="cc"
     inkscape:connector-curvature="0" />
  <path
     style="fill:none;stroke:#ffffff;stroke-width:49.90863419;stroke-linecap:round;stroke-linejoin:round;stroke-miterlimit:4;stroke-opacity:1;stroke-dasharray:none"
     d="m 373.67489,498.22025 1.16225,-95.97172"
     id="path19393"
     sodipodi:nodetypes="cc"
     inkscape:connector-curvature="0" />
  <path
     style="fill:#ffffff;fill-opacity:1;stroke:#ffffff;stroke-width:49.68157196;stroke-linecap:round;stroke-linejoin:round;stroke-miterlimit:4;stroke-opacity:1;stroke-dasharray:none"
     d="m 449.33498,133.73967 c -10.38985,0.47139 -14.48037,15.45608 -5.8866,21.17113 7.8272,6.45601 20.78417,-1.36855 18.65813,-11.36012 -0.93842,-5.98864 -6.7223,-10.48711 -12.77153,-9.81101 z"
     id="path19395"
     inkscape:connector-curvature="0" />
  <path
     style="fill:none;stroke:#ffffff;stroke-width:35.91173553;stroke-linecap:round;stroke-linejoin:round;stroke-miterlimit:4;stroke-opacity:1;stroke-dasharray:none"
     d="m 396.80505,95.096117 -26.77413,62.608003 65.28323,54.00573"
     id="path19397"
     sodipodi:nodetypes="ccc"
     inkscape:connector-curvature="0" />
  <path
     style="fill:#ffffff;stroke:#ffffff;stroke-width:8.97928238;stroke-linejoin:round;stroke-miterlimit:4;stroke-opacity:1"
     id="path2207"
     stroke-miterlimit="4"
     d="m 155.30553,379.36723 c 49.58109,-8.91263 84.15487,-54.20357 79.68088,-104.38029 -4.47401,-50.17673 -46.51537,-88.63627 -96.89117,-88.63627 -50.375788,0 -92.417162,38.45954 -96.891162,88.63627 -4.474001,50.17672 30.099784,95.46766 79.680872,104.38029 l 0,32.92404 -38.910228,0 0,31.42749 38.910228,0 0,40.40676 34.42058,0 0,-40.40676 37.41367,0 0,-31.42749 -37.41367,0 0,-32.92404 z m 55.37224,-95.77901 c 0,39.67296 -32.16129,71.83427 -71.83426,71.83427 -39.672972,0 -71.834268,-32.16131 -71.834268,-71.83427 0,-39.67297 32.161296,-71.83426 71.834268,-71.83426 39.67297,0 71.83426,32.16129 71.83426,71.83426 l 0,0 z"
     inkscape:connector-curvature="0" />
  <path
     inkscape:connector-curvature="0"
     d="m 258.32141,295.57357 c 49.58109,-8.91263 84.15487,-54.20357 79.68088,-104.38029 -4.47401,-50.17673 -46.51537,-88.63626 -96.89117,-88.63626 -50.37579,0 -92.41716,38.45953 -96.89116,88.63626 -4.474,50.17672 30.09978,95.46766 79.68087,104.38029 l 0,32.92404 -38.91023,0 0,31.42749 38.91023,0 0,40.40676 34.42058,0 0,-40.40676 37.41367,0 0,-31.42749 -37.41367,0 0,-32.92404 z m 55.37224,-95.77901 c 0,39.67296 -32.16129,71.83427 -71.83426,71.83427 -39.67297,0 -71.83427,-32.16131 -71.83427,-71.83427 0,-39.67297 32.1613,-71.83425 71.83427,-71.83425 39.67297,0 71.83426,32.16128 71.83426,71.83425 l 0,0 z"
     stroke-miterlimit="4"
     id="path19590"
     style="opacity:0.5;fill:#ffffff;stroke:#ffffff;stroke-width:8.97928238;stroke-linejoin:round;stroke-miterlimit:4;stroke-opacity:1" />
</svg>
