<?xml version="1.0" encoding="UTF-8" standalone="no"?>
<!-- Created with Inkscape (http://www.inkscape.org/) -->

<svg
   xmlns:dc="http://purl.org/dc/elements/1.1/"
   xmlns:cc="http://creativecommons.org/ns#"
   xmlns:rdf="http://www.w3.org/1999/02/22-rdf-syntax-ns#"
   xmlns:svg="http://www.w3.org/2000/svg"
   xmlns="http://www.w3.org/2000/svg"
   xmlns:sodipodi="http://sodipodi.sourceforge.net/DTD/sodipodi-0.dtd"
   xmlns:inkscape="http://www.inkscape.org/namespaces/inkscape"
   version="1.0"
   width="580"
   height="580"
   id="svg2"
   sodipodi:version="0.32"
   inkscape:version="0.48.1 r9760"
   sodipodi:docname="night_club_gay.svg"
   inkscape:output_extension="org.inkscape.output.svg.inkscape">
  <metadata
     id="metadata2975">
    <rdf:RDF>
      <cc:Work
         rdf:about="">
        <dc:format>image/svg+xml</dc:format>
        <dc:type
           rdf:resource="http://purl.org/dc/dcmitype/StillImage" />
        <cc:license
           rdf:resource="http://web.resource.org/cc/PublicDomain" />
        <dc:language>en</dc:language>
        <dc:title></dc:title>
      </cc:Work>
    </rdf:RDF>
  </metadata>
  <sodipodi:namedview
     inkscape:window-height="1003"
     inkscape:window-width="1920"
     inkscape:pageshadow="2"
     inkscape:pageopacity="0.0"
     guidetolerance="10.0"
     gridtolerance="10.0"
     objecttolerance="10.0"
     borderopacity="1.0"
     bordercolor="#666666"
     pagecolor="#ffffff"
     id="base"
     inkscape:zoom="0.32586207"
     inkscape:cx="622.9734"
     inkscape:cy="227.2786"
     inkscape:window-x="0"
     inkscape:window-y="24"
     inkscape:current-layer="svg2"
     showgrid="false"
     inkscape:window-maximized="1" />
  <defs
     id="defs4">
    <inkscape:perspective
       sodipodi:type="inkscape:persp3d"
       inkscape:vp_x="0 : 290 : 1"
       inkscape:vp_y="0 : 1000 : 0"
       inkscape:vp_z="580 : 290 : 1"
       inkscape:persp3d-origin="290 : 193.33333 : 1"
       id="perspective2441" />
    <inkscape:perspective
       id="perspective3452"
       inkscape:persp3d-origin="30 : 20 : 1"
       inkscape:vp_z="60 : 30 : 1"
       inkscape:vp_y="0 : 1000 : 0"
       inkscape:vp_x="0 : 30 : 1"
       sodipodi:type="inkscape:persp3d" />
    <symbol
       viewBox="244.5 110 489 219.9"
       id="symbol-university">
      <path
         id="path4460"
         d="M79,43l57,119c0,0,21-96,104-96s124,106,124,106l43-133l82-17L0,17L79,43z" />
      <path
         id="path4462"
         d="M94,176l-21,39"
         stroke-width="20"
         stroke="#000000"
         fill="none" />
      <path
         id="path4464"
         d="M300,19c0,10.5-22.6,19-50.5,19S199,29.5,199,19s22.6-19,50.5-19S300,8.5,300,19z" />
      <path
         id="path4466"
         d="M112,216l-16-38L64,88c0,0-9-8-4-35s16-24,16-24"
         stroke-width="20"
         stroke="#000000"
         ill="none" />
    </symbol>
    <inkscape:perspective
       id="perspective4471"
       inkscape:persp3d-origin="372.04724 : 350.78739 : 1"
       inkscape:vp_z="744.09448 : 526.18109 : 1"
       inkscape:vp_y="0 : 1000 : 0"
       inkscape:vp_x="0 : 526.18109 : 1"
       sodipodi:type="inkscape:persp3d" />
    <inkscape:perspective
       id="perspective4668"
       inkscape:persp3d-origin="6 : 4 : 1"
       inkscape:vp_z="12 : 6 : 1"
       inkscape:vp_y="0 : 1000 : 0"
       inkscape:vp_x="0 : 6 : 1"
       sodipodi:type="inkscape:persp3d" />
  </defs>
  <g
     id="g1327">
    <path
       d="M 66.275,1.768 C 24.94,1.768 1.704,23.139 1.704,66.804 L 1.704,516.927 C 1.704,557.771 22.599,579.156 63.896,579.156 L 515.92,579.156 C 557.227,579.156 578.149,558.841 578.149,516.927 L 578.149,66.804 C 578.149,24.203 557.227,1.768 514.628,1.768 C 514.624,1.768 66.133,1.625 66.275,1.768 z"
       style="fill:#111111;stroke:#eeeeee;stroke-width:3.40799999"
       id="path1329" />
  </g>
  <g
     style="stroke:#ffffff;stroke-opacity:1"
     transform="matrix(1.101587,0,0,1.101587,162.12478,-40.901154)"
     id="g19381">
    <path
       inkscape:connector-curvature="0"
       style="fill:none;stroke:#ffffff;stroke-width:74.19999695;stroke-linecap:round;stroke-linejoin:round;stroke-miterlimit:4;stroke-opacity:1;stroke-dasharray:none"
       d="M 259.0164,245.78788 238.04593,317.9956"
       id="path19383"
       sodipodi:nodetypes="cc" />
    <path
       inkscape:connector-curvature="0"
       style="fill:none;stroke:#ffffff;stroke-width:32.59999847;stroke-linecap:round;stroke-linejoin:round;stroke-miterlimit:4;stroke-opacity:1;stroke-dasharray:none"
       d="m 304.37845,123.51577 27.27634,58.63449 -42.14216,46.07088"
       id="path19385"
       sodipodi:nodetypes="ccc" />
    <path
       inkscape:connector-curvature="0"
       style="fill:none;stroke:#ffffff;stroke-width:41.29999924;stroke-linecap:round;stroke-linejoin:round;stroke-miterlimit:4;stroke-opacity:1;stroke-dasharray:none"
       d="m 283.01952,486.109 7.03261,-82.33753"
       id="path19387"
       sodipodi:nodetypes="cc" />
    <path
       inkscape:connector-curvature="0"
       style="fill:none;stroke:#ffffff;stroke-width:45.09999847;stroke-linecap:round;stroke-linejoin:round;stroke-miterlimit:4;stroke-opacity:1;stroke-dasharray:none"
       d="m 253.32779,329.90534 36.13275,70.31977"
       id="path19389"
       sodipodi:nodetypes="cc" />
    <path
       inkscape:connector-curvature="0"
       sodipodi:nodetypes="cc"
       id="path19391"
       d="m 220.86436,321.89615 -27.18523,76.04689"
       style="fill:none;stroke:#ffffff;stroke-width:45.09999847;stroke-linecap:round;stroke-linejoin:round;stroke-miterlimit:4;stroke-opacity:1;stroke-dasharray:none" />
    <path
       inkscape:connector-curvature="0"
       sodipodi:nodetypes="cc"
       id="path19393"
       d="m 192.04122,489.40429 1.05507,-87.12133"
       style="fill:none;stroke:#ffffff;stroke-width:45.30612183;stroke-linecap:round;stroke-linejoin:round;stroke-miterlimit:4;stroke-opacity:1;stroke-dasharray:none" />
    <path
       inkscape:connector-curvature="0"
       id="path19395"
       d="m 260.72403,162.16679 c -9.43171,0.42792 -13.14501,14.03074 -5.34375,19.21875 7.10539,5.86065 18.86748,-1.24234 16.9375,-10.3125 -0.85188,-5.43638 -6.10237,-9.52 -11.59375,-8.90625 z"
       style="fill:#ffffff;fill-opacity:1;stroke:#ffffff;stroke-width:45.09999847;stroke-linecap:round;stroke-linejoin:round;stroke-miterlimit:4;stroke-opacity:1;stroke-dasharray:none" />
    <path
       inkscape:connector-curvature="0"
       sodipodi:nodetypes="ccc"
       id="path19397"
       d="m 213.03834,123.45577 -24.30505,56.83437 59.26289,49.02539"
       style="fill:none;stroke:#ffffff;stroke-width:32.59999847;stroke-linecap:round;stroke-linejoin:round;stroke-miterlimit:4;stroke-opacity:1;stroke-dasharray:none" />
  </g>
  <g
     id="g19506"
     transform="matrix(1.0784796,0,0,1.0784796,-4.8419769,33.794984)">
    <path
       sodipodi:nodetypes="ccccsssssssccccccsssssssss"
       style="fill:#ffffff;stroke:#ffffff;stroke-width:6.70394278;stroke-linecap:round;stroke-linejoin:round;stroke-miterlimit:4;stroke-opacity:1"
       inkscape:connector-curvature="0"
       d="m 188.95832,81.068948 -8.93859,22.346482 44.69295,0 -45.81027,45.81027 c -17.66518,-13.19903 -40.4051,-19.41776 -62.32806,-17.04615 -21.922951,2.37162 -42.803775,13.30885 -57.230425,29.97543 -14.42665,16.6666 -22.251237,38.89145 -21.450066,60.91945 0.801171,22.028 10.218846,43.63451 25.810666,59.22634 15.591824,15.59182 37.198345,25.00949 59.226335,25.81066 22.02801,0.80118 44.25286,-7.02341 60.91945,-21.45006 16.66658,-14.42665 27.60382,-35.30748 29.97543,-57.23043 2.37161,-21.92295 -3.84712,-44.66287 -17.04615,-62.32806 l 45.81027,-45.81027 0,44.69295 22.34648,-8.93859 0,-75.978022 z m -62.57013,74.860702 c 16.67019,0.005 33.23578,6.87093 45.02163,18.6603 11.78586,11.78935 18.64693,28.35696 18.64693,45.02715 0,16.67019 -6.86107,33.23782 -18.64693,45.02717 -11.78585,11.78935 -28.35144,18.65535 -45.02163,18.66029 -16.67649,0.004 -33.252231,-6.85665 -45.046031,-18.64695 C 69.548365,252.8673 62.681885,236.29359 62.681885,219.6171 c 0,-16.67648 6.86648,-33.25019 18.660274,-45.04049 11.7938,-11.79032 28.369541,-18.6519 45.046031,-18.64696 z"
       stroke-miterlimit="4"
       id="path19495" />
    <path
       id="path19504"
       stroke-miterlimit="4"
       d="m 244.19641,160.09012 -8.93859,22.34648 44.69295,0 -45.81027,45.81027 c -17.66518,-13.19903 -40.4051,-19.41776 -62.32806,-17.04615 -21.92295,2.37162 -42.80377,13.30885 -57.23042,29.97543 -14.42665,16.6666 -22.251241,38.89145 -21.450071,60.91945 0.80118,22.028 10.218851,43.63451 25.810671,59.22634 15.59182,15.59182 37.19834,25.00949 59.22633,25.81066 22.02801,0.80118 44.25286,-7.02341 60.91945,-21.45006 16.66658,-14.42665 27.60382,-35.30748 29.97543,-57.23043 2.37161,-21.92295 -3.84712,-44.66287 -17.04615,-62.32806 l 45.81027,-45.81027 0,44.69295 22.34648,-8.93859 0,-75.97802 z m -62.57013,74.8607 c 16.67019,0.005 33.23578,6.87093 45.02163,18.6603 11.78586,11.78935 18.64693,28.35696 18.64693,45.02715 0,16.67019 -6.86107,33.23782 -18.64693,45.02717 -11.78585,11.78935 -28.35144,18.65535 -45.02163,18.66029 -16.67649,0.004 -33.25223,-6.85665 -45.04603,-18.64695 -11.79379,-11.79031 -18.66027,-28.36402 -18.66027,-45.04051 0,-16.67648 6.86648,-33.25019 18.66027,-45.04049 11.7938,-11.79032 28.36954,-18.6519 45.04603,-18.64696 z"
       inkscape:connector-curvature="0"
       style="opacity:0.5;fill:#ffffff;stroke:#ffffff;stroke-width:6.70394278;stroke-linecap:round;stroke-linejoin:round;stroke-miterlimit:4;stroke-opacity:1"
       sodipodi:nodetypes="ccccsssssssccccccsssssssss" />
  </g>
</svg>
