<?xml version="1.0" encoding="UTF-8" standalone="no"?>
<!-- Created with Inkscape (http://www.inkscape.org/) -->

<svg
   xmlns:dc="http://purl.org/dc/elements/1.1/"
   xmlns:cc="http://creativecommons.org/ns#"
   xmlns:rdf="http://www.w3.org/1999/02/22-rdf-syntax-ns#"
   xmlns:svg="http://www.w3.org/2000/svg"
   xmlns="http://www.w3.org/2000/svg"
   xmlns:sodipodi="http://sodipodi.sourceforge.net/DTD/sodipodi-0.dtd"
   xmlns:inkscape="http://www.inkscape.org/namespaces/inkscape"
   width="64px"
   height="64px"
   id="svg3513"
   version="1.1"
   inkscape:version="0.48.4 r9939"
   sodipodi:docname="FromMap.svg">
  <defs
     id="defs3515" />
  <sodipodi:namedview
     id="base"
     pagecolor="#ffffff"
     bordercolor="#666666"
     borderopacity="1.0"
     inkscape:pageopacity="0.0"
     inkscape:pageshadow="2"
     inkscape:zoom="5.5"
     inkscape:cx="32"
     inkscape:cy="32"
     inkscape:current-layer="layer1"
     showgrid="true"
     inkscape:document-units="px"
     inkscape:grid-bbox="true"
     inkscape:window-width="657"
     inkscape:window-height="421"
     inkscape:window-x="-2"
     inkscape:window-y="0"
     inkscape:window-maximized="0" />
  <metadata
     id="metadata3518">
    <rdf:RDF>
      <cc:Work
         rdf:about="">
        <dc:format>image/svg+xml</dc:format>
        <dc:type
           rdf:resource="http://purl.org/dc/dcmitype/StillImage" />
        <dc:title></dc:title>
      </cc:Work>
    </rdf:RDF>
  </metadata>
  <g
     id="layer1"
     inkscape:label="Layer 1"
     inkscape:groupmode="layer">
    <g
       id="g4029"
       inkscape:export-filename="/home/oeichler/dateien/cpp/MapRoom/src/icons/16x16/selectColor.png"
       inkscape:export-xdpi="35.031654"
       inkscape:export-ydpi="35.031654"
       transform="translate(-355.39698,-171.88539)">
      <path
         sodipodi:nodetypes="cccccc"
         inkscape:connector-curvature="0"
         id="path4185"
         d="m 363.83307,200.41809 c -2.82442,-7.84002 3.12987,-17.65666 9.38961,-20.86696 9.38961,-4.81545 15.64934,-1.60515 20.34415,1.60515 20.34414,14.44635 -0.80701,13.43234 -6.25974,19.26181 -5.2729,3.12211 19.09475,16.72011 -7.82468,16.0515 -6.25973,-1.60515 -9.30228,-4.12955 -15.64934,-16.0515 z"
         style="fill:none;stroke:#000080;stroke-width:2;stroke-linecap:butt;stroke-linejoin:miter;stroke-miterlimit:4;stroke-opacity:1;stroke-dasharray:none" />
      <path
         transform="matrix(-0.31230026,-0.32032583,0.31230026,-0.32032583,425.69977,408.85785)"
         sodipodi:open="true"
         sodipodi:end="12.008875"
         sodipodi:start="5.7515649"
         d="m 394.89429,235.55622 c 3.96808,5.0605 1.71505,11.57543 -5.03229,14.55149 -6.74734,2.97606 -15.4339,1.28628 -19.40198,-3.77422 -3.96808,-5.0605 -1.71505,-11.57543 5.03229,-14.55149 6.62421,-2.92175 15.14625,-1.35194 19.212,3.53896"
         sodipodi:ry="10.629921"
         sodipodi:rx="14.173228"
         sodipodi:cy="240.94485"
         sodipodi:cx="382.67715"
         id="path4189"
         style="fill:#ffffff;fill-opacity:1;fill-rule:nonzero;stroke:#000080;stroke-width:4.47129011;stroke-linecap:round;stroke-linejoin:round;stroke-miterlimit:4;stroke-opacity:1;stroke-dasharray:none"
         sodipodi:type="arc" />
      <path
         inkscape:transform-center-y="-24.715677"
         inkscape:transform-center-x="99.300349"
         transform="matrix(0.43214642,0,0,0.59100922,227.38922,77.17196)"
         sodipodi:open="true"
         sodipodi:end="12.008875"
         sodipodi:start="5.7515649"
         d="m 385.24242,186.87259 c 1.98404,2.53025 0.85752,5.78772 -2.51615,7.27575 -3.37367,1.48803 -7.71695,0.64314 -9.70099,-1.88711 -1.98404,-2.53025 -0.85752,-5.78772 2.51615,-7.27575 3.3121,-1.46087 7.57312,-0.67597 9.606,1.76948"
         sodipodi:ry="5.3149605"
         sodipodi:rx="7.0866141"
         sodipodi:cy="189.56691"
         sodipodi:cx="379.13385"
         id="path4191"
         style="fill:#ffff00;fill-opacity:1;fill-rule:nonzero;stroke:#000000;stroke-width:1;stroke-linecap:round;stroke-linejoin:round;stroke-miterlimit:4;stroke-opacity:1;stroke-dasharray:none"
         sodipodi:type="arc" />
      <path
         inkscape:transform-center-y="-24.715677"
         inkscape:transform-center-x="99.300349"
         transform="matrix(0.43214642,0,0,0.59100922,217.45917,72.058052)"
         sodipodi:open="true"
         sodipodi:end="12.008875"
         sodipodi:start="5.7515649"
         d="m 385.24242,186.87259 c 1.98404,2.53025 0.85752,5.78772 -2.51615,7.27575 -3.37367,1.48803 -7.71695,0.64314 -9.70099,-1.88711 -1.98404,-2.53025 -0.85752,-5.78772 2.51615,-7.27575 3.3121,-1.46087 7.57312,-0.67597 9.606,1.76948"
         sodipodi:ry="5.3149605"
         sodipodi:rx="7.0866141"
         sodipodi:cy="189.56691"
         sodipodi:cx="379.13385"
         id="path4191-2"
         style="fill:#0000ff;fill-opacity:1;fill-rule:nonzero;stroke:#000000;stroke-width:1;stroke-linecap:round;stroke-linejoin:round;stroke-miterlimit:4;stroke-opacity:1;stroke-dasharray:none"
         sodipodi:type="arc" />
      <path
         inkscape:transform-center-y="-24.715677"
         inkscape:transform-center-x="99.300349"
         transform="matrix(0.43214642,0,0,0.59100922,208.49903,76.433473)"
         sodipodi:open="true"
         sodipodi:end="12.008875"
         sodipodi:start="5.7515649"
         d="m 385.24242,186.87259 c 1.98404,2.53025 0.85752,5.78772 -2.51615,7.27575 -3.37367,1.48803 -7.71695,0.64314 -9.70099,-1.88711 -1.98404,-2.53025 -0.85752,-5.78772 2.51615,-7.27575 3.3121,-1.46087 7.57312,-0.67597 9.606,1.76948"
         sodipodi:ry="5.3149605"
         sodipodi:rx="7.0866141"
         sodipodi:cy="189.56691"
         sodipodi:cx="379.13385"
         id="path4191-1"
         style="fill:#808000;fill-opacity:1;fill-rule:nonzero;stroke:#000000;stroke-width:1;stroke-linecap:round;stroke-linejoin:round;stroke-miterlimit:4;stroke-opacity:1;stroke-dasharray:none"
         sodipodi:type="arc" />
      <path
         inkscape:transform-center-y="-24.715677"
         inkscape:transform-center-x="99.300349"
         transform="matrix(0.43214642,0,0,0.59100922,207.46056,87.300285)"
         sodipodi:open="true"
         sodipodi:end="12.008875"
         sodipodi:start="5.7515649"
         d="m 385.24242,186.87259 c 1.98404,2.53025 0.85752,5.78772 -2.51615,7.27575 -3.37367,1.48803 -7.71695,0.64314 -9.70099,-1.88711 -1.98404,-2.53025 -0.85752,-5.78772 2.51615,-7.27575 3.3121,-1.46087 7.57312,-0.67597 9.606,1.76948"
         sodipodi:ry="5.3149605"
         sodipodi:rx="7.0866141"
         sodipodi:cy="189.56691"
         sodipodi:cx="379.13385"
         id="path4191-15"
         style="fill:#ff0000;fill-opacity:1;fill-rule:nonzero;stroke:#000000;stroke-width:1;stroke-linecap:round;stroke-linejoin:round;stroke-miterlimit:4;stroke-opacity:1;stroke-dasharray:none"
         sodipodi:type="arc" />
    </g>
  </g>
</svg>
