<?xml version="1.0" encoding="UTF-8" standalone="no"?>
<!-- Created with Inkscape (http://www.inkscape.org/) -->

<svg
   xmlns:dc="http://purl.org/dc/elements/1.1/"
   xmlns:cc="http://creativecommons.org/ns#"
   xmlns:rdf="http://www.w3.org/1999/02/22-rdf-syntax-ns#"
   xmlns:svg="http://www.w3.org/2000/svg"
   xmlns="http://www.w3.org/2000/svg"
   xmlns:sodipodi="http://sodipodi.sourceforge.net/DTD/sodipodi-0.dtd"
   xmlns:inkscape="http://www.inkscape.org/namespaces/inkscape"
   width="64px"
   height="64px"
   id="svg3462"
   version="1.1"
   inkscape:version="0.91 r13725"
   sodipodi:docname="ToggleRouter.svg"
   inkscape:export-filename="/home/norbert/Development/QMapShack/QMapShack_touch/src/icons/48x48/ToggleRouter.png"
   inkscape:export-xdpi="67.5"
   inkscape:export-ydpi="67.5">
  <defs
     id="defs3464">
    <inkscape:path-effect
       effect="spiro"
       id="path-effect4326"
       is_visible="true" />
  </defs>
  <sodipodi:namedview
     id="base"
     pagecolor="#ffffff"
     bordercolor="#666666"
     borderopacity="1.0"
     inkscape:pageopacity="0.0"
     inkscape:pageshadow="2"
     inkscape:zoom="5.89"
     inkscape:cx="-43.213422"
     inkscape:cy="34.818224"
     inkscape:current-layer="layer1"
     showgrid="true"
     inkscape:document-units="px"
     inkscape:grid-bbox="true"
     inkscape:window-width="1366"
     inkscape:window-height="744"
     inkscape:window-x="0"
     inkscape:window-y="24"
     inkscape:window-maximized="1"
     showguides="false" />
  <metadata
     id="metadata3467">
    <rdf:RDF>
      <cc:Work
         rdf:about="">
        <dc:format>image/svg+xml</dc:format>
        <dc:type
           rdf:resource="http://purl.org/dc/dcmitype/StillImage" />
        <dc:title />
      </cc:Work>
    </rdf:RDF>
  </metadata>
  <g
     id="layer1"
     inkscape:label="Layer 1"
     inkscape:groupmode="layer">
    <rect
       style="fill:none;fill-rule:evenodd;stroke:#000000;stroke-width:1.10540044px;stroke-linecap:butt;stroke-linejoin:miter;stroke-opacity:1"
       id="rect3336"
       width="29.544342"
       height="29.544342"
       x="20.729263"
       y="12.790267" />
    <rect
       style="fill:none;fill-rule:evenodd;stroke:#000000;stroke-width:1.10540044px;stroke-linecap:butt;stroke-linejoin:miter;stroke-opacity:1"
       id="rect3338"
       width="20.299173"
       height="20.299173"
       x="35.199963"
       y="6.9617906" />
    <rect
       style="fill:#ffffff;fill-rule:evenodd;stroke:#000080;stroke-width:1.51195776px;stroke-linecap:butt;stroke-linejoin:miter;stroke-opacity:1;fill-opacity:1"
       id="rect3336-3"
       width="40.410511"
       height="40.410511"
       x="3.976562"
       y="19.24929" />
    <path
       style="fill:none;fill-rule:evenodd;stroke:#000099;stroke-width:3;stroke-linecap:round;stroke-linejoin:round;stroke-miterlimit:4;stroke-dasharray:none;stroke-opacity:1"
       d="m 14.601019,29.704584 c 0,0 6.231804,-7.762755 14.091681,-6.791172 13.420643,1.658966 6.281834,18.675722 6.281834,18.675722 0,0 -9.690816,-5.767379 -16.80815,-1.358234 -7.711133,4.776999 -1.030156,12.564241 -1.018676,12.563667"
       id="path4334"
       inkscape:connector-curvature="0"
       sodipodi:nodetypes="cscsc" />
    <path
       sodipodi:open="true"
       sodipodi:end="6.2789689"
       sodipodi:start="0"
       d="m 20.222283,30.254875 a 5.5757575,5.5757575 0 0 1 -5.56988,5.575755 5.5757575,5.5757575 0 0 1 -5.5816227,-5.564 5.5757575,5.5757575 0 0 1 5.5581127,-5.587484 5.5757575,5.5757575 0 0 1 5.59334,5.55222"
       sodipodi:ry="5.5757575"
       sodipodi:rx="5.5757575"
       sodipodi:cy="30.254875"
       sodipodi:cx="14.646525"
       id="path3339"
       style="fill:#ff0000;fill-opacity:1;fill-rule:evenodd;stroke:none"
       sodipodi:type="arc" />
    <path
       sodipodi:open="true"
       sodipodi:end="6.2789689"
       sodipodi:start="0"
       d="m 39.737436,41.406387 a 5.5757575,5.5757575 0 0 1 -5.56988,5.575755 5.5757575,5.5757575 0 0 1 -5.581623,-5.564 5.5757575,5.5757575 0 0 1 5.558113,-5.587484 5.5757575,5.5757575 0 0 1 5.59334,5.55222"
       sodipodi:ry="5.5757575"
       sodipodi:rx="5.5757575"
       sodipodi:cy="41.406387"
       sodipodi:cx="34.161678"
       id="path3341"
       style="fill:#ff0000;fill-opacity:1;fill-rule:evenodd;stroke:none"
       sodipodi:type="arc" />
    <path
       sodipodi:open="true"
       sodipodi:end="6.2789689"
       sodipodi:start="0"
       d="m 23.01016,52.557903 a 5.5757575,5.5757575 0 0 1 -5.56988,5.575755 5.5757575,5.5757575 0 0 1 -5.581623,-5.564 5.5757575,5.5757575 0 0 1 5.558113,-5.587484 5.5757575,5.5757575 0 0 1 5.59334,5.55222"
       sodipodi:ry="5.5757575"
       sodipodi:rx="5.5757575"
       sodipodi:cy="52.557903"
       sodipodi:cx="17.434402"
       id="path3343"
       style="fill:#ff0000;fill-opacity:1;fill-rule:evenodd;stroke:none"
       sodipodi:type="arc" />
  </g>
</svg>
