<?xml version="1.0" encoding="UTF-8" standalone="no"?>
<!-- Created with Inkscape (http://www.inkscape.org/) -->

<svg
   xmlns:dc="http://purl.org/dc/elements/1.1/"
   xmlns:cc="http://creativecommons.org/ns#"
   xmlns:rdf="http://www.w3.org/1999/02/22-rdf-syntax-ns#"
   xmlns:svg="http://www.w3.org/2000/svg"
   xmlns="http://www.w3.org/2000/svg"
   xmlns:sodipodi="http://sodipodi.sourceforge.net/DTD/sodipodi-0.dtd"
   xmlns:inkscape="http://www.inkscape.org/namespaces/inkscape"
   version="1.0"
   width="580"
   height="580"
   id="svg2"
   sodipodi:version="0.32"
   inkscape:version="0.92.3 (2405546, 2018-03-11)"
   sodipodi:docname="scuba_diving2.svg"
   inkscape:output_extension="org.inkscape.output.svg.inkscape">
  <metadata
     id="metadata2975">
    <rdf:RDF>
      <cc:Work
         rdf:about="">
        <dc:format>image/svg+xml</dc:format>
        <dc:type
           rdf:resource="http://purl.org/dc/dcmitype/StillImage" />
        <cc:license
           rdf:resource="http://web.resource.org/cc/PublicDomain" />
        <dc:language>en</dc:language>
        <dc:title></dc:title>
      </cc:Work>
    </rdf:RDF>
  </metadata>
  <sodipodi:namedview
     inkscape:window-height="1134"
     inkscape:window-width="1920"
     inkscape:pageshadow="2"
     inkscape:pageopacity="0.0"
     guidetolerance="10.0"
     gridtolerance="10.0"
     objecttolerance="10.0"
     borderopacity="1.0"
     bordercolor="#666666"
     pagecolor="#ffffff"
     id="base"
     inkscape:zoom="0.32646108"
     inkscape:cx="408.9866"
     inkscape:cy="124.20124"
     inkscape:window-x="0"
     inkscape:window-y="0"
     inkscape:current-layer="svg2"
     showgrid="false"
     inkscape:window-maximized="1" />
  <defs
     id="defs4">
    <inkscape:path-effect
       effect="powerstroke"
       id="path-effect9631"
       is_visible="true"
       offset_points="3,0.5"
       sort_points="true"
       interpolator_type="CubicBezierJohan"
       interpolator_beta="0.2"
       start_linecap_type="zerowidth"
       linejoin_type="extrp_arc"
       miter_limit="4"
       end_linecap_type="zerowidth" />
    <inkscape:path-effect
       effect="powerstroke"
       id="path-effect9546"
       is_visible="true"
       offset_points="0.94599973,29.074936"
       sort_points="true"
       interpolator_type="CubicBezierJohan"
       interpolator_beta="0.2"
       start_linecap_type="zerowidth"
       linejoin_type="extrp_arc"
       miter_limit="4"
       end_linecap_type="zerowidth" />
    <inkscape:perspective
       sodipodi:type="inkscape:persp3d"
       inkscape:vp_x="0 : 290 : 1"
       inkscape:vp_y="0 : 1000 : 0"
       inkscape:vp_z="580 : 290 : 1"
       inkscape:persp3d-origin="290 : 193.33333 : 1"
       id="perspective2441" />
    <inkscape:perspective
       id="perspective3452"
       inkscape:persp3d-origin="30 : 20 : 1"
       inkscape:vp_z="60 : 30 : 1"
       inkscape:vp_y="0 : 1000 : 0"
       inkscape:vp_x="0 : 30 : 1"
       sodipodi:type="inkscape:persp3d" />
    <inkscape:perspective
       id="perspective4471"
       inkscape:persp3d-origin="372.04724 : 350.78739 : 1"
       inkscape:vp_z="744.09448 : 526.18109 : 1"
       inkscape:vp_y="0 : 1000 : 0"
       inkscape:vp_x="0 : 526.18109 : 1"
       sodipodi:type="inkscape:persp3d" />
    <inkscape:perspective
       id="perspective4668"
       inkscape:persp3d-origin="6 : 4 : 1"
       inkscape:vp_z="12 : 6 : 1"
       inkscape:vp_y="0 : 1000 : 0"
       inkscape:vp_x="0 : 6 : 1"
       sodipodi:type="inkscape:persp3d" />
    <inkscape:path-effect
       effect="powerstroke"
       id="path-effect9546-0"
       is_visible="true"
       offset_points="0.94599973,28.379229"
       sort_points="true"
       interpolator_type="CubicBezierJohan"
       interpolator_beta="0.2"
       start_linecap_type="zerowidth"
       linejoin_type="extrp_arc"
       miter_limit="4"
       end_linecap_type="zerowidth" />
    <inkscape:path-effect
       effect="powerstroke"
       id="path-effect9546-0-2"
       is_visible="true"
       offset_points="0.94599973,28.379229"
       sort_points="true"
       interpolator_type="CubicBezierJohan"
       interpolator_beta="0.2"
       start_linecap_type="zerowidth"
       linejoin_type="extrp_arc"
       miter_limit="4"
       end_linecap_type="zerowidth" />
    <inkscape:path-effect
       effect="powerstroke"
       id="path-effect9546-6"
       is_visible="true"
       offset_points="0.94599973,25.732389"
       sort_points="true"
       interpolator_type="CubicBezierJohan"
       interpolator_beta="0.2"
       start_linecap_type="zerowidth"
       linejoin_type="extrp_arc"
       miter_limit="4"
       end_linecap_type="zerowidth" />
    <inkscape:path-effect
       effect="powerstroke"
       id="path-effect9546-0-2-3"
       is_visible="true"
       offset_points="0.94599973,28.379229"
       sort_points="true"
       interpolator_type="CubicBezierJohan"
       interpolator_beta="0.2"
       start_linecap_type="zerowidth"
       linejoin_type="extrp_arc"
       miter_limit="4"
       end_linecap_type="zerowidth" />
    <inkscape:path-effect
       effect="powerstroke"
       id="path-effect9546-6-7"
       is_visible="true"
       offset_points="0.94599973,24.48752"
       sort_points="true"
       interpolator_type="CubicBezierJohan"
       interpolator_beta="0.2"
       start_linecap_type="zerowidth"
       linejoin_type="extrp_arc"
       miter_limit="4"
       end_linecap_type="zerowidth" />
  </defs>
  <g
     id="g1327"
     transform="translate(-17.254308,-5.8451619)">
    <path
       d="m 83.602806,7.1829393 c -41.335,0 -64.571,21.3709997 -64.571,65.0359997 V 522.34194 c 0,40.844 20.895,62.229 62.192,62.229 H 533.24781 c 41.307,0 62.229,-20.315 62.229,-62.229 V 72.218939 c 0,-42.601 -20.922,-65.0359997 -63.521,-65.0359997 -0.004,0 -448.495004,-0.143 -448.353004,0 z"
       style="fill:#111111;stroke:#eeeeee;stroke-width:3.40799999"
       id="path1329"
       inkscape:connector-curvature="0" />
  </g>
  <g
     id="g9691"
     transform="matrix(1.3146171,0,0,1.3810565,-96.514795,-92.976161)">
    <ellipse
       ry="10.849787"
       rx="14.104722"
       cy="302.77374"
       cx="432.32837"
       id="path9500-6"
       style="opacity:1;fill:none;fill-opacity:1;stroke:#eeeeee;stroke-width:5;stroke-linecap:round;stroke-linejoin:bevel;stroke-miterlimit:4;stroke-dasharray:none;stroke-dashoffset:0;stroke-opacity:1" />
    <ellipse
       ry="16.274679"
       rx="22.784552"
       cy="250.69478"
       cx="459.45288"
       id="path9502-2"
       style="opacity:1;fill:none;fill-opacity:1;stroke:#eeeeee;stroke-width:5;stroke-linecap:round;stroke-linejoin:bevel;stroke-miterlimit:4;stroke-dasharray:none;stroke-dashoffset:0;stroke-opacity:1" />
    <ellipse
       ry="17.902147"
       rx="28.209444"
       cy="202.41325"
       cx="413.88373"
       id="path9504-9"
       style="opacity:1;fill:none;fill-opacity:1;stroke:#eeeeee;stroke-width:5;stroke-linecap:round;stroke-linejoin:bevel;stroke-miterlimit:4;stroke-dasharray:none;stroke-dashoffset:0;stroke-opacity:1" />
  </g>
  <g
     transform="matrix(0.80340909,0.93960875,-0.94020023,0.80290366,454.64617,-313.78993)"
     id="use9743">
    <path
       sodipodi:nodetypes="cccccssscscccccccccc"
       inkscape:connector-curvature="0"
       id="path9800"
       d="m 437.28226,410.2447 c -2.96107,0.0608 -5.83321,0.71052 -8.61719,1.94922 l -129.91744,48.92239 c -110.01668,-38.19818 -90.78035,-28.0751 -109.87798,-20.38684 -16.17806,6.95449 -33.8353,14.45784 -48.30223,18.73789 -12.42005,3.6224 -23.27114,5.74756 -34.27344,7.17773 -10.550461,1.37144 -20.011559,1.89049 -26.714843,2.90625 -0.775213,0.11747 -1.538551,6.41932 -2.558594,12.71484 -1.021026,6.3016 -2.299435,12.59099 -3.30664,12.69141 0.956928,-0.0954 3.562918,5.78841 6.353516,11.60547 2.793665,5.82346 5.771182,11.57328 6.847656,11.41016 9.029836,-1.36839 20.782805,-5.18359 32.953125,-11.61719 25.33593,-18.97187 50.97095,-34.70518 73.39432,-54.55239 22.90443,9.10777 33.32047,22.23967 107.90578,47.34348 4.90818,1.03343 32.23444,7.53113 36.59494,5.81457 L 477.1221,453.20178 v 0 c 12.7088,-37.55678 -8.1686,-39.04307 -34.41406,-42.43164 -1.84039,-0.3876 -3.64914,-0.56185 -5.42578,-0.52539 z"
       style="font-style:normal;font-variant:normal;font-weight:normal;font-stretch:normal;font-size:40px;line-height:125%;font-family:NPSPICT3;-inkscape-font-specification:NPSPICT3;text-align:start;writing-mode:lr-tb;text-anchor:start;fill:#ffffff;fill-opacity:1;stroke:none;stroke-width:11.80384445px;stroke-linecap:butt;stroke-linejoin:miter;stroke-opacity:1" />
    <path
       sodipodi:nodetypes="cssssssc"
       inkscape:connector-curvature="0"
       id="path9802"
       d="m 399.81205,372.80023 -74.443,30.65228 c -10.51685,4.33036 -3.52769,12.7265 0.0982,23.42295 3.62589,10.69647 4.98916,16.21104 15.60636,12.13252 l 71.82829,-27.59237 c 10.61721,-4.07853 17.48274,-13.33449 13.81713,-24.01744 -4.18291,-12.19057 -9.1947,-18.86958 -21.51755,-15.8977 z"
       style="opacity:1;fill:#ffffff;fill-opacity:1;stroke:none;stroke-width:20.12542152;stroke-linecap:round;stroke-linejoin:bevel;stroke-miterlimit:4;stroke-dasharray:none;stroke-dashoffset:0;stroke-opacity:1" />
    <path
       sodipodi:nodetypes="cc"
       inkscape:original-d="M 221.94126,417.57037 C 158.06864,408.51718 146.68244,437.06044 64.315609,393.43515"
       inkscape:path-effect="#path-effect9546-0-2-3"
       inkscape:connector-curvature="0"
       id="path9804"
       d="m 221.94126,417.57037 c -10.80624,-1.53166 -25.74274,-4.8886 -40.37723,-7.50442 -11.35668,-2.02994 -21.87403,-3.79492 -31.89661,-6.79519 -10.19294,-3.05128 -18.88587,-7.07558 -28.80775,-12.24169 -10.35046,-5.38925 -21.956482,-12.11848 -31.487752,-16.70895 -1.07803,-0.5192 -6.474609,4.74676 -12.127737,9.83357 -5.658525,5.09167 -11.566641,10.0028 -12.928572,9.28146 1.326454,0.70255 0.669685,8.37239 0.109309,16.03745 -0.560951,7.67293 -1.018731,15.34016 0.318363,15.98414 11.644856,5.60845 27.543706,10.59101 43.819119,12.18937 15.86802,1.55835 29.31452,-0.24696 41.89771,-3.98227 11.8063,-3.50469 21.61208,-8.16159 31.87351,-11.50032 14.06776,-4.57718 27.75999,-6.27241 39.60764,-4.59315 z"
       style="fill:#ffffff;fill-rule:nonzero;stroke:#ffffff;stroke-width:2.75936604px;stroke-linecap:butt;stroke-linejoin:miter;stroke-opacity:1" />
    <ellipse
       cy="381.69098"
       cx="480.39285"
       id="circle9806"
       style="opacity:1;fill:#ffffff;fill-opacity:1;stroke:#ffffff;stroke-width:0;stroke-linecap:round;stroke-linejoin:round;stroke-miterlimit:4.5999999;stroke-dasharray:none;stroke-dashoffset:0;stroke-opacity:1"
       rx="35.533051"
       ry="29.172935" />
  </g>
</svg>
