<?xml version="1.0" encoding="UTF-8" standalone="no"?>
<!-- Created with Inkscape (http://www.inkscape.org/) -->

<svg
   xmlns:dc="http://purl.org/dc/elements/1.1/"
   xmlns:cc="http://creativecommons.org/ns#"
   xmlns:rdf="http://www.w3.org/1999/02/22-rdf-syntax-ns#"
   xmlns:svg="http://www.w3.org/2000/svg"
   xmlns="http://www.w3.org/2000/svg"
   xmlns:xlink="http://www.w3.org/1999/xlink"
   xmlns:sodipodi="http://sodipodi.sourceforge.net/DTD/sodipodi-0.dtd"
   xmlns:inkscape="http://www.inkscape.org/namespaces/inkscape"
   width="516.5"
   height="496.5"
   id="svg7088"
   version="1.1"
   inkscape:version="0.47 r22583"
   sodipodi:docname="cito.svg">
  <defs
     id="defs7090">
    <linearGradient
       id="linearGradient3765">
      <stop
         style="stop-color:#3be11e;stop-opacity:1;"
         offset="0"
         id="stop3767" />
      <stop
         style="stop-color:#255d21;stop-opacity:1;"
         offset="1"
         id="stop3769" />
    </linearGradient>
    <linearGradient
       id="linearGradient3751">
      <stop
         id="stop3763"
         offset="0"
         style="stop-color:#0fb30f;stop-opacity:1;" />
      <stop
         id="stop3759"
         offset="1"
         style="stop-color:#0aa20a;stop-opacity:1;" />
    </linearGradient>
    <inkscape:perspective
       sodipodi:type="inkscape:persp3d"
       inkscape:vp_x="0 : 526.18109 : 1"
       inkscape:vp_y="0 : 1000 : 0"
       inkscape:vp_z="744.09448 : 526.18109 : 1"
       inkscape:persp3d-origin="372.04724 : 350.78739 : 1"
       id="perspective7096" />
    <inkscape:perspective
       id="perspective7083"
       inkscape:persp3d-origin="0.5 : 0.33333333 : 1"
       inkscape:vp_z="1 : 0.5 : 1"
       inkscape:vp_y="0 : 1000 : 0"
       inkscape:vp_x="0 : 0.5 : 1"
       sodipodi:type="inkscape:persp3d" />
    <inkscape:perspective
       id="perspective7115"
       inkscape:persp3d-origin="0.5 : 0.33333333 : 1"
       inkscape:vp_z="1 : 0.5 : 1"
       inkscape:vp_y="0 : 1000 : 0"
       inkscape:vp_x="0 : 0.5 : 1"
       sodipodi:type="inkscape:persp3d" />
    <inkscape:perspective
       id="perspective2849"
       inkscape:persp3d-origin="0.5 : 0.33333333 : 1"
       inkscape:vp_z="1 : 0.5 : 1"
       inkscape:vp_y="0 : 1000 : 0"
       inkscape:vp_x="0 : 0.5 : 1"
       sodipodi:type="inkscape:persp3d" />
    <inkscape:perspective
       id="perspective2863"
       inkscape:persp3d-origin="0.5 : 0.33333333 : 1"
       inkscape:vp_z="1 : 0.5 : 1"
       inkscape:vp_y="0 : 1000 : 0"
       inkscape:vp_x="0 : 0.5 : 1"
       sodipodi:type="inkscape:persp3d" />
    <inkscape:perspective
       id="perspective2885"
       inkscape:persp3d-origin="0.5 : 0.33333333 : 1"
       inkscape:vp_z="1 : 0.5 : 1"
       inkscape:vp_y="0 : 1000 : 0"
       inkscape:vp_x="0 : 0.5 : 1"
       sodipodi:type="inkscape:persp3d" />
    <inkscape:perspective
       id="perspective2946"
       inkscape:persp3d-origin="0.5 : 0.33333333 : 1"
       inkscape:vp_z="1 : 0.5 : 1"
       inkscape:vp_y="0 : 1000 : 0"
       inkscape:vp_x="0 : 0.5 : 1"
       sodipodi:type="inkscape:persp3d" />
    <linearGradient
       inkscape:collect="always"
       xlink:href="#linearGradient3765"
       id="linearGradient3773"
       x1="167.84172"
       y1="629.88794"
       x2="230.84251"
       y2="474.17368"
       gradientUnits="userSpaceOnUse"
       gradientTransform="matrix(1.0641461,0,0,1.0641461,-18.750375,-18.46935)" />
    <linearGradient
       inkscape:collect="always"
       xlink:href="#linearGradient3765"
       id="linearGradient3781"
       x1="357.46432"
       y1="719.18365"
       x2="231.74998"
       y2="674.89795"
       gradientUnits="userSpaceOnUse"
       gradientTransform="matrix(1.0641461,0,0,1.0641461,-29.391836,-42.79269)" />
    <linearGradient
       inkscape:collect="always"
       xlink:href="#linearGradient3765"
       id="linearGradient3789"
       x1="366.2532"
       y1="274.8436"
       x2="470.10608"
       y2="407.70074"
       gradientUnits="userSpaceOnUse"
       gradientTransform="matrix(1.0641461,0,0,1.0641461,-18.750375,-18.46935)" />
    <linearGradient
       inkscape:collect="always"
       xlink:href="#linearGradient3765"
       id="linearGradient3797"
       x1="214.27321"
       y1="397.38794"
       x2="308.67551"
       y2="313.10223"
       gradientUnits="userSpaceOnUse"
       gradientTransform="matrix(1.0641461,0,0,1.0641461,-18.750375,-18.46935)" />
    <linearGradient
       inkscape:collect="always"
       xlink:href="#linearGradient3765"
       id="linearGradient3805"
       x1="544.84607"
       y1="424.47986"
       x2="570.27203"
       y2="550.19415"
       gradientUnits="userSpaceOnUse"
       gradientTransform="matrix(1.0641461,0,0,1.0641461,-18.750375,-18.46935)" />
    <linearGradient
       inkscape:collect="always"
       xlink:href="#linearGradient3765"
       id="linearGradient3807"
       x1="566.20593"
       y1="633.90015"
       x2="406.78873"
       y2="645.32874"
       gradientUnits="userSpaceOnUse"
       gradientTransform="matrix(1.0641461,0,0,1.0641461,-18.750375,-18.46935)" />
  </defs>
  <sodipodi:namedview
     id="base"
     pagecolor="#ffffff"
     bordercolor="#666666"
     borderopacity="1.0"
     inkscape:pageopacity="0.0"
     inkscape:pageshadow="2"
     inkscape:zoom="0.49497475"
     inkscape:cx="179.85608"
     inkscape:cy="269.2266"
     inkscape:document-units="px"
     inkscape:current-layer="layer1"
     showgrid="false"
     showguides="true"
     inkscape:guide-bbox="true"
     inkscape:window-width="1024"
     inkscape:window-height="544"
     inkscape:window-x="-4"
     inkscape:window-y="-4"
     inkscape:window-maximized="1"
     inkscape:snap-global="false" />
  <metadata
     id="metadata7093">
    <rdf:RDF>
      <cc:Work
         rdf:about="">
        <dc:format>image/svg+xml</dc:format>
        <dc:type
           rdf:resource="http://purl.org/dc/dcmitype/StillImage" />
        <dc:title></dc:title>
      </cc:Work>
    </rdf:RDF>
  </metadata>
  <g
     inkscape:label="Layer 1"
     inkscape:groupmode="layer"
     id="layer1"
     transform="translate(-118.89286,-269.82648)">
    <path
       style="fill:url(#linearGradient3797);fill-opacity:1;stroke:#000000;stroke-width:4;stroke-linecap:butt;stroke-linejoin:miter;stroke-opacity:1;stroke-miterlimit:4;stroke-dasharray:none"
       d="m 208.165,407.13894 104.42606,48.6005 65.12622,-102.67819 -63.55573,-62.02204 -30.12897,-1.80843 -75.86758,117.90816 z"
       id="path2875-1" />
    <path
       style="fill:url(#linearGradient3805);fill-opacity:1;stroke:#000000;stroke-width:4;stroke-linecap:butt;stroke-linejoin:miter;stroke-opacity:1;stroke-miterlimit:4;stroke-dasharray:none"
       d="m 564.55279,439.03425 -94.30229,66.13536 56.3588,107.74006 85.49053,-24.02985 16.63063,-25.18823 -64.17767,-124.65734 z"
       id="path2875-1-8" />
    <path
       style="fill:url(#linearGradient3781);fill-opacity:1;stroke:#000000;stroke-width:4;stroke-linecap:butt;stroke-linejoin:miter;stroke-opacity:1;stroke-miterlimit:4;stroke-dasharray:none"
       d="m 353.84526,725.56013 -10.12375,-114.73587 -121.48504,-5.06187 -21.9348,86.0519 13.49833,26.99667 140.04526,6.74917 z"
       id="path2875" />
    <path
       sodipodi:type="arc"
       style="fill:#0000ff;fill-opacity:1;stroke:#000000;stroke-width:4.83809555;stroke-linejoin:round;stroke-miterlimit:4;stroke-opacity:1;stroke-dasharray:none"
       id="path7121"
       sodipodi:cx="363.65491"
       sodipodi:cy="506.87982"
       sodipodi:rx="226.27417"
       sodipodi:ry="226.27417"
       d="m 589.92908,506.87982 a 226.27417,226.27417 0 1 1 -452.54834,0 226.27417,226.27417 0 1 1 452.54834,0 z"
       transform="matrix(0.8267716,0,0,0.8267716,80.537661,98.985978)" />
    <path
       style="fill:#00ff00;stroke:#000000;stroke-width:0.80527306px;stroke-linecap:butt;stroke-linejoin:miter;stroke-opacity:1"
       d="m 390.53554,704.72996 c 0.54229,0 1.08461,0 1.62688,0 0.13561,0 0.54232,0 0.40675,0 -0.27114,0 -1.08461,0 -0.81346,0 0.67787,0 1.35574,0 2.03363,0 0.54231,0 1.08459,0 1.62689,0 0.13558,0 0.40674,-0.13558 0.40674,0 0,0.13557 -0.54231,0 -0.40674,0 0.40674,0 0.81345,0 1.22017,0 0.13557,0 0.28908,0.0676 0.40671,0 0.84154,-0.48204 -1.35786,0.32043 0.33484,-0.52586 0.12125,-0.0607 0.28547,0.34824 0.40672,0 0.0632,-0.18107 0.30714,0.18232 0.47864,0.0965 0.12125,-0.0607 0.28545,-0.0114 0.40673,-0.0721 0.17147,-0.0857 0.37902,-0.17718 0.5505,-0.26292 0.10513,-0.0526 2.00829,-0.43139 2.29656,-0.43139 0.27115,0 0.91802,-0.17828 0.81344,0.0721 -0.27114,0.64862 -1.08459,0.24815 -0.81344,0.21571 0.40384,-0.0485 1.11863,-0.79931 1.29207,-0.43141 0.13558,0.2876 0.47862,-0.13557 0.47862,0 0,0.13558 -1.1894,0.14381 -1.05382,0.14381 0.40673,0 1.31676,-0.43141 1.72347,-0.43141 0.13559,0 0.11914,0.008 0.11914,0.1438 0,0.13557 -0.215,-0.048 -0.11914,-0.1438 0.4954,-0.49537 0.90873,-0.19052 1.22017,-0.81344 0.0607,-0.12124 0,-0.27114 0,-0.40673 0,-0.13558 0,-0.27115 0,-0.40674 0,-0.67786 0,-1.35574 0,-2.0336 0,-0.54229 0,-1.08461 0,-1.62691 0,-0.13557 -0.13557,-0.40672 0,-0.40672 0.59846,0 -0.9422,1.34893 0.40675,0 0.13555,-0.13557 0.23521,-0.32096 0.40671,-0.40672 0.12125,-0.0607 0.28546,0.0607 0.40672,0 0.17148,-0.0857 0.23524,-0.32099 0.40672,-0.40673 0.12127,-0.0607 0.31086,0.0959 0.40672,0 0.19174,-0.19173 -0.19173,-0.62171 0,-0.81346 0.0959,-0.0958 0.31087,0.0959 0.40672,0 0.0959,-0.0958 -0.0958,-0.31084 0,-0.40671 0.0959,-0.0959 0.28546,0.0607 0.40676,0 0.17146,-0.0857 0.23521,-0.32098 0.4067,-0.40671 0.24253,-0.12128 0.62171,0.19172 0.81345,0 0.0958,-0.0959 -0.0959,-0.31086 0,-0.40674 0.12595,-0.12592 1.90768,0.12595 2.03362,0 0.19174,-0.19172 -0.27115,-0.81343 0,-0.81343 0.12155,0 -0.26773,1.34893 0.40672,0 0.12127,-0.24254 -0.19174,-0.62174 0,-0.81347 0.0958,-0.0959 0.31087,0.0959 0.40672,0 0.84154,-0.84152 -1.28595,0.0329 0.40673,-0.81344 0.12127,-0.0607 0.31087,0.0959 0.40674,0 0.84151,-0.84153 -1.28599,0.033 0.40672,-0.81344 0.12124,-0.0607 0.31086,0.0959 0.40671,0 0.84154,-0.84153 -1.28596,0.0329 0.40672,-0.81346 0.12127,-0.0607 0.31086,0.0958 0.40673,0 0.19173,-0.19173 -0.19173,-0.62172 0,-0.81344 0.0959,-0.0959 0.31087,0.0959 0.40674,0 0.19172,-0.19174 -0.12128,-0.57094 0,-0.81346 0.0857,-0.17149 0.32096,-0.23523 0.40671,-0.40672 0.0607,-0.12126 -0.0607,-0.28546 0,-0.40674 0.41132,-0.82259 0.94388,-0.1304 1.22018,-0.40673 0.84153,-0.8415 -1.28596,0.033 0.40671,-0.81343 0.12127,-0.0607 0.31087,0.0959 0.40674,0 0.0958,-0.0959 -0.0607,-0.28545 0,-0.40671 0.0541,-0.10801 1.11218,-1.16619 1.22017,-1.2202 1.19691,-0.59844 -0.5355,0.94222 0.81343,-0.40672 0.5905,-0.59047 0.40673,-0.44029 0.40673,-1.22017 0,-0.13558 0,-0.54229 0,-0.40671 0,1.70936 -0.0857,0.33197 0.40673,-0.40673 0.0754,-0.1128 0.31087,0.0959 0.40674,0 0.0959,-0.0959 -0.0958,-0.31086 0,-0.40674 0.0959,-0.0959 0.31084,0.0959 0.40673,0 0.0959,-0.0959 -0.0959,-0.31084 0,-0.4067 0.0959,-0.0959 0.27115,0 0.40671,0 0.13558,0 0.27116,0 0.4067,0 0.28831,0 2.33521,0.0526 2.44035,0 1.86144,-0.93071 -1.72588,0.16857 1.2202,-0.81347 0.12861,-0.043 0.31085,0.0959 0.40674,0 0.0959,-0.0959 -0.0959,-0.31085 0,-0.40671 0.19172,-0.19174 0.57091,0.12125 0.81341,0 0.17151,-0.0857 0.23526,-0.32098 0.40673,-0.40673 0.12127,-0.0607 0.31087,0.0959 0.40672,0 0.19174,-0.19173 -0.19171,-0.62172 0,-0.81344 0.0959,-0.0959 0.31085,0.0958 0.40674,0 0.11131,-0.1113 -0.11032,-1.40627 0,-1.62691 0.0857,-0.1715 0.32098,-0.23522 0.40674,-0.40672 0.12125,-0.24251 -0.27116,-0.81345 0,-0.81345 0.13554,0 -0.0959,0.5026 0,0.40673 0.21434,-0.21436 0.19236,-0.59909 0.40672,-0.81345 0.0959,-0.0959 0.31086,0.0959 0.40671,0 0.0959,-0.0959 -0.0607,-0.28545 0,-0.40673 0.0857,-0.1715 0.27115,-0.27114 0.40671,-0.40672 0.13558,-0.13557 0.23525,-0.32098 0.40673,-0.40672 0.12126,-0.0607 0.31087,0.0958 0.40674,0 0.0959,-0.0959 0,-0.27115 0,-0.40674 0,-0.13557 0,-0.27114 0,-0.40671 0,-0.13557 0,-0.5423 0,-0.40673 0,0.27116 0,1.08459 0,0.81344 0,-1.49131 0,-2.98263 0,-4.47396 0,-0.5423 0,-1.0846 0,-1.62691 0,-0.13555 0,-0.27115 0,-0.40671 0,-0.13557 -0.13559,-0.40672 0,-0.40672 0.13557,0 0,0.54228 0,0.40672 0,-0.0967 -0.0457,-1.53574 0,-1.62689 0.24402,-0.48808 0.97613,-0.73212 1.22016,-1.22017 0.16272,-0.32538 -0.16269,-0.89479 0,-1.22018 0.84636,-1.69269 -0.0283,0.43479 0.81344,-0.40674 0.19175,-0.19171 -0.12124,-0.57091 0,-0.81345 0.84637,-1.69268 -0.0281,0.43483 0.81348,-0.4067 0.0831,-0.0831 -0.0807,-1.05891 0,-1.22019 0.0857,-0.17148 0.32095,-0.23522 0.40672,-0.40671 0.1278,-0.25565 -0.12783,-1.37125 0,-1.62691 0.0856,-0.17149 0.32096,-0.23522 0.40671,-0.40672 0.12127,-0.24252 -0.12126,-0.57091 0,-0.81345 0.0857,-0.17148 0.27117,-0.27114 0.40672,-0.40672 0.13559,-0.13557 0.23526,-0.32099 0.40672,-0.40672 0.12126,-0.0607 0.31086,0.0959 0.40675,0 0.0958,-0.0959 -0.0607,-0.28547 0,-0.40672 0.0941,-0.18835 1.38767,-1.38769 1.62688,-1.62692 0.13559,-0.13555 0.23524,-0.32096 0.40671,-0.40669 0.12127,-0.0607 0.31086,0.0959 0.40674,0 0.0959,-0.0959 -0.0959,-0.31088 0,-0.40675 0.0959,-0.0958 0.31087,0.0959 0.40674,0 0.84152,-0.84152 -1.28596,0.0329 0.40671,-0.81344 0.12128,-0.0607 0.28547,0.0607 0.40673,0 0.17149,-0.0857 0.23523,-0.32098 0.40669,-0.40673 0.12129,-0.0607 0.2855,0.0607 0.40675,0 0.48806,-0.24402 0.73212,-0.97613 1.22019,-1.22018 0.12125,-0.0607 0.28545,0.0607 0.40671,0 0.1715,-0.0857 0.23523,-0.32097 0.40671,-0.40672 0.12127,-0.0607 0.31087,0.0959 0.40673,0 0.0959,-0.0959 0,-0.27116 0,-0.40671 0,-0.28829 -0.0526,-2.33519 0,-2.44035 0.0857,-0.17148 0.32098,-0.23524 0.40674,-0.40673 0.12126,-0.24252 -0.19172,-0.62171 0,-0.81344 0.0959,-0.0959 0.31086,0.0959 0.40673,0 0.84152,-0.84154 -1.28597,0.0329 0.40672,-0.81347 0.12128,-0.0607 0.28545,0.0607 0.40671,0 0.1715,-0.0856 0.23525,-0.32096 0.4067,-0.40672 0.12129,-0.0607 0.3109,0.0959 0.40675,0 0.0959,-0.0959 0,-0.27113 0,-0.40672 0,-1.08458 0,-2.16919 0,-3.25378 0,-1.5133 0,-2.35048 0,-2.84709 0,-0.13556 0,-0.27114 0,-0.40671 0,-0.13559 0.0959,-0.31086 0,-0.40674 -0.19172,-0.19173 -0.57091,0.12128 -0.81345,0 -0.1715,-0.0857 -0.23522,-0.32097 -0.40671,-0.40672 -0.16129,-0.0807 -1.13704,0.0831 -1.22019,0 -0.0959,-0.0959 0.0959,-0.31087 0,-0.40672 -0.0959,-0.0959 -0.31082,0.0959 -0.40673,0 -0.0958,-0.0959 0.0959,-0.31086 0,-0.40672 -0.0958,-0.0959 -0.31084,0.0959 -0.40671,0 -0.0959,-0.0959 0.0958,-0.31085 0,-0.40672 -0.0959,-0.0959 -0.31085,0.0959 -0.40671,0 -0.0959,-0.0959 0.0959,-0.31087 0,-0.40673 -0.0959,-0.0959 -0.28546,0.0607 -0.40674,0 -0.17149,-0.0856 -0.23524,-0.32097 -0.40672,-0.40673 -0.12125,-0.0607 -0.31085,0.0959 -0.40673,0 -0.0959,-0.0959 0.0959,-0.31086 0,-0.40673 -0.11129,-0.11128 -1.40626,0.11033 -1.62688,0 -0.17151,-0.0857 -0.23525,-0.32097 -0.40674,-0.4067 -0.12126,-0.0607 -0.31085,0.0959 -0.40674,0 -0.0959,-0.0959 0.0959,-0.31087 0,-0.40675 -0.19171,-0.19173 -0.62169,0.19175 -0.81343,0 -0.0959,-0.0959 0.0959,-0.31084 0,-0.4067 -0.0959,-0.0959 -0.27115,0 -0.40673,0 -0.13557,0 -0.27115,0 -0.40671,0 -1.35574,0 -2.7115,0 -4.06726,0 -2.44034,0 -4.8807,0 -7.32105,0 -0.13555,0 -0.27114,0 -0.40671,0 -0.13555,0 -0.31086,0.0959 -0.4067,0 -0.0959,-0.0959 0.0958,-0.31087 0,-0.40673 -0.0959,-0.0959 -0.31088,0.0959 -0.40674,0 -0.0958,-0.0959 0.0959,-0.31088 0,-0.40674 -0.19173,-0.19173 -0.62173,0.19174 -0.81346,0 -0.0959,-0.0958 0.0959,-0.31086 0,-0.40671 -0.19172,-0.19174 -0.62171,0.19174 -0.81344,0 -0.0959,-0.0959 0.0959,-0.31087 0,-0.40672 -0.11129,-0.11131 -1.40624,0.11032 -1.62691,0 -0.17148,-0.0857 -0.2352,-0.32099 -0.40673,-0.40673 -0.24249,-0.12127 -0.57091,0.12124 -0.81343,0 -0.1715,-0.0857 -0.23524,-0.32099 -0.40672,-0.40673 -0.12127,-0.0607 -0.31087,0.0959 -0.40672,0 -0.0959,-0.0959 0.0958,-0.31086 0,-0.40673 -0.0959,-0.0959 -0.31087,0.0958 -0.40673,0 -0.0959,-0.0959 0.0958,-0.31085 0,-0.40672 -0.19173,-0.19173 -0.62172,0.19173 -0.81345,0 -0.0959,-0.0958 0.0958,-0.31087 0,-0.40672 -0.0131,-0.0131 -1.12154,0 -1.22018,0 -0.67785,0 -1.35574,0 -2.03361,0 -0.13558,0 -0.27116,0 -0.40672,0 -0.1356,0 -0.28547,-0.0607 -0.40674,0 -0.48807,0.24404 -0.73211,0.97615 -1.22017,1.22017 -0.12126,0.0607 -0.28547,-0.0607 -0.40672,0 -0.1715,0.0857 -0.23524,0.32099 -0.40672,0.40673 -0.32539,0.16268 -0.89481,-0.16268 -1.22018,0 -1.6927,0.84635 0.43481,-0.0282 -0.40674,0.81345 -0.19172,0.19174 -0.57092,-0.12127 -0.81341,0 -1.69272,0.84633 0.43479,-0.0282 -0.40676,0.81345 -0.0958,0.0959 -0.31084,-0.0959 -0.40672,0 -0.19173,0.19172 0.19174,0.6217 0,0.81343 -0.0959,0.0959 -0.31086,-0.0959 -0.40672,0 -0.0959,0.0959 0.0958,0.31086 0,0.40675 -0.0959,0.0959 -0.27115,0 -0.40672,0 -0.13559,0 -0.27115,0 -0.40672,0 -0.27116,0 -0.5423,0 -0.81346,0 -0.13557,0 -0.40673,0.13555 -0.40673,0 0,-0.1356 0.54232,0 0.40673,0 -0.27114,0 -0.54228,0 -0.81345,0 -0.40672,0 -0.81343,0 -1.22016,0 -0.13558,0 -0.5423,0 -0.40673,0 1.70937,0 0.33198,0.0857 -0.40673,-0.40675 -0.1128,-0.0754 0,-0.27114 0,-0.4067 0,-0.13559 0,-0.27117 0,-0.40673 0,-1.08461 0,-2.16921 0,-3.2538 0,-0.67786 0,-1.35576 0,-2.03363 0,-0.13556 0,-0.27116 0,-0.40672 0,-0.13557 -0.0607,-0.28545 0,-0.40672 0.0856,-0.17149 0.321,-0.23524 0.40673,-0.40672 0.0607,-0.12126 0,-0.27115 0,-0.40673 0,-0.13558 0,-0.27116 0,-0.40674 0,-0.81343 0,-1.62689 0,-2.44034 0,-0.14937 0.0164,-1.61053 0,-1.62688 -0.0959,-0.0959 -0.31085,0.0959 -0.40673,0 -0.19172,-0.19173 0.19173,-0.62173 0,-0.81348 -0.20335,-0.20332 -1.01681,0.20339 -1.22016,0 -0.0959,-0.0959 0.0958,-0.31084 0,-0.40671 -0.0959,-0.0959 -0.28548,0.0607 -0.40671,0 -0.48807,-0.24403 -0.73214,-0.97614 -1.22021,-1.22016 -0.12126,-0.0607 -0.31085,0.0959 -0.40672,0 -0.0958,-0.0959 0.0959,-0.31086 0,-0.40672 -0.0958,-0.0959 -0.28545,0.0607 -0.4067,0 -0.17151,-0.0857 -0.23525,-0.32098 -0.40673,-0.40675 -0.12128,-0.0607 -0.31087,0.0959 -0.40672,0 -0.0958,-0.0959 0.0959,-0.31083 0,-0.40672 -0.0958,-0.0959 -0.28548,0.0607 -0.40674,0 -0.17149,-0.0857 -0.23522,-0.32096 -0.40674,-0.4067 -0.2425,-0.12128 -0.62169,0.19172 -0.81343,0 -0.0959,-0.0959 0.0959,-0.31088 0,-0.40674 -0.0959,-0.0958 -0.28547,0.0607 -0.40671,0 -0.1715,-0.0857 -0.23524,-0.32098 -0.40674,-0.40671 -0.24251,-0.12127 -0.62171,0.19174 -0.81346,0 -0.0959,-0.0959 0.0959,-0.31087 0,-0.40671 -0.19172,-0.19176 -0.81343,0.27111 -0.81343,0 0,-0.13561 0.54231,0 0.40671,0 -0.54231,0 -1.0846,0 -1.62688,0 -2.57593,0 -5.15184,0 -7.72777,0 -1.22017,0 -2.44036,0 -3.66052,0 -0.13557,0 -0.27115,0 -0.40672,0 -0.13558,0 -0.31086,0.0958 -0.40673,0 -0.19173,-0.19176 0.19172,-0.62175 0,-0.81349 -0.0959,-0.0959 -0.31085,0.0958 -0.40674,0 -0.14275,-0.14275 0.14048,-1.75266 0,-2.03361 -0.0857,-0.1715 -0.32097,-0.23524 -0.40671,-0.40672 -0.0607,-0.12126 0.0958,-0.31087 0,-0.40673 -0.0959,-0.0958 -0.31085,0.0959 -0.40671,0 -0.0958,-0.0958 0.0959,-0.31086 0,-0.40672 -0.0908,-0.0908 -1.79174,0.0807 -2.03364,0 -0.18189,-0.0607 -0.23523,-0.32098 -0.40672,-0.4067 -0.12126,-0.0607 -0.28545,0.0607 -0.40671,0 -0.17152,-0.0857 -0.23525,-0.32102 -0.40671,-0.40675 -0.10514,-0.0526 -2.15208,0 -2.44034,0 -0.13561,0 -0.31089,0.0959 -0.40676,0 -0.0958,-0.0959 0.0959,-0.31084 0,-0.40672 -0.0958,-0.0958 -0.31084,0.0959 -0.40672,0 -0.0959,-0.0958 0.0958,-0.31086 0,-0.40673 -0.0959,-0.0959 -0.31084,0.0958 -0.40673,0 -0.0959,-0.0959 0.0959,-0.31086 0,-0.40673 -0.0959,-0.0959 -0.31085,0.0959 -0.40673,0 -0.0958,-0.0959 0.0959,-0.31085 0,-0.40671 -0.0958,-0.0959 -0.31085,0.0959 -0.4067,0 -0.0959,-0.0959 0.0958,-0.31088 0,-0.40672 -0.0959,-0.0959 -0.28547,0.0607 -0.40672,0 -0.17152,-0.0857 -0.23525,-0.321 -0.40674,-0.40673 -0.12126,-0.0607 -0.31086,0.0959 -0.40674,0 -0.0959,-0.0959 0.0607,-0.28548 0,-0.40673 -0.0857,-0.17148 -0.32096,-0.23524 -0.40671,-0.40672 -0.0607,-0.12127 0.0958,-0.31087 0,-0.40673 -0.0959,-0.0959 -0.31086,0.0959 -0.40673,0 -0.0132,-0.0131 0,-1.12153 0,-1.22018 0,-0.81344 0,-1.62689 0,-2.44034 0,-0.13557 -0.13555,-0.40673 0,-0.40673 0.13559,0 0,0.54233 0,0.40673 0,-0.27114 0.12128,-0.57092 0,-0.81344 -0.0607,-0.12128 -0.31087,0.0959 -0.40672,0 -0.19173,-0.19174 0.19174,-0.62171 0,-0.81345 -0.0959,-0.0959 -0.31086,0.0959 -0.40671,0 -0.19174,-0.19172 0.19174,-0.62173 0,-0.81346 -0.0959,-0.0959 -0.31087,0.0959 -0.40672,0 -0.0959,-0.0959 0.0959,-0.31084 0,-0.40672 -0.0959,-0.0959 -0.31087,0.0959 -0.40674,0 -0.19173,-0.19173 0.19172,-0.6217 0,-0.81344 -0.0131,-0.0132 -1.12152,0 -1.22018,0 -0.5423,0 -1.08458,0 -1.62689,0 -0.13557,0 -0.27115,0 -0.40675,0 -0.13554,0 -0.4067,0.13556 -0.4067,0 0,-0.13557 0.4067,-0.13557 0.4067,0 0,0.84633 -0.57035,0.16366 -0.81342,0.40671 -0.0958,0.0958 0.0959,0.31089 0,0.40673 -0.0831,0.0831 -1.05892,-0.0807 -1.22019,0 -0.17146,0.0857 -0.23523,0.321 -0.40672,0.40672 -0.10694,0.0536 -1.4142,0 -1.62688,0 -0.47512,0 -1.02859,0 -0.81347,0 0.27116,0 1.08461,0 0.81347,0 -0.40674,0 -0.81347,0 -1.22019,0 -0.40673,0 -0.85638,0.18192 -1.22016,0 -0.12126,-0.0607 0.0959,-0.31084 0,-0.40672 -0.0959,-0.0959 -0.28546,0.0607 -0.40674,0 -0.17147,-0.0857 -0.23523,-0.32097 -0.40671,-0.40673 -0.10514,-0.0526 -2.15206,0 -2.44037,0 -0.13555,0 -0.31086,-0.0959 -0.4067,0 -0.0959,0.0958 0.0607,0.28547 0,0.40673 -0.0857,0.1715 -0.32099,0.23523 -0.40672,0.40672 -0.0607,0.12126 0.0959,0.31086 0,0.40675 -0.0958,0.0959 -0.28549,-0.0607 -0.40673,0 -0.17149,0.0857 -0.27115,0.54226 -0.40673,0.40671 -0.13557,-0.1356 0.40673,-0.59846 0.40673,-0.40671 0,2.05467 -0.31258,0.31255 -0.81345,0.81343 -0.0958,0.0959 0.0607,0.28545 0,0.40673 -0.0857,0.17147 -0.32097,0.23523 -0.40674,0.40671 -0.0607,0.12127 0.0958,0.31087 0,0.40673 -0.0131,0.0131 -1.12151,0 -1.22015,0 -1.69243,0 -1.0119,0 -2.44033,0 -0.19179,0 -2.01523,0.0184 -2.03364,0 -0.0185,-0.0185 0,-1.84185 0,-2.0336 0,-0.27116 0,-0.54232 0,-0.81347 0,-0.13558 -0.13559,-0.40673 0,-0.40673 0.13555,0 0,0.54232 0,0.40673 0,-0.27114 0,-0.54228 0,-0.81344 0,-0.13557 0.0959,-0.31088 0,-0.40673 -0.0959,-0.0959 -0.27116,0 -0.40672,0 -0.21271,0 -1.51997,-0.0537 -1.62692,0 -1.69269,0.84634 0.43481,-0.0282 -0.4067,0.81344 -0.0131,0.0131 -1.12154,0 -1.22018,0 -0.13558,0 -0.40673,0.13559 -0.40673,0 0,-0.13555 0.40673,-0.13555 0.40673,0 0,0.19174 -0.215,0.40673 -0.40673,0.40673 -0.27115,0 0.12127,-0.57091 0,-0.81344 -0.0857,-0.17151 -0.32098,-0.23523 -0.40674,-0.40673 -0.1103,-0.22063 0.11129,-1.51561 0,-1.62691 -0.0958,-0.0958 -0.31084,0.0959 -0.40669,0 -0.20338,-0.20334 0.20334,-1.01679 0,-1.22016 -0.0959,-0.0958 -0.27118,0 -0.40674,0 -0.2883,0 -2.3352,-0.0526 -2.44034,0 -0.81687,0.40844 -0.18818,1.37804 -0.40674,2.03361 -0.50259,1.50777 -0.40672,-0.49576 -0.40672,0.81346 0,0.27116 0.27116,0.81344 0,0.81344 -0.27114,0 0,-1.0846 0,-0.81344 0,0.81344 0,1.62689 0,2.44035 0,0.18317 0.062,1.0964 0,1.22016 -0.0857,0.17151 -0.32097,0.23524 -0.40673,0.40673 -0.0607,0.12126 0.0607,0.28548 0,0.40674 -0.0857,0.17146 -0.27114,0.54227 -0.40674,0.40671 -0.13554,-0.13558 0.40674,-0.59844 0.40674,-0.40671 0,0.30314 -0.19235,0.59908 -0.40674,0.81345 -0.0131,0.0131 -1.1215,0 -1.22015,0 -0.13557,0 -0.31087,0.0959 -0.40674,0 -0.0164,-0.0164 0,-1.47755 0,-1.62692 0,-0.13556 0,-0.27115 0,-0.40671 0,-0.13557 0.0958,-0.31086 0,-0.40673 -0.0959,-0.0959 -0.31084,0.0959 -0.4067,0 -0.0831,-0.0831 0.0807,-1.05892 0,-1.22018 -0.0857,-0.17149 -0.32098,-0.23522 -0.40674,-0.40672 -0.16269,-0.32537 0.1627,-0.89479 0,-1.22017 -0.0857,-0.17149 -0.32098,-0.23525 -0.40671,-0.40671 -0.0607,-0.12127 0.0607,-0.28547 0,-0.40675 -0.84636,-1.69266 0.0282,0.43482 -0.81346,-0.40671 -0.0959,-0.0959 0.0959,-0.31084 0,-0.40674 -0.0408,-0.0408 -1.1795,-0.0408 -1.22018,0 -0.0959,0.0959 0.0959,0.31087 0,0.40674 -0.19171,0.19172 -0.62171,-0.19175 -0.81345,0 -0.0958,0.0959 0.0607,0.28547 0,0.40671 -0.0857,0.17151 -0.32099,0.23524 -0.40671,0.40675 -0.0607,0.12124 0.0959,0.31084 0,0.40671 -0.0959,0.0959 -0.31085,-0.0959 -0.40673,0 -0.0959,0.0959 0.13558,0.40673 0,0.40673 -0.13557,0 0.0959,-0.5026 0,-0.40673 -0.34564,0.34568 -0.59484,0.78295 -0.81345,1.22017 -0.0607,0.12126 0.0959,0.31086 0,0.40672 -0.84153,0.84152 0.033,-1.28593 -0.81344,0.40675 -0.0607,0.12124 0.0959,0.31084 0,0.40671 -0.0958,0.0959 -0.28547,-0.0607 -0.40673,0 -0.17149,0.0857 -0.23524,0.32097 -0.40672,0.40672 -0.24252,0.12127 -0.62172,-0.19174 -0.81345,0 -0.2763,0.2763 0.41587,0.80886 -0.40672,1.22017 -0.3254,0.16269 -0.8948,-0.16268 -1.22019,0 -1.69268,0.84636 0.43482,-0.0282 -0.40671,0.81345 -0.0958,0.0959 -0.31087,-0.0959 -0.40673,0 -0.0959,0.0959 0.0959,0.31087 0,0.40674 -0.84154,0.84152 0.033,-1.28597 -0.81344,0.40671 -0.0607,0.12128 0.13556,0.40672 0,0.40672 -0.13558,0 0.0959,-0.50258 0,-0.40672 -0.89559,0.89558 -0.81345,1.09662 -0.81345,2.03362 0,0.13558 0.0607,0.28546 0,0.40673 -0.0857,0.17148 -0.32098,0.23524 -0.40673,0.40672 -0.14047,0.28095 0.14276,1.89087 0,2.03362 -0.0164,0.0164 -1.47753,0 -1.62689,0 -0.13559,0 -0.54231,0 -0.40673,0 0.27114,0 1.08461,0 0.81345,0 -0.67786,0 -1.35574,0 -2.03362,0 -0.27116,0 -0.54231,0 -0.81345,0 -0.13558,0 -0.40672,0.13558 -0.40672,0 0,-0.13556 0.5423,0 0.40672,0 -0.40672,0 -0.81346,0 -1.22017,0 -0.13559,0 -0.31086,-0.0959 -0.40674,0 -0.19172,0.19174 0.27115,0.81345 0,0.81345 -0.13555,0 0,-0.5423 0,-0.40672 0,0.67787 0,1.35575 0,2.03362 0,0.54232 0,1.0846 0,1.6269 0,0.13557 0.13558,0.40672 0,0.40672 -0.13555,0 0,-0.5423 0,-0.40672 0,0.27115 0,0.5423 0,0.81343 0,0.13559 -0.0958,0.31088 0,0.40673 0.0959,0.0959 0.27115,0 0.40674,0 0.13557,0 0.27117,0 0.40671,0 0.54231,0 1.0846,0 1.62691,0 0.13556,0 0.27115,0 0.40672,0 0.13557,0 0.40671,-0.13557 0.40671,0 0,0.13559 -0.54228,0 -0.40671,0 0.27116,0 0.5562,-0.0857 0.81345,0 0.18191,0.0607 0.23523,0.321 0.40673,0.40676 0.12125,0.0607 0.31084,-0.0959 0.40672,0 0.0959,0.0958 -0.0958,0.31083 0,0.40671 0.0959,0.0959 0.28545,-0.0607 0.40672,0 0.17149,0.0857 0.27116,0.27114 0.40673,0.40671 0.13556,0.13558 0.32098,0.23525 0.40672,0.40674 0.12125,0.24251 -0.12125,0.57093 0,0.81342 0.20012,0.40025 1.42677,1.22669 1.62691,1.62692 0.12348,0.24696 -0.12349,2.19338 0,2.44035 0.0857,0.17147 0.32095,0.23523 0.40671,0.4067 0.0737,0.14709 0,1.75076 0,2.03364 0,1.49131 0,2.98266 0,4.47397 0,1.22016 0,2.44035 0,3.66052 0,0.21268 0.0537,1.51995 0,1.62688 -0.0857,0.1715 -0.32097,0.23524 -0.40671,0.40673 -0.12128,0.24253 0.19173,0.62173 0,0.81346 -0.0959,0.0959 -0.31086,-0.0959 -0.40673,0 -0.0959,0.0959 0.0959,0.31085 0,0.40672 -0.0959,0.0959 -0.31087,-0.0959 -0.40673,0 -0.0131,0.0132 0,1.12153 0,1.22016 0,1.49133 0,2.98265 0,4.47397 0,0.28289 -0.0736,1.88656 0,2.03363 0.0857,0.17149 0.32097,0.23524 0.40673,0.40672 0.11033,0.22065 -0.11129,1.51561 0,1.62691 0.0959,0.0959 0.31085,-0.0959 0.40673,0 0.0958,0.0959 -0.0959,0.31084 0,0.40672 0.0958,0.0959 0.28545,-0.0607 0.40671,0 0.34298,0.17149 0.47047,0.64197 0.81344,0.81345 0.12128,0.0607 0.31086,-0.0959 0.40674,0 0.0958,0.0959 -0.0959,0.31086 0,0.40671 0.19172,0.19173 0.57092,-0.12126 0.81345,0 0.34298,0.17151 0.47047,0.64196 0.81344,0.81348 0.12126,0.0607 0.31086,-0.0959 0.40673,0 0.0959,0.0959 -0.0607,0.28544 0,0.4067 0.0857,0.17149 0.27115,0.27115 0.40672,0.40671 0.21413,0.21413 1.11157,1.00295 1.22017,1.22018 0.062,0.12379 0,1.03702 0,1.22018 0,1.22017 0,2.44035 0,3.66053 0,0.21267 -0.0537,1.51994 0,1.62689 0.2513,0.50259 0.39268,0.40672 0.81345,0.40672 0.13558,0 0.40673,-0.13558 0.40673,0 0,0.13559 -0.5423,0 -0.40673,0 2.30477,0 0.13558,-0.27116 0.81344,0.40672 0.0959,0.0959 0.27115,0 0.40675,0 0.13556,0 0.27114,0 0.4067,0 1.35578,0 2.71151,0 4.06726,0 0.19177,0 2.01518,-0.0185 2.03361,0 0.0959,0.0959 0.1356,0.40675 0,0.40675 -0.13556,0 0,-0.54233 0,-0.40675 0,0.81345 0,1.62691 0,2.44036 0,0.0987 -0.0131,1.20707 0,1.22015 0.0979,0.0979 1.52904,-0.0979 1.62691,0 0.0959,0.0959 0,0.27116 0,0.40675 0,0.19176 -0.0185,2.01518 0,2.03362 0.0959,0.0959 0.27114,0 0.40671,0 0.81346,0 1.62689,0 2.44036,0 0.13558,0 0.31085,-0.0959 0.4067,0 0.0959,0.0959 0,0.27115 0,0.40672 0,0.81345 0,1.6269 0,2.44034 0,0.13556 -0.0958,0.31085 0,0.40671 0.0959,0.0959 0.40676,0.1356 0.40676,0 0,-0.19172 -0.59848,-0.40671 -0.40676,-0.40671 0.30317,0 0.52586,0.31085 0.81348,0.40671 0.12861,0.043 0.31086,-0.0959 0.4067,0 0.19175,0.19174 -0.19171,0.62175 0,0.81347 0.20338,0.20335 1.01683,-0.20336 1.22017,0 0.0959,0.0959 -0.0958,0.31084 0,0.40672 0.0959,0.0959 0.27116,0 0.40675,0 0.13556,0 0.27113,0 0.40672,0 0.81345,0 1.62687,0 2.44034,0 0.13558,0 0.27115,0 0.40672,0 0.13556,0 0.28546,-0.0607 0.40672,0 0.17151,0.0857 0.23524,0.32099 0.40673,0.40672 0.24252,0.12127 0.62174,-0.19171 0.81346,0 0.0959,0.0959 -0.0959,0.31085 0,0.40672 0.0959,0.0959 0.28545,-0.0607 0.40673,0 0.17147,0.0857 0.23522,0.32098 0.4067,0.40672 0.28095,0.14047 1.89087,-0.14276 2.03364,0 0.0959,0.0959 -0.0607,0.28548 0,0.40673 0.0857,0.17149 0.32097,0.23524 0.40672,0.40674 0.0807,0.16126 -0.0831,1.13702 0,1.22017 0.0164,0.0164 1.47754,0 1.6269,0 0.18317,0 1.09638,-0.0621 1.22017,0 0.17148,0.0857 0.23524,0.32098 0.40671,0.4067 0.12128,0.0607 0.27116,0 0.40674,0 0.28829,0 2.33518,-0.0526 2.44035,0 0.17149,0.0857 0.2352,0.32099 0.40673,0.40674 0.12124,0.0607 0.31084,-0.0959 0.40671,0 0.84151,0.84153 -1.28596,-0.0329 0.40672,0.81344 0.24252,0.12127 0.62171,-0.19172 0.81344,0 0.20338,0.20339 -0.20334,1.01682 0,1.22018 0.0959,0.0958 0.28549,-0.0607 0.40675,0 0.17147,0.0857 0.23521,0.32098 0.40671,0.40673 0.24251,0.12125 0.62171,-0.19174 0.81345,0 0.0958,0.0959 -0.0607,0.28545 0,0.40672 0.0857,0.17149 0.32097,0.23524 0.4067,0.40673 0.0607,0.12125 -0.0959,0.31085 0,0.40672 0.0959,0.0958 0.28548,-0.0607 0.40675,0 0.17151,0.0857 0.23522,0.32099 0.40672,0.40672 0.32539,0.1627 0.89481,-0.16269 1.22017,0 0.1715,0.0857 0.23525,0.32098 0.40672,0.40672 0.16128,0.0807 1.13704,-0.0831 1.2202,0 0.0959,0.0958 -0.0959,0.31087 0,0.40674 0.19171,0.19173 0.81343,-0.27115 0.81343,0 0,0.13556 -0.5026,-0.0959 -0.40671,0 0.21435,0.21436 0.5612,0.23857 0.81343,0.40672 0.31907,0.21271 0.54231,0.5423 0.81344,0.81345 0.21415,0.21413 1.1116,1.00295 1.2202,1.22016 0.12347,0.24698 -0.1235,2.19338 0,2.44035 0.0856,0.17149 0.32096,0.23524 0.4067,0.40674 0.0807,0.16126 -0.0831,1.13702 0,1.22015 0.0959,0.0959 0.28545,-0.0607 0.40673,0 0.17151,0.0857 0.27116,0.27114 0.40673,0.40673 0.13556,0.13559 0.32099,0.23525 0.40672,0.40672 0.12126,0.24252 -0.1917,0.62174 0,0.81346 0.0959,0.0959 0.31086,-0.0959 0.40676,0 0.0958,0.0959 0,0.27116 0,0.40673 0,0.28288 -0.0737,1.88653 0,2.03362 0.0857,0.17149 0.27113,0.27116 0.4067,0.40673 0.13557,0.13558 0.23524,0.32097 0.40671,0.4067 0.1238,0.062 1.03699,0 1.22017,0 0.81347,0 1.6269,0 2.44035,0 0.0987,0 1.20711,-0.0131 1.22019,0 0.84152,0.84155 -1.28598,-0.0329 0.40671,0.81345 0.12128,0.0607 0.31085,-0.0959 0.40671,0 0.1113,0.1113 -0.11031,1.40627 0,1.62691 0.0857,0.17147 0.321,0.23524 0.40674,0.40672 0.0607,0.12127 -0.0959,0.31087 0,0.40672 0.84153,0.84154 -0.033,-1.28594 0.81345,0.40675 0.0607,0.12125 -0.0958,0.31086 0,0.40672 0.0959,0.0959 0.31085,-0.0959 0.40672,0 0.0959,0.0959 0,0.27113 0,0.40671 0,0.81345 0,1.62692 0,2.44035 0,0.13558 0,0.27115 0,0.40672 0,0.13558 -0.0958,0.31085 0,0.40672 0.11129,0.1113 1.40625,-0.11033 1.62692,0 0.17147,0.0857 0.27115,0.27116 0.40671,0.40674 0.13557,0.13556 0.32098,0.23522 0.40673,0.40672 0.0607,0.12128 -0.0959,0.31086 0,0.40672 0.0958,0.0959 0.31085,-0.0959 0.40671,0 0.0959,0.0959 -0.0607,0.28545 0,0.40673 0.0541,0.10799 1.11219,1.16616 1.2202,1.22016 0.2425,0.12126 0.5709,-0.12125 0.81342,0 0.48808,0.24406 0.73211,0.97614 1.22018,1.22018 0.24252,0.12127 0.62171,-0.19173 0.81345,0 0.0326,0.0326 -0.0271,0.65091 0,0.81346 0.11365,0.68187 0.27116,1.35572 2.03362,2.03361 z"
       id="path7637"
       sodipodi:nodetypes="csssssssssssssssssssssssssssssssssssssssssssssssssssssssssssssssssssssssssssssssssssssssssssssssssssssssssssssssssssssssssssssssssssssssssssssssssssssssssssssssssssssssssssssssssssssssssssssssssssssssssssssssssssssssssssssssssssssssssssssssssssssssssssssssssssssssssssssssssssssssssssssssssssssssssssssssssssssssssssssssssssssssssssssssssssssssssssssssssssssssssssssssssssssssssssssssssssssssssssssssssssssssssssssssssssssssssssssssssssssssssssssssssssssssssssssssssssssssssssssssssssssssssssssssssssssssssssssssssssssssssssssssssssssssssssssssssssssssssssssssssssc" />
    <path
       style="fill:#00ff00;stroke:#000000;stroke-width:0.80527306px;stroke-linecap:butt;stroke-linejoin:miter;stroke-opacity:1"
       d="m 237.68769,397.9121 c 0.48505,-0.9701 1.56155,-1.38153 2.04658,-2.35161 1.67366,-1.71395 1.19014,-1.17395 2.38952,-2.73942 2.40148,-2.68243 5.7364,-6.05755 9.2669,-9.60984 1.70954,-1.1916 2.16746,-2.32702 4.34738,-3.95958 3.73158,-3.98691 2.92196,-1.44526 5.52392,-4.91381 2.72813,-1.62431 2.1322,-1.66894 4.86296,-3.85639 0.48506,-0.24255 1.83318,-1.64435 2.31824,-1.88686 0.62071,-0.31034 1.62923,-1.39928 2.24993,-1.70964 3.03139,-2.00123 2.59662,-1.77371 4.88768,-3.46559 1.22266,-0.64628 3.07244,-2.14959 4.31547,-2.57396 4.35577,-2.64018 3.26307,-1.94732 7.30904,-4.83681 0.38348,0 0.71609,-0.45757 1.09957,-0.45757 0.38343,0 0.79449,-0.84102 0.79449,-0.45757 -1.49273,0.58682 1.39339,0 2.30078,0 0.38346,0 0.87924,-0.27114 1.15038,0 0.0466,0.0466 0,4.1791 0,4.60156 0,0.38348 0.17149,0.80742 0,1.15039 -0.2425,0.48504 -0.76692,0.76693 -1.15038,1.15041 -0.38347,0.38346 -0.66535,0.90785 -1.15039,1.15038 -0.92033,0.46017 -2.53085,-0.46015 -3.45116,0 -4.78766,2.39381 1.2298,-0.0796 -1.1504,2.3008 -0.27114,0.27113 -0.87924,-0.27118 -1.15038,0 -0.11504,0.11503 -0.11504,3.33611 0,3.45116 1.76891,-0.12362 -0.92506,-1.84191 2.30078,0 0.72755,0.2425 1.53383,0 2.30077,0 0.38347,0 0.76693,0 1.15039,0 0.38348,0 1.15039,-0.38348 1.15039,0 0,0.38347 -1.53385,0 -1.15039,0 0.76692,0 1.53385,0 2.30077,0 0.76695,0 1.53387,0 2.30079,0 1.55246,-0.28096 -0.48047,0.46545 2.30077,0 0.34299,-0.1715 0,-0.76695 0,-1.15041 0,-0.38345 0,-0.76692 0,-1.1504 0,-0.38345 -0.27114,-0.87922 0,-1.15035 0.27116,-0.27118 0.87926,0.27113 1.1504,0 0.38312,-0.38314 -0.38309,-1.91769 0,-2.3008 0.27116,-0.27116 0.80741,0.1715 1.15039,0 0.48505,-0.24253 0.66533,-0.90788 1.1504,-1.15038 0.34295,-0.1715 0.8074,0.17147 1.15038,0 0.48505,-0.24254 0.66536,-0.90788 1.15039,-1.15041 1.32633,-0.35216 1.26197,0.18696 0,0 0.76693,0 1.53386,0 2.30078,0 1.40615,-0.006 2.18709,-0.50864 3.4512,-1.15039 0.64902,-0.21632 2.69521,0 3.45114,0 3.06771,0 6.13542,0 9.20312,0 1.53387,0 3.06772,0 4.60156,0 0.38348,0 0.76695,0 1.15039,0 1.14197,0.0266 1.03321,-0.85748 2.30078,1.15039 0.27115,0.27114 0.80742,-0.17149 1.15039,0 0.48505,0.24253 0.76693,0.76693 1.15039,1.15041 0.38347,0.38346 0.90788,0.66532 1.15039,1.15038 0.1715,0.34298 -0.27113,0.87925 0,1.15038 0.27684,0.27683 4.32475,-0.27679 4.60156,0 0.27114,0.27116 0,0.76694 0,1.15042 0,1.9173 0,3.83463 0,5.75194 0,6.51887 0,-7.66926 0,-1.1504 0,1.1504 0,2.30078 0,3.45116 0.15033,1.77382 -0.38472,-0.77251 1.15038,1.15041 1.53386,0.76692 0.71901,0 1.15041,1.15037 0.67321,1.79525 0,3.83465 0,5.75197 0,0.76691 0,1.53385 0,2.30078 -0.019,1.70715 0.32214,-0.69414 -1.15041,1.15037 -0.68595,0.343 -1.6148,-0.34296 -2.30077,0 -1.75432,0.87717 -1.15038,3.02308 -1.15038,4.60157 0,1.1504 0,2.30078 0,3.45117 0,0.38346 0,1.53387 0,1.15041 0,-0.76695 0,-3.06773 0,-2.3008 0,2.3008 0,4.60156 0,6.90235 0,0.38345 0.27115,0.87923 0,1.15038 -0.0371,0.0371 -3.17217,0 -3.45118,0 -0.38346,0 -1.53384,0 -1.15039,0 0.76693,0 3.06772,0 2.30078,0 -0.69093,0 -3.34891,0 -4.60154,0 -0.38347,0 -1.53385,0 -1.15041,0 0.76694,0 3.06772,0 2.30078,0 -1.15037,0 -2.35981,0.36381 -3.45117,0 -0.36377,-0.12125 0,-0.76693 0,-1.15038 -2.32357,0.16702 -1.56334,0.11142 -2.30078,-1.1504 -0.27114,-0.27114 -0.87922,0.27115 -1.15039,0 -0.27114,-0.27114 0.27117,-0.87925 0,-1.15039 -0.27114,-0.27113 -0.87922,0.27114 -1.15039,0 -0.18151,-1.39436 0.0381,-2.092 0,-5.75194 0,-0.38346 0.27117,-0.87924 0,-1.1504 -0.27114,-0.27113 -0.87924,0.27116 -1.15038,0 -0.27116,-0.27113 0,-0.76691 0,-1.15038 0,-0.27338 -0.1289,-4.34372 0,-4.60156 0.24252,-0.48505 0.76693,-0.76693 1.15038,-1.1504 2.80619,-1.84122 0.48808,-0.40886 2.30078,-2.30078 0.17149,-0.34298 -0.38346,-1.15039 0,-1.15039 0.15026,2.31379 0,-0.0881 0,-1.15039 0,-0.38346 0.27113,-0.87925 0,-1.15039 -0.27114,-0.27115 -0.76691,0 -1.15039,0 -0.279,0 -3.41417,-0.037 -3.45117,0 -0.27115,0.27114 0.27116,0.87925 0,1.15039 -0.54229,0.54229 -1.61482,-0.34297 -2.30077,0 -1.59678,0.79839 -1.15041,2.04691 -1.15041,3.45118 0,0.38346 0.27116,0.87923 0,1.15038 -0.27113,0.27116 -0.87923,-0.27115 -1.15039,0 -0.27112,0.27116 0.27116,0.87926 0,1.1504 -0.27112,0.27113 -0.87922,-0.27114 -1.15038,0 -0.27115,0.27113 0.17149,0.80741 0,1.15037 -0.24252,0.48505 -0.90786,0.66536 -1.15039,1.15039 -0.17148,0.34298 0,0.76696 0,1.15041 0,0.38345 0,0.76692 0,1.15039 0,1.15038 0,2.30078 0,3.45116 0.0326,1.58633 0,-0.5436 0,2.3008 0.19355,1.715 -1.11239,-1.05773 -1.15038,2.30076 -0.54229,0.5423 -1.75847,-0.54228 -2.30076,0 -0.27118,0.27114 0.27111,0.87925 0,1.15039 -2.30016,0.0503 -4.6016,0 -6.90237,0 -1.37871,0.2598 -1.20859,-0.17905 0,0 -2.30078,0 -4.60157,0 -6.90234,0 -0.38347,0 -0.87924,-0.27114 -1.1504,0 -0.27113,0.27115 0.1715,0.80741 0,1.1504 -0.24251,0.48504 -0.90784,0.66532 -1.15039,1.15038 -0.17146,0.34299 0,0.76694 0,1.1504 0.32163,2.30358 -0.14649,2.98444 -1.15038,4.60156 -0.34298,0.68595 0.5423,1.75848 0,2.30078 -0.27115,0.27115 -0.87923,-0.27117 -1.15039,0 -0.27113,0.27115 0.27116,0.87924 0,1.15038 -0.27113,0.27115 -0.87924,-0.27114 -1.15039,0 -0.27114,0.27115 0.17149,0.80743 0,1.15041 -0.24255,0.48503 -0.90785,0.66533 -1.15038,1.15037 -0.343,0.68597 0.5423,1.75847 0,2.3008 -0.27118,0.27114 -0.8074,-0.17153 -1.15039,0 -1.5968,0.79839 -1.1504,2.0469 -1.1504,3.45117 0,0.76691 0,3.0677 0,2.30076 0,-0.76691 0,-3.0677 0,-2.30076 -0.0667,5.01663 -0.46744,3.65246 1.1504,5.75192 0.037,0.0371 3.17216,0 3.45116,0 0.77512,0 1.52567,0 2.30077,0 1.28423,0.0495 -0.0643,-0.14705 2.30079,1.15041 0.27117,0.27114 0,0.76692 0,1.15038 0,2.68426 0,5.36849 0,8.05275 -0.12535,7.78734 -0.47883,2.1066 1.1504,5.75193 0.27114,0.27117 0.76693,0 1.15037,0 0.42248,0 4.5553,0.0466 4.60157,0 0.27115,-0.27113 0,-0.76691 0,-1.15038 0,-2.30078 0,-4.60155 0,-6.90235 0.0494,-1.28421 -0.14707,0.0643 1.15039,-2.30077 0.27116,-0.27115 0.87924,0.27115 1.15039,0 0.27115,-0.27115 -0.27115,-0.87924 0,-1.15039 0.27115,-0.27114 0.87924,0.27115 1.15039,0 0.27115,-0.27114 0,-0.76692 0,-1.15039 0,-0.38346 0,-0.76692 0,-1.1504 0,-4.34591 0,5.11285 0,-2.30079 0,-0.38345 -0.27115,-0.87922 0,-1.15037 0.27115,-0.27116 0.87924,0.27115 1.15039,0 0.0242,-1.11019 0.017,-1.13004 1.15039,-1.15038 2.32664,-1.16332 0.36889,-2.66968 1.15042,-3.45117 0.27111,-0.27116 0.87922,0.27112 1.15036,0 0.27117,-0.27116 -0.12125,-0.78662 0,-1.15041 0.27117,-0.81344 0.87924,-1.48732 1.1504,-2.30076 0.24135,-0.72407 0,-4.71505 0,-5.75196 0,-0.38348 0,-0.76694 0,-1.15037 0,-0.38348 -0.27116,-0.87927 0,-1.15041 0.27114,-0.27115 0.87923,0.27114 1.15038,0 0.0828,-2.29086 0.3901,-2.15021 1.15039,-3.45116 0.037,-0.0371 3.17217,0 3.45118,0 0.38346,0 1.53385,0 1.15037,0 -0.76691,0 -3.06769,0 -2.30078,0 1.15041,0 2.30078,0 3.45118,0 1.58634,-0.0326 -0.54359,0 2.30078,0 0.38347,0 0.87925,-0.27117 1.15039,0 0.57521,0.57517 -0.57519,2.87596 0,3.45116 0.2352,0.23516 2.99504,-0.22806 3.45117,0 0.22021,0.1101 4.49146,4.38135 4.60156,4.60157 0.1715,0.34297 -0.27115,0.87922 0,1.15037 0.27114,0.27116 0.76693,0 1.15039,0 2.30079,0 4.60156,0 6.90233,0 0.38348,0 0.87926,-0.27115 1.15041,0 0.5423,0.54229 -0.54229,1.75847 0,2.3008 0.27114,0.27114 0.87924,-0.27116 1.15039,0 0.54229,0.54229 -0.34298,1.61482 0,2.30076 2.39381,4.78766 -0.0796,-1.2298 2.30077,1.15041 0.54229,0.54228 -0.34298,1.61481 0,2.30076 2.39384,4.78765 -0.0796,-1.22981 2.30079,1.15041 0.54231,0.54228 -0.54229,1.75846 0,2.30075 0.54231,0.54231 1.75848,-0.54229 2.30078,0 0.27115,0.27117 -0.27114,0.87926 0,1.15041 0.27115,0.27114 0.87923,-0.27115 1.15038,0 0.27115,0.27114 -0.17147,0.80742 0,1.15038 0.24255,0.48504 0.90787,0.66535 1.15041,1.1504 0.17147,0.34297 0,0.76692 0,1.15039 0,0.38347 0,0.76691 0,1.15039 0,0.38346 0.38344,1.15039 0,1.15039 -2.8513,0.35957 3.64959,2.06461 4.60154,3.45118 0.27117,0.27113 0.8074,-0.17153 1.15038,0 0.97011,0.48504 1.33071,1.81571 2.30081,2.30077 0.34298,0.17151 0.87925,-0.27115 1.15038,0 -0.2941,4.87238 1.28015,-0.2552 0,4.60157 -0.17149,0.51446 -0.66534,0.90785 -1.15038,1.15037 -0.41602,0.20801 -4.95182,0 -5.75197,0 -2.30076,0 -4.60155,0 -6.90233,0 -0.5181,0 -3.10106,-0.17504 -3.45117,0 -0.48506,0.24253 -0.66535,0.90789 -1.15039,1.15039 -1.58629,0.24885 0.53273,-0.32864 -2.3008,0 -0.51445,0.17151 -0.66532,0.90786 -1.15038,1.15041 -0.3501,0.17504 -2.93307,0 -3.45116,0 -0.38346,0 -0.76693,0 -1.1504,0 -0.38345,0 -0.87923,-0.27117 -1.15039,0 -0.27114,0.27113 0.27116,0.87922 0,1.15038 -0.23518,0.23521 -2.99503,-0.22807 -3.45115,0 -0.48506,0.24252 -0.66536,0.90788 -1.15041,1.15038 -0.34297,0.17152 -0.87924,-0.27114 -1.15039,0 -0.0691,1.3512 0.006,-0.20413 -1.15039,2.30078 -0.6016,0.90245 -1.81574,1.3307 -2.30078,2.30081 -0.34298,0.68594 0.34298,1.6148 0,2.30076 -0.24253,0.48505 -0.90787,0.66535 -1.15039,1.15038 0.11685,2.18522 -0.19377,2.19733 -1.15038,3.45118 0,0.38347 0.87924,0.27117 1.15038,0 0.12538,-1.45795 -0.60287,-2.44449 1.15039,-2.30079 0.27117,-0.27115 -0.27114,-0.87923 0,-1.15039 0.27117,-0.27114 0.87925,0.27116 1.15039,0 0.27113,-0.27114 -0.27114,-0.87923 0,-1.15038 0.27113,-0.27114 0.76694,0 1.15039,0 2.68425,0 5.3685,0 8.05273,0 0.38347,0 0.87926,0.27115 1.1504,0 0.27114,-0.27114 -0.27114,-0.87924 0,-1.1504 0.27114,-0.27115 0.87924,0.27116 1.15039,0 0.27115,-0.27115 -0.27115,-0.87924 0,-1.15036 0.11503,-0.11505 3.33613,-0.11505 3.45115,0 0.27117,0.27112 0,0.76691 0,1.15036 0,1.91733 0,3.83463 0,5.75196 0,0.38347 -0.27114,0.87924 0,1.1504 0.27117,0.27112 0.76694,0 1.15041,0 0.54239,0 5.69982,-0.0523 5.75195,0 0.037,0.0371 0,3.17216 0,3.45116 -1.8392,2.69297 1.40336,1.33101 0,4.60158 -0.76306,2.28921 -1.07369,0.53683 -2.30079,1.15036 -0.48504,0.24255 -0.66533,0.90788 -1.15038,1.15041 -0.68596,0.34297 -1.61482,-0.34297 -2.30078,0 -0.48505,0.24251 -0.66534,0.90786 -1.15041,1.15039 -0.72303,0.36151 -3.87851,-0.36152 -4.60154,0 -0.93539,0.46768 -0.95185,1.82482 -2.30079,1.15037 -0.48504,-0.2425 -0.66534,-0.90787 -1.15039,-1.15037 -0.0981,-0.0492 -4.50349,-0.0492 -4.60156,0 -2.32665,1.16332 -0.36889,2.66968 -1.15039,3.45117 -0.27114,0.27114 -0.87926,-0.27116 -1.15039,0 -0.27114,0.27114 0,0.76693 0,1.15039 0,0.38346 0,0.76694 0,1.15039 0,4.78691 0,2.86208 0,6.90234 0,0.51807 0.17508,3.10104 0,3.45117 -0.79839,1.59677 -2.04691,1.15036 -3.45116,1.15036 -3.91218,-0.002 -1.5003,0 -4.60158,0 -0.38345,0 -0.76691,0 -1.15039,0 -0.38345,0 -0.87922,-0.27112 -1.15038,0 -0.27115,0.27118 0,0.76697 0,1.15042 0,0.38346 0,0.76691 0,1.15038 0,0.76693 0,1.53385 0,2.30081 0,0.38344 0,1.53384 0,1.15038 0,-0.76694 0,-3.06772 0,-2.30081 0,1.15043 0,2.30081 0,3.45118 0,0.38346 0.27116,0.87926 0,1.1504 -0.0464,0.0466 -4.1791,0 -4.60153,0 -0.38348,0 -0.97892,-0.34298 -1.15042,0 -0.13525,0.27051 0,3.84583 0,4.60156 0,3.06769 0,6.13543 0,9.20311 0,0.76694 0,1.53386 0,2.30081 0.25978,1.37871 -0.17906,1.20857 0,0 0,1.53383 0,3.06768 0,4.60154 0.74282,3.13363 -2.30868,1.51929 -2.30078,5.75194 0,0.38348 0.17148,0.80743 0,1.1504 -0.24253,0.48504 -0.90785,0.66534 -1.15039,1.15041 -0.17149,0.34296 0.27115,0.87921 0,1.15037 -0.27115,0.27116 -0.8074,-0.17149 -1.15039,0 -2.54357,1.27178 -0.35699,0.71398 -1.15039,2.3008 -0.24253,0.48505 -0.90785,0.66531 -1.15038,1.15036 -0.17148,0.34298 0.27114,0.87928 0,1.1504 -0.27115,0.27113 -0.87924,-0.27112 -1.1504,0 0.0831,2.6568 0,2.74624 0,6.90235 -0.0279,2.17813 0,-1.449 0,2.30076 0.0326,1.58634 0,-0.54357 0,2.30079 0,1.53386 0,3.06769 0,4.60155 0,0.38345 0,0.76694 0,1.15042 0.2598,1.37871 -0.17904,1.20859 0,0 0,0.76692 0,1.53384 0,2.30076 0.2598,1.37873 -0.17904,1.20858 0,0 0,0.76692 1.15039,2.25284 1.15039,3.01976 -0.49096,3.05864 -3.74691,-0.26153 -5.10485,-1.00657 -0.35622,-0.35622 -1.44128,-5.10813 -1.7975,-5.46437 -0.27113,-0.27113 -0.80742,0.17151 -1.15039,0 -0.48504,-0.24251 -0.66534,-0.90784 -1.15038,-1.15039 -0.34298,-0.17148 -0.87923,0.27116 -1.15039,0 -0.5423,-0.54229 0.34298,-1.61483 0,-2.30077 -0.24253,-0.48506 -0.76692,-0.76691 -1.15039,-1.15039 -0.38346,-0.38347 -0.66533,-0.90787 -1.15038,-1.15038 -0.343,-0.1715 -0.87924,0.27113 -1.15039,0 -0.27116,-0.27114 0.1715,-0.80742 0,-1.15041 -0.24252,-0.48504 -0.90789,-0.66534 -1.1504,-1.15038 -0.17149,-0.34298 0.27116,-0.87924 0,-1.15038 -0.27114,-0.27115 -0.80742,0.17149 -1.15038,0 -0.48505,-0.24254 -0.66535,-0.90785 -1.15039,-1.15042 -0.34299,-0.17146 -0.87924,0.27118 -1.15042,0 -0.27112,-0.27114 0.27118,-0.8792 0,-1.15036 -0.27112,-0.27117 -0.87922,0.27116 -1.15037,0 -0.27116,-0.27117 0.27115,-0.87927 0,-1.1504 -0.27116,-0.27114 -0.80742,0.1715 -1.15037,0 -0.48505,-0.24253 -0.66538,-0.90784 -1.1504,-1.15041 -4.42379,-0.0772 -2.59815,-0.44898 -4.60158,1.15041 -0.17504,0.35009 0,2.93307 0,3.45118 -0.18913,1.8621 0.19605,1.18284 1.15041,2.30076 0.11798,0.23599 0.1622,3.28895 0,3.45118 -0.0522,0.0522 -5.20956,0 -5.75197,0 -1.91731,0 -3.83463,0 -5.75193,0 -0.38349,0 -0.87925,0.27115 -1.15041,0 -0.27114,-0.27113 0.27116,-0.87922 0,-1.15039 -0.27114,-0.27116 -0.76692,0 -1.15037,0 -0.38346,0 -0.80742,-0.17148 -1.15039,0 -2.54359,1.27178 -0.357,0.71398 -1.15041,2.30078 -0.24251,0.48506 -0.90786,0.66534 -1.15039,1.15038 0.0562,2.18195 0.0412,-1.07236 0,2.30081 -0.17147,0.34297 -0.9789,-0.343 -1.15037,0 -0.17997,0.35992 0,6.18948 0,6.90231 0.0264,4.61611 0,7.08157 0,9.20314 0.0501,0.87678 -0.1078,1.40318 0,4.60154 1.67542,1.58421 1.11597,3.27278 1.15037,5.75197 0.38758,0.38756 1.91322,-0.38755 2.3008,0 0.35622,0.35621 -0.35622,5.39573 0,5.75197 0.27112,0.27113 0.76693,0 1.15039,0 2.30078,0 4.60154,0 6.90234,0 1.65158,0.19224 2.06635,-0.34547 3.45117,-1.15041 0.27113,-0.27114 0,-0.76694 0,-1.15041 0,-0.38346 0,-0.76691 0,-1.15037 0,-0.38348 -0.17151,-0.80744 0,-1.15039 0.24252,-0.48505 0.76692,-0.76692 1.15037,-1.15039 0.38347,-0.38348 0.76695,-0.76693 1.15039,-1.15038 0.86951,-0.89785 1.66286,-2.42472 3.45117,-2.30079 0.48506,-0.24253 0.66535,-0.90788 1.15041,-1.1504 0.35009,-0.17506 2.93307,0 3.45114,0 1.18679,-0.25358 1.26721,0.0699 1.15042,1.1504 0,2.30079 0,4.60156 0,6.90232 0,0.7759 0,1.52493 0,2.30082 0.0235,0.9491 0,1.50195 0,4.60154 0,1.9173 0,3.83463 0,5.75195 1.10359,2.23759 3.38337,1.15039 6.90233,1.15039 0.38348,0 0.76692,0 1.15039,0 1.37874,-0.2598 1.20861,0.17906 0,0 1.15038,0 2.30077,0 3.45117,0 2.51079,-0.30802 3.45117,-0.16435 3.45117,2.30077 0,0.38347 0,0.76693 0,1.15041 0.25979,1.37872 -0.17904,1.20859 0,0 0,0.76689 0,1.53385 0,2.30077 0,0.38346 -0.17151,0.80742 0,1.1504 0.56601,1.132 4.03555,3.46951 4.60156,4.60154 -0.35508,2.34916 0.66549,2.79526 2.30078,4.60157 0.34298,0.68595 -0.54229,1.7585 0,2.30077 0.27115,0.27116 0.76693,0 1.15039,0 0.38347,0 0.76692,0 1.15039,0 3.45744,1.87062 -0.0186,-0.83078 3.45118,1.15039 1.16703,-0.21397 1.237,0.0937 1.15038,1.1504 0.27115,0.27114 0.87924,-0.27116 1.15039,0 0.037,0.0371 4.02637,0.36809 4.02637,0.64711 -0.15127,0.6014 0.0162,4.06791 0,4.81726 -0.0189,1.70715 -3.70422,0.74383 -5.17676,2.58837 -0.34297,0.17148 -0.76693,0 -1.15038,0 -3.33089,0 -1.91752,0 0,0 -1.1504,0 -2.35981,0.36377 -3.45118,0 -0.36379,-0.12127 0.27115,-0.87924 0,-1.15042 -0.27114,-0.27114 -0.80739,0.17153 -1.15039,0 -0.97008,-0.48502 -1.33069,-1.81572 -2.30078,-2.30075 -1.15668,0.026 -1.4742,-0.32122 -2.30078,-1.1504 -0.34298,-0.17148 -0.87924,0.27116 -1.15038,0 -0.35785,-1.65305 0.31813,0.0201 -2.30079,-2.30079 -0.27114,-0.27114 0.27116,-0.87924 0,-1.15038 -0.27114,-0.27116 -0.87924,0.27114 -1.1504,0 -0.27114,-0.27116 0.27116,-0.87924 0,-1.1504 -0.54229,-0.54228 -1.75848,0.5423 -2.30077,0 -0.23517,-0.23518 0.22808,-2.99504 0,-3.45116 -0.24252,-0.48505 -0.90786,-0.66535 -1.1504,-1.15039 -0.27595,-3.23672 -5.98296,-1.53594 -5.75193,-6.90235 -0.27118,-0.27115 -0.76693,0 -1.15039,0 -0.38347,0 -0.76693,0 -1.1504,0 -0.0795,0 -5.00416,0 -5.75193,0 -0.38349,0 -0.76694,0 -1.1504,0 -0.38348,0 -0.87924,0.27117 -1.15041,0 -0.27113,-0.27115 0.27117,-0.87924 0,-1.15037 -0.5423,-0.54232 -1.75847,0.54228 -2.30076,0 -0.28356,-1.42437 -0.43896,-1.86792 -1.15041,-3.45117 -0.12124,-0.36381 0.1715,-0.80745 0,-1.15041 -0.24252,-0.48506 -0.90784,-0.66533 -1.15039,-1.15037 -1.77852,-3.45982 1.33633,-0.3753 -1.15037,-3.45118 -2.68441,-0.0477 -1.38835,-1.08266 -2.3008,1.15039 -0.0466,0.0464 -4.17908,0 -4.60155,0 -0.77587,0 -1.5249,0 -2.30079,0 -0.38345,0 -1.53383,0 -1.15037,0 0.76692,0 3.0677,0 2.30078,0 -1.83151,0 -4.15547,0 -5.75197,0 0.76693,0 3.06773,0 2.3008,0 -1.15041,0 -2.3008,0 -3.45117,0 -0.38348,0 -0.87926,0.27115 -1.15039,0 -0.27116,-0.27116 0.27113,-0.87924 0,-1.15039 -0.27116,-0.27115 -0.87924,0.27115 -1.1504,0 -1.13484,-1.13484 2.35723,-2.30077 -1.15039,-2.30077 -2.17178,0.61073 -0.008,-1.33827 -2.3008,-1.1504 -0.54228,-0.5423 0.54231,-1.75849 0,-2.30078 -0.27113,-0.27116 -0.87922,0.27116 -1.15038,0 -0.41246,-2.42342 -2.3677,-2.76273 -2.30079,-5.75197 -0.27112,-0.27115 -0.80738,0.17151 -1.15038,0 -0.48503,-0.2425 -0.76694,-0.76691 -1.15037,-1.15037 -0.38347,-0.38348 -0.90787,-0.66535 -1.15041,-1.15039 -0.17147,-0.34298 0.27115,-0.87923 0,-1.15039 -0.27114,-0.27116 -0.87923,0.27116 -1.15039,0 -0.27113,-0.27116 0.27116,-0.87925 0,-1.15038 -0.5423,-0.54232 -1.75846,0.54228 -2.30078,0 -0.27115,-0.27117 0.27116,-0.87926 0,-1.1504 -0.27115,-0.27115 -0.87922,0.27114 -1.15039,0 -0.38986,-0.38987 0.38987,-1.91094 0,-2.30079 -0.27115,-0.27114 -0.87924,0.27116 -1.15038,0 -0.46568,-1.47831 -0.42409,-1.05799 -1.1504,-2.30077 -0.27115,-0.27116 -0.87923,0.27116 -1.15038,0 0.14636,-1.13677 -0.0566,-1.24006 -1.1504,-1.15041 -0.27114,-0.27113 0.17149,-0.80739 0,-1.15038 -0.24252,-0.48503 -0.90785,-0.66533 -1.15039,-1.15038 -0.17148,-0.34298 0,-0.76695 0,-1.15039 0,-0.38346 0,-0.76692 0,-1.15039 0,-1.91734 0,-3.83465 0,-5.75197 0,-0.38345 0,-0.7669 0,-1.15039 0.39914,-1.6626 -1.08899,-0.60483 -1.15039,-2.30078 -0.24253,-0.48504 -0.90786,-0.66533 -1.1504,-1.15037 -0.17147,-0.34299 0.27117,-0.87925 0,-1.1504 -0.27113,-0.27114 -0.87922,0.27115 -1.15036,0 -0.27117,-0.27114 0.27114,-0.87924 0,-1.1504 -1.11021,-0.0242 -1.13004,-0.017 -1.1504,-1.15036 -0.24252,-0.48506 -0.90786,-0.66538 -1.15041,-1.15042 -0.34298,-0.68595 0.54233,-1.75848 0,-2.30077 -0.27114,-0.27114 -0.87923,0.27115 -1.15037,0 -0.54231,-0.54229 0.54229,-1.75848 0,-2.30078 -0.27117,-0.27116 -0.87926,0.27117 -1.1504,0 -0.57518,-0.57521 0.57519,-2.87597 0,-3.45117 -0.27115,-0.27115 -0.87924,0.27117 -1.15039,0 -0.54228,-0.54229 0.5423,-1.75846 0,-2.3008 -0.27115,-0.27114 -0.87922,0.27118 -1.15038,0 -0.38912,-0.38908 0.38912,-1.91166 0,-2.30076 -0.27115,-0.27114 -0.87925,0.27113 -1.15038,0 -0.57521,-0.57519 0.57517,-2.87598 0,-3.45117 -1.13562,0.13765 -1.25285,-0.0292 -1.15041,-1.1504 -3.12367,-5.96399 -1.16823,-0.8767 -1.15039,4.60157 0,0.60155 -0.15125,4.29908 0,4.60156 0.24251,0.48504 0.76693,0.7669 1.15039,1.15038 0.38348,0.38347 0.66532,0.90786 1.15041,1.15041 0.34296,0.17148 0.87923,-0.27114 1.15038,0 0.5752,0.57517 -0.57521,2.87597 0,3.45116 0.27116,0.27115 0.87923,-0.27114 1.15038,0 0.0465,0.0465 0,4.17909 0,4.60155 0,0.38348 0,0.76695 0,1.1504 0,0.38345 0.38347,1.1504 0,1.1504 -0.38347,0 0,-1.53385 0,-1.1504 0,0.76692 0,1.53387 0,2.30077 -0.0405,1.85862 0.07,4.07582 0,5.75196 -2.39382,0 -0.46286,-1.61327 -1.15038,-2.30079 -1.77546,0.33446 -1.03998,-1.04558 -1.15038,-2.30075 -0.27117,-0.27116 -0.87924,0.27113 -1.15041,0 -0.54229,-0.54231 0.54231,-1.75851 0,-2.30079 -1.13558,0.13763 -1.25284,-0.0291 -1.15039,-1.1504 -0.24252,-0.48505 -0.90787,-0.66534 -1.15039,-1.1504 -0.36153,-0.72303 0.36152,-3.8785 0,-4.60155 -1.85664,-1.37033 -1.20159,-3.6455 -1.1504,-5.75195 0,-3.06769 0,-6.13541 0,-9.20313 0,-0.27336 0.12894,-4.34369 0,-4.60153 -0.2425,-0.48507 -0.90785,-0.66537 -1.15038,-1.15041 -0.34297,-0.68596 0.59315,-1.25007 0.051,-1.79237 -0.27113,-0.27118 -0.93008,-0.23728 -1.20123,-0.50843 -0.5423,-0.54228 0.34299,-1.61479 0,-2.30074 -0.24253,-0.48505 -0.90785,-0.66536 -1.15039,-1.15041 -0.34298,-0.68594 0.34299,-1.61482 0,-2.30075 -0.24251,-0.48506 -0.90786,-0.66537 -1.15038,-1.15043 -0.14872,-0.29745 0,-6.08693 0,-6.90233 0,-5.36851 0,-10.737 0,-16.10548 0,-1.53385 0,-3.06769 0,-4.60154 0,-0.38348 0,-1.53385 0,-1.15038 0,0.7669 0.76692,2.30074 0,2.30074 -1.64686,0 -1.15039,-4.87356 -1.15039,-5.75192 0,-4.60157 0,-9.20313 0,-13.8047 0,-0.80012 -0.20801,-5.33591 0,-5.75194 0.24252,-0.48505 0.76693,-0.76691 1.15039,-1.15039 0.38346,-0.38349 0.66535,-0.90788 1.15038,-1.15039 0.34299,-0.1715 0.87926,0.27114 1.15039,0 0.57519,-0.57521 -0.57519,-2.87596 0,-3.45117 1.66657,-0.20904 1.15039,-0.33831 1.15039,-2.30079 0,-0.38345 -0.27115,-0.87923 0,-1.15038 0.27116,-0.27114 0.87924,0.27115 1.15039,0 0.27116,-0.27114 -0.17148,-0.80741 0,-1.1504 0.15271,-0.30543 3.14574,-3.29844 3.45118,-3.45117 0.34296,-0.17148 0.87924,0.27117 1.15039,0 0.54229,-0.54228 -0.34299,-1.61482 0,-2.30078 0.24252,-0.48504 0.90784,-0.66535 1.1504,-1.15038 0.39729,-0.79463 -0.40382,-5.34814 0,-5.75196 0.27115,-0.27113 0.87921,0.27117 1.15038,0 0.016,-1.11531 0.0473,-1.11882 1.15039,-1.15038 2.38018,-2.3802 -3.63727,0.093 1.15039,-2.30078 2.91654,-0.4936 -0.73838,-0.66663 2.30078,-2.30077 0.34298,-0.17153 0.87924,0.27113 1.15039,0 0.23517,-0.2352 -0.22808,-2.99507 0,-3.45118 0.24253,-0.48504 0.90786,-0.66535 1.15038,-1.15039 0.1715,-0.34298 0,-0.76692 0,-1.15039 0,-0.38347 0,-0.76692 0,-1.15039 0.064,-1.62165 -0.15199,-1.82482 0,-3.45119 0.1715,-0.51446 0.84958,-0.69915 1.15039,-1.15037 0.47563,-0.71345 0.67475,-1.58735 1.15039,-2.30079 0.30082,-0.45123 0.76692,-0.76691 1.1504,-1.15038 0.38346,-0.38347 0.66534,-0.90787 1.1504,-1.15038 0.34297,-0.17151 0.87922,0.27112 1.15039,0 0.54229,-0.54232 -0.54231,-1.75849 0,-2.30079 0.27113,-0.27117 0.80742,0.17149 1.15037,0 2.54357,-1.27178 0.35701,-0.71399 1.1504,-2.30078 0.56602,-1.13202 4.03555,-3.46954 4.60156,-4.60156 0.15123,-0.30248 0,-4 0,-4.60156 -0.0279,-1.47228 0.71715,-2.51714 -1.15039,-5.75196 -0.34297,-0.17148 -0.76694,0 -1.15039,0 -0.38346,0 -0.76692,0 -1.1504,0 -3.90361,0 -1.94897,0.25583 -3.09527,0.25421 l 2e-5,0 z"
       id="path7639"
       sodipodi:nodetypes="cccccccsccccsccssssssssccsssssccssssssssccccsssccssssssssccssccssssssssssssssccssccssssccccsssssssssssssscccscccssssccssssssssssccsccsccsssccsssssssccsssssssccsssccssssssssssssssssssssssccssccssssccsssssssccssccccsssssssssssssssccssssssssssssssccsssssssssssssccccsssssssccccsccccccssssssssssssssssssccccssssssssccsccccsssccssssccsccsccccccccccssccsscccscccccsssccccsssssccssssssccscccsssccsssssccsccssssssssssccccsssssccsssccssssssssssscccssssssssssccccsccsccssssssssssssssssssssccssssssssccccssssccsssssssssccsscc" />
    <path
       style="fill:#00ff00;stroke:#000000;stroke-width:0.80527306px;stroke-linecap:butt;stroke-linejoin:miter;stroke-opacity:1"
       d="m 555.66563,450.42557 c 0,-0.5423 -5.3813,0.20858 -4.8807,0 0.40671,-0.16948 1.32184,-0.16948 1.32184,0.10163 0,0.38347 -1.55708,0.47047 -1.72858,0.81345 -0.12126,0.24252 0,0.5423 0,0.81346 0,0.27114 0,0.54228 0,0.81343 0,1.04947 0,1.81127 0,1.62692 0,-0.54231 0,-2.16921 0,-1.62692 0,0.81346 0,1.62692 0,2.44035 0,0.27116 0.27116,0.81345 0,0.81345 -0.27114,0 0,-1.08458 0,-0.81345 0,0.54229 0,1.0846 0,1.62691 0,0.81342 0,1.62689 0,2.44036 0.0812,1.09448 -0.10081,-0.34778 0,1.62687 0.0796,0.23824 1.46806,0.9723 0.81345,1.62689 -0.0328,0.0329 -2.95505,0 -3.25379,0 -2.1692,0 0.27115,0.27118 -0.81346,-0.81341 -0.19171,-0.19175 -0.6217,0.19171 -0.81343,0 -0.38348,-0.38349 0.38345,-1.24345 0,-1.62693 -0.19174,-0.19174 -0.62173,0.19174 -0.81345,0 -0.19173,-0.19174 0.12127,-0.5709 0,-0.81342 -0.1715,-0.34299 -0.64196,-0.47049 -0.81346,-0.81347 -0.2425,-0.48505 0.38347,-1.24343 0,-1.62689 -0.19172,-0.19174 -0.62169,0.19173 -0.81343,0 -0.19174,-0.19174 0.12127,-0.57093 0,-0.81346 -0.17152,-0.34298 -0.64197,-0.47047 -0.81346,-0.81345 -0.24252,-0.48505 0.38348,-1.24344 0,-1.62689 -1.17595,0.26581 0.72513,-0.93972 -1.62689,-0.81346 -0.19174,-0.19174 0.19172,-0.62171 0,-0.81343 -0.19174,-0.19174 -0.62174,0.19172 -0.81345,0 -0.40673,-0.40673 0.40673,-2.03361 0,-2.44034 -0.19172,-0.19174 -0.62173,0.19172 -0.81346,0 -0.19173,-0.19174 -0.27114,-0.81346 0,-0.81346 0.38346,0 1.19691,0.81346 0.81346,0.81346 -0.60632,0 -1.0517,-0.62173 -1.62688,-0.81346 -0.25725,-0.0857 -0.81346,0.27113 -0.81346,0 0,-0.27115 0.81346,0.27113 0.81346,0 0,-0.38347 -0.54233,-0.54229 -0.81346,-0.81346 -0.27116,-0.27114 -0.47049,-0.64195 -0.81348,-0.81343 -1.15432,0.081 -0.0852,-0.0144 -0.81342,-1.62692 -0.19175,-0.19172 -0.62174,-0.19172 -0.81344,0 -0.38348,0.38348 0.38345,1.24345 0,1.62692 -0.19174,0.19173 -0.62175,-0.19174 -0.81348,0 -0.19173,0.19173 0.12128,0.57091 0,0.81343 -0.17145,0.34299 -0.64194,0.47047 -0.81343,0.81346 -0.1613,0.32253 0.16628,2.27406 0,2.44034 -0.19173,0.19173 -0.62173,-0.19172 -0.81343,0 -0.19174,0.19173 0.12124,0.57093 0,0.81346 -0.17153,0.34296 -0.64197,0.47046 -0.81348,0.81343 -0.24251,0.48505 0.24254,1.14188 0,1.62692 -0.17146,0.34296 -0.64195,0.47045 -0.81344,0.81343 -0.22063,0.44129 0.22257,3.03122 0,3.2538 -2.16089,0.73715 -0.17919,0.69347 -2.44034,0.81347 -0.48504,0.24252 0.38346,1.24342 0,1.62687 -0.19173,0.19174 -0.5423,0 -0.81344,0 -0.27114,0 -1.08462,0 -0.81348,0 3.75226,-0.23546 -1.16483,0.14751 -2.44035,0.81348 -0.99471,2.29966 -0.36994,-1.37044 -1.62685,2.44034 -0.17152,0.51444 0.38344,1.24343 0,1.62687 -0.88027,-0.0617 -0.81348,-0.005 -0.81348,0.81348 0,0.27113 0,0.54228 0,0.81341 0,2.44036 0,4.8807 0,7.32106 0,0.27116 0,0.5423 0,0.81344 -0.0756,0.97076 -0.32626,1.46765 -0.81344,2.44034 -0.0857,0.25725 0.12127,0.57093 0,0.81347 -0.1715,0.34298 -0.64196,0.47045 -0.81344,0.81343 -0.12379,0.24756 0,2.07403 0,2.44035 0,1.89806 0,3.79611 0,5.69412 0,0.54232 0,1.08462 0,1.62692 0,0.27116 0,1.08459 0,0.81343 0,-0.54227 0,-2.16919 0,-1.62687 0,1.0846 0,2.1692 0,3.2538 0,0.27115 0,1.08457 0,0.81342 0,-0.54227 0,-2.16919 0,-1.62687 0.0252,4.82436 0.2771,2.09296 -0.81347,5.69414 -0.10666,0.42664 0.13924,3.11455 0,3.25377 -0.19173,0.19173 -0.62169,-0.19173 -0.81344,0 -0.19174,0.19173 0,0.54233 0,0.81347 0,0.5658 0.14708,3.77305 0,4.06722 -0.17149,0.34298 -0.64196,0.47049 -0.81343,0.81348 -0.12962,0.25921 0,3.34024 0,4.06721 0,3.52496 0,7.0499 0,10.57486 0,4.49621 0,7.49393 0,9.76138 0,1.08462 0,2.1692 0,3.25379 0.0973,1.08902 -0.14284,-0.33512 0,1.62691 0.12124,0.2425 0.62169,-0.19173 0.81343,0 0.19175,0.19171 0,0.54227 0,0.81343 0,2.1692 0,4.33839 0,6.5076 0,6.806 0,12.0438 0,17.08244 0.0708,2.17008 -0.081,4.35282 0,6.50756 0.12127,0.36381 0.54228,0.5423 0.81344,0.81346 0.27116,0.27114 0.47048,0.64195 0.81347,0.81345 0.24251,0.12127 0.62169,-0.19174 0.81344,0 0.19175,0.19173 -0.19175,0.6217 0,0.81343 0.19175,0.19172 0.62171,-0.19173 0.81344,0 0.19172,0.19172 -0.12128,0.57094 0,0.81347 0.17149,0.34297 0.64196,0.47046 0.81348,0.81344 0.21846,0.43694 -0.21852,1.18992 0,1.6269 0.34295,0.68597 1.28389,0.94092 1.62685,1.62687 0.12128,0.24255 -0.0857,0.55624 0,0.81348 0.19174,0.57517 0.62174,1.05171 0.81349,1.62686 0.3366,1.00986 -0.66778,0.88634 0.81345,1.62693 0.24752,0.12378 2.07399,0 2.44033,0 1.71079,0.24241 2.56303,-1.96681 3.25378,0.81343 0.19173,0.19174 0.62174,-0.19173 0.81348,0 0.1917,0.19174 0,0.54232 0,0.81346 0,0.27116 0,0.5423 0,0.81346 0,2.16918 0,4.33838 0,6.50758 0,0.27115 -0.19174,0.62171 0,0.81345 0.0328,0.0328 2.95505,0 3.25378,0 0.29871,0 3.22104,0.0328 3.25378,0 0.19173,-0.19174 -0.12128,-0.57093 0,-0.81345 1.69268,-3.38537 -0.0562,0.86961 1.62691,-0.81346 0.38346,-0.38345 -0.24253,-1.14183 0,-1.62689 1.79146,-1.15493 -3.2e-4,-0.9314 1.62689,-2.44033 0.12377,-0.24758 0,-2.07401 0,-2.44036 0,-0.27114 0,-0.5423 0,-0.81346 0,-0.27113 -0.27115,-0.81343 0,-0.81343 0.27116,0 0,1.08459 0,0.81343 0,-0.54226 0,-1.0846 0,-1.62688 0,-0.27115 -0.12126,-0.57093 0,-0.81348 0.17149,-0.34294 0.64194,-0.47043 0.81346,-0.81341 0.12127,-0.24253 -0.12128,-0.57094 0,-0.81345 0.17148,-0.34298 0.54229,-0.54231 0.81343,-0.81348 0.27116,-0.27113 0.47049,-0.64193 0.81346,-0.81341 0.24251,-0.12129 0.57093,0.12126 0.81345,0 0.34298,-0.1715 0.47046,-0.64197 0.81343,-0.81346 0.24254,-0.12126 0.62174,0.19171 0.81346,0 1.68307,-1.68305 -2.57193,0.066 0.81348,-1.6269 0.21029,-0.10514 4.30408,0 4.88066,0 0.27117,0 0.62172,-0.19174 0.81345,0 0.0263,0.0263 0,2.24305 0,2.44036 0,1.62689 0,3.25375 0,4.88068 0,0.27117 0,0.5423 0,0.81343 0,0.27116 0.12126,0.57094 0,0.81346 -0.17149,0.34298 -0.64196,0.47047 -0.81345,0.81346 -0.16127,0.3225 0.1663,2.27403 0,2.44033 -1.11444,-0.0882 -0.89503,1.26143 -1.6269,2.44036 -0.16126,0.32251 0.1663,2.27404 0,2.44034 -1.68305,1.68305 0.066,-2.57193 -1.6269,0.81344 -0.12126,0.24253 0.19173,0.62173 0,0.81345 -0.38345,0.38348 -1.14183,-0.24251 -1.62686,0 -1.7986,0.89931 -0.25244,0.50487 -0.81348,1.62691 -0.17148,0.34298 -0.64194,0.47048 -0.81346,0.81345 -0.12124,0.24251 0.19174,0.62171 0,0.81344 -0.19171,0.19173 -0.6217,-0.19173 -0.81343,0 -0.19174,0.19173 0.19173,0.62171 0,0.81345 -0.19174,0.19173 -0.62173,-0.19174 -0.81345,0 -0.19173,0.19173 0.19172,0.62171 0,0.81345 -0.19173,0.19174 -0.62173,-0.19174 -0.81346,0 -0.19172,0.19174 0.27116,0.81344 0,0.81344 -0.0839,-2.30321 0,2.66533 0,3.25379 0,0.36636 0.1238,2.1928 0,2.44036 -0.17147,0.34297 -0.64195,0.47047 -0.81343,0.81346 -0.10514,0.2103 0,4.30411 0,4.88069 0,0.27113 0.19174,0.6217 0,0.81344 -0.19174,0.19174 -0.62174,-0.19174 -0.81346,0 -0.22259,0.22257 -0.49834,2.38111 -0.71898,2.8224 -0.17151,0.34299 -0.57007,0.90185 -0.74156,1.24485 0.6489,1.9675 -1.11223,1.70229 -1.69881,2.91683 -0.19172,0.19174 0.0973,0.95867 -0.0945,1.1504 -0.38345,0.38345 -1.26735,0.49475 -1.50988,0.9798 0.0438,2 -1.29667,1.13459 -1.36184,2.51224 -2.55563,0.0652 -1.1855,-0.26282 -2.8224,2.20211 -0.23617,0.35422 0.21468,2.01094 0,2.44035 -0.17151,0.34297 -0.64197,0.47044 -0.81344,0.81344 -0.0291,2.01682 -1.42807,3.21022 -3.42438,4.16169 -0.19175,0.19174 -0.57521,1.40509 -0.57521,1.67625 0,0.27114 -5.10487,8.13488 -1.94127,5.53003 49.53364,-70.94549 48.28302,-121.40392 28.3107,-184.73421 z"
       id="path2819"
       sodipodi:nodetypes="csssssssssssccssssssssssssccssssssssssccsssssssssssccsscccccssccsssssssssccssssssssccsssccssssssssssssccsssssssssccsssssssssssssssssssssccssssssssssssccssssssccscccsccscc" />
    <path
       style="fill:#00ff00;stroke:#000000;stroke-width:0.80527306px;stroke-linecap:butt;stroke-linejoin:miter;stroke-opacity:1"
       d="m 352.71018,446.86674 c -0.0283,0.14226 0.0516,1.16871 0,1.22015 -0.0958,0.0959 -0.31086,-0.0959 -0.40674,0 -0.0959,0.0959 0.0607,0.28549 0,0.40672 -0.0857,0.17151 -0.32096,0.23525 -0.40672,0.40675 -0.12126,0.24252 0.19175,0.62171 0,0.81345 -0.19174,0.19172 -0.62171,-0.19174 -0.81343,0 -0.0959,0.0959 0.13556,0.40672 0,0.40672 -0.1356,0 0.13556,-0.40672 0,-0.40672 -0.19172,0 -0.321,0.23523 -0.40674,0.40672 -0.12124,0.24251 0.27114,0.81344 0,0.81344 -0.13557,0 0,-0.54229 0,-0.40673 0,0.40673 0,0.81345 0,1.22018 0,0.19177 -0.41295,1.51189 -0.4314,1.53032 -0.0959,0.0959 0.12057,0.40744 0.0247,0.5033 -0.0959,0.0958 0,0.27116 0,0.40672 0,0.13559 0,0.54229 0,0.40674 0,-0.27115 0,-1.08461 0,-0.81346 0,0.52194 0,1.09005 0,1.62689 0,0.1356 0,0.5423 0,0.40673 0,-0.27113 0,-1.08461 0,-0.81344 0,2.26039 0,1.07618 0,2.44035 0,0.13557 0.13561,0.4067 0,0.4067 -0.13555,0 0,-0.54228 0,-0.4067 0,0.27116 0,0.54231 0,0.81344 0,0.13557 -0.0959,0.31086 0,0.40672 0.0959,0.0959 0.31088,0.0959 0.40673,0 0.0959,-0.0959 0,-0.27115 0,-0.40672 0,-0.13557 0,-0.54228 0,-0.40674 0,0.27117 0,1.0846 0,0.81346 0,-1.08459 0.35952,-1.88159 0.35952,-2.9662 -6.4e-4,-0.49508 0.19198,-0.98382 0.45395,-1.50777 0.0959,-0.0959 -0.0958,-0.31086 0,-0.40672 0.0959,-0.0959 0.27114,0 0.40672,0 0.13556,0 0.27116,0 0.40672,0 1.22019,0 2.44035,0 3.66053,0 1.68991,1.33075 1.66557,-0.35202 2.44034,1.22018 0.25723,0.0857 0.57091,-0.12127 0.81346,0 0.24251,0.12126 -0.1213,0.57092 0,0.81344 0.24401,0.48806 0.97612,0.73212 1.22016,1.22019 0.0607,0.12127 -0.0959,0.31086 0,0.40672 0.0185,0.0185 1.84184,0 2.03362,0 0.40673,0 0.81345,0 1.22017,0 0.13556,0 0.40673,-0.13558 0.40673,0 0,0.13557 -0.5423,0 -0.40673,0 0.98047,0.0292 1.22018,0.16715 1.22018,-0.81344 0,-1.50289 0,-1.09235 0,-2.03363 0,-0.0987 0.0132,-1.2071 0,-1.22018 -0.19175,-0.19174 -0.62171,0.19171 -0.81345,0 -0.0959,-0.0958 0.0958,-0.31085 0,-0.40674 -0.0959,-0.0959 -0.28547,0.0607 -0.40673,0 -0.17148,-0.0857 -0.23523,-0.32097 -0.40672,-0.4067 -0.12125,-0.0607 -0.31086,0.0958 -0.40672,0 -0.0959,-0.0959 0.0958,-0.31088 0,-0.40672 -0.0959,-0.0958 -0.34609,0.12125 -0.40673,0 -0.12127,-0.24254 0,-0.54233 0,-0.81347 0,-0.13557 0.0959,-0.31083 0,-0.40672 -0.0959,-0.0958 -0.31085,0.0959 -0.40672,0 -0.19173,-0.19174 0.19172,-0.6217 0,-0.81344 -0.0959,-0.0959 -0.31088,0.0959 -0.40673,0 -0.0959,-0.0959 0,-0.27116 0,-0.40672 0,-0.1356 0,-0.27116 0,-0.40674 0,-0.28829 0.0526,-2.33517 0,-2.44033 -0.0857,-0.17151 -0.23523,-0.321 -0.40673,-0.40673 -0.10694,-0.0537 -1.4142,0 -1.62689,0 -0.13556,0 -0.54231,0 -0.40671,0 0.27115,0 1.08458,0 0.81343,0 -0.54228,0 -1.0846,0 -1.62689,0 -0.13558,0 -0.27115,0 -0.40672,0 -0.13558,0 -0.31086,0.0958 -0.40674,0 -0.0958,-0.0959 0.0959,-0.31086 0,-0.40674 -0.19173,-0.19173 -0.62171,0.19174 -0.81344,0 -0.0959,-0.0958 0.0958,-0.31086 0,-0.40672 -0.0959,-0.0959 -0.31086,0.0958 -0.40673,0 -0.19171,-0.19173 0.19175,-0.62172 0,-0.81344 -0.0958,-0.0958 -0.31087,0.0959 -0.40671,0 -0.0959,-0.0958 0.0959,-0.31087 0,-0.40671 -0.0959,-0.0959 -0.40674,-0.13559 -0.40674,0 0,0.19171 0.59845,0.40671 0.40674,0.40671 -0.30316,0 -0.52586,-0.31087 -0.81346,-0.40671 -0.12861,-0.043 -0.40672,0.13555 -0.40672,0 0,-0.13559 0.5326,-0.0504 0.40672,0 -0.79613,0.31842 -1.62688,0.54228 -2.44034,2.44034 z"
       id="path2823"
       sodipodi:nodetypes="csssssssssssssssssssssssssssssccsssccsssssssccssssssssssssssssssssssssssssssssssssc" />
    <path
       style="fill:#00ff00;stroke:#000000;stroke-width:0.80527306px;stroke-linecap:butt;stroke-linejoin:miter;stroke-opacity:1"
       d="m 346.04369,355.66866 c 8.53479,-1.06947 -0.13918,11.93991 3.45116,15.53027 0.95865,0.95865 4.79329,-0.95866 5.75196,0 3.15132,3.15134 -5.86426,11.39158 -1.72558,15.53026 2.81066,2.81068 5.91677,5.34158 8.62793,8.05273 1.91065,1.91067 6.50866,1.9071 8.62791,4.02637 0.28759,0.2876 -0.28758,1.43799 0,1.72559 0.22412,0.22412 1.94977,0 2.30079,0 7.29965,0 -3.19928,-18.65814 0,-21.85741 0.7669,-0.76693 2.68423,-0.38348 3.45119,-1.1504 0.2659,-0.26594 -0.19977,-4.60156 0,-4.60156 3.704,0 7.49032,-9.17749 5.75191,-12.65429 -0.0864,-0.17283 -6.80947,-2.20792 -7.47751,-2.87598 -3.58457,-3.58454 -0.72366,-6.11377 -8.05276,-9.7783 -2.74784,-1.37394 -10.05968,-0.85659 -12.07909,-2.876 -0.74018,-0.74016 7.83202,-0.57517 7.47756,-0.57517 -1.32186,0 28.63568,1.02632 21.85739,-5.75197 -0.28558,-0.28557 -36.46827,1.26587 -37.38765,1.72559 -2.18632,1.09315 -3.51251,4.91982 -4.02639,5.17675 -3.44162,1.7208 -8.35996,1.59161 -10.92871,2.87597 -2.21294,1.10649 -5.68967,0.51294 -7.47755,2.3008 -1.12719,1.12718 -6.81165,4.78291 -6.32714,5.75193 0.1316,0.26318 3.59431,0 4.02638,0 4.09017,0 11.4282,2.05105 15.53026,0 3.47949,-1.73974 0.29706,-4.71281 8.62794,-0.57518 z"
       id="path2829" />
    <path
       style="fill:#00ff00;stroke:#000000;stroke-width:0.80527306px;stroke-linecap:butt;stroke-linejoin:miter;stroke-opacity:1"
       d="m 415.14236,371.01263 c -1.1524,0 -2.30479,0 -3.45716,0 -0.24427,0 -0.80297,-0.10692 -1.01681,0 -0.1391,0.44662 -0.55633,0.27817 -0.81345,0.40674 -0.10152,0.10142 0,0.85758 0,1.01681 0,0.1241 -0.0793,0.7342 0,0.81344 0.69642,-0.002 -0.0884,0 0.6101,0 0.32518,0.16261 0.50854,0.61019 0.81344,0.81345 0.59133,0.30433 0.92533,0.94167 1.42353,1.42353 0.36371,-0.0219 0.57406,0.37069 0.81345,0.61008 0.1819,0.091 0.41715,-0.0644 0.61008,0 0.2409,0.0805 0.38143,0.49576 0.61009,0.61011 0.21692,0.10846 0.59655,-0.10846 0.81344,0 0.11713,0.30026 0.39916,0.13303 0.6101,0.20335 0.28172,0.11686 0.9584,0.38868 1.0168,0.40672 0.10364,0.20721 0.44512,0.4451 0.61011,0.61009 0.46637,0.46639 -0.08,-0.10631 0.61006,0.81346 0.30022,0.11768 0.13371,0.40104 0.20338,0.61009 0.12899,0.12899 0.64414,-0.0846 0.81343,0 0.17152,0.0856 0.23525,0.32097 0.40673,0.40671 0.24168,0.12084 1.49018,0 1.83028,0 1.42353,0 2.84707,0 4.27061,0 1.08458,0 2.16918,0 3.25377,0 0.13558,0 0.31087,0.0959 0.40672,0 0.019,-0.0191 0,-1.83768 0,-2.0336 0,-0.40484 0.11288,-2.21464 0,-2.44036 -0.29519,-0.56963 -0.77121,-0.8521 -1.22014,-1.22018 -0.19656,-0.0982 -0.7152,-0.6169 -0.81348,-0.81345 -0.21642,-0.38291 -0.30405,-0.72658 -0.40672,-1.22017 -0.16438,-0.32879 -1.49858,-1.51996 -1.62688,-1.62688 -0.11644,-0.0971 -0.29955,-0.0962 -0.40674,-0.20338 -0.0665,-0.25413 -0.27183,-0.40775 -0.40672,-0.61009 -0.12608,-0.35022 -0.42826,-0.76026 -0.61009,-1.01682 -0.26735,-0.0838 -0.50146,-0.12536 -0.81345,-0.20336 -0.4121,-0.41924 -1.07413,-0.22761 -1.62688,-0.20335 -1.15241,0 -2.30478,0 -3.45716,0 -0.1241,0 -0.73423,-0.0794 -0.81346,0 -0.048,0.048 0.0305,0.14273 0,0.20335 -0.043,0.0857 -0.16048,0.11764 -0.20337,0.20336 -0.082,0.16393 0,2.20522 -2.03361,2.44035 z"
       id="path2831"
       sodipodi:nodetypes="csccscccccsscccsccsssssssccccscccccssssc" />
    <path
       style="fill:#00ff00;stroke:#000000;stroke-width:0.80527306px;stroke-linecap:butt;stroke-linejoin:miter;stroke-opacity:1"
       d="m 548.34459,434.05491 c -0.14108,0.92076 -2.84708,2.49604 -2.84708,3.05044 0,1.2562 -0.81346,2.35689 -0.81346,2.03363 0,-0.1356 0.40673,-0.1356 0.40673,0 0,0.19172 -0.23523,0.32097 -0.40673,0.40672 -0.29397,0.14698 0.0965,0.30332 -0.81343,0 -0.57687,-0.19229 -0.58073,-0.98747 -0.81346,-1.22019 -0.20336,-0.20335 -0.61009,-0.20335 -0.81346,-0.40672 -0.62842,-0.62843 -0.33264,-1.95954 -0.81343,-2.44035 -0.28181,-0.2818 -0.93836,-0.93837 -1.22018,-1.22016 -0.20335,-0.20337 -1.01681,0.20335 -1.22015,0 -0.0408,-0.0408 -0.31185,-0.90836 -0.81346,-0.40673 -0.11825,0.11825 -0.26185,3.13683 0,3.66052 0.18971,0.37945 1.47153,1.3755 0.81346,2.03363 -0.70217,0.70216 -3.01343,-1.3865 -3.2538,-1.62691 -0.13559,-0.13556 -0.27117,-1.08459 -0.40674,-1.22016 -0.20334,-0.20337 -0.61008,-0.20337 -0.81347,-0.40673 -0.20335,-0.20337 0.20339,-1.01681 0,-1.22018 -0.0959,-0.0959 -0.28543,0.0607 -0.4067,0 -1.6927,-0.84634 0.43481,0.0282 -0.40672,-0.81344 -0.75923,-0.75925 -2.69773,-1.14552 -3.66055,-1.62689 -1.69265,-0.84636 0.43483,0.0282 -0.40671,-0.81346 -0.4058,-0.40581 -1.32718,-0.62074 -1.62688,-1.22018 -0.42683,-0.85367 -1.20538,-2.84706 -2.03361,-2.84706 -1.54311,0 -2.70577,-0.93754 -3.25382,-2.03363 -0.19173,-0.38346 -1.64891,-0.40672 -1.22015,-0.40672 1.47261,0 0,0.0934 0,1.22017 0,0.38571 0.24558,2.19474 0,2.44036 -0.23575,0.23572 -0.98446,0.98443 -1.2202,1.22017 -0.13562,0.13563 -0.67782,-0.13566 -0.81344,0 -0.45103,0.45103 0,4.27833 0,5.69413 0,0.95385 -0.0958,-0.19173 0.40672,0.81346 0.85612,1.71227 -0.6287,2.80983 0,4.06721 0.79383,1.58767 2.0337,2.84717 2.84707,3.66056 0.88703,0.88699 -0.94684,2.30692 0,3.25378 0.20364,0.20361 3.325,0.95584 3.66053,1.62689 0.49864,0.99731 0.64217,7.78131 0.40674,8.1345 -0.21271,0.31904 -0.60076,0.4944 -0.81345,0.81344 -0.15041,0.22561 0.1917,0.62173 0,0.81345 -0.24564,0.2456 -2.05467,0 -2.44034,0 -1.35522,0 -1.33267,0.9259 -2.03363,1.62689 -0.0839,0.0839 -6.97309,0 -7.72777,0 -0.24822,0 -1.46841,0.15849 -1.62692,0 -0.46385,-0.46384 -1.58154,-1.9429 -2.03362,-2.84708 -0.37961,-0.75918 0.37962,-2.08783 0,-2.84705 -0.82433,-1.64867 -1.06302,-3.50338 -2.03361,-4.47398 -0.37992,-0.37991 -0.43353,-1.65373 -0.81345,-2.03363 -0.763,-0.76297 -2.16599,-1.75928 -3.25379,-2.84706 -0.13559,-0.13557 -0.27116,-1.0846 -0.40672,-1.22015 -1.15108,-1.15109 -2.04848,-3.26867 -3.2538,-4.47397 -0.2392,-0.23922 -0.97178,-2.28201 -0.81343,-2.44036 0.74803,-0.74804 3.02924,-1.51464 4.06723,-2.03363 0.51351,-0.25674 2.04989,0.39046 2.44033,0 0.3696,-0.36958 0,-3.67212 0,-4.88069 0,-0.45176 0.28761,-2.55947 0,-2.84706 -1.30629,-1.30628 -1.94782,-3.98145 -3.25379,-5.28742 -0.27116,-0.27115 -0.13556,-0.94903 -0.40672,-1.22017 -0.74565,-0.74566 -3.72833,0.74565 -4.47398,0 -0.81016,-0.8102 -2.88888,-1.26199 -3.66049,-2.03361 -0.38651,-0.38649 0,-3.12105 0,-3.66055 0,-2.6222 0.67773,-14.50673 0,-15.86223 -0.55718,-1.11434 -3.29161,-0.85124 -3.66055,-1.22019 -0.4161,-0.41608 -1.13377,-1.13377 -1.62689,-1.62689 -0.15844,-0.15846 0,-1.37868 0,-1.62689 0,-0.45178 0.28762,-2.55947 0,-2.84707 -0.27379,-0.27382 -0.51399,-0.21453 -0.81346,-0.81347 -0.12125,-0.2425 0.19174,-0.6217 0,-0.81344 -0.37991,-0.37991 -1.6537,-0.43352 -2.03362,-0.81343 -0.68938,-0.68943 -1.79292,-2.6064 -2.44036,-3.2538 -0.49356,-0.49357 -2.64507,-1.01821 -2.84705,-1.22018 -0.4472,-0.4472 -1.46168,-1.46167 -2.03363,-2.03362 -1.46435,-1.46435 0.0205,-4.02655 -0.81343,-5.69412 -0.0857,-0.17144 -2.3471,-2.34714 -2.44033,-2.44036 -0.0636,-0.0636 -1.5635,-0.0636 -1.62695,0 -0.81341,0.81343 0.8135,4.06725 0,4.8807 -0.10764,0.10765 -1.05267,0 -1.22011,0 -0.1356,0 -0.40674,0.13558 -0.40674,0 0,-0.1356 0.54226,0 0.40674,0 -0.40674,0 -0.81347,0 -1.22022,0 -0.58899,0 -1.92481,0.25774 -2.44035,0 -1.34112,-0.67057 -3.10119,-3.50794 -4.06721,-4.47398 -0.13559,-0.13557 -1.0846,-0.27114 -1.22018,-0.40672 -0.40673,-0.4067 -0.81344,-0.81346 -1.22017,-1.22018 -0.66137,-0.66135 -5.8037,0.7039 -6.9143,-0.40672 -0.97434,-0.97434 -1.38328,-3.17324 -2.03364,-4.47397 -0.85567,-1.71136 -2.14137,-2.14137 -3.25379,-3.2538 -0.35678,-0.35676 -0.86339,-1.67683 -1.22021,-2.03362 -0.31042,-0.31046 -3.70134,-0.85429 -4.06721,-1.22016 -0.20336,-0.20337 -0.20336,-0.61009 -0.40674,-0.81347 -0.19171,-0.19173 -0.62169,0.19175 -0.81344,0 -0.61416,-0.61414 -0.28015,-1.15688 -1.22016,-1.62687 -1.02299,-0.51151 -2.59858,0.12422 -3.66052,-0.40673 -1.22435,-0.61219 -2.08667,-1.67994 -2.84708,-2.44034 -0.20335,-0.20338 0.20337,-1.01682 0,-1.2202 -0.5208,-0.5208 -1.13356,-1.17685 -2.03362,-1.62688 -0.98966,-0.49483 -1.99989,-0.59323 -3.25377,-1.22018 -1.80636,-0.90317 -5.67158,0.68541 -7.72778,0 -0.4157,-0.13855 0.36014,-3.30038 0,-3.66051 -1.3462,-1.34621 0.29861,1.11206 -1.2202,-0.40674 -0.7426,-0.7426 -2.06063,-2.25049 -3.25377,-2.84706 -1.0237,-0.51184 -2.88295,-0.036 -3.66052,-0.81344 -1.10006,-1.10007 1.43299,-1.12323 1.6269,-1.22019 0.96806,-0.48403 3.12744,-1.90727 3.66051,-2.44033 0.65488,-0.65487 7.29888,0.62117 8.54123,0 0.65416,-0.3271 0.90231,-1.71579 1.22015,-2.03363 0.11739,-0.11737 2.84708,-0.7077 2.84708,-0.40673 0,0.13559 -0.50258,0.0959 -0.40674,0 0.30317,-0.30317 0.91703,-0.10354 1.22019,-0.40672 0.036,-0.036 0,-1.57107 0,-0.40672 l 1.22016,0 c 30.50434,8.5412 80.5314,32.33457 113.47611,95.37685 z"
       id="path2835"
       sodipodi:nodetypes="csssssssssssssssssssssssssssssssssssssssssssssssssssssssssssssssssssssssssssssssssssssssssssssssssssssssssssccc" />
    <path
       style="fill:#00ff00;stroke:#000000;stroke-width:0.80527306px;stroke-linecap:butt;stroke-linejoin:miter;stroke-opacity:1"
       d="m 459.06952,387.59199 c 0.2673,0.0614 0.088,-0.60741 0.1438,-0.719 0.38586,-0.77172 2.72927,-2.51504 3.45116,-2.87596 0.38586,-0.19294 0.86279,0 1.29419,0 0.26526,0 0.91054,-0.11993 1.1504,0 0.80845,0.40422 1.99448,1.41926 2.58836,2.01316 0.60379,0.60378 1.47041,0.60113 2.15699,1.15038 0.9254,0.74033 0.26948,0.53901 0.57517,1.15042 0.24667,0.49325 0.0272,-0.0795 0.28762,0.14379 0.30878,0.26469 0.59811,0.55398 0.86279,0.86279 0.0626,0.073 -0.068,0.2198 0,0.28759 0.29754,0.29753 -0.0114,-0.45466 0.28761,0.1438 0.11121,0.22243 0.0193,0.51783 0.28758,0.71899 0.45603,0.34202 2.54335,1.37506 3.1636,1.58179 0.25882,0.0863 0.60396,-0.0863 0.86278,0 0.68849,0.22951 1.88735,0.15729 2.44459,0.57522 0.8565,0.64237 0.36827,1.32931 0.57518,2.15695 0.12491,0.49972 1.53749,1.46004 1.8694,2.01319 0.19128,0.3188 0.21779,0.62453 0.57516,0.86279 0.68058,0.45372 1.76325,0.16263 2.58839,0.5752 0.15237,0.0764 0.41226,-0.0545 0.5752,0 0.36206,0.12068 0.50073,0.45451 0.86279,0.5752 0.47515,0.15839 0.71852,-2.4e-4 1.2942,0.2876 0.13159,0.066 0.47762,-0.0976 0.57517,0 0.18637,0.18637 -0.0947,1.24845 0,1.43799 0.29923,0.59844 -0.009,-0.15375 0.28763,0.1438 0.29403,0.29403 0.35884,0.68209 0.57518,1.00658 0.59846,0.89769 -0.22153,-0.36532 0.28761,0.1438 0.42391,0.42393 0.0389,1.47672 0.43137,1.86938 0.23051,0.23051 0.60374,0.0144 0.86278,0.1438 0.74286,0.37142 0.86767,1.15282 1.15043,1.2942 0.0856,0.043 0.20182,-0.043 0.28759,0 0.29568,0.14784 0.28757,1.25391 0.28757,1.58178 0,0.50789 0.18016,2.2281 0,2.58839 -0.15501,0.31 -0.61536,0.51179 -0.71899,0.71897 -0.34798,0.69603 -0.93018,1.7593 -1.72558,2.157 -0.11504,0.0576 -0.31633,-0.0576 -0.43138,0 -0.12127,0.0607 -0.159,0.24471 -0.28759,0.28758 -1.02297,0.34101 -2.28248,-0.10714 -2.73221,-1.00659 -0.11318,-0.22638 -0.15452,-0.6632 -0.28757,-0.86279 -0.23553,-0.35325 -0.53374,-0.63607 -0.719,-1.00659 -0.10021,-0.20056 -0.0435,-0.51843 -0.1438,-0.71899 -0.24237,-0.48475 -2.05142,-0.71899 -2.58835,-0.71899 -0.33058,0 -1.18854,-0.16632 -1.43803,0 -0.36851,0.24569 -0.27404,0.32565 -0.43137,0.71899 -0.13401,0.33496 -0.40321,0.69081 -0.5752,0.86279 -0.14048,0.14047 0,1.10969 0,1.2942 0,0.17282 0.12352,1.02686 0,1.15039 -0.068,0.068 -0.19174,0 -0.28759,0 -0.50297,0 -1.3739,0.16516 -1.86941,0 -1.24319,-0.41441 -0.77087,-1.3061 -1.00659,-2.01319 -0.083,-0.24907 -0.45983,-0.48828 -0.57517,-0.71899 -0.0857,-0.17151 0.0857,-0.40371 0,-0.5752 -0.0607,-0.12128 -0.22696,-0.16633 -0.28763,-0.28759 -0.0955,-0.19093 -0.0485,-0.52807 -0.14379,-0.719 -0.0607,-0.12127 -0.22696,-0.16635 -0.28757,-0.28759 -0.0762,-0.15203 -0.0635,-0.41416 -0.1438,-0.57518 -0.091,-0.18191 -0.31862,-0.26221 -0.43142,-0.43142 -0.0875,-0.13121 -0.13889,-0.44776 -0.28757,-0.5752 -1.02685,-0.88013 -2.06442,-1.00659 -3.30738,-1.00659 -0.21744,0 -1.4335,0.14832 -1.58179,0 -0.28758,-0.28761 0.14378,-0.21569 0,-0.43139 -0.2779,-0.41684 -0.70396,-0.96151 -0.86279,-1.438 -0.23356,-0.70056 -0.54805,-2.38222 -0.2876,-3.16357 0.19355,-0.58066 0.38463,-1.09035 0.57516,-1.72558 0.13796,-0.4597 0.11381,-2.56458 0,-3.01976 -0.13514,-0.54072 -0.53987,-0.70269 -0.71896,-1.15041 -0.21453,-0.53627 0.21952,-1.18061 -0.14383,-1.72558 -0.0566,-0.0846 -0.76943,0.0145 -0.86279,0 -0.52966,-0.0815 -1.05958,-0.1671 -1.58177,-0.2876 -0.14771,-0.0341 -3.47954,-1.66201 -3.73876,-1.86938 -0.36932,-0.29545 -0.6393,-0.92689 -0.86279,-1.15038 -0.2544,-0.25441 -1.47059,-0.66341 -1.86938,-1.43799 z"
       id="path2837" />
    <path
       style="fill:#00ff00;stroke:#000000;stroke-width:0.80527306px;stroke-linecap:butt;stroke-linejoin:miter;stroke-opacity:1"
       d="m 288.04103,564.20671 c 0.68931,-1.04735 2.53332,-2.06462 3.66051,-2.44036 0.40437,-0.1348 1.04547,0.18904 1.42352,0 1.61273,-0.80637 3.35922,-1.74491 5.2874,-1.42353 1.17471,0.19579 2.51657,0.877 3.66053,1.22017 0.37151,0.11145 0.84103,-0.0842 1.22018,0 0.84222,0.18715 2.16789,0.47188 2.6437,1.42353 0.0607,0.12126 -0.0959,0.31085 0,0.40674 0.19139,0.1914 0.89568,0.12222 1.22018,0.20334 1.76321,0.44081 2.79813,0.8821 4.47396,1.62693 0.38674,0.17187 1.05437,-0.2014 1.42354,0 2.30893,1.25939 1.82671,1.96346 3.45717,3.05042 0.59917,0.39945 4.17274,0.71561 4.2706,0.81344 0.129,0.12898 -0.0847,0.64413 0,0.81345 0.23452,0.46904 1.35754,0.54407 1.6269,0.81346 0.0677,0.0677 0.0677,1.55938 0,1.6269 -0.0893,0.0892 -4.7582,0 -5.28743,0 -1.56395,0 -4.73371,1.19901 -6.30422,0.61006 -0.10711,-0.0402 -0.7848,-1.48224 -1.01681,-1.83026 -0.41498,-0.62246 -2.3857,-2.81063 -3.05045,-3.25379 -0.27802,-0.18536 -1.16025,-0.46647 -1.42352,-0.61008 -0.4798,-0.26171 -0.96009,-0.52378 -1.42354,-0.81345 -0.12853,-0.0806 -0.40672,-0.0519 -0.40672,-0.20337 0,-0.068 0.27114,0 0.20338,0 -0.20338,0 -0.41631,0.0618 -0.6101,0 -3.51279,-1.11768 -2.68804,-1.26145 -4.8807,-1.6269 -1.42688,-0.2378 -2.96283,-0.0293 -4.27059,0.40673 -0.83291,0.27764 -5.06191,0 -5.89749,-0.81343 z"
       id="path2839" />
    <path
       style="fill:#00ff00;stroke:#000000;stroke-width:0.80527306px;stroke-linecap:butt;stroke-linejoin:miter;stroke-opacity:1"
       d="m 309.80076,579.05214 c -0.0617,0.62461 0.0495,1.06608 0.40673,1.42355 0.23724,0.23724 -0.0339,0.98289 0.20336,1.22015 0.3255,0.3255 2.56613,0.20338 3.25379,0.20338 0.22588,0 1.27973,0.14379 1.42353,0 0.18165,-0.18165 0.20337,-1.31171 0.20337,-1.62692 0,-0.53171 0.45354,-1.32991 0.20336,-1.83025 -0.26434,-0.52869 -3.18457,-0.20338 -3.66052,-0.20338 -1.09566,0 -0.5497,0 -2.03362,0.81347 z"
       id="path2841" />
    <path
       style="fill:#00ff00;stroke:#000000;stroke-width:0.80527306px;stroke-linecap:butt;stroke-linejoin:miter;stroke-opacity:1"
       d="m 325.05292,572.54456 c -0.3837,1.02092 0.48583,2.68883 0,3.66051 -0.19096,0.38192 -0.44198,0.27386 -0.6101,0.61007 -0.0598,0.11954 -0.11489,1.51201 0,1.62691 0.27482,0.27482 3.20214,-0.22058 3.8639,0 0.73739,0.24579 3.83354,0.24884 3.86386,0.20336 0.11892,-0.17837 0.0845,-0.43173 0.20337,-0.61008 0.0377,-0.0565 0.14696,0.0377 0.20337,0 0.44052,-0.29368 0.71791,-0.84941 1.22017,-1.01681 0.12861,-0.043 0.28547,0.0607 0.40673,0 0.2307,-0.11536 0.11705,-0.44575 0.61008,-0.61009 0.67346,-0.22449 2.38806,0.45901 2.84707,0 0.12659,-0.12659 0,-0.39022 0,-1.22016 0,-0.19286 0.12281,-1.09738 0,-1.22018 -1.07032,-1.07034 -3.85643,-1.00936 -4.67731,-1.83026 -0.11473,-0.11473 -0.65094,0.0543 -0.81348,0 -0.55229,-0.1841 -0.99295,-0.58625 -1.22015,-0.81346 -0.17013,-0.17012 -1.02793,-0.0111 -1.22019,-0.20337 -0.048,-0.048 0.048,-0.15542 0,-0.20336 -0.0539,-0.0539 -0.52635,0 -0.61007,0 -0.61901,0 -2.55262,-0.33186 -3.05044,0 -0.36116,0.24077 -0.67788,0.54229 -1.01681,1.62692 z"
       id="path2843" />
    <path
       style="fill:#00ff00;stroke:#000000;stroke-width:0.80527306px;stroke-linecap:butt;stroke-linejoin:miter;stroke-opacity:1"
       d="m 343.15215,575.39161 c 0.56188,-0.23012 -0.52758,1.11211 -0.20335,1.22017 0.73211,0.24403 1.70825,-0.24403 2.44033,0 0.43984,0.14664 0.56478,0.20336 1.01682,0.20336 0.13557,0 0.31085,0.0959 0.40671,0 0.073,-0.073 0,-0.33107 0,-0.81344 0,-0.1241 0.0794,-0.73421 0,-0.81343 -0.19589,-0.19591 -1.63434,-0.21084 -1.83024,-0.40673 -0.048,-0.048 0.048,-0.15544 0,-0.20337 -0.10461,-0.10461 -1.62462,0 -1.83027,0.81344 z"
       id="path2845" />
    <path
       style="fill:#00ff00;stroke:#000000;stroke-width:0.80527306px;stroke-linecap:butt;stroke-linejoin:miter;stroke-opacity:1"
       d="m 354.54043,575.18827 c -0.13392,0.33996 -0.81477,-0.20207 -1.0168,0 -0.12677,0.12674 -0.0394,1.91587 0,2.03362 0.0187,0.0561 1.10578,0 1.22015,0 0.95878,0 3.57553,0.3217 2.64372,-0.61011 -0.28137,-0.28137 -0.3113,-0.56235 -0.81347,-0.81346 -0.58875,-0.29438 0.30875,0.002 -2.0336,-0.61005 z"
       id="path2847" />
    <path
       style="fill:#00ff00;stroke:#000000;stroke-width:0.80527306px;stroke-linecap:butt;stroke-linejoin:miter;stroke-opacity:1"
       d="m 360.64128,582.10256 c -0.74644,-0.34062 -0.27489,1.6269 -0.4067,1.6269 -0.068,0 -0.068,-0.20335 0,-0.20335 0.0959,0 0.11762,0.16047 0.20337,0.20335 0.18744,0.0937 2.10872,0.12827 2.23697,0 0.0677,-0.0677 0.0677,-1.55939 0,-1.6269 -0.2876,-0.28759 -0.81346,0 -2.03364,0 z"
       id="path2849" />
    <path
       style="fill:#00ff00;stroke:#000000;stroke-width:0.80527306px;stroke-linecap:butt;stroke-linejoin:miter;stroke-opacity:1"
       d="m 362.8783,587.18662 c -0.35968,-0.73416 -0.59855,1.63845 -0.40675,1.83026 0.0959,0.0959 0.27115,0 0.40675,0 0.29128,0 1.64487,0.18538 1.83026,0 0.12312,-0.12313 0,-1.07206 0,-1.22017 0,-0.20337 0.20334,-0.61009 0,-0.61009 -2.37386,0 -0.36043,0.20338 -1.83026,0 z"
       id="path2851" />
    <path
       style="fill:#00ff00;stroke:#000000;stroke-width:0.80527306px;stroke-linecap:butt;stroke-linejoin:miter;stroke-opacity:1"
       d="m 363.28501,591.86395 c 1.42298,0 0.73362,-0.13951 -0.20337,0.61009 -0.10588,0.0846 0,0.27114 0,0.40672 0,0.59356 0.29126,0.40673 1.22018,0.40673 0.0829,0 0.78807,0.0509 0.81345,0 0.0634,-0.12621 0,-0.63327 0,-0.81345 0,-0.69406 0.11117,-0.3845 -1.83026,-0.61009 z"
       id="path2853" />
    <path
       style="fill:#00ff00;stroke:#000000;stroke-width:0.80527306px;stroke-linecap:butt;stroke-linejoin:miter;stroke-opacity:1"
       d="m 370.40268,595.11776 c 0.0598,0.32543 -0.4541,1.57952 -0.40671,1.62688 0.0965,0.0966 1.98428,0.0495 2.03363,0 0.0521,-0.052 0.0514,-2.10965 -0.20339,-2.23698 -0.36879,-0.18438 -0.81581,-0.12249 -1.42353,0.6101 z"
       id="path2855" />
    <path
       style="fill:#00ff00;stroke:#000000;stroke-width:0.80527306px;stroke-linecap:butt;stroke-linejoin:miter;stroke-opacity:1"
       d="m 305.32679,554.44531 c -1.22129,1.7565 3.84975,1.64105 4.06723,1.42353 0.12316,-0.12313 0,-1.07204 0,-1.22013 0,-0.34502 0.0991,-1.12635 0,-1.42358 -0.012,-0.0357 -0.74094,0 -0.81342,0 -0.63229,0 -1.64248,-0.19814 -2.23699,0 -0.34634,0.11545 -0.67787,0.27114 -1.01682,1.22018 z"
       id="path2857" />
    <path
       style="fill:#00ff00;stroke:#000000;stroke-width:0.80527306px;stroke-linecap:butt;stroke-linejoin:miter;stroke-opacity:1"
       d="m 307.56378,546.92092 c -0.33893,0 -0.67786,0 -1.01682,0 -0.20335,0 -0.41717,-0.0645 -0.61009,0 -0.33859,0.11286 -0.73054,2.3801 -0.20337,2.64368 0.44622,0.22311 1.511,0 2.03363,0 0.13024,0 1.1805,0.0796 1.22018,0 0.0412,-0.0819 -0.0303,-1.62687 0,-1.62687 0.068,0 0.0349,0.26148 0,0.20336 -0.23397,-0.38994 -0.40671,-0.81344 -1.42353,-1.22017 z"
       id="path2859" />
    <path
       style="fill:url(#linearGradient3773);fill-opacity:1;stroke:#000000;stroke-width:4;stroke-linecap:butt;stroke-linejoin:miter;stroke-opacity:1;stroke-miterlimit:4;stroke-dasharray:none"
       d="m 160.57657,504.21731 -33.74584,-25.30937 109.67399,-8.43646 52.30606,121.48502 c 0,0 -23.62209,-35.43313 -35.43313,-21.93479 -11.81105,13.49832 -38.80773,133.29606 -40.49503,146.79439 -1.68729,13.49833 -84.36459,-143.41981 -84.36459,-143.41981 l 32.05854,-69.17898 z"
       id="path2873" />
    <path
       style="fill:url(#linearGradient3789);fill-opacity:1;stroke:#000000;stroke-width:4;stroke-linecap:butt;stroke-linejoin:miter;stroke-opacity:1;stroke-miterlimit:4;stroke-dasharray:none"
       d="m 501.59029,353.38066 38.79149,-16.57008 -47.53081,99.19869 -131.36214,-15.44414 c 0,0 42.49704,-2.74075 36.71265,-19.71858 -5.78438,-16.97784 -96.03391,-100.25652 -106.88016,-108.46692 -10.84627,-8.2104 166.38749,-1.35198 166.38749,-1.35198 l 43.88148,62.35301 z"
       id="path2873-7" />
    <path
       style="fill:url(#linearGradient3807);stroke:#000000;stroke-width:4;stroke-linecap:butt;stroke-linejoin:miter;stroke-opacity:1;stroke-miterlimit:4;stroke-dasharray:none"
       d="m 468.95682,717.17576 -5.04563,41.87945 -62.14318,-90.76222 79.05608,-106.04089 c 0,0 -18.87495,38.17389 -1.27953,41.65338 17.59542,3.47951 134.84165,-33.03955 147.37519,-38.32747 12.53355,-5.28794 -82.0229,144.77178 -82.0229,144.77178 l -75.94003,6.82597 z"
       id="path2873-7-2" />
  </g>
</svg>
