<?xml version="1.0" encoding="UTF-8" standalone="no"?>
<!-- Created with Inkscape (http://www.inkscape.org/) -->

<svg
   xmlns:dc="http://purl.org/dc/elements/1.1/"
   xmlns:cc="http://creativecommons.org/ns#"
   xmlns:rdf="http://www.w3.org/1999/02/22-rdf-syntax-ns#"
   xmlns:svg="http://www.w3.org/2000/svg"
   xmlns="http://www.w3.org/2000/svg"
   xmlns:xlink="http://www.w3.org/1999/xlink"
   xmlns:sodipodi="http://sodipodi.sourceforge.net/DTD/sodipodi-0.dtd"
   xmlns:inkscape="http://www.inkscape.org/namespaces/inkscape"
   width="96"
   height="96"
   id="svg2"
   sodipodi:version="0.32"
   inkscape:version="0.47pre4 r22446"
   sodipodi:docname="trailhead.svg"
   inkscape:output_extension="org.inkscape.output.svg.inkscape"
   version="1.0"
   inkscape:export-filename="/home/campbelk/svn2/ocm/OpenCacheManager/ocm-gtk/icons/24x24/pushpin.png"
   inkscape:export-xdpi="28.16901"
   inkscape:export-ydpi="28.16901">
  <defs
     id="defs4">
    <linearGradient
       id="linearGradient5260">
      <stop
         style="stop-color:#cccccc;stop-opacity:1;"
         offset="0"
         id="stop5262" />
      <stop
         style="stop-color:#ffffff;stop-opacity:1;"
         offset="1"
         id="stop5264" />
    </linearGradient>
    <linearGradient
       id="linearGradient5234">
      <stop
         style="stop-color:#000a61;stop-opacity:1;"
         offset="0"
         id="stop5236" />
      <stop
         style="stop-color:#0011ff;stop-opacity:1;"
         offset="1"
         id="stop5238" />
    </linearGradient>
    <linearGradient
       id="linearGradient3291">
      <stop
         style="stop-color:#9d9d96;stop-opacity:1;"
         offset="0"
         id="stop3293" />
      <stop
         style="stop-color:#fffff8;stop-opacity:1;"
         offset="1"
         id="stop3295" />
    </linearGradient>
    <linearGradient
       id="linearGradient3281">
      <stop
         style="stop-color:#c83737;stop-opacity:1;"
         offset="0"
         id="stop3283" />
      <stop
         id="stop3289"
         offset="0.5"
         style="stop-color:#f91212;stop-opacity:1;" />
      <stop
         style="stop-color:#c83737;stop-opacity:1;"
         offset="1"
         id="stop3285" />
    </linearGradient>
    <linearGradient
       id="linearGradient3175">
      <stop
         style="stop-color:#6a6959;stop-opacity:1;"
         offset="0"
         id="stop3177" />
      <stop
         style="stop-color:#fefff2;stop-opacity:1;"
         offset="1"
         id="stop3179" />
    </linearGradient>
    <inkscape:perspective
       sodipodi:type="inkscape:persp3d"
       inkscape:vp_x="-12.375029 : 405.77812 : 1"
       inkscape:vp_y="-135.20688 : 990.81739 : 0"
       inkscape:vp_z="648.73204 : 522.02489 : 1"
       inkscape:persp3d-origin="299.65276 : 281.4138 : 1"
       id="perspective10" />
    <linearGradient
       inkscape:collect="always"
       xlink:href="#linearGradient3281"
       id="linearGradient3287"
       x1="89.338058"
       y1="88.349709"
       x2="120.92042"
       y2="88.349709"
       gradientUnits="userSpaceOnUse"
       gradientTransform="matrix(1.023059,0,0,0.8799524,-18.324982,11.901062)" />
    <linearGradient
       inkscape:collect="always"
       xlink:href="#linearGradient3291"
       id="linearGradient3297"
       x1="87.539955"
       y1="116.9868"
       x2="89.484499"
       y2="116.9868"
       gradientUnits="userSpaceOnUse"
       gradientTransform="matrix(1.4320388,0,0,0.9521038,-54.490308,5.8360213)" />
    <linearGradient
       inkscape:collect="always"
       xlink:href="#linearGradient3175"
       id="linearGradient3305"
       x1="84.586533"
       y1="158.52933"
       x2="92.791481"
       y2="158.52933"
       gradientUnits="userSpaceOnUse"
       gradientTransform="matrix(1.4114053,0,0,1.2298024,-52.663996,-37.738474)" />
    <linearGradient
       inkscape:collect="always"
       xlink:href="#linearGradient5234"
       id="linearGradient5258"
       x1="71.09333"
       y1="20.82963"
       x2="76.699257"
       y2="10.891851"
       gradientUnits="userSpaceOnUse" />
    <linearGradient
       inkscape:collect="always"
       xlink:href="#linearGradient5260"
       id="linearGradient5266"
       x1="60.124741"
       y1="25.706623"
       x2="60.124741"
       y2="38.316784"
       gradientUnits="userSpaceOnUse"
       gradientTransform="translate(42.296298,72.158894)" />
    <inkscape:perspective
       id="perspective2905"
       inkscape:persp3d-origin="0.5 : 0.33333333 : 1"
       inkscape:vp_z="1 : 0.5 : 1"
       inkscape:vp_y="0 : 1000 : 0"
       inkscape:vp_x="0 : 0.5 : 1"
       sodipodi:type="inkscape:persp3d" />
    <inkscape:perspective
       id="perspective2919"
       inkscape:persp3d-origin="0.5 : 0.33333333 : 1"
       inkscape:vp_z="1 : 0.5 : 1"
       inkscape:vp_y="0 : 1000 : 0"
       inkscape:vp_x="0 : 0.5 : 1"
       sodipodi:type="inkscape:persp3d" />
    <inkscape:perspective
       id="perspective2844"
       inkscape:persp3d-origin="229.07919 : 220.51935 : 1"
       inkscape:vp_z="458.15839 : 330.77902 : 1"
       inkscape:vp_y="0 : 1000 : 0"
       inkscape:vp_x="0 : 330.77902 : 1"
       sodipodi:type="inkscape:persp3d" />
  </defs>
  <sodipodi:namedview
     id="base"
     pagecolor="#ffffff"
     bordercolor="#666666"
     borderopacity="1.0"
     gridtolerance="10000"
     guidetolerance="10"
     objecttolerance="10"
     inkscape:pageopacity="0.0"
     inkscape:pageshadow="2"
     inkscape:zoom="2.8284271"
     inkscape:cx="25.908005"
     inkscape:cy="46.836683"
     inkscape:document-units="px"
     inkscape:current-layer="layer1"
     showgrid="false"
     inkscape:window-width="1024"
     inkscape:window-height="548"
     inkscape:window-x="0"
     inkscape:window-y="0"
     inkscape:window-maximized="1" />
  <metadata
     id="metadata7">
    <rdf:RDF>
      <cc:Work
         rdf:about="">
        <dc:format>image/svg+xml</dc:format>
        <dc:type
           rdf:resource="http://purl.org/dc/dcmitype/StillImage" />
        <dc:title />
      </cc:Work>
    </rdf:RDF>
  </metadata>
  <g
     inkscape:label="Layer 1"
     inkscape:groupmode="layer"
     id="layer1"
     transform="translate(-38.219261,-69.865561)">
    <path
       sodipodi:type="arc"
       style="fill:#ffffff;stroke:#ffffff;stroke-width:6.2814765;stroke-linejoin:miter;stroke-miterlimit:4;stroke-opacity:1;stroke-dasharray:none"
       id="path3748-8"
       sodipodi:cx="48.81356"
       sodipodi:cy="46.372879"
       sodipodi:rx="36.610168"
       sodipodi:ry="36.610168"
       d="m 85.423729,46.372879 c 0,20.219238 -16.390931,36.610168 -36.610169,36.610168 -20.219237,0 -36.610168,-16.39093 -36.610168,-36.610168 0,-20.219238 16.390931,-36.6101684 36.610168,-36.6101684 20.219238,0 36.610169,16.3909304 36.610169,36.6101684 z"
       transform="matrix(1.1684256,0,0,1.1626912,29.714693,64.382397)" />
    <g
       transform="matrix(0.11568052,0,0,0.11568052,52.742944,73.515361)"
       id="layer1-8"
       inkscape:label="Layer 1">
      <path
         sodipodi:nodetypes="cssssssssssssssssssssssssssssssssssssssssssssccssccsscsccczsssscccsssssssscccsccccsccssscccsssssssccsscccssssccccsscccsscccsscccssccscccsssccssssssssssssssssc"
         id="path3239"
         d="m 151.60139,722.17916 c 19.58955,-4.09916 37.90455,-7.50358 40.7,-7.5654 2.79544,-0.0618 7.55643,-1.14602 10.57997,-2.40933 6.33938,-2.64877 10.87013,-1.09118 17.51469,6.02125 4.77276,5.1088 10.6683,5.20511 28.9819,0.47341 10.02706,-2.5907 15.48765,-3.2388 20.28197,-2.40719 10.90595,1.89174 22.90064,2.42156 26.30569,1.16194 1.85811,-0.68737 4.02406,-3.6844 5.13379,-7.10364 1.05579,-3.25304 5.02676,-12.13409 8.82439,-19.73568 11.78904,-23.59771 18.88174,-32.97957 13.58666,-17.97171 -1.28668,3.64681 -2.33681,10.89835 -2.33362,16.11451 0.008,13.61692 3.00759,17.67071 17.22503,23.28108 6.27987,2.47812 15.48922,7.25159 20.46523,10.60771 10.58435,7.13872 11.5236,7.10526 30.44153,-1.08438 23.79282,-10.3 31.56705,-12.91246 46.45743,-15.61156 8.09134,-1.46666 15.93103,-3.30304 17.42155,-4.08084 3.91706,-2.04405 3.39563,-7.19319 -2.70851,-26.74697 -3.98275,-12.75815 -6.84782,-19.0273 -10.81259,-23.65925 -5.16472,-6.0338 -9.34185,-14.11134 -7.99427,-15.45892 0.35122,-0.35121 1.33996,1.31337 2.19725,3.69907 0.85726,2.38571 5.83191,9.21568 11.05474,15.17772 9.05608,10.33776 15.26139,21.21338 22.00596,38.56829 7.17362,18.45888 9.46961,21.79049 15.35928,22.28721 5.29739,0.44676 31.03888,-7.5157 35.16426,-10.87715 2.80668,-2.28694 2.41146,-7.96581 -1.87625,-26.96011 -5.43807,-24.09036 -9.72159,-37.10894 -13.66503,-41.53116 -4.76547,-5.34405 -41.61236,-31.81597 -44.28542,-31.81597 -2.31925,0 -12.73756,7.86291 -22.06997,16.65668 -6.72113,6.33317 -8.87364,4.61685 -3.72055,-2.9666 4.28132,-6.30053 19.41537,-39.31994 19.41537,-42.36037 0,-2.2229 -18.70105,-18.56497 -24.29215,-21.22789 -2.65424,-1.26416 -5.51965,-0.75878 -13.25458,2.33772 -9.67456,3.873 -10.04128,3.90239 -18.68099,1.49765 -4.84698,-1.34908 -8.81269,-3.2814 -8.81269,-4.29405 0,-1.01263 2.04091,-10.13138 4.53535,-20.26385 2.49446,-10.13249 7.77071,-33.05681 11.72501,-50.94292 3.95431,-17.88611 9.63238,-41.92784 12.61796,-53.42605 2.98559,-11.49822 8.52857,-33.0222 12.31776,-47.83104 3.78918,-14.80887 7.22023,-27.46049 7.62457,-28.11471 0.77278,-1.25041 13.14663,-42.45072 16.14355,-53.75207 1.0404,-3.92334 3.25524,-7.57425 5.47881,-9.03119 5.43276,-3.55967 7.56136,-11.62719 6.39084,-24.2216 -0.87971,-9.46516 -0.3903,-12.62297 4.22257,-27.24549 9.26961,-29.38411 9.77408,-32.21089 6.41152,-35.92648 -1.99486,-2.20428 -4.40015,-3.07214 -7.63688,-2.75544 -5.20708,0.50946 -6.4057,3.17291 -15.54005,34.53107 -5.70729,13.61562 -5.34796,18.02044 -17.44269,18.09297 -3.16887,0.36494 -5.07008,2.071 -7.44892,6.68433 -4.24393,8.23032 -9.24128,8.95705 -15.24653,2.2172 -4.03564,-4.52933 -4.95694,-4.84559 -12.32159,-4.22964 -13.34403,2.40535 -19.71134,8.95075 -33.04194,-3.93145 -2.58663,-1.91238 -8.141,-5.59243 -9.97717,-9.19185 -1.83615,-3.59941 -7.67291,-11.074 -12.97055,-16.61017 -16.39021,-17.12815 -13.71231,-19.3494 0.10749,-19.3494 17.28888,-1.7541 13.29837,-8.77828 15.78968,-16.9574 0.96509,-3.16846 8.40706,-2.98655 8.00336,-4.99678 -0.79476,-10.80945 1.40745,-17.47946 6.49054,-21.01869 2.89955,-8.51192 0.2393,-10.52033 7.3244,-12.85678 6.43813,-3.68532 -7.63368,-18.17081 -18.63999,-21.46999 -10.82702,-3.24542 -12.42009,-8.59278 -12.42009,-9.41961 0,-0.82684 -1.75727,-3.88519 -3.90502,-6.79633 -2.14778,-2.91113 1.05644,-12.81485 0.18974,-16.033494 -0.86669,-3.218664 -3.11637,-6.839776 -4.9993,-8.046927 -4.28307,-2.745882 -15.83697,-7.857733 -45.74484,-16.43582 L 271.1985,68.254348 260.18026,70.90445 c -24.68118,5.936285 -22.04913,4.113667 -26.58062,18.40636 -4.49177,14.16744 -6.81467,38.83006 -4.12981,43.84678 1.47782,2.76132 1.13566,2.9592 -4.23203,2.4473 -3.77232,-0.35975 -8.05523,0.5733 -12.09738,2.63544 -5.62144,2.86785 -6.75754,4.49581 -11.17634,16.01496 -10.59011,27.60687 -47.28059,136.99972 -48.70905,145.22629 -0.76762,4.42076 0.15387,7.41861 4.99803,16.26011 5.54142,10.11409 6.53659,11.07923 14.85974,14.41123 4.90632,1.96414 12.31672,3.97338 16.46755,4.46499 l 7.54696,0.89383 -3.59698,4.8265 c -1.97834,2.65457 -5.25307,9.70452 -7.27715,15.66656 -3.13414,9.23178 -3.70531,14.05666 -3.84969,32.52021 8.4036,21.71197 6.40517,42.74379 5.54644,66.89558 l -1.32756,19.98611 c -1.66515,15.66384 -5.38093,27.15984 -14.44798,52.49061 -4.24924,9.75207 -5.78754,16.01397 -7.22813,29.42305 -1.00651,9.36892 -3.01409,22.87078 -4.46128,30.00415 -1.59265,9.74817 -3.82107,14.26132 -6.61482,16.98425 -2.64576,2.49303 -17.05482,23.48624 -16.87162,29.79946 0.19524,6.72863 0.51093,6.605 8.50684,14.32437 5.87921,5.67591 13.75275,10.31984 14.96186,10.31984 1.2091,0 3.92091,2.63098 6.02626,5.84663 l 3.82788,5.84662 -6.67964,3.46929 c -6.19826,3.21926 -7.00679,3.30011 -11.21882,1.12199 -3.31053,-1.71194 -9.53233,-2.3473 -22.98606,-2.3473 -16.96058,0 -19.35461,-0.37432 -29.712928,-4.64574 -14.444735,-5.95652 -17.475711,-5.90373 -22.224637,0.38715 -9.50914,12.59675 -14.739148,24.85037 -15.836613,37.10436 -1.036728,11.57608 -0.956806,11.9875 2.623003,13.50089 9.999979,4.22758 37.495705,10.93145 44.186525,10.77335 4.1315,-0.0976 23.53963,-3.53135 43.12918,-7.63051 z m 86.86158,-54.92629 c -4.18103,-1.26836 -9.57235,-2.30611 -11.98072,-2.30611 -3.4763,0 -4.81246,-1.03735 -6.48262,-5.03289 -2.87575,-6.87971 -6.04767,-9.15161 -14.03378,-10.05177 l -6.80284,-0.76676 -2.66456,-11.04442 c -1.4655,-6.07442 -3.24168,-12.14298 -3.94705,-13.48568 -2.06939,-3.93912 11.56347,-52.51189 18.65008,-66.44877 1.52189,-2.99302 5.62957,-13.04791 9.12818,-22.3442 3.50651,-9.31732 8.76895,-19.99292 11.72669,-23.78934 5.8712,-7.53594 7.07459,-10.70029 10.90305,-28.66995 4.3159,-13.31978 10.6866,-24.90553 15.37474,-38.22251 5.4604,-17.59954 15.06441,-21.57276 16.63695,-21.50446 24.56587,1.65538 39.14627,6.99597 45.02326,9.22068 1.92476,1.00154 3.7021,1.9872 3.94965,2.19034 0.24752,0.20316 -0.93284,2.72199 -2.62304,5.59743 -5.00046,8.50697 -20.02641,45.99988 -22.00531,49.57234 l -6.152,7.29387 -5.99512,7.35281 c -9.65978,15.23193 -9.97714,23.12395 -1.30804,32.52882 7.09456,7.69669 13.05874,11.40615 18.5864,11.55995 2.29571,0.0639 6.37862,3.22807 11.48964,8.90433 l 7.92842,8.80527 -5.60555,8.43094 c -5.33668,8.02653 -6.19981,8.62078 -17.9942,12.38865 -6.81376,2.17675 -13.25974,4.52149 -14.32438,5.21054 -1.37551,0.89025 -1.93573,6.75753 -1.93573,20.27352 l 0,19.0207 -9.4142,2.85037 c -9.35473,2.83239 -9.449,2.9195 -14.92197,13.78736 -4.37766,8.69285 -12.2901,21.09337 -13.40073,21.00182 -0.11184,-0.009 -3.62419,-1.05452 -7.80522,-2.32288 z M 364.29378,547.76278 c -0.81913,-0.99806 -4.1746,-2.26835 -7.4566,-2.82283 -7.60901,-1.28554 -9.09044,-3.15258 -16.20873,-20.42788 l -5.86153,-14.22531 3.90018,-6.68053 c 2.14508,-3.67429 6.6802,-11.55857 10.07806,-17.52061 3.39785,-5.96203 10.53226,-17.46025 15.85426,-25.55158 16.81328,-25.56214 24.71421,-41.7186 24.67519,-50.45771 -0.0378,-8.45124 -4.6727,-20.30338 -8.51679,-21.7785 -33.41136,-14.17404 -46.23443,-23.43211 -73.00942,-34.07731 -5.81921,-1.48355 -11.1691,-3.18365 -11.88869,-3.77801 -0.71958,-0.59436 2.19402,-6.22 6.47463,-12.50142 5.23392,-7.68028 7.18218,-15.27288 10.32926,-21.55765 3.24491,-6.48016 3.47167,-6.65691 7.15424,-8.90268 2.62236,-1.5992 5.22936,-1.50706 8.13978,-2.46758 4.14869,-1.36919 8.80395,-0.459 16.58418,1.37492 5.45806,1.28656 14.00463,2.34949 18.99239,2.36208 7.81062,0.0197 9.9198,0.69704 15.2046,4.88268 5.78748,4.58376 6.68075,4.8089 15.72775,3.96409 13.20478,-1.23309 14.60047,-1.99613 18.79626,-10.27611 2.75623,-5.43916 5.27569,-7.98008 10.04531,-10.13088 11.46074,-5.16808 11.46509,-5.21939 -4.65922,54.94339 -1.48377,5.53617 -5.55646,21.21556 -9.05045,34.84307 -3.49399,13.62752 -7.74342,28.26161 -9.44317,32.52021 -6.30737,15.80267 -22.97143,82.08336 -29.72689,118.23775 -1.9658,10.52071 -3.81518,17.48932 -4.10972,15.48582 -0.29454,-2.00351 -1.20573,-4.45934 -2.02488,-5.45742 z"
         style="fill:#000000" />
    </g>
    <path
       sodipodi:type="arc"
       style="fill:none;stroke:#008000;stroke-width:6.2814765;stroke-linejoin:miter;stroke-miterlimit:4;stroke-opacity:1;stroke-dasharray:none"
       id="path3748"
       sodipodi:cx="48.81356"
       sodipodi:cy="46.372879"
       sodipodi:rx="36.610168"
       sodipodi:ry="36.610168"
       d="m 85.423729,46.372879 c 0,20.219238 -16.390931,36.610168 -36.610169,36.610168 -20.219237,0 -36.610168,-16.39093 -36.610168,-36.610168 0,-20.219238 16.390931,-36.6101684 36.610168,-36.6101684 20.219238,0 36.610169,16.3909304 36.610169,36.6101684 z"
       transform="matrix(1.2022981,0,0,1.195978,28.0542,62.59195)" />
  </g>
</svg>
