<?xml version="1.0" encoding="UTF-8" standalone="no"?>
<!-- Created with Inkscape (http://www.inkscape.org/) -->

<svg
   xmlns:dc="http://purl.org/dc/elements/1.1/"
   xmlns:cc="http://creativecommons.org/ns#"
   xmlns:rdf="http://www.w3.org/1999/02/22-rdf-syntax-ns#"
   xmlns:svg="http://www.w3.org/2000/svg"
   xmlns="http://www.w3.org/2000/svg"
   xmlns:sodipodi="http://sodipodi.sourceforge.net/DTD/sodipodi-0.dtd"
   xmlns:inkscape="http://www.inkscape.org/namespaces/inkscape"
   width="100"
   height="100"
   id="svg2"
   inkscape:label="Pozadí"
   sodipodi:version="0.32"
   inkscape:version="0.47 r22583"
   sodipodi:docname="crosscountryskisgrey.svg"
   inkscape:output_extension="org.inkscape.output.svg.inkscape"
   version="1.1">
  <defs
     id="defs2963">
    <inkscape:perspective
       sodipodi:type="inkscape:persp3d"
       inkscape:vp_x="0 : 526.18109 : 1"
       inkscape:vp_y="0 : 1000 : 0"
       inkscape:vp_z="744.09448 : 526.18109 : 1"
       inkscape:persp3d-origin="372.04724 : 350.78739 : 1"
       id="perspective346" />
    <inkscape:perspective
       id="perspective4464"
       inkscape:persp3d-origin="0.5 : 0.33333333 : 1"
       inkscape:vp_z="1 : 0.5 : 1"
       inkscape:vp_y="0 : 1000 : 0"
       inkscape:vp_x="0 : 0.5 : 1"
       sodipodi:type="inkscape:persp3d" />
    <inkscape:perspective
       id="perspective4512"
       inkscape:persp3d-origin="0.5 : 0.33333333 : 1"
       inkscape:vp_z="1 : 0.5 : 1"
       inkscape:vp_y="0 : 1000 : 0"
       inkscape:vp_x="0 : 0.5 : 1"
       sodipodi:type="inkscape:persp3d" />
    <inkscape:perspective
       id="perspective4512-4"
       inkscape:persp3d-origin="0.5 : 0.33333333 : 1"
       inkscape:vp_z="1 : 0.5 : 1"
       inkscape:vp_y="0 : 1000 : 0"
       inkscape:vp_x="0 : 0.5 : 1"
       sodipodi:type="inkscape:persp3d" />
    <inkscape:perspective
       id="perspective4919"
       inkscape:persp3d-origin="0.5 : 0.33333333 : 1"
       inkscape:vp_z="1 : 0.5 : 1"
       inkscape:vp_y="0 : 1000 : 0"
       inkscape:vp_x="0 : 0.5 : 1"
       sodipodi:type="inkscape:persp3d" />
    <inkscape:perspective
       id="perspective3045"
       inkscape:persp3d-origin="0.5 : 0.33333333 : 1"
       inkscape:vp_z="1 : 0.5 : 1"
       inkscape:vp_y="0 : 1000 : 0"
       inkscape:vp_x="0 : 0.5 : 1"
       sodipodi:type="inkscape:persp3d" />
    <inkscape:perspective
       id="perspective3637"
       inkscape:persp3d-origin="0.5 : 0.33333333 : 1"
       inkscape:vp_z="1 : 0.5 : 1"
       inkscape:vp_y="0 : 1000 : 0"
       inkscape:vp_x="0 : 0.5 : 1"
       sodipodi:type="inkscape:persp3d" />
    <inkscape:perspective
       id="perspective3628"
       inkscape:persp3d-origin="0.5 : 0.33333333 : 1"
       inkscape:vp_z="1 : 0.5 : 1"
       inkscape:vp_y="0 : 1000 : 0"
       inkscape:vp_x="0 : 0.5 : 1"
       sodipodi:type="inkscape:persp3d" />
  </defs>
  <sodipodi:namedview
     id="base"
     pagecolor="#ffffff"
     bordercolor="#666666"
     borderopacity="1.0"
     inkscape:pageopacity="0.0"
     inkscape:pageshadow="2"
     inkscape:zoom="2.52218"
     inkscape:cx="52.224168"
     inkscape:cy="48.742556"
     inkscape:document-units="px"
     inkscape:current-layer="layer1"
     inkscape:window-width="1024"
     inkscape:window-height="549"
     inkscape:window-x="0"
     inkscape:window-y="0"
     showgrid="false"
     inkscape:window-maximized="1" />
  <metadata
     id="metadata2966">
    <rdf:RDF>
      <cc:Work
         rdf:about="">
        <dc:format>image/svg+xml</dc:format>
        <dc:type
           rdf:resource="http://purl.org/dc/dcmitype/StillImage" />
        <dc:title></dc:title>
      </cc:Work>
    </rdf:RDF>
  </metadata>
  <g
     inkscape:label="Vrstva 1"
     inkscape:groupmode="layer"
     id="layer1"
     transform="translate(0,-952.36218)">
    <rect
       style="fill:#cccccc;fill-opacity:1;stroke:#cccccc;stroke-width:1.99660145999999994;stroke-linejoin:round;stroke-miterlimit:4;stroke-opacity:1;stroke-dasharray:none"
       id="rect4438-0-8"
       width="92.003395"
       height="92.003403"
       x="3.9550877"
       y="956.80017"
       rx="9.5836878"
       ry="9.5836878" />
    <rect
       style="fill:none;stroke:#4d4d4d;stroke-width:4;stroke-linejoin:round;stroke-miterlimit:4;stroke-opacity:0.30000000999999998;stroke-dasharray:none"
       id="rect4438"
       width="96"
       height="96"
       x="2.3964825"
       y="954.44861"
       rx="10"
       ry="10" />
    <rect
       style="fill:none;stroke:#4d4d4d;stroke-width:5;stroke-linejoin:round;stroke-miterlimit:4;stroke-opacity:0.69999999999999996;stroke-dasharray:none"
       id="rect4438-57"
       width="92.159996"
       height="92.160004"
       x="3.8767693"
       y="955.92902"
       rx="9.5999994"
       ry="9.6000004" />
    <rect
       style="fill:none;stroke:#4d4d4d;stroke-width:3.98613523999999986;stroke-linejoin:round;stroke-miterlimit:4;stroke-opacity:0.29999999999999999;stroke-dasharray:none"
       id="rect4438-5"
       width="88.013863"
       height="88.013863"
       x="5.7898545"
       y="958.55847"
       rx="9.1681108"
       ry="9.1681108" />
    <rect
       style="fill:none;stroke:#4d4d4d;stroke-width:1.99660145999999994;stroke-linejoin:round;stroke-miterlimit:4;stroke-opacity:1;stroke-dasharray:none"
       id="rect4438-0"
       width="92.003395"
       height="92.003403"
       x="4.2715678"
       y="956.08728"
       rx="9.5836878"
       ry="9.5836878" />
    <g
       id="g2840"
       style="fill:#808080;fill-opacity:1"
       transform="matrix(0.64014114,0,0,0.64014114,8.8415633,963.78181)">
      <path
         style="fill:#808080;fill-opacity:1"
         d="m 89.586,26.105 c 4.57,0 8.266,-3.711 8.266,-8.273 0,-4.562 -3.695,-8.266 -8.266,-8.266 -4.562,0 -8.273,3.703 -8.273,8.266 0,4.563 3.71,8.273 8.273,8.273 z"
         id="path9" />
      <path
         style="fill:#808080;fill-opacity:1"
         d="M 37.172,97.301 9.656,69.699 l 0.016,4.82 25.609,25.711 c 2.938,3.188 7.984,-0.5 7.984,-0.5 l -2.422,-2.586 c 0,0 -2.375,1.562 -3.609,0.227 l -0.062,-0.07 z"
         id="path11" />
      <rect
         x="9.8909998"
         y="45.245998"
         style="fill:#808080;fill-opacity:1"
         width="28.156"
         height="3.359"
         id="rect13" />
      <polygon
         style="fill:#808080;fill-opacity:1"
         points="117.383,38.559 85.414,102.918 81.875,102.918 114.172,37.215 "
         id="polygon15" />
      <path
         style="fill:#808080;fill-opacity:1"
         d="M 61.125,32.246 48.258,47.105 c -0.758,0.938 -1.922,1.516 -3.211,1.516 -2.312,0 -4.164,-1.859 -4.164,-4.156 0,-1.242 0.539,-2.352 1.406,-3.117 L 56.156,25.379 c 0.766,-0.914 1.914,-1.508 3.203,-1.508 l 20.086,-0.008 c 1.477,0 2.797,0.594 3.773,1.531 l 12.805,12.797 10.602,-10.586 c 0.75,-0.633 1.711,-1.008 2.766,-1.008 2.375,0 4.297,1.93 4.297,4.297 0,1.039 -0.359,1.977 -0.969,2.719 L 99.93,46.504 c -3.883,3.875 -7.008,0.586 -7.008,0.586 L 85.07,39.207 72.805,53.395 84.047,64.637 c 0,0 2.367,2.195 1.016,6.578 l -6.305,28.078 c -0.5,2.438 -2.656,4.266 -5.234,4.266 -2.953,0 -5.344,-2.391 -5.344,-5.344 0,-0.461 0.047,-0.914 0.164,-1.344 L 73.524,73.832 60.758,61.418 49.766,73.668 c 0,0 -1.781,2.195 -6.492,2.023 L 21,75.73 c -2.492,0.047 -4.75,-1.656 -5.312,-4.18 -0.656,-2.883 1.125,-5.703 4,-6.344 0.453,-0.102 0.906,-0.141 1.344,-0.125 l 19.164,0.055 28.336,-32.852 -7.407,-0.038 z"
         id="path17" />
      <path
         id="path19"
         d="m 114.195,102.723 c -0.008,2.766 -2.305,5 -5.062,4.992 H 26.82 v 3.391 h 82.297 c 4.641,0.023 8.422,-3.688 8.445,-8.352 l -3.367,-0.031 z"
         style="fill:#808080;fill-opacity:1" />
    </g>
  </g>
</svg>
