<?xml version="1.0" encoding="UTF-8" standalone="no"?>
<!-- Created with Inkscape (http://www.inkscape.org/) -->

<svg
   xmlns:dc="http://purl.org/dc/elements/1.1/"
   xmlns:cc="http://creativecommons.org/ns#"
   xmlns:rdf="http://www.w3.org/1999/02/22-rdf-syntax-ns#"
   xmlns:svg="http://www.w3.org/2000/svg"
   xmlns="http://www.w3.org/2000/svg"
   xmlns:sodipodi="http://sodipodi.sourceforge.net/DTD/sodipodi-0.dtd"
   xmlns:inkscape="http://www.inkscape.org/namespaces/inkscape"
   width="100"
   height="100"
   id="svg2"
   inkscape:label="Pozadí"
   sodipodi:version="0.32"
   inkscape:version="0.47 r22583"
   sodipodi:docname="parkinggrey.svg"
   inkscape:output_extension="org.inkscape.output.svg.inkscape"
   version="1.1">
  <defs
     id="defs2963">
    <inkscape:perspective
       sodipodi:type="inkscape:persp3d"
       inkscape:vp_x="0 : 526.18109 : 1"
       inkscape:vp_y="0 : 1000 : 0"
       inkscape:vp_z="744.09448 : 526.18109 : 1"
       inkscape:persp3d-origin="372.04724 : 350.78739 : 1"
       id="perspective346" />
    <inkscape:perspective
       id="perspective4464"
       inkscape:persp3d-origin="0.5 : 0.33333333 : 1"
       inkscape:vp_z="1 : 0.5 : 1"
       inkscape:vp_y="0 : 1000 : 0"
       inkscape:vp_x="0 : 0.5 : 1"
       sodipodi:type="inkscape:persp3d" />
    <inkscape:perspective
       id="perspective4512"
       inkscape:persp3d-origin="0.5 : 0.33333333 : 1"
       inkscape:vp_z="1 : 0.5 : 1"
       inkscape:vp_y="0 : 1000 : 0"
       inkscape:vp_x="0 : 0.5 : 1"
       sodipodi:type="inkscape:persp3d" />
    <inkscape:perspective
       id="perspective4512-4"
       inkscape:persp3d-origin="0.5 : 0.33333333 : 1"
       inkscape:vp_z="1 : 0.5 : 1"
       inkscape:vp_y="0 : 1000 : 0"
       inkscape:vp_x="0 : 0.5 : 1"
       sodipodi:type="inkscape:persp3d" />
    <inkscape:perspective
       id="perspective4919"
       inkscape:persp3d-origin="0.5 : 0.33333333 : 1"
       inkscape:vp_z="1 : 0.5 : 1"
       inkscape:vp_y="0 : 1000 : 0"
       inkscape:vp_x="0 : 0.5 : 1"
       sodipodi:type="inkscape:persp3d" />
    <inkscape:perspective
       id="perspective2831"
       inkscape:persp3d-origin="0.5 : 0.33333333 : 1"
       inkscape:vp_z="1 : 0.5 : 1"
       inkscape:vp_y="0 : 1000 : 0"
       inkscape:vp_x="0 : 0.5 : 1"
       sodipodi:type="inkscape:persp3d" />
    <inkscape:perspective
       id="perspective2993"
       inkscape:persp3d-origin="0.5 : 0.33333333 : 1"
       inkscape:vp_z="1 : 0.5 : 1"
       inkscape:vp_y="0 : 1000 : 0"
       inkscape:vp_x="0 : 0.5 : 1"
       sodipodi:type="inkscape:persp3d" />
  </defs>
  <sodipodi:namedview
     id="base"
     pagecolor="#ffffff"
     bordercolor="#666666"
     borderopacity="1.0"
     inkscape:pageopacity="0.0"
     inkscape:pageshadow="2"
     inkscape:zoom="2.52218"
     inkscape:cx="51.895941"
     inkscape:cy="51.797419"
     inkscape:document-units="px"
     inkscape:current-layer="layer1"
     inkscape:window-width="1024"
     inkscape:window-height="549"
     inkscape:window-x="0"
     inkscape:window-y="0"
     showgrid="false"
     inkscape:window-maximized="1" />
  <metadata
     id="metadata2966">
    <rdf:RDF>
      <cc:Work
         rdf:about="">
        <dc:format>image/svg+xml</dc:format>
        <dc:type
           rdf:resource="http://purl.org/dc/dcmitype/StillImage" />
        <dc:title></dc:title>
      </cc:Work>
    </rdf:RDF>
  </metadata>
  <g
     inkscape:label="Vrstva 1"
     inkscape:groupmode="layer"
     id="layer1"
     transform="translate(0,-952.36218)">
    <rect
       style="fill:#cccccc;fill-opacity:1;stroke:#cccccc;stroke-width:1.99660145999999994;stroke-linejoin:round;stroke-miterlimit:4;stroke-opacity:1;stroke-dasharray:none"
       id="rect4438-0-8"
       width="92.003395"
       height="92.003403"
       x="3.9550877"
       y="956.80017"
       rx="9.5836878"
       ry="9.5836878" />
    <rect
       style="fill:none;stroke:#4d4d4d;stroke-width:4;stroke-linejoin:round;stroke-miterlimit:4;stroke-opacity:0.30000000999999998;stroke-dasharray:none"
       id="rect4438"
       width="96"
       height="96"
       x="2.3964825"
       y="954.44861"
       rx="10"
       ry="10" />
    <rect
       style="fill:none;stroke:#4d4d4d;stroke-width:5;stroke-linejoin:round;stroke-miterlimit:4;stroke-opacity:0.69999999999999996;stroke-dasharray:none"
       id="rect4438-57"
       width="92.159996"
       height="92.160004"
       x="3.8767693"
       y="955.92902"
       rx="9.5999994"
       ry="9.6000004" />
    <rect
       style="fill:none;stroke:#4d4d4d;stroke-width:3.98613523999999986;stroke-linejoin:round;stroke-miterlimit:4;stroke-opacity:0.29999999999999999;stroke-dasharray:none"
       id="rect4438-5"
       width="88.013863"
       height="88.013863"
       x="5.7898545"
       y="958.55847"
       rx="9.1681108"
       ry="9.1681108" />
    <rect
       style="fill:none;stroke:#4d4d4d;stroke-width:1.99660145999999994;stroke-linejoin:round;stroke-miterlimit:4;stroke-opacity:1;stroke-dasharray:none"
       id="rect4438-0"
       width="92.003395"
       height="92.003403"
       x="4.2715678"
       y="956.08728"
       rx="9.5836878"
       ry="9.5836878" />
    <path
       style="fill:#666666;fill-opacity:1;fill-rule:evenodd;stroke:none"
       d="m 66.188716,1000.009 10.963062,-12.53827 1.778437,-0.73858 -0.33528,2.17933 -8.214398,9.89081 -4.693941,6.03511 -2.179331,-2.0117 2.681451,-2.8167 z"
       id="path2892"
       sodipodi:nodetypes="cccccccc" />
    <path
       style="fill:#999999;fill-opacity:1;fill-rule:evenodd;stroke:none"
       d="m 74.977588,1020.1253 -2.612238,2.5953 c 1.726857,0.054 2.195251,-0.065 3.035485,0.5782 0.485701,0.7893 0.828233,2.5822 0.289098,3.4691 -0.954517,1.5704 -3.460741,2.3852 -4.770051,3.9028 l -1.388184,3.7517 c 0.878608,0.1212 4.158317,-1.6881 5.580044,-3.1735 1.806485,-1.8874 2.664095,-4.7913 3.902767,-7.2274 0.206796,-0.4067 0.909642,-1.7526 0.55474,-1.9064 l -4.591661,-1.9898 z"
       id="path2888"
       sodipodi:nodetypes="cccssssssc" />
    <path
       style="fill:#999999;fill-opacity:1;fill-rule:evenodd;stroke:none"
       d="M 51.208023,990.27975 30.965518,974.50328 c -3.184817,-2.48216 -7.43872,-3.47351 -10.585926,-3.31054 1.035325,1.69572 3.993458,5.23426 6.087648,7.04923 4.868729,4.21956 9.546193,7.31222 14.801111,11.05436 l 1.080115,-0.0431 0.312467,1.18254 4.937345,2.91177 3.609745,-3.06774 z"
       id="path2890"
       sodipodi:nodetypes="cscsccccc" />
    <g
       id="g2945"
       transform="matrix(0.26883611,0.02240678,-0.02240678,0.26883611,-42.95645,884.03853)">
      <g
         id="g2916">
        <path
           style="fill:#374139;fill-opacity:1;fill-rule:evenodd;stroke:none"
           d="m 488.7001,438.91268 c 3.42317,-1.77145 6.64756,-6.12991 9.96608,-4.40351 3.32372,1.7291 1.36007,9.76374 0.47595,11.85227 -0.27091,0.63997 2.43089,-1.70406 2.54803,-1.21912 0.20017,0.82866 -0.55977,2.96357 -1.42785,3.59247 -0.71843,0.52049 -0.84029,1.74336 -3.33166,-0.14428 -1.39071,-1.0537 2.9289,-9.26908 0.0289,-11.56371 -1.14482,-0.90584 -6.50644,4.3389 -8.99026,4.95588 -1.48243,0.36823 -3.07836,-1.48439 -3.24504,-2.17444 -0.15062,-0.62355 2.63953,-0.20402 3.97587,-0.89556 z"
           id="path2908"
           sodipodi:nodetypes="csssssssss" />
        <path
           style="fill:#e6e6e6;fill-opacity:1;fill-rule:evenodd;stroke:none"
           d="m 500.35684,440.80688 -2.2457,0.94175 -1.23151,5.14338 2.17326,-0.50709 1.30395,-5.57804 z"
           id="path2912" />
        <path
           style="fill:#ececec;fill-opacity:1;fill-rule:evenodd;stroke:none"
           d="m 496.15783,436.85191 -2.25386,0.40979 -5.42977,3.48325 1.53673,0.20489 6.1469,-4.09793 z"
           id="path2914" />
      </g>
      <g
         transform="translate(-10.756764,-7.572394)"
         id="g2921">
        <path
           style="fill:#374139;fill-opacity:1;fill-rule:evenodd;stroke:none"
           d="m 488.7001,438.91268 c 3.42317,-1.77145 6.64756,-6.12991 9.96608,-4.40351 3.32372,1.7291 1.36007,9.76374 0.47595,11.85227 -0.27091,0.63997 2.43089,-1.70406 2.54803,-1.21912 0.20017,0.82866 -0.55977,2.96357 -1.42785,3.59247 -0.71843,0.52049 -0.84029,1.74336 -3.33166,-0.14428 -1.39071,-1.0537 2.9289,-9.26908 0.0289,-11.56371 -1.14482,-0.90584 -6.50644,4.3389 -8.99026,4.95588 -1.48243,0.36823 -3.07836,-1.48439 -3.24504,-2.17444 -0.15062,-0.62355 2.63953,-0.20402 3.97587,-0.89556 z"
           id="path2923"
           sodipodi:nodetypes="csssssssss" />
        <path
           style="fill:#e6e6e6;fill-opacity:1;fill-rule:evenodd;stroke:none"
           d="m 500.35684,440.80688 -2.2457,0.94175 -1.23151,5.14338 2.17326,-0.50709 1.30395,-5.57804 z"
           id="path2925" />
        <path
           style="fill:#ececec;fill-opacity:1;fill-rule:evenodd;stroke:none"
           d="m 496.15783,436.85191 -2.25386,0.40979 -5.42977,3.48325 1.53673,0.20489 6.1469,-4.09793 z"
           id="path2927" />
      </g>
      <g
         transform="translate(-21.767947,-15.396129)"
         id="g2929">
        <path
           style="fill:#374139;fill-opacity:1;fill-rule:evenodd;stroke:none"
           d="m 488.7001,438.91268 c 3.42317,-1.77145 6.64756,-6.12991 9.96608,-4.40351 3.32372,1.7291 1.36007,9.76374 0.47595,11.85227 -0.27091,0.63997 2.43089,-1.70406 2.54803,-1.21912 0.20017,0.82866 -0.55977,2.96357 -1.42785,3.59247 -0.71843,0.52049 -0.84029,1.74336 -3.33166,-0.14428 -1.39071,-1.0537 2.9289,-9.26908 0.0289,-11.56371 -1.14482,-0.90584 -6.50644,4.3389 -8.99026,4.95588 -1.48243,0.36823 -3.07836,-1.48439 -3.24504,-2.17444 -0.15062,-0.62355 2.63953,-0.20402 3.97587,-0.89556 z"
           id="path2931"
           sodipodi:nodetypes="csssssssss" />
        <path
           style="fill:#e6e6e6;fill-opacity:1;fill-rule:evenodd;stroke:none"
           d="m 500.35684,440.80688 -2.2457,0.94175 -1.23151,5.14338 2.17326,-0.50709 1.30395,-5.57804 z"
           id="path2933" />
        <path
           style="fill:#ececec;fill-opacity:1;fill-rule:evenodd;stroke:none"
           d="m 496.15783,436.85191 -2.25386,0.40979 -5.42977,3.48325 1.53673,0.20489 6.1469,-4.09793 z"
           id="path2935" />
      </g>
      <g
         transform="translate(-33.068898,-22.930096)"
         id="g2937">
        <path
           style="fill:#374139;fill-opacity:1;fill-rule:evenodd;stroke:none"
           d="m 488.7001,438.91268 c 3.42317,-1.77145 6.64756,-6.12991 9.96608,-4.40351 3.32372,1.7291 1.36007,9.76374 0.47595,11.85227 -0.27091,0.63997 2.43089,-1.70406 2.54803,-1.21912 0.20017,0.82866 -0.55977,2.96357 -1.42785,3.59247 -0.71843,0.52049 -0.84029,1.74336 -3.33166,-0.14428 -1.39071,-1.0537 2.9289,-9.26908 0.0289,-11.56371 -1.14482,-0.90584 -6.50644,4.3389 -8.99026,4.95588 -1.48243,0.36823 -3.07836,-1.48439 -3.24504,-2.17444 -0.15062,-0.62355 2.63953,-0.20402 3.97587,-0.89556 z"
           id="path2939"
           sodipodi:nodetypes="csssssssss" />
        <path
           style="fill:#e6e6e6;fill-opacity:1;fill-rule:evenodd;stroke:none"
           d="m 500.35684,440.80688 -2.2457,0.94175 -1.23151,5.14338 2.17326,-0.50709 1.30395,-5.57804 z"
           id="path2941" />
        <path
           style="fill:#ececec;fill-opacity:1;fill-rule:evenodd;stroke:none"
           d="m 496.15783,436.85191 -2.25386,0.40979 -5.42977,3.48325 1.53673,0.20489 6.1469,-4.09793 z"
           id="path2943" />
      </g>
    </g>
    <path
       style="fill:#999999;fill-opacity:1;fill-rule:evenodd;stroke:none"
       d="m 14.163819,1010.7855 32.46827,-19.96103 2.65305,5.3061 -6.316786,1.13702 -1.793981,2.04274 -1.080886,-0.48126 -0.234391,1.1036 -1.246051,-0.28735 -0.207355,1.05808 -1.095807,-0.3219 -0.320846,0.9963 -1.11813,-0.2683 -0.404215,1.0334 -0.982769,-0.3006 -0.305941,0.911 -0.9906,-0.2128 -0.438824,1.0372 -1.024078,-0.246 -0.472087,0.9415 -0.917606,-0.1835 -0.587814,0.9336 -1.054551,-0.049 -0.44146,0.7899 -0.851089,-0.1583 -0.297973,0.7953 -0.973437,-0.1409 -0.356358,0.9135 -1.174267,-0.1263 -0.335216,0.8098 -0.994582,0.01 -0.387058,0.6982 -0.988037,0.023 -0.438902,0.6609 -0.890894,0.06 -0.58789,0.7499 -1.010684,0.097 -0.260723,0.5864 -3.908354,1.814 0.884349,-1.2634 -1.516028,-0.5053 z"
       id="path2963"
       sodipodi:nodetypes="cccccccccccccccccccccccccccccccccccccccc" />
    <path
       style="fill:#999999;fill-opacity:1;fill-rule:evenodd;stroke:none"
       d="m 65.775528,1000.7677 2.951114,-3.19036 0.957116,0 0.87736,0.71784 -3.509432,4.46652 -1.276158,-1.994 z"
       id="path2967" />
    <path
       style="fill:#999999;fill-opacity:1;fill-rule:evenodd;stroke:none"
       d="m 25.254486,1022.3097 26.453307,-18.4023 c 0.458028,-0.3186 -1.087134,-0.3834 -1.629371,-0.3834 -0.512063,0 -1.128743,0.046 -1.533525,0.3834 l -1.725216,1.4377 -3.450431,2.9712 -2.779514,2.3003 -0.958455,0.1916 -4.888109,0.096 -6.229947,5.3673 c -1.002076,0.8633 -1.77773,2.0171 -2.396134,3.1629 -0.467842,0.8669 -1.684047,3.4468 -0.862605,2.8754 z"
       id="path3049"
       sodipodi:nodetypes="cssscccccsss" />
    <path
       style="fill:#cccccc;fill-opacity:1;fill-rule:evenodd;stroke:none"
       d="m 47.527666,993.26563 -31.681594,18.14047 -0.646484,0.8756 0.903959,-0.4848 2.409953,-1.1661 0.193896,-0.4384 c 0.05696,-0.1302 0.179075,-0.2202 0.32035,-0.236 l 0.851456,-0.084 0.480525,-0.6154 c 0.06967,-0.089 0.173876,-0.1442 0.286628,-0.1518 l 0.691282,-0.042 0.328779,-0.4974 c 0.07171,-0.1075 0.191159,-0.1735 0.320351,-0.177 l 0.758723,-0.017 0.269768,-0.5058 c 0.07188,-0.1274 0.207838,-0.2051 0.354071,-0.2023 l 0.725002,-0.01 0.236047,-0.5649 c 0.06753,-0.1647 0.236212,-0.2645 0.413083,-0.2444 l 0.868317,0.093 0.252908,-0.6238 c 0.06616,-0.1748 0.245025,-0.2801 0.429943,-0.253 l 0.64913,0.093 0.193896,-0.4974 c 0.07047,-0.1786 0.258397,-0.2814 0.446803,-0.2445 l 0.564828,0.1096 0.303489,-0.548 c 0.07331,-0.1301 0.213279,-0.2082 0.362501,-0.2023 l 0.826166,0.042 0.463664,-0.7419 c 0.08802,-0.1385 0.252055,-0.2088 0.413082,-0.177 l 0.623839,0.1264 0.337211,-0.6744 c 0.08204,-0.1654 0.267016,-0.2526 0.446803,-0.2108 l 0.699712,0.1771 0.303489,-0.725 c 0.07348,-0.1753 0.260615,-0.2742 0.446804,-0.2361 l 0.640699,0.1349 0.193896,-0.5732 c 0.06905,-0.2059 0.29036,-0.3184 0.497386,-0.253 l 0.623839,0.1855 0.269768,-0.6828 c 0.0715,-0.1862 0.26969,-0.2907 0.463664,-0.2445 l 0.767154,0.1854 0.202326,-0.6407 c 0.06554,-0.2049 0.282121,-0.3207 0.488955,-0.2613 l 0.682851,0.2023 0.126454,-0.64066 c 0.02058,-0.10606 0.0834,-0.1992 0.174016,-0.25802 0.09062,-0.0588 0.201259,-0.0783 0.306508,-0.0539 l 0.843026,0.1939 0.151745,-0.70814 c 0.02584,-0.11611 0.102264,-0.21458 0.208329,-0.26843 0.106062,-0.0539 0.230652,-0.0574 0.339638,-0.01 l 0.817735,0.36251 1.601749,-1.82094 c 0.05955,-0.0665 0.139713,-0.11102 0.227617,-0.12645 l 5.800018,-1.04536 -1.275753,-2.76397 z"
       id="path3020"
       sodipodi:nodetypes="ccccccccccccccccccccccccccccccccccccccccccccccccscccscccccc" />
    <path
       style="fill:#999999;fill-opacity:1;fill-rule:evenodd;stroke:none"
       d="m 43.177558,997.19821 -2.108595,3.45039 -1.821063,3.6422 -2.683668,0.9584 -1.054298,1.0543 -0.575072,1.5335 0.287534,2.0128 -0.09584,1.6294 -2.491979,4.0255 0.287536,2.1086 -4.217194,7.5717 c -0.501326,0.9002 1.956457,-0.8294 2.683669,-1.5335 1.28554,-1.2447 2.423743,-2.7475 3.354587,-4.313 l 4.217193,-7.0926 -0.958454,-2.492 -0.09584,-1.6293 8.14685,-8.91364 3.354587,-3.54628 -1.916905,-3.64212 -2.30029,0.76676 -2.012752,4.40889 z"
       id="path3047"
       sodipodi:nodetypes="ccccccccccssscccccccc" />
    <path
       style="fill:#cccccc;fill-opacity:1;fill-rule:evenodd;stroke:none"
       d="m 69.920059,997.55162 6.425978,-7.81828 1.392299,-1.17809 0.428398,0.3213 -7.711177,9.10347 -0.535498,-0.4284 z"
       id="path2896" />
    <path
       style="fill:#b3b3b3;fill-opacity:1;fill-rule:evenodd;stroke:none"
       d="m 68.429045,997.44821 8.795726,-10.0379 -8.052917,9.94292 -0.742809,0.095 z"
       id="path2900"
       sodipodi:nodetypes="cccc" />
    <path
       style="opacity:0.234375;fill:#000000;fill-opacity:1;fill-rule:evenodd;stroke:none"
       d="m 42.337648,989.2393 2.848882,-3.63646 0.423615,0.33574 -3.110336,3.86614 -0.162161,-0.56542 z"
       id="path3011"
       sodipodi:nodetypes="ccccc" />
    <path
       sodipodi:type="arc"
       style="opacity:0.946875;fill:#666666;fill-opacity:1;fill-rule:nonzero;stroke:none"
       id="path3051"
       sodipodi:cx="330.23981"
       sodipodi:cy="442.3334"
       sodipodi:rx="3.0199444"
       sodipodi:ry="3.1975882"
       d="m 333.25975,442.3334 a 3.0199444,3.1975882 0 1 1 -6.03989,0 3.0199444,3.1975882 0 1 1 6.03989,0 z"
       transform="matrix(0.30343093,0,0,0.26976827,-63.790316,893.49348)" />
    <rect
       style="opacity:0.946875;fill:#4d4d4d;fill-opacity:1;fill-rule:nonzero;stroke:none"
       id="rect3061"
       width="0.28753597"
       height="1.7222635"
       x="36.276695"
       y="1011.9594"
       rx="0.37530375"
       ry="0.10947244" />
    <path
       style="fill:#666666;fill-opacity:1;fill-rule:evenodd;stroke:none"
       d="m 51.867717,989.76865 c 4.500587,2.94897 13.988348,10.39305 17.92362,13.65835 l -0.160049,3.4802 c 4.354986,3.7963 11.780902,9.3351 14.465481,11.6475 0.759294,3.4699 -5.132483,5.04 -7.453058,3.1658 -6.136868,-4.133 -25.266482,-20.324 -30.683207,-25.14584 -2.340718,-3.5992 0.485761,-9.15744 5.907213,-6.80601 z"
       id="path2296"
       sodipodi:nodetypes="ccccccc" />
  </g>
</svg>
