<?xml version="1.0" encoding="UTF-8" standalone="no"?>
<!-- Created with Inkscape (http://www.inkscape.org/) -->

<svg
   xmlns:dc="http://purl.org/dc/elements/1.1/"
   xmlns:cc="http://creativecommons.org/ns#"
   xmlns:rdf="http://www.w3.org/1999/02/22-rdf-syntax-ns#"
   xmlns:svg="http://www.w3.org/2000/svg"
   xmlns="http://www.w3.org/2000/svg"
   xmlns:sodipodi="http://sodipodi.sourceforge.net/DTD/sodipodi-0.dtd"
   xmlns:inkscape="http://www.inkscape.org/namespaces/inkscape"
   width="100"
   height="100"
   id="svg2"
   inkscape:label="Pozadí"
   sodipodi:version="0.32"
   inkscape:version="0.47 r22583"
   sodipodi:docname="wirelessbeacongrey.svg"
   inkscape:output_extension="org.inkscape.output.svg.inkscape"
   version="1.1">
  <defs
     id="defs2963">
    <inkscape:perspective
       sodipodi:type="inkscape:persp3d"
       inkscape:vp_x="0 : 526.18109 : 1"
       inkscape:vp_y="0 : 1000 : 0"
       inkscape:vp_z="744.09448 : 526.18109 : 1"
       inkscape:persp3d-origin="372.04724 : 350.78739 : 1"
       id="perspective346" />
    <inkscape:perspective
       id="perspective4464"
       inkscape:persp3d-origin="0.5 : 0.33333333 : 1"
       inkscape:vp_z="1 : 0.5 : 1"
       inkscape:vp_y="0 : 1000 : 0"
       inkscape:vp_x="0 : 0.5 : 1"
       sodipodi:type="inkscape:persp3d" />
    <inkscape:perspective
       id="perspective4512"
       inkscape:persp3d-origin="0.5 : 0.33333333 : 1"
       inkscape:vp_z="1 : 0.5 : 1"
       inkscape:vp_y="0 : 1000 : 0"
       inkscape:vp_x="0 : 0.5 : 1"
       sodipodi:type="inkscape:persp3d" />
    <inkscape:perspective
       id="perspective4512-4"
       inkscape:persp3d-origin="0.5 : 0.33333333 : 1"
       inkscape:vp_z="1 : 0.5 : 1"
       inkscape:vp_y="0 : 1000 : 0"
       inkscape:vp_x="0 : 0.5 : 1"
       sodipodi:type="inkscape:persp3d" />
    <inkscape:perspective
       id="perspective4919"
       inkscape:persp3d-origin="0.5 : 0.33333333 : 1"
       inkscape:vp_z="1 : 0.5 : 1"
       inkscape:vp_y="0 : 1000 : 0"
       inkscape:vp_x="0 : 0.5 : 1"
       sodipodi:type="inkscape:persp3d" />
    <inkscape:perspective
       id="perspective6347"
       inkscape:persp3d-origin="0.5 : 0.33333333 : 1"
       inkscape:vp_z="1 : 0.5 : 1"
       inkscape:vp_y="0 : 1000 : 0"
       inkscape:vp_x="0 : 0.5 : 1"
       sodipodi:type="inkscape:persp3d" />
    <inkscape:perspective
       id="perspective6648"
       inkscape:persp3d-origin="0.5 : 0.33333333 : 1"
       inkscape:vp_z="1 : 0.5 : 1"
       inkscape:vp_y="0 : 1000 : 0"
       inkscape:vp_x="0 : 0.5 : 1"
       sodipodi:type="inkscape:persp3d" />
  </defs>
  <sodipodi:namedview
     id="base"
     pagecolor="#ffffff"
     bordercolor="#666666"
     borderopacity="1.0"
     inkscape:pageopacity="0.0"
     inkscape:pageshadow="2"
     inkscape:zoom="2.52218"
     inkscape:cx="40.235726"
     inkscape:cy="47.335691"
     inkscape:document-units="px"
     inkscape:current-layer="layer1"
     inkscape:window-width="1024"
     inkscape:window-height="549"
     inkscape:window-x="0"
     inkscape:window-y="0"
     showgrid="false"
     inkscape:window-maximized="1" />
  <metadata
     id="metadata2966">
    <rdf:RDF>
      <cc:Work
         rdf:about="">
        <dc:format>image/svg+xml</dc:format>
        <dc:type
           rdf:resource="http://purl.org/dc/dcmitype/StillImage" />
        <dc:title></dc:title>
      </cc:Work>
    </rdf:RDF>
  </metadata>
  <g
     inkscape:label="Vrstva 1"
     inkscape:groupmode="layer"
     id="layer1"
     transform="translate(0,-952.36218)">
    <rect
       style="fill:#cccccc;fill-opacity:1;stroke:#cccccc;stroke-width:1.99660145999999994;stroke-linejoin:round;stroke-miterlimit:4;stroke-opacity:1;stroke-dasharray:none"
       id="rect4438-0-8"
       width="92.003395"
       height="92.003403"
       x="3.9550877"
       y="956.80017"
       rx="9.5836878"
       ry="9.5836878" />
    <path
       sodipodi:type="star"
       style="fill:#999999;fill-opacity:0.5;stroke:none"
       id="path6479"
       sodipodi:sides="5"
       sodipodi:cx="17.643467"
       sodipodi:cy="37.55402"
       sodipodi:r1="7.3134618"
       sodipodi:r2="3.6567309"
       sodipodi:arg1="0.99783018"
       sodipodi:arg2="1.6261487"
       inkscape:flatsided="false"
       inkscape:rounded="0"
       inkscape:randomized="0"
       d="m 21.608291,43.699497 -4.167129,-2.494347 -4.417193,2.018699 1.084551,-4.733972 -3.284884,-3.577188 4.837419,-0.431408 2.387023,-4.229522 1.905138,4.467346 4.760145,0.9632 -3.659978,3.19238 0.554908,4.824812 z"
       transform="matrix(1.0142725,0,0,1.0294832,6.2056563,938.69053)" />
    <path
       transform="matrix(0.8200306,0,0,0.8200306,9.5707169,946.43952)"
       sodipodi:type="star"
       style="fill:#808080;fill-opacity:1;stroke:none"
       id="path6479-2"
       sodipodi:sides="5"
       sodipodi:cx="17.643467"
       sodipodi:cy="37.55402"
       sodipodi:r1="7.3134618"
       sodipodi:r2="3.6567309"
       sodipodi:arg1="0.99783018"
       sodipodi:arg2="1.6261487"
       inkscape:flatsided="false"
       inkscape:rounded="0"
       inkscape:randomized="0"
       d="m 21.608291,43.699497 -4.167129,-2.494347 -4.417193,2.018699 1.084551,-4.733972 -3.284884,-3.577188 4.837419,-0.431408 2.387023,-4.229522 1.905138,4.467346 4.760145,0.9632 -3.659978,3.19238 0.554908,4.824812 z" />
    <path
       sodipodi:type="star"
       style="fill:#999999;fill-opacity:0.50000000000000000;stroke:none"
       id="path6481-7"
       sodipodi:sides="5"
       sodipodi:cx="27.753769"
       sodipodi:cy="50.836182"
       sodipodi:r1="7.3376031"
       sodipodi:r2="3.6688013"
       sodipodi:arg1="0.67052156"
       sodipodi:arg2="1.2988401"
       inkscape:flatsided="false"
       inkscape:rounded="0"
       inkscape:randomized="0"
       d="m 33.502764,55.395729 -4.763495,-1.025585 -3.545351,3.342635 -0.496611,-4.847277 -4.274608,-2.338898 4.456573,-1.970196 0.903497,-4.788152 3.250925,3.629627 4.833,-0.620343 -2.447391,4.21343 2.083461,4.404759 z"
       transform="translate(49.591068,953.95148)" />
    <path
       transform="matrix(0.63940741,-0.38195937,0.38195937,0.63940741,31.577592,954.40569)"
       sodipodi:type="star"
       style="fill:#666666;fill-opacity:1;stroke:none"
       id="path6481-9"
       sodipodi:sides="5"
       sodipodi:cx="27.753769"
       sodipodi:cy="50.836182"
       sodipodi:r1="7.3376031"
       sodipodi:r2="3.6688013"
       sodipodi:arg1="0.67052156"
       sodipodi:arg2="1.2988401"
       inkscape:flatsided="false"
       inkscape:rounded="0"
       inkscape:randomized="0"
       d="m 33.502764,55.395729 -4.763495,-1.025585 -3.545351,3.342635 -0.496611,-4.847277 -4.274608,-2.338898 4.456573,-1.970196 0.903497,-4.788152 3.250925,3.629627 4.833,-0.620343 -2.447391,4.21343 2.083461,4.404759 z" />
    <rect
       style="fill:none;stroke:#4d4d4d;stroke-width:4;stroke-linejoin:round;stroke-miterlimit:4;stroke-opacity:0.30000000999999998;stroke-dasharray:none"
       id="rect4438"
       width="96"
       height="96"
       x="2.3964825"
       y="954.44861"
       rx="10"
       ry="10" />
    <rect
       style="fill:none;stroke:#4d4d4d;stroke-width:5;stroke-linejoin:round;stroke-miterlimit:4;stroke-opacity:0.69999999999999996;stroke-dasharray:none"
       id="rect4438-57"
       width="92.159996"
       height="92.160004"
       x="3.8767693"
       y="955.92902"
       rx="9.5999994"
       ry="9.6000004" />
    <rect
       style="fill:none;stroke:#4d4d4d;stroke-width:3.98613523999999986;stroke-linejoin:round;stroke-miterlimit:4;stroke-opacity:0.29999999999999999;stroke-dasharray:none"
       id="rect4438-5"
       width="88.013863"
       height="88.013863"
       x="5.7898545"
       y="958.55847"
       rx="9.1681108"
       ry="9.1681108" />
    <rect
       style="fill:none;stroke:#4d4d4d;stroke-width:1.99660145999999994;stroke-linejoin:round;stroke-miterlimit:4;stroke-opacity:1;stroke-dasharray:none"
       id="rect4438-0"
       width="92.003395"
       height="92.003403"
       x="4.2715678"
       y="956.08728"
       rx="9.5836878"
       ry="9.5836878" />
    <path
       sodipodi:nodetypes="ccc"
       id="path983"
       d="m 48.785098,979.22415 c -15.582333,24.81825 1.623369,51.88695 33.071964,43.48675 -10.642551,4.1291 -44.974254,-8.5967 -33.071964,-43.48675 z"
       style="fill:#808080;fill-opacity:0.90000000000000002;fill-rule:evenodd;stroke:none" />
    <path
       sodipodi:nodetypes="ccc"
       id="path981"
       d="M 48.697901,979.46518 C 26.007898,1003.9129 49.966928,1038.03 81.51841,1022.6648 70.883639,1026.8222 36.682178,1014.28 48.697901,979.46518 z"
       style="fill:#808080;fill-opacity:0.69999999999999996;fill-rule:evenodd;stroke-width:1pt" />
    <path
       sodipodi:nodetypes="ccc"
       id="path982"
       d="m 48.285394,979.44589 c -19.270562,24.70831 2.844917,55.43671 32.820516,43.19961 -10.634772,4.1574 -44.836238,-8.3848 -32.820516,-43.19961 z"
       style="fill:#808080;fill-opacity:0.80000000000000004;fill-rule:evenodd;stroke-width:1pt" />
    <path
       sodipodi:nodetypes="ccc"
       id="path972"
       d="m 48.993426,979.37077 c -40.5760403,23.46683 -2.19422,78.93673 32.820484,43.19963 -10.634709,4.1574 -44.836213,-8.3848 -32.820484,-43.19963 z"
       style="fill:#808080;fill-opacity:0.80000000000000004;fill-rule:evenodd;stroke:#666666;stroke-width:0.65342102000000002pt;stroke-opacity:1" />
    <path
       sodipodi:nodetypes="ccc"
       id="path984"
       d="M 49.009499,979.41452 C 8.8091245,1003.157 46.741762,1057.4304 81.808092,1022.6657 57.036343,1047.1586 8.5796803,1015.9126 49.009499,979.41452 z"
       style="fill:#808080;fill-opacity:0.10000000000000001;fill-rule:evenodd;stroke:none" />
    <path
       sodipodi:type="star"
       style="fill:#999999;fill-opacity:0.50000000000000000;stroke:none"
       id="path6481"
       sodipodi:sides="5"
       sodipodi:cx="27.753769"
       sodipodi:cy="50.836182"
       sodipodi:r1="7.3376031"
       sodipodi:r2="3.6688013"
       sodipodi:arg1="0.67052156"
       sodipodi:arg2="1.2988401"
       inkscape:flatsided="false"
       inkscape:rounded="0"
       inkscape:randomized="0"
       d="m 33.502764,55.395729 -4.763495,-1.025585 -3.545351,3.342635 -0.496611,-4.847277 -4.274608,-2.338898 4.456573,-1.970196 0.903497,-4.788152 3.250925,3.629627 4.833,-0.620343 -2.447391,4.21343 2.083461,4.404759 z"
       transform="matrix(0.85848945,-0.51283123,0.51283123,0.85848945,18.872288,946.80653)" />
    <path
       transform="matrix(0.7448052,0,0,0.7448052,56.601354,966.99095)"
       sodipodi:type="star"
       style="fill:#666666;fill-opacity:1;stroke:none"
       id="path6481-9-7"
       sodipodi:sides="5"
       sodipodi:cx="27.753769"
       sodipodi:cy="50.836182"
       sodipodi:r1="7.3376031"
       sodipodi:r2="3.6688013"
       sodipodi:arg1="0.67052156"
       sodipodi:arg2="1.2988401"
       inkscape:flatsided="false"
       inkscape:rounded="0"
       inkscape:randomized="0"
       d="m 33.502764,55.395729 -4.763495,-1.025585 -3.545351,3.342635 -0.496611,-4.847277 -4.274608,-2.338898 4.456573,-1.970196 0.903497,-4.788152 3.250925,3.629627 4.833,-0.620343 -2.447391,4.21343 2.083461,4.404759 z" />
    <path
       sodipodi:type="star"
       style="fill:#808080;fill-opacity:0.50000000000000000;stroke:none"
       id="path6481-3"
       sodipodi:sides="5"
       sodipodi:cx="27.753769"
       sodipodi:cy="50.836182"
       sodipodi:r1="7.3376031"
       sodipodi:r2="3.6688013"
       sodipodi:arg1="0.67052156"
       sodipodi:arg2="1.2988401"
       inkscape:flatsided="false"
       inkscape:rounded="0"
       inkscape:randomized="0"
       d="m 33.502764,55.395729 -4.763495,-1.025585 -3.545351,3.342635 -0.496611,-4.847277 -4.274608,-2.338898 4.456573,-1.970196 0.903497,-4.788152 3.250925,3.629627 4.833,-0.620343 -2.447391,4.21343 2.083461,4.404759 z"
       transform="matrix(0.00223102,-0.99999751,0.99999751,0.00223102,-27.369861,1057.938)" />
    <path
       transform="matrix(0.00166168,-0.74480335,0.74480335,0.00166168,-14.314784,1050.9569)"
       sodipodi:type="star"
       style="fill:#666666;fill-opacity:1;stroke:none"
       id="path6481-9-3"
       sodipodi:sides="5"
       sodipodi:cx="27.753769"
       sodipodi:cy="50.836182"
       sodipodi:r1="7.3376031"
       sodipodi:r2="3.6688013"
       sodipodi:arg1="0.67052156"
       sodipodi:arg2="1.2988401"
       inkscape:flatsided="false"
       inkscape:rounded="0"
       inkscape:randomized="0"
       d="m 33.502764,55.395729 -4.763495,-1.025585 -3.545351,3.342635 -0.496611,-4.847277 -4.274608,-2.338898 4.456573,-1.970196 0.903497,-4.788152 3.250925,3.629627 4.833,-0.620343 -2.447391,4.21343 2.083461,4.404759 z" />
  </g>
</svg>
