<?xml version="1.0" encoding="UTF-8" standalone="no"?>
<!-- Created with Inkscape (http://www.inkscape.org/) -->

<svg
   xmlns:dc="http://purl.org/dc/elements/1.1/"
   xmlns:cc="http://creativecommons.org/ns#"
   xmlns:rdf="http://www.w3.org/1999/02/22-rdf-syntax-ns#"
   xmlns:svg="http://www.w3.org/2000/svg"
   xmlns="http://www.w3.org/2000/svg"
   xmlns:sodipodi="http://sodipodi.sourceforge.net/DTD/sodipodi-0.dtd"
   xmlns:inkscape="http://www.inkscape.org/namespaces/inkscape"
   width="100"
   height="100"
   id="svg2"
   inkscape:label="Pozadí"
   sodipodi:version="0.32"
   inkscape:version="0.47 r22583"
   sodipodi:docname="doggrey.svg"
   inkscape:output_extension="org.inkscape.output.svg.inkscape"
   version="1.1">
  <defs
     id="defs2963">
    <inkscape:perspective
       sodipodi:type="inkscape:persp3d"
       inkscape:vp_x="0 : 526.18109 : 1"
       inkscape:vp_y="0 : 1000 : 0"
       inkscape:vp_z="744.09448 : 526.18109 : 1"
       inkscape:persp3d-origin="372.04724 : 350.78739 : 1"
       id="perspective346" />
    <inkscape:perspective
       id="perspective4464"
       inkscape:persp3d-origin="0.5 : 0.33333333 : 1"
       inkscape:vp_z="1 : 0.5 : 1"
       inkscape:vp_y="0 : 1000 : 0"
       inkscape:vp_x="0 : 0.5 : 1"
       sodipodi:type="inkscape:persp3d" />
    <inkscape:perspective
       id="perspective4512"
       inkscape:persp3d-origin="0.5 : 0.33333333 : 1"
       inkscape:vp_z="1 : 0.5 : 1"
       inkscape:vp_y="0 : 1000 : 0"
       inkscape:vp_x="0 : 0.5 : 1"
       sodipodi:type="inkscape:persp3d" />
    <inkscape:perspective
       id="perspective4512-4"
       inkscape:persp3d-origin="0.5 : 0.33333333 : 1"
       inkscape:vp_z="1 : 0.5 : 1"
       inkscape:vp_y="0 : 1000 : 0"
       inkscape:vp_x="0 : 0.5 : 1"
       sodipodi:type="inkscape:persp3d" />
    <inkscape:perspective
       id="perspective4919"
       inkscape:persp3d-origin="0.5 : 0.33333333 : 1"
       inkscape:vp_z="1 : 0.5 : 1"
       inkscape:vp_y="0 : 1000 : 0"
       inkscape:vp_x="0 : 0.5 : 1"
       sodipodi:type="inkscape:persp3d" />
    <inkscape:perspective
       id="perspective2831"
       inkscape:persp3d-origin="0.5 : 0.33333333 : 1"
       inkscape:vp_z="1 : 0.5 : 1"
       inkscape:vp_y="0 : 1000 : 0"
       inkscape:vp_x="0 : 0.5 : 1"
       sodipodi:type="inkscape:persp3d" />
    <inkscape:perspective
       id="perspective3788"
       inkscape:persp3d-origin="0.5 : 0.33333333 : 1"
       inkscape:vp_z="1 : 0.5 : 1"
       inkscape:vp_y="0 : 1000 : 0"
       inkscape:vp_x="0 : 0.5 : 1"
       sodipodi:type="inkscape:persp3d" />
    <inkscape:perspective
       id="perspective3832"
       inkscape:persp3d-origin="0.5 : 0.33333333 : 1"
       inkscape:vp_z="1 : 0.5 : 1"
       inkscape:vp_y="0 : 1000 : 0"
       inkscape:vp_x="0 : 0.5 : 1"
       sodipodi:type="inkscape:persp3d" />
    <inkscape:perspective
       id="perspective3593"
       inkscape:persp3d-origin="0.5 : 0.33333333 : 1"
       inkscape:vp_z="1 : 0.5 : 1"
       inkscape:vp_y="0 : 1000 : 0"
       inkscape:vp_x="0 : 0.5 : 1"
       sodipodi:type="inkscape:persp3d" />
  </defs>
  <sodipodi:namedview
     id="base"
     pagecolor="#ffffff"
     bordercolor="#666666"
     borderopacity="1.0"
     inkscape:pageopacity="0.0"
     inkscape:pageshadow="2"
     inkscape:zoom="2.52218"
     inkscape:cx="52.224168"
     inkscape:cy="48.742556"
     inkscape:document-units="px"
     inkscape:current-layer="layer1"
     inkscape:window-width="1024"
     inkscape:window-height="549"
     inkscape:window-x="0"
     inkscape:window-y="0"
     showgrid="false"
     inkscape:window-maximized="1" />
  <metadata
     id="metadata2966">
    <rdf:RDF>
      <cc:Work
         rdf:about="">
        <dc:format>image/svg+xml</dc:format>
        <dc:type
           rdf:resource="http://purl.org/dc/dcmitype/StillImage" />
        <dc:title></dc:title>
      </cc:Work>
    </rdf:RDF>
  </metadata>
  <g
     inkscape:label="Vrstva 1"
     inkscape:groupmode="layer"
     id="layer1"
     transform="translate(0,-952.36218)">
    <rect
       style="fill:#cccccc;fill-opacity:1;stroke:#cccccc;stroke-width:1.99660145999999994;stroke-linejoin:round;stroke-miterlimit:4;stroke-opacity:1;stroke-dasharray:none"
       id="rect4438-0-8"
       width="92.003395"
       height="92.003403"
       x="3.9550877"
       y="956.80017"
       rx="9.5836878"
       ry="9.5836878" />
    <rect
       style="fill:none;stroke:#4d4d4d;stroke-width:4;stroke-linejoin:round;stroke-miterlimit:4;stroke-opacity:0.30000000999999998;stroke-dasharray:none"
       id="rect4438"
       width="96"
       height="96"
       x="2.3964825"
       y="954.44861"
       rx="10"
       ry="10" />
    <rect
       style="fill:none;stroke:#4d4d4d;stroke-width:5;stroke-linejoin:round;stroke-miterlimit:4;stroke-opacity:0.69999999999999996;stroke-dasharray:none"
       id="rect4438-57"
       width="92.159996"
       height="92.160004"
       x="3.8767693"
       y="955.92902"
       rx="9.5999994"
       ry="9.6000004" />
    <rect
       style="fill:none;stroke:#4d4d4d;stroke-width:3.98613523999999986;stroke-linejoin:round;stroke-miterlimit:4;stroke-opacity:0.29999999999999999;stroke-dasharray:none"
       id="rect4438-5"
       width="88.013863"
       height="88.013863"
       x="5.7898545"
       y="958.55847"
       rx="9.1681108"
       ry="9.1681108" />
    <rect
       style="fill:none;stroke:#4d4d4d;stroke-width:1.99660145999999994;stroke-linejoin:round;stroke-miterlimit:4;stroke-opacity:1;stroke-dasharray:none"
       id="rect4438-0"
       width="92.003395"
       height="92.003403"
       x="4.2715678"
       y="956.08728"
       rx="9.5836878"
       ry="9.5836878" />
    <path
       d="m 30.827868,1008.2789 c 0.04482,-0.3138 0.112063,-0.6275 0.201713,-0.9301 0.08965,-0.5603 0.168093,-1.0534 0.235331,-1.5465 0.04482,-0.4818 0.100856,-1.1206 0.156887,-1.7706 0.03362,-0.437 0.06724,-0.8404 0.112062,-1.2438 0.313775,-1.5017 0.661168,-3.04811 1.04218,-4.58341 0.649962,-2.3757 1.199068,-4.4489 1.725761,-6.5444 0.347394,-1.0758 0.762024,-2.3533 1.187862,-3.64207 0.07844,-0.36981 0.336187,-0.91892 0.694786,-1.40078 0.3586,-0.52669 0.829262,-0.97495 1.378368,-1.31113 1.199067,-0.57152 2.409342,-1.04218 3.653233,-1.41199 0.235332,-0.0672 0.481868,-0.15688 0.705994,-0.26894 0.336186,-0.20172 0.638755,-0.44826 0.885292,-0.75083 0.08965,-0.10085 0.145681,-0.22412 0.190506,-0.34739 0,-0.0336 0.0112,-0.0672 0.0112,-0.10085 0.01121,-0.0224 0.01121,-0.0448 0.01121,-0.0672 0.08965,-0.41463 0.123269,-0.84047 0.123269,-1.26631 0,-0.0784 0,-0.15688 0,-0.23533 0,-0.38101 0,-0.69479 0,-0.99735 0,0.0224 0,0.0112 0,0 0,-0.0784 -0.02241,-0.15689 -0.06724,-0.22413 -0.571518,-1.03097 -0.930117,-2.1628 -1.053386,-3.33946 -0.06724,-0.97494 0.0112,-1.94988 0.246537,-2.90241 0.08965,-0.32498 0.1793,-0.64997 0.280157,-0.97495 0.123268,-0.31377 0.302568,-0.61634 0.537899,-0.87409 0.3586,-0.44824 0.829261,-0.80684 1.355955,-1.05338 0.941324,-0.50428 2.039535,-0.69478 3.104127,-0.5267 0.616344,0.0897 1.221481,0.33619 1.736968,0.71721 0.134474,0.11206 0.26895,0.23533 0.392219,0.3698 0.32498,0.3586 0.59393,0.75082 0.818054,1.17666 0.02241,0.056 0.04482,0.11206 0.06724,0.1793 0.05603,0.16809 0.08965,0.3586 0.08965,0.5491 0,0.0224 0,0.0336 0,0.056 -0.01121,0.10085 -0.03361,0.21291 -0.04482,0.32498 -0.07844,0.39222 -0.1793,0.78444 -0.30257,1.15424 0.02241,0.29136 0.03362,0.57152 0.03362,0.84047 0,0.47066 -0.03362,0.94132 -0.100855,1.41198 -0.04482,0.3474 -0.112063,0.706 -0.179299,1.0646 -0.04482,0.23533 -0.123269,0.45945 -0.21292,0.66117 -0.02241,0.24654 -0.07844,0.49307 -0.168093,0.7284 -0.02241,0.0897 -0.06724,0.1793 -0.123268,0.25775 -0.201713,0.23533 -0.425838,0.44824 -0.683581,0.62755 -0.168093,0.10085 -0.336187,0.20171 -0.504282,0.30256 -0.112062,0.056 -0.224123,0.10086 -0.336186,0.12327 -0.08965,0.66117 -0.145681,1.35596 -0.145681,2.03953 0,0.21293 0.0112,0.41464 0.0112,0.62756 0.04482,0.25774 0.168094,0.51549 0.369806,0.71719 0.86288,0.63876 1.781792,1.17666 2.745529,1.61371 0.369805,0.13447 0.717199,0.3698 0.986149,0.67237 0.336187,0.39222 0.605136,0.84047 0.806849,1.31113 0.32498,1.04218 0.560312,2.10676 0.672374,3.19376 0.347393,2.4318 0.62755,4.6282 0.885292,6.8246 0.04482,0.4707 0.112064,1.2215 0.156888,1.9611 0.03362,0.269 0.100857,0.63881 0.201713,0.99741 0.235331,0.9525 0.403425,1.9162 0.50428,2.88 0.257744,0.5379 0.381012,0.8068 0.50428,1.0758 0.156888,0.4034 0.392219,0.9861 0.616344,1.5688 0.03362,0.1345 0.05603,0.2802 0.06724,0.4147 0,0.011 0,0.034 0,0.045 0,0.1905 -0.0112,0.381 -0.04482,0.5715 -0.01121,0.034 -0.01121,0.056 -0.02241,0.09 0.03362,-0.1121 -0.02241,0.09 -0.07844,0.3026 -0.02241,1.0421 0.08965,1.5464 0.246538,2.0619 0.04482,0.1681 0.156887,0.325 0.313775,0.4146 0.918912,0.4259 1.849028,0.7509 2.812765,0.9974 0.08965,0 0.1793,0 0.26895,0 0.302569,0 0.62755,-0.034 0.930118,-0.1121 0.134475,-0.1905 0.235331,-0.4146 0.313774,-0.6387 0,-0.011 0,-0.022 0,-0.034 0,-0.1569 -0.06724,-0.2914 -0.168093,-0.4034 -0.112062,-0.079 -0.246537,-0.1569 -0.369806,-0.2354 -0.403424,-0.2689 -0.672374,-0.6387 -0.795643,-1.0758 -0.100855,-0.3137 -0.100855,-0.6611 0,-0.9749 0.06724,-0.2466 0.123269,-0.4595 0.168095,-0.6724 0.0112,-0.034 0.02241,-0.078 0.02241,-0.1345 0,-0.045 -0.01121,-0.1008 -0.02241,-0.1456 -0.01121,-0.045 -0.04482,-0.09 -0.06724,-0.1233 0,-0.011 -0.01121,-0.011 -0.01121,-0.022 -0.07844,-0.1233 -0.134475,-0.2578 -0.156887,-0.3922 -0.123269,-0.5828 -0.04482,-1.1879 0.235332,-1.7258 0.190505,-0.4819 0.549106,-0.8853 1.00856,-1.1318 0.941325,-0.5491 2.073155,-0.6724 3.115335,-0.3698 0.481869,0.1008 0.952531,0.3137 1.34475,0.6275 0.06724,0.067 0.134474,0.1345 0.190506,0.2129 0.336187,0.4931 0.515487,1.0758 0.537899,1.6698 -0.03362,0.7172 -0.168095,1.4456 -0.392218,2.1516 -0.381013,0.9301 -0.851675,1.8042 -1.423193,2.611 -0.05603,0.067 -0.112062,0.1457 -0.168094,0.2129 -0.06724,0.079 -0.08965,0.1681 -0.08965,0.2578 0,0.022 0,0.045 0,0.078 0.02241,0.2017 0.05603,0.4034 0.08965,0.6051 0.01121,0.056 0.04483,0.1233 0.08965,0.1681 0.02241,0.011 0.03362,0.022 0.03362,0.034 0.04482,0.034 0.08965,0.078 0.134474,0.1233 0.560312,0.6275 1.030974,1.3447 1.378367,2.1292 0.268951,0.5042 0.48187,1.0421 0.638757,1.6025 1.008562,3.0369 1.781792,5.3678 2.532609,7.7099 -0.212917,-0.7172 -0.156888,-0.5827 -0.100856,-0.4483 0.08965,0.1793 0.156888,0.3698 0.224126,0.5716 0.03361,0.2465 0.06724,0.4818 0.100855,0.706 0,-0.022 0,-0.022 0,-0.011 0,0.045 -0.01121,0.09 -0.03362,0.1232 -0.06724,0.1569 -0.190506,0.2802 -0.336187,0.3586 -0.212919,0.067 -0.437043,0.056 -0.649961,-0.011 -0.134475,-0.056 -0.246538,-0.1456 -0.336187,-0.2465 -0.05603,-0.056 -0.100857,-0.1121 -0.123269,-0.1793 -0.06724,-0.2129 -0.123269,-0.4146 -0.156888,-0.6275 -0.01121,-0.2242 -0.01121,-0.4595 0.01121,-0.6836 l -0.907705,-1.6585 -1.400779,-2.5663 c -0.01121,0.2129 -0.01121,0.4371 -0.01121,0.6612 0,1.6921 0.212917,3.3843 0.638755,5.0316 -0.437044,0.381 -0.930118,0.7172 -1.445606,0.9974 l 0.291364,3.2722 0.257742,2.8127 c 0.06724,-0.045 0.156888,-0.078 0.235332,-0.09 0.302568,-0.067 0.616342,0.1008 0.739611,0.3922 0.0112,0.045 0.02241,0.09 0.02241,0.1345 0,0.022 0,0.034 0,0.045 0,0.011 -0.01121,0.022 -0.01121,0.034 -0.291362,0.4819 -0.616343,0.9526 -0.986149,1.4008 -0.100855,0.1345 -0.224125,0.2353 -0.3586,0.2914 -0.156887,0.09 -0.313774,0.1457 -0.481868,0.1793 -0.07844,0.011 -0.156887,-0.011 -0.212919,-0.045 -0.03362,-0.022 -0.04482,-0.045 -0.05603,-0.067 l -2.330896,-7.497 c -0.3586,0.045 -0.739612,0.056 -1.109418,0.045 l -0.571519,8.0012 c -0.04482,0.3138 -0.212918,0.5939 -0.459456,0.7957 -0.0112,0 -0.02241,0.011 -0.03362,0.022 -0.08965,0.078 -0.201713,0.1345 -0.324982,0.1681 -0.212918,0.022 -0.425836,0.022 -0.638755,-0.011 -0.123269,-0.022 -0.246538,-0.067 -0.358599,-0.1121 -0.381013,-0.2689 -0.818055,-0.5715 -1.255099,-0.874 -0.257744,-0.213 -0.302569,-0.4371 -0.224126,-0.6276 0.08965,-0.2577 0.280157,-0.4707 0.526694,-0.5715 0.190507,-0.034 0.392219,-0.011 0.582724,0.056 0.100857,0.045 0.201714,0.1233 0.26895,0.2241 l 0.01121,0 c 0.03362,0 0.05603,-0.022 0.05603,-0.045 0,0 0,0 0,-0.011 l -1.030974,-7.6314 c -0.739612,-0.2466 -1.456811,-0.6164 -2.106773,-1.0646 0.885293,-2.1292 1.647318,-4.1799 2.319692,-6.2643 0.123268,-0.4147 0.224124,-0.8966 0.302568,-1.3784 0.08965,-0.4483 0.156887,-0.8629 0.212918,-1.2887 0,0 0,-0.1009 0,-0.2018 0,-0.4146 -0.08965,-0.8292 -0.26895,-1.2102 -0.01121,-0.011 -0.02241,-0.034 -0.04482,-0.056 -0.257743,-0.381 -0.549106,-0.7396 -0.874086,-1.0758 -0.280157,-0.3138 -0.582725,-0.6276 -0.885293,-0.9413 -0.224125,-0.2354 -0.414631,-0.4931 -0.571519,-0.7621 -0.100857,-0.2129 -0.201712,-0.4482 -0.291361,-0.6836 -0.04482,-0.1792 -0.06724,-0.3586 -0.06724,-0.5378 0.01121,-0.7285 0.04483,-1.4008 0.08965,-2.0732 -0.168094,-0.4819 -0.3586,-1.0422 -0.560311,-1.6025 0,-0.1905 0,-0.3362 0,-0.4819 0,-0.112 0,-0.2465 -0.01121,-0.3698 -0.21292,-0.3586 -0.459457,-0.706 -0.7172,-1.0421 -0.257744,-0.3474 -0.515486,-0.7172 -0.762024,-1.0871 -0.437043,-0.7732 -0.806849,-1.5688 -1.109418,-2.3757 -0.156888,-0.4034 -0.280156,-0.81801 -0.358599,-1.23271 -0.02241,-0.4818 -0.08965,-0.9749 -0.201712,-1.4568 -0.21292,-0.8741 -0.493074,-1.7818 -0.80685,-2.6671 l -0.100857,12.86481 -1.288717,0.6051 0.425838,7.8108 -1.40078,9.3236 c 0.369806,-0.3362 0.941323,-0.3026 1.277511,0.067 0.134475,0.213 0.224124,0.4707 0.224124,0.7285 0,0.1568 -0.03362,0.3137 -0.08965,0.4594 -0.156887,0.4258 -0.403425,0.8293 -0.717199,1.1542 -0.5379,0.65 -1.098213,1.2776 -1.703348,1.8603 -0.313776,0.325 -0.66117,0.5603 -1.04218,0.7284 -0.21292,0.067 -0.425838,0.1121 -0.638757,0.1121 -0.134474,-0.011 -0.235332,-0.09 -0.302568,-0.1906 -0.134475,-0.2241 -0.246538,-0.4482 -0.336187,-0.6947 -0.06724,-0.3138 -0.100858,-0.6388 -0.08965,-0.9638 0,-0.078 0,-0.1345 0,-0.2017 0,-0.325 0,-0.65 -0.01121,-0.9749 0.100857,-1.2551 0.179301,-2.1516 0.268951,-3.0481 0.04482,-1.1767 0.07844,-2.5438 0.07844,-3.8998 -0.03362,-1.0646 -0.100856,-2.23 -0.212918,-3.4067 -0.123269,-1.087 -0.437044,-3.9222 -0.739612,-6.7686 l -0.896499,-1.6361 c -0.313775,4.5721 -0.941324,13.2906 -1.613699,22.0091 -0.224124,1.7482 -0.459455,2.4093 -0.784436,3.0369 -0.168101,0.3474 -0.526701,0.5715 -0.918919,0.5715 -0.537899,0.067 -1.075798,-0.1681 -1.411986,-0.5939 -0.907705,-1.2103 -1.602492,-2.5663 -2.061948,-4.0119 -0.08965,-0.2577 -0.06724,-0.5267 0.04482,-0.762 0.123269,-0.2353 0.302569,-0.437 0.515488,-0.6051 0.156887,-0.1121 0.358599,-0.1681 0.549105,-0.1345 0.190507,0.056 0.369806,0.1232 0.560312,0.2129 l -0.784436,-20.7204 -0.851674,-0.4034 0.369805,-4.4937 c 0.605137,-5.58071 0.918912,-8.46071 1.255099,-11.34071 -0.459455,2.5886 -0.694787,3.1938 -0.963736,3.7877 -0.224125,0.5827 -0.459456,1.1094 -0.694787,1.6361 -0.504281,1.1767 -0.986149,2.4318 -1.445605,3.68691 -0.235331,0.7732 -0.504281,1.6473 -0.773231,2.5326 -0.347393,1.1878 -0.59393,2.0619 -0.818055,2.936 0.04483,0.4483 0.07844,0.8517 0.07844,1.2551 0,0.045 0,0.09 0,0.1345 -0.02241,0.5267 -0.112062,1.0534 -0.257743,1.5577 -0.05603,0.1905 -0.134475,0.3586 -0.235331,0.5154 -0.145682,0.2242 -0.336188,0.4259 -0.549106,0.594 -0.02241,0.022 -0.04482,0.045 -0.07844,0.045 -0.201712,0.067 -0.425837,0.056 -0.616343,-0.034 -0.515487,-0.1799 -0.862881,-0.673 -0.851674,-1.2333 0.01121,-0.4034 0.06724,-0.7956 0.145681,-1.1766 z"
       style="fill:#808080;fill-opacity:1;stroke:none"
       id="path4406" />
  </g>
</svg>
