<?xml version="1.0" encoding="UTF-8" standalone="no"?>
<!-- Created with Inkscape (http://www.inkscape.org/) -->

<svg
   xmlns:dc="http://purl.org/dc/elements/1.1/"
   xmlns:cc="http://creativecommons.org/ns#"
   xmlns:rdf="http://www.w3.org/1999/02/22-rdf-syntax-ns#"
   xmlns:svg="http://www.w3.org/2000/svg"
   xmlns="http://www.w3.org/2000/svg"
   xmlns:sodipodi="http://sodipodi.sourceforge.net/DTD/sodipodi-0.dtd"
   xmlns:inkscape="http://www.inkscape.org/namespaces/inkscape"
   width="100"
   height="100"
   id="svg2"
   inkscape:label="Pozadí"
   sodipodi:version="0.32"
   inkscape:version="0.47 r22583"
   sodipodi:docname="campingnearbygrey.svg"
   inkscape:output_extension="org.inkscape.output.svg.inkscape"
   version="1.1">
  <defs
     id="defs2963">
    <inkscape:perspective
       sodipodi:type="inkscape:persp3d"
       inkscape:vp_x="0 : 526.18109 : 1"
       inkscape:vp_y="0 : 1000 : 0"
       inkscape:vp_z="744.09448 : 526.18109 : 1"
       inkscape:persp3d-origin="372.04724 : 350.78739 : 1"
       id="perspective346" />
    <inkscape:perspective
       id="perspective4464"
       inkscape:persp3d-origin="0.5 : 0.33333333 : 1"
       inkscape:vp_z="1 : 0.5 : 1"
       inkscape:vp_y="0 : 1000 : 0"
       inkscape:vp_x="0 : 0.5 : 1"
       sodipodi:type="inkscape:persp3d" />
    <inkscape:perspective
       id="perspective4512"
       inkscape:persp3d-origin="0.5 : 0.33333333 : 1"
       inkscape:vp_z="1 : 0.5 : 1"
       inkscape:vp_y="0 : 1000 : 0"
       inkscape:vp_x="0 : 0.5 : 1"
       sodipodi:type="inkscape:persp3d" />
    <inkscape:perspective
       id="perspective4512-4"
       inkscape:persp3d-origin="0.5 : 0.33333333 : 1"
       inkscape:vp_z="1 : 0.5 : 1"
       inkscape:vp_y="0 : 1000 : 0"
       inkscape:vp_x="0 : 0.5 : 1"
       sodipodi:type="inkscape:persp3d" />
    <inkscape:perspective
       id="perspective4919"
       inkscape:persp3d-origin="0.5 : 0.33333333 : 1"
       inkscape:vp_z="1 : 0.5 : 1"
       inkscape:vp_y="0 : 1000 : 0"
       inkscape:vp_x="0 : 0.5 : 1"
       sodipodi:type="inkscape:persp3d" />
    <inkscape:perspective
       id="perspective3045"
       inkscape:persp3d-origin="0.5 : 0.33333333 : 1"
       inkscape:vp_z="1 : 0.5 : 1"
       inkscape:vp_y="0 : 1000 : 0"
       inkscape:vp_x="0 : 0.5 : 1"
       sodipodi:type="inkscape:persp3d" />
    <inkscape:perspective
       id="perspective3637"
       inkscape:persp3d-origin="0.5 : 0.33333333 : 1"
       inkscape:vp_z="1 : 0.5 : 1"
       inkscape:vp_y="0 : 1000 : 0"
       inkscape:vp_x="0 : 0.5 : 1"
       sodipodi:type="inkscape:persp3d" />
    <inkscape:perspective
       id="perspective3615"
       inkscape:persp3d-origin="0.5 : 0.33333333 : 1"
       inkscape:vp_z="1 : 0.5 : 1"
       inkscape:vp_y="0 : 1000 : 0"
       inkscape:vp_x="0 : 0.5 : 1"
       sodipodi:type="inkscape:persp3d" />
    <inkscape:perspective
       id="perspective2842"
       inkscape:persp3d-origin="0.5 : 0.33333333 : 1"
       inkscape:vp_z="1 : 0.5 : 1"
       inkscape:vp_y="0 : 1000 : 0"
       inkscape:vp_x="0 : 0.5 : 1"
       sodipodi:type="inkscape:persp3d" />
    <inkscape:perspective
       id="perspective3618"
       inkscape:persp3d-origin="0.5 : 0.33333333 : 1"
       inkscape:vp_z="1 : 0.5 : 1"
       inkscape:vp_y="0 : 1000 : 0"
       inkscape:vp_x="0 : 0.5 : 1"
       sodipodi:type="inkscape:persp3d" />
  </defs>
  <sodipodi:namedview
     id="base"
     pagecolor="#ffffff"
     bordercolor="#666666"
     borderopacity="1.0"
     inkscape:pageopacity="0.0"
     inkscape:pageshadow="2"
     inkscape:zoom="2.52218"
     inkscape:cx="52.224168"
     inkscape:cy="48.742556"
     inkscape:document-units="px"
     inkscape:current-layer="layer1"
     inkscape:window-width="1024"
     inkscape:window-height="549"
     inkscape:window-x="0"
     inkscape:window-y="0"
     showgrid="false"
     inkscape:window-maximized="1" />
  <metadata
     id="metadata2966">
    <rdf:RDF>
      <cc:Work
         rdf:about="">
        <dc:format>image/svg+xml</dc:format>
        <dc:type
           rdf:resource="http://purl.org/dc/dcmitype/StillImage" />
        <dc:title></dc:title>
      </cc:Work>
    </rdf:RDF>
  </metadata>
  <g
     inkscape:label="Vrstva 1"
     inkscape:groupmode="layer"
     id="layer1"
     transform="translate(0,-952.36218)">
    <rect
       style="fill:#cccccc;fill-opacity:1;stroke:#cccccc;stroke-width:1.99660145999999994;stroke-linejoin:round;stroke-miterlimit:4;stroke-opacity:1;stroke-dasharray:none"
       id="rect4438-0-8"
       width="92.003395"
       height="92.003403"
       x="3.9550877"
       y="956.80017"
       rx="9.5836878"
       ry="9.5836878" />
    <rect
       style="fill:none;stroke:#4d4d4d;stroke-width:4;stroke-linejoin:round;stroke-miterlimit:4;stroke-opacity:0.30000000999999998;stroke-dasharray:none"
       id="rect4438"
       width="96"
       height="96"
       x="2.3964825"
       y="954.44861"
       rx="10"
       ry="10" />
    <rect
       style="fill:none;stroke:#4d4d4d;stroke-width:5;stroke-linejoin:round;stroke-miterlimit:4;stroke-opacity:0.69999999999999996;stroke-dasharray:none"
       id="rect4438-57"
       width="92.159996"
       height="92.160004"
       x="3.8767693"
       y="955.92902"
       rx="9.5999994"
       ry="9.6000004" />
    <rect
       style="fill:none;stroke:#4d4d4d;stroke-width:3.98613523999999986;stroke-linejoin:round;stroke-miterlimit:4;stroke-opacity:0.29999999999999999;stroke-dasharray:none"
       id="rect4438-5"
       width="88.013863"
       height="88.013863"
       x="5.7898545"
       y="958.55847"
       rx="9.1681108"
       ry="9.1681108" />
    <rect
       style="fill:none;stroke:#4d4d4d;stroke-width:1.99660145999999994;stroke-linejoin:round;stroke-miterlimit:4;stroke-opacity:1;stroke-dasharray:none"
       id="rect4438-0"
       width="92.003395"
       height="92.003403"
       x="4.2715678"
       y="956.08728"
       rx="9.5836878"
       ry="9.5836878" />
    <path
       id="path9"
       d="m 51.219741,1015.9464 c -0.704266,0.255 -1.486636,0.3976 -2.284359,0.3976 -0.860473,0 -1.710265,-0.099 -2.492635,-0.321 l -8.865742,19.9684 c -0.808404,1.8349 -3.040694,2.4591 -4.980597,1.3847 -1.939903,-1.0676 -2.852445,-3.4135 -2.018006,-5.2531 l 10.863054,-24.4204 13.85168,0 0,-2.2846 7.003943,-3.1951 c 1.841105,-0.8792 4.218921,0.6241 4.709571,2.525 l 3.436552,13.513 c 0.489982,1.9169 -0.698926,3.8492 -2.65485,4.3287 -1.955924,0.4763 -3.942555,-0.6893 -4.433205,-2.6055 l -2.184894,-8.6069 -9.950512,4.5692 z"
       style="fill:#808080;fill-opacity:1" />
    <path
       id="path11"
       d="m 57.603529,1001.9525 c 15.17076,-7.37988 21.053885,-32.64367 21.053885,-34.75414 l -2.086096,0 c -0.78237,5.2689 -7.301671,26.35187 -18.967789,32.46985 l 0,2.28429 z"
       style="fill:#808080;fill-opacity:1" />
    <path
       id="path13"
       d="m 29.59777,996.42731 c 0.797723,1.21155 2.399177,1.75853 3.817723,1.18083 l 8.025963,-3.08188 0,10.90714 13.85168,0 0,-12.6297 12.41244,-19.47295 c 0.912542,-1.42084 0.489982,-3.307 -0.975292,-4.21628 -1.44992,-0.89424 -3.37447,-0.48024 -4.187546,0.90995 l -10.540628,16.54939 -6.357086,0.0154 c -0.406539,0 -0.813745,0.0613 -1.220283,0.22499 l -10.977873,4.21626 -5.658829,-8.40241 c -0.928563,-1.40525 -2.847771,-1.81941 -4.302365,-0.91013 -1.44992,0.91013 -1.87248,2.81118 -0.943916,4.23215 l 7.056012,10.47759 z"
       style="fill:#808080;fill-opacity:1" />
    <path
       id="path15"
       d="m 47.423379,985.46949 c 3.045367,0 5.522648,-2.41274 5.522648,-5.39721 0,-2.98446 -2.477281,-5.41208 -5.522648,-5.41208 -3.050707,0 -5.527988,2.42762 -5.527988,5.41208 0,2.98447 2.476613,5.39721 5.527988,5.39721 z"
       style="fill:#808080;fill-opacity:1" />
    <polygon
       id="polygon17"
       points="64.227,117.027 67.719,117.027 67.719,79.801 64.227,81.434 "
       style="fill:#808080;fill-opacity:1"
       transform="matrix(0.6675508,0,0,0.65420007,10.087262,964.13929)" />
  </g>
</svg>
