<?xml version="1.0" encoding="UTF-8" standalone="no"?>
<!-- Created with Inkscape (http://www.inkscape.org/) -->

<svg
   xmlns:dc="http://purl.org/dc/elements/1.1/"
   xmlns:cc="http://creativecommons.org/ns#"
   xmlns:rdf="http://www.w3.org/1999/02/22-rdf-syntax-ns#"
   xmlns:svg="http://www.w3.org/2000/svg"
   xmlns="http://www.w3.org/2000/svg"
   xmlns:sodipodi="http://sodipodi.sourceforge.net/DTD/sodipodi-0.dtd"
   xmlns:inkscape="http://www.inkscape.org/namespaces/inkscape"
   width="100"
   height="100"
   id="svg2"
   inkscape:label="Pozadí"
   sodipodi:version="0.32"
   inkscape:version="0.47 r22583"
   sodipodi:docname="campfiresgrey.svg"
   inkscape:output_extension="org.inkscape.output.svg.inkscape"
   version="1.1">
  <defs
     id="defs2963">
    <inkscape:perspective
       sodipodi:type="inkscape:persp3d"
       inkscape:vp_x="0 : 526.18109 : 1"
       inkscape:vp_y="0 : 1000 : 0"
       inkscape:vp_z="744.09448 : 526.18109 : 1"
       inkscape:persp3d-origin="372.04724 : 350.78739 : 1"
       id="perspective346" />
    <inkscape:perspective
       id="perspective4464"
       inkscape:persp3d-origin="0.5 : 0.33333333 : 1"
       inkscape:vp_z="1 : 0.5 : 1"
       inkscape:vp_y="0 : 1000 : 0"
       inkscape:vp_x="0 : 0.5 : 1"
       sodipodi:type="inkscape:persp3d" />
    <inkscape:perspective
       id="perspective4512"
       inkscape:persp3d-origin="0.5 : 0.33333333 : 1"
       inkscape:vp_z="1 : 0.5 : 1"
       inkscape:vp_y="0 : 1000 : 0"
       inkscape:vp_x="0 : 0.5 : 1"
       sodipodi:type="inkscape:persp3d" />
    <inkscape:perspective
       id="perspective4512-4"
       inkscape:persp3d-origin="0.5 : 0.33333333 : 1"
       inkscape:vp_z="1 : 0.5 : 1"
       inkscape:vp_y="0 : 1000 : 0"
       inkscape:vp_x="0 : 0.5 : 1"
       sodipodi:type="inkscape:persp3d" />
    <inkscape:perspective
       id="perspective4919"
       inkscape:persp3d-origin="0.5 : 0.33333333 : 1"
       inkscape:vp_z="1 : 0.5 : 1"
       inkscape:vp_y="0 : 1000 : 0"
       inkscape:vp_x="0 : 0.5 : 1"
       sodipodi:type="inkscape:persp3d" />
    <inkscape:perspective
       id="perspective3045"
       inkscape:persp3d-origin="0.5 : 0.33333333 : 1"
       inkscape:vp_z="1 : 0.5 : 1"
       inkscape:vp_y="0 : 1000 : 0"
       inkscape:vp_x="0 : 0.5 : 1"
       sodipodi:type="inkscape:persp3d" />
    <inkscape:perspective
       id="perspective3625"
       inkscape:persp3d-origin="0.5 : 0.33333333 : 1"
       inkscape:vp_z="1 : 0.5 : 1"
       inkscape:vp_y="0 : 1000 : 0"
       inkscape:vp_x="0 : 0.5 : 1"
       sodipodi:type="inkscape:persp3d" />
  </defs>
  <sodipodi:namedview
     id="base"
     pagecolor="#ffffff"
     bordercolor="#666666"
     borderopacity="1.0"
     inkscape:pageopacity="0.0"
     inkscape:pageshadow="2"
     inkscape:zoom="2.52218"
     inkscape:cx="52.224168"
     inkscape:cy="48.742556"
     inkscape:document-units="px"
     inkscape:current-layer="layer1"
     inkscape:window-width="1024"
     inkscape:window-height="549"
     inkscape:window-x="0"
     inkscape:window-y="0"
     showgrid="false"
     inkscape:window-maximized="1" />
  <metadata
     id="metadata2966">
    <rdf:RDF>
      <cc:Work
         rdf:about="">
        <dc:format>image/svg+xml</dc:format>
        <dc:type
           rdf:resource="http://purl.org/dc/dcmitype/StillImage" />
        <dc:title></dc:title>
      </cc:Work>
    </rdf:RDF>
  </metadata>
  <g
     inkscape:label="Vrstva 1"
     inkscape:groupmode="layer"
     id="layer1"
     transform="translate(0,-952.36218)">
    <rect
       style="fill:#cccccc;fill-opacity:1;stroke:#cccccc;stroke-width:1.99660145999999994;stroke-linejoin:round;stroke-miterlimit:4;stroke-opacity:1;stroke-dasharray:none"
       id="rect4438-0-8"
       width="92.003395"
       height="92.003403"
       x="3.9550877"
       y="956.80017"
       rx="9.5836878"
       ry="9.5836878" />
    <rect
       style="fill:none;stroke:#4d4d4d;stroke-width:4;stroke-linejoin:round;stroke-miterlimit:4;stroke-opacity:0.30000000999999998;stroke-dasharray:none"
       id="rect4438"
       width="96"
       height="96"
       x="2.3964825"
       y="954.44861"
       rx="10"
       ry="10" />
    <rect
       style="fill:none;stroke:#4d4d4d;stroke-width:5;stroke-linejoin:round;stroke-miterlimit:4;stroke-opacity:0.69999999999999996;stroke-dasharray:none"
       id="rect4438-57"
       width="92.159996"
       height="92.160004"
       x="3.8767693"
       y="955.92902"
       rx="9.5999994"
       ry="9.6000004" />
    <rect
       style="fill:none;stroke:#4d4d4d;stroke-width:3.98613523999999986;stroke-linejoin:round;stroke-miterlimit:4;stroke-opacity:0.29999999999999999;stroke-dasharray:none"
       id="rect4438-5"
       width="88.013863"
       height="88.013863"
       x="5.7898545"
       y="958.55847"
       rx="9.1681108"
       ry="9.1681108" />
    <rect
       style="fill:none;stroke:#4d4d4d;stroke-width:1.99660145999999994;stroke-linejoin:round;stroke-miterlimit:4;stroke-opacity:1;stroke-dasharray:none"
       id="rect4438-0"
       width="92.003395"
       height="92.003403"
       x="4.2715678"
       y="956.08728"
       rx="9.5836878"
       ry="9.5836878" />
    <path
       style="fill:#808080;fill-opacity:1;fill-rule:evenodd;stroke:#808080;stroke-width:0.20202792000000000pt;stroke-linecap:butt;stroke-linejoin:miter;stroke-opacity:1"
       sodipodi:nodetypes="cccczczzcczczcczc"
       id="path614"
       d="m 43.983289,978.59658 -27.193202,46.82462 47.260912,0 c -0.7712,-1.8508 -1.00483,-2.6485 -1.45418,-3.1992 -1.24809,-1.6391 -2.46329,-3.4727 -3.7398,-5.0195 -1.24015,-1.5468 -3.46464,-3.5388 -4.06137,-4.3926 -0.52661,-1.329 0.0551,-3.1465 -0.19683,-4.1117 -0.2519,-1.0016 -1.58142,-2.0541 -2.07221,-2.9448 -0.49079,-0.927 -1.41783,-3.8899 -1.9995,-5.6349 -0.58167,-1.74504 -0.87251,-2.03588 -1.30876,-3.49006 -0.14542,-0.7998 0.21812,-1.96315 0.14541,-2.61753 -0.0727,-0.61803 -0.47261,-0.83615 -0.61802,-1.56324 -0.14542,-0.72709 0.36354,-2.21763 -0.32719,-3.63546 -0.69074,-1.5996 -0.7271,-1.96314 -0.7271,-3.12649 -1.09063,-1.27241 -1.1997,-2.61753 -1.92679,-3.49004 -0.72709,-0.87251 -0.76344,-0.43625 -1.09063,-1.05428 -0.36355,-0.65438 0,-2.07221 -0.69074,-2.54482 z" />
    <path
       style="fill:#808080;fill-opacity:1;fill-rule:evenodd;stroke:#808080;stroke-width:0.20202792000000000pt;stroke-linecap:butt;stroke-linejoin:miter;stroke-opacity:1"
       sodipodi:nodetypes="ccczccccccc"
       id="path615"
       d="m 74.012149,1009.1344 c -4.72609,0.1454 -5.81673,3.49 -6.25299,4.7261 -0.43625,1.2361 -0.41807,3.381 -0.18177,4.0172 0.36355,0.7998 0.78163,1.8904 1.74502,2.6357 0.87251,0.7634 2.38122,2.0904 3.72634,2.1994 1.63596,0.2545 1.70867,-0.3453 2.85384,-0.3999 1.54506,0 2.59934,0.2909 3.4355,-0.3272 1.01793,-0.8725 0.70891,-0.5998 1.54507,-1.3996 0.6362,-0.5453 0.96339,-2.563 0.25448,-6.0349 -0.0909,-0.7089 -1.09064,-3.1628 -2.76295,-4.3262 -1.67231,-1.1633 -4.36254,-1.0906 -4.36254,-1.0906 z" />
    <path
       style="fill:#808080;fill-opacity:1;fill-rule:nonzero;stroke:#808080;stroke-width:0.20202792000000000;stroke-opacity:1"
       sodipodi:nodetypes="czzzzzzzzzzzzz"
       id="path618"
       d="m 62.380839,1011.9324 c -0.55422,0.014 -1.0929,0.5538 -1.28634,1.0718 -0.19344,0.5179 -0.11679,1.6821 -0.0704,2.06 0.0464,0.3779 0.2024,0.6202 0.25276,0.7346 0.0504,0.1272 0.28733,0.4921 0.51523,0.6802 0.24076,0.1882 0.20971,0.1339 0.66109,0.237 0.45138,0.103 1.01366,0.064 1.32015,0.029 0.30648,-0.022 0.52481,-0.148 0.96504,-0.3033 0.44022,-0.1552 0.89247,-0.4367 0.954,-0.9337 0.0615,-0.497 0.0126,-1.0822 -0.11274,-1.437 -0.12536,-0.3547 -0.38303,-0.4778 -0.54926,-0.6503 -0.16624,-0.1724 -0.15126,-0.279 -0.40496,-0.5364 -0.25371,-0.2573 -0.31518,-0.5444 -0.75013,-0.7127 -0.43495,-0.1683 -0.94027,-0.2536 -1.49449,-0.2392 z" />
    <path
       style="fill:#808080;fill-opacity:1;fill-rule:nonzero;stroke:#808080;stroke-width:0.20202792000000000;stroke-opacity:1"
       sodipodi:nodetypes="cczccccc"
       id="path629"
       d="m 70.795889,1000.7429 c -0.93293,0.2226 -1.269,0.6789 -2.27968,1.0336 -1.47618,0.2843 -1.15003,2.2923 -1.01396,3.9035 0.13608,1.6113 1.87113,2.3088 3.9265,2.3306 1.46267,-0.029 2.20697,0.4231 3.02258,-1.5352 0.61216,-0.8982 0.0397,-1.5353 0.0999,-2.0574 -0.0832,-1.7844 -0.90519,-2.4201 -1.88312,-3.3097 -0.48658,-0.3145 -1.30604,-0.4108 -1.87223,-0.3654 z" />
    <path
       style="fill:#808080;fill-opacity:1;fill-rule:evenodd;stroke:#808080;stroke-width:0.20202792000000000pt;stroke-linecap:butt;stroke-linejoin:miter;stroke-opacity:1"
       sodipodi:nodetypes="ccccccc"
       id="path632"
       d="m 57.120699,1003.4773 c -0.63274,0.5065 0.0165,1.5567 -0.74549,2.2107 -0.90842,1.0342 -0.28427,2.0893 0.66837,2.8278 0.32391,1.1179 1.30678,0.92 2.00511,0.257 1.17717,-0.527 2.36442,-1.0675 2.23647,-2.5963 -0.16527,-1.2766 -0.57079,-2.9412 -2.13364,-2.8535 -0.71262,0.107 -1.36783,-0.1401 -2.03082,0.1543 z" />
    <path
       style="fill:#808080;fill-opacity:1;fill-rule:evenodd;stroke:#808080;stroke-width:0.20202792000000000pt;stroke-linecap:butt;stroke-linejoin:miter;stroke-opacity:1"
       sodipodi:nodetypes="ccccccccccc"
       id="path634"
       d="m 62.904669,992.37204 c 1.33933,1.02586 0.23709,3.17144 1.46528,4.34441 0.43843,0.70132 0.84648,1.80564 -0.33419,2.03082 -1.97102,0.53025 -2.11074,3.67573 -4.37011,3.57323 -1.2379,0.1178 -2.46053,-0.5562 -3.65033,-0.8226 -1.85204,-0.9423 -1.29225,-3.44905 -2.26218,-4.9871 -0.36229,-1.24296 0.10921,-2.38743 1.05397,-3.29044 0.70882,-1.10703 1.36975,-2.27261 2.51924,-2.95625 1.19916,-0.35044 1.63213,1.22213 2.85343,1.00255 0.9429,-0.0867 1.69633,0.38773 2.41642,0.97685 l 0.30847,0.12853 z" />
    <path
       style="fill:#808080;fill-opacity:1;fill-rule:evenodd;stroke:#808080;stroke-width:0.20202792000000000pt;stroke-linecap:butt;stroke-linejoin:miter;stroke-opacity:1"
       sodipodi:nodetypes="cccccc"
       id="path636"
       d="m 50.308469,991.26666 c -0.28556,-0.11459 -0.91352,1.26161 -0.48843,1.9537 0.32578,0.44879 -0.0964,1.40569 0.89973,0.97685 0.32283,-0.61106 1.21618,-0.52813 1.02826,-1.38816 -0.1764,-0.54969 -0.0911,-1.02531 -0.64266,-1.38815 -0.47174,-0.17986 -0.43584,-0.0827 -0.7969,-0.15424 z" />
    <path
       style="fill:#808080;fill-opacity:1;fill-rule:evenodd;stroke:#808080;stroke-width:0.20202792000000000pt;stroke-linecap:butt;stroke-linejoin:miter;stroke-opacity:1"
       sodipodi:nodetypes="ccccc"
       id="path639"
       d="m 51.053949,985.17421 c -1.23982,0.25913 -0.96936,1.40553 -1.10537,2.26218 -0.36057,1.56246 0.55589,2.50582 1.43956,2.33929 1.07887,-0.50262 1.78949,-1.24339 2.28788,-2.31359 0.50349,-1.25498 -2.04578,-2.36907 -2.62207,-2.28788 z" />
    <path
       style="fill:#808080;fill-opacity:1;fill-rule:evenodd;stroke:#808080;stroke-width:0.20202792000000000pt;stroke-linecap:butt;stroke-linejoin:miter;stroke-opacity:1"
       sodipodi:nodetypes="cccccz"
       id="path640"
       d="m 48.117169,982.23458 c -0.16849,-0.021 -0.9986,-0.14765 -0.9449,0.54892 -0.0769,0.84064 0.93681,2.1507 1.75089,2.17882 0.82412,0.10903 1.78362,-0.96795 1.18718,-2.25567 -0.15223,-0.79943 -1.27648,-1.12659 -1.27441,-0.76394 -0.14074,0.59518 -0.55026,0.32195 -0.71876,0.29187 z" />
  </g>
</svg>
