<?xml version="1.0" encoding="UTF-8" standalone="no"?>
<!-- Created with Inkscape (http://www.inkscape.org/) -->

<svg
   xmlns:dc="http://purl.org/dc/elements/1.1/"
   xmlns:cc="http://creativecommons.org/ns#"
   xmlns:rdf="http://www.w3.org/1999/02/22-rdf-syntax-ns#"
   xmlns:svg="http://www.w3.org/2000/svg"
   xmlns="http://www.w3.org/2000/svg"
   xmlns:sodipodi="http://sodipodi.sourceforge.net/DTD/sodipodi-0.dtd"
   xmlns:inkscape="http://www.inkscape.org/namespaces/inkscape"
   width="100"
   height="100"
   id="svg2"
   inkscape:label="Pozadí"
   sodipodi:version="0.32"
   inkscape:version="0.47 r22583"
   sodipodi:docname="bicyclesgrey.svg"
   inkscape:output_extension="org.inkscape.output.svg.inkscape"
   version="1.1">
  <defs
     id="defs2963">
    <inkscape:perspective
       sodipodi:type="inkscape:persp3d"
       inkscape:vp_x="0 : 526.18109 : 1"
       inkscape:vp_y="0 : 1000 : 0"
       inkscape:vp_z="744.09448 : 526.18109 : 1"
       inkscape:persp3d-origin="372.04724 : 350.78739 : 1"
       id="perspective346" />
    <inkscape:perspective
       id="perspective4464"
       inkscape:persp3d-origin="0.5 : 0.33333333 : 1"
       inkscape:vp_z="1 : 0.5 : 1"
       inkscape:vp_y="0 : 1000 : 0"
       inkscape:vp_x="0 : 0.5 : 1"
       sodipodi:type="inkscape:persp3d" />
    <inkscape:perspective
       id="perspective4512"
       inkscape:persp3d-origin="0.5 : 0.33333333 : 1"
       inkscape:vp_z="1 : 0.5 : 1"
       inkscape:vp_y="0 : 1000 : 0"
       inkscape:vp_x="0 : 0.5 : 1"
       sodipodi:type="inkscape:persp3d" />
    <inkscape:perspective
       id="perspective4512-4"
       inkscape:persp3d-origin="0.5 : 0.33333333 : 1"
       inkscape:vp_z="1 : 0.5 : 1"
       inkscape:vp_y="0 : 1000 : 0"
       inkscape:vp_x="0 : 0.5 : 1"
       sodipodi:type="inkscape:persp3d" />
    <inkscape:perspective
       id="perspective4919"
       inkscape:persp3d-origin="0.5 : 0.33333333 : 1"
       inkscape:vp_z="1 : 0.5 : 1"
       inkscape:vp_y="0 : 1000 : 0"
       inkscape:vp_x="0 : 0.5 : 1"
       sodipodi:type="inkscape:persp3d" />
    <inkscape:perspective
       id="perspective2831"
       inkscape:persp3d-origin="0.5 : 0.33333333 : 1"
       inkscape:vp_z="1 : 0.5 : 1"
       inkscape:vp_y="0 : 1000 : 0"
       inkscape:vp_x="0 : 0.5 : 1"
       sodipodi:type="inkscape:persp3d" />
    <inkscape:perspective
       id="perspective3788"
       inkscape:persp3d-origin="0.5 : 0.33333333 : 1"
       inkscape:vp_z="1 : 0.5 : 1"
       inkscape:vp_y="0 : 1000 : 0"
       inkscape:vp_x="0 : 0.5 : 1"
       sodipodi:type="inkscape:persp3d" />
    <inkscape:perspective
       id="perspective3832"
       inkscape:persp3d-origin="0.5 : 0.33333333 : 1"
       inkscape:vp_z="1 : 0.5 : 1"
       inkscape:vp_y="0 : 1000 : 0"
       inkscape:vp_x="0 : 0.5 : 1"
       sodipodi:type="inkscape:persp3d" />
    <inkscape:perspective
       id="perspective3621"
       inkscape:persp3d-origin="0.5 : 0.33333333 : 1"
       inkscape:vp_z="1 : 0.5 : 1"
       inkscape:vp_y="0 : 1000 : 0"
       inkscape:vp_x="0 : 0.5 : 1"
       sodipodi:type="inkscape:persp3d" />
    <inkscape:perspective
       id="perspective2893"
       inkscape:persp3d-origin="0.5 : 0.33333333 : 1"
       inkscape:vp_z="1 : 0.5 : 1"
       inkscape:vp_y="0 : 1000 : 0"
       inkscape:vp_x="0 : 0.5 : 1"
       sodipodi:type="inkscape:persp3d" />
  </defs>
  <sodipodi:namedview
     id="base"
     pagecolor="#ffffff"
     bordercolor="#666666"
     borderopacity="1.0"
     inkscape:pageopacity="0.0"
     inkscape:pageshadow="2"
     inkscape:zoom="2.5546301"
     inkscape:cx="46.510163"
     inkscape:cy="48.239586"
     inkscape:document-units="px"
     inkscape:current-layer="layer1"
     inkscape:window-width="1024"
     inkscape:window-height="549"
     inkscape:window-x="0"
     inkscape:window-y="0"
     showgrid="false"
     inkscape:window-maximized="1" />
  <metadata
     id="metadata2966">
    <rdf:RDF>
      <cc:Work
         rdf:about="">
        <dc:format>image/svg+xml</dc:format>
        <dc:type
           rdf:resource="http://purl.org/dc/dcmitype/StillImage" />
        <dc:title></dc:title>
      </cc:Work>
    </rdf:RDF>
  </metadata>
  <g
     inkscape:label="Vrstva 1"
     inkscape:groupmode="layer"
     id="layer1"
     transform="translate(0,-952.36218)">
    <rect
       style="fill:#cccccc;fill-opacity:1;stroke:#cccccc;stroke-width:1.99660145999999994;stroke-linejoin:round;stroke-miterlimit:4;stroke-opacity:1;stroke-dasharray:none"
       id="rect4438-0-8"
       width="92.003395"
       height="92.003403"
       x="3.9550877"
       y="956.80017"
       rx="9.5836878"
       ry="9.5836878" />
    <rect
       style="fill:none;stroke:#4d4d4d;stroke-width:4;stroke-linejoin:round;stroke-miterlimit:4;stroke-opacity:0.30000000999999998;stroke-dasharray:none"
       id="rect4438"
       width="96"
       height="96"
       x="2.3964825"
       y="954.44861"
       rx="10"
       ry="10" />
    <rect
       style="fill:none;stroke:#4d4d4d;stroke-width:5;stroke-linejoin:round;stroke-miterlimit:4;stroke-opacity:0.69999999999999996;stroke-dasharray:none"
       id="rect4438-57"
       width="92.159996"
       height="92.160004"
       x="3.8767693"
       y="955.92902"
       rx="9.5999994"
       ry="9.6000004" />
    <rect
       style="fill:none;stroke:#4d4d4d;stroke-width:3.98613523999999986;stroke-linejoin:round;stroke-miterlimit:4;stroke-opacity:0.29999999999999999;stroke-dasharray:none"
       id="rect4438-5"
       width="88.013863"
       height="88.013863"
       x="5.7898545"
       y="958.55847"
       rx="9.1681108"
       ry="9.1681108" />
    <rect
       style="fill:none;stroke:#4d4d4d;stroke-width:1.99660145999999994;stroke-linejoin:round;stroke-miterlimit:4;stroke-opacity:1;stroke-dasharray:none"
       id="rect4438-0"
       width="92.003395"
       height="92.003403"
       x="4.2715678"
       y="956.08728"
       rx="9.5836878"
       ry="9.5836878" />
    <path
       style="fill:#666666;fill-opacity:1;stroke:none"
       id="path2115"
       d="m 49.188486,970.14852 c -6.014286,0 -14.32029,1.71845 -17.757195,3.1505 -3.436905,1.43204 -5.728175,2.86408 -6.444122,6.44412 l -2.57753,19.84707 0,27.34779 4.439112,0 0,4.2886 c 0,5.2292 7.652209,5.2292 7.652209,0 l 0,-4.2886 14.127258,0 0.04482,0 14.687526,0 0,4.2886 c 0,5.2292 7.652209,5.2292 7.652209,0 l 0,-4.2886 4.439112,0 0,-27.34779 -2.577529,-19.84707 c -0.715948,-3.58004 -3.007218,-5.01208 -6.444123,-6.44412 -3.436905,-1.43205 -11.742909,-3.1505 -17.757195,-3.1505" />
    <g
       id="g2117"
       transform="matrix(0.14940468,0,0,0.14940468,22.409639,970.14852)"
       style="fill:#cccccc">
      <g
         id="g2119"
         style="fill:#cccccc">
        <g
           id="g2121"
           style="fill:#cccccc">
          <path
             style="fill:#cccccc;stroke:none"
             id="path2123"
             d="m 299.682,322.723 c 13.568,0 24.568,-11.002 24.568,-24.57 0,-13.568 -11,-24.57 -24.568,-24.57 -13.568,0 -24.569,11.002 -24.569,24.57 0,13.568 11.001,24.57 24.569,24.57 z" />
          <path
             style="fill:#cccccc;stroke:none"
             id="path2125"
             d="" />
        </g>
        <g
           id="g2127"
           style="fill:#cccccc">
          <path
             style="fill:#cccccc;stroke:none"
             id="path2129"
             d="m 55.342,322.723 c -13.568,0 -24.568,-11.002 -24.568,-24.57 0,-13.568 11,-24.57 24.568,-24.57 13.568,0 24.569,11.002 24.569,24.57 0,13.568 -11.001,24.57 -24.569,24.57 z" />
          <path
             style="fill:#cccccc;stroke:none"
             id="path2131"
             d="" />
        </g>
      </g>
      <path
         style="fill:#cccccc;stroke:none"
         id="path2133"
         d="m 175.612,55.113 -71.136,0 c -14.378,0 -14.378,-21.566 0,-21.566 l 71.311,0 74.761,0 c 14.378,0 14.378,21.566 0,21.566 l -74.936,0 z" />
      <path
         style="fill:#cccccc;stroke:none"
         id="path2135"
         d="m 175.612,76.887 -109.897,0 c -15.188,0 -19.156,7.717 -21,19.423 l -13.428,96.348 c -1.252,9.235 1.419,18.402 14.178,18.402 l 130.322,0 133.772,0 c 12.759,0 15.43,-9.167 14.178,-18.402 L 310.309,96.31 c -1.844,-11.706 -5.812,-19.423 -21,-19.423 l -113.697,0 z" />
    </g>
  </g>
</svg>
