<?xml version="1.0" encoding="UTF-8" standalone="no"?>
<!-- Created with Inkscape (http://www.inkscape.org/) -->

<svg
   xmlns:dc="http://purl.org/dc/elements/1.1/"
   xmlns:cc="http://creativecommons.org/ns#"
   xmlns:rdf="http://www.w3.org/1999/02/22-rdf-syntax-ns#"
   xmlns:svg="http://www.w3.org/2000/svg"
   xmlns="http://www.w3.org/2000/svg"
   xmlns:sodipodi="http://sodipodi.sourceforge.net/DTD/sodipodi-0.dtd"
   xmlns:inkscape="http://www.inkscape.org/namespaces/inkscape"
   width="100"
   height="100"
   id="svg2"
   inkscape:label="Pozadí"
   sodipodi:version="0.32"
   inkscape:version="0.47 r22583"
   sodipodi:docname="telephonenearbygrey.svg"
   inkscape:output_extension="org.inkscape.output.svg.inkscape"
   version="1.1">
  <defs
     id="defs2963">
    <inkscape:perspective
       sodipodi:type="inkscape:persp3d"
       inkscape:vp_x="0 : 526.18109 : 1"
       inkscape:vp_y="0 : 1000 : 0"
       inkscape:vp_z="744.09448 : 526.18109 : 1"
       inkscape:persp3d-origin="372.04724 : 350.78739 : 1"
       id="perspective346" />
    <inkscape:perspective
       id="perspective4464"
       inkscape:persp3d-origin="0.5 : 0.33333333 : 1"
       inkscape:vp_z="1 : 0.5 : 1"
       inkscape:vp_y="0 : 1000 : 0"
       inkscape:vp_x="0 : 0.5 : 1"
       sodipodi:type="inkscape:persp3d" />
    <inkscape:perspective
       id="perspective4512"
       inkscape:persp3d-origin="0.5 : 0.33333333 : 1"
       inkscape:vp_z="1 : 0.5 : 1"
       inkscape:vp_y="0 : 1000 : 0"
       inkscape:vp_x="0 : 0.5 : 1"
       sodipodi:type="inkscape:persp3d" />
    <inkscape:perspective
       id="perspective4512-4"
       inkscape:persp3d-origin="0.5 : 0.33333333 : 1"
       inkscape:vp_z="1 : 0.5 : 1"
       inkscape:vp_y="0 : 1000 : 0"
       inkscape:vp_x="0 : 0.5 : 1"
       sodipodi:type="inkscape:persp3d" />
    <inkscape:perspective
       id="perspective4919"
       inkscape:persp3d-origin="0.5 : 0.33333333 : 1"
       inkscape:vp_z="1 : 0.5 : 1"
       inkscape:vp_y="0 : 1000 : 0"
       inkscape:vp_x="0 : 0.5 : 1"
       sodipodi:type="inkscape:persp3d" />
    <inkscape:perspective
       id="perspective2831"
       inkscape:persp3d-origin="0.5 : 0.33333333 : 1"
       inkscape:vp_z="1 : 0.5 : 1"
       inkscape:vp_y="0 : 1000 : 0"
       inkscape:vp_x="0 : 0.5 : 1"
       sodipodi:type="inkscape:persp3d" />
    <inkscape:perspective
       id="perspective3788"
       inkscape:persp3d-origin="0.5 : 0.33333333 : 1"
       inkscape:vp_z="1 : 0.5 : 1"
       inkscape:vp_y="0 : 1000 : 0"
       inkscape:vp_x="0 : 0.5 : 1"
       sodipodi:type="inkscape:persp3d" />
    <inkscape:perspective
       id="perspective3832"
       inkscape:persp3d-origin="0.5 : 0.33333333 : 1"
       inkscape:vp_z="1 : 0.5 : 1"
       inkscape:vp_y="0 : 1000 : 0"
       inkscape:vp_x="0 : 0.5 : 1"
       sodipodi:type="inkscape:persp3d" />
    <inkscape:perspective
       id="perspective3621"
       inkscape:persp3d-origin="0.5 : 0.33333333 : 1"
       inkscape:vp_z="1 : 0.5 : 1"
       inkscape:vp_y="0 : 1000 : 0"
       inkscape:vp_x="0 : 0.5 : 1"
       sodipodi:type="inkscape:persp3d" />
    <inkscape:perspective
       id="perspective3650"
       inkscape:persp3d-origin="0.5 : 0.33333333 : 1"
       inkscape:vp_z="1 : 0.5 : 1"
       inkscape:vp_y="0 : 1000 : 0"
       inkscape:vp_x="0 : 0.5 : 1"
       sodipodi:type="inkscape:persp3d" />
  </defs>
  <sodipodi:namedview
     id="base"
     pagecolor="#ffffff"
     bordercolor="#666666"
     borderopacity="1.0"
     inkscape:pageopacity="0.0"
     inkscape:pageshadow="2"
     inkscape:zoom="5.1092602"
     inkscape:cx="28.038279"
     inkscape:cy="46.846684"
     inkscape:document-units="px"
     inkscape:current-layer="layer1"
     inkscape:window-width="1024"
     inkscape:window-height="549"
     inkscape:window-x="0"
     inkscape:window-y="0"
     showgrid="false"
     inkscape:window-maximized="1" />
  <metadata
     id="metadata2966">
    <rdf:RDF>
      <cc:Work
         rdf:about="">
        <dc:format>image/svg+xml</dc:format>
        <dc:type
           rdf:resource="http://purl.org/dc/dcmitype/StillImage" />
        <dc:title></dc:title>
      </cc:Work>
    </rdf:RDF>
  </metadata>
  <g
     inkscape:label="Vrstva 1"
     inkscape:groupmode="layer"
     id="layer1"
     transform="translate(0,-952.36218)">
    <rect
       style="fill:#cccccc;fill-opacity:1;stroke:#cccccc;stroke-width:1.99660145999999994;stroke-linejoin:round;stroke-miterlimit:4;stroke-opacity:1;stroke-dasharray:none"
       id="rect4438-0-8"
       width="92.003395"
       height="92.003403"
       x="3.9550877"
       y="956.80017"
       rx="9.5836878"
       ry="9.5836878" />
    <rect
       style="fill:none;stroke:#4d4d4d;stroke-width:4;stroke-linejoin:round;stroke-miterlimit:4;stroke-opacity:0.30000000999999998;stroke-dasharray:none"
       id="rect4438"
       width="96"
       height="96"
       x="2.3964825"
       y="954.44861"
       rx="10"
       ry="10" />
    <rect
       style="fill:none;stroke:#4d4d4d;stroke-width:5;stroke-linejoin:round;stroke-miterlimit:4;stroke-opacity:0.69999999999999996;stroke-dasharray:none"
       id="rect4438-57"
       width="92.159996"
       height="92.160004"
       x="3.8767693"
       y="955.92902"
       rx="9.5999994"
       ry="9.6000004" />
    <rect
       style="fill:none;stroke:#4d4d4d;stroke-width:3.98613523999999986;stroke-linejoin:round;stroke-miterlimit:4;stroke-opacity:0.29999999999999999;stroke-dasharray:none"
       id="rect4438-5"
       width="88.013863"
       height="88.013863"
       x="5.7898545"
       y="958.55847"
       rx="9.1681108"
       ry="9.1681108" />
    <rect
       style="fill:none;stroke:#4d4d4d;stroke-width:1.99660145999999994;stroke-linejoin:round;stroke-miterlimit:4;stroke-opacity:1;stroke-dasharray:none"
       id="rect4438-0"
       width="92.003395"
       height="92.003403"
       x="4.2715678"
       y="956.08728"
       rx="9.5836878"
       ry="9.5836878" />
    <path
       style="fill:#666666;fill-opacity:1;stroke:#666666;stroke-width:0.73475933000000004px;stroke-linecap:butt;stroke-linejoin:miter;stroke-opacity:1"
       d="m 40.818234,996.5527 -0.482314,-6.98644 1.261388,-0.0138 1.848159,7.00024 -2.627233,0 z"
       id="path7775"
       sodipodi:nodetypes="ccccc" />
    <path
       style="fill:#666666;fill-opacity:1;stroke:#666666;stroke-width:0.72635483999999984px;stroke-linecap:butt;stroke-linejoin:miter;stroke-opacity:1"
       d="m 29.252508,1023.4801 c 0.366374,-9.1586 0.140695,-9.7604 0.140695,-9.7604 l 7.109779,-14.11376 4.896939,-3.28734 17.401137,8e-5 5.943893,3.297 7.693136,14.28722 0.366337,9.3417 -43.551916,0.2355 z"
       id="path7773"
       sodipodi:nodetypes="ccccccccc" />
    <path
       style="fill:#666666;fill-opacity:1;stroke:#666666;stroke-width:0.73475933000000004px;stroke-linecap:butt;stroke-linejoin:miter;stroke-opacity:1"
       d="m 58.835241,996.20086 0.482314,-6.98645 -1.261388,-0.0138 -1.848159,7.00025 2.627233,0 z"
       id="path7775-7"
       sodipodi:nodetypes="ccccc" />
    <path
       sodipodi:type="arc"
       style="fill:#b3b3b3;fill-opacity:1;fill-rule:nonzero;stroke:none"
       id="path3291"
       sodipodi:cx="-978.81177"
       sodipodi:cy="-1226.8743"
       sodipodi:rx="13.973208"
       sodipodi:ry="13.973208"
       d="m -964.83856,-1226.8743 a 13.973208,13.973208 0 1 1 -27.94642,0 13.973208,13.973208 0 1 1 27.94642,0 z"
       transform="matrix(0.63704891,0,0,0.63704891,674.05587,1791.227)" />
    <path
       sodipodi:type="arc"
       style="fill:#666666;fill-opacity:1;fill-rule:nonzero;stroke:none"
       id="path3315"
       sodipodi:cx="-981.15771"
       sodipodi:cy="-1234.5061"
       sodipodi:rx="2.7080786"
       sodipodi:ry="2.7080786"
       d="m -978.44964,-1234.5061 a 2.7080786,2.7080786 0 1 1 -5.41615,0 2.7080786,2.7080786 0 1 1 5.41615,0 z"
       transform="matrix(0.72635483,0,0,0.72635483,763.17354,1906.3376)" />
    <path
       style="fill:#666666;fill-opacity:1;stroke:#666666;stroke-width:0.62331676000000003px;stroke-linecap:butt;stroke-linejoin:miter;stroke-opacity:1"
       d="m 33.478161,999.20437 c -3.649445,0.12652 -6.137957,0.17597 -14.534731,0.39308 -2.960977,0.0762 -0.564873,-5.79357 0.708658,-8.30304 0.854858,-1.68429 2.578663,-2.95854 4.316048,-3.86859 4.035922,-2.11366 8.828268,-2.74705 13.411296,-3.28886 9.648463,-1.14063 20.670362,-1.0483 29.164062,0.13819 3.437313,0.48029 6.020641,0.72059 9.497787,2.87066 1.25866,0.77828 2.705258,2.61174 3.360202,3.88487 1.109865,2.15749 4.072825,7.08206 1.440178,7.30212 -5.052655,0.42237 -7.984728,0.31418 -13.521658,0.26083 -2.410656,-0.0233 -0.707965,-4.69536 -2.233192,-6.4412 -0.727126,-0.8322 -1.890432,-1.30912 -3.001164,-1.58286 -7.829831,-1.93015 -17.730711,-1.78754 -24.304708,-0.0485 -1.228734,0.32495 -1.923109,0.55808 -2.523775,2.14279 -0.78452,2.06967 0.383775,6.46562 -1.779,6.54067 z"
       id="path7777-4-0"
       sodipodi:nodetypes="csaaasscssaasss" />
    <path
       style="fill:#b3b3b3;fill-opacity:1;stroke:none"
       d="m 65.693481,995.52274 c 0.0202,0.53146 0.06018,1.06046 0.124493,1.51854 l 16.109733,-0.34365 c -0.0731,-0.45702 -0.23341,-0.97073 -0.446681,-1.51166 l -15.787545,0.33677 z"
       id="path7777-4" />
    <path
       style="fill:#b3b3b3;fill-opacity:1;stroke:none"
       d="m 17.50876,996.4908 c -0.122252,0.54255 -0.177414,1.05251 -0.175888,1.50212 l 17.568198,-0.37475 c 0.07027,-0.45565 0.09154,-0.9675 0.106609,-1.50065 L 17.50876,996.4908 z"
       id="path7777-9" />
  </g>
</svg>
