<?xml version="1.0" encoding="UTF-8" standalone="no"?>
<!-- Created with Inkscape (http://www.inkscape.org/) -->

<svg
   xmlns:dc="http://purl.org/dc/elements/1.1/"
   xmlns:cc="http://creativecommons.org/ns#"
   xmlns:rdf="http://www.w3.org/1999/02/22-rdf-syntax-ns#"
   xmlns:svg="http://www.w3.org/2000/svg"
   xmlns="http://www.w3.org/2000/svg"
   xmlns:sodipodi="http://sodipodi.sourceforge.net/DTD/sodipodi-0.dtd"
   xmlns:inkscape="http://www.inkscape.org/namespaces/inkscape"
   width="100"
   height="100"
   id="svg2"
   inkscape:label="Pozadí"
   sodipodi:version="0.32"
   inkscape:version="0.47 r22583"
   sodipodi:docname="winterno.svg"
   inkscape:output_extension="org.inkscape.output.svg.inkscape"
   version="1.1">
  <defs
     id="defs2963">
    <inkscape:perspective
       sodipodi:type="inkscape:persp3d"
       inkscape:vp_x="0 : 526.18109 : 1"
       inkscape:vp_y="0 : 1000 : 0"
       inkscape:vp_z="744.09448 : 526.18109 : 1"
       inkscape:persp3d-origin="372.04724 : 350.78739 : 1"
       id="perspective346" />
    <inkscape:perspective
       id="perspective4464"
       inkscape:persp3d-origin="0.5 : 0.33333333 : 1"
       inkscape:vp_z="1 : 0.5 : 1"
       inkscape:vp_y="0 : 1000 : 0"
       inkscape:vp_x="0 : 0.5 : 1"
       sodipodi:type="inkscape:persp3d" />
    <inkscape:perspective
       id="perspective4512"
       inkscape:persp3d-origin="0.5 : 0.33333333 : 1"
       inkscape:vp_z="1 : 0.5 : 1"
       inkscape:vp_y="0 : 1000 : 0"
       inkscape:vp_x="0 : 0.5 : 1"
       sodipodi:type="inkscape:persp3d" />
    <inkscape:perspective
       id="perspective4512-4"
       inkscape:persp3d-origin="0.5 : 0.33333333 : 1"
       inkscape:vp_z="1 : 0.5 : 1"
       inkscape:vp_y="0 : 1000 : 0"
       inkscape:vp_x="0 : 0.5 : 1"
       sodipodi:type="inkscape:persp3d" />
    <inkscape:perspective
       id="perspective4919"
       inkscape:persp3d-origin="0.5 : 0.33333333 : 1"
       inkscape:vp_z="1 : 0.5 : 1"
       inkscape:vp_y="0 : 1000 : 0"
       inkscape:vp_x="0 : 0.5 : 1"
       sodipodi:type="inkscape:persp3d" />
    <inkscape:perspective
       id="perspective3929"
       inkscape:persp3d-origin="0.5 : 0.33333333 : 1"
       inkscape:vp_z="1 : 0.5 : 1"
       inkscape:vp_y="0 : 1000 : 0"
       inkscape:vp_x="0 : 0.5 : 1"
       sodipodi:type="inkscape:persp3d" />
  </defs>
  <sodipodi:namedview
     id="base"
     pagecolor="#ffffff"
     bordercolor="#666666"
     borderopacity="1.0"
     inkscape:pageopacity="0.0"
     inkscape:pageshadow="2"
     inkscape:zoom="2.52218"
     inkscape:cx="52.224168"
     inkscape:cy="48.742556"
     inkscape:document-units="px"
     inkscape:current-layer="layer1"
     inkscape:window-width="1024"
     inkscape:window-height="549"
     inkscape:window-x="0"
     inkscape:window-y="0"
     showgrid="false"
     inkscape:window-maximized="1" />
  <metadata
     id="metadata2966">
    <rdf:RDF>
      <cc:Work
         rdf:about="">
        <dc:format>image/svg+xml</dc:format>
        <dc:type
           rdf:resource="http://purl.org/dc/dcmitype/StillImage" />
        <dc:title></dc:title>
      </cc:Work>
    </rdf:RDF>
  </metadata>
  <g
     inkscape:label="Vrstva 1"
     inkscape:groupmode="layer"
     id="layer1"
     transform="translate(0,-952.36218)">
    <rect
       style="fill:#ffffff;fill-opacity:1;stroke:#ffffff;stroke-width:1.99660146;stroke-linejoin:round;stroke-miterlimit:4;stroke-opacity:1;stroke-dasharray:none"
       id="rect4438-0-8"
       width="92.003395"
       height="92.003403"
       x="3.9550877"
       y="956.80017"
       rx="9.5836878"
       ry="9.5836878" />
    <rect
       style="fill:none;stroke:#ff0000;stroke-width:4;stroke-linejoin:round;stroke-miterlimit:4;stroke-opacity:0.30000000999999998;stroke-dasharray:none"
       id="rect4438"
       width="96"
       height="96"
       x="2.3964825"
       y="954.44861"
       rx="10"
       ry="10" />
    <rect
       style="fill:none;stroke:#ff0000;stroke-width:5;stroke-linejoin:round;stroke-miterlimit:4;stroke-opacity:0.69999999999999996;stroke-dasharray:none"
       id="rect4438-57"
       width="92.159996"
       height="92.160004"
       x="3.8767693"
       y="955.92902"
       rx="9.5999994"
       ry="9.6000004" />
    <rect
       style="fill:none;stroke:#ff0000;stroke-width:3.98613523999999986;stroke-linejoin:round;stroke-miterlimit:4;stroke-opacity:0.29999999999999999;stroke-dasharray:none"
       id="rect4438-5"
       width="88.013863"
       height="88.013863"
       x="5.7898545"
       y="958.55847"
       rx="9.1681108"
       ry="9.1681108" />
    <rect
       style="fill:none;stroke:#ff0000;stroke-width:1.99660145999999994;stroke-linejoin:round;stroke-miterlimit:4;stroke-opacity:1;stroke-dasharray:none"
       id="rect4438-0"
       width="92.003395"
       height="92.003403"
       x="4.2715678"
       y="956.08728"
       rx="9.5836878"
       ry="9.5836878" />
    <path
       style="fill:#008eff;fill-opacity:1;stroke:none"
       d="m 20.537992,980.53104 0,49.81756 59.689433,0 0,-49.81756 -59.689433,0 z m 8.391072,12.37507 8.038506,0 0,9.41359 -8.038506,0 0,-9.41359 z m 17.875099,0.21154 8.073763,0 0,9.41355 -8.073763,0 0,-9.41355 z m 16.993684,0 8.073763,0 0,9.41355 -8.073763,0 0,-9.41355 z m 0,18.36875 8.073763,0 0,9.3782 -8.073763,0 0,-9.3782 z m -34.868783,0.4231 8.038506,0 0,9.4134 -8.038506,0 0,-9.4134 z m 17.487277,2.75 8.849408,0 0,14.2083 -8.849408,0 0,-14.2083 z"
       id="rect2990" />
    <path
       style="fill:#ffffff;stroke:#ffffff;stroke-width:1.12821138px;stroke-linecap:butt;stroke-linejoin:miter;stroke-opacity:1"
       d="m 18.182852,988.88487 4.473161,0.89464 1.341947,-2.68391 2.683896,1.34196 2.012922,-3.80219 1.565605,0.22366 2.460239,-2.01292 -1.341948,-2.23658 -0.894632,-0.89464 -13.866795,0.22366 1.565605,8.94632 z"
       id="path3913" />
    <path
       style="fill:#ffffff;stroke:#ffffff;stroke-width:1.12821138px;stroke-linecap:butt;stroke-linejoin:miter;stroke-opacity:1"
       d="m 26.905513,1000.0678 3.35487,-0.44735 1.341949,3.80215 -0.670975,1.5656 1.789265,0.8947 -1.565607,1.1183 -2.23658,0.4473 -0.670973,-2.4603 -1.341949,-4.9204 z"
       id="path3915" />
    <path
       style="fill:#ffffff;stroke:#ffffff;stroke-width:1.12821138px;stroke-linecap:butt;stroke-linejoin:miter;stroke-opacity:1"
       d="m 49.047655,978.82026 1.118289,3.13121 1.341948,5.36779 4.47316,-1.34194 2.012922,1.34194 6.262423,-0.89463 2.907553,1.78927 4.249502,-1.56561 -1.789264,4.2495 3.578528,-0.22366 2.23658,2.01292 1.565606,-0.44731 8.722661,0.67097 -3.578527,-16.998 -33.101381,2.90755 z"
       id="path3917" />
    <path
       style="fill:#ffffff;stroke:#ffffff;stroke-width:1.12821138px;stroke-linecap:butt;stroke-linejoin:miter;stroke-opacity:1"
       d="m 54.415446,1020.6443 2.683895,-4.0258 0.670975,-2.2366 -2.683897,-0.671 2.012922,-2.6839 -4.249501,-0.2236 -2.23658,-0.8947 0.670974,2.6839 -0.894632,1.342 4.025844,6.7097 z"
       id="path3919" />
    <path
       style="fill:none;stroke:#ff0000;stroke-width:4;stroke-linecap:butt;stroke-linejoin:miter;stroke-opacity:1;stroke-miterlimit:4;stroke-dasharray:none"
       d="M 7.5331658,93.259799 93.173367,6.8266334"
       id="path5178"
       transform="translate(0,952.36218)" />
  </g>
</svg>
