<?xml version="1.0" encoding="UTF-8" standalone="no"?>
<!-- Created with Inkscape (http://www.inkscape.org/) -->

<svg
   xmlns:dc="http://purl.org/dc/elements/1.1/"
   xmlns:cc="http://creativecommons.org/ns#"
   xmlns:rdf="http://www.w3.org/1999/02/22-rdf-syntax-ns#"
   xmlns:svg="http://www.w3.org/2000/svg"
   xmlns="http://www.w3.org/2000/svg"
   xmlns:sodipodi="http://sodipodi.sourceforge.net/DTD/sodipodi-0.dtd"
   xmlns:inkscape="http://www.inkscape.org/namespaces/inkscape"
   width="100"
   height="100"
   id="svg2"
   inkscape:label="Pozadí"
   sodipodi:version="0.32"
   inkscape:version="0.47 r22583"
   sodipodi:docname="bicyclesno.svg"
   inkscape:output_extension="org.inkscape.output.svg.inkscape"
   version="1.1">
  <defs
     id="defs2963">
    <inkscape:perspective
       sodipodi:type="inkscape:persp3d"
       inkscape:vp_x="0 : 526.18109 : 1"
       inkscape:vp_y="0 : 1000 : 0"
       inkscape:vp_z="744.09448 : 526.18109 : 1"
       inkscape:persp3d-origin="372.04724 : 350.78739 : 1"
       id="perspective346" />
    <inkscape:perspective
       id="perspective4464"
       inkscape:persp3d-origin="0.5 : 0.33333333 : 1"
       inkscape:vp_z="1 : 0.5 : 1"
       inkscape:vp_y="0 : 1000 : 0"
       inkscape:vp_x="0 : 0.5 : 1"
       sodipodi:type="inkscape:persp3d" />
    <inkscape:perspective
       id="perspective4512"
       inkscape:persp3d-origin="0.5 : 0.33333333 : 1"
       inkscape:vp_z="1 : 0.5 : 1"
       inkscape:vp_y="0 : 1000 : 0"
       inkscape:vp_x="0 : 0.5 : 1"
       sodipodi:type="inkscape:persp3d" />
    <inkscape:perspective
       id="perspective4512-4"
       inkscape:persp3d-origin="0.5 : 0.33333333 : 1"
       inkscape:vp_z="1 : 0.5 : 1"
       inkscape:vp_y="0 : 1000 : 0"
       inkscape:vp_x="0 : 0.5 : 1"
       sodipodi:type="inkscape:persp3d" />
    <inkscape:perspective
       id="perspective4919"
       inkscape:persp3d-origin="0.5 : 0.33333333 : 1"
       inkscape:vp_z="1 : 0.5 : 1"
       inkscape:vp_y="0 : 1000 : 0"
       inkscape:vp_x="0 : 0.5 : 1"
       sodipodi:type="inkscape:persp3d" />
    <inkscape:perspective
       id="perspective3832"
       inkscape:persp3d-origin="0.5 : 0.33333333 : 1"
       inkscape:vp_z="1 : 0.5 : 1"
       inkscape:vp_y="0 : 1000 : 0"
       inkscape:vp_x="0 : 0.5 : 1"
       sodipodi:type="inkscape:persp3d" />
    <inkscape:perspective
       id="perspective3621"
       inkscape:persp3d-origin="0.5 : 0.33333333 : 1"
       inkscape:vp_z="1 : 0.5 : 1"
       inkscape:vp_y="0 : 1000 : 0"
       inkscape:vp_x="0 : 0.5 : 1"
       sodipodi:type="inkscape:persp3d" />
    <inkscape:perspective
       id="perspective3717"
       inkscape:persp3d-origin="0.5 : 0.33333333 : 1"
       inkscape:vp_z="1 : 0.5 : 1"
       inkscape:vp_y="0 : 1000 : 0"
       inkscape:vp_x="0 : 0.5 : 1"
       sodipodi:type="inkscape:persp3d" />
  </defs>
  <sodipodi:namedview
     id="base"
     pagecolor="#ffffff"
     bordercolor="#666666"
     borderopacity="1.0"
     inkscape:pageopacity="0.0"
     inkscape:pageshadow="2"
     inkscape:zoom="2.52218"
     inkscape:cx="52.224168"
     inkscape:cy="48.742556"
     inkscape:document-units="px"
     inkscape:current-layer="layer1"
     inkscape:window-width="1024"
     inkscape:window-height="549"
     inkscape:window-x="0"
     inkscape:window-y="0"
     showgrid="false"
     inkscape:window-maximized="1" />
  <metadata
     id="metadata2966">
    <rdf:RDF>
      <cc:Work
         rdf:about="">
        <dc:format>image/svg+xml</dc:format>
        <dc:type
           rdf:resource="http://purl.org/dc/dcmitype/StillImage" />
        <dc:title></dc:title>
      </cc:Work>
    </rdf:RDF>
  </metadata>
  <g
     inkscape:label="Vrstva 1"
     inkscape:groupmode="layer"
     id="layer1"
     transform="translate(0,-952.36218)">
    <rect
       style="fill:#ffffff;fill-opacity:1;stroke:#ffffff;stroke-width:1.99660146;stroke-linejoin:round;stroke-miterlimit:4;stroke-opacity:1;stroke-dasharray:none"
       id="rect4438-0-8"
       width="92.003395"
       height="92.003403"
       x="3.9550877"
       y="956.80017"
       rx="9.5836878"
       ry="9.5836878" />
    <rect
       style="fill:none;stroke:#ff0000;stroke-width:4;stroke-linejoin:round;stroke-miterlimit:4;stroke-opacity:0.30000000999999998;stroke-dasharray:none"
       id="rect4438"
       width="96"
       height="96"
       x="2.3964825"
       y="954.44861"
       rx="10"
       ry="10" />
    <rect
       style="fill:none;stroke:#ff0000;stroke-width:5;stroke-linejoin:round;stroke-miterlimit:4;stroke-opacity:0.69999999999999996;stroke-dasharray:none"
       id="rect4438-57"
       width="92.159996"
       height="92.160004"
       x="3.8767693"
       y="955.92902"
       rx="9.5999994"
       ry="9.6000004" />
    <rect
       style="fill:none;stroke:#ff0000;stroke-width:3.98613523999999986;stroke-linejoin:round;stroke-miterlimit:4;stroke-opacity:0.29999999999999999;stroke-dasharray:none"
       id="rect4438-5"
       width="88.013863"
       height="88.013863"
       x="5.7898545"
       y="958.55847"
       rx="9.1681108"
       ry="9.1681108" />
    <rect
       style="fill:none;stroke:#ff0000;stroke-width:1.99660145999999994;stroke-linejoin:round;stroke-miterlimit:4;stroke-opacity:1;stroke-dasharray:none"
       id="rect4438-0"
       width="92.003395"
       height="92.003403"
       x="4.2715678"
       y="956.08728"
       rx="9.5836878"
       ry="9.5836878" />
    <g
       id="g1663"
       style="fill:#008eff;fill-opacity:1"
       transform="matrix(0.14709829,0,0,0.14709829,23.577699,969.50891)">
      <g
         id="g1665"
         style="fill:#008eff;fill-opacity:1">
        <path
           d="m 230.05,89.664 c 24.761,0 44.833,-20.072 44.833,-44.832 C 274.883,20.074 254.811,0 230.05,0 c -24.76,0 -44.833,20.074 -44.833,44.832 0,24.76 20.073,44.832 44.833,44.832 z"
           id="path1667"
           style="fill:#008eff;fill-opacity:1;stroke:none" />
        <path
           d="m 127.05,53.582 c 25.5,-13 61,11 61.222,37.394 l 0,85.307 40.653,44.799 c 18.625,21 -10.878,49.751 -31.409,28.784 L 151.52,199.287 c -2.846,-2.756 -4.979,-6.111 -4.979,-13.898 l 0,-40.85 -80.094,43.293 0,217.25 c 0,49 -66.447,48.99 -66.447,0.424 L 0,148.007 C 0,133.629 5.69098,119.669 19.919,111.522 L 127.05,53.582 z"
           id="path1669"
           style="fill:#008eff;fill-opacity:1;stroke:none" />
      </g>
      <g
         id="g1671"
         style="fill:#008eff;fill-opacity:1">
        <path
           d="m 293.559,274.082 70.491,0 0,-128.501 -142,-0.249 c -18.25,0 -25.084,20.583 -13.75,33.5 l 85.259,95.25 z"
           id="path1673"
           style="fill:#008eff;fill-opacity:1;stroke:none" />
        <g
           id="g1675"
           style="fill:#008eff;fill-opacity:1">
          <g
             id="g1677"
             style="fill:#008eff;fill-opacity:1">
            <path
               d="m 252.627,139.544 c 3.027,0 5.48,-2.454 5.48,-5.48 0,-3.027 -2.453,-5.481 -5.48,-5.481 -3.026,0 -5.48,2.454 -5.48,5.481 0,3.026 2.454,5.48 5.48,5.48 z"
               id="path1679"
               style="fill:#008eff;fill-opacity:1;stroke:none" />
            <path
               d="M 252.627,134.064"
               id="path1681"
               style="fill:#008eff;fill-opacity:1;stroke:none" />
          </g>
          <g
             id="g1683"
             style="fill:#008eff;fill-opacity:1">
            <path
               d="m 267.304,140.504 c 3.026,0 5.48,-2.454 5.48,-5.48 0,-3.027 -2.454,-5.48 -5.48,-5.48 -3.027,0 -5.48,2.453 -5.48,5.48 0,3.026 2.453,5.48 5.48,5.48 z"
               id="path1685"
               style="fill:#008eff;fill-opacity:1;stroke:none" />
            <path
               d="M 267.304,135.024"
               id="path1687"
               style="fill:#008eff;fill-opacity:1;stroke:none" />
          </g>
          <g
             id="g1689"
             style="fill:#008eff;fill-opacity:1">
            <path
               d="m 268.244,124.308 c 3.026,0 5.48,-2.454 5.48,-5.48 0,-3.027 -2.454,-5.481 -5.48,-5.481 -3.027,0 -5.48,2.454 -5.48,5.481 0,3.026 2.453,5.48 5.48,5.48 z"
               id="path1691"
               style="fill:#008eff;fill-opacity:1;stroke:none" />
            <path
               d="M 268.244,118.828"
               id="path1693"
               style="fill:#008eff;fill-opacity:1;stroke:none" />
          </g>
          <g
             id="g1695"
             style="fill:#008eff;fill-opacity:1">
            <path
               d="m 253.625,123.286 c 3.027,0 5.48,-2.453 5.48,-5.48 0,-3.026 -2.453,-5.48 -5.48,-5.48 -3.026,0 -5.48,2.454 -5.48,5.48 0,3.027 2.454,5.48 5.48,5.48 z"
               id="path1697"
               style="fill:#008eff;fill-opacity:1;stroke:none" />
            <path
               d="M 253.625,117.806"
               id="path1699"
               style="fill:#008eff;fill-opacity:1;stroke:none" />
          </g>
          <g
             id="g1701"
             style="fill:#008eff;fill-opacity:1">
            <path
               d="m 258.372,108.265 c 3.178,0 5.754,-2.576 5.754,-5.754 0,-3.178 -2.576,-5.754 -5.754,-5.754 -3.178,0 -5.754,2.576 -5.754,5.754 0,3.178 2.576,5.754 5.754,5.754 z"
               id="path1703"
               style="fill:#008eff;fill-opacity:1;stroke:none" />
            <path
               d="M 258.372,102.511"
               id="path1705"
               style="fill:#008eff;fill-opacity:1;stroke:none" />
          </g>
          <g
             id="g1707"
             style="fill:#008eff;fill-opacity:1">
            <path
               d="m 276.211,111.144 c 3.178,0 5.754,-2.576 5.754,-5.754 0,-3.178 -2.576,-5.754 -5.754,-5.754 -3.178,0 -5.754,2.576 -5.754,5.754 0,3.178 2.576,5.754 5.754,5.754 z"
               id="path1709"
               style="fill:#008eff;fill-opacity:1;stroke:none" />
            <path
               d="M 276.211,105.39"
               id="path1711"
               style="fill:#008eff;fill-opacity:1;stroke:none" />
          </g>
          <g
             id="g1713"
             style="fill:#008eff;fill-opacity:1">
            <path
               d="m 269.872,96.314 c 3.337,0 6.042,-2.705 6.042,-6.042 0,-3.337 -2.705,-6.042 -6.042,-6.042 -3.336,0 -6.042,2.705 -6.042,6.042 0,3.337 2.706,6.042 6.042,6.042 z"
               id="path1715"
               style="fill:#008eff;fill-opacity:1;stroke:none" />
            <path
               d="M 269.872,90.272"
               id="path1717"
               style="fill:#008eff;fill-opacity:1;stroke:none" />
          </g>
          <g
             id="g1719"
             style="fill:#008eff;fill-opacity:1">
            <path
               d="m 290.528,105.912 c 3.337,0 6.042,-2.705 6.042,-6.042 0,-3.336 -2.705,-6.041 -6.042,-6.041 -3.336,0 -6.042,2.705 -6.042,6.041 0,3.337 2.706,6.042 6.042,6.042 z"
               id="path1721"
               style="fill:#008eff;fill-opacity:1;stroke:none" />
            <path
               d="M 290.528,99.87"
               id="path1723"
               style="fill:#008eff;fill-opacity:1;stroke:none" />
          </g>
          <g
             id="g1725"
             style="fill:#008eff;fill-opacity:1">
            <path
               d="m 283.954,91.035 c 3.336,0 6.041,-2.705 6.041,-6.042 0,-3.337 -2.705,-6.042 -6.041,-6.042 -3.337,0 -6.042,2.705 -6.042,6.042 0,3.337 2.705,6.042 6.042,6.042 z"
               id="path1727"
               style="fill:#008eff;fill-opacity:1;stroke:none" />
            <path
               d="M 283.954,84.993"
               id="path1729"
               style="fill:#008eff;fill-opacity:1;stroke:none" />
          </g>
          <g
             id="g1731"
             style="fill:#008eff;fill-opacity:1">
            <path
               d="m 300.249,91.055 c 3.678,0 6.661,-2.982 6.661,-6.661 0,-3.679 -2.983,-6.661 -6.661,-6.661 -3.679,0 -6.662,2.982 -6.662,6.661 0,3.679 2.983,6.661 6.662,6.661 z"
               id="path1733"
               style="fill:#008eff;fill-opacity:1;stroke:none" />
            <path
               d="M 300.249,84.394"
               id="path1735"
               style="fill:#008eff;fill-opacity:1;stroke:none" />
          </g>
          <g
             id="g1737"
             style="fill:#008eff;fill-opacity:1">
            <path
               d="m 305.414,111.691 c 3.679,0 6.661,-2.983 6.661,-6.661 0,-3.679 -2.982,-6.662 -6.661,-6.662 -3.679,0 -6.661,2.983 -6.661,6.662 0,3.678 2.982,6.661 6.661,6.661 z"
               id="path1739"
               style="fill:#008eff;fill-opacity:1;stroke:none" />
            <path
               d="M 305.414,105.03"
               id="path1741"
               style="fill:#008eff;fill-opacity:1;stroke:none" />
          </g>
          <g
             id="g1743"
             style="fill:#008eff;fill-opacity:1">
            <path
               d="m 315.605,98.947 c 3.862,0 6.994,-3.132 6.994,-6.994 0,-3.863 -3.132,-6.995 -6.994,-6.995 -3.863,0 -6.995,3.132 -6.995,6.995 0,3.862 3.132,6.994 6.995,6.994 z"
               id="path1745"
               style="fill:#008eff;fill-opacity:1;stroke:none" />
            <path
               d="M 315.605,91.953"
               id="path1747"
               style="fill:#008eff;fill-opacity:1;stroke:none" />
          </g>
          <g
             id="g1749"
             style="fill:#008eff;fill-opacity:1">
            <path
               d="m 328.975,112.494 c 4.056,0 7.344,-3.288 7.344,-7.344 0,-4.056 -3.288,-7.344 -7.344,-7.344 -4.056,0 -7.344,3.288 -7.344,7.344 0,4.056 3.288,7.344 7.344,7.344 z"
               id="path1751"
               style="fill:#008eff;fill-opacity:1;stroke:none" />
            <path
               d="M 328.975,105.15"
               id="path1753"
               style="fill:#008eff;fill-opacity:1;stroke:none" />
          </g>
          <g
             id="g1755"
             style="fill:#008eff;fill-opacity:1">
            <path
               d="m 316.294,125.451 c 4.055,0 7.343,-3.288 7.343,-7.344 0,-4.056 -3.288,-7.344 -7.343,-7.344 -4.056,0 -7.344,3.288 -7.344,7.344 0,4.056 3.288,7.344 7.344,7.344 z"
               id="path1757"
               style="fill:#008eff;fill-opacity:1;stroke:none" />
            <path
               d="M 316.294,118.107"
               id="path1759"
               style="fill:#008eff;fill-opacity:1;stroke:none" />
          </g>
        </g>
      </g>
    </g>
    <path
       style="fill:none;stroke:#ff0000;stroke-width:4;stroke-linecap:butt;stroke-linejoin:miter;stroke-opacity:1;stroke-miterlimit:4;stroke-dasharray:none"
       d="M 7.5331658,93.259799 93.173367,6.8266334"
       id="path5178"
       transform="translate(0,952.36218)" />
  </g>
</svg>
