<?xml version="1.0" encoding="UTF-8" standalone="no"?>
<!-- Created with Inkscape (http://www.inkscape.org/) -->

<svg
   xmlns:dc="http://purl.org/dc/elements/1.1/"
   xmlns:cc="http://creativecommons.org/ns#"
   xmlns:rdf="http://www.w3.org/1999/02/22-rdf-syntax-ns#"
   xmlns:svg="http://www.w3.org/2000/svg"
   xmlns="http://www.w3.org/2000/svg"
   xmlns:sodipodi="http://sodipodi.sourceforge.net/DTD/sodipodi-0.dtd"
   xmlns:inkscape="http://www.inkscape.org/namespaces/inkscape"
   width="100"
   height="100"
   id="svg2"
   inkscape:label="Pozadí"
   sodipodi:version="0.32"
   inkscape:version="0.47 r22583"
   sodipodi:docname="bicyclesno.svg"
   inkscape:output_extension="org.inkscape.output.svg.inkscape"
   version="1.1">
  <defs
     id="defs2963">
    <inkscape:perspective
       sodipodi:type="inkscape:persp3d"
       inkscape:vp_x="0 : 526.18109 : 1"
       inkscape:vp_y="0 : 1000 : 0"
       inkscape:vp_z="744.09448 : 526.18109 : 1"
       inkscape:persp3d-origin="372.04724 : 350.78739 : 1"
       id="perspective346" />
    <inkscape:perspective
       id="perspective4464"
       inkscape:persp3d-origin="0.5 : 0.33333333 : 1"
       inkscape:vp_z="1 : 0.5 : 1"
       inkscape:vp_y="0 : 1000 : 0"
       inkscape:vp_x="0 : 0.5 : 1"
       sodipodi:type="inkscape:persp3d" />
    <inkscape:perspective
       id="perspective4512"
       inkscape:persp3d-origin="0.5 : 0.33333333 : 1"
       inkscape:vp_z="1 : 0.5 : 1"
       inkscape:vp_y="0 : 1000 : 0"
       inkscape:vp_x="0 : 0.5 : 1"
       sodipodi:type="inkscape:persp3d" />
    <inkscape:perspective
       id="perspective4512-4"
       inkscape:persp3d-origin="0.5 : 0.33333333 : 1"
       inkscape:vp_z="1 : 0.5 : 1"
       inkscape:vp_y="0 : 1000 : 0"
       inkscape:vp_x="0 : 0.5 : 1"
       sodipodi:type="inkscape:persp3d" />
    <inkscape:perspective
       id="perspective4919"
       inkscape:persp3d-origin="0.5 : 0.33333333 : 1"
       inkscape:vp_z="1 : 0.5 : 1"
       inkscape:vp_y="0 : 1000 : 0"
       inkscape:vp_x="0 : 0.5 : 1"
       sodipodi:type="inkscape:persp3d" />
    <inkscape:perspective
       id="perspective3832"
       inkscape:persp3d-origin="0.5 : 0.33333333 : 1"
       inkscape:vp_z="1 : 0.5 : 1"
       inkscape:vp_y="0 : 1000 : 0"
       inkscape:vp_x="0 : 0.5 : 1"
       sodipodi:type="inkscape:persp3d" />
    <inkscape:perspective
       id="perspective3621"
       inkscape:persp3d-origin="0.5 : 0.33333333 : 1"
       inkscape:vp_z="1 : 0.5 : 1"
       inkscape:vp_y="0 : 1000 : 0"
       inkscape:vp_x="0 : 0.5 : 1"
       sodipodi:type="inkscape:persp3d" />
    <inkscape:perspective
       id="perspective3621-1"
       inkscape:persp3d-origin="0.5 : 0.33333333 : 1"
       inkscape:vp_z="1 : 0.5 : 1"
       inkscape:vp_y="0 : 1000 : 0"
       inkscape:vp_x="0 : 0.5 : 1"
       sodipodi:type="inkscape:persp3d" />
  </defs>
  <sodipodi:namedview
     id="base"
     pagecolor="#ffffff"
     bordercolor="#666666"
     borderopacity="1.0"
     inkscape:pageopacity="0.0"
     inkscape:pageshadow="2"
     inkscape:zoom="2.52218"
     inkscape:cx="52.224168"
     inkscape:cy="48.742556"
     inkscape:document-units="px"
     inkscape:current-layer="layer1"
     inkscape:window-width="1024"
     inkscape:window-height="549"
     inkscape:window-x="0"
     inkscape:window-y="0"
     showgrid="false"
     inkscape:window-maximized="1" />
  <metadata
     id="metadata2966">
    <rdf:RDF>
      <cc:Work
         rdf:about="">
        <dc:format>image/svg+xml</dc:format>
        <dc:type
           rdf:resource="http://purl.org/dc/dcmitype/StillImage" />
        <dc:title></dc:title>
      </cc:Work>
    </rdf:RDF>
  </metadata>
  <g
     inkscape:label="Vrstva 1"
     inkscape:groupmode="layer"
     id="layer1"
     transform="translate(0,-952.36218)">
    <rect
       style="fill:#ffffff;fill-opacity:1;stroke:#ffffff;stroke-width:1.99660146;stroke-linejoin:round;stroke-miterlimit:4;stroke-opacity:1;stroke-dasharray:none"
       id="rect4438-0-8"
       width="92.003395"
       height="92.003403"
       x="3.9550877"
       y="956.80017"
       rx="9.5836878"
       ry="9.5836878" />
    <rect
       style="fill:none;stroke:#ff0000;stroke-width:4;stroke-linejoin:round;stroke-miterlimit:4;stroke-opacity:0.30000000999999998;stroke-dasharray:none"
       id="rect4438"
       width="96"
       height="96"
       x="2.3964825"
       y="954.44861"
       rx="10"
       ry="10" />
    <rect
       style="fill:none;stroke:#ff0000;stroke-width:5;stroke-linejoin:round;stroke-miterlimit:4;stroke-opacity:0.69999999999999996;stroke-dasharray:none"
       id="rect4438-57"
       width="92.159996"
       height="92.160004"
       x="3.8767693"
       y="955.92902"
       rx="9.5999994"
       ry="9.6000004" />
    <rect
       style="fill:none;stroke:#ff0000;stroke-width:3.98613523999999986;stroke-linejoin:round;stroke-miterlimit:4;stroke-opacity:0.29999999999999999;stroke-dasharray:none"
       id="rect4438-5"
       width="88.013863"
       height="88.013863"
       x="5.7898545"
       y="958.55847"
       rx="9.1681108"
       ry="9.1681108" />
    <rect
       style="fill:none;stroke:#ff0000;stroke-width:1.99660145999999994;stroke-linejoin:round;stroke-miterlimit:4;stroke-opacity:1;stroke-dasharray:none"
       id="rect4438-0"
       width="92.003395"
       height="92.003403"
       x="4.2715678"
       y="956.08728"
       rx="9.5836878"
       ry="9.5836878" />
    <g
       id="g1579"
       style="fill:#008eff;fill-opacity:1"
       transform="matrix(0.15024349,0,0,0.15024349,17.0603,973.22216)">
      <g
         id="g1581"
         style="fill:#008eff;fill-opacity:1">
        <path
           d="m 245.234,3.578 0,393.261 -37.042,0 0,-393.261 37.042,0 z"
           id="path1583"
           style="fill:#008eff;fill-opacity:1;stroke:none" />
        <path
           d="M 226.713,200.209"
           id="path1585"
           style="fill:#008eff;fill-opacity:1;stroke:none" />
      </g>
      <g
         id="g1587"
         style="fill:#008eff;fill-opacity:1">
        <g
           id="g1589"
           style="fill:#008eff;fill-opacity:1">
          <path
             d="m 91.6336,64.828 c 17.9024,0 32.4154,-14.511 32.4154,-32.414 C 124.049,14.514 109.536,0 91.6336,0 c -17.899,0 -32.413,14.514 -32.413,32.414 0,17.903 14.514,32.414 32.413,32.414 z"
             id="path1591"
             style="fill:#008eff;fill-opacity:1;stroke:none" />
          <path
             d="M 91.6336,32.414"
             id="path1593"
             style="fill:#008eff;fill-opacity:1;stroke:none" />
        </g>
        <path
           d="m 86.8416,270.35 0.013,113.385 c 0,20.4 -30.565,20.4 -30.565,0 l -0.013,-113.385 -40.504,0 43.339,-150.343 -6.812,0 -25.523,85.881 C 20.7016,224.62 -5.01541,216.925 0.868576,196.867 L 29.2066,103.564 c 3.038,-10.64 16.494,-29.503 39.786,-29.503 l 21.477,0 0,0 23.1154,0 c 23.084,0 36.601,19.022 40.094,29.503 l 28.35,93.212 c 5.67,20.047 -19.845,28.35 -25.92,8.809 l -25.514,-85.578 -7.376,0 43.804,150.343 -40.681,0 0,113.535 c 0,20.25 -30.4374,20.149 -30.4374,0 l 0,-113.535 -9.063,0 z"
           id="path1595"
           style="fill:#008eff;fill-opacity:1;stroke:none" />
      </g>
      <g
         id="g1597"
         style="fill:#008eff;fill-opacity:1">
        <path
           d="m 322.947,73.94 c -22.808,0 -41.151,18.867 -41.151,42.4 l 0,100.3 c 0,19.5 28.136,19.5 28.136,0 l 0,-91.714 6.661,0 0,254.127 c 0,26.072 37.468,25.305 37.468,0 l 0,-148.776 6.453,0 0,148.776 c 0,25.305 37.673,26.072 37.673,0 l 0,-254.127 6.505,0 0,91.714 c 0,19.651 27.99,19.65 27.939,0 l 0,-99.7 c 0,-21.7 -16.614,-42.955 -41.656,-42.955 L 322.947,73.94 z"
           id="path1599"
           style="fill:#008eff;fill-opacity:1;stroke:none" />
        <g
           id="g1601"
           style="fill:#008eff;fill-opacity:1">
          <path
             d="m 357.134,64.828 c 17.901,0 32.414,-14.511 32.414,-32.414 C 389.548,14.514 375.035,0 357.134,0 c -17.9,0 -32.414,14.514 -32.414,32.414 0,17.903 14.514,32.414 32.414,32.414 z"
             id="path1603"
             style="fill:#008eff;fill-opacity:1;stroke:none" />
          <path
             d="M 357.134,32.414"
             id="path1605"
             style="fill:#008eff;fill-opacity:1;stroke:none" />
        </g>
      </g>
    </g>
    <path
       style="fill:none;stroke:#ff0000;stroke-width:4;stroke-linecap:butt;stroke-linejoin:miter;stroke-opacity:1;stroke-miterlimit:4;stroke-dasharray:none"
       d="M 7.5331658,93.259799 93.173367,6.8266334"
       id="path5178"
       transform="translate(0,952.36218)" />
  </g>
</svg>
