<?xml version="1.0" encoding="UTF-8" standalone="no"?>
<!-- Created with Inkscape (http://www.inkscape.org/) -->

<svg
   xmlns:dc="http://purl.org/dc/elements/1.1/"
   xmlns:cc="http://creativecommons.org/ns#"
   xmlns:rdf="http://www.w3.org/1999/02/22-rdf-syntax-ns#"
   xmlns:svg="http://www.w3.org/2000/svg"
   xmlns="http://www.w3.org/2000/svg"
   xmlns:sodipodi="http://sodipodi.sourceforge.net/DTD/sodipodi-0.dtd"
   xmlns:inkscape="http://www.inkscape.org/namespaces/inkscape"
   width="100"
   height="100"
   id="svg2"
   inkscape:label="Pozadí"
   sodipodi:version="0.32"
   inkscape:version="0.47 r22583"
   sodipodi:docname="bicyclesno.svg"
   inkscape:output_extension="org.inkscape.output.svg.inkscape"
   version="1.1">
  <defs
     id="defs2963">
    <inkscape:perspective
       sodipodi:type="inkscape:persp3d"
       inkscape:vp_x="0 : 526.18109 : 1"
       inkscape:vp_y="0 : 1000 : 0"
       inkscape:vp_z="744.09448 : 526.18109 : 1"
       inkscape:persp3d-origin="372.04724 : 350.78739 : 1"
       id="perspective346" />
    <inkscape:perspective
       id="perspective4464"
       inkscape:persp3d-origin="0.5 : 0.33333333 : 1"
       inkscape:vp_z="1 : 0.5 : 1"
       inkscape:vp_y="0 : 1000 : 0"
       inkscape:vp_x="0 : 0.5 : 1"
       sodipodi:type="inkscape:persp3d" />
    <inkscape:perspective
       id="perspective4512"
       inkscape:persp3d-origin="0.5 : 0.33333333 : 1"
       inkscape:vp_z="1 : 0.5 : 1"
       inkscape:vp_y="0 : 1000 : 0"
       inkscape:vp_x="0 : 0.5 : 1"
       sodipodi:type="inkscape:persp3d" />
    <inkscape:perspective
       id="perspective4512-4"
       inkscape:persp3d-origin="0.5 : 0.33333333 : 1"
       inkscape:vp_z="1 : 0.5 : 1"
       inkscape:vp_y="0 : 1000 : 0"
       inkscape:vp_x="0 : 0.5 : 1"
       sodipodi:type="inkscape:persp3d" />
    <inkscape:perspective
       id="perspective4919"
       inkscape:persp3d-origin="0.5 : 0.33333333 : 1"
       inkscape:vp_z="1 : 0.5 : 1"
       inkscape:vp_y="0 : 1000 : 0"
       inkscape:vp_x="0 : 0.5 : 1"
       sodipodi:type="inkscape:persp3d" />
    <inkscape:perspective
       id="perspective3832"
       inkscape:persp3d-origin="0.5 : 0.33333333 : 1"
       inkscape:vp_z="1 : 0.5 : 1"
       inkscape:vp_y="0 : 1000 : 0"
       inkscape:vp_x="0 : 0.5 : 1"
       sodipodi:type="inkscape:persp3d" />
    <inkscape:perspective
       id="perspective3621"
       inkscape:persp3d-origin="0.5 : 0.33333333 : 1"
       inkscape:vp_z="1 : 0.5 : 1"
       inkscape:vp_y="0 : 1000 : 0"
       inkscape:vp_x="0 : 0.5 : 1"
       sodipodi:type="inkscape:persp3d" />
    <inkscape:perspective
       id="perspective3629"
       inkscape:persp3d-origin="0.5 : 0.33333333 : 1"
       inkscape:vp_z="1 : 0.5 : 1"
       inkscape:vp_y="0 : 1000 : 0"
       inkscape:vp_x="0 : 0.5 : 1"
       sodipodi:type="inkscape:persp3d" />
  </defs>
  <sodipodi:namedview
     id="base"
     pagecolor="#ffffff"
     bordercolor="#666666"
     borderopacity="1.0"
     inkscape:pageopacity="0.0"
     inkscape:pageshadow="2"
     inkscape:zoom="2.52218"
     inkscape:cx="52.224168"
     inkscape:cy="48.742556"
     inkscape:document-units="px"
     inkscape:current-layer="layer1"
     inkscape:window-width="1024"
     inkscape:window-height="549"
     inkscape:window-x="0"
     inkscape:window-y="0"
     showgrid="false"
     inkscape:window-maximized="1" />
  <metadata
     id="metadata2966">
    <rdf:RDF>
      <cc:Work
         rdf:about="">
        <dc:format>image/svg+xml</dc:format>
        <dc:type
           rdf:resource="http://purl.org/dc/dcmitype/StillImage" />
        <dc:title></dc:title>
      </cc:Work>
    </rdf:RDF>
  </metadata>
  <g
     inkscape:label="Vrstva 1"
     inkscape:groupmode="layer"
     id="layer1"
     transform="translate(0,-952.36218)">
    <rect
       style="fill:#ffffff;fill-opacity:1;stroke:#ffffff;stroke-width:1.99660146;stroke-linejoin:round;stroke-miterlimit:4;stroke-opacity:1;stroke-dasharray:none"
       id="rect4438-0-8"
       width="92.003395"
       height="92.003403"
       x="3.9550877"
       y="956.80017"
       rx="9.5836878"
       ry="9.5836878" />
    <rect
       style="fill:none;stroke:#ff0000;stroke-width:4;stroke-linejoin:round;stroke-miterlimit:4;stroke-opacity:0.30000000999999998;stroke-dasharray:none"
       id="rect4438"
       width="96"
       height="96"
       x="2.3964825"
       y="954.44861"
       rx="10"
       ry="10" />
    <rect
       style="fill:none;stroke:#ff0000;stroke-width:5;stroke-linejoin:round;stroke-miterlimit:4;stroke-opacity:0.69999999999999996;stroke-dasharray:none"
       id="rect4438-57"
       width="92.159996"
       height="92.160004"
       x="3.8767693"
       y="955.92902"
       rx="9.5999994"
       ry="9.6000004" />
    <rect
       style="fill:none;stroke:#ff0000;stroke-width:3.98613523999999986;stroke-linejoin:round;stroke-miterlimit:4;stroke-opacity:0.29999999999999999;stroke-dasharray:none"
       id="rect4438-5"
       width="88.013863"
       height="88.013863"
       x="5.7898545"
       y="958.55847"
       rx="9.1681108"
       ry="9.1681108" />
    <rect
       style="fill:none;stroke:#ff0000;stroke-width:1.99660145999999994;stroke-linejoin:round;stroke-miterlimit:4;stroke-opacity:1;stroke-dasharray:none"
       id="rect4438-0"
       width="92.003395"
       height="92.003403"
       x="4.2715678"
       y="956.08728"
       rx="9.5836878"
       ry="9.5836878" />
    <g
       id="g3611"
       transform="matrix(0.04226695,0,0,0.04226695,49.2242,984.73271)">
      <path
         sodipodi:nodetypes="ccccc"
         id="path7775"
         d="m -211.88663,283.51759 -11.41115,-165.29331 29.84336,-0.32651 43.72587,165.61982 -62.15808,0 z"
         style="fill:#008eff;fill-opacity:1;stroke:#008eff;stroke-width:17.38377953px;stroke-linecap:butt;stroke-linejoin:miter;stroke-opacity:1" />
      <path
         sodipodi:nodetypes="ccccccccc"
         id="path7773"
         d="m -485.52185,920.59582 c 8.66808,-216.68314 3.32872,-230.92086 3.32872,-230.92086 l 168.21131,-333.92049 115.8574,-77.77558 411.69607,0.002 140.62743,78.00415 182.01304,338.02425 8.66723,221.01546 -1030.4012,5.57136 z"
         style="fill:#008eff;fill-opacity:1;stroke:#008eff;stroke-width:17.18493652px;stroke-linecap:butt;stroke-linejoin:miter;stroke-opacity:1" />
      <path
         sodipodi:nodetypes="ccccc"
         id="path7775-7"
         d="m 214.38038,275.19321 11.41114,-165.29331 -29.84336,-0.32651 -43.72587,165.61982 62.15809,0 z"
         style="fill:#008eff;fill-opacity:1;stroke:#008eff;stroke-width:17.38377953px;stroke-linecap:butt;stroke-linejoin:miter;stroke-opacity:1" />
      <path
         transform="matrix(15.072034,0,0,15.072034,14769.976,19084.835)"
         d="m -964.83856,-1226.8743 c 0,7.7172 -6.25602,13.9732 -13.97321,13.9732 -7.71719,0 -13.97321,-6.256 -13.97321,-13.9732 0,-7.7172 6.25602,-13.9732 13.97321,-13.9732 7.71719,0 13.97321,6.256 13.97321,13.9732 z"
         sodipodi:ry="13.973208"
         sodipodi:rx="13.973208"
         sodipodi:cy="-1226.8743"
         sodipodi:cx="-978.81177"
         id="path3291"
         style="fill:#ffffff;fill-opacity:1;fill-rule:nonzero;stroke:none"
         sodipodi:type="arc" />
      <path
         transform="matrix(17.184936,0,0,17.184936,16878.424,21808.253)"
         d="m -978.44964,-1234.5061 c 0,1.4956 -1.21244,2.7081 -2.70807,2.7081 -1.49564,0 -2.70808,-1.2125 -2.70808,-2.7081 0,-1.4956 1.21244,-2.7081 2.70808,-2.7081 1.49563,0 2.70807,1.2125 2.70807,2.7081 z"
         sodipodi:ry="2.7080786"
         sodipodi:rx="2.7080786"
         sodipodi:cy="-1234.5061"
         sodipodi:cx="-981.15771"
         id="path3315"
         style="fill:#008eff;fill-opacity:1;fill-rule:nonzero;stroke:none"
         sodipodi:type="arc" />
      <path
         sodipodi:nodetypes="csaaasscssaasss"
         id="path7777-4-0"
         d="m -385.54652,346.25364 c -86.34275,2.99347 -145.21881,4.16343 -343.87933,9.30011 -70.0542,1.80375 -13.36442,-137.07099 16.76624,-196.44285 20.22521,-39.84889 61.00896,-69.996624 102.11402,-91.527568 95.48646,-50.007488 208.8693,-64.9928649 317.29983,-77.811659 228.274408,-26.986294 489.04314,-24.801836 689.99685,3.2695482 81.32389,11.3631503 142.44322,17.0483758 224.70952,67.9171748 29.77884,18.413455 64.00411,61.791684 79.49952,91.912904 26.25847,51.04422 96.35957,167.55545 34.0734,172.76191 -119.54153,9.99275 -188.91187,7.43314 -319.91092,6.17096 -57.03405,-0.55212 -16.74985,-111.08831 -52.83542,-152.39341 -17.20318,-19.68898 -44.72601,-30.97249 -71.00496,-37.44904 -185.24714,-45.665748 -419.49351,-42.291579 -575.02869,-1.14803 -29.07079,7.68818 -45.49911,13.20386 -59.71036,50.6968 -18.56107,48.96645 9.07979,152.97096 -42.08962,154.74659 z"
         style="fill:#008eff;fill-opacity:1;stroke:#008eff;stroke-width:14.74714279px;stroke-linecap:butt;stroke-linejoin:miter;stroke-opacity:1" />
      <path
         id="path7777-4"
         d="m 376.64049,259.1496 c 0.47792,12.57376 1.42386,25.08941 2.94541,35.92718 l 381.14255,-8.13029 c -1.72952,-10.81271 -5.52229,-22.96683 -10.56811,-35.76458 l -373.51985,7.96769 z"
         style="fill:#ffffff;fill-opacity:1;stroke:none" />
      <path
         id="path7777-9"
         d="m -763.36892,282.05292 c -2.89237,12.83645 -4.19746,24.90164 -4.16135,35.53905 l 415.64858,-8.86636 c 1.66254,-10.78021 2.16568,-22.89017 2.52228,-35.50408 l -414.00951,8.83139 z"
         style="fill:#ffffff;fill-opacity:1;stroke:none" />
    </g>
    <path
       style="fill:none;stroke:#ff0000;stroke-width:4;stroke-linecap:butt;stroke-linejoin:miter;stroke-opacity:1;stroke-miterlimit:4;stroke-dasharray:none"
       d="M 7.5331658,93.259799 93.173367,6.8266334"
       id="path5178"
       transform="translate(0,952.36218)" />
  </g>
</svg>
