<?xml version="1.0" encoding="UTF-8" standalone="no"?>
<!-- Created with Inkscape (http://www.inkscape.org/) -->

<svg
   xmlns:dc="http://purl.org/dc/elements/1.1/"
   xmlns:cc="http://creativecommons.org/ns#"
   xmlns:rdf="http://www.w3.org/1999/02/22-rdf-syntax-ns#"
   xmlns:svg="http://www.w3.org/2000/svg"
   xmlns="http://www.w3.org/2000/svg"
   xmlns:sodipodi="http://sodipodi.sourceforge.net/DTD/sodipodi-0.dtd"
   xmlns:inkscape="http://www.inkscape.org/namespaces/inkscape"
   width="100"
   height="100"
   id="svg2"
   inkscape:label="Pozadí"
   sodipodi:version="0.32"
   inkscape:version="0.47 r22583"
   sodipodi:docname="parking.svg"
   inkscape:output_extension="org.inkscape.output.svg.inkscape"
   version="1.1">
  <defs
     id="defs2963">
    <inkscape:perspective
       sodipodi:type="inkscape:persp3d"
       inkscape:vp_x="0 : 526.18109 : 1"
       inkscape:vp_y="0 : 1000 : 0"
       inkscape:vp_z="744.09448 : 526.18109 : 1"
       inkscape:persp3d-origin="372.04724 : 350.78739 : 1"
       id="perspective346" />
    <inkscape:perspective
       id="perspective4464"
       inkscape:persp3d-origin="0.5 : 0.33333333 : 1"
       inkscape:vp_z="1 : 0.5 : 1"
       inkscape:vp_y="0 : 1000 : 0"
       inkscape:vp_x="0 : 0.5 : 1"
       sodipodi:type="inkscape:persp3d" />
    <inkscape:perspective
       id="perspective4512"
       inkscape:persp3d-origin="0.5 : 0.33333333 : 1"
       inkscape:vp_z="1 : 0.5 : 1"
       inkscape:vp_y="0 : 1000 : 0"
       inkscape:vp_x="0 : 0.5 : 1"
       sodipodi:type="inkscape:persp3d" />
    <inkscape:perspective
       id="perspective4512-4"
       inkscape:persp3d-origin="0.5 : 0.33333333 : 1"
       inkscape:vp_z="1 : 0.5 : 1"
       inkscape:vp_y="0 : 1000 : 0"
       inkscape:vp_x="0 : 0.5 : 1"
       sodipodi:type="inkscape:persp3d" />
    <inkscape:perspective
       id="perspective4919"
       inkscape:persp3d-origin="0.5 : 0.33333333 : 1"
       inkscape:vp_z="1 : 0.5 : 1"
       inkscape:vp_y="0 : 1000 : 0"
       inkscape:vp_x="0 : 0.5 : 1"
       sodipodi:type="inkscape:persp3d" />
    <inkscape:perspective
       id="perspective3896"
       inkscape:persp3d-origin="0.5 : 0.33333333 : 1"
       inkscape:vp_z="1 : 0.5 : 1"
       inkscape:vp_y="0 : 1000 : 0"
       inkscape:vp_x="0 : 0.5 : 1"
       sodipodi:type="inkscape:persp3d" />
  </defs>
  <sodipodi:namedview
     id="base"
     pagecolor="#ffffff"
     bordercolor="#666666"
     borderopacity="1.0"
     inkscape:pageopacity="0.0"
     inkscape:pageshadow="2"
     inkscape:zoom="2.52218"
     inkscape:cx="26.879772"
     inkscape:cy="58.16736"
     inkscape:document-units="px"
     inkscape:current-layer="layer1"
     inkscape:window-width="1024"
     inkscape:window-height="549"
     inkscape:window-x="0"
     inkscape:window-y="0"
     showgrid="false"
     inkscape:window-maximized="1" />
  <metadata
     id="metadata2966">
    <rdf:RDF>
      <cc:Work
         rdf:about="">
        <dc:format>image/svg+xml</dc:format>
        <dc:type
           rdf:resource="http://purl.org/dc/dcmitype/StillImage" />
        <dc:title></dc:title>
      </cc:Work>
    </rdf:RDF>
  </metadata>
  <g
     inkscape:label="Vrstva 1"
     inkscape:groupmode="layer"
     id="layer1"
     transform="translate(0,-952.36218)">
    <rect
       style="fill:#ffffff;fill-opacity:1;stroke:#ffffff;stroke-width:1.99660146;stroke-linejoin:round;stroke-miterlimit:4;stroke-opacity:1;stroke-dasharray:none"
       id="rect4438-0-8"
       width="92.003395"
       height="92.003403"
       x="3.9550877"
       y="956.80017"
       rx="9.5836878"
       ry="9.5836878" />
    <rect
       style="fill:none;stroke:#008eff;stroke-width:4;stroke-linejoin:round;stroke-miterlimit:4;stroke-opacity:0.30000001;stroke-dasharray:none"
       id="rect4438"
       width="96"
       height="96"
       x="2.3964825"
       y="954.44861"
       rx="10"
       ry="10" />
    <rect
       style="fill:none;stroke:#008eff;stroke-width:5;stroke-linejoin:round;stroke-miterlimit:4;stroke-opacity:0.69999999999999996;stroke-dasharray:none"
       id="rect4438-57"
       width="92.159996"
       height="92.160004"
       x="3.8767693"
       y="955.92902"
       rx="9.5999994"
       ry="9.6000004" />
    <rect
       style="fill:none;stroke:#008eff;stroke-width:3.98613524;stroke-linejoin:round;stroke-miterlimit:4;stroke-opacity:0.3;stroke-dasharray:none"
       id="rect4438-5"
       width="88.013863"
       height="88.013863"
       x="5.7898545"
       y="958.55847"
       rx="9.1681108"
       ry="9.1681108" />
    <rect
       style="fill:none;stroke:#008eff;stroke-width:1.99660146;stroke-linejoin:round;stroke-miterlimit:4;stroke-opacity:1;stroke-dasharray:none"
       id="rect4438-0"
       width="92.003395"
       height="92.003403"
       x="4.2715678"
       y="956.08728"
       rx="9.5836878"
       ry="9.5836878" />
    <g
       transform="translate(12.676134,915.72595)"
       id="g3860">
      <path
         sodipodi:nodetypes="cccccccc"
         id="path2892"
         d="m 53.909064,84.283019 10.963062,-12.538246 1.778437,-0.73858 -0.33528,2.179332 -8.214398,9.890802 -4.693941,6.035065 -2.179331,-2.01169 2.681451,-2.816683 z"
         style="fill:#008eff;fill-opacity:0.39215686;fill-rule:evenodd;stroke:none" />
      <path
         sodipodi:nodetypes="cccssssssc"
         id="path2888"
         d="m 62.697936,104.39934 -2.612238,2.59532 c 1.726857,0.054 2.195251,-0.0649 3.035485,0.57819 0.485701,0.78926 0.828233,2.58215 0.289098,3.46912 -0.954517,1.57033 -3.460741,2.38515 -4.770051,3.90277 l -1.388184,3.75169 c 0.878608,0.12119 4.158317,-1.68812 5.580044,-3.1735 1.806485,-1.88738 2.664095,-4.79129 3.902767,-7.22735 0.206796,-0.4067 0.909642,-1.75262 0.55474,-1.90642 l -4.591661,-1.98982 z"
         style="fill:#008eff;fill-opacity:0.7;fill-rule:evenodd;stroke:none" />
      <path
         sodipodi:nodetypes="cscsccccc"
         id="path2890"
         d="M 38.928371,74.553786 18.685866,58.777322 c -3.184817,-2.482159 -7.43872,-3.473509 -10.5859255,-3.310539 1.0353244,1.695715 3.9934575,5.234257 6.0876475,7.049223 4.868729,4.219564 9.546193,7.312228 14.801111,11.054367 l 1.080115,-0.04315 0.312467,1.182537 4.937345,2.911766 3.609745,-3.067738 z"
         style="fill:#008eff;fill-opacity:0.7;fill-rule:evenodd;stroke:none" />
      <path
         sodipodi:nodetypes="csssssssss"
         id="path2908"
         d="m 66.309512,97.258339 c 0.959964,-0.399527 1.924456,-1.498991 2.777911,-0.960515 0.854792,0.539319 0.146862,2.655321 -0.137619,3.196983 -0.08717,0.165977 0.691693,-0.403644 0.712319,-0.27065 0.03525,0.227259 -0.21689,0.784173 -0.464353,0.933793 -0.204803,0.12383 -0.264964,0.44985 -0.892438,-0.11344 -0.350263,-0.314435 0.995084,-2.426237 0.266875,-3.108096 -0.287472,-0.269174 -1.846387,1.020665 -2.527952,1.130877 -0.406782,0.06578 -0.794314,-0.468034 -0.823662,-0.657279 -0.02652,-0.171008 0.714173,0.0043 1.088924,-0.151672 z"
         style="fill:#008eff;fill-opacity:1;fill-rule:evenodd;stroke:none" />
      <path
         id="path2912"
         d="m 69.400822,98.028759 -0.624827,0.202857 -0.446321,1.355132 0.595613,-0.08763 0.475535,-1.470361 z"
         style="fill:#abd9fe;fill-opacity:1;fill-rule:evenodd;stroke:none" />
      <path
         id="path2914"
         d="m 68.360594,96.871433 -0.615101,0.05967 -1.537766,0.81476 0.408537,0.08952 1.74433,-0.96394 z"
         style="fill:#abd9fe;fill-opacity:1;fill-rule:evenodd;stroke:none" />
      <path
         sodipodi:nodetypes="csssssssss"
         id="path2923"
         d="m 63.587378,94.981582 c 0.959964,-0.399527 1.924456,-1.498991 2.777911,-0.960515 0.854792,0.539319 0.146862,2.655321 -0.137619,3.196983 -0.08717,0.165977 0.691693,-0.403644 0.712319,-0.27065 0.03525,0.227259 -0.21689,0.784172 -0.464353,0.933792 -0.204803,0.123829 -0.264964,0.44985 -0.892438,-0.11344 -0.350263,-0.314434 0.995084,-2.426236 0.266875,-3.108095 -0.287472,-0.269174 -1.846387,1.020665 -2.527952,1.130877 -0.406782,0.06578 -0.794314,-0.468034 -0.823662,-0.657279 -0.02652,-0.171008 0.714173,0.0043 1.088924,-0.151672 z"
         style="fill:#008eff;fill-opacity:1;fill-rule:evenodd;stroke:none" />
      <path
         id="path2925"
         d="m 66.678688,95.752002 -0.624827,0.202857 -0.446321,1.355132 0.595613,-0.08763 0.475535,-1.470361 z"
         style="fill:#abd9fe;fill-opacity:1;fill-rule:evenodd;stroke:none" />
      <path
         id="path2927"
         d="m 65.63846,94.594676 -0.615101,0.05966 -1.537766,0.81476 0.408537,0.08952 1.74433,-0.96394 z"
         style="fill:#abd9fe;fill-opacity:1;fill-rule:evenodd;stroke:none" />
      <path
         sodipodi:nodetypes="csssssssss"
         id="path2931"
         d="m 60.802479,92.631554 c 0.959964,-0.399527 1.924456,-1.498991 2.777911,-0.960515 0.854792,0.539319 0.146862,2.655321 -0.137619,3.196983 -0.08717,0.165977 0.691693,-0.403644 0.712319,-0.27065 0.03525,0.227259 -0.21689,0.784172 -0.464353,0.933792 -0.204803,0.123829 -0.264964,0.44985 -0.892438,-0.11344 -0.350263,-0.314434 0.995084,-2.426236 0.266875,-3.108095 -0.287472,-0.269174 -1.846387,1.020665 -2.527952,1.130877 -0.406782,0.06578 -0.794314,-0.468034 -0.823662,-0.657279 -0.02652,-0.171008 0.714173,0.0043 1.088924,-0.151672 z"
         style="fill:#008eff;fill-opacity:1;fill-rule:evenodd;stroke:none" />
      <path
         id="path2933"
         d="m 63.893789,93.401974 -0.624827,0.202857 -0.446321,1.355132 0.595613,-0.08763 0.475535,-1.470361 z"
         style="fill:#abd9fe;fill-opacity:1;fill-rule:evenodd;stroke:none" />
      <path
         id="path2935"
         d="m 62.853561,92.244648 -0.615101,0.05966 -1.537766,0.81476 0.408537,0.08952 1.74433,-0.96394 z"
         style="fill:#abd9fe;fill-opacity:1;fill-rule:evenodd;stroke:none" />
      <path
         sodipodi:nodetypes="csssssssss"
         id="path2939"
         d="m 57.933188,90.352934 c 0.959964,-0.399527 1.924456,-1.498991 2.777911,-0.960515 0.854792,0.539319 0.146862,2.655321 -0.137619,3.196983 -0.08717,0.165977 0.691693,-0.403644 0.712319,-0.27065 0.03525,0.227259 -0.21689,0.784172 -0.464353,0.933792 -0.204803,0.123829 -0.264964,0.44985 -0.892438,-0.11344 -0.350263,-0.314434 0.995084,-2.426236 0.266875,-3.108095 -0.287472,-0.269174 -1.846387,1.020665 -2.527952,1.130877 -0.406782,0.06578 -0.794314,-0.468034 -0.823662,-0.657279 -0.02652,-0.171008 0.714173,0.0043 1.088924,-0.151672 z"
         style="fill:#008eff;fill-opacity:1;fill-rule:evenodd;stroke:none" />
      <path
         id="path2941"
         d="m 61.024498,91.123354 -0.624827,0.202857 -0.446321,1.355132 0.595613,-0.08763 0.475535,-1.470361 z"
         style="fill:#abd9fe;fill-opacity:1;fill-rule:evenodd;stroke:none" />
      <path
         id="path2943"
         d="m 59.98427,89.966028 -0.615101,0.05967 -1.537766,0.81476 0.408537,0.08952 1.74433,-0.96394 z"
         style="fill:#abd9fe;fill-opacity:1;fill-rule:evenodd;stroke:none" />
      <path
         sodipodi:nodetypes="cccccccccccccccccccccccccccccccccccccccc"
         id="path2963"
         d="m 1.8841665,95.059544 32.4682705,-19.961036 2.65305,5.306099 -6.316786,1.137019 -1.793981,2.042742 -1.080886,-0.481261 -0.234391,1.103606 -1.246051,-0.287357 -0.207355,1.058093 -1.095807,-0.321912 -0.320846,0.996268 -1.11813,-0.268266 -0.404215,1.03341 -0.982769,-0.300603 -0.305941,0.910988 -0.9906,-0.212793 -0.438824,1.037176 -1.024078,-0.245978 -0.472087,0.94154 -0.917606,-0.183523 -0.587814,0.933557 -1.054551,-0.04921 -0.44146,0.789914 -0.851089,-0.158235 -0.297973,0.795261 -0.973437,-0.140933 -0.356358,0.913541 -1.174267,-0.126336 -0.335216,0.809859 -0.994582,0.0081 -0.387058,0.698118 -0.9880369,0.02266 -0.4389023,0.66087 -0.8908938,0.0599 -0.5878898,0.749957 -1.010684,0.09714 -0.2607229,0.586382 -3.9083542,1.813998 0.8843489,-1.263358 -1.5160275,-0.505343 z"
         style="fill:#008eff;fill-opacity:0.7;fill-rule:evenodd;stroke:none" />
      <path
         id="path2967"
         d="m 53.495876,85.041769 2.951114,-3.19039 0.957116,0 0.87736,0.717838 -3.509432,4.466548 -1.276158,-1.993996 z"
         style="fill:#2fa3ff;fill-opacity:1;fill-rule:evenodd;stroke:none" />
      <path
         sodipodi:nodetypes="cssscccccsss"
         id="path3049"
         d="M 12.974834,106.58372 39.428141,88.181422 c 0.458028,-0.318629 -1.087134,-0.383381 -1.629371,-0.383381 -0.512063,0 -1.128743,0.04607 -1.533525,0.383381 l -1.725216,1.437682 -3.450431,2.971203 -2.779514,2.300287 -0.958455,0.191692 -4.888109,0.09585 -6.229947,5.367334 c -1.002076,0.86332 -1.77773,2.01703 -2.396134,3.16289 -0.467842,0.86689 -1.684047,3.4468 -0.862605,2.87536 z"
         style="fill:#008eff;fill-opacity:0.7;fill-rule:evenodd;stroke:none" />
      <path
         sodipodi:nodetypes="ccccccccccccccccccccccccccccccccccccccccccccccccscccscccccc"
         id="path3020"
         d="M 35.248014,77.539671 3.5664199,95.680187 2.9199364,96.555704 3.8238948,96.070976 6.2338481,94.904848 6.427744,94.466475 c 0.056964,-0.130247 0.1790752,-0.220223 0.3203499,-0.236047 l 0.8514559,-0.0843 0.4805248,-0.615409 c 0.069668,-0.08898 0.1738764,-0.144148 0.2866288,-0.151744 l 0.6912814,-0.04215 0.3287797,-0.497385 c 0.071708,-0.107524 0.1911581,-0.173533 0.3203502,-0.177035 l 0.7587233,-0.01686 0.269768,-0.505815 c 0.07188,-0.127377 0.207838,-0.205065 0.354071,-0.202327 l 0.725002,-0.0084 0.236047,-0.564827 c 0.06753,-0.164696 0.236212,-0.264527 0.413083,-0.244477 l 0.868317,0.09273 0.252908,-0.623838 c 0.06616,-0.174792 0.245025,-0.280004 0.429943,-0.252908 l 0.64913,0.09273 0.193896,-0.497385 c 0.07047,-0.178592 0.258397,-0.281417 0.446803,-0.244477 l 0.564828,0.109593 0.303489,-0.547967 c 0.07331,-0.130109 0.213279,-0.208231 0.362501,-0.202326 l 0.826166,0.04215 0.463664,-0.741863 c 0.08802,-0.138542 0.252055,-0.208847 0.413082,-0.177036 l 0.623839,0.126454 0.337211,-0.67442 c 0.08204,-0.165365 0.267016,-0.252619 0.446803,-0.210756 l 0.699712,0.177035 0.303489,-0.725002 c 0.07348,-0.175263 0.260615,-0.274126 0.446804,-0.236048 l 0.640699,0.134885 0.193896,-0.573258 c 0.06905,-0.205863 0.29036,-0.318394 0.497386,-0.252908 l 0.623839,0.185466 0.269768,-0.682851 c 0.0715,-0.186127 0.26969,-0.290627 0.463664,-0.244477 l 0.767154,0.185465 0.202326,-0.640699 c 0.06554,-0.204971 0.282121,-0.320731 0.488955,-0.261339 l 0.682851,0.202326 0.126454,-0.640699 c 0.02058,-0.106059 0.0834,-0.199192 0.174016,-0.258015 0.09062,-0.05882 0.201259,-0.07828 0.306508,-0.0539 l 0.843026,0.193896 0.151745,-0.708142 c 0.02584,-0.116108 0.102264,-0.214573 0.208329,-0.268422 0.106062,-0.05385 0.230652,-0.05743 0.339638,-0.0098 l 0.817735,0.362502 1.601749,-1.820936 c 0.05955,-0.06648 0.139713,-0.111016 0.227617,-0.126454 l 5.800018,-1.045357 -1.275753,-2.76397 z"
         style="fill:#008eff;fill-opacity:0.03921569;fill-rule:evenodd;stroke:none" />
      <path
         sodipodi:nodetypes="ccccccccccssscccccccc"
         id="path3047"
         d="m 30.897906,81.47225 -2.108595,3.450433 -1.821063,3.64212 -2.683668,0.958454 -1.054298,1.054298 -0.575072,1.533525 0.287534,2.012752 -0.09584,1.62937 -2.491979,4.025504 0.287536,2.108594 -4.217194,7.57178 c -0.501326,0.90012 1.956457,-0.8294 2.683669,-1.53352 1.28554,-1.24473 2.423743,-2.74753 3.354587,-4.31304 l 4.217193,-7.092555 -0.958454,-2.491977 -0.09584,-1.62937 8.14685,-8.913616 3.354587,-3.546277 -1.916905,-3.642122 -2.30029,0.766762 -2.012752,4.408885 z"
         style="fill:#008eff;fill-opacity:0.7;fill-rule:evenodd;stroke:none" />
      <path
         id="path2896"
         d="m 57.640407,81.825663 6.425978,-7.818279 1.392299,-1.178094 0.428398,0.321296 -7.711177,9.103477 -0.535498,-0.4284 z"
         style="fill:#008eff;fill-opacity:0.39215686;fill-rule:evenodd;stroke:none" />
      <path
         sodipodi:nodetypes="cccc"
         id="path2900"
         d="m 56.149393,81.722247 8.795726,-10.0379 -8.052917,9.942923 -0.742809,0.09498 z"
         style="fill:#008eff;fill-opacity:0.39215686;fill-rule:evenodd;stroke:none" />
      <path
         sodipodi:nodetypes="ccccc"
         id="path3011"
         d="m 30.057996,73.513344 2.848882,-3.636468 0.423615,0.335748 -3.110336,3.866135 -0.162161,-0.565415 z"
         style="opacity:0.234375;fill:#008eff;fill-opacity:1;fill-rule:evenodd;stroke:none" />
      <path
         transform="matrix(0.30343093,0,0,0.26976827,-76.069968,-22.232477)"
         d="m 333.25975,442.3334 c 0,1.76598 -1.35207,3.19759 -3.01994,3.19759 -1.66787,0 -3.01995,-1.43161 -3.01995,-3.19759 0,-1.76597 1.35208,-3.19758 3.01995,-3.19758 1.66787,0 3.01994,1.43161 3.01994,3.19758 z"
         sodipodi:ry="3.1975882"
         sodipodi:rx="3.0199444"
         sodipodi:cy="442.3334"
         sodipodi:cx="330.23981"
         id="path3051"
         style="opacity:0.946875;fill:#008eff;fill-opacity:1;fill-rule:nonzero;stroke:none"
         sodipodi:type="arc" />
      <rect
         ry="0.10947244"
         rx="0.37530375"
         y="96.233414"
         x="23.997044"
         height="1.7222635"
         width="0.28753597"
         id="rect3061"
         style="opacity:0.946875;fill:#008eff;fill-opacity:1;fill-rule:nonzero;stroke:none" />
      <path
         sodipodi:nodetypes="ccccccc"
         id="path2296"
         d="m 39.588065,74.042689 c 4.500587,2.948969 13.988348,10.393087 17.92362,13.658391 l -0.160049,3.480111 c 4.354986,3.796382 11.780902,9.335179 14.465481,11.647529 0.759294,3.46992 -5.132483,5.04005 -7.453058,3.16586 -6.136868,-4.13299 -25.266482,-20.324051 -30.683207,-25.145875 -2.340718,-3.5992 0.485761,-9.157443 5.907213,-6.806016 z"
         style="fill:#008eff;fill-opacity:1;fill-rule:evenodd;stroke:none" />
    </g>
  </g>
</svg>
