<?xml version="1.0" encoding="UTF-8" standalone="no"?>
<!-- Created with Inkscape (http://www.inkscape.org/) -->

<svg
   xmlns:dc="http://purl.org/dc/elements/1.1/"
   xmlns:cc="http://creativecommons.org/ns#"
   xmlns:rdf="http://www.w3.org/1999/02/22-rdf-syntax-ns#"
   xmlns:svg="http://www.w3.org/2000/svg"
   xmlns="http://www.w3.org/2000/svg"
   xmlns:sodipodi="http://sodipodi.sourceforge.net/DTD/sodipodi-0.dtd"
   xmlns:inkscape="http://www.inkscape.org/namespaces/inkscape"
   width="100"
   height="100"
   id="svg2"
   inkscape:label="Pozadí"
   sodipodi:version="0.32"
   inkscape:version="0.47 r22583"
   sodipodi:docname="247.svg"
   inkscape:output_extension="org.inkscape.output.svg.inkscape"
   version="1.1">
  <defs
     id="defs2963">
    <inkscape:perspective
       sodipodi:type="inkscape:persp3d"
       inkscape:vp_x="0 : 526.18109 : 1"
       inkscape:vp_y="0 : 1000 : 0"
       inkscape:vp_z="744.09448 : 526.18109 : 1"
       inkscape:persp3d-origin="372.04724 : 350.78739 : 1"
       id="perspective346" />
    <inkscape:perspective
       id="perspective4464"
       inkscape:persp3d-origin="0.5 : 0.33333333 : 1"
       inkscape:vp_z="1 : 0.5 : 1"
       inkscape:vp_y="0 : 1000 : 0"
       inkscape:vp_x="0 : 0.5 : 1"
       sodipodi:type="inkscape:persp3d" />
    <inkscape:perspective
       id="perspective4512"
       inkscape:persp3d-origin="0.5 : 0.33333333 : 1"
       inkscape:vp_z="1 : 0.5 : 1"
       inkscape:vp_y="0 : 1000 : 0"
       inkscape:vp_x="0 : 0.5 : 1"
       sodipodi:type="inkscape:persp3d" />
    <inkscape:perspective
       id="perspective4512-4"
       inkscape:persp3d-origin="0.5 : 0.33333333 : 1"
       inkscape:vp_z="1 : 0.5 : 1"
       inkscape:vp_y="0 : 1000 : 0"
       inkscape:vp_x="0 : 0.5 : 1"
       sodipodi:type="inkscape:persp3d" />
    <inkscape:perspective
       id="perspective4919"
       inkscape:persp3d-origin="0.5 : 0.33333333 : 1"
       inkscape:vp_z="1 : 0.5 : 1"
       inkscape:vp_y="0 : 1000 : 0"
       inkscape:vp_x="0 : 0.5 : 1"
       sodipodi:type="inkscape:persp3d" />
    <inkscape:perspective
       id="perspective2838"
       inkscape:persp3d-origin="0.5 : 0.33333333 : 1"
       inkscape:vp_z="1 : 0.5 : 1"
       inkscape:vp_y="0 : 1000 : 0"
       inkscape:vp_x="0 : 0.5 : 1"
       sodipodi:type="inkscape:persp3d" />
    <inkscape:perspective
       id="perspective3687"
       inkscape:persp3d-origin="0.5 : 0.33333333 : 1"
       inkscape:vp_z="1 : 0.5 : 1"
       inkscape:vp_y="0 : 1000 : 0"
       inkscape:vp_x="0 : 0.5 : 1"
       sodipodi:type="inkscape:persp3d" />
  </defs>
  <sodipodi:namedview
     id="base"
     pagecolor="#ffffff"
     bordercolor="#666666"
     borderopacity="1.0"
     inkscape:pageopacity="0.0"
     inkscape:pageshadow="2"
     inkscape:zoom="2.52218"
     inkscape:cx="39.06482"
     inkscape:cy="43.761424"
     inkscape:document-units="px"
     inkscape:current-layer="layer1"
     inkscape:window-width="1024"
     inkscape:window-height="549"
     inkscape:window-x="0"
     inkscape:window-y="0"
     showgrid="false"
     inkscape:window-maximized="1" />
  <metadata
     id="metadata2966">
    <rdf:RDF>
      <cc:Work
         rdf:about="">
        <dc:format>image/svg+xml</dc:format>
        <dc:type
           rdf:resource="http://purl.org/dc/dcmitype/StillImage" />
        <dc:title></dc:title>
      </cc:Work>
    </rdf:RDF>
  </metadata>
  <g
     inkscape:label="Vrstva 1"
     inkscape:groupmode="layer"
     id="layer1"
     transform="translate(0,-952.36218)">
    <rect
       style="fill:#ffffff;fill-opacity:1;stroke:#ffffff;stroke-width:1.99660146;stroke-linejoin:round;stroke-miterlimit:4;stroke-opacity:1;stroke-dasharray:none"
       id="rect4438-0-8"
       width="92.003395"
       height="92.003403"
       x="3.9550877"
       y="956.80017"
       rx="9.5836878"
       ry="9.5836878" />
    <rect
       style="fill:none;stroke:#008eff;stroke-width:4;stroke-linejoin:round;stroke-miterlimit:4;stroke-opacity:0.30000001;stroke-dasharray:none"
       id="rect4438"
       width="96"
       height="96"
       x="2.3964825"
       y="954.44861"
       rx="10"
       ry="10" />
    <rect
       style="fill:none;stroke:#008eff;stroke-width:5;stroke-linejoin:round;stroke-miterlimit:4;stroke-opacity:0.69999999999999996;stroke-dasharray:none"
       id="rect4438-57"
       width="92.159996"
       height="92.160004"
       x="3.8767693"
       y="955.92902"
       rx="9.5999994"
       ry="9.6000004" />
    <rect
       style="fill:none;stroke:#008eff;stroke-width:3.98613524;stroke-linejoin:round;stroke-miterlimit:4;stroke-opacity:0.3;stroke-dasharray:none"
       id="rect4438-5"
       width="88.013863"
       height="88.013863"
       x="5.7898545"
       y="958.55847"
       rx="9.1681108"
       ry="9.1681108" />
    <rect
       style="fill:none;stroke:#008eff;stroke-width:1.99660146;stroke-linejoin:round;stroke-miterlimit:4;stroke-opacity:1;stroke-dasharray:none"
       id="rect4438-0"
       width="92.003395"
       height="92.003403"
       x="4.2715678"
       y="956.08728"
       rx="9.5836878"
       ry="9.5836878" />
    <path
       sodipodi:nodetypes="ccscc"
       id="path2455"
       d="m 61.375943,995.46128 c 0,7.60822 -5.88974,10.33302 -11.73904,12.40302 -5.5043,-2.2425 -10.70405,-4.7948 -10.70405,-12.40302 0,-7.60821 5.63711,-16.96805 11.22154,-17.57791 6.07232,0.85381 11.22155,9.9697 11.22155,17.57791 z"
       style="fill:#008eff;fill-opacity:0.65;fill-rule:nonzero;stroke:none" />
    <path
       id="path2457"
       d="m 49.747153,981.39062 -0.20482,5.97808 -4.87302,-3.14806 -0.0324,0.12937 4.87842,3.84882 -0.14015,4.11297 -6.71118,-3.94586 -0.0377,0.16172 6.71117,4.80833 -0.14013,4.06445 -8.4146,-4.64123 -0.0485,0.18328 8.39843,5.65464 0.0269,-0.0431 -0.15632,4.53337 -9.25011,-4.95922 -0.0539,0.19945 9.26092,6.06427 -0.87866,25.7074 3.16962,0 -0.51749,-25.5726 9.12613,-5.97806 -0.0539,-0.19945 -9.0938,4.88381 -0.097,-4.70593 7.7785,-5.23957 -0.0485,-0.18328 -7.75695,4.28006 -0.0808,-4.12374 6.30151,-4.51185 -0.0377,-0.15633 -6.28534,3.68711 -0.0808,-4.10218 4.57653,-3.60625 -0.0323,-0.12398 -4.56038,2.94322 -0.11319,-5.75168 -0.52828,-0.24796 z"
       style="fill:#008eff;fill-opacity:1;fill-rule:nonzero;stroke:none" />
    <path
       style="fill:#008eff;fill-opacity:0.65;fill-rule:nonzero;stroke:none"
       d="m 38.919303,1004.4105 c 5.77191,4.9568 4.0019,11.2002 1.76141,16.9864 -5.28732,2.7148 -10.61131,4.9967 -16.38323,0.04 -5.77191,-4.9568 -9.20007,-15.3314 -6.02445,-19.9653 4.6039,-4.05046 14.87435,-2.01783 20.64627,2.939 z"
       id="path2461"
       sodipodi:nodetypes="ccscc" />
    <path
       sodipodi:nodetypes="cccccccccccccccccccccccccccccccccccccc"
       style="fill:#008eff;fill-opacity:1;fill-rule:nonzero;stroke:none"
       d="m 20.668463,1004.0655 4.40178,4.0501 -5.56306,1.6459 0.0771,0.1088 6.09821,-1.1934 3.02895,2.7859 -7.36587,2.5207 0.0981,0.134 8.02019,-1.9588 2.99216,2.7544 -9.0032,3.3599 0.10743,0.1562 9.76149,-2.6874 -0.0152,-0.048 3.33741,3.0721 -9.78883,3.7866 0.11618,0.1708 10.63421,-3.0748 11.84923,8.5673 0.72332,-3.0145 -11.31489,-6.8104 1.4105,-10.8182 -0.18641,-0.089 -2.21961,10.0808 -3.63333,-2.9924 1.09278,-9.3147 -0.17065,-0.083 -1.80666,8.6733 -3.18112,-2.6253 0.68258,-7.7201 -0.14318,-0.073 -1.29774,7.1705 -3.16476,-2.6113 0.24579,-5.8215 -0.11513,-0.056 -0.73826,5.3773 -4.43722,-3.6614 -0.5323,0.2392 z"
       id="path2463" />
    <path
       sodipodi:nodetypes="ccscc"
       id="path2467"
       d="m 60.201303,1004.7555 c -5.77192,4.9568 -4.00191,11.2002 -1.76141,16.9863 5.28731,2.7149 10.61131,4.9968 16.38322,0.04 5.77192,-4.9568 9.20008,-15.3313 6.02445,-19.9652 -4.60389,-4.05047 -14.87435,-2.01784 -20.64626,2.939 z"
       style="fill:#008eff;fill-opacity:0.65;fill-rule:nonzero;stroke:none" />
    <path
       sodipodi:nodetypes="cccccccccccccccccccccccccccccccccccccc"
       id="path2469"
       d="m 78.452143,1004.4104 -4.40179,4.0502 5.56306,1.6459 -0.0771,0.1088 -6.09821,-1.1934 -3.02896,2.7859 7.36587,2.5207 -0.0981,0.134 -8.02018,-1.9588 -2.99216,2.7544 9.00319,3.3598 -0.10742,0.1563 -9.7615,-2.6874 0.0152,-0.048 -3.3374,3.0721 9.78882,3.7866 -0.11618,0.1708 -10.6342,-3.0748 -11.0582,8.1631 -2.06502,-2.4046 11.86556,-7.0161 -1.41051,-10.8182 0.18642,-0.089 2.21961,10.0808 3.63332,-2.9924 -1.09277,-9.3147 0.17064,-0.083 1.80667,8.6733 3.18112,-2.6253 -0.68259,-7.7202 0.14318,-0.073 1.29774,7.1705 3.16476,-2.6112 -0.24578,-5.8215 0.11513,-0.056 0.73826,5.3772 4.43721,-3.6613 0.5323,0.2392 z"
       style="fill:#008eff;fill-opacity:1;fill-rule:nonzero;stroke:none" />
  </g>
</svg>
