<?xml version="1.0" encoding="UTF-8" standalone="no"?>
<!-- Created with Inkscape (http://www.inkscape.org/) -->

<svg
   xmlns:dc="http://purl.org/dc/elements/1.1/"
   xmlns:cc="http://creativecommons.org/ns#"
   xmlns:rdf="http://www.w3.org/1999/02/22-rdf-syntax-ns#"
   xmlns:svg="http://www.w3.org/2000/svg"
   xmlns="http://www.w3.org/2000/svg"
   xmlns:sodipodi="http://sodipodi.sourceforge.net/DTD/sodipodi-0.dtd"
   xmlns:inkscape="http://www.inkscape.org/namespaces/inkscape"
   width="100"
   height="100"
   id="svg2"
   inkscape:label="Pozadí"
   sodipodi:version="0.32"
   inkscape:version="0.47 r22583"
   sodipodi:docname="accessorparkingfee.svg"
   inkscape:output_extension="org.inkscape.output.svg.inkscape"
   version="1.1">
  <defs
     id="defs2963">
    <inkscape:perspective
       sodipodi:type="inkscape:persp3d"
       inkscape:vp_x="0 : 526.18109 : 1"
       inkscape:vp_y="0 : 1000 : 0"
       inkscape:vp_z="744.09448 : 526.18109 : 1"
       inkscape:persp3d-origin="372.04724 : 350.78739 : 1"
       id="perspective346" />
    <inkscape:perspective
       id="perspective4464"
       inkscape:persp3d-origin="0.5 : 0.33333333 : 1"
       inkscape:vp_z="1 : 0.5 : 1"
       inkscape:vp_y="0 : 1000 : 0"
       inkscape:vp_x="0 : 0.5 : 1"
       sodipodi:type="inkscape:persp3d" />
    <inkscape:perspective
       id="perspective4512"
       inkscape:persp3d-origin="0.5 : 0.33333333 : 1"
       inkscape:vp_z="1 : 0.5 : 1"
       inkscape:vp_y="0 : 1000 : 0"
       inkscape:vp_x="0 : 0.5 : 1"
       sodipodi:type="inkscape:persp3d" />
    <inkscape:perspective
       id="perspective4512-4"
       inkscape:persp3d-origin="0.5 : 0.33333333 : 1"
       inkscape:vp_z="1 : 0.5 : 1"
       inkscape:vp_y="0 : 1000 : 0"
       inkscape:vp_x="0 : 0.5 : 1"
       sodipodi:type="inkscape:persp3d" />
    <inkscape:perspective
       id="perspective4919"
       inkscape:persp3d-origin="0.5 : 0.33333333 : 1"
       inkscape:vp_z="1 : 0.5 : 1"
       inkscape:vp_y="0 : 1000 : 0"
       inkscape:vp_x="0 : 0.5 : 1"
       sodipodi:type="inkscape:persp3d" />
    <inkscape:perspective
       id="perspective3598"
       inkscape:persp3d-origin="0.5 : 0.33333333 : 1"
       inkscape:vp_z="1 : 0.5 : 1"
       inkscape:vp_y="0 : 1000 : 0"
       inkscape:vp_x="0 : 0.5 : 1"
       sodipodi:type="inkscape:persp3d" />
  </defs>
  <sodipodi:namedview
     id="base"
     pagecolor="#ffffff"
     bordercolor="#666666"
     borderopacity="1.0"
     inkscape:pageopacity="0.0"
     inkscape:pageshadow="2"
     inkscape:zoom="2.52218"
     inkscape:cx="34.814721"
     inkscape:cy="48.742556"
     inkscape:document-units="px"
     inkscape:current-layer="layer1"
     inkscape:window-width="1024"
     inkscape:window-height="549"
     inkscape:window-x="0"
     inkscape:window-y="0"
     showgrid="false"
     inkscape:window-maximized="1" />
  <metadata
     id="metadata2966">
    <rdf:RDF>
      <cc:Work
         rdf:about="">
        <dc:format>image/svg+xml</dc:format>
        <dc:type
           rdf:resource="http://purl.org/dc/dcmitype/StillImage" />
        <dc:title></dc:title>
      </cc:Work>
    </rdf:RDF>
  </metadata>
  <g
     inkscape:label="Vrstva 1"
     inkscape:groupmode="layer"
     id="layer1"
     transform="translate(0,-952.36218)">
    <rect
       style="fill:#ffffff;fill-opacity:1;stroke:#ffffff;stroke-width:1.99660146;stroke-linejoin:round;stroke-miterlimit:4;stroke-opacity:1;stroke-dasharray:none"
       id="rect4438-0-8"
       width="92.003395"
       height="92.003403"
       x="3.9550877"
       y="956.80017"
       rx="9.5836878"
       ry="9.5836878" />
    <rect
       style="fill:none;stroke:#008eff;stroke-width:4;stroke-linejoin:round;stroke-miterlimit:4;stroke-opacity:0.30000001;stroke-dasharray:none"
       id="rect4438"
       width="96"
       height="96"
       x="2.3964825"
       y="954.44861"
       rx="10"
       ry="10" />
    <rect
       style="fill:none;stroke:#008eff;stroke-width:5;stroke-linejoin:round;stroke-miterlimit:4;stroke-opacity:0.69999999999999996;stroke-dasharray:none"
       id="rect4438-57"
       width="92.159996"
       height="92.160004"
       x="3.8767693"
       y="955.92902"
       rx="9.5999994"
       ry="9.6000004" />
    <rect
       style="fill:none;stroke:#008eff;stroke-width:3.98613524;stroke-linejoin:round;stroke-miterlimit:4;stroke-opacity:0.3;stroke-dasharray:none"
       id="rect4438-5"
       width="88.013863"
       height="88.013863"
       x="5.7898545"
       y="958.55847"
       rx="9.1681108"
       ry="9.1681108" />
    <rect
       style="fill:none;stroke:#008eff;stroke-width:1.99660146;stroke-linejoin:round;stroke-miterlimit:4;stroke-opacity:1;stroke-dasharray:none"
       id="rect4438-0"
       width="92.003395"
       height="92.003403"
       x="4.2715678"
       y="956.08728"
       rx="9.5836878"
       ry="9.5836878" />
    <g
       id="g2854">
      <path
         id="path4760"
         style="fill:#008eff;fill-opacity:1;fill-rule:nonzero;stroke:none"
         d="m 82.14623,1019.1085 c -1.3273,0 -2.608297,-0.301 -3.734958,-0.8103 -1.165249,-0.5479 -2.477111,-0.8643 -3.827563,-0.8643 -1.373603,0 -2.685465,0.3164 -3.842991,0.8643 -1.149811,0.5093 -2.415381,0.8103 -3.742671,0.8103 -1.311872,0 -2.592869,-0.301 -3.719529,-0.8103 -1.16524,-0.5479 -2.469388,-0.8643 -3.842991,-0.8643 -1.358166,0 -2.670028,0.3164 -3.827563,0.8643 -1.149803,0.5093 -2.415372,0.8103 -3.742672,0.8103 -1.327299,0 -2.592859,-0.301 -3.719519,-0.8103 -1.157526,-0.5479 -2.469398,-0.8643 -3.843001,-0.8643 -1.373593,0 -2.670028,0.3164 -3.827553,0.8643 -1.149813,0.5093 -2.415376,0.8103 -3.742675,0.8103 -1.319582,0 -2.585147,-0.301 -3.711808,-0.8103 -1.17296,-0.5479 -2.469393,-0.8643 -3.842993,-0.8643 -1.373599,0 -2.670031,0.3164 -3.842993,0.8643 -1.134377,0.5093 -2.39994,0.8103 -3.727239,0.8103 l 0,-5.587 c 1.327299,0 2.592862,-0.3009 3.727239,-0.818 1.172962,-0.5248 2.469394,-0.8412 3.842993,-0.8412 1.3736,0 2.670033,0.3164 3.842993,0.8412 1.126661,0.5171 2.392226,0.818 3.711808,0.818 1.327299,0 2.592862,-0.3009 3.742675,-0.818 1.157525,-0.5248 2.45396,-0.8412 3.827553,-0.8412 1.373603,0 2.685475,0.3164 3.843001,0.8412 1.12666,0.5171 2.39222,0.818 3.719519,0.818 1.3273,0 2.592869,-0.3009 3.742672,-0.818 1.157535,-0.5248 2.469397,-0.8412 3.827563,-0.8412 1.373603,0 2.677751,0.3164 3.842991,0.8412 1.12666,0.5171 2.407657,0.818 3.719529,0.818 1.32729,0 2.59286,-0.3009 3.742671,-0.818 1.157526,-0.5248 2.469388,-0.8412 3.842991,-0.8412 1.350452,0 2.662314,0.3164 3.827563,0.8412 1.126661,0.5171 2.407658,0.818 3.734958,0.818 l 0,5.587 z" />
      <path
         id="path4762"
         style="fill:#008eff;fill-opacity:1;fill-rule:nonzero;stroke:none"
         d="m 66.928593,995.75726 10.996518,0.85658 -0.825711,-5.61788 -8.079538,-0.57876 c -2.183875,-0.10032 -1.867478,2.08355 -1.867478,2.08355 l -0.223791,3.25651 z" />
      <path
         id="path4764"
         style="fill:#008eff;fill-opacity:1;fill-rule:nonzero;stroke:none"
         d="m 46.517513,994.47626 c 2.021816,0 3.650075,-1.62826 3.650075,-3.65006 0,-2.02183 -1.628259,-3.65008 -3.650075,-3.65008 -2.021815,0 -3.650075,1.62825 -3.650075,3.65008 0,2.0218 1.62826,3.65006 3.650075,3.65006" />
      <path
         id="path4766"
         style="fill:#008eff;fill-opacity:1;fill-rule:nonzero;stroke:none"
         d="m 23.992018,1008.5287 c 0.470728,-0.1312 0.918305,-0.3164 1.342732,-0.5093 1.172962,-0.5479 2.469394,-0.8643 3.842993,-0.8643 1.3736,0 2.670033,0.3164 3.842993,0.8643 1.126661,0.5093 2.392226,0.8102 3.711808,0.8102 1.327299,0 2.592862,-0.3009 3.742675,-0.8102 1.157525,-0.5479 2.45396,-0.8643 3.827553,-0.8643 1.373603,0 2.685475,0.3164 3.843001,0.8643 1.12666,0.5093 2.39222,0.8102 3.719519,0.8102 1.3273,0 2.592869,-0.3009 3.742672,-0.8102 1.157535,-0.5479 2.469397,-0.8643 3.827563,-0.8643 1.373603,0 2.677751,0.3164 3.842991,0.8643 1.12666,0.5093 2.407657,0.8102 3.719529,0.8102 1.32729,0 2.59286,-0.3009 3.742671,-0.8102 1.157526,-0.5479 2.469388,-0.8643 3.842991,-0.8643 1.350452,0 2.662314,0.3164 3.827563,0.8643 1.126661,0.5093 2.39222,0.8102 3.71952,0.8102 l -1.234694,-9.97016 -45.74551,-3.82756 6.906587,-6.9606 -3.032727,-0.2701 -6.891149,6.97604 -14.98613,-1.23469 c -0.08488,5.10855 5.610152,13.59707 6.844849,14.98617" />
    </g>
  </g>
</svg>
