<?xml version="1.0" encoding="UTF-8" standalone="no"?>
<!-- Created with Inkscape (http://www.inkscape.org/) -->

<svg
   xmlns:dc="http://purl.org/dc/elements/1.1/"
   xmlns:cc="http://creativecommons.org/ns#"
   xmlns:rdf="http://www.w3.org/1999/02/22-rdf-syntax-ns#"
   xmlns:svg="http://www.w3.org/2000/svg"
   xmlns="http://www.w3.org/2000/svg"
   xmlns:sodipodi="http://sodipodi.sourceforge.net/DTD/sodipodi-0.dtd"
   xmlns:inkscape="http://www.inkscape.org/namespaces/inkscape"
   width="100"
   height="100"
   id="svg2"
   inkscape:label="Pozadí"
   sodipodi:version="0.32"
   inkscape:version="0.47 r22583"
   sodipodi:docname="hunting.svg"
   inkscape:output_extension="org.inkscape.output.svg.inkscape"
   version="1.1">
  <defs
     id="defs2963">
    <inkscape:perspective
       sodipodi:type="inkscape:persp3d"
       inkscape:vp_x="0 : 526.18109 : 1"
       inkscape:vp_y="0 : 1000 : 0"
       inkscape:vp_z="744.09448 : 526.18109 : 1"
       inkscape:persp3d-origin="372.04724 : 350.78739 : 1"
       id="perspective346" />
    <inkscape:perspective
       id="perspective4464"
       inkscape:persp3d-origin="0.5 : 0.33333333 : 1"
       inkscape:vp_z="1 : 0.5 : 1"
       inkscape:vp_y="0 : 1000 : 0"
       inkscape:vp_x="0 : 0.5 : 1"
       sodipodi:type="inkscape:persp3d" />
    <inkscape:perspective
       id="perspective4512"
       inkscape:persp3d-origin="0.5 : 0.33333333 : 1"
       inkscape:vp_z="1 : 0.5 : 1"
       inkscape:vp_y="0 : 1000 : 0"
       inkscape:vp_x="0 : 0.5 : 1"
       sodipodi:type="inkscape:persp3d" />
    <inkscape:perspective
       id="perspective4512-4"
       inkscape:persp3d-origin="0.5 : 0.33333333 : 1"
       inkscape:vp_z="1 : 0.5 : 1"
       inkscape:vp_y="0 : 1000 : 0"
       inkscape:vp_x="0 : 0.5 : 1"
       sodipodi:type="inkscape:persp3d" />
    <inkscape:perspective
       id="perspective4919"
       inkscape:persp3d-origin="0.5 : 0.33333333 : 1"
       inkscape:vp_z="1 : 0.5 : 1"
       inkscape:vp_y="0 : 1000 : 0"
       inkscape:vp_x="0 : 0.5 : 1"
       sodipodi:type="inkscape:persp3d" />
    <inkscape:perspective
       id="perspective3677"
       inkscape:persp3d-origin="0.5 : 0.33333333 : 1"
       inkscape:vp_z="1 : 0.5 : 1"
       inkscape:vp_y="0 : 1000 : 0"
       inkscape:vp_x="0 : 0.5 : 1"
       sodipodi:type="inkscape:persp3d" />
    <inkscape:perspective
       id="perspective3637"
       inkscape:persp3d-origin="0.5 : 0.33333333 : 1"
       inkscape:vp_z="1 : 0.5 : 1"
       inkscape:vp_y="0 : 1000 : 0"
       inkscape:vp_x="0 : 0.5 : 1"
       sodipodi:type="inkscape:persp3d" />
    <inkscape:perspective
       id="perspective3615"
       inkscape:persp3d-origin="0.5 : 0.33333333 : 1"
       inkscape:vp_z="1 : 0.5 : 1"
       inkscape:vp_y="0 : 1000 : 0"
       inkscape:vp_x="0 : 0.5 : 1"
       sodipodi:type="inkscape:persp3d" />
    <inkscape:perspective
       id="perspective3682"
       inkscape:persp3d-origin="0.5 : 0.33333333 : 1"
       inkscape:vp_z="1 : 0.5 : 1"
       inkscape:vp_y="0 : 1000 : 0"
       inkscape:vp_x="0 : 0.5 : 1"
       sodipodi:type="inkscape:persp3d" />
  </defs>
  <sodipodi:namedview
     id="base"
     pagecolor="#ffffff"
     bordercolor="#666666"
     borderopacity="1.0"
     inkscape:pageopacity="0.0"
     inkscape:pageshadow="2"
     inkscape:zoom="2.52218"
     inkscape:cx="24.332962"
     inkscape:cy="51.954652"
     inkscape:document-units="px"
     inkscape:current-layer="layer1"
     inkscape:window-width="1024"
     inkscape:window-height="549"
     inkscape:window-x="0"
     inkscape:window-y="0"
     showgrid="false"
     inkscape:window-maximized="1" />
  <metadata
     id="metadata2966">
    <rdf:RDF>
      <cc:Work
         rdf:about="">
        <dc:format>image/svg+xml</dc:format>
        <dc:type
           rdf:resource="http://purl.org/dc/dcmitype/StillImage" />
        <dc:title />
      </cc:Work>
    </rdf:RDF>
  </metadata>
  <g
     inkscape:label="Vrstva 1"
     inkscape:groupmode="layer"
     id="layer1"
     transform="translate(0,-952.36218)">
    <rect
       style="fill:#ffffff;fill-opacity:1;stroke:#ffffff;stroke-width:1.99660146;stroke-linejoin:round;stroke-miterlimit:4;stroke-opacity:1;stroke-dasharray:none"
       id="rect4438-0-8"
       width="92.003395"
       height="92.003403"
       x="3.9550877"
       y="956.80017"
       rx="9.5836878"
       ry="9.5836878" />
    <rect
       style="fill:none;stroke:#008eff;stroke-width:4;stroke-linejoin:round;stroke-miterlimit:4;stroke-opacity:0.30000001;stroke-dasharray:none"
       id="rect4438"
       width="96"
       height="96"
       x="2.3964825"
       y="954.44861"
       rx="10"
       ry="10" />
    <rect
       style="fill:none;stroke:#008eff;stroke-width:5;stroke-linejoin:round;stroke-miterlimit:4;stroke-opacity:0.69999999999999996;stroke-dasharray:none"
       id="rect4438-57"
       width="92.159996"
       height="92.160004"
       x="3.8767693"
       y="955.92902"
       rx="9.5999994"
       ry="9.6000004" />
    <rect
       style="fill:none;stroke:#008eff;stroke-width:3.98613524;stroke-linejoin:round;stroke-miterlimit:4;stroke-opacity:0.3;stroke-dasharray:none"
       id="rect4438-5"
       width="88.013863"
       height="88.013863"
       x="5.7898545"
       y="958.55847"
       rx="9.1681108"
       ry="9.1681108" />
    <rect
       style="fill:none;stroke:#008eff;stroke-width:1.99660146;stroke-linejoin:round;stroke-miterlimit:4;stroke-opacity:1;stroke-dasharray:none"
       id="rect4438-0"
       width="92.003395"
       height="92.003403"
       x="4.2715678"
       y="956.08728"
       rx="9.5836878"
       ry="9.5836878" />
    <g
       id="g2840"
       transform="translate(-0.39648241,-1.1894472)">
      <g
         style="fill:#008eff;fill-opacity:1"
         transform="matrix(0.33168789,0,0,0.33168789,30.706028,975.3615)"
         id="Original">
        <path
           style="fill:#008eff;fill-opacity:1"
           id="path7"
           d="m 39.88,31.658 c -4.248,0 -8.482,-0.654 -12.009,1.162 -2.856,1.47 -8.263,1.338 -11.574,1.338 -1.575,0 1.458,3.56 1.412,4.764 -0.131,3.474 6.903,4.228 9.046,5.136 3.307,1.402 1.927,3.643 2.208,6.516 0.752,7.669 -2.076,13.171 -4.781,20.015 -0.817,2.068 -2.41,4.971 -2.21,7.277 0.361,4.163 -6.169,-0.659 -8.078,-1.331 -2.917,-1.027 -8.387,-2.464 -11.47,-1.204 -3.956,1.616 -2.348,5.16 -0.255,7.475 4.001,4.428 0.534,7.907 1.726,12.557 0.426,1.663 7.787,9.32 8.963,8.305 3.848,-3.321 -1.394,-4.976 -2.753,-7.504 C 9.487,95.015 8.616,83.742 8.866,83.759 c 1.152,0.078 3.725,2.108 4.805,2.633 3.218,1.562 6.395,3.238 9.292,5.349 6.193,2.729 12.58,5.224 19.139,6.935 8.983,2.344 17.305,3.327 25.907,7.329 4.911,2.284 4.041,7.277 7.735,10.999 3.678,3.705 8.989,6.049 13.234,9.049 3.424,2.42 6.444,6.255 8.356,9.945 2.217,4.281 1.737,10.006 2.504,14.676 0.531,3.236 4.54,5.647 6.464,8.185 4.169,5.496 3.558,-3.747 1.861,-4.447 -3.193,-1.318 -4.172,-7.787 -4.351,-10.973 -0.287,-5.103 1.756,-9.108 -1.894,-13.093 -6.814,-7.439 -12.43,-16.164 -7.207,-26.604 2.178,-4.354 -3.52,-8.245 2.229,-9.374 2.611,-0.512 5.55,-10e-4 7.386,-2.334 2.313,-2.939 0.737,-6.691 -1.383,-9.236 -0.257,-0.381 -0.584,-0.677 -0.981,-0.889 0.369,0 -0.039,5.071 -0.981,5.719 -2.113,1.454 -5.412,3.958 -8.101,4.044 -2.311,0.073 -6.142,-2.488 -7.668,-4.014 -1.12,-1.12 -5.036,-1.501 -6.614,-1.828 C 74.737,85.031 71.741,84.326 68.012,82.806 63.318,80.893 58.687,78.672 54.555,75.71 44.573,68.555 42.755,56.146 44.022,44.495 c 0.273,-2.508 -0.853,-6.438 0.595,-8.58 0.344,-0.509 1.903,-0.362 2.502,-0.891 0.763,-0.674 2.455,-3.202 2.759,-4.232 1.248,-4.223 -5.518,1.21 -4.542,1.146 -1.475,0.098 1.675,-9.004 1.855,-9.364 0.364,-0.728 5.298,-9.451 2.32,-9.352 -1.868,0.062 -0.948,5.445 -3.157,5.005 C 43.964,17.751 40.522,11.396 41.566,9.011 43.4,4.819 39.743,3.905 39.214,7.564 39.112,8.269 40.893,13.438 38.159,12.665 35.335,11.866 35.748,-0.125 34.38,0 31.991,0.219 34.074,10.836 33.361,12.176 33.144,12.584 29.68,8.66 29.459,7.718 28.48,3.558 28.031,5.106 26.87,7.752 c -1.537,3.502 10.289,9.671 12.422,10.911 1.701,0.988 3.098,1.841 3.681,3.817 0.509,1.725 1.125,4.088 -0.047,5.711 -0.834,1.155 -3.046,1.791 -3.046,3.467" />
      </g>
      <path
         transform="matrix(0.91141146,0,0,0.91141146,22.402273,927.25078)"
         d="m 65.327185,83.700455 c 0,19.542905 -15.842655,35.385555 -35.385559,35.385555 -19.542905,0 -35.3855595,-15.84265 -35.3855595,-35.385555 0,-19.542905 15.8426545,-35.385559 35.3855595,-35.385559 19.542904,0 35.385559,15.842654 35.385559,35.385559 z"
         sodipodi:ry="35.385559"
         sodipodi:rx="35.385559"
         sodipodi:cy="83.700455"
         sodipodi:cx="29.941626"
         id="path2819"
         style="fill:none;stroke:#008eff;stroke-width:2.30064988;stroke-linejoin:round;stroke-miterlimit:4;stroke-opacity:0.5;stroke-dasharray:none"
         sodipodi:type="arc" />
      <path
         sodipodi:nodetypes="cc"
         id="path2825"
         d="m 11.730356,1003.3982 36.131567,0"
         style="fill:none;stroke:#008eff;stroke-width:1.04841924px;stroke-linecap:butt;stroke-linejoin:miter;stroke-opacity:0.5" />
      <path
         sodipodi:nodetypes="cc"
         id="path2825-0"
         d="m 52.251742,1003.3982 36.131566,0"
         style="fill:none;stroke:#008eff;stroke-width:1.04841924px;stroke-linecap:butt;stroke-linejoin:miter;stroke-opacity:0.5" />
      <path
         sodipodi:nodetypes="cc"
         id="path2825-0-9"
         d="m 49.719154,965.39168 0,36.13142"
         style="fill:none;stroke:#008eff;stroke-width:1.04841924px;stroke-linecap:butt;stroke-linejoin:miter;stroke-opacity:0.5" />
      <path
         sodipodi:nodetypes="cc"
         id="path2825-0-9-4"
         d="m 49.701463,1005.7625 0,36.1315"
         style="fill:none;stroke:#008eff;stroke-width:1.04841924px;stroke-linecap:butt;stroke-linejoin:miter;stroke-opacity:0.5" />
    </g>
  </g>
</svg>
