<?xml version="1.0" encoding="UTF-8" standalone="no"?>
<!-- Created with Inkscape (http://www.inkscape.org/) -->

<svg
   xmlns:i="http://ns.adobe.com/AdobeIllustrator/10.0/"
   xmlns:dc="http://purl.org/dc/elements/1.1/"
   xmlns:cc="http://creativecommons.org/ns#"
   xmlns:rdf="http://www.w3.org/1999/02/22-rdf-syntax-ns#"
   xmlns:svg="http://www.w3.org/2000/svg"
   xmlns="http://www.w3.org/2000/svg"
   xmlns:sodipodi="http://sodipodi.sourceforge.net/DTD/sodipodi-0.dtd"
   xmlns:inkscape="http://www.inkscape.org/namespaces/inkscape"
   width="100"
   height="100"
   id="svg2"
   inkscape:label="Pozadí"
   sodipodi:version="0.32"
   inkscape:version="0.47 r22583"
   sodipodi:docname="parkandgrab.svg"
   inkscape:output_extension="org.inkscape.output.svg.inkscape"
   version="1.1">
  <defs
     id="defs2963">
    <inkscape:perspective
       sodipodi:type="inkscape:persp3d"
       inkscape:vp_x="0 : 526.18109 : 1"
       inkscape:vp_y="0 : 1000 : 0"
       inkscape:vp_z="744.09448 : 526.18109 : 1"
       inkscape:persp3d-origin="372.04724 : 350.78739 : 1"
       id="perspective346" />
    <inkscape:perspective
       id="perspective4464"
       inkscape:persp3d-origin="0.5 : 0.33333333 : 1"
       inkscape:vp_z="1 : 0.5 : 1"
       inkscape:vp_y="0 : 1000 : 0"
       inkscape:vp_x="0 : 0.5 : 1"
       sodipodi:type="inkscape:persp3d" />
    <inkscape:perspective
       id="perspective4512"
       inkscape:persp3d-origin="0.5 : 0.33333333 : 1"
       inkscape:vp_z="1 : 0.5 : 1"
       inkscape:vp_y="0 : 1000 : 0"
       inkscape:vp_x="0 : 0.5 : 1"
       sodipodi:type="inkscape:persp3d" />
    <inkscape:perspective
       id="perspective4512-4"
       inkscape:persp3d-origin="0.5 : 0.33333333 : 1"
       inkscape:vp_z="1 : 0.5 : 1"
       inkscape:vp_y="0 : 1000 : 0"
       inkscape:vp_x="0 : 0.5 : 1"
       sodipodi:type="inkscape:persp3d" />
    <inkscape:perspective
       id="perspective4919"
       inkscape:persp3d-origin="0.5 : 0.33333333 : 1"
       inkscape:vp_z="1 : 0.5 : 1"
       inkscape:vp_y="0 : 1000 : 0"
       inkscape:vp_x="0 : 0.5 : 1"
       sodipodi:type="inkscape:persp3d" />
    <inkscape:perspective
       id="perspective3677"
       inkscape:persp3d-origin="0.5 : 0.33333333 : 1"
       inkscape:vp_z="1 : 0.5 : 1"
       inkscape:vp_y="0 : 1000 : 0"
       inkscape:vp_x="0 : 0.5 : 1"
       sodipodi:type="inkscape:persp3d" />
    <inkscape:perspective
       id="perspective3637"
       inkscape:persp3d-origin="0.5 : 0.33333333 : 1"
       inkscape:vp_z="1 : 0.5 : 1"
       inkscape:vp_y="0 : 1000 : 0"
       inkscape:vp_x="0 : 0.5 : 1"
       sodipodi:type="inkscape:persp3d" />
    <inkscape:perspective
       id="perspective3615"
       inkscape:persp3d-origin="0.5 : 0.33333333 : 1"
       inkscape:vp_z="1 : 0.5 : 1"
       inkscape:vp_y="0 : 1000 : 0"
       inkscape:vp_x="0 : 0.5 : 1"
       sodipodi:type="inkscape:persp3d" />
    <inkscape:perspective
       id="perspective3767"
       inkscape:persp3d-origin="0.5 : 0.33333333 : 1"
       inkscape:vp_z="1 : 0.5 : 1"
       inkscape:vp_y="0 : 1000 : 0"
       inkscape:vp_x="0 : 0.5 : 1"
       sodipodi:type="inkscape:persp3d" />
  </defs>
  <sodipodi:namedview
     id="base"
     pagecolor="#ffffff"
     bordercolor="#666666"
     borderopacity="1.0"
     inkscape:pageopacity="0.0"
     inkscape:pageshadow="2"
     inkscape:zoom="2.52218"
     inkscape:cx="18.293391"
     inkscape:cy="55.863955"
     inkscape:document-units="px"
     inkscape:current-layer="layer1"
     inkscape:window-width="1024"
     inkscape:window-height="549"
     inkscape:window-x="0"
     inkscape:window-y="0"
     showgrid="false"
     inkscape:window-maximized="1" />
  <metadata
     id="metadata2966">
    <rdf:RDF>
      <cc:Work
         rdf:about="">
        <dc:format>image/svg+xml</dc:format>
        <dc:type
           rdf:resource="http://purl.org/dc/dcmitype/StillImage" />
        <dc:title />
      </cc:Work>
    </rdf:RDF>
  </metadata>
  <g
     inkscape:label="Vrstva 1"
     inkscape:groupmode="layer"
     id="layer1"
     transform="translate(0,-952.36218)">
    <rect
       style="fill:#ffffff;fill-opacity:1;stroke:#ffffff;stroke-width:1.99660146;stroke-linejoin:round;stroke-miterlimit:4;stroke-opacity:1;stroke-dasharray:none"
       id="rect4438-0-8"
       width="92.003395"
       height="92.003403"
       x="3.9550877"
       y="956.80017"
       rx="9.5836878"
       ry="9.5836878" />
    <rect
       style="fill:none;stroke:#008eff;stroke-width:4;stroke-linejoin:round;stroke-miterlimit:4;stroke-opacity:0.30000001;stroke-dasharray:none"
       id="rect4438"
       width="96"
       height="96"
       x="2.3964825"
       y="954.44861"
       rx="10"
       ry="10" />
    <rect
       style="fill:none;stroke:#008eff;stroke-width:5;stroke-linejoin:round;stroke-miterlimit:4;stroke-opacity:0.69999999999999996;stroke-dasharray:none"
       id="rect4438-57"
       width="92.159996"
       height="92.160004"
       x="3.8767693"
       y="955.92902"
       rx="9.5999994"
       ry="9.6000004" />
    <rect
       style="fill:none;stroke:#008eff;stroke-width:3.98613524;stroke-linejoin:round;stroke-miterlimit:4;stroke-opacity:0.3;stroke-dasharray:none"
       id="rect4438-5"
       width="88.013863"
       height="88.013863"
       x="5.7898545"
       y="958.55847"
       rx="9.1681108"
       ry="9.1681108" />
    <rect
       style="fill:none;stroke:#008eff;stroke-width:1.99660146;stroke-linejoin:round;stroke-miterlimit:4;stroke-opacity:1;stroke-dasharray:none"
       id="rect4438-0"
       width="92.003395"
       height="92.003403"
       x="4.2715678"
       y="956.08728"
       rx="9.5836878"
       ry="9.5836878" />
    <g
       id="g3798">
      <path
         style="fill:#008eff;fill-opacity:0.49019607999999998;fill-rule:evenodd;stroke:#008eff;stroke-opacity:1;stroke-width:0.7;stroke-miterlimit:4;stroke-dasharray:none"
         id="path9"
         i:knockout="Off"
         d="m 83.878354,997.33384 c 0.03967,0.2223 0.0123,0.3837 -0.0823,0.50849 -0.100499,0.1185 -0.264852,0.1857 -0.505424,0.21315 -0.0123,0.80399 -0.03054,1.60183 -0.05481,2.42712 -0.03654,0.816 -0.04872,0.5968 -0.106588,2.4787 -0.05785,1.9063 -0.167488,6.5077 -0.213167,8.7642 -0.05481,2.2322 -0.04576,2.5337 -0.07935,4.5343 -0.0456,2.0039 -0.109543,5.85 -0.133993,7.3451 -0.02131,1.4558 -0.0062,0.8345 0,1.4375 -0.009,0.5998 0.06099,1.7204 -0.02428,2.1865 -0.08527,0.4599 -0.149218,0.3775 -0.508555,0.5877 -0.386744,0.21 -1.187726,0.4476 -1.732737,0.6669 -0.545013,0.207 -0.654726,0.2497 -1.49225,0.5877 -0.858755,0.338 -2.326558,0.8983 -3.547612,1.3856 -1.218093,0.4689 -1.964259,0.7766 -3.706133,1.4403 -1.76615,0.6639 -4.643981,1.687 -6.717783,2.5063 -2.070675,0.807 -4.388097,1.8272 -5.600184,2.3205 -1.212003,0.478 -1.096284,0.5359 -1.626155,0.5602 -0.539007,0 -0.950113,-0.1948 -1.574385,-0.4263 -0.6395,-0.2344 -1.41908,-0.5938 -2.186478,-0.9136 -0.770444,-0.3258 -1.36731,-0.5877 -2.399643,-0.9865 -1.053652,-0.4082 -2.749847,-1.0629 -3.785225,-1.413 -1.032334,-0.3443 -1.814959,-0.5116 -2.347875,-0.667 -0.542052,-0.1674 -0.669952,-0.2009 -0.852666,-0.3471 -0.182714,-0.1613 -0.20403,-0.2711 -0.240573,-0.5877 -0.05481,-0.329 -0.03654,-0.5664 -0.05176,-1.3338 -0.02436,-0.7827 -0.03045,-1.0781 -0.05481,-3.2707 -0.03654,-2.2228 -0.04872,-7.0741 -0.106589,-9.8664 -0.04872,-2.7895 -0.185759,-4.9516 -0.213166,-6.7453 -0.04567,-1.7967 -0.04567,-3.0849 -0.02436,-3.9466 -0.26189,0.015 -0.444604,-0.051 -0.560323,-0.2131 -0.118769,-0.1646 -0.100499,-0.3473 -0.133993,-0.7461 -0.04263,-0.4082 -0.05785,-0.9593 -0.07918,-1.6536 -0.02132,-0.7096 -0.03045,-1.5348 -0.02741,-2.5336 -0.07308,-0.1554 -0.149218,-0.2619 -0.240574,-0.3198 -0.09135,-0.064 -0.19794,-0.079 -0.307568,-0.047 -0.109633,-0.2162 -0.121813,-0.4293 -0.02436,-0.606 0.09136,-0.1857 -0.08221,-0.2649 0.584685,-0.4963 0.660816,-0.2375 1.382537,-0.33799 3.386299,-0.91054 2.006809,-0.58769 5.295661,-1.58352 8.563197,-2.55191 3.270579,-0.97754 8.465663,-2.53662 10.886708,-3.24626 2.390508,-0.71564 2.634042,-0.80699 3.40753,-0.98968 0.761308,-0.1857 0.32584,-0.24975 1.135873,-0.0975 0.803941,0.1485 2.405818,0.65459 3.654364,0.98654 1.23941,0.31979 2.518323,0.62129 3.754688,0.94108 1.221307,0.31665 2.649352,0.68819 3.556916,0.93794 0.90435,0.2313 1.376362,0.34094 1.82714,0.49319 0.435468,0.1395 0.691269,0.1305 0.791676,0.396 0.09762,0.26789 0.02461,0.66689 -0.206822,1.20898 z"
         clip-rule="evenodd" />
      <path
         style="fill:#008eff;fill-opacity:1;fill-rule:evenodd"
         id="path11"
         i:knockout="Off"
         d="m 68.8684,992.7355 c -0.0091,-0.045 0,0.0795 0.08526,0.1275 0.07003,0.0495 0.02741,0.0525 0.365428,0.15 0.33802,0.0855 0.919576,0.198 1.662697,0.38369 0.745913,0.1767 1.747964,0.4203 2.73462,0.6822 0.971259,0.24974 2.052486,0.56339 3.054284,0.83443 0.986655,0.2679 2.092075,0.56325 2.859389,0.76739 0.752257,0.19785 1.291348,0.31365 1.687144,0.405 0.389705,0.0825 0.319664,0.1065 0.682132,0.0855 0.362298,-0.036 1.233319,-0.25875 1.473892,-0.25575 0.23127,-0.015 0.152178,0.17355 -0.08526,0.25575 -0.255884,0.0855 -0.852664,0.23444 -1.367309,0.23759 -0.511683,-0.015 -0.679171,-0.051 -1.665828,-0.28019 -1.010932,-0.2406 -2.975192,-0.78569 -4.248015,-1.12979 -1.275953,-0.35624 -2.332648,-0.68519 -3.288936,-0.94093 -0.962209,-0.24975 -1.750924,-0.42645 -2.390508,-0.57555 -0.639583,-0.15839 -1.148052,-0.27104 -1.409943,-0.38369 -0.261721,-0.1305 -0.142873,-0.32595 -0.149053,-0.3624 z"
         clip-rule="evenodd" />
      <path
         style="fill:#008eff;fill-opacity:1;fill-rule:evenodd"
         id="path13"
         i:knockout="Off"
         d="m 68.655318,995.55846 c 0.213166,0.039 0.426249,0.0855 0.685178,0.1485 0.246663,0.0555 0.520735,0.2193 0.810031,0.21315 0.274072,-0.015 0.487238,-0.15825 0.89826,-0.27705 0.420327,-0.12449 1.23628,-0.43844 1.577431,-0.44759 0.319665,-0.015 0.441643,0.0945 0.365428,0.34095 0.27407,-0.0705 0.426247,-0.0915 0.468881,-0.0645 0.04263,0.015 0.07003,0.0675 -0.234399,0.21314 -0.328969,0.1395 -1.16624,0.4812 -1.665658,0.66089 -0.496457,0.17355 -0.907564,0.3471 -1.282043,0.405 -0.392919,0.051 -0.782624,-0.027 -1.005011,-0.0855 -0.222218,-0.0705 -0.344112,-0.25575 -0.319665,-0.29835 0.02131,-0.045 0.234398,-0.015 0.429378,0.021 0.179585,0.024 0.26189,0.2223 0.682132,0.15 0.420158,-0.0885 1.35809,-0.46289 1.814874,-0.61829 0.447734,-0.15225 0.727811,-0.25575 0.852665,-0.29835 0.03654,-0.10049 0.009,-0.16139 -0.106588,-0.17054 -0.121724,-0.024 -0.231438,-0.015 -0.575634,0.0855 -0.362299,0.10049 -1.141963,0.40814 -1.516526,0.51164 -0.377525,0.0825 -0.462961,0.0915 -0.703449,0.0645 -0.25876,-0.03 -0.523696,-0.1395 -0.77036,-0.21315 -0.246664,-0.0795 -0.615051,-0.204 -0.682132,-0.25575 -0.07308,-0.0615 0.02741,-0.0855 0.277201,-0.0855 z"
         clip-rule="evenodd" />
      <path
         style="fill:#8dc9f9;fill-opacity:1;fill-rule:evenodd"
         id="path15"
         i:knockout="Off"
         d="m 68.697952,995.55846 c -0.0062,0.021 0.307483,0.045 0.493328,0.1065 0.179583,0.0555 0.353246,0.19185 0.554148,0.23445 0.191849,0.033 0.304522,0.0615 0.596949,0 0.286168,-0.0765 0.77036,-0.27105 1.111595,-0.38369 0.340981,-0.1125 0.730772,-0.21315 0.873982,-0.27705 0.121724,-0.0675 0.05464,-0.1644 -0.106753,-0.1275 -0.170534,0.03 -0.548058,0.17355 -0.873983,0.2985 -0.33193,0.1125 -0.855626,0.32279 -1.090108,0.38369 -0.237614,0.0495 -0.182714,-0.027 -0.341151,-0.0645 -0.179585,-0.048 -0.450694,-0.1674 -0.660732,-0.19184 -0.210206,-0.03 -0.548226,0 -0.557277,0.021 z"
         clip-rule="evenodd" />
      <path
         style="fill:#008eff;fill-opacity:1;fill-rule:evenodd"
         id="path17"
         i:knockout="Off"
         d="m 69.425677,996.6242 c -0.240573,0.1185 -0.80098,0.2649 -1.64434,0.55724 -0.840655,0.2832 -2.451414,0.86189 -3.352886,1.17254 -0.898429,0.30134 -1.510436,0.48719 -2.049443,0.66374 -0.557277,0.16755 -0.974474,0.30764 -1.239409,0.38369 -0.267982,0.0705 -0.271027,0.0915 -0.362383,0.0645 -0.100499,-0.033 -0.124858,-0.18585 -0.213167,-0.23445 -0.106588,-0.0555 -0.298433,-0.021 -0.341067,-0.0645 -0.04263,-0.0555 0.02436,-0.1614 0.106589,-0.21315 0.07003,-0.0555 0.249709,-0.0735 0.362383,-0.0885 0.112678,-0.021 0,0.0555 0.319749,-0.018 0.316704,-0.0885 0.758264,-0.2193 1.55916,-0.45074 0.794806,-0.24675 2.329603,-0.67304 3.160951,-0.93794 0.803941,-0.25575 1.251507,-0.4476 1.708291,-0.59999 0.453825,-0.1674 0.739992,-0.29235 1.023199,-0.3624 0.2772,-0.0795 0.47201,-0.0855 0.642544,-0.0645 0.164527,0.015 0.530039,0.0675 0.319834,0.19185 z"
         clip-rule="evenodd" />
      <path
         style="fill:#8dc9f9;fill-opacity:1;fill-rule:evenodd"
         id="path19"
         i:knockout="Off"
         d="m 71.368452,996.13401 c 0.246664,-0.1065 0.761308,-0.24375 1.002051,-0.3411 0.225346,-0.1005 0.340981,-0.15225 0.383615,-0.21315 0.03654,-0.0705 -0.07918,-0.12749 -0.170534,-0.14999 -0.103619,-0.03 -0.222386,-0.027 -0.426417,0.021 -0.219257,0.0585 -0.538922,0.18884 -0.831349,0.29849 -0.295218,0.0975 -0.672912,0.2436 -0.898258,0.29835 -0.228309,0.039 -0.295388,0.015 -0.447735,0 -0.158267,-0.015 -0.246664,-0.0885 -0.511514,-0.042 -0.280246,0.039 -0.450694,0.1065 -1.132912,0.31979 -0.697358,0.21615 -2.018905,0.63945 -2.966056,0.94094 -0.956119,0.29235 -1.979318,0.59384 -2.670586,0.80999 -0.697358,0.20715 -1.126735,0.32895 -1.452576,0.44774 -0.322794,0.1095 -0.481146,0.17355 -0.511599,0.23745 -0.04872,0.0585 -0.155306,0.21015 0.2558,0.1275 0.408061,-0.0945 1.446486,-0.44459 2.198658,-0.66389 0.755217,-0.2253 1.528707,-0.42945 2.287055,-0.66089 0.752088,-0.2436 1.650516,-0.59369 2.177172,-0.77039 0.502549,-0.1797 0.676042,-0.2406 0.895299,-0.2985 0.21325,-0.0705 0.304692,-0.0675 0.426417,-0.0855 0.115633,-0.021 0.185675,-0.039 0.280245,-0.021 0.09432,0.015 0.197941,0.045 0.277033,0.0855 0.07003,0.033 0.04872,0.0885 0.170533,0.1065 0.115798,0.015 0.377693,0 0.575633,-0.042 0.19481,-0.0495 0.411022,-0.1245 0.599911,-0.19185 0.1795,-0.0735 0.237528,-0.12449 0.490114,-0.21314 z"
         clip-rule="evenodd" />
      <path
         style="fill:#8dc9f9;fill-opacity:1;fill-rule:evenodd"
         id="path21"
         i:knockout="Off"
         d="m 59.26069,998.24733 c 0.395879,-0.15225 2.018989,-0.56939 3.331484,-0.95924 1.31258,-0.38984 4.120201,-1.24243 4.464313,-1.32463 0.316704,-0.0915 -1.385666,0.47504 -2.521538,0.83129 -1.148054,0.35624 -3.404571,1.05373 -4.290734,1.30333 -0.892169,0.2436 -1.373315,0.2772 -0.983525,0.15 z"
         clip-rule="evenodd" />
      <path
         style="fill:#008eff;fill-opacity:1;fill-rule:evenodd"
         id="path23"
         i:knockout="Off"
         d="m 60.777216,999.34051 c -0.243619,0.033 -0.752172,0.2193 -1.065832,0.3228 -0.313659,0.1005 -0.435469,0.1065 -0.813077,0.27719 -0.39588,0.1644 -1.145008,0.5907 -1.495209,0.7035 -0.359338,0.088 -0.596866,-0.018 -0.596866,-0.086 0.003,-0.073 0.295388,-0.1766 0.618182,-0.2983 0.310614,-0.1245 1.1176,-0.31385 1.282043,-0.42649 0.152261,-0.1185 -0.118769,-0.27105 -0.319749,-0.28005 -0.207077,-0.027 -0.514645,0.057 -0.877028,0.17355 -0.377609,0.1065 -1.084102,0.30149 -1.32163,0.49019 -0.240574,0.1858 -0.210122,0.4782 -0.08527,0.6183 0.118768,0.1245 0.447649,0.1857 0.788716,0.1485 0.331931,-0.048 0.828304,-0.2619 1.218093,-0.405 0.374564,-0.1553 0.584684,-0.2496 1.087149,-0.4476 0.508553,-0.19485 1.668787,-0.57854 1.942859,-0.70649 0.255799,-0.1335 -0.127903,-0.1305 -0.362383,-0.0855 z"
         clip-rule="evenodd" />
      <path
         style="fill:#008eff;fill-opacity:1;fill-rule:evenodd"
         id="path25"
         i:knockout="Off"
         d="m 57.360464,999.08477 c 0.158353,-0.0765 0.895298,-0.2802 1.17546,-0.3198 0.26798,-0.036 0.243619,-0.015 0.468966,0.0855 0.216211,0.0915 0.797851,0.3228 0.877027,0.44759 0.06699,0.1095 -0.249709,0.15 -0.408062,0.21315 -0.164442,0.051 -0.347156,0.144 -0.511598,0.1095 -0.170534,-0.048 -0.447649,-0.2619 -0.468967,-0.3441 -0.02436,-0.0765 0.316704,-0.0795 0.341067,-0.12749 0.02436,-0.0705 -0.01522,-0.23445 -0.213167,-0.23445 -0.216211,0 -0.813077,0.21315 -1.026243,0.2559 -0.216212,0.021 -0.395881,-0.018 -0.234483,-0.0855 z"
         clip-rule="evenodd" />
      <path
         style="fill:#8dc9f9;fill-opacity:1;fill-rule:evenodd"
         id="path27"
         i:knockout="Off"
         d="m 54.671523,999.68476 c 0.176624,0.0615 0.654726,0.31364 0.895298,0.38374 0.231438,0.051 0.140083,0.077 0.535961,-0.021 0.398926,-0.10355 1.519572,-0.48424 1.836276,-0.55414 0.295388,-0.0795 0.143128,0.0615 0,0.1275 -0.158353,0.0645 -0.572503,0.15 -0.855711,0.2559 -0.295386,0.0885 -0.554232,0.21914 -0.810031,0.29834 -0.249709,0.067 -0.435468,0.1365 -0.663861,0.1275 -0.237529,-0.024 -0.52987,-0.1335 -0.724766,-0.2344 -0.20403,-0.10055 -0.389789,-0.28024 -0.426333,-0.34114 -0.03958,-0.0705 0.0274,-0.1035 0.213167,-0.042 z"
         clip-rule="evenodd" />
      <path
         style="fill:#8dc9f9;fill-opacity:1;fill-rule:evenodd"
         id="path29"
         i:knockout="Off"
         d="m 60.265616,999.21271 c -0.176624,0.039 -0.490283,0.1305 -0.706494,0.19185 -0.213165,0.0615 -0.401971,0.17355 -0.554232,0.17355 -0.158352,-0.015 -0.271026,-0.19485 -0.362383,-0.21615 -0.103544,-0.021 -0.179669,0.024 -0.191849,0.0885 -0.003,0.0495 0.112678,0.1584 0.149218,0.23445 0.01523,0.0705 0.08527,0.1335 0,0.19185 -0.09136,0.042 -0.319751,0.042 -0.532916,0.10649 -0.222303,0.0675 -0.557278,0.18275 -0.770445,0.27705 -0.228391,0.079 -0.444603,0.1305 -0.532916,0.2131 -0.08526,0.071 -0.124858,0.2376 0.02132,0.2558 0.137038,0.015 0.520735,-0.062 0.810031,-0.1485 0.280162,-0.1065 0.599911,-0.3076 0.877028,-0.4264 0.26798,-0.1155 0.380654,-0.16445 0.724766,-0.27709 0.33802,-0.1245 1.023197,-0.35325 1.282042,-0.45075 0.240573,-0.1005 0.179669,-0.1065 0.191849,-0.1485 0.0061,-0.0555 -0.06394,-0.14399 -0.127903,-0.14999 -0.07003,-0.015 -0.118768,0.036 -0.277117,0.0855 z"
         clip-rule="evenodd" />
      <path
         style="fill:#008eff;fill-opacity:1;fill-rule:evenodd"
         id="path31"
         i:knockout="Off"
         d="m 56.06015,1000.7931 c -0.30757,0.1095 -0.560324,0.1918 -0.791761,0.2133 -0.231438,0.018 -0.298433,0.024 -0.575549,-0.064 -0.289298,-0.1035 -0.980565,-0.4325 -1.11151,-0.4689 -0.130948,-0.036 0.103544,0.1455 0.341065,0.277 0.23753,0.1245 0.633409,0.4568 1.047561,0.4904 0.405017,0.021 0.83744,-0.089 1.345993,-0.3411 -0.08526,-0.033 -0.170533,-0.071 -0.255799,-0.1065 z"
         clip-rule="evenodd" />
      <path
         style="fill:#008eff;fill-opacity:1;fill-rule:evenodd"
         id="path33"
         i:knockout="Off"
         d="m 58.356255,1003.6222 c -0.557277,0.045 -1.007973,0.1365 -1.339903,0.2619 -0.33802,0.1275 -0.517689,0.2619 -0.669951,0.4963 -0.158351,0.2315 -0.246664,0.5117 -0.264935,0.8741 -0.356292,-0.1767 -0.618182,-0.2742 -0.78567,-0.2924 -0.170533,-0.03 -0.185759,0.015 -0.234483,0.1766 -0.05785,0.1644 -0.08221,0.4324 -0.08526,0.8161 -0.712585,-0.1918 -1.653563,-0.4599 -2.859474,-0.8161 -1.221139,-0.3716 -3.267536,-1.005 -4.342504,-1.3125 -1.078012,-0.3045 -1.878908,-0.4933 -2.040306,-0.4963 -0.155306,0 0.295388,0.1674 1.10542,0.4384 0.806986,0.2589 2.247382,0.7156 3.675596,1.1359 1.422125,0.4233 2.984329,0.8649 4.781017,1.3704 -0.07614,-0.3472 -0.09441,-0.5512 -0.03045,-0.6121 0.05785,-0.071 0.310614,-0.071 0.380654,0.2344 0.0609,0.3077 0.0609,0.9258 0,1.5744 -0.07003,0.6456 -0.295388,1.6444 -0.380654,2.2444 -0.09745,0.5907 -0.158351,1.1541 -0.146173,1.2546 0.01215,0.08 0.08832,-0.2466 0.204032,-0.7308 0.106588,-0.4873 0.322794,-1.5075 0.438513,-2.1561 0.103543,-0.6608 0.194895,-1.285 0.20403,-1.7206 0.003,-0.4354 -0.05481,-0.7065 -0.173578,-0.8464 0.167488,-0.015 0.353247,0 0.52378,0.057 0.173579,0.045 0.383699,-0.064 0.52378,0.2346 0.127904,0.2983 0.204031,0.6394 0.261891,1.5165 0.04567,0.8648 0.01827,1.5956 0.05785,3.6725 0.03349,2.095 0.130948,6.124 0.176624,8.7155 0.04263,2.5732 0.07612,4.4246 0.08832,6.6111 0.003,2.1773 -0.04567,4.714 -0.03045,6.3768 0.01523,1.6565 0.05785,3.4745 0.115724,3.4685 0.04872,-0.042 0.130948,-2.0952 0.176624,-3.6452 0.03654,-1.5713 0.03654,-3.7699 0.05785,-5.5971 0.01827,-1.8179 0.07308,-2.9873 0.05785,-5.2469 -0.03349,-2.2932 -0.130948,-6.0418 -0.173579,-8.2862 -0.04567,-2.2381 -0.05481,-3.7699 -0.0609,-5.0063 -0.01215,-1.2271 0.01523,-1.8576 0,-2.3601 -0.02132,-0.5055 -0.08832,-0.5085 -0.143128,-0.7003 -0.0609,-0.2132 -0.143128,-0.4386 -0.234483,-0.5238 -0.100499,-0.088 -0.225348,-0.077 -0.350202,0 -0.133993,0.071 -0.328885,0.3745 -0.408061,0.408 -0.09441,0.015 -0.118769,-0.1155 -0.08527,-0.2649 0.03045,-0.1553 0.09745,-0.4416 0.319749,-0.6122 0.213166,-0.1674 0.691268,-0.2892 0.989701,-0.3775 0.298433,-0.089 0.666906,-0.095 0.788715,-0.1455 0.109633,-0.055 0.09136,-0.1215 -0.0883,-0.1888 z"
         clip-rule="evenodd" />
      <path
         style="fill:#008eff;fill-opacity:1;fill-rule:evenodd"
         id="path35"
         i:knockout="Off"
         d="m 54.76897,1011.0129 c 0.06394,-0.3745 0.121814,-0.7947 0.207077,-1.285 0.08526,-0.4995 0.231438,-1.212 0.261889,-1.6323 0.01215,-0.4112 0.09441,-0.6456 -0.176623,-0.8434 -0.283206,-0.2102 -0.877027,-0.2193 -1.486074,-0.3807 -0.606001,-0.1797 -0.816123,-0.204 -2.159071,-0.6122 -1.373399,-0.408 -3.313213,-0.9988 -5.94734,-1.8058 0.05481,-0.335 0.01215,-0.606 -0.115723,-0.8253 -0.133993,-0.2314 -0.612091,-0.4627 -0.669951,-0.4933 -0.07003,-0.027 0.19185,0.1185 0.292343,0.3198 0.09439,0.1827 0.319749,0.6304 0.289296,0.8161 -0.04263,0.1735 -0.392834,0.2557 -0.523779,0.2923 -0.140083,0.033 -0.210122,0.091 -0.292343,-0.061 -0.08832,-0.1644 -0.109633,-0.5968 -0.20403,-0.874 -0.100499,-0.2832 -0.289298,-0.6852 -0.377609,-0.7582 -0.100499,-0.067 -0.210122,0.046 -0.176624,0.3502 0.03349,0.3015 0.301479,1.0872 0.380654,1.4283 0.06699,0.3196 -0.03349,0.4719 0.0274,0.5268 0.04872,0.049 0.146173,-0.1646 0.292343,-0.204 0.137039,-0.058 0.286252,-0.1005 0.554232,-0.058 0.255799,0.039 0.176624,0.089 1.020153,0.3471 0.855711,0.2589 2.807705,0.8374 4.022753,1.1968 1.202868,0.3533 2.366147,0.6548 3.148771,0.9044 0.752172,0.2375 1.169369,0.3106 1.428215,0.5237 0.252754,0.201 0.112678,0.4661 0.118768,0.7005 0,0.2315 -0.0335,0.5055 -0.08832,0.6699 -0.06699,0.1485 -0.252754,0.1035 -0.26189,0.2619 -0.01215,0.1584 0.176624,0.4172 0.20403,0.6701 0.01522,0.2344 -0.100499,0.411 -0.08832,0.7887 0.0092,0.3896 0.08526,1.3399 0.146173,1.486 0.04567,0.1155 0.109634,-0.4508 0.146173,-0.7004 0.02436,-0.2437 0.0335,-0.4933 0.02741,-0.7492 z"
         clip-rule="evenodd" />
      <path
         style="fill:#008eff;fill-opacity:1;fill-rule:evenodd"
         id="path37"
         i:knockout="Off"
         d="m 53.690958,1009.9259 c 0.08832,-0.024 0.328885,-0.1035 0.380654,-0.2619 0.03958,-0.1706 0,-0.4842 -0.118768,-0.6701 -0.118769,-0.1827 0.01827,-0.1735 -0.612093,-0.408 -0.660815,-0.2559 -2.134707,-0.6943 -3.234036,-1.0201 -1.108465,-0.3259 -2.457503,-0.6609 -3.294943,-0.877 -0.828304,-0.2193 -1.294225,-0.3869 -1.632245,-0.4082 -0.344112,-0.024 -0.33193,0.079 -0.408062,0.2651 -0.08221,0.1735 -0.118768,0.7491 -0.0609,0.7855 0.05785,0.021 0.264935,-0.4842 0.40806,-0.612 0.130949,-0.1425 0.118769,-0.201 0.408062,-0.1735 0.286252,0.027 0.535961,0.1275 1.312496,0.3501 0.782625,0.2163 2.369192,0.6517 3.325394,0.9319 0.947068,0.2679 1.741874,0.5206 2.302197,0.7003 0.532916,0.1644 0.746082,0.2376 0.934886,0.3503 0.173578,0.1125 0.149218,0.1887 0.173578,0.3471 0.02131,0.1455 -0.05481,0.4324 -0.03045,0.5542 0.0091,0.1155 0.05785,0.1644 0.146173,0.1455 z"
         clip-rule="evenodd" />
      <path
         style="fill:#008eff;fill-opacity:1;fill-rule:evenodd"
         id="path39"
         i:knockout="Off"
         d="m 43.955347,1006.573 c 0.03349,-0.2954 0.04263,-0.5907 0.0274,-0.9318 -0.0274,-0.3441 -0.07612,-0.6882 -0.146173,-1.0781 -0.07612,-0.3928 -0.255799,-0.9074 -0.292341,-1.2272 -0.04568,-0.3288 -0.01215,-0.5024 0.03045,-0.6974 0.0335,-0.1978 0.249709,-0.3136 0.204032,-0.4659 -0.05176,-0.1584 -0.213167,-0.3106 -0.496373,-0.4689 -0.01522,0.8709 -0.02436,1.5987 -0.0274,2.2168 -0.01523,0.6092 -0.01523,1.0293 0,1.4588 0.0091,0.4263 -0.003,0.9013 0.115723,1.1085 0.115724,0.201 0.310615,0.2253 0.584685,0.086 z"
         clip-rule="evenodd" />
      <path
         style="fill:#008eff;fill-opacity:1;fill-rule:evenodd"
         id="path41"
         i:knockout="Off"
         d="m 55.557687,1004.3804 c -0.554234,-0.1552 -1.446486,-0.3928 -2.710258,-0.7582 -1.272908,-0.3685 -3.468521,-0.9745 -4.811469,-1.3704 -1.345993,-0.3958 -2.335694,-0.7218 -3.179223,-0.9897 -0.846574,-0.274 -1.57743,-0.472 -1.863683,-0.6426 -0.286252,-0.1797 -0.140083,-0.4019 0.143128,-0.4079 0.274071,-0.018 0.423288,0.056 1.516525,0.35 1.102376,0.2955 3.502019,0.9867 5.015499,1.4283 1.498255,0.4325 2.871655,0.8528 3.907034,1.1664 1.014063,0.2984 1.726648,0.4842 2.186478,0.6395 0.44765,0.1394 0.499418,0.1613 0.554232,0.2648 0.04263,0.1005 -0.106588,0.3198 -0.234483,0.3777 -0.124858,0.057 0.0061,0.07 -0.523779,-0.058 z"
         clip-rule="evenodd" />
      <path
         style="fill:#8dc9f9;fill-opacity:1;fill-rule:evenodd"
         id="path43"
         i:knockout="Off"
         d="m 55.177032,1003.7379 c -0.490283,-0.1455 -1.361219,-0.3867 -2.271744,-0.6395 -0.91966,-0.268 -1.939814,-0.5542 -3.179223,-0.9045 -1.257682,-0.3501 -3.209677,-0.8647 -4.257237,-1.1662 -1.04756,-0.3168 -1.598747,-0.5391 -1.982446,-0.6426 -0.386744,-0.1005 -0.459831,-0.021 -0.350202,0.062 0.100499,0.071 0.292343,0.1827 0.962294,0.408 0.669951,0.2254 2.052486,0.6334 3.033053,0.9319 0.962292,0.2862 1.580476,0.4385 2.771161,0.7857 1.199823,0.335 3.32844,0.9684 4.342503,1.2546 0.998836,0.271 1.370354,0.4171 1.632245,0.4384 0.246664,0.024 0,-0.21 -0.115724,-0.2923 -0.124858,-0.097 -0.112678,-0.086 -0.584684,-0.2344 z"
         clip-rule="evenodd" />
      <path
         style="fill:#008eff;fill-opacity:0.39215686;fill-rule:evenodd"
         id="path45"
         i:knockout="Off"
         d="m 44.661842,1007.2886 c 0.0335,-0.1215 0.155307,-0.3196 0.271025,-0.4416 0.106589,-0.1395 0.225348,-0.277 0.356294,-0.3288 0.118768,-0.055 0.121813,-0.021 0.371517,0.03 0.246665,0.048 0.639499,0.1425 1.084103,0.2711 0.435468,0.1215 1.023199,0.2923 1.528707,0.4414 0.496373,0.1335 0.950113,0.2346 1.455622,0.3838 0.499418,0.1523 1.071921,0.3137 1.540888,0.4719 0.456785,0.1395 0.8618,0.2651 1.227228,0.3869 0.359338,0.1065 0.739992,0.2161 0.928796,0.3288 0.182714,0.1125 0.121814,0.2314 0.158353,0.3564 0.02436,0.1155 0.01215,0.2496 0,0.3562 -0.02132,0.097 -0.0091,0.2375 -0.115723,0.2558 -0.112679,0.015 -0.44156,-0.015 -0.542052,-0.1553 -0.112679,-0.1644 0.140083,-0.5542 -0.100499,-0.7582 -0.246664,-0.2102 -0.694313,-0.2528 -1.355128,-0.4569 -0.669952,-0.21 -1.793642,-0.5543 -2.597585,-0.7856 -0.813077,-0.2467 -1.659652,-0.4964 -2.198657,-0.6547 -0.539006,-0.1614 -0.77349,-0.2802 -0.998837,-0.2863 -0.234483,-0.018 -0.258845,0.1035 -0.344112,0.2131 -0.09135,0.1035 -0.0609,0.3168 -0.155306,0.4295 -0.103543,0.1065 -0.344112,0.201 -0.429378,0.201 -0.08527,-0.018 -0.121813,-0.1425 -0.08527,-0.2589 z"
         clip-rule="evenodd" />
      <path
         style="fill:#008eff;fill-opacity:1;fill-rule:evenodd"
         id="path47"
         i:knockout="Off"
         d="m 55.761717,1008.9117 c 0.01827,-0.1552 0.0609,-0.3684 0.115723,-0.6394 0.05176,-0.2832 0.130948,-0.8497 0.20403,-0.9928 0.0609,-0.1455 0.08527,0.2193 0.204031,0.147 0.118768,-0.089 0.423288,-0.6761 0.526825,-0.6122 0.08527,0.064 0.08832,0.4355 0.05786,1.0201 -0.03045,0.5847 -0.07004,1.745 -0.234483,2.4485 -0.182714,0.6882 -0.648636,1.0505 -0.785671,1.6627 -0.140084,0.5998 -0.03654,1.0657 -0.03045,1.9245 0.003,0.8527 0.03654,2.4545 0.03045,3.1489 -0.01827,0.679 0.0274,0.682 -0.146173,0.9622 -0.188804,0.2741 -0.822213,0.6486 -0.962293,0.7003 -0.146173,0.046 -0.01522,-0.2588 0.0883,-0.4079 0.08832,-0.15 0.389789,-0.2132 0.493328,-0.4964 0.09136,-0.3045 0.103544,-0.7461 0.118769,-1.2547 0.01215,-0.5115 -0.0091,-0.8709 -0.03045,-1.7479 -0.03045,-0.8892 -0.0609,-2.0282 -0.115723,-3.4991 l 0.319749,-1.1662 c 0.07003,-0.268 0.118768,-0.5055 0.146173,-0.7005 0.02131,-0.204 0.02131,-0.3654 0,-0.4963 z"
         clip-rule="evenodd" />
      <path
         style="fill:#008eff;fill-opacity:1;fill-rule:evenodd"
         id="path49"
         i:knockout="Off"
         d="m 54.041159,1010.139 c -0.03349,0.3197 0.0061,1.1449 0,2.0982 -0.01827,0.9501 -0.09136,2.5945 -0.08832,3.5842 -0.003,0.9897 0.03045,1.8516 0.08832,2.3053 0.04872,0.4476 0.185761,0.6303 0.234483,0.3503 0.0335,-0.3045 0.01523,-1.2669 0.02741,-2.1014 0.0091,-0.8464 0.05176,-2.095 0.05785,-2.8868 -0.003,-0.8009 -0.01215,-1.3034 -0.02741,-1.8363 -0.02131,-0.5389 -0.04263,-1.087 -0.08832,-1.3399 -0.0609,-0.2619 -0.164443,-0.4964 -0.204032,-0.1736 z"
         clip-rule="evenodd" />
      <path
         style="fill:#008eff;fill-opacity:0.39215686;fill-rule:evenodd"
         id="path51"
         i:knockout="Off"
         d="m 48.587147,1013.9242 c -0.02131,0.2375 0.02436,0.4355 0.137038,0.606 0.106589,0.1766 0.334977,0.3471 0.532916,0.4294 0.188805,0.064 0.496373,0.1155 0.6395,-0.021 0.146173,-0.1582 0.231438,-0.5359 0.207075,-0.8374 -0.04567,-0.3013 -0.200985,-0.7308 -0.417197,-0.9105 -0.228391,-0.1735 -0.682132,-0.2649 -0.867891,-0.1335 -0.188804,0.1275 -0.219256,0.609 -0.231438,0.8679 z"
         clip-rule="evenodd" />
      <path
         style="fill:#008eff;fill-opacity:1;fill-rule:evenodd"
         id="path53"
         i:knockout="Off"
         d="m 48.754635,1013.9547 c -0.02132,0.1948 0.01827,0.3349 0.106588,0.478 0.08832,0.1275 0.255799,0.2832 0.420242,0.3381 0.155307,0.048 0.37761,0.095 0.502463,-0.015 0.112679,-0.1245 0.179669,-0.4263 0.164443,-0.6577 -0.03045,-0.2406 -0.167488,-0.5817 -0.328885,-0.7187 -0.176623,-0.1455 -0.542051,-0.201 -0.685178,-0.1065 -0.149217,0.097 -0.170532,0.4812 -0.179669,0.6822 z"
         clip-rule="evenodd" />
      <path
         style="fill:#008eff;fill-opacity:0.39215686;fill-rule:evenodd"
         id="path55"
         i:knockout="Off"
         d="m 44.82933,1015.3159 c -0.06394,-0.4691 -0.112679,-1.7662 -0.146173,-2.7987 -0.04263,-1.0414 -0.05785,-2.5579 -0.05785,-3.3283 -0.0062,-0.7765 0.0091,-1.1907 0.05785,-1.2303 0.03958,-0.036 0.170533,0.3197 0.20403,1.0353 0.02132,0.7218 -0.05481,2.1866 -0.03045,3.2433 0.02436,1.0384 0.176623,2.4423 0.176623,2.966 -0.0062,0.5115 -0.152261,0.5571 -0.20403,0.1125 z"
         clip-rule="evenodd" />
      <path
         style="fill:#008eff;fill-opacity:0.39215686;fill-rule:evenodd"
         id="path57"
         i:knockout="Off"
         d="m 53.25549,1011.4575 c -0.04263,-0.2283 -0.286252,-0.6394 -0.438513,-0.8466 -0.158353,-0.21 -0.386746,-0.1918 -0.496374,-0.3805 -0.109633,-0.195 0.161398,-0.5025 -0.173579,-0.7583 -0.362381,-0.2589 -1.032333,-0.5208 -1.894135,-0.7857 -0.864846,-0.274 -3.109182,-0.8557 -3.209675,-0.8161 -0.08526,0.042 1.872819,0.7065 2.655443,1.0506 0.776535,0.3349 1.556115,0.673 1.951994,0.9318 0.374565,0.2467 0.240574,0.3685 0.350203,0.5542 0.100499,0.1767 0.152262,0.2651 0.319749,0.5238 0.173578,0.2559 0.532916,0.8923 0.700404,0.9928 0.155306,0.077 0.264935,-0.2437 0.234483,-0.466 z"
         clip-rule="evenodd" />
      <path
         style="fill:#008eff;fill-opacity:1;fill-rule:evenodd"
         id="path59"
         i:knockout="Off"
         d="m 46.595565,1018.5558 c -0.100499,0.2985 -0.182714,0.7644 -0.258844,1.2671 -0.08221,0.4902 -0.188806,1.282 -0.213167,1.693 -0.02741,0.402 -0.07003,0.533 0.0609,0.7461 0.112679,0.2101 0.213165,0.3228 0.700404,0.5359 0.496373,0.2133 1.507389,0.4842 2.244336,0.731 0.724765,0.2406 1.458667,0.4599 2.073804,0.6699 0.609046,0.198 1.303359,0.469 1.540887,0.5208 0.219257,0.039 0.167488,-0.1185 -0.213166,-0.2771 -0.395879,-0.1614 -1.315541,-0.4324 -2.089029,-0.6852 -0.785671,-0.268 -1.888045,-0.597 -2.533635,-0.871 -0.648635,-0.2741 -1.1176,-0.3045 -1.312495,-0.7613 -0.191849,-0.475 0.09441,-1.5287 0.152261,-1.9976 0.03958,-0.4629 0.07614,-0.5147 0.121813,-0.7644 0.03654,-0.2649 0.06394,-0.6486 0.140083,-0.7766 0.07614,-0.1334 0.210122,-0.021 0.31975,-0.015 0.100498,0.015 0.283206,0.082 0.289298,0.03 -0.0061,-0.077 -0.176625,-0.3319 -0.289298,-0.4262 -0.121814,-0.1125 -0.295387,-0.207 -0.414152,-0.1523 -0.130948,0.058 -0.225347,0.2315 -0.319749,0.5328 z"
         clip-rule="evenodd" />
      <path
         style="fill:#008eff;fill-opacity:1;fill-rule:evenodd"
         id="path61"
         i:knockout="Off"
         d="m 46.13878,1020.645 c -0.04263,0.204 -0.124858,0.5238 -0.152261,0.7949 -0.03958,0.2557 -0.07308,0.5755 -0.03045,0.7612 0.03045,0.1797 0.04872,0.195 0.289297,0.3502 0.243619,0.1553 0.627318,0.3686 1.17546,0.5817 0.548142,0.207 1.440396,0.4446 2.089031,0.6548 0.636453,0.204 1.215047,0.3927 1.7236,0.5785 0.502465,0.1857 0.947068,0.4203 1.251592,0.4902 0.298433,0.058 0.365428,-0.015 0.51769,-0.1674 0.130948,-0.1614 0.19794,-0.3777 0.319749,-0.8253 0.118768,-0.4719 0.2558,-1.2637 0.398925,-1.9061 0.137038,-0.6428 0.429378,-1.7511 0.44156,-1.8912 0,-0.1335 -0.255801,0.5817 -0.380655,1.0659 -0.133993,0.4689 -0.2558,1.2971 -0.365428,1.7692 -0.127903,0.463 -0.219256,0.7584 -0.307569,1.0384 -0.07917,0.2772 -0.09135,0.5025 -0.167488,0.6273 -0.08526,0.1095 -0.109633,0.095 -0.319749,0.062 -0.225348,-0.039 -0.560323,-0.1552 -0.947067,-0.277 -0.389789,-0.1305 -0.840485,-0.3077 -1.339903,-0.4719 -0.511598,-0.1797 -1.169369,-0.3656 -1.677924,-0.533 -0.523779,-0.1675 -1.017107,-0.3198 -1.373399,-0.4447 -0.359338,-0.1215 -0.535962,-0.1797 -0.718676,-0.2892 -0.188804,-0.1245 -0.295386,-0.2528 -0.365428,-0.396 -0.07308,-0.1395 -0.07003,-0.2802 -0.0609,-0.4567 -0.003,-0.1949 0.04567,-0.3959 0.07612,-0.6731 0.03045,-0.2952 0.09745,-0.8739 0.106588,-1.0201 -0.0091,-0.1365 -0.07614,0.073 -0.106588,0.1827 -0.02741,0.094 -0.04872,0.1948 -0.07612,0.3958 z"
         clip-rule="evenodd" />
      <path
         style="fill:#008eff;fill-opacity:1;fill-rule:evenodd"
         id="path63"
         i:knockout="Off"
         d="m 53.017962,1024.6282 c 0.0062,0.045 0.130948,0.036 0.19794,-0.062 0.0609,-0.1035 0.112679,-0.1614 0.213167,-0.5359 0.100498,-0.3899 0.249709,-1.1573 0.398925,-1.739 0.137038,-0.5906 0.347156,-1.4921 0.441558,-1.754 0.07918,-0.2709 0.06394,0.044 0.106589,0.1675 0.03958,0.1245 0.118768,0.6365 0.167487,0.5816 0.04263,-0.07 0.05786,-0.5969 0.09135,-0.947 0.0335,-0.3502 0.09441,-0.9076 0.07614,-1.1451 -0.03045,-0.2404 -0.06699,-0.201 -0.274072,-0.3045 -0.228392,-0.1185 -0.691267,-0.2832 -1.035378,-0.3654 -0.362383,-0.094 -0.813078,-0.2222 -1.023199,-0.1364 -0.204031,0.086 -0.170533,0.3898 -0.182714,0.6547 -0.01827,0.2589 0.02131,0.9319 0.0609,0.9013 0.02131,-0.055 0.03045,-0.9043 0.121813,-1.1145 0.08526,-0.201 0.191851,-0.1215 0.426333,-0.091 0.228393,0.018 0.70954,0.15 0.962294,0.2283 0.243619,0.064 0.432423,0.094 0.532916,0.198 0.09441,0.088 0.07003,0.2163 0.04567,0.396 -0.04263,0.1856 -0.158353,0.4536 -0.228393,0.6882 -0.07612,0.2193 -0.124858,0.3929 -0.182714,0.6395 -0.06394,0.2314 -0.124858,0.4812 -0.182714,0.7948 -0.06394,0.3075 -0.155306,0.7126 -0.216211,1.0506 -0.06699,0.3319 -0.137038,0.6456 -0.19794,0.9166 -0.07308,0.2528 -0.143129,0.4568 -0.197941,0.6243 -0.06394,0.1614 -0.127903,0.2984 -0.121813,0.3533 z"
         clip-rule="evenodd" />
      <path
         style="fill:#008eff;fill-opacity:1;fill-rule:evenodd"
         id="path65"
         i:knockout="Off"
         d="m 54.863373,1021.8357 c 0.05176,0.1155 0.09745,0.5055 0.137038,0.807 0.02741,0.3013 0.207077,0.6577 0.04568,0.9622 -0.179669,0.2985 -0.858757,0.7584 -1.050606,0.7919 -0.188805,0 -0.204031,-0.4812 -0.09136,-0.6854 0.109633,-0.201 0.575549,-0.2283 0.715629,-0.5176 0.112679,-0.3045 0.0061,-1.0232 0.04568,-1.2516 0.03349,-0.2284 0.143128,-0.2284 0.19794,-0.1065 z"
         clip-rule="evenodd" />
      <path
         style="fill:#008eff;fill-opacity:1;fill-rule:evenodd"
         id="path67"
         i:knockout="Off"
         d="m 51.784643,1019.2259 c -0.185761,-0.1395 -0.6395,-0.204 -0.962294,-0.2741 -0.32584,-0.083 -0.852666,-0.2193 -0.947067,-0.1978 -0.103544,0.018 0.05176,0.1275 0.383699,0.3045 0.325839,0.1674 1.324675,0.6639 1.586566,0.7035 0.237529,0.015 0.118768,-0.3992 -0.0609,-0.5361 z"
         clip-rule="evenodd" />
      <path
         style="fill:#008eff;fill-opacity:1;fill-rule:evenodd"
         id="path69"
         i:knockout="Off"
         d="m 60.631044,1003.2019 c -0.657771,0.2072 -0.794806,0.2468 -1.196776,0.3777 -0.420242,0.1335 -0.931841,0.2466 -1.251591,0.408 -0.31975,0.1485 -0.612092,0.3106 -0.642544,0.4963 -0.03349,0.1797 -0.478102,0.7248 0.438513,0.5543 0.919661,-0.1857 3.087866,-1.0476 5.012454,-1.6353 1.921627,-0.5907 4.674432,-1.3977 6.416306,-1.8942 1.720557,-0.5023 2.582442,-0.7308 3.876583,-1.1085 1.294308,-0.3896 2.469768,-0.77034 3.818806,-1.16619 1.327636,-0.39899 3.103093,-0.88318 4.141433,-1.19368 1.035379,-0.31064 1.613973,-0.50249 2.04039,-0.67004 0.414152,-0.1797 0.377524,-0.25575 0.465921,-0.38069 0.08527,-0.1455 0.09432,-0.34095 0.0274,-0.408 -0.08526,-0.0705 0.161398,-0.0945 -0.493326,0.0585 -0.673082,0.15825 -2.03117,0.49019 -3.441114,0.87704 -1.416034,0.37754 -3.224987,0.86174 -4.957724,1.37023 -1.729608,0.49649 -3.434938,1.05973 -5.36257,1.63223 -1.949034,0.5726 -4.683654,1.3217 -6.181909,1.7784 -1.495209,0.4416 -2.058578,0.6884 -2.710257,0.9045 z"
         clip-rule="evenodd" />
      <path
         style="fill:#8dc9f9;fill-opacity:1;fill-rule:evenodd"
         id="path71"
         i:knockout="Off"
         d="m 58.063912,1004.3651 c -0.246663,0.1919 -0.475055,0.4416 -0.146173,0.3807 0.334976,-0.067 0.578595,-0.1918 2.070758,-0.6699 1.50739,-0.4841 4.44291,-1.4221 6.793915,-2.1286 2.347876,-0.7065 5.055086,-1.4587 7.171439,-2.07069 2.110432,-0.61215 4.047115,-1.21514 5.451053,-1.63228 1.397677,-0.4173 2.225895,-0.64559 2.886795,-0.84659 0.651596,-0.198 0.867893,-0.2589 1.020238,-0.35025 0.152178,-0.0915 0.554148,-0.34409 -0.115798,-0.20399 -0.682048,0.1425 -2.353966,0.62429 -3.907034,1.05058 -1.556115,0.4263 -3.215767,0.86489 -5.33525,1.48603 -2.125487,0.62429 -4.503899,1.33389 -7.259834,2.15909 -2.755936,0.8223 -2.490917,0.7431 -3.760778,1.1359 -1.269863,0.3929 -2.60063,0.8313 -3.818723,1.2546 -1.218094,0.4233 -0.800896,0.2467 -1.050606,0.4354 z"
         clip-rule="evenodd" />
      <path
         style="fill:#008eff;fill-opacity:1;fill-rule:evenodd"
         id="path73"
         i:knockout="Off"
         d="m 57.923832,1009.938 c 0.03654,-0.058 0.100499,0.332 0.322794,0.3837 0.219258,0.048 0.100499,0.1614 1.007973,-0.085 0.904435,-0.2557 2.634127,-0.883 4.379046,-1.4373 1.738912,-0.5695 4.424807,-1.2728 5.990058,-1.9124 1.556113,-0.6365 1.668871,-0.9531 3.285805,-1.8881 1.613975,-0.9622 4.653116,-2.7833 6.309724,-3.7609 1.647556,-0.9805 2.953876,-1.72344 3.520373,-2.01894 0.548058,-0.28619 0.441476,-0.13049 -0.21325,0.3015 -0.666822,0.42329 -2.201619,1.26984 -3.736502,2.21084 -1.552984,0.9319 -4.141432,2.5063 -5.475244,3.3497 -1.330767,0.8375 -1.428298,1.1177 -2.466638,1.6293 -1.056696,0.4964 -2.689027,0.9958 -3.757987,1.3581 -1.065831,0.3532 -1.650517,0.4965 -2.576183,0.7948 -0.937931,0.2985 -2.085984,0.6822 -2.984329,0.9867 -0.907479,0.2954 -1.757098,0.609 -2.360056,0.7523 -0.59991,0.1245 -0.989699,0.1275 -1.202866,0.021 -0.213251,-0.1125 -0.09448,-0.6426 -0.04272,-0.6852 z"
         clip-rule="evenodd" />
    </g>
    <text
       xml:space="preserve"
       style="font-size:40px;font-style:normal;font-weight:normal;fill:#000000;fill-opacity:1;stroke:none;font-family:Bitstream Vera Sans"
       x="15.462815"
       y="1002.0089"
       id="text3705"><tspan
         sodipodi:role="line"
         id="tspan3707"
         x="15.462815"
         y="1002.0089"
         style="font-style:normal;font-variant:normal;font-weight:bold;font-stretch:normal;fill:#008eff;fill-opacity:1;font-family:OpenSymbol;-inkscape-font-specification:OpenSymbol Bold">P</tspan></text>
  </g>
</svg>
