<?xml version="1.0" encoding="UTF-8" standalone="no"?>
<!-- Created with Inkscape (http://www.inkscape.org/) -->

<svg
   xmlns:dc="http://purl.org/dc/elements/1.1/"
   xmlns:cc="http://creativecommons.org/ns#"
   xmlns:rdf="http://www.w3.org/1999/02/22-rdf-syntax-ns#"
   xmlns:svg="http://www.w3.org/2000/svg"
   xmlns="http://www.w3.org/2000/svg"
   xmlns:sodipodi="http://sodipodi.sourceforge.net/DTD/sodipodi-0.dtd"
   xmlns:inkscape="http://www.inkscape.org/namespaces/inkscape"
   width="100"
   height="100"
   id="svg2"
   inkscape:label="Pozadí"
   sodipodi:version="0.32"
   inkscape:version="0.47 r22583"
   sodipodi:docname="dog.svg"
   inkscape:output_extension="org.inkscape.output.svg.inkscape"
   version="1.1">
  <defs
     id="defs2963">
    <inkscape:perspective
       sodipodi:type="inkscape:persp3d"
       inkscape:vp_x="0 : 526.18109 : 1"
       inkscape:vp_y="0 : 1000 : 0"
       inkscape:vp_z="744.09448 : 526.18109 : 1"
       inkscape:persp3d-origin="372.04724 : 350.78739 : 1"
       id="perspective346" />
    <inkscape:perspective
       id="perspective4464"
       inkscape:persp3d-origin="0.5 : 0.33333333 : 1"
       inkscape:vp_z="1 : 0.5 : 1"
       inkscape:vp_y="0 : 1000 : 0"
       inkscape:vp_x="0 : 0.5 : 1"
       sodipodi:type="inkscape:persp3d" />
    <inkscape:perspective
       id="perspective4512"
       inkscape:persp3d-origin="0.5 : 0.33333333 : 1"
       inkscape:vp_z="1 : 0.5 : 1"
       inkscape:vp_y="0 : 1000 : 0"
       inkscape:vp_x="0 : 0.5 : 1"
       sodipodi:type="inkscape:persp3d" />
    <inkscape:perspective
       id="perspective4512-4"
       inkscape:persp3d-origin="0.5 : 0.33333333 : 1"
       inkscape:vp_z="1 : 0.5 : 1"
       inkscape:vp_y="0 : 1000 : 0"
       inkscape:vp_x="0 : 0.5 : 1"
       sodipodi:type="inkscape:persp3d" />
    <inkscape:perspective
       id="perspective4919"
       inkscape:persp3d-origin="0.5 : 0.33333333 : 1"
       inkscape:vp_z="1 : 0.5 : 1"
       inkscape:vp_y="0 : 1000 : 0"
       inkscape:vp_x="0 : 0.5 : 1"
       sodipodi:type="inkscape:persp3d" />
    <inkscape:perspective
       id="perspective2838"
       inkscape:persp3d-origin="0.5 : 0.33333333 : 1"
       inkscape:vp_z="1 : 0.5 : 1"
       inkscape:vp_y="0 : 1000 : 0"
       inkscape:vp_x="0 : 0.5 : 1"
       sodipodi:type="inkscape:persp3d" />
    <inkscape:perspective
       id="perspective3621"
       inkscape:persp3d-origin="0.5 : 0.33333333 : 1"
       inkscape:vp_z="1 : 0.5 : 1"
       inkscape:vp_y="0 : 1000 : 0"
       inkscape:vp_x="0 : 0.5 : 1"
       sodipodi:type="inkscape:persp3d" />
  </defs>
  <sodipodi:namedview
     id="base"
     pagecolor="#ffffff"
     bordercolor="#666666"
     borderopacity="1.0"
     inkscape:pageopacity="0.0"
     inkscape:pageshadow="2"
     inkscape:zoom="2.52218"
     inkscape:cx="37.522054"
     inkscape:cy="43.761424"
     inkscape:document-units="px"
     inkscape:current-layer="layer1"
     inkscape:window-width="1024"
     inkscape:window-height="549"
     inkscape:window-x="0"
     inkscape:window-y="0"
     showgrid="false"
     inkscape:window-maximized="1" />
  <metadata
     id="metadata2966">
    <rdf:RDF>
      <cc:Work
         rdf:about="">
        <dc:format>image/svg+xml</dc:format>
        <dc:type
           rdf:resource="http://purl.org/dc/dcmitype/StillImage" />
        <dc:title></dc:title>
      </cc:Work>
    </rdf:RDF>
  </metadata>
  <g
     inkscape:label="Vrstva 1"
     inkscape:groupmode="layer"
     id="layer1"
     transform="translate(0,-952.36218)">
    <rect
       style="fill:#ffffff;fill-opacity:1;stroke:#ffffff;stroke-width:1.99660146;stroke-linejoin:round;stroke-miterlimit:4;stroke-opacity:1;stroke-dasharray:none"
       id="rect4438-0-8"
       width="92.003395"
       height="92.003403"
       x="3.9550877"
       y="956.80017"
       rx="9.5836878"
       ry="9.5836878" />
    <rect
       style="fill:none;stroke:#008eff;stroke-width:4;stroke-linejoin:round;stroke-miterlimit:4;stroke-opacity:0.30000001;stroke-dasharray:none"
       id="rect4438"
       width="96"
       height="96"
       x="2.3964825"
       y="954.44861"
       rx="10"
       ry="10" />
    <rect
       style="fill:none;stroke:#008eff;stroke-width:5;stroke-linejoin:round;stroke-miterlimit:4;stroke-opacity:0.69999999999999996;stroke-dasharray:none"
       id="rect4438-57"
       width="92.159996"
       height="92.160004"
       x="3.8767693"
       y="955.92902"
       rx="9.5999994"
       ry="9.6000004" />
    <rect
       style="fill:none;stroke:#008eff;stroke-width:3.98613524;stroke-linejoin:round;stroke-miterlimit:4;stroke-opacity:0.3;stroke-dasharray:none"
       id="rect4438-5"
       width="88.013863"
       height="88.013863"
       x="5.7898545"
       y="958.55847"
       rx="9.1681108"
       ry="9.1681108" />
    <rect
       style="fill:none;stroke:#008eff;stroke-width:1.99660146;stroke-linejoin:round;stroke-miterlimit:4;stroke-opacity:1;stroke-dasharray:none"
       id="rect4438-0"
       width="92.003395"
       height="92.003403"
       x="4.2715678"
       y="956.08728"
       rx="9.5836878"
       ry="9.5836878" />
    <g
       transform="translate(2.9477979,925.14295)"
       id="g3607">
      <path
         style="fill:#008eff;fill-opacity:1"
         d="m 21.574695,72.588095 c -0.296976,0.60463 -0.505861,1.271992 -0.620647,1.991408 -0.04671,0.354369 -0.08342,0.714077 -0.08342,1.073785 l 0.260938,16.418434 -5.667236,12.220728 c -0.198206,0.35971 -0.344359,0.78215 -0.406423,1.21994 -0.312993,2.02277 1.073785,3.89472 3.091887,4.20771 1.564296,0.23959 3.06586,-0.55791 3.779937,-1.87662 l 6.241168,-13.35791 c 0.130135,-0.312993 0.244921,-0.635996 0.296976,-0.995704 0.01535,-0.161501 0.03137,-0.344358 0.03137,-0.50586 l -0.05206,-10.145901 9.593326,4.181689 1.54294,9.927006 c 0.312993,1.44951 1.501564,2.606715 3.049844,2.846966 2.017434,0.296974 3.889384,-1.089802 4.197038,-3.091887 0.05205,-0.344359 0.05205,-0.68805 0.01535,-1.011721 L 44.958384,83.719022 C 44.728812,82.561817 43.96268,81.565446 42.893567,81.060253 l -8.571595,-3.811303 5.45902,-9.499228 2.706152,3.440918 c 0.276287,0.307653 0.635995,0.568592 1.037747,0.730093 l 10.312742,3.013806 c 1.366089,0.296976 2.768217,-0.42244 3.305443,-1.741147 0.60463,-1.496225 -0.114786,-3.190656 -1.595662,-3.795954 -0.04672,-0.01535 -0.09877,-0.03137 -0.146153,-0.04671 l -8.962668,-2.64342 -6.741022,-8.097768 c -1.006381,-1.07379 -2.361793,-1.840589 -3.926089,-2.08551 -2.737518,-0.406424 -5.333555,0.896934 -6.704984,3.112575 l -7.491803,12.95149 z"
         id="path9" />
      <path
         style="fill:#008eff;fill-opacity:1"
         d="m 51.167518,96.127947 -0.656684,4.921793 -17.74248,4.31716 0.16684,3.04985 h 43.274408 c 1.527591,0 2.768217,-1.24063 2.768217,-2.77356 L 78.925764,47.321778 72.99759,45.935 l -3.404213,15.333972 -5.687924,2.393159 -5.051929,14.140062 4.791658,10.818602 -1.350073,4.155662 -11.127591,3.35149 z"
         id="path11" />
      <path
         style="fill:#008eff;fill-opacity:1"
         d="m 39.11363,55.809953 c 3.044504,0 5.516412,-2.47658 5.516412,-5.526423 0,-3.044505 -2.47124,-5.521084 -5.516412,-5.521084 -3.049844,0 -5.526423,2.476579 -5.526423,5.521084 0,3.049843 2.476579,5.526423 5.526423,5.526423 z"
         id="path13" />
      <path
         style="fill:#008eff;fill-opacity:1"
         d="m 28.122848,56.670182 c 0.422441,-0.745443 0.177519,-1.725798 -0.58928,-2.148238 l -2.669447,-1.564296 c -0.766131,-0.42244 -1.725798,-0.18219 -2.168926,0.583942 L 14.45261,67.765072 c -0.42244,0.750782 -0.177519,1.715119 0.58928,2.153576 l 2.684797,1.548279 c 0.750782,0.43779 1.70978,0.177519 2.153576,-0.573263 l 8.242585,-14.223482 z"
         id="path15" />
    </g>
  </g>
</svg>
