<?xml version="1.0" encoding="UTF-8" standalone="no"?>
<!-- Created with Inkscape (http://www.inkscape.org/) -->

<svg
   xmlns:dc="http://purl.org/dc/elements/1.1/"
   xmlns:cc="http://creativecommons.org/ns#"
   xmlns:rdf="http://www.w3.org/1999/02/22-rdf-syntax-ns#"
   xmlns:svg="http://www.w3.org/2000/svg"
   xmlns="http://www.w3.org/2000/svg"
   xmlns:sodipodi="http://sodipodi.sourceforge.net/DTD/sodipodi-0.dtd"
   xmlns:inkscape="http://www.inkscape.org/namespaces/inkscape"
   width="100"
   height="100"
   id="svg2"
   inkscape:label="Pozadí"
   sodipodi:version="0.32"
   inkscape:version="0.47 r22583"
   sodipodi:docname="accessorparkingfee.svg"
   inkscape:output_extension="org.inkscape.output.svg.inkscape"
   version="1.1">
  <defs
     id="defs2963">
    <inkscape:perspective
       sodipodi:type="inkscape:persp3d"
       inkscape:vp_x="0 : 526.18109 : 1"
       inkscape:vp_y="0 : 1000 : 0"
       inkscape:vp_z="744.09448 : 526.18109 : 1"
       inkscape:persp3d-origin="372.04724 : 350.78739 : 1"
       id="perspective346" />
    <inkscape:perspective
       id="perspective4464"
       inkscape:persp3d-origin="0.5 : 0.33333333 : 1"
       inkscape:vp_z="1 : 0.5 : 1"
       inkscape:vp_y="0 : 1000 : 0"
       inkscape:vp_x="0 : 0.5 : 1"
       sodipodi:type="inkscape:persp3d" />
    <inkscape:perspective
       id="perspective4512"
       inkscape:persp3d-origin="0.5 : 0.33333333 : 1"
       inkscape:vp_z="1 : 0.5 : 1"
       inkscape:vp_y="0 : 1000 : 0"
       inkscape:vp_x="0 : 0.5 : 1"
       sodipodi:type="inkscape:persp3d" />
    <inkscape:perspective
       id="perspective4512-4"
       inkscape:persp3d-origin="0.5 : 0.33333333 : 1"
       inkscape:vp_z="1 : 0.5 : 1"
       inkscape:vp_y="0 : 1000 : 0"
       inkscape:vp_x="0 : 0.5 : 1"
       sodipodi:type="inkscape:persp3d" />
    <inkscape:perspective
       id="perspective4919"
       inkscape:persp3d-origin="0.5 : 0.33333333 : 1"
       inkscape:vp_z="1 : 0.5 : 1"
       inkscape:vp_y="0 : 1000 : 0"
       inkscape:vp_x="0 : 0.5 : 1"
       sodipodi:type="inkscape:persp3d" />
    <inkscape:perspective
       id="perspective3698"
       inkscape:persp3d-origin="0.5 : 0.33333333 : 1"
       inkscape:vp_z="1 : 0.5 : 1"
       inkscape:vp_y="0 : 1000 : 0"
       inkscape:vp_x="0 : 0.5 : 1"
       sodipodi:type="inkscape:persp3d" />
  </defs>
  <sodipodi:namedview
     id="base"
     pagecolor="#ffffff"
     bordercolor="#666666"
     borderopacity="1.0"
     inkscape:pageopacity="0.0"
     inkscape:pageshadow="2"
     inkscape:zoom="2.4326811"
     inkscape:cx="51.290072"
     inkscape:cy="49.997045"
     inkscape:document-units="px"
     inkscape:current-layer="layer1"
     inkscape:window-width="1024"
     inkscape:window-height="549"
     inkscape:window-x="0"
     inkscape:window-y="0"
     showgrid="false"
     inkscape:window-maximized="1" />
  <metadata
     id="metadata2966">
    <rdf:RDF>
      <cc:Work
         rdf:about="">
        <dc:format>image/svg+xml</dc:format>
        <dc:type
           rdf:resource="http://purl.org/dc/dcmitype/StillImage" />
        <dc:title></dc:title>
      </cc:Work>
    </rdf:RDF>
  </metadata>
  <g
     inkscape:label="Vrstva 1"
     inkscape:groupmode="layer"
     id="layer1"
     transform="translate(0,-952.36218)">
    <rect
       style="fill:#ffffff;fill-opacity:1;stroke:#ffffff;stroke-width:1.99660146;stroke-linejoin:round;stroke-miterlimit:4;stroke-opacity:1;stroke-dasharray:none"
       id="rect4438-0-8"
       width="92.003395"
       height="92.003403"
       x="3.9550877"
       y="956.80017"
       rx="9.5836878"
       ry="9.5836878" />
    <rect
       style="fill:none;stroke:#008eff;stroke-width:4;stroke-linejoin:round;stroke-miterlimit:4;stroke-opacity:0.30000001;stroke-dasharray:none"
       id="rect4438"
       width="96"
       height="96"
       x="2.3964825"
       y="954.44861"
       rx="10"
       ry="10" />
    <rect
       style="fill:none;stroke:#008eff;stroke-width:5;stroke-linejoin:round;stroke-miterlimit:4;stroke-opacity:0.69999999999999996;stroke-dasharray:none"
       id="rect4438-57"
       width="92.159996"
       height="92.160004"
       x="3.8767693"
       y="955.92902"
       rx="9.5999994"
       ry="9.6000004" />
    <rect
       style="fill:none;stroke:#008eff;stroke-width:3.98613524;stroke-linejoin:round;stroke-miterlimit:4;stroke-opacity:0.3;stroke-dasharray:none"
       id="rect4438-5"
       width="88.013863"
       height="88.013863"
       x="5.7898545"
       y="958.55847"
       rx="9.1681108"
       ry="9.1681108" />
    <rect
       style="fill:none;stroke:#008eff;stroke-width:1.99660146;stroke-linejoin:round;stroke-miterlimit:4;stroke-opacity:1;stroke-dasharray:none"
       id="rect4438-0"
       width="92.003395"
       height="92.003403"
       x="4.2715678"
       y="956.08728"
       rx="9.5836878"
       ry="9.5836878" />
    <g
       id="g2840">
      <path
         style="fill:#008eff;fill-opacity:1;fill-rule:evenodd;stroke:none;overflow:visible"
         id="path113"
         d="m 81.18218,1009.7152 c -0.564111,0.1722 -1.292643,0.1392 -2.248274,-0.065 -0.971257,-0.2211 -1.856576,-1.2516 -3.470247,-1.1946 -1.652912,0.057 -3.987481,1.538 -6.243211,1.538 -2.287692,-0.049 -4.856996,-1.6035 -7.191383,-1.6035 -2.32658,0.017 -4.44168,1.6278 -6.67416,1.677 -2.27171,0.01 -4.53561,-1.505 -6.76026,-1.5377 -2.25609,-0.057 -4.39463,1.3419 -6.50192,1.3252 -2.07586,-0.041 -3.91681,-1.5299 -5.97705,-1.4645 -2.1151,0.082 -4.43387,1.718 -6.50192,1.8162 -2.08367,0.033 -3.97168,-1.5213 -5.81245,-1.538 -1.85639,-0.033 -3.94025,1.1371 -5.19365,1.399 -1.2534,0.2376 -2.04461,0.2621 -2.3422,0.074 v 4.3358 c 0.29759,0.1881 1.0888,0.1637 2.3422,-0.074 1.2534,-0.2619 3.33708,-1.4316 5.19365,-1.399 1.84095,0.017 3.72878,1.5707 5.81245,1.5377 2.06805,-0.082 4.38682,-1.7587 6.50192,-1.8161 2.06024,-0.082 3.90101,1.4399 5.97705,1.4725 2.10729,0.017 4.24583,-1.3739 6.50192,-1.3331 2.22465,0.033 4.48855,1.5457 6.76026,1.5379 2.23248,-0.049 4.34758,-1.6609 6.67416,-1.6773 2.334387,-0.01 4.903691,1.5709 7.191383,1.6121 2.25573,0 4.590477,-1.4812 6.243211,-1.5382 1.613671,-0.074 2.49899,0.9734 3.470247,1.1861 0.955631,0.2045 1.684163,0.2372 2.248274,0.065 v -4.3356 z" />
      <path
         style="fill:#008eff;fill-opacity:1;fill-rule:evenodd;stroke:none;overflow:visible"
         id="path115"
         d="m 44.058855,1007.4087 17.92298,-9.5631 c -1.40966,-3.0924 -2.40471,-5.4236 -2.98445,-7.0843 -0.59553,-1.6525 -0.84607,-2.0206 -0.50924,-2.806 0.34465,-0.8098 -0.13317,-0.9325 2.49118,-2.0041 2.62399,-1.1126 10.473238,-4.303 13.034729,-4.4584 2.506801,-0.1308 2.40506,2.6342 1.989923,3.5669 -0.454556,0.9078 -2.788945,1.1369 -4.559227,1.8569 -1.794072,0.6872 -3.768015,1.456 -6.047539,2.3069 l 8.201528,18.0461 c -1.057373,0.9079 -2.459749,1.26 -4.355386,1.1206 -1.927067,-0.1877 -4.496548,-2.0201 -6.893438,-2.0288 -2.38926,0.01 -5.11535,2.0537 -7.30077,2.0943 -2.1934,-0.01 -3.93243,-1.775 -5.76557,-1.9547 -1.84059,-0.1806 -3.57181,0.122 -5.22472,0.9077 z" />
      <path
         style="fill:#008eff;fill-opacity:1;fill-rule:evenodd;stroke:none;overflow:visible"
         id="path117"
         d="m 76.26002,991.7929 c 2.763199,0 5.005435,2.3417 5.005435,5.2272 0,2.88555 -2.242414,5.2272 -5.005435,5.2272 -2.763023,0 -5.005614,-2.34165 -5.005614,-5.2272 0,-2.8855 2.242414,-5.2272 5.005614,-5.2272" />
      <path
         style="fill:#008eff;fill-opacity:1;fill-rule:evenodd;stroke:none;overflow:visible"
         id="path119"
         d="m 31.963955,1007.7602 c -2.12292,-0.3927 -4.2849,-0.9975 -6.63492,-1.8162 -2.36581,-0.8667 -6.39999,-2.0287 -7.3558,-3.1658 -0.95563,-1.1697 -0.25853,-3.50935 1.66871,-3.61565 1.9347,-0.1064 5.77321,1.61155 9.76052,3.03505 3.96368,1.4074 8.49929,3.1661 13.84973,5.3666 -0.65804,0.3599 -1.52755,0.4744 -2.63997,0.3107 -1.12804,-0.1884 -2.55368,-1.2273 -4.00293,-1.2598 -1.45706,-0.025 -2.98462,0.3681 -4.64534,1.1451 z" />
      <path
         style="fill:#008eff;fill-opacity:1;fill-rule:evenodd;stroke:none;overflow:visible"
         id="path121"
         d="m 81.18218,1016.9717 c -0.564111,0.1552 -1.292643,0.1309 -2.248274,-0.074 -0.971257,-0.2125 -1.856576,-1.2601 -3.470247,-1.1864 -1.652912,0.057 -3.987481,1.5378 -6.243211,1.5378 -2.287692,-0.049 -4.856996,-1.6032 -7.191383,-1.6032 -2.32658,0.017 -4.44168,1.6281 -6.67416,1.6769 -2.27171,0.01 -4.53561,-1.505 -6.76026,-1.5379 -2.25609,-0.057 -4.39463,1.3417 -6.50192,1.3254 -2.07586,-0.041 -3.91681,-1.5299 -5.97705,-1.4644 -2.1151,0.082 -4.43387,1.7177 -6.50192,1.8163 -2.08367,0.032 -3.97168,-1.5219 -5.81245,-1.5382 -1.85639,-0.033 -3.94025,1.1371 -5.19365,1.399 -1.2534,0.2539 -2.04461,0.2454 -2.3422,0.065 v 4.3357 c 0.29759,0.1798 1.0888,0.1884 2.3422,-0.066 1.2534,-0.262 3.33708,-1.4315 5.19365,-1.399 1.84095,0.016 3.72878,1.5707 5.81245,1.5382 2.06805,-0.099 4.38682,-1.7345 6.50192,-1.8162 2.06024,-0.065 3.90101,1.4235 5.97705,1.4643 2.10729,0.016 4.24583,-1.3826 6.50192,-1.3253 2.22465,0.033 4.48855,1.5462 6.76026,1.5379 2.23248,-0.049 4.34758,-1.6609 6.67416,-1.6769 2.334387,0 4.903691,1.5544 7.191383,1.6032 2.25573,0 4.590477,-1.4807 6.243211,-1.5379 1.613671,-0.057 2.49899,0.9732 3.470247,1.1945 0.955631,0.2045 1.684163,0.2374 2.248274,0.066 v -4.3357 z" />
    </g>
  </g>
</svg>
