<?xml version="1.0" encoding="UTF-8" standalone="no"?>
<!-- Created with Inkscape (http://www.inkscape.org/) -->

<svg
   xmlns:dc="http://purl.org/dc/elements/1.1/"
   xmlns:cc="http://creativecommons.org/ns#"
   xmlns:rdf="http://www.w3.org/1999/02/22-rdf-syntax-ns#"
   xmlns:svg="http://www.w3.org/2000/svg"
   xmlns="http://www.w3.org/2000/svg"
   xmlns:sodipodi="http://sodipodi.sourceforge.net/DTD/sodipodi-0.dtd"
   xmlns:inkscape="http://www.inkscape.org/namespaces/inkscape"
   width="100"
   height="100"
   id="svg2"
   inkscape:label="Pozadí"
   sodipodi:version="0.32"
   inkscape:version="0.47 r22583"
   sodipodi:docname="bicycles.svg"
   inkscape:output_extension="org.inkscape.output.svg.inkscape"
   version="1.1">
  <defs
     id="defs2963">
    <inkscape:perspective
       sodipodi:type="inkscape:persp3d"
       inkscape:vp_x="0 : 526.18109 : 1"
       inkscape:vp_y="0 : 1000 : 0"
       inkscape:vp_z="744.09448 : 526.18109 : 1"
       inkscape:persp3d-origin="372.04724 : 350.78739 : 1"
       id="perspective346" />
    <inkscape:perspective
       id="perspective4464"
       inkscape:persp3d-origin="0.5 : 0.33333333 : 1"
       inkscape:vp_z="1 : 0.5 : 1"
       inkscape:vp_y="0 : 1000 : 0"
       inkscape:vp_x="0 : 0.5 : 1"
       sodipodi:type="inkscape:persp3d" />
    <inkscape:perspective
       id="perspective4512"
       inkscape:persp3d-origin="0.5 : 0.33333333 : 1"
       inkscape:vp_z="1 : 0.5 : 1"
       inkscape:vp_y="0 : 1000 : 0"
       inkscape:vp_x="0 : 0.5 : 1"
       sodipodi:type="inkscape:persp3d" />
    <inkscape:perspective
       id="perspective4512-4"
       inkscape:persp3d-origin="0.5 : 0.33333333 : 1"
       inkscape:vp_z="1 : 0.5 : 1"
       inkscape:vp_y="0 : 1000 : 0"
       inkscape:vp_x="0 : 0.5 : 1"
       sodipodi:type="inkscape:persp3d" />
    <inkscape:perspective
       id="perspective4919"
       inkscape:persp3d-origin="0.5 : 0.33333333 : 1"
       inkscape:vp_z="1 : 0.5 : 1"
       inkscape:vp_y="0 : 1000 : 0"
       inkscape:vp_x="0 : 0.5 : 1"
       sodipodi:type="inkscape:persp3d" />
    <inkscape:perspective
       id="perspective2838"
       inkscape:persp3d-origin="0.5 : 0.33333333 : 1"
       inkscape:vp_z="1 : 0.5 : 1"
       inkscape:vp_y="0 : 1000 : 0"
       inkscape:vp_x="0 : 0.5 : 1"
       sodipodi:type="inkscape:persp3d" />
    <inkscape:perspective
       id="perspective3621"
       inkscape:persp3d-origin="0.5 : 0.33333333 : 1"
       inkscape:vp_z="1 : 0.5 : 1"
       inkscape:vp_y="0 : 1000 : 0"
       inkscape:vp_x="0 : 0.5 : 1"
       sodipodi:type="inkscape:persp3d" />
    <inkscape:perspective
       id="perspective3721"
       inkscape:persp3d-origin="0.5 : 0.33333333 : 1"
       inkscape:vp_z="1 : 0.5 : 1"
       inkscape:vp_y="0 : 1000 : 0"
       inkscape:vp_x="0 : 0.5 : 1"
       sodipodi:type="inkscape:persp3d" />
  </defs>
  <sodipodi:namedview
     id="base"
     pagecolor="#ffffff"
     bordercolor="#666666"
     borderopacity="1.0"
     inkscape:pageopacity="0.0"
     inkscape:pageshadow="2"
     inkscape:zoom="2.52218"
     inkscape:cx="37.522054"
     inkscape:cy="43.761424"
     inkscape:document-units="px"
     inkscape:current-layer="layer1"
     inkscape:window-width="1024"
     inkscape:window-height="549"
     inkscape:window-x="0"
     inkscape:window-y="0"
     showgrid="false"
     inkscape:window-maximized="1" />
  <metadata
     id="metadata2966">
    <rdf:RDF>
      <cc:Work
         rdf:about="">
        <dc:format>image/svg+xml</dc:format>
        <dc:type
           rdf:resource="http://purl.org/dc/dcmitype/StillImage" />
        <dc:title></dc:title>
      </cc:Work>
    </rdf:RDF>
  </metadata>
  <g
     inkscape:label="Vrstva 1"
     inkscape:groupmode="layer"
     id="layer1"
     transform="translate(0,-952.36218)">
    <rect
       style="fill:#ffffff;fill-opacity:1;stroke:#ffffff;stroke-width:1.99660146;stroke-linejoin:round;stroke-miterlimit:4;stroke-opacity:1;stroke-dasharray:none"
       id="rect4438-0-8"
       width="92.003395"
       height="92.003403"
       x="3.9550877"
       y="956.80017"
       rx="9.5836878"
       ry="9.5836878" />
    <rect
       style="fill:none;stroke:#008eff;stroke-width:4;stroke-linejoin:round;stroke-miterlimit:4;stroke-opacity:0.30000001;stroke-dasharray:none"
       id="rect4438"
       width="96"
       height="96"
       x="2.3964825"
       y="954.44861"
       rx="10"
       ry="10" />
    <rect
       style="fill:none;stroke:#008eff;stroke-width:5;stroke-linejoin:round;stroke-miterlimit:4;stroke-opacity:0.69999999999999996;stroke-dasharray:none"
       id="rect4438-57"
       width="92.159996"
       height="92.160004"
       x="3.8767693"
       y="955.92902"
       rx="9.5999994"
       ry="9.6000004" />
    <rect
       style="fill:none;stroke:#008eff;stroke-width:3.98613524;stroke-linejoin:round;stroke-miterlimit:4;stroke-opacity:0.3;stroke-dasharray:none"
       id="rect4438-5"
       width="88.013863"
       height="88.013863"
       x="5.7898545"
       y="958.55847"
       rx="9.1681108"
       ry="9.1681108" />
    <rect
       style="fill:none;stroke:#008eff;stroke-width:1.99660146;stroke-linejoin:round;stroke-miterlimit:4;stroke-opacity:1;stroke-dasharray:none"
       id="rect4438-0"
       width="92.003395"
       height="92.003403"
       x="4.2715678"
       y="956.08728"
       rx="9.5836878"
       ry="9.5836878" />
    <path
       d="m 50.993056,983.78825 c 10.961288,0 19.857645,8.89617 19.857645,19.85745 0,10.9612 -8.896357,19.8574 -19.857645,19.8574 -10.961456,0 -19.857304,-8.8962 -19.857304,-19.8574 0,-10.96145 8.896017,-19.85745 19.857304,-19.85745"
       id="path99"
       style="fill:#008eff;fill-opacity:1;fill-rule:evenodd;overflow:visible" />
    <path
       d="m 50.972897,985.76423 c 9.870461,0 17.881655,8.01101 17.881655,17.88147 0,9.8704 -8.011194,17.8814 -17.881655,17.8814 -9.870631,0 -17.881656,-8.0108 -17.881656,-17.8814 0,-9.87063 8.011025,-17.88147 17.881656,-17.88147"
       id="path101"
       style="fill:#ffffff;fill-opacity:1;fill-rule:evenodd;overflow:visible" />
    <path
       d="m 50.993056,987.47797 c 8.924819,0 16.168081,7.24308 16.168081,16.16773 0,8.9246 -7.243262,16.1677 -16.168081,16.1677 -8.924479,0 -16.16774,-7.2431 -16.16774,-16.1677 0,-8.92465 7.243261,-16.16773 16.16774,-16.16773"
       id="path103"
       style="fill:#008eff;fill-opacity:1;fill-rule:evenodd;overflow:visible" />
    <path
       d="m 50.993056,988.62453 c 8.291737,0 15.021181,6.72943 15.021181,15.02117 0,8.2915 -6.729444,15.0211 -15.021181,15.0211 -8.291567,0 -15.021009,-6.7296 -15.021009,-15.0211 0,-8.29174 6.729613,-15.02117 15.021009,-15.02117"
       id="path105"
       style="fill:#ffffff;fill-opacity:1;fill-rule:evenodd;overflow:visible" />
    <path
       d="m 26.940249,996.11105 c 0,1.31122 -1.201449,2.72613 -2.756458,2.72613 v 22.20542 c 0,3.1531 -4.293677,3.1531 -4.293677,0 v -22.20542 c -1.512486,0 -2.829812,-1.17096 -2.829812,-2.91519 v -12.22183 c 0,-1.06118 1.536881,-1.10387 1.536881,0.0427 v 9.0322 h 1.286832 v -9.11759 c 0,-0.97579 1.476063,-1.03678 1.476063,0.0427 v 9.07489 h 1.335454 v -9.10539 c 0,-1.01848 1.433371,-1.06118 1.433371,0.0427 v 9.0627 h 1.311227 v -9.10539 c 0,-1.00629 1.500119,-1.04898 1.500119,0.0427 v 12.3987 z"
       id="path107"
       style="fill:#008eff;fill-opacity:1;fill-rule:evenodd;overflow:visible" />
    <path
       d="m 82.0603,986.54216 0,34.48824 c 0,3.0799 -4.29943,3.0372 -4.29943,0 l 0,-18.9807 -2.2933,0 0,-15.50754 c 0,-4.84238 6.59273,-4.84238 6.59273,0 z"
       id="path109"
       style="fill:#008eff;fill-opacity:1;fill-rule:evenodd;overflow:visible"
       sodipodi:nodetypes="ccccccc" />
    <path
       d="m 22.061094,995.69024 h -0.259027 c -0.570909,0 -1.033735,0.46282 -1.033735,1.03373 v 24.63273 c 0,0.5709 0.462656,1.0337 1.033735,1.0337 h 0.518562 c 0.570739,0 1.033734,-0.4626 1.033734,-1.0337 v -24.63273 c 0,-0.57091 -0.462825,-1.03373 -1.033734,-1.03373 h -0.259535 z"
       id="path111"
       style="fill:#008eff;fill-opacity:1;fill-rule:evenodd;overflow:visible" />
    <path
       d="m 79.35004,1002.8501 h -0.25936 c -0.57074,0 -1.03374,0.3385 -1.03374,0.7563 v 18.0278 c 0,0.4178 0.46283,0.7562 1.03374,0.7562 h 0.51856 c 0.57108,0 1.03374,-0.3384 1.03374,-0.7562 v -18.0278 c 0,-0.4178 -0.46249,-0.7563 -1.03374,-0.7563 h -0.2592 z"
       id="path113"
       style="fill:#008eff;fill-opacity:1;fill-rule:evenodd;overflow:visible" />
  </g>
</svg>
