<?xml version="1.0" encoding="UTF-8" standalone="no"?>
<!-- Created with Inkscape (http://www.inkscape.org/) -->

<svg
   xmlns:dc="http://purl.org/dc/elements/1.1/"
   xmlns:cc="http://creativecommons.org/ns#"
   xmlns:rdf="http://www.w3.org/1999/02/22-rdf-syntax-ns#"
   xmlns:svg="http://www.w3.org/2000/svg"
   xmlns="http://www.w3.org/2000/svg"
   xmlns:sodipodi="http://sodipodi.sourceforge.net/DTD/sodipodi-0.dtd"
   xmlns:inkscape="http://www.inkscape.org/namespaces/inkscape"
   width="100"
   height="100"
   id="svg2"
   inkscape:label="Pozadí"
   sodipodi:version="0.32"
   inkscape:version="0.47 r22583"
   sodipodi:docname="winter.svg"
   inkscape:output_extension="org.inkscape.output.svg.inkscape"
   version="1.1">
  <defs
     id="defs2963">
    <inkscape:perspective
       sodipodi:type="inkscape:persp3d"
       inkscape:vp_x="0 : 526.18109 : 1"
       inkscape:vp_y="0 : 1000 : 0"
       inkscape:vp_z="744.09448 : 526.18109 : 1"
       inkscape:persp3d-origin="372.04724 : 350.78739 : 1"
       id="perspective346" />
    <inkscape:perspective
       id="perspective4464"
       inkscape:persp3d-origin="0.5 : 0.33333333 : 1"
       inkscape:vp_z="1 : 0.5 : 1"
       inkscape:vp_y="0 : 1000 : 0"
       inkscape:vp_x="0 : 0.5 : 1"
       sodipodi:type="inkscape:persp3d" />
    <inkscape:perspective
       id="perspective4512"
       inkscape:persp3d-origin="0.5 : 0.33333333 : 1"
       inkscape:vp_z="1 : 0.5 : 1"
       inkscape:vp_y="0 : 1000 : 0"
       inkscape:vp_x="0 : 0.5 : 1"
       sodipodi:type="inkscape:persp3d" />
    <inkscape:perspective
       id="perspective4512-4"
       inkscape:persp3d-origin="0.5 : 0.33333333 : 1"
       inkscape:vp_z="1 : 0.5 : 1"
       inkscape:vp_y="0 : 1000 : 0"
       inkscape:vp_x="0 : 0.5 : 1"
       sodipodi:type="inkscape:persp3d" />
    <inkscape:perspective
       id="perspective4919"
       inkscape:persp3d-origin="0.5 : 0.33333333 : 1"
       inkscape:vp_z="1 : 0.5 : 1"
       inkscape:vp_y="0 : 1000 : 0"
       inkscape:vp_x="0 : 0.5 : 1"
       sodipodi:type="inkscape:persp3d" />
    <inkscape:perspective
       id="perspective3677"
       inkscape:persp3d-origin="0.5 : 0.33333333 : 1"
       inkscape:vp_z="1 : 0.5 : 1"
       inkscape:vp_y="0 : 1000 : 0"
       inkscape:vp_x="0 : 0.5 : 1"
       sodipodi:type="inkscape:persp3d" />
  </defs>
  <sodipodi:namedview
     id="base"
     pagecolor="#ffffff"
     bordercolor="#666666"
     borderopacity="1.0"
     inkscape:pageopacity="0.0"
     inkscape:pageshadow="2"
     inkscape:zoom="2.52218"
     inkscape:cx="45.33935"
     inkscape:cy="55.863955"
     inkscape:document-units="px"
     inkscape:current-layer="layer1"
     inkscape:window-width="1024"
     inkscape:window-height="549"
     inkscape:window-x="0"
     inkscape:window-y="0"
     showgrid="false"
     inkscape:window-maximized="1" />
  <metadata
     id="metadata2966">
    <rdf:RDF>
      <cc:Work
         rdf:about="">
        <dc:format>image/svg+xml</dc:format>
        <dc:type
           rdf:resource="http://purl.org/dc/dcmitype/StillImage" />
        <dc:title></dc:title>
      </cc:Work>
    </rdf:RDF>
  </metadata>
  <g
     inkscape:label="Vrstva 1"
     inkscape:groupmode="layer"
     id="layer1"
     transform="translate(0,-952.36218)">
    <rect
       style="fill:#ffffff;fill-opacity:1;stroke:#ffffff;stroke-width:1.99660146;stroke-linejoin:round;stroke-miterlimit:4;stroke-opacity:1;stroke-dasharray:none"
       id="rect4438-0-8"
       width="92.003395"
       height="92.003403"
       x="3.9550877"
       y="956.80017"
       rx="9.5836878"
       ry="9.5836878" />
    <rect
       style="fill:none;stroke:#008eff;stroke-width:4;stroke-linejoin:round;stroke-miterlimit:4;stroke-opacity:0.30000001;stroke-dasharray:none"
       id="rect4438"
       width="96"
       height="96"
       x="2.3964825"
       y="954.44861"
       rx="10"
       ry="10" />
    <rect
       style="fill:none;stroke:#008eff;stroke-width:5;stroke-linejoin:round;stroke-miterlimit:4;stroke-opacity:0.69999999999999996;stroke-dasharray:none"
       id="rect4438-57"
       width="92.159996"
       height="92.160004"
       x="3.8767693"
       y="955.92902"
       rx="9.5999994"
       ry="9.6000004" />
    <rect
       style="fill:none;stroke:#008eff;stroke-width:3.98613524;stroke-linejoin:round;stroke-miterlimit:4;stroke-opacity:0.3;stroke-dasharray:none"
       id="rect4438-5"
       width="88.013863"
       height="88.013863"
       x="5.7898545"
       y="958.55847"
       rx="9.1681108"
       ry="9.1681108" />
    <rect
       style="fill:none;stroke:#008eff;stroke-width:1.99660146;stroke-linejoin:round;stroke-miterlimit:4;stroke-opacity:1;stroke-dasharray:none"
       id="rect4438-0"
       width="92.003395"
       height="92.003403"
       x="4.2715678"
       y="956.08728"
       rx="9.5836878"
       ry="9.5836878" />
    <g
       id="g3878"
       transform="matrix(0.13971345,0,0,0.13971345,42.158344,1143.0268)"
       style="fill:#008eff;fill-opacity:1">
      <path
         transform="matrix(1.1303935,0,0,0.9733944,508.3038,-1720.9754)"
         d="m -315.65826,724.34174 c 0,16.42931 -11.46878,29.7479 -25.61625,29.7479 -14.14746,0 -25.61624,-13.31859 -25.61624,-29.7479 0,-16.42932 11.46878,-29.7479 25.61624,-29.7479 14.14747,0 25.61625,13.31858 25.61625,29.7479 z"
         sodipodi:ry="29.7479"
         sodipodi:rx="25.616247"
         sodipodi:cy="724.34174"
         sodipodi:cx="-341.27451"
         id="path3871"
         style="fill:#008eff;fill-opacity:1;stroke:#ffffff;stroke-opacity:1"
         sodipodi:type="arc" />
      <path
         sodipodi:nodetypes="cccc"
         id="rect3842"
         d="m -772.73264,-1266.223 11.6681,267.53313 -73.23766,-51.96763 -10.86713,-257.3514"
         style="fill:#008eff;fill-opacity:1;stroke:#ffffff;stroke-width:1.10854423;stroke-miterlimit:4;stroke-opacity:1;stroke-dasharray:none"
         transform="matrix(0.9887265,0.1497325,-0.7177159,0.6963361,0,0)" />
      <g
         transform="matrix(1.2869529,0,0,1.2869529,59.292761,61.5631)"
         id="g3850"
         style="fill:#008eff;fill-opacity:1">
        <path
           sodipodi:type="arc"
           style="fill:#008eff;fill-opacity:1;stroke:none"
           id="path3848"
           sodipodi:cx="-341.27451"
           sodipodi:cy="724.34174"
           sodipodi:rx="25.616247"
           sodipodi:ry="29.7479"
           d="m -315.65826,724.34174 c 0,16.42931 -11.46878,29.7479 -25.61625,29.7479 -14.14746,0 -25.61624,-13.31859 -25.61624,-29.7479 0,-16.42932 11.46878,-29.7479 25.61624,-29.7479 14.14747,0 25.61625,13.31858 25.61625,29.7479 z"
           transform="matrix(0.8783488,0,0,0.7563559,213.82035,-1244.1261)" />
        <path
           sodipodi:type="spiral"
           style="fill:#008eff;fill-opacity:1;stroke:#ffffff;stroke-width:1px;stroke-linecap:butt;stroke-linejoin:miter;stroke-opacity:1"
           id="path3834"
           sodipodi:cx="-428.03922"
           sodipodi:cy="41.792717"
           sodipodi:expansion="2.7"
           sodipodi:revolution="7.3600001"
           sodipodi:radius="31.046087"
           sodipodi:argument="-17.84549"
           sodipodi:t0="0.2"
           d="m -428.31142,41.496191 c 0.15136,-0.250176 0.49692,-0.269898 0.7251,-0.119225 0.3566,0.235461 0.37897,0.738881 0.14661,1.068822 -0.34343,0.487648 -1.04484,0.511916 -1.50091,0.174399 -0.64543,-0.477649 -0.67062,-1.420906 -0.2021,-2.029575 0.64039,-0.831946 1.87298,-0.856922 2.66273,-0.22923 1.04916,0.833872 1.07259,2.406775 0.25535,3.408047 -1.06023,1.298978 -3.02782,1.319364 -4.27296,0.280032 -1.58326,-1.321556 -1.59894,-3.741516 -0.30288,-5.264737 1.61988,-1.9038 4.55311,-1.912968 6.39044,-0.323505 2.26239,1.957189 2.26308,5.467764 0.34154,7.657 -2.33543,2.660782 -6.4905,2.650865 -9.07119,0.356618 -3.10067,-2.756501 -3.07789,-7.626235 -0.3684,-10.639653 3.22228,-3.583729 8.87983,-3.545694 12.36892,-0.376547 4.11162,3.734603 4.05579,10.256056 0.38073,14.265403 -4.29528,4.685971 -11.75958,4.609675 -16.33541,0.380627 -5.30838,-4.906072 -5.20882,-13.394998 -0.37593,-18.585157 5.56875,-5.980422 15.16687,-5.854657 21.02076,-0.366326 6.70366,6.285031 6.54864,17.079664 0.35152,23.648268 -7.05662,7.479635 -19.1378,7.292165 -26.47362,0.331221 -8.30986,-7.885203 -8.08664,-21.345632 -0.30514,-29.502718 8.77243,-9.19584 23.70747,-8.933441 32.74135,-0.272981 10.13906,9.71995 9.83394,26.227566 0.23448,36.195269 -10.72938,11.140977 -28.91012,10.789462 -39.87014,0.189357 -6.35673,-6.147981 -9.65763,-14.996379 -9.07474,-23.801719"
           transform="matrix(-0.73672,-0.098073,0.0882615,-0.8186165,-406.98588,-701.40566)" />
      </g>
    </g>
    <g
       id="g3885"
       transform="matrix(-0.13971345,0,0,0.13971345,56.076324,1142.3243)"
       style="fill:#008eff;fill-opacity:1">
      <path
         transform="matrix(1.1303935,0,0,0.9733944,508.3038,-1720.9754)"
         d="m -315.65826,724.34174 c 0,16.42931 -11.46878,29.7479 -25.61625,29.7479 -14.14746,0 -25.61624,-13.31859 -25.61624,-29.7479 0,-16.42932 11.46878,-29.7479 25.61624,-29.7479 14.14747,0 25.61625,13.31858 25.61625,29.7479 z"
         sodipodi:ry="29.7479"
         sodipodi:rx="25.616247"
         sodipodi:cy="724.34174"
         sodipodi:cx="-341.27451"
         id="path3887"
         style="fill:#008eff;fill-opacity:1;stroke:#ffffff;stroke-opacity:1"
         sodipodi:type="arc" />
      <path
         sodipodi:nodetypes="cccc"
         id="path3889"
         d="m -772.73264,-1266.223 11.6681,267.53313 -73.23766,-51.96763 -10.86713,-257.3514"
         style="fill:#008eff;fill-opacity:1;stroke:#ffffff;stroke-width:1.10854423;stroke-miterlimit:4;stroke-opacity:1;stroke-dasharray:none"
         transform="matrix(0.9887265,0.1497325,-0.7177159,0.6963361,0,0)" />
      <g
         transform="matrix(1.2869529,0,0,1.2869529,59.292761,61.5631)"
         id="g3891"
         style="fill:#008eff;fill-opacity:1">
        <path
           sodipodi:type="arc"
           style="fill:#008eff;fill-opacity:1;stroke:none"
           id="path3893"
           sodipodi:cx="-341.27451"
           sodipodi:cy="724.34174"
           sodipodi:rx="25.616247"
           sodipodi:ry="29.7479"
           d="m -315.65826,724.34174 c 0,16.42931 -11.46878,29.7479 -25.61625,29.7479 -14.14746,0 -25.61624,-13.31859 -25.61624,-29.7479 0,-16.42932 11.46878,-29.7479 25.61624,-29.7479 14.14747,0 25.61625,13.31858 25.61625,29.7479 z"
           transform="matrix(0.8783488,0,0,0.7563559,213.82035,-1244.1261)" />
        <path
           sodipodi:type="spiral"
           style="fill:#008eff;fill-opacity:1;stroke:#ffffff;stroke-width:1px;stroke-linecap:butt;stroke-linejoin:miter;stroke-opacity:1"
           id="path3895"
           sodipodi:cx="-428.03922"
           sodipodi:cy="41.792717"
           sodipodi:expansion="2.7"
           sodipodi:revolution="7.3600001"
           sodipodi:radius="31.046087"
           sodipodi:argument="-17.84549"
           sodipodi:t0="0.2"
           d="m -428.31142,41.496191 c 0.15136,-0.250176 0.49692,-0.269898 0.7251,-0.119225 0.3566,0.235461 0.37897,0.738881 0.14661,1.068822 -0.34343,0.487648 -1.04484,0.511916 -1.50091,0.174399 -0.64543,-0.477649 -0.67062,-1.420906 -0.2021,-2.029575 0.64039,-0.831946 1.87298,-0.856922 2.66273,-0.22923 1.04916,0.833872 1.07259,2.406775 0.25535,3.408047 -1.06023,1.298978 -3.02782,1.319364 -4.27296,0.280032 -1.58326,-1.321556 -1.59894,-3.741516 -0.30288,-5.264737 1.61988,-1.9038 4.55311,-1.912968 6.39044,-0.323505 2.26239,1.957189 2.26308,5.467764 0.34154,7.657 -2.33543,2.660782 -6.4905,2.650865 -9.07119,0.356618 -3.10067,-2.756501 -3.07789,-7.626235 -0.3684,-10.639653 3.22228,-3.583729 8.87983,-3.545694 12.36892,-0.376547 4.11162,3.734603 4.05579,10.256056 0.38073,14.265403 -4.29528,4.685971 -11.75958,4.609675 -16.33541,0.380627 -5.30838,-4.906072 -5.20882,-13.394998 -0.37593,-18.585157 5.56875,-5.980422 15.16687,-5.854657 21.02076,-0.366326 6.70366,6.285031 6.54864,17.079664 0.35152,23.648268 -7.05662,7.479635 -19.1378,7.292165 -26.47362,0.331221 -8.30986,-7.885203 -8.08664,-21.345632 -0.30514,-29.502718 8.77243,-9.19584 23.70747,-8.933441 32.74135,-0.272981 10.13906,9.71995 9.83394,26.227566 0.23448,36.195269 -10.72938,11.140977 -28.91012,10.789462 -39.87014,0.189357 -6.35673,-6.147981 -9.65763,-14.996379 -9.07474,-23.801719"
           transform="matrix(-0.73672,-0.098073,0.0882615,-0.8186165,-406.98588,-701.40566)" />
      </g>
    </g>
    <g
       id="g3897"
       transform="matrix(-0.10058088,-0.09697081,-0.09697081,0.10058088,-37.227866,1111.1282)"
       style="fill:#008eff;fill-opacity:1">
      <path
         transform="matrix(1.1303935,0,0,0.9733944,508.3038,-1720.9754)"
         d="m -315.65826,724.34174 c 0,16.42931 -11.46878,29.7479 -25.61625,29.7479 -14.14746,0 -25.61624,-13.31859 -25.61624,-29.7479 0,-16.42932 11.46878,-29.7479 25.61624,-29.7479 14.14747,0 25.61625,13.31858 25.61625,29.7479 z"
         sodipodi:ry="29.7479"
         sodipodi:rx="25.616247"
         sodipodi:cy="724.34174"
         sodipodi:cx="-341.27451"
         id="path3899"
         style="fill:#008eff;fill-opacity:1;stroke:#ffffff;stroke-opacity:1"
         sodipodi:type="arc" />
      <path
         sodipodi:nodetypes="cccc"
         id="path3901"
         d="m -772.73264,-1266.223 11.6681,267.53313 -73.23766,-51.96763 -10.86713,-257.3514"
         style="fill:#008eff;fill-opacity:1;stroke:#ffffff;stroke-width:1.10854423;stroke-miterlimit:4;stroke-opacity:1;stroke-dasharray:none"
         transform="matrix(0.9887265,0.1497325,-0.7177159,0.6963361,0,0)" />
      <g
         transform="matrix(1.2869529,0,0,1.2869529,59.292761,61.5631)"
         id="g3903"
         style="fill:#008eff;fill-opacity:1">
        <path
           sodipodi:type="arc"
           style="fill:#008eff;fill-opacity:1;stroke:none"
           id="path3905"
           sodipodi:cx="-341.27451"
           sodipodi:cy="724.34174"
           sodipodi:rx="25.616247"
           sodipodi:ry="29.7479"
           d="m -315.65826,724.34174 c 0,16.42931 -11.46878,29.7479 -25.61625,29.7479 -14.14746,0 -25.61624,-13.31859 -25.61624,-29.7479 0,-16.42932 11.46878,-29.7479 25.61624,-29.7479 14.14747,0 25.61625,13.31858 25.61625,29.7479 z"
           transform="matrix(0.8783488,0,0,0.7563559,213.82035,-1244.1261)" />
        <path
           sodipodi:type="spiral"
           style="fill:#008eff;fill-opacity:1;stroke:#ffffff;stroke-width:1px;stroke-linecap:butt;stroke-linejoin:miter;stroke-opacity:1"
           id="path3907"
           sodipodi:cx="-428.03922"
           sodipodi:cy="41.792717"
           sodipodi:expansion="2.7"
           sodipodi:revolution="7.3600001"
           sodipodi:radius="31.046087"
           sodipodi:argument="-17.84549"
           sodipodi:t0="0.2"
           d="m -428.31142,41.496191 c 0.15136,-0.250176 0.49692,-0.269898 0.7251,-0.119225 0.3566,0.235461 0.37897,0.738881 0.14661,1.068822 -0.34343,0.487648 -1.04484,0.511916 -1.50091,0.174399 -0.64543,-0.477649 -0.67062,-1.420906 -0.2021,-2.029575 0.64039,-0.831946 1.87298,-0.856922 2.66273,-0.22923 1.04916,0.833872 1.07259,2.406775 0.25535,3.408047 -1.06023,1.298978 -3.02782,1.319364 -4.27296,0.280032 -1.58326,-1.321556 -1.59894,-3.741516 -0.30288,-5.264737 1.61988,-1.9038 4.55311,-1.912968 6.39044,-0.323505 2.26239,1.957189 2.26308,5.467764 0.34154,7.657 -2.33543,2.660782 -6.4905,2.650865 -9.07119,0.356618 -3.10067,-2.756501 -3.07789,-7.626235 -0.3684,-10.639653 3.22228,-3.583729 8.87983,-3.545694 12.36892,-0.376547 4.11162,3.734603 4.05579,10.256056 0.38073,14.265403 -4.29528,4.685971 -11.75958,4.609675 -16.33541,0.380627 -5.30838,-4.906072 -5.20882,-13.394998 -0.37593,-18.585157 5.56875,-5.980422 15.16687,-5.854657 21.02076,-0.366326 6.70366,6.285031 6.54864,17.079664 0.35152,23.648268 -7.05662,7.479635 -19.1378,7.292165 -26.47362,0.331221 -8.30986,-7.885203 -8.08664,-21.345632 -0.30514,-29.502718 8.77243,-9.19584 23.70747,-8.933441 32.74135,-0.272981 10.13906,9.71995 9.83394,26.227566 0.23448,36.195269 -10.72938,11.140977 -28.91012,10.789462 -39.87014,0.189357 -6.35673,-6.147981 -9.65763,-14.996379 -9.07474,-23.801719"
           transform="matrix(-0.73672,-0.098073,0.0882615,-0.8186165,-406.98588,-701.40566)" />
      </g>
    </g>
    <path
       style="fill:#008eff;fill-opacity:1;stroke:#ffffff;stroke-width:0.15755902;stroke-opacity:1"
       d="m 47.210734,971.29748 c 2.53615,12.0941 0.22832,18.4728 -3.37055,22.4249 -1.68722,-3.0897 -4.16304,-6.5944 -7.80936,-10.7303 4.4593,22.38362 -11.80915,19.04782 -11.80915,25.91382 0,6.8661 5.19276,12.4401 11.59453,12.4401 1.6287,0 3.17826,-0.363 4.58513,-1.0139 1.99208,0.9035 4.19676,1.4066 6.51674,1.4066 3.08941,0 5.97427,-0.8926 8.42395,-2.4354 1.95451,1.6087 4.40102,2.5646 7.0533,2.5646 6.40177,0 11.59452,-5.5691 11.59452,-12.4352 0,-6.8659 -0.5108,-13.57992 -11.38478,-25.91382 1.21923,6.12 0.8896,10.3158 -0.23413,13.3247 -1.2011,-6.6566 -4.75555,-14.3343 -15.1602,-25.5461 z"
       id="path3826" />
    <path
       style="fill:#ffffff;fill-opacity:1;stroke:#000000;stroke-width:0.06087894;stroke-opacity:1"
       d="m 47.522264,1000.1275 c 0.97993,4.673 0.0882,7.1376 -1.30235,8.6647 -0.65192,-1.1938 -1.60854,-2.548 -3.01744,-4.1461 1.72302,8.6489 -4.56292,7.3599 -4.56292,10.0129 0,2.6529 1.56269,5.4908 3.91056,6.2561 4.45984,1.4538 9.49767,0.2906 12.36639,-1.4807 2.08287,-1.2861 2.95289,-1.9189 2.95289,-4.5719 0,-2.6529 -0.19737,-5.2471 -4.39895,-10.0128 0.4711,2.3647 0.34373,3.9859 -0.0905,5.1485 -0.46409,-2.572 -1.83749,-5.5386 -5.85772,-9.8707 z"
       id="path3918"
       sodipodi:nodetypes="cccssssccc" />
  </g>
</svg>
