<?xml version="1.0" encoding="UTF-8" standalone="no"?>
<!-- Created with Inkscape (http://www.inkscape.org/) -->

<svg
   xmlns:dc="http://purl.org/dc/elements/1.1/"
   xmlns:cc="http://creativecommons.org/ns#"
   xmlns:rdf="http://www.w3.org/1999/02/22-rdf-syntax-ns#"
   xmlns:svg="http://www.w3.org/2000/svg"
   xmlns="http://www.w3.org/2000/svg"
   xmlns:sodipodi="http://sodipodi.sourceforge.net/DTD/sodipodi-0.dtd"
   xmlns:inkscape="http://www.inkscape.org/namespaces/inkscape"
   width="100"
   height="100"
   id="svg2"
   inkscape:label="Pozadí"
   sodipodi:version="0.32"
   inkscape:version="0.47 r22583"
   sodipodi:docname="dog.svg"
   inkscape:output_extension="org.inkscape.output.svg.inkscape"
   version="1.1">
  <defs
     id="defs2963">
    <inkscape:perspective
       sodipodi:type="inkscape:persp3d"
       inkscape:vp_x="0 : 526.18109 : 1"
       inkscape:vp_y="0 : 1000 : 0"
       inkscape:vp_z="744.09448 : 526.18109 : 1"
       inkscape:persp3d-origin="372.04724 : 350.78739 : 1"
       id="perspective346" />
    <inkscape:perspective
       id="perspective4464"
       inkscape:persp3d-origin="0.5 : 0.33333333 : 1"
       inkscape:vp_z="1 : 0.5 : 1"
       inkscape:vp_y="0 : 1000 : 0"
       inkscape:vp_x="0 : 0.5 : 1"
       sodipodi:type="inkscape:persp3d" />
    <inkscape:perspective
       id="perspective4512"
       inkscape:persp3d-origin="0.5 : 0.33333333 : 1"
       inkscape:vp_z="1 : 0.5 : 1"
       inkscape:vp_y="0 : 1000 : 0"
       inkscape:vp_x="0 : 0.5 : 1"
       sodipodi:type="inkscape:persp3d" />
    <inkscape:perspective
       id="perspective4512-4"
       inkscape:persp3d-origin="0.5 : 0.33333333 : 1"
       inkscape:vp_z="1 : 0.5 : 1"
       inkscape:vp_y="0 : 1000 : 0"
       inkscape:vp_x="0 : 0.5 : 1"
       sodipodi:type="inkscape:persp3d" />
    <inkscape:perspective
       id="perspective4919"
       inkscape:persp3d-origin="0.5 : 0.33333333 : 1"
       inkscape:vp_z="1 : 0.5 : 1"
       inkscape:vp_y="0 : 1000 : 0"
       inkscape:vp_x="0 : 0.5 : 1"
       sodipodi:type="inkscape:persp3d" />
    <inkscape:perspective
       id="perspective2838"
       inkscape:persp3d-origin="0.5 : 0.33333333 : 1"
       inkscape:vp_z="1 : 0.5 : 1"
       inkscape:vp_y="0 : 1000 : 0"
       inkscape:vp_x="0 : 0.5 : 1"
       sodipodi:type="inkscape:persp3d" />
    <inkscape:perspective
       id="perspective3621"
       inkscape:persp3d-origin="0.5 : 0.33333333 : 1"
       inkscape:vp_z="1 : 0.5 : 1"
       inkscape:vp_y="0 : 1000 : 0"
       inkscape:vp_x="0 : 0.5 : 1"
       sodipodi:type="inkscape:persp3d" />
  </defs>
  <sodipodi:namedview
     id="base"
     pagecolor="#ffffff"
     bordercolor="#666666"
     borderopacity="1.0"
     inkscape:pageopacity="0.0"
     inkscape:pageshadow="2"
     inkscape:zoom="2.52218"
     inkscape:cx="37.522054"
     inkscape:cy="43.761424"
     inkscape:document-units="px"
     inkscape:current-layer="layer1"
     inkscape:window-width="1024"
     inkscape:window-height="549"
     inkscape:window-x="0"
     inkscape:window-y="0"
     showgrid="false"
     inkscape:window-maximized="1" />
  <metadata
     id="metadata2966">
    <rdf:RDF>
      <cc:Work
         rdf:about="">
        <dc:format>image/svg+xml</dc:format>
        <dc:type
           rdf:resource="http://purl.org/dc/dcmitype/StillImage" />
        <dc:title></dc:title>
      </cc:Work>
    </rdf:RDF>
  </metadata>
  <g
     inkscape:label="Vrstva 1"
     inkscape:groupmode="layer"
     id="layer1"
     transform="translate(0,-952.36218)">
    <rect
       style="fill:#ffffff;fill-opacity:1;stroke:#ffffff;stroke-width:1.99660146;stroke-linejoin:round;stroke-miterlimit:4;stroke-opacity:1;stroke-dasharray:none"
       id="rect4438-0-8"
       width="92.003395"
       height="92.003403"
       x="3.9550877"
       y="956.80017"
       rx="9.5836878"
       ry="9.5836878" />
    <rect
       style="fill:none;stroke:#008eff;stroke-width:4;stroke-linejoin:round;stroke-miterlimit:4;stroke-opacity:0.30000001;stroke-dasharray:none"
       id="rect4438"
       width="96"
       height="96"
       x="2.3964825"
       y="954.44861"
       rx="10"
       ry="10" />
    <rect
       style="fill:none;stroke:#008eff;stroke-width:5;stroke-linejoin:round;stroke-miterlimit:4;stroke-opacity:0.69999999999999996;stroke-dasharray:none"
       id="rect4438-57"
       width="92.159996"
       height="92.160004"
       x="3.8767693"
       y="955.92902"
       rx="9.5999994"
       ry="9.6000004" />
    <rect
       style="fill:none;stroke:#008eff;stroke-width:3.98613524;stroke-linejoin:round;stroke-miterlimit:4;stroke-opacity:0.3;stroke-dasharray:none"
       id="rect4438-5"
       width="88.013863"
       height="88.013863"
       x="5.7898545"
       y="958.55847"
       rx="9.1681108"
       ry="9.1681108" />
    <rect
       style="fill:none;stroke:#008eff;stroke-width:1.99660146;stroke-linejoin:round;stroke-miterlimit:4;stroke-opacity:1;stroke-dasharray:none"
       id="rect4438-0"
       width="92.003395"
       height="92.003403"
       x="4.2715678"
       y="956.08728"
       rx="9.5836878"
       ry="9.5836878" />
    <path
       style="fill:none;stroke:#008eff;stroke-width:2.81725717;stroke-linecap:butt;stroke-linejoin:round;stroke-opacity:1;stroke-dasharray:none"
       sodipodi:nodetypes="ccccc"
       id="path594"
       d="m 34.479994,992.93712 27.20089,0.1374 9.61648,17.85908 -18.40868,0 -19.232959,-13.05088" />
    <path
       style="fill:#008eff;fill-opacity:1;fill-rule:evenodd;stroke:#008eff;stroke-width:0.13495843;stroke-opacity:1"
       sodipodi:nodetypes="ccccscccccsscsccccccccccccssccc"
       id="path593"
       d="m 35.52522,982.23413 c -1.477501,0 -2.594303,-0.033 -3.739009,1.71581 -0.329501,0.58296 -0.480149,1.29476 -0.358483,2.00329 0.145952,0.80567 0.622939,1.59722 1.185242,2.06581 0.744592,0.62049 1.451223,0.57262 1.337025,1.13041 -0.146533,0.71571 -0.593715,1.71028 -1.076981,3.32526 -0.490546,1.63931 -1.073035,3.64571 -1.644805,5.62181 -0.57177,1.97618 -1.133041,3.92328 -1.577326,5.44058 -0.222144,0.7586 -0.416156,1.41 -0.565139,1.8978 -0.145154,0.4753 -0.273313,0.8445 -0.261481,0.8182 -0.46288,0.8144 -0.525889,1.3451 -1.302286,2.0382 -0.870508,0.7619 -1.579267,1.3247 -1.825248,1.4966 -0.624777,0.4539 -0.915227,1.4117 -0.585303,1.885 0.415786,0.645 1.274495,0.7439 1.902101,0.5509 0.595923,-0.1891 1.539267,-0.5141 2.633139,-1.4201 l 0.0084,-0.013 0.01265,-0.01 c 1.522063,-1.3055 2.085164,-2.89 2.142464,-2.9817 l 0.08013,-0.1223 0.05483,-0.135 c 0.13189,-0.3246 0.210888,-0.6109 0.366919,-1.1218 0.15603,-0.5109 0.353829,-1.171 0.57779,-1.9358 0.447923,-1.5297 1.006346,-3.4797 1.577326,-5.45318 0.570982,-1.9735 1.152048,-3.9696 1.636371,-5.5881 0.484325,-1.61853 0.790305,-2.94781 0.903415,-3.23058 0.2753,-0.68825 0.41594,-1.43127 0.227742,-2.17621 -0.188197,-0.74494 -0.750577,-1.34617 -1.25541,-1.48593 -1.152316,-0.32238 -0.846567,-1.15123 -0.257028,-1.15243 l 4.940285,-0.0101 0.01217,-3.15532 c -3.4e-5,-7e-5 -3.206725,-7e-5 -5.149543,-7e-5 z" />
    <path
       style="fill:none;stroke:#008eff;stroke-width:26;stroke-linecap:butt;stroke-linejoin:miter;stroke-opacity:1;stroke-dasharray:none"
       sodipodi:type="arc"
       sodipodi:ry="78.380615"
       sodipodi:rx="78.380615"
       sodipodi:cy="461.96271"
       sodipodi:cx="200.53224"
       id="path595"
       d="m 278.91286,461.96271 a 78.380615,78.380615 0 1 1 -156.76123,0 78.380615,78.380615 0 1 1 156.76123,0 z"
       transform="matrix(0.13495843,0,0,0.13495843,-0.96359433,948.58791)" />
    <path
       transform="matrix(0.13495843,0,0,0.13495843,44.371234,948.79398)"
       style="fill:none;stroke:#008eff;stroke-width:26;stroke-linecap:butt;stroke-linejoin:miter;stroke-opacity:1;stroke-dasharray:none"
       sodipodi:type="arc"
       sodipodi:ry="78.380615"
       sodipodi:rx="78.380615"
       sodipodi:cy="461.96271"
       sodipodi:cx="200.53224"
       id="path596"
       d="m 278.91286,461.96271 a 78.380615,78.380615 0 1 1 -156.76123,0 78.380615,78.380615 0 1 1 156.76123,0 z" />
    <path
       style="fill:none;stroke:#008eff;stroke-width:3.37396073;stroke-linecap:butt;stroke-linejoin:miter;stroke-opacity:1;stroke-dasharray:none"
       id="path599"
       d="m 53.241144,1010.3745 9.32555,-22.82816" />
    <path
       style="fill:none;stroke:#008eff;stroke-width:1.23149562;stroke-linecap:round;stroke-linejoin:miter;stroke-opacity:1;stroke-dasharray:none"
       id="path600"
       d="m 49.064074,1003.0889 7.57701,16.0283" />
    <path
       transform="matrix(0.05301936,0,0,0.05477207,42.359627,985.66536)"
       style="fill:#ffffff;fill-opacity:1;fill-rule:evenodd;stroke:#008eff;stroke-width:31.30500031;stroke-linecap:butt;stroke-linejoin:miter;stroke-opacity:1;stroke-dasharray:none"
       sodipodi:type="arc"
       sodipodi:ry="78.380615"
       sodipodi:rx="78.380615"
       sodipodi:cy="461.96271"
       sodipodi:cx="200.53224"
       id="path597"
       d="m 278.91286,461.96271 a 78.380615,78.380615 0 1 1 -156.76123,0 78.380615,78.380615 0 1 1 156.76123,0 z" />
    <path
       style="fill:none;stroke:#008eff;stroke-width:1.72071993;stroke-linecap:butt;stroke-linejoin:miter;stroke-opacity:1;stroke-dasharray:none"
       sodipodi:nodetypes="cc"
       id="path601"
       d="m 47.041284,1003.5805 4.97727,0.046" />
    <path
       style="fill:none;stroke:#008eff;stroke-width:1.72071993;stroke-linecap:butt;stroke-linejoin:miter;stroke-opacity:1;stroke-dasharray:none"
       sodipodi:nodetypes="cc"
       id="path602"
       d="m 54.103804,1018.4432 4.97727,0.046" />
    <path
       style="fill:#008eff;fill-opacity:1;fill-rule:evenodd;stroke:none"
       sodipodi:nodetypes="cssccc"
       id="path603"
       d="m 67.132374,985.5063 -11.70551,0 c -0.43714,0 -1.00135,0.77326 -0.43714,1.28712 0.61022,0.58076 6.09561,1.77283 6.09561,1.77283 0,0 1.50569,0.41285 2.3071,0.31571 0.80142,-0.0971 3.56994,-0.34 3.73994,-3.37566 z" />
  </g>
</svg>
