<?xml version="1.0" encoding="UTF-8" standalone="no"?>
<!-- Created with Inkscape (http://www.inkscape.org/) -->

<svg
   xmlns:dc="http://purl.org/dc/elements/1.1/"
   xmlns:cc="http://creativecommons.org/ns#"
   xmlns:rdf="http://www.w3.org/1999/02/22-rdf-syntax-ns#"
   xmlns:svg="http://www.w3.org/2000/svg"
   xmlns="http://www.w3.org/2000/svg"
   xmlns:sodipodi="http://sodipodi.sourceforge.net/DTD/sodipodi-0.dtd"
   xmlns:inkscape="http://www.inkscape.org/namespaces/inkscape"
   width="100"
   height="100"
   id="svg2"
   inkscape:label="Pozadí"
   sodipodi:version="0.32"
   inkscape:version="0.47 r22583"
   sodipodi:docname="mayrequirewading.svg"
   inkscape:output_extension="org.inkscape.output.svg.inkscape"
   version="1.1">
  <defs
     id="defs2963">
    <inkscape:perspective
       sodipodi:type="inkscape:persp3d"
       inkscape:vp_x="0 : 526.18109 : 1"
       inkscape:vp_y="0 : 1000 : 0"
       inkscape:vp_z="744.09448 : 526.18109 : 1"
       inkscape:persp3d-origin="372.04724 : 350.78739 : 1"
       id="perspective346" />
    <inkscape:perspective
       id="perspective4464"
       inkscape:persp3d-origin="0.5 : 0.33333333 : 1"
       inkscape:vp_z="1 : 0.5 : 1"
       inkscape:vp_y="0 : 1000 : 0"
       inkscape:vp_x="0 : 0.5 : 1"
       sodipodi:type="inkscape:persp3d" />
    <inkscape:perspective
       id="perspective4512"
       inkscape:persp3d-origin="0.5 : 0.33333333 : 1"
       inkscape:vp_z="1 : 0.5 : 1"
       inkscape:vp_y="0 : 1000 : 0"
       inkscape:vp_x="0 : 0.5 : 1"
       sodipodi:type="inkscape:persp3d" />
    <inkscape:perspective
       id="perspective4512-4"
       inkscape:persp3d-origin="0.5 : 0.33333333 : 1"
       inkscape:vp_z="1 : 0.5 : 1"
       inkscape:vp_y="0 : 1000 : 0"
       inkscape:vp_x="0 : 0.5 : 1"
       sodipodi:type="inkscape:persp3d" />
    <inkscape:perspective
       id="perspective4919"
       inkscape:persp3d-origin="0.5 : 0.33333333 : 1"
       inkscape:vp_z="1 : 0.5 : 1"
       inkscape:vp_y="0 : 1000 : 0"
       inkscape:vp_x="0 : 0.5 : 1"
       sodipodi:type="inkscape:persp3d" />
    <inkscape:perspective
       id="perspective3677"
       inkscape:persp3d-origin="0.5 : 0.33333333 : 1"
       inkscape:vp_z="1 : 0.5 : 1"
       inkscape:vp_y="0 : 1000 : 0"
       inkscape:vp_x="0 : 0.5 : 1"
       sodipodi:type="inkscape:persp3d" />
    <inkscape:perspective
       id="perspective3637"
       inkscape:persp3d-origin="0.5 : 0.33333333 : 1"
       inkscape:vp_z="1 : 0.5 : 1"
       inkscape:vp_y="0 : 1000 : 0"
       inkscape:vp_x="0 : 0.5 : 1"
       sodipodi:type="inkscape:persp3d" />
    <inkscape:perspective
       id="perspective3615"
       inkscape:persp3d-origin="0.5 : 0.33333333 : 1"
       inkscape:vp_z="1 : 0.5 : 1"
       inkscape:vp_y="0 : 1000 : 0"
       inkscape:vp_x="0 : 0.5 : 1"
       sodipodi:type="inkscape:persp3d" />
    <inkscape:perspective
       id="perspective3615-1"
       inkscape:persp3d-origin="0.5 : 0.33333333 : 1"
       inkscape:vp_z="1 : 0.5 : 1"
       inkscape:vp_y="0 : 1000 : 0"
       inkscape:vp_x="0 : 0.5 : 1"
       sodipodi:type="inkscape:persp3d" />
    <inkscape:perspective
       id="perspective2856"
       inkscape:persp3d-origin="0.5 : 0.33333333 : 1"
       inkscape:vp_z="1 : 0.5 : 1"
       inkscape:vp_y="0 : 1000 : 0"
       inkscape:vp_x="0 : 0.5 : 1"
       sodipodi:type="inkscape:persp3d" />
    <inkscape:perspective
       id="perspective2846"
       inkscape:persp3d-origin="0.5 : 0.33333333 : 1"
       inkscape:vp_z="1 : 0.5 : 1"
       inkscape:vp_y="0 : 1000 : 0"
       inkscape:vp_x="0 : 0.5 : 1"
       sodipodi:type="inkscape:persp3d" />
    <inkscape:perspective
       id="perspective2868"
       inkscape:persp3d-origin="0.5 : 0.33333333 : 1"
       inkscape:vp_z="1 : 0.5 : 1"
       inkscape:vp_y="0 : 1000 : 0"
       inkscape:vp_x="0 : 0.5 : 1"
       sodipodi:type="inkscape:persp3d" />
    <inkscape:perspective
       id="perspective2868-6"
       inkscape:persp3d-origin="0.5 : 0.33333333 : 1"
       inkscape:vp_z="1 : 0.5 : 1"
       inkscape:vp_y="0 : 1000 : 0"
       inkscape:vp_x="0 : 0.5 : 1"
       sodipodi:type="inkscape:persp3d" />
  </defs>
  <sodipodi:namedview
     id="base"
     pagecolor="#ffffff"
     bordercolor="#666666"
     borderopacity="1.0"
     inkscape:pageopacity="0.0"
     inkscape:pageshadow="2"
     inkscape:zoom="1.7834506"
     inkscape:cx="40.324227"
     inkscape:cy="41.398706"
     inkscape:document-units="px"
     inkscape:current-layer="layer1"
     inkscape:window-width="1024"
     inkscape:window-height="549"
     inkscape:window-x="0"
     inkscape:window-y="0"
     showgrid="false"
     inkscape:window-maximized="1" />
  <metadata
     id="metadata2966">
    <rdf:RDF>
      <cc:Work
         rdf:about="">
        <dc:format>image/svg+xml</dc:format>
        <dc:type
           rdf:resource="http://purl.org/dc/dcmitype/StillImage" />
        <dc:title />
      </cc:Work>
    </rdf:RDF>
  </metadata>
  <g
     inkscape:label="Vrstva 1"
     inkscape:groupmode="layer"
     id="layer1"
     transform="translate(0,-952.36218)">
    <rect
       style="fill:#ffffff;fill-opacity:1;stroke:#ffffff;stroke-width:1.99660146;stroke-linejoin:round;stroke-miterlimit:4;stroke-opacity:1;stroke-dasharray:none"
       id="rect4438-0-8"
       width="92.003395"
       height="92.003403"
       x="3.9550877"
       y="956.80017"
       rx="9.5836878"
       ry="9.5836878" />
    <rect
       style="fill:none;stroke:#008eff;stroke-width:4;stroke-linejoin:round;stroke-miterlimit:4;stroke-opacity:0.30000001;stroke-dasharray:none"
       id="rect4438"
       width="96"
       height="96"
       x="2.3964825"
       y="954.44861"
       rx="10"
       ry="10" />
    <rect
       style="fill:none;stroke:#008eff;stroke-width:5;stroke-linejoin:round;stroke-miterlimit:4;stroke-opacity:0.69999999999999996;stroke-dasharray:none"
       id="rect4438-57"
       width="92.159996"
       height="92.160004"
       x="3.8767693"
       y="955.92902"
       rx="9.5999994"
       ry="9.6000004" />
    <rect
       style="fill:none;stroke:#008eff;stroke-width:3.98613524;stroke-linejoin:round;stroke-miterlimit:4;stroke-opacity:0.3;stroke-dasharray:none"
       id="rect4438-5"
       width="88.013863"
       height="88.013863"
       x="5.7898545"
       y="958.55847"
       rx="9.1681108"
       ry="9.1681108" />
    <rect
       style="fill:none;stroke:#008eff;stroke-width:1.99660146;stroke-linejoin:round;stroke-miterlimit:4;stroke-opacity:1;stroke-dasharray:none"
       id="rect4438-0"
       width="92.003395"
       height="92.003403"
       x="4.2715678"
       y="956.08728"
       rx="9.5836878"
       ry="9.5836878" />
    <path
       id="path9"
       d="m 46.987259,980.60169 c 2.820711,0 5.101022,-2.29453 5.101022,-5.12019 0,-2.82071 -2.280311,-5.10102 -5.101022,-5.10102 -2.82071,0 -5.115243,2.28031 -5.115243,5.10102 0,2.82566 2.294533,5.12019 5.115243,5.12019 z"
       style="fill:#008eff;fill-opacity:1" />
    <path
       id="path11"
       d="m 38.355094,983.12905 c 0.197857,-0.78711 -0.29926,-1.56988 -1.072141,-1.76774 l -4.255798,-1.02391 c -0.796996,-0.18364 -1.584099,0.28503 -1.763408,1.06781 l -3.578753,14.81028 c -0.197858,0.7871 0.285039,1.56987 1.072142,1.76773 l 4.270019,1.02389 c 0.772882,0.1979 1.569878,-0.285 1.753515,-1.07212 l 3.574424,-14.80594 z"
       style="fill:#008eff;fill-opacity:1" />
    <path
       id="path15"
       d="m 29.48179,1031.0659 c -0.04823,0.2418 -0.06307,0.4829 -0.06307,0.7247 0,1.9903 1.603885,3.5893 3.593592,3.5893 1.632946,0 3.004348,-1.087 3.443963,-2.5648 l 6.173163,-25.5583 5.883796,25.4087 c 0.376549,1.5699 1.796797,2.715 3.468077,2.715 1.995272,0 3.593592,-1.599 3.593592,-3.5893 0,-0.2751 -0.02906,-0.5311 -0.07729,-0.7871 l -8.070744,-33.75144 0.676427,-2.97528 0.531124,2.33781 c 0.482897,1.52661 1.869138,1.67621 1.869138,1.67621 l 8.318067,2.1158 c 0.164469,0.029 0.333266,0.043 0.497736,0.043 1.357181,0 2.459001,-1.0869 2.459001,-2.4441 0,-1.16427 -0.796996,-2.14491 -1.883977,-2.40088 l -7.20202,-1.81164 -1.975486,-8.03303 c -0.937352,-4.48271 -5.221591,-4.37636 -5.221591,-4.37636 -4.163671,-0.10635 -5.207371,4.27496 -5.207371,4.27496 L 29.48179,1031.0656 z"
       style="fill:#008eff;fill-opacity:1" />
    <path
       d="m 80.526421,1029.5347 c -1.3273,0 -2.608297,-0.301 -3.734958,-0.8103 -1.165249,-0.5479 -2.477111,-0.8643 -3.827563,-0.8643 -1.373603,0 -2.685465,0.3164 -3.842991,0.8643 -1.149811,0.5093 -2.415381,0.8103 -3.742671,0.8103 -1.311872,0 -2.592869,-0.301 -3.719529,-0.8103 -1.16524,-0.5479 -2.469388,-0.8643 -3.842991,-0.8643 -1.358166,0 -2.670028,0.3164 -3.827563,0.8643 -1.149803,0.5093 -2.415372,0.8103 -3.742672,0.8103 -1.327299,0 -2.592859,-0.301 -3.719519,-0.8103 -1.157526,-0.5479 -2.469398,-0.8643 -3.843001,-0.8643 -1.373593,0 -2.670028,0.3164 -3.827553,0.8643 -1.149813,0.5093 -2.415376,0.8103 -3.742675,0.8103 -1.319582,0 -2.585147,-0.301 -3.711808,-0.8103 -1.17296,-0.5479 -2.469393,-0.8643 -3.842993,-0.8643 -1.373599,0 -2.670031,0.3164 -3.842993,0.8643 -1.134377,0.5093 -2.39994,0.8103 -3.727239,0.8103 l 0,-5.587 c 1.327299,0 2.592862,-0.3009 3.727239,-0.818 1.172962,-0.5248 2.469394,-0.8412 3.842993,-0.8412 1.3736,0 2.670033,0.3164 3.842993,0.8412 1.126661,0.5171 2.392226,0.818 3.711808,0.818 1.327299,0 2.592862,-0.3009 3.742675,-0.818 1.157525,-0.5248 2.45396,-0.8412 3.827553,-0.8412 1.373603,0 2.685475,0.3164 3.843001,0.8412 1.12666,0.5171 2.39222,0.818 3.719519,0.818 1.3273,0 2.592869,-0.3009 3.742672,-0.818 1.157535,-0.5248 2.469397,-0.8412 3.827563,-0.8412 1.373603,0 2.677751,0.3164 3.842991,0.8412 1.12666,0.5171 2.407657,0.818 3.719529,0.818 1.32729,0 2.59286,-0.3009 3.742671,-0.818 1.157526,-0.5248 2.469388,-0.8412 3.842991,-0.8412 1.350452,0 2.662314,0.3164 3.827563,0.8412 1.126661,0.5171 2.407658,0.818 3.734958,0.818 l 0,5.587 z"
       style="fill:#ffffff;fill-opacity:1;fill-rule:nonzero;stroke:none"
       id="path4760-5-9" />
    <path
       d="m 81.483615,1037.0327 c -1.3273,0 -2.608297,-0.3833 -3.734958,-1.032 -1.165249,-0.6978 -2.477111,-1.1007 -3.827563,-1.1007 -1.373603,0 -2.685465,0.4029 -3.842991,1.1007 -1.149811,0.6487 -2.415381,1.032 -3.742671,1.032 -1.311872,0 -2.592869,-0.3833 -3.719529,-1.032 -1.16524,-0.6978 -2.469388,-1.1007 -3.842991,-1.1007 -1.358166,0 -2.670028,0.4029 -3.827563,1.1007 -1.149803,0.6487 -2.415372,1.032 -3.742672,1.032 -1.327299,0 -2.592859,-0.3833 -3.719519,-1.032 -1.157526,-0.6978 -2.469398,-1.1007 -3.843001,-1.1007 -1.373593,0 -2.670028,0.4029 -3.827553,1.1007 -1.149813,0.6487 -2.415376,1.032 -3.742675,1.032 -1.319582,0 -2.585147,-0.3833 -3.711808,-1.032 -1.17296,-0.6978 -2.469393,-1.1007 -3.842993,-1.1007 -1.373599,0 -2.670031,0.4029 -3.842993,1.1007 -1.134377,0.6487 -2.39994,1.032 -3.727239,1.032 l 0,-7.1155 c 1.327299,0 2.592862,-0.3832 3.727239,-1.0418 1.172962,-0.6683 2.469394,-1.0713 3.842993,-1.0713 1.3736,0 2.670033,0.403 3.842993,1.0713 1.126661,0.6586 2.392226,1.0418 3.711808,1.0418 1.327299,0 2.592862,-0.3832 3.742675,-1.0418 1.157525,-0.6683 2.45396,-1.0713 3.827553,-1.0713 1.373603,0 2.685475,0.403 3.843001,1.0713 1.12666,0.6586 2.39222,1.0418 3.719519,1.0418 1.3273,0 2.592869,-0.3832 3.742672,-1.0418 1.157535,-0.6683 2.469397,-1.0713 3.827563,-1.0713 1.373603,0 2.677751,0.403 3.842991,1.0713 1.12666,0.6586 2.407657,1.0418 3.719529,1.0418 1.32729,0 2.59286,-0.3832 3.742671,-1.0418 1.157526,-0.6683 2.469388,-1.0713 3.842991,-1.0713 1.350452,0 2.662314,0.403 3.827563,1.0713 1.126661,0.6586 2.407658,1.0418 3.734958,1.0418 l 0,7.1155 z"
       style="fill:#ffffff;fill-opacity:1;fill-rule:nonzero;stroke:none"
       id="path4760-5-2" />
    <path
       d="m 80.526422,1024.3804 c -1.3273,0 -2.608297,-0.301 -3.734958,-0.8103 -1.165249,-0.5479 -2.477111,-0.8643 -3.827563,-0.8643 -1.373603,0 -2.685465,0.3164 -3.842991,0.8643 -1.149811,0.5093 -2.415381,0.8103 -3.742671,0.8103 -1.311872,0 -2.592869,-0.301 -3.719529,-0.8103 -1.16524,-0.5479 -2.469388,-0.8643 -3.842991,-0.8643 -1.358166,0 -2.670028,0.3164 -3.827563,0.8643 -1.149803,0.5093 -2.415372,0.8103 -3.742672,0.8103 -1.327299,0 -2.592859,-0.301 -3.719519,-0.8103 -1.157526,-0.5479 -2.469398,-0.8643 -3.843001,-0.8643 -1.373593,0 -2.670028,0.3164 -3.827553,0.8643 -1.149813,0.5093 -2.415376,0.8103 -3.742675,0.8103 -1.319582,0 -2.585147,-0.301 -3.711808,-0.8103 -1.17296,-0.5479 -2.469393,-0.8643 -3.842993,-0.8643 -1.373599,0 -2.670031,0.3164 -3.842993,0.8643 -1.134377,0.5093 -2.39994,0.8103 -3.727239,0.8103 l 0,-5.587 c 1.327299,0 2.592862,-0.3009 3.727239,-0.818 1.172962,-0.5248 2.469394,-0.8412 3.842993,-0.8412 1.3736,0 2.670033,0.3164 3.842993,0.8412 1.126661,0.5171 2.392226,0.818 3.711808,0.818 1.327299,0 2.592862,-0.3009 3.742675,-0.818 1.157525,-0.5248 2.45396,-0.8412 3.827553,-0.8412 1.373603,0 2.685475,0.3164 3.843001,0.8412 1.12666,0.5171 2.39222,0.818 3.719519,0.818 1.3273,0 2.592869,-0.3009 3.742672,-0.818 1.157535,-0.5248 2.469397,-0.8412 3.827563,-0.8412 1.373603,0 2.677751,0.3164 3.842991,0.8412 1.12666,0.5171 2.407657,0.818 3.719529,0.818 1.32729,0 2.59286,-0.3009 3.742671,-0.818 1.157526,-0.5248 2.469388,-0.8412 3.842991,-0.8412 1.350452,0 2.662314,0.3164 3.827563,0.8412 1.126661,0.5171 2.407658,0.818 3.734958,0.818 l 0,5.587 z"
       style="fill:#008eff;fill-opacity:1;fill-rule:nonzero;stroke:none"
       id="path4760-5" />
    <path
       d="m 80.526422,1033.896 c -1.3273,0 -2.608297,-0.301 -3.734958,-0.8103 -1.165249,-0.5479 -2.477111,-0.8643 -3.827563,-0.8643 -1.373603,0 -2.685465,0.3164 -3.842991,0.8643 -1.149811,0.5093 -2.415381,0.8103 -3.742671,0.8103 -1.311872,0 -2.592869,-0.301 -3.719529,-0.8103 -1.16524,-0.5479 -2.469388,-0.8643 -3.842991,-0.8643 -1.358166,0 -2.670028,0.3164 -3.827563,0.8643 -1.149803,0.5093 -2.415372,0.8103 -3.742672,0.8103 -1.327299,0 -2.592859,-0.301 -3.719519,-0.8103 -1.157526,-0.5479 -2.469398,-0.8643 -3.843001,-0.8643 -1.373593,0 -2.670028,0.3164 -3.827553,0.8643 -1.149813,0.5093 -2.415376,0.8103 -3.742675,0.8103 -1.319582,0 -2.585147,-0.301 -3.711808,-0.8103 -1.17296,-0.5479 -2.469393,-0.8643 -3.842993,-0.8643 -1.373599,0 -2.670031,0.3164 -3.842993,0.8643 -1.134377,0.5093 -2.39994,0.8103 -3.727239,0.8103 l 0,-5.587 c 1.327299,0 2.592862,-0.3009 3.727239,-0.818 1.172962,-0.5248 2.469394,-0.8412 3.842993,-0.8412 1.3736,0 2.670033,0.3164 3.842993,0.8412 1.126661,0.5171 2.392226,0.818 3.711808,0.818 1.327299,0 2.592862,-0.3009 3.742675,-0.818 1.157525,-0.5248 2.45396,-0.8412 3.827553,-0.8412 1.373603,0 2.685475,0.3164 3.843001,0.8412 1.12666,0.5171 2.39222,0.818 3.719519,0.818 1.3273,0 2.592869,-0.3009 3.742672,-0.818 1.157535,-0.5248 2.469397,-0.8412 3.827563,-0.8412 1.373603,0 2.677751,0.3164 3.842991,0.8412 1.12666,0.5171 2.407657,0.818 3.719529,0.818 1.32729,0 2.59286,-0.3009 3.742671,-0.818 1.157526,-0.5248 2.469388,-0.8412 3.842991,-0.8412 1.350452,0 2.662314,0.3164 3.827563,0.8412 1.126661,0.5171 2.407658,0.818 3.734958,0.818 l 0,5.587 z"
       style="fill:#008eff;fill-opacity:1;fill-rule:nonzero;stroke:none"
       id="path4760" />
  </g>
</svg>
