<?xml version="1.0" encoding="UTF-8" standalone="no"?>
<!-- Created with Inkscape (http://www.inkscape.org/) -->

<svg
   xmlns:dc="http://purl.org/dc/elements/1.1/"
   xmlns:cc="http://creativecommons.org/ns#"
   xmlns:rdf="http://www.w3.org/1999/02/22-rdf-syntax-ns#"
   xmlns:svg="http://www.w3.org/2000/svg"
   xmlns="http://www.w3.org/2000/svg"
   xmlns:sodipodi="http://sodipodi.sourceforge.net/DTD/sodipodi-0.dtd"
   xmlns:inkscape="http://www.inkscape.org/namespaces/inkscape"
   width="100"
   height="100"
   id="svg2"
   inkscape:label="Pozadí"
   sodipodi:version="0.32"
   inkscape:version="0.47 r22583"
   sodipodi:docname="winterngrey.svg"
   inkscape:output_extension="org.inkscape.output.svg.inkscape"
   version="1.1">
  <defs
     id="defs2963">
    <inkscape:perspective
       sodipodi:type="inkscape:persp3d"
       inkscape:vp_x="0 : 526.18109 : 1"
       inkscape:vp_y="0 : 1000 : 0"
       inkscape:vp_z="744.09448 : 526.18109 : 1"
       inkscape:persp3d-origin="372.04724 : 350.78739 : 1"
       id="perspective346" />
    <inkscape:perspective
       id="perspective4464"
       inkscape:persp3d-origin="0.5 : 0.33333333 : 1"
       inkscape:vp_z="1 : 0.5 : 1"
       inkscape:vp_y="0 : 1000 : 0"
       inkscape:vp_x="0 : 0.5 : 1"
       sodipodi:type="inkscape:persp3d" />
    <inkscape:perspective
       id="perspective4512"
       inkscape:persp3d-origin="0.5 : 0.33333333 : 1"
       inkscape:vp_z="1 : 0.5 : 1"
       inkscape:vp_y="0 : 1000 : 0"
       inkscape:vp_x="0 : 0.5 : 1"
       sodipodi:type="inkscape:persp3d" />
    <inkscape:perspective
       id="perspective4512-4"
       inkscape:persp3d-origin="0.5 : 0.33333333 : 1"
       inkscape:vp_z="1 : 0.5 : 1"
       inkscape:vp_y="0 : 1000 : 0"
       inkscape:vp_x="0 : 0.5 : 1"
       sodipodi:type="inkscape:persp3d" />
    <inkscape:perspective
       id="perspective4919"
       inkscape:persp3d-origin="0.5 : 0.33333333 : 1"
       inkscape:vp_z="1 : 0.5 : 1"
       inkscape:vp_y="0 : 1000 : 0"
       inkscape:vp_x="0 : 0.5 : 1"
       sodipodi:type="inkscape:persp3d" />
    <inkscape:perspective
       id="perspective3595"
       inkscape:persp3d-origin="0.5 : 0.33333333 : 1"
       inkscape:vp_z="1 : 0.5 : 1"
       inkscape:vp_y="0 : 1000 : 0"
       inkscape:vp_x="0 : 0.5 : 1"
       sodipodi:type="inkscape:persp3d" />
  </defs>
  <sodipodi:namedview
     id="base"
     pagecolor="#ffffff"
     bordercolor="#666666"
     borderopacity="1.0"
     inkscape:pageopacity="0.0"
     inkscape:pageshadow="2"
     inkscape:zoom="2.52218"
     inkscape:cx="52.224168"
     inkscape:cy="48.742556"
     inkscape:document-units="px"
     inkscape:current-layer="layer1"
     inkscape:window-width="1024"
     inkscape:window-height="549"
     inkscape:window-x="0"
     inkscape:window-y="0"
     showgrid="false"
     inkscape:window-maximized="1" />
  <metadata
     id="metadata2966">
    <rdf:RDF>
      <cc:Work
         rdf:about="">
        <dc:format>image/svg+xml</dc:format>
        <dc:type
           rdf:resource="http://purl.org/dc/dcmitype/StillImage" />
        <dc:title></dc:title>
      </cc:Work>
    </rdf:RDF>
  </metadata>
  <g
     inkscape:label="Vrstva 1"
     inkscape:groupmode="layer"
     id="layer1"
     transform="translate(0,-952.36218)">
    <rect
       style="fill:#cccccc;fill-opacity:1;stroke:#cccccc;stroke-width:1.99660145999999994;stroke-linejoin:round;stroke-miterlimit:4;stroke-opacity:1;stroke-dasharray:none"
       id="rect4438-0-8"
       width="92.003395"
       height="92.003403"
       x="3.9550877"
       y="956.80017"
       rx="9.5836878"
       ry="9.5836878" />
    <rect
       style="fill:none;stroke:#4d4d4d;stroke-width:4;stroke-linejoin:round;stroke-miterlimit:4;stroke-opacity:0.30000000999999998;stroke-dasharray:none"
       id="rect4438"
       width="96"
       height="96"
       x="2.3964825"
       y="954.44861"
       rx="10"
       ry="10" />
    <rect
       style="fill:none;stroke:#4d4d4d;stroke-width:5;stroke-linejoin:round;stroke-miterlimit:4;stroke-opacity:0.69999999999999996;stroke-dasharray:none"
       id="rect4438-57"
       width="92.159996"
       height="92.160004"
       x="3.8767693"
       y="955.92902"
       rx="9.5999994"
       ry="9.6000004" />
    <rect
       style="fill:none;stroke:#4d4d4d;stroke-width:3.98613523999999986;stroke-linejoin:round;stroke-miterlimit:4;stroke-opacity:0.29999999999999999;stroke-dasharray:none"
       id="rect4438-5"
       width="88.013863"
       height="88.013863"
       x="5.7898545"
       y="958.55847"
       rx="9.1681108"
       ry="9.1681108" />
    <rect
       style="fill:none;stroke:#4d4d4d;stroke-width:1.99660145999999994;stroke-linejoin:round;stroke-miterlimit:4;stroke-opacity:1;stroke-dasharray:none"
       id="rect4438-0"
       width="92.003395"
       height="92.003403"
       x="4.2715678"
       y="956.08728"
       rx="9.5836878"
       ry="9.5836878" />
    <g
       id="g4607"
       transform="matrix(0.11684049,0,0,0.11684049,10.879107,960.46039)"
       style="fill:#808080;fill-opacity:1">
      <path
         id="path2768"
         d="m 131.875,326.46875 c -8.83562,-0.11646 -17.27329,3.66791 -23.0625,10.34375 -9.682833,10.85578 -18.100021,22.86534 -25.03125,35.8125 -13.862466,25.89432 -21.750001,55.57915 -21.75,86.875 -2e-6,101.48162 82.95589,184.43752 184.4375,184.4375 50.74079,-2e-5 97.06187,-20.68689 130.40625,-54.03125 16.67216,-16.67218 30.15361,-36.53971 39.5,-58.625 4.45919,-9.92148 3.19917,-21.47938 -3.29309,-30.20696 -6.49227,-8.72758 -17.19978,-13.25768 -27.98445,-11.83957 -10.78468,1.4181 -19.9571,8.56227 -23.97246,18.67153 -6.29035,14.86393 -15.40654,28.28153 -26.6875,39.5625 -22.5619,22.5619 -53.45965,36.46874 -87.96875,36.46875 -69.01817,2e-5 -124.4375,-55.41931 -124.4375,-124.4375 0,-21.27907 5.27957,-41.10575 14.625,-58.5625 4.67271,-8.72838 10.38578,-16.84213 16.9375,-24.1875 7.99587,-8.71719 10.12354,-21.31885 5.43297,-32.17803 -4.69057,-10.85918 -15.32381,-17.94882 -27.15172,-18.10322 l 0,0 z"
         style="fill:#808080;fill-opacity:1;fill-rule:evenodd;stroke:none" />
      <path
         sodipodi:nodetypes="ccccccccccscccccccsscccsc"
         id="path1879"
         d="m 194.93814,87.623505 c -34.09995,0 -61.78124,27.681295 -61.78125,61.781245 -0.0141,3.15049 0.26941,6.29116 0.71875,9.40625 0.004,0.0204 -0.004,0.0421 0,0.0625 l 37.25,229.65625 c 2.35026,14.45506 14.79287,25.10129 29.4375,25.1875 l 195.25,1.21875 67.46875,156.59375 c 6.26437,14.506 22.70562,21.66744 37.59375,16.375 l 79.25,-28.1875 c 15.61067,-5.55736 23.77611,-22.73307 18.21875,-38.34375 -5.55736,-15.61068 -22.73308,-23.74487 -38.34375,-18.1875 l -52.75,18.78125 -64.0625,-148.78125 c -4.71671,-10.94123 -15.4606,-18.05476 -27.375,-18.125 l -189.5,-1.1875 -2.9375,-18.03125 134.03125,0 c 10.81906,0.15301 20.88956,-5.53007 26.34375,-14.875 5.45419,-9.34492 5.45419,-20.90508 0,-30.25 -5.45419,-9.34493 -15.52467,-15.02801 -26.34375,-14.875 l -143.75,0 -10.59375,-65.21875 c 30.26248,-3.98374 53.62501,-29.87432 53.625,-61.21875 0,-34.09995 -27.65004,-61.781246 -61.75,-61.781245 z"
         style="fill:#808080;fill-opacity:1;fill-rule:evenodd;stroke:none" />
    </g>
  </g>
</svg>
