<?xml version="1.0" encoding="UTF-8" standalone="no"?>
<!-- Created with Inkscape (http://www.inkscape.org/) -->

<svg
   xmlns:dc="http://purl.org/dc/elements/1.1/"
   xmlns:cc="http://creativecommons.org/ns#"
   xmlns:rdf="http://www.w3.org/1999/02/22-rdf-syntax-ns#"
   xmlns:svg="http://www.w3.org/2000/svg"
   xmlns="http://www.w3.org/2000/svg"
   xmlns:sodipodi="http://sodipodi.sourceforge.net/DTD/sodipodi-0.dtd"
   xmlns:inkscape="http://www.inkscape.org/namespaces/inkscape"
   width="100"
   height="100"
   id="svg2"
   inkscape:label="Pozadí"
   sodipodi:version="0.32"
   inkscape:version="0.47 r22583"
   sodipodi:docname="accessorparkingfeegrey.svg"
   inkscape:output_extension="org.inkscape.output.svg.inkscape"
   version="1.1">
  <defs
     id="defs2963">
    <inkscape:perspective
       sodipodi:type="inkscape:persp3d"
       inkscape:vp_x="0 : 526.18109 : 1"
       inkscape:vp_y="0 : 1000 : 0"
       inkscape:vp_z="744.09448 : 526.18109 : 1"
       inkscape:persp3d-origin="372.04724 : 350.78739 : 1"
       id="perspective346" />
    <inkscape:perspective
       id="perspective4464"
       inkscape:persp3d-origin="0.5 : 0.33333333 : 1"
       inkscape:vp_z="1 : 0.5 : 1"
       inkscape:vp_y="0 : 1000 : 0"
       inkscape:vp_x="0 : 0.5 : 1"
       sodipodi:type="inkscape:persp3d" />
    <inkscape:perspective
       id="perspective4512"
       inkscape:persp3d-origin="0.5 : 0.33333333 : 1"
       inkscape:vp_z="1 : 0.5 : 1"
       inkscape:vp_y="0 : 1000 : 0"
       inkscape:vp_x="0 : 0.5 : 1"
       sodipodi:type="inkscape:persp3d" />
    <inkscape:perspective
       id="perspective4512-4"
       inkscape:persp3d-origin="0.5 : 0.33333333 : 1"
       inkscape:vp_z="1 : 0.5 : 1"
       inkscape:vp_y="0 : 1000 : 0"
       inkscape:vp_x="0 : 0.5 : 1"
       sodipodi:type="inkscape:persp3d" />
    <inkscape:perspective
       id="perspective4919"
       inkscape:persp3d-origin="0.5 : 0.33333333 : 1"
       inkscape:vp_z="1 : 0.5 : 1"
       inkscape:vp_y="0 : 1000 : 0"
       inkscape:vp_x="0 : 0.5 : 1"
       sodipodi:type="inkscape:persp3d" />
    <inkscape:perspective
       id="perspective2831"
       inkscape:persp3d-origin="0.5 : 0.33333333 : 1"
       inkscape:vp_z="1 : 0.5 : 1"
       inkscape:vp_y="0 : 1000 : 0"
       inkscape:vp_x="0 : 0.5 : 1"
       sodipodi:type="inkscape:persp3d" />
    <inkscape:perspective
       id="perspective3788"
       inkscape:persp3d-origin="0.5 : 0.33333333 : 1"
       inkscape:vp_z="1 : 0.5 : 1"
       inkscape:vp_y="0 : 1000 : 0"
       inkscape:vp_x="0 : 0.5 : 1"
       sodipodi:type="inkscape:persp3d" />
    <inkscape:perspective
       id="perspective2840"
       inkscape:persp3d-origin="0.5 : 0.33333333 : 1"
       inkscape:vp_z="1 : 0.5 : 1"
       inkscape:vp_y="0 : 1000 : 0"
       inkscape:vp_x="0 : 0.5 : 1"
       sodipodi:type="inkscape:persp3d" />
  </defs>
  <sodipodi:namedview
     id="base"
     pagecolor="#ffffff"
     bordercolor="#666666"
     borderopacity="1.0"
     inkscape:pageopacity="0.0"
     inkscape:pageshadow="2"
     inkscape:zoom="2.52218"
     inkscape:cx="52.224168"
     inkscape:cy="48.742556"
     inkscape:document-units="px"
     inkscape:current-layer="layer1"
     inkscape:window-width="1024"
     inkscape:window-height="549"
     inkscape:window-x="0"
     inkscape:window-y="0"
     showgrid="false"
     inkscape:window-maximized="1" />
  <metadata
     id="metadata2966">
    <rdf:RDF>
      <cc:Work
         rdf:about="">
        <dc:format>image/svg+xml</dc:format>
        <dc:type
           rdf:resource="http://purl.org/dc/dcmitype/StillImage" />
        <dc:title></dc:title>
      </cc:Work>
    </rdf:RDF>
  </metadata>
  <g
     inkscape:label="Vrstva 1"
     inkscape:groupmode="layer"
     id="layer1"
     transform="translate(0,-952.36218)">
    <rect
       style="fill:#cccccc;fill-opacity:1;stroke:#cccccc;stroke-width:1.99660145999999994;stroke-linejoin:round;stroke-miterlimit:4;stroke-opacity:1;stroke-dasharray:none"
       id="rect4438-0-8"
       width="92.003395"
       height="92.003403"
       x="3.9550877"
       y="956.80017"
       rx="9.5836878"
       ry="9.5836878" />
    <rect
       style="fill:none;stroke:#4d4d4d;stroke-width:4;stroke-linejoin:round;stroke-miterlimit:4;stroke-opacity:0.30000000999999998;stroke-dasharray:none"
       id="rect4438"
       width="96"
       height="96"
       x="2.3964825"
       y="954.44861"
       rx="10"
       ry="10" />
    <rect
       style="fill:none;stroke:#4d4d4d;stroke-width:5;stroke-linejoin:round;stroke-miterlimit:4;stroke-opacity:0.69999999999999996;stroke-dasharray:none"
       id="rect4438-57"
       width="92.159996"
       height="92.160004"
       x="3.8767693"
       y="955.92902"
       rx="9.5999994"
       ry="9.6000004" />
    <rect
       style="fill:none;stroke:#4d4d4d;stroke-width:3.98613523999999986;stroke-linejoin:round;stroke-miterlimit:4;stroke-opacity:0.29999999999999999;stroke-dasharray:none"
       id="rect4438-5"
       width="88.013863"
       height="88.013863"
       x="5.7898545"
       y="958.55847"
       rx="9.1681108"
       ry="9.1681108" />
    <rect
       style="fill:none;stroke:#4d4d4d;stroke-width:1.99660145999999994;stroke-linejoin:round;stroke-miterlimit:4;stroke-opacity:1;stroke-dasharray:none"
       id="rect4438-0"
       width="92.003395"
       height="92.003403"
       x="4.2715678"
       y="956.08728"
       rx="9.5836878"
       ry="9.5836878" />
    <path
       style="fill:#808080;fill-opacity:1;display:inline"
       d="m 75.168312,1033.0191 c -1.964713,-1.2094 -4.268102,-2.2182 -9.138566,-4.0027 l -4.475204,-1.6396 -1.329144,1.071 c -3.827333,3.0842 -8.197945,4.1228 -12.632419,3.0019 -3.012011,-0.7613 -5.785846,-2.4575 -6.887376,-4.2116 l -0.315248,-0.5021 -2.613074,0.8736 c -4.494785,1.5029 -8.720393,3.3696 -10.800701,4.7715 -2.062322,1.3896 -3.620819,0.8928 -3.943248,-1.2573 -0.08577,-0.5725 -0.385532,-1.472 -0.665932,-1.9988 -0.636868,-1.1963 -0.637652,-1.5089 -0.0049,-2.1031 0.456208,-0.4285 0.695364,-0.4702 2.490665,-0.433 1.93908,0.04 2.051147,0.015 4.741636,-1.058 1.515587,-0.6046 4.116825,-1.6804 5.780503,-2.3911 2.730974,-1.1664 3.011938,-1.3352 2.891661,-1.7374 -0.374381,-1.2518 -0.629222,-1.5063 -1.997576,-1.995 -2.582809,-0.9224 -7.518607,-2.4075 -10.76921,-3.2402 -3.220363,-0.8249 -3.256804,-0.8291 -4.481993,-0.5116 -2.21747,0.5747 -2.830493,0.3564 -3.104644,-1.105 -0.111748,-0.5964 -0.03406,-0.9854 0.336495,-1.6841 0.276112,-0.5205 0.544455,-1.512 0.628217,-2.3214 0.11763,-1.1355 0.246876,-1.4943 0.658776,-1.8279 0.71269,-0.577 1.915554,-0.3868 2.984246,0.472 0.995786,0.8003 2.396218,1.437 5.559653,2.5278 2.40906,0.8307 7.541153,2.3509 7.936242,2.3509 0.315444,0 -0.270646,-2.3396 -0.894501,-3.5706 -0.332966,-0.6572 -0.93256,-1.3333 -1.688455,-1.904 -1.738128,-1.3123 -2.313926,-2.4346 -2.423346,-4.7232 -0.07033,-1.4686 0.0049,-2.1622 0.360486,-3.3332 0.695266,-2.28905 0.625031,-2.76711 -0.830369,-5.65238 -1.580186,-3.13263 -1.994414,-4.9556 -1.812358,-7.97599 0.288292,-4.78312 2.803708,-9.95856 6.254307,-12.86815 2.19985,-1.85494 5.765702,-3.75712 8.648197,-4.61332 2.472164,-0.73433 7.052058,-0.93553 9.916394,-0.43564 5.686719,0.99242 11.039,3.37071 13.90765,6.1798 3.405507,3.33481 4.852844,6.93436 4.850541,12.06327 -0.0022,4.77155 -0.721635,8.18187 -2.571561,12.189 l -0.823311,1.78331 0.426237,1.1393 c 0.47569,1.2713 0.552566,3.0211 0.180611,4.1123 -0.135029,0.3962 -0.818165,1.4358 -1.517965,2.3103 -1.244181,1.5545 -1.856567,2.6677 -2.143289,3.8961 -0.179631,0.769 -0.526124,0.8615 5.52853,-1.4756 3.672674,-1.4175 5.076342,-2.0634 5.806946,-2.6716 1.200707,-0.9996 2.016396,-1.1857 3.048745,-0.6958 0.965497,0.4581 1.393008,1.2567 1.393008,2.6023 0,0.7542 0.185757,1.4006 0.674582,2.3486 0.834878,1.6188 0.70752,2.2805 -0.529579,2.7514 -0.727908,0.2769 -1.030756,0.2617 -3.190759,-0.1608 -1.312578,-0.2568 -2.762832,-0.4818 -3.222789,-0.5002 -1.070873,-0.042 -3.025342,0.599 -6.872795,2.2565 l -3.072713,1.3239 -0.446038,1.9986 c -0.245307,1.0992 -0.512106,2.2371 -0.592903,2.5286 -0.172034,0.6208 -0.49358,0.4787 6.278543,2.7775 4.562373,1.5487 4.865098,1.6056 7.185102,1.3506 1.264374,-0.139 1.448759,-0.1103 1.854729,0.2964 0.603246,0.6032 0.567859,1.0138 -0.185022,2.1466 -0.348674,0.5245 -0.741877,1.5006 -0.873818,2.1688 -0.30128,1.5262 -0.532937,1.8405 -1.458733,1.9798 -0.598883,0.09 -0.985395,-0.04 -2.013015,-0.6713 z m 2.510736,-1.7815 c 0.107338,-0.6931 0.397589,-1.4532 0.715533,-1.8744 0.458512,-0.6075 0.492428,-0.7509 0.237956,-1.0055 -0.246288,-0.2463 -0.503383,-0.2536 -1.507011,-0.043 -1.140495,0.2392 -1.34125,0.2136 -3.491328,-0.4435 -1.254694,-0.3834 -3.990005,-1.3078 -6.078474,-2.054 -2.856862,-1.0208 -3.866739,-1.2992 -4.077885,-1.124 -0.333456,0.2768 -1.215656,1.6687 -1.104838,1.7433 0.237465,0.1597 1.795129,0.7705 5.532941,2.1691 5.01564,1.8769 6.756978,2.6486 7.624327,3.3783 0.458389,0.3857 0.8462,0.5289 1.309686,0.4837 0.623292,-0.061 0.668113,-0.1266 0.839216,-1.2299 z m -50.685143,-0.2882 c 1.471354,-0.9664 5.392938,-2.6637 9.946758,-4.3051 l 2.68277,-0.967 -0.408911,-1.1886 c -0.224967,-0.6536 -0.478288,-1.2558 -0.563055,-1.3379 -0.08479,-0.082 -2.398547,0.7865 -5.141675,1.9307 -6.779353,2.8273 -6.687528,2.7996 -8.702283,2.6316 -1.943466,-0.162 -2.014044,-0.074 -1.150714,1.4362 0.290056,0.5074 0.528526,1.2134 0.529923,1.5689 0.0049,1.4274 0.876857,1.4991 2.807187,0.2312 z m 27.189263,-0.6822 c 1.635423,-0.3931 3.999048,-1.5516 5.111655,-2.5053 1.138338,-0.9758 3.407247,-4.3003 3.908792,-5.7273 0.472185,-1.3434 0.723276,-2.9084 1.057124,-6.5888 0.13748,-1.5157 0.420184,-3.3041 0.628217,-3.9745 0.208058,-0.6704 0.300202,-1.2188 0.204873,-1.2188 -0.42087,0 -1.485323,1.3731 -1.877961,2.4225 -0.235995,0.631 -0.565334,2.1896 -0.731683,3.4634 -0.317208,2.4294 -0.588566,3.2288 -1.095942,3.2288 -0.167868,0 -0.443637,0.2679 -0.613024,0.5955 -0.346934,0.6709 -2.154342,2.1601 -2.6217,2.1601 -0.168113,0 -0.588982,0.2385 -0.935353,0.53 -0.346371,0.2915 -0.865658,0.5299 -1.153974,0.5299 -0.288316,0 -0.806524,0.1461 -1.151621,0.3244 -0.345097,0.1785 -0.93653,0.3253 -1.314293,0.3261 -0.377788,8e-4 -1.44996,0.033 -2.382618,0.071 -1.717249,0.069 -3.701469,-0.281 -4.811821,-0.8512 -0.314832,-0.1617 -0.782557,-0.2939 -1.039432,-0.2939 -0.273097,0 -0.792065,-0.3521 -1.249792,-0.8478 -0.430526,-0.4664 -0.92141,-0.8479 -1.09087,-0.8479 -0.385508,0 -0.816866,-0.418 -0.816866,-0.7914 0,-0.1554 -0.329266,-0.6119 -0.731707,-1.0143 -0.475078,-0.4752 -0.775328,-1.0116 -0.856125,-1.5298 -0.584253,-3.7476 -1.080528,-5.1676 -2.28376,-6.5347 -0.713792,-0.8109 -1.758517,-1.5763 -2.151523,-1.5763 -0.06004,0 0.08528,0.4531 0.322722,1.0068 0.237465,0.5539 0.846322,2.7239 1.353087,4.8224 1.577367,6.5319 3.16711,10.7983 4.477017,12.0152 1.52392,1.4156 4.53022,2.778 6.946142,3.1481 1.312896,0.2009 3.185025,0.071 4.900509,-0.3419 z m -2.013725,-8.5808 c 0,-0.694 -0.0718,-0.8353 -0.423934,-0.8353 -0.338308,0 -0.423957,0.1413 -0.423957,0.6995 0,0.7143 0.349851,1.2789 0.669853,1.0812 0.09802,-0.061 0.17816,-0.486 0.17816,-0.9454 z m -2.368944,0.019 c 0.06592,-0.6751 -0.269544,-1.1632 -0.641523,-0.9333 -0.206833,0.128 -0.225458,1.4362 -0.02451,1.6384 0.297016,0.2969 0.598173,-0.022 0.664879,-0.7051 z m 4.659834,-0.2709 c -0.06764,-0.9351 -0.464295,-1.206 -0.853502,-0.583 -0.26729,0.428 0.147772,1.4839 0.583272,1.4839 0.263491,0 0.321424,-0.1931 0.27023,-0.9009 z m -6.781852,-0.1226 c 0.05538,-0.5595 -0.0074,-0.6725 -0.370951,-0.6725 -0.289835,0 -0.437362,0.1372 -0.437362,0.4067 0,1.1784 0.695609,1.4073 0.808313,0.2658 z m 8.902792,-0.4239 c 0.04803,-0.4869 -0.02205,-0.6726 -0.252463,-0.6726 -0.449076,0 -0.618145,0.3589 -0.462016,0.981 0.180611,0.7194 0.632236,0.5244 0.714479,-0.3084 z m -11.088919,-0.3544 c 0,-0.3305 -0.119345,-0.6405 -0.264961,-0.6891 -0.179876,-0.06 -0.264961,0.1614 -0.264961,0.6891 0,0.5275 0.08504,0.7488 0.264961,0.6889 0.145812,-0.049 0.264961,-0.3586 0.264961,-0.6889 z m 13.032974,-0.6891 c 0.0019,-0.284 -0.125227,-0.4769 -0.314709,-0.4769 -0.330222,0 -0.417047,0.5551 -0.182572,1.1664 0.108073,0.2815 0.171789,0.2958 0.314709,0.071 0.09852,-0.1556 0.180611,-0.4974 0.182572,-0.7597 z m -14.622766,-0.5953 c 0,-0.3186 -0.122041,-0.5175 -0.317944,-0.5175 -0.317257,0 -0.455399,0.8518 -0.182326,1.1248 0.240161,0.2402 0.500344,-0.075 0.500344,-0.6073 z m 16.109803,-0.3179 c 0,-0.6213 -0.274274,-0.8252 -0.537372,-0.3995 -0.197766,0.3201 0.08528,1.3021 0.331618,1.1499 0.113219,-0.069 0.205852,-0.4076 0.205852,-0.7504 z m -10.810504,-0.2795 c 0,-1.4819 -0.866123,-1.8956 -1.136647,-0.543 -0.161496,0.8076 0.163211,1.4708 0.72014,1.4708 0.350586,0 0.416507,-0.1468 0.416507,-0.9278 z m 2.289396,0.061 c 0.08332,-0.9942 -0.480371,-1.5613 -0.934545,-0.9402 -0.311866,0.4265 -0.397858,1.4207 -0.144831,1.6739 0.08259,0.083 0.344974,0.1225 0.582929,0.089 0.328776,-0.048 0.447949,-0.2444 0.496374,-0.822 z m 2.373967,0.035 c 0,-0.8871 -0.200951,-1.2891 -0.644317,-1.2891 -0.466795,0 -0.694899,0.6115 -0.507108,1.3596 0.09999,0.3983 0.276063,0.548 0.644465,0.548 0.418811,0 0.50696,-0.1075 0.50696,-0.6185 z m -6.783077,-0.5767 c 0,-0.47 -0.119591,-0.7717 -0.339363,-0.8559 -0.608318,-0.2337 -1.002794,1.0481 -0.482699,1.5682 0.4107,0.4108 0.822062,0.054 0.822062,-0.7123 z m 9.286804,0.093 c 0.08749,-0.7586 -0.298608,-1.4413 -0.81542,-1.4413 -0.359212,0 -0.416483,0.1479 -0.416483,1.074 0,1.0465 0.0147,1.0723 0.582905,1.0069 0.45486,-0.052 0.597437,-0.1929 0.648998,-0.6396 z m -14.162146,-0.064 c 0,-0.2914 -0.09533,-0.5299 -0.211979,-0.5299 -0.116649,0 -0.211979,0.2385 -0.211979,0.5299 0,0.2915 0.09533,0.53 0.211979,0.53 0.11665,0 0.211979,-0.2385 0.211979,-0.53 z m -5.215022,-1.0942 c -0.205117,-0.6806 -0.475053,-1.3428 -0.599643,-1.4717 -0.124492,-0.1294 -1.943466,-0.7697 -4.041983,-1.4239 -6.34297,-1.9775 -9.538998,-3.1864 -10.383091,-3.9276 -0.418076,-0.3671 -0.944249,-0.6674 -1.16924,-0.6674 -0.562688,0 -0.913985,0.7477 -0.75342,1.6035 0.09999,0.5333 -0.0049,0.983 -0.418983,1.8008 -0.303779,0.5996 -0.501152,1.2234 -0.438563,1.3865 0.146547,0.3821 1.112999,0.3786 2.208084,0 0.804564,-0.2838 1.009117,-0.2642 3.047226,0.2906 1.201614,0.3271 4.235583,1.2223 6.742153,1.9892 4.872204,1.4908 6.000569,1.8085 6.110871,1.7207 0.03823,-0.03 -0.09827,-0.6122 -0.303411,-1.2928 z m 7.931096,0.2994 c -0.07254,-0.7511 -0.322159,-0.8824 -0.659977,-0.3468 -0.275573,0.4369 -0.05097,1.0357 0.38835,1.0357 0.253688,0 0.321472,-0.1718 0.271627,-0.6889 z m 13.569047,0.1929 c 0.11812,-0.6135 -0.156105,-1.4117 -0.484807,-1.4117 -0.457017,0 -0.595085,0.3733 -0.441333,1.1929 0.101456,0.5415 0.23526,0.7228 0.495516,0.6727 0.19605,-0.038 0.389796,-0.2422 0.430624,-0.4539 z m 3.004242,-0.3643 c 0,-0.2262 -0.09533,-0.4115 -0.211979,-0.4115 -0.11665,0 -0.211979,0.2442 -0.211979,0.5424 0,0.3077 0.09165,0.4858 0.211979,0.4115 0.11665,-0.072 0.211979,-0.3162 0.211979,-0.5424 z m -18.441472,-0.9592 c 0,-0.4887 -0.08896,-0.7299 -0.249817,-0.6762 -0.694726,0.2316 -0.757462,1.4358 -0.07474,1.4358 0.231094,0 0.32461,-0.2188 0.32461,-0.7596 z m 26.284395,-0.7751 c 3.119715,-1.2005 5.433911,-1.8568 6.54669,-1.8568 0.523183,0 1.651156,0.1963 2.506619,0.4364 2.946187,0.8267 3.885854,0.3054 2.614054,-1.4502 -0.514189,-0.7098 -0.644856,-1.1055 -0.644856,-1.9519 0,-0.7759 -0.113219,-1.1748 -0.42016,-1.4818 -0.474514,-0.4746 -0.878817,-0.3891 -2.272168,0.4802 -1.26925,0.7918 -7.36015,3.2887 -10.449894,4.2838 -1.600771,0.5156 -1.695757,0.6241 -1.695757,1.938 l 0,1.1427 0.794884,-0.342 c 0.437191,-0.1879 1.796453,-0.7273 3.020588,-1.1984 z m -17.91155,0.7422 c 0.58293,-0.042 1.454959,-0.099 1.937854,-0.1266 0.482895,-0.027 1.031663,-0.1777 1.219479,-0.3336 0.187718,-0.1559 0.603515,-0.2783 0.923762,-0.272 0.320247,0 0.894747,-0.1307 1.276652,-0.304 0.381929,-0.1735 0.881243,-0.2561 1.109617,-0.1838 0.270941,0.086 0.662673,-0.057 1.127384,-0.4113 0.816303,-0.6227 1.332404,-0.6828 1.848823,-0.2154 0.334314,0.3025 0.373818,0.2658 0.512866,-0.4771 0.392639,-2.0971 2.145079,-4.522 4.192108,-5.8006 3.240458,-2.0238 3.600504,-3.3075 1.976035,-7.0453 -0.516493,-1.18841 -1.054895,-2.62361 -1.196443,-3.18932 -0.381561,-1.52481 -0.125962,-5.10134 0.547886,-7.66231 0.660786,-2.51175 0.730286,-4.30761 0.21541,-5.5638 -0.458634,-1.1188 -0.323923,-1.6735 0.310224,-1.27748 1.233251,0.77018 1.450916,3.70375 0.557615,7.51487 -0.654366,2.79175 -0.736045,5.52156 -0.218106,7.28984 0.185512,0.63319 0.415822,1.23379 0.511886,1.33469 0.408642,0.4288 1.912588,-3.73438 2.440869,-6.75669 0.489414,-2.80015 0.488458,-7.27354 -0.002,-9.43048 -1.450548,-6.37885 -7.13609,-10.88282 -16.218145,-12.84776 -2.819711,-0.61003 -7.330669,-0.52636 -9.998588,0.18551 -6.551812,1.74809 -10.639793,5.05723 -13.310286,10.77449 -0.987208,2.11351 -1.340563,4.11153 -1.214847,6.86912 0.127433,2.79697 0.604642,4.44033 1.935698,6.66755 l 0.944421,1.58027 0.23624,-0.62114 c 0.362667,-0.95388 0.270524,-3.59301 -0.203402,-5.82494 -0.479268,-2.25729 -0.532054,-3.3486 -0.21688,-4.48329 0.458364,-1.65025 1.325885,-1.03725 1.007917,0.71221 -0.140176,0.77185 -0.09655,1.67843 0.15978,3.31747 0.194089,1.24047 0.401804,3.01978 0.461746,3.95408 0.09901,1.54434 0.04068,1.90066 -0.643705,3.92146 -0.876244,2.58755 -1.415258,5.06755 -1.414156,6.50625 0.0013,1.7222 1.175956,3.0679 3.381884,3.8742 3.030831,1.1078 5.10418,3.392 5.630451,6.2035 0.141891,0.7575 0.557909,1.045 0.843529,0.5828 0.211734,-0.3425 1.018356,-0.235 1.589792,0.212 0.291453,0.2279 0.732859,0.4166 0.980911,0.4192 0.248027,0 0.569721,0.1478 0.714846,0.3228 0.150224,0.181 0.612411,0.3179 1.073299,0.3179 0.445181,0 0.864507,0.09 0.931801,0.1979 0.06739,0.1089 0.443758,0.1458 0.836569,0.082 0.39281,-0.064 0.89183,-0.014 1.108955,0.1144 0.217125,0.1266 0.537863,0.1672 0.712739,0.09 0.174975,-0.076 0.794908,-0.1746 1.377814,-0.217 z m -3.845296,-4.9403 c -1.366712,-0.8757 -1.382322,-2.0816 -0.07107,-5.482 0.828997,-2.1497 2.066683,-3.6232 3.043379,-3.6232 1.677573,0 3.946482,4.0819 3.946482,7.0999 0,0.9256 -0.09239,1.1763 -0.619811,1.6815 -0.79584,0.7626 -2.24428,0.9739 -3.05105,0.4452 -0.504828,-0.3307 -0.59006,-0.3327 -1.03056,-0.024 -0.645273,0.452 -1.412686,0.4184 -2.21747,-0.097 z m -6.870736,-7.5842 c -1.546612,-0.9826 -2.888206,-3.3219 -3.103958,-5.41246 -0.100721,-0.97586 -0.04828,-1.18196 0.450694,-1.77508 1.643632,-1.95338 6.849244,-2.81624 8.851133,-1.46717 1.030094,0.69419 1.272779,1.298 1.14498,2.84875 -0.188698,2.28976 -1.733718,4.85486 -3.621849,6.01306 -0.995295,0.6105 -2.572222,0.5228 -3.721,-0.2071 z m 18.109069,0.078 c -2.197571,-1.1128 -4.524485,-4.24451 -4.529362,-6.09569 -0.0049,-1.59192 2.300105,-3.22465 5.484542,-3.88617 3.087563,-0.64138 4.51657,0.0598 4.807042,2.35892 0.34272,2.71273 -0.791183,6.47724 -2.26761,7.52864 -1.002647,0.7139 -2.207006,0.7464 -3.494612,0.094 z m 1.297777,12.0734 c 0,-0.5407 -0.452018,-0.6386 -0.585871,-0.1266 -0.06053,0.2312 -0.05465,0.4756 0.01225,0.5431 0.226928,0.227 0.573103,-0.024 0.573103,-0.4161 z"
       id="path5018" />
  </g>
</svg>
