<?xml version="1.0" encoding="UTF-8" standalone="no"?>
<!-- Created with Inkscape (http://www.inkscape.org/) -->

<svg
   xmlns:dc="http://purl.org/dc/elements/1.1/"
   xmlns:cc="http://creativecommons.org/ns#"
   xmlns:rdf="http://www.w3.org/1999/02/22-rdf-syntax-ns#"
   xmlns:svg="http://www.w3.org/2000/svg"
   xmlns="http://www.w3.org/2000/svg"
   xmlns:sodipodi="http://sodipodi.sourceforge.net/DTD/sodipodi-0.dtd"
   xmlns:inkscape="http://www.inkscape.org/namespaces/inkscape"
   width="100"
   height="100"
   id="svg2"
   inkscape:label="Pozadí"
   sodipodi:version="0.32"
   inkscape:version="0.47 r22583"
   sodipodi:docname="winterngrey.svg"
   inkscape:output_extension="org.inkscape.output.svg.inkscape"
   version="1.1">
  <defs
     id="defs2963">
    <inkscape:perspective
       sodipodi:type="inkscape:persp3d"
       inkscape:vp_x="0 : 526.18109 : 1"
       inkscape:vp_y="0 : 1000 : 0"
       inkscape:vp_z="744.09448 : 526.18109 : 1"
       inkscape:persp3d-origin="372.04724 : 350.78739 : 1"
       id="perspective346" />
    <inkscape:perspective
       id="perspective4464"
       inkscape:persp3d-origin="0.5 : 0.33333333 : 1"
       inkscape:vp_z="1 : 0.5 : 1"
       inkscape:vp_y="0 : 1000 : 0"
       inkscape:vp_x="0 : 0.5 : 1"
       sodipodi:type="inkscape:persp3d" />
    <inkscape:perspective
       id="perspective4512"
       inkscape:persp3d-origin="0.5 : 0.33333333 : 1"
       inkscape:vp_z="1 : 0.5 : 1"
       inkscape:vp_y="0 : 1000 : 0"
       inkscape:vp_x="0 : 0.5 : 1"
       sodipodi:type="inkscape:persp3d" />
    <inkscape:perspective
       id="perspective4512-4"
       inkscape:persp3d-origin="0.5 : 0.33333333 : 1"
       inkscape:vp_z="1 : 0.5 : 1"
       inkscape:vp_y="0 : 1000 : 0"
       inkscape:vp_x="0 : 0.5 : 1"
       sodipodi:type="inkscape:persp3d" />
    <inkscape:perspective
       id="perspective4919"
       inkscape:persp3d-origin="0.5 : 0.33333333 : 1"
       inkscape:vp_z="1 : 0.5 : 1"
       inkscape:vp_y="0 : 1000 : 0"
       inkscape:vp_x="0 : 0.5 : 1"
       sodipodi:type="inkscape:persp3d" />
    <inkscape:perspective
       id="perspective3929"
       inkscape:persp3d-origin="0.5 : 0.33333333 : 1"
       inkscape:vp_z="1 : 0.5 : 1"
       inkscape:vp_y="0 : 1000 : 0"
       inkscape:vp_x="0 : 0.5 : 1"
       sodipodi:type="inkscape:persp3d" />
  </defs>
  <sodipodi:namedview
     id="base"
     pagecolor="#ffffff"
     bordercolor="#666666"
     borderopacity="1.0"
     inkscape:pageopacity="0.0"
     inkscape:pageshadow="2"
     inkscape:zoom="2.52218"
     inkscape:cx="52.224168"
     inkscape:cy="48.742556"
     inkscape:document-units="px"
     inkscape:current-layer="layer1"
     inkscape:window-width="1024"
     inkscape:window-height="549"
     inkscape:window-x="0"
     inkscape:window-y="0"
     showgrid="false"
     inkscape:window-maximized="1" />
  <metadata
     id="metadata2966">
    <rdf:RDF>
      <cc:Work
         rdf:about="">
        <dc:format>image/svg+xml</dc:format>
        <dc:type
           rdf:resource="http://purl.org/dc/dcmitype/StillImage" />
        <dc:title></dc:title>
      </cc:Work>
    </rdf:RDF>
  </metadata>
  <g
     inkscape:label="Vrstva 1"
     inkscape:groupmode="layer"
     id="layer1"
     transform="translate(0,-952.36218)">
    <rect
       style="fill:#cccccc;fill-opacity:1;stroke:#cccccc;stroke-width:1.99660145999999994;stroke-linejoin:round;stroke-miterlimit:4;stroke-opacity:1;stroke-dasharray:none"
       id="rect4438-0-8"
       width="92.003395"
       height="92.003403"
       x="3.9550877"
       y="956.80017"
       rx="9.5836878"
       ry="9.5836878" />
    <rect
       style="fill:none;stroke:#4d4d4d;stroke-width:4;stroke-linejoin:round;stroke-miterlimit:4;stroke-opacity:0.30000000999999998;stroke-dasharray:none"
       id="rect4438"
       width="96"
       height="96"
       x="2.3964825"
       y="954.44861"
       rx="10"
       ry="10" />
    <rect
       style="fill:none;stroke:#4d4d4d;stroke-width:5;stroke-linejoin:round;stroke-miterlimit:4;stroke-opacity:0.69999999999999996;stroke-dasharray:none"
       id="rect4438-57"
       width="92.159996"
       height="92.160004"
       x="3.8767693"
       y="955.92902"
       rx="9.5999994"
       ry="9.6000004" />
    <rect
       style="fill:none;stroke:#4d4d4d;stroke-width:3.98613523999999986;stroke-linejoin:round;stroke-miterlimit:4;stroke-opacity:0.29999999999999999;stroke-dasharray:none"
       id="rect4438-5"
       width="88.013863"
       height="88.013863"
       x="5.7898545"
       y="958.55847"
       rx="9.1681108"
       ry="9.1681108" />
    <rect
       style="fill:none;stroke:#4d4d4d;stroke-width:1.99660145999999994;stroke-linejoin:round;stroke-miterlimit:4;stroke-opacity:1;stroke-dasharray:none"
       id="rect4438-0"
       width="92.003395"
       height="92.003403"
       x="4.2715678"
       y="956.08728"
       rx="9.5836878"
       ry="9.5836878" />
    <path
       style="fill:#808080;fill-opacity:1;stroke:none"
       d="m 20.141506,980.53108 0,49.81752 59.689397,0 0,-49.81752 -59.689397,0 z m 8.391067,12.37506 8.038502,0 0,9.41346 -8.038502,0 0,-9.41346 z m 17.875088,0.21154 8.073758,0 0,9.41342 -8.073758,0 0,-9.41342 z m 16.993674,0 8.073757,0 0,9.41342 -8.073757,0 0,-9.41342 z m 0,18.36862 8.073757,0 0,9.3782 -8.073757,0 0,-9.3782 z m -34.868762,0.4231 8.038502,0 0,9.4134 -8.038502,0 0,-9.4134 z m 17.487266,2.75 8.849403,0 0,14.2083 -8.849403,0 0,-14.2083 z"
       id="rect2990" />
    <path
       style="fill:#cccccc;stroke:#cccccc;stroke-width:1.12821065999999992px;stroke-linecap:butt;stroke-linejoin:miter;stroke-opacity:1"
       d="m 17.786368,988.8849 4.473158,0.89464 1.341946,-2.6839 2.683894,1.34195 2.012921,-3.80219 1.565604,0.22366 2.460237,-2.01292 -1.341946,-2.23657 -0.894632,-0.89464 -13.866787,0.22365 1.565605,8.94632 z"
       id="path3913" />
    <path
       style="fill:#cccccc;stroke:#cccccc;stroke-width:1.12821065999999992px;stroke-linecap:butt;stroke-linejoin:miter;stroke-opacity:1"
       d="m 26.509024,1000.0678 3.354867,-0.44732 1.341948,3.80222 -0.670974,1.5655 1.789263,0.8947 -1.565605,1.1183 -2.236578,0.4472 -0.670973,-2.4602 -1.341948,-4.9204 z"
       id="path3915" />
    <path
       style="fill:#cccccc;stroke:#cccccc;stroke-width:1.12821065999999992px;stroke-linecap:butt;stroke-linejoin:miter;stroke-opacity:1"
       d="m 48.651151,978.8203 1.118289,3.1312 1.341947,5.36779 4.473157,-1.34194 2.012921,1.34194 6.26242,-0.89462 2.907551,1.78926 4.249499,-1.56561 -1.789263,4.2495 3.578526,-0.22366 2.236579,2.01292 1.565604,-0.44731 8.722656,0.67097 -3.578525,-16.99799 -33.101361,2.90755 z"
       id="path3917" />
    <path
       style="fill:#cccccc;stroke:#cccccc;stroke-width:1.12821065999999992px;stroke-linecap:butt;stroke-linejoin:miter;stroke-opacity:1"
       d="m 54.01894,1020.6443 2.683893,-4.0259 0.670974,-2.2366 -2.683895,-0.6709 2.012921,-2.6839 -4.249499,-0.2236 -2.236578,-0.8947 0.670974,2.6839 -0.894632,1.3419 4.025842,6.7098 z"
       id="path3919" />
  </g>
</svg>
