<?xml version="1.0" encoding="UTF-8" standalone="no"?>
<!-- Created with Inkscape (http://www.inkscape.org/) -->

<svg
   xmlns:dc="http://purl.org/dc/elements/1.1/"
   xmlns:cc="http://creativecommons.org/ns#"
   xmlns:rdf="http://www.w3.org/1999/02/22-rdf-syntax-ns#"
   xmlns:svg="http://www.w3.org/2000/svg"
   xmlns="http://www.w3.org/2000/svg"
   xmlns:sodipodi="http://sodipodi.sourceforge.net/DTD/sodipodi-0.dtd"
   xmlns:inkscape="http://www.inkscape.org/namespaces/inkscape"
   width="100"
   height="100"
   id="svg2"
   inkscape:label="Pozadí"
   sodipodi:version="0.32"
   inkscape:version="0.47 r22583"
   sodipodi:docname="scenicviewgrey.svg"
   inkscape:output_extension="org.inkscape.output.svg.inkscape"
   version="1.1">
  <defs
     id="defs2963">
    <inkscape:perspective
       sodipodi:type="inkscape:persp3d"
       inkscape:vp_x="0 : 526.18109 : 1"
       inkscape:vp_y="0 : 1000 : 0"
       inkscape:vp_z="744.09448 : 526.18109 : 1"
       inkscape:persp3d-origin="372.04724 : 350.78739 : 1"
       id="perspective346" />
    <inkscape:perspective
       id="perspective4464"
       inkscape:persp3d-origin="0.5 : 0.33333333 : 1"
       inkscape:vp_z="1 : 0.5 : 1"
       inkscape:vp_y="0 : 1000 : 0"
       inkscape:vp_x="0 : 0.5 : 1"
       sodipodi:type="inkscape:persp3d" />
    <inkscape:perspective
       id="perspective4512"
       inkscape:persp3d-origin="0.5 : 0.33333333 : 1"
       inkscape:vp_z="1 : 0.5 : 1"
       inkscape:vp_y="0 : 1000 : 0"
       inkscape:vp_x="0 : 0.5 : 1"
       sodipodi:type="inkscape:persp3d" />
    <inkscape:perspective
       id="perspective4512-4"
       inkscape:persp3d-origin="0.5 : 0.33333333 : 1"
       inkscape:vp_z="1 : 0.5 : 1"
       inkscape:vp_y="0 : 1000 : 0"
       inkscape:vp_x="0 : 0.5 : 1"
       sodipodi:type="inkscape:persp3d" />
    <inkscape:perspective
       id="perspective4919"
       inkscape:persp3d-origin="0.5 : 0.33333333 : 1"
       inkscape:vp_z="1 : 0.5 : 1"
       inkscape:vp_y="0 : 1000 : 0"
       inkscape:vp_x="0 : 0.5 : 1"
       sodipodi:type="inkscape:persp3d" />
    <inkscape:perspective
       id="perspective3045"
       inkscape:persp3d-origin="0.5 : 0.33333333 : 1"
       inkscape:vp_z="1 : 0.5 : 1"
       inkscape:vp_y="0 : 1000 : 0"
       inkscape:vp_x="0 : 0.5 : 1"
       sodipodi:type="inkscape:persp3d" />
    <inkscape:perspective
       id="perspective3618"
       inkscape:persp3d-origin="0.5 : 0.33333333 : 1"
       inkscape:vp_z="1 : 0.5 : 1"
       inkscape:vp_y="0 : 1000 : 0"
       inkscape:vp_x="0 : 0.5 : 1"
       sodipodi:type="inkscape:persp3d" />
    <inkscape:perspective
       id="perspective3607"
       inkscape:persp3d-origin="0.5 : 0.33333333 : 1"
       inkscape:vp_z="1 : 0.5 : 1"
       inkscape:vp_y="0 : 1000 : 0"
       inkscape:vp_x="0 : 0.5 : 1"
       sodipodi:type="inkscape:persp3d" />
  </defs>
  <sodipodi:namedview
     id="base"
     pagecolor="#ffffff"
     bordercolor="#666666"
     borderopacity="1.0"
     inkscape:pageopacity="0.0"
     inkscape:pageshadow="2"
     inkscape:zoom="2.52218"
     inkscape:cx="52.224168"
     inkscape:cy="48.742556"
     inkscape:document-units="px"
     inkscape:current-layer="layer1"
     inkscape:window-width="1024"
     inkscape:window-height="549"
     inkscape:window-x="0"
     inkscape:window-y="0"
     showgrid="false"
     inkscape:window-maximized="1" />
  <metadata
     id="metadata2966">
    <rdf:RDF>
      <cc:Work
         rdf:about="">
        <dc:format>image/svg+xml</dc:format>
        <dc:type
           rdf:resource="http://purl.org/dc/dcmitype/StillImage" />
        <dc:title></dc:title>
      </cc:Work>
    </rdf:RDF>
  </metadata>
  <g
     inkscape:label="Vrstva 1"
     inkscape:groupmode="layer"
     id="layer1"
     transform="translate(0,-952.36218)">
    <rect
       style="fill:#cccccc;fill-opacity:1;stroke:#cccccc;stroke-width:1.99660145999999994;stroke-linejoin:round;stroke-miterlimit:4;stroke-opacity:1;stroke-dasharray:none"
       id="rect4438-0-8"
       width="92.003395"
       height="92.003403"
       x="3.9550877"
       y="956.80017"
       rx="9.5836878"
       ry="9.5836878" />
    <rect
       style="fill:none;stroke:#4d4d4d;stroke-width:4;stroke-linejoin:round;stroke-miterlimit:4;stroke-opacity:0.30000000999999998;stroke-dasharray:none"
       id="rect4438"
       width="96"
       height="96"
       x="2.3964825"
       y="954.44861"
       rx="10"
       ry="10" />
    <rect
       style="fill:none;stroke:#4d4d4d;stroke-width:5;stroke-linejoin:round;stroke-miterlimit:4;stroke-opacity:0.69999999999999996;stroke-dasharray:none"
       id="rect4438-57"
       width="92.159996"
       height="92.160004"
       x="3.8767693"
       y="955.92902"
       rx="9.5999994"
       ry="9.6000004" />
    <rect
       style="fill:none;stroke:#4d4d4d;stroke-width:3.98613523999999986;stroke-linejoin:round;stroke-miterlimit:4;stroke-opacity:0.29999999999999999;stroke-dasharray:none"
       id="rect4438-5"
       width="88.013863"
       height="88.013863"
       x="5.7898545"
       y="958.55847"
       rx="9.1681108"
       ry="9.1681108" />
    <rect
       style="fill:none;stroke:#4d4d4d;stroke-width:1.99660145999999994;stroke-linejoin:round;stroke-miterlimit:4;stroke-opacity:1;stroke-dasharray:none"
       id="rect4438-0"
       width="92.003395"
       height="92.003403"
       x="4.2715678"
       y="956.08728"
       rx="9.5836878"
       ry="9.5836878" />
    <path
       id="path12"
       d="m 79.479393,1005.0703 c -0.0416,-0.2082 -0.0416,-0.4373 -0.0208,-0.6455 0,-0.1457 0,-0.2706 0,-0.3955 0,-0.125 0,-0.2707 0,-0.3956 -0.0208,-0.2499 0,-0.4997 0.0416,-0.7495 0.12492,-0.6663 0.2082,-1.2909 0.24984,-1.9363 0.0416,-0.458 0.0625,-0.9161 0.0833,-1.37411 l 0.0416,-0.70788 0.12492,-0.97853 0.12492,-1.2492 c 0.0208,-0.0833 0.0208,-0.16656 0.0208,-0.22902 0,-0.0833 0,-0.16656 -0.0208,-0.22902 l -0.12492,-1.20756 c 0.12492,0.56214 0.24984,1.12428 0.3123,1.68642 l 0.3123,2.04035 0.0208,0.27066 0.0625,0.58296 0.0416,0.43722 v 0.66621 l -0.0208,0.583 0.0625,0.9993 0.0625,1.2492 0.0625,0.9369 -0.0208,1.5824 -0.0416,0.5621 -0.0416,0.4997 -0.1041,0.6246 c 0,0.1249 0.0208,0.2706 0.0208,0.3956 0,0.1665 -0.0208,0.3539 -0.0208,0.5413 0,0.021 0,0.042 0,0.062 0,0.1249 0.0208,0.2498 0.0416,0.3539 0.0833,0.229 0.12492,0.4581 0.14574,0.7079 0.0416,0.2498 0.0625,0.4997 0.12492,0.7495 0.0625,0.2499 0.1041,0.4997 0.1041,0.7704 l 0.0208,0.5205 c 0,0.1041 0.0625,0.2082 0.14574,0.2498 0.12492,0.083 0.29148,0.1457 0.45804,0.1457 0.0208,0 0.0416,0.021 0.0625,0.021 0.12492,0 0.22902,-0.042 0.33312,-0.083 0.2082,-0.062 0.3123,-0.2498 0.3123,-0.458 v -1.041 c 0,-0.458 -0.0416,-0.9161 -0.12492,-1.3741 -0.0625,-0.3748 -0.0625,-0.7704 -0.0208,-1.1659 0.0208,-0.1041 0.0416,-0.2291 0.0833,-0.354 0.0208,-0.1249 0.0208,-0.2498 0.0208,-0.3956 l 0,0 c 0,-0.1041 -0.0208,-0.2082 -0.0833,-0.2706 -0.12492,-0.1666 -0.2082,-0.3123 -0.27066,-0.4997 -0.1041,-0.229 -0.18738,-0.458 -0.24984,-0.7079 -0.0625,-0.1874 -0.1041,-0.3956 -0.0833,-0.6038 0.0208,-0.3331 0.0208,-0.6662 0.0208,-0.9993 v -0.021 c 0,-0.4372 0.0416,-0.8745 0.1041,-1.3117 0.0625,-0.3747 0.1041,-0.7703 0.1041,-1.1659 v -2.62331 l 0.0416,-3.33119 -0.0416,-1.47822 c -0.0208,-0.24984 -0.0208,-0.49968 -0.0416,-0.74952 -0.0208,-0.81198 -0.16656,-1.58232 -0.43722,-2.33184 -0.27066,-0.7287 -0.64542,-1.37412 -1.16592,-1.95708 -0.47886,-0.5205 -0.99936,-0.99936 -1.58232,-1.41576 -0.37476,-0.27066 -0.77034,-0.49968 -1.18674,-0.66624 -0.60378,-0.24984 -1.2492,-0.47886 -1.89462,-0.64542 -0.43722,-0.12492 -0.87444,-0.18738 -1.33247,-0.2082 -0.3123,-0.0208 -0.70788,-0.0208 -1.08264,-0.0416 -0.24984,0 -0.35394,0 -0.43722,0 -0.6246,0 -1.22838,0.0416 -1.83216,0.14574 -0.29148,0.0625 -0.56214,0.1041 -0.85362,0.14574 -0.4164,0.0625 -0.81198,0.1041 -1.20756,0.14574 -0.97854,0.1041 -1.9779,0.18738 -2.97726,0.24984 -1.74888,0.0833 -3.66432,0.24984 -5.60058,0.43722 -0.81198,0.1041 -1.47822,0.16656 -2.14446,0.2082 -0.16655,0.0208 -0.45803,0.0416 -0.72869,0.0625 -0.3123,0.0208 -0.54132,0.0208 -0.77034,-0.0208 -0.18738,-0.0208 -0.37476,-0.0416 -0.58296,-0.0625 -0.70788,-0.1041 -1.39494,-0.14574 -2.082,-0.14574 -1.83216,0 -3.68514,-0.12492 -5.5173,-0.39558 -2.01954,-0.29148 -3.99744,-0.45804 -6.01698,-0.45804 -0.0833,0 -0.14574,0 -0.18738,0 -0.52049,0 -1.04099,0 -1.54067,0.0416 -0.54132,0.0416 -1.12428,0.1041 -1.70724,0.16656 -0.5205,0.0625 -1.08264,0.1041 -1.6656,0.14574 -0.7287,0.0625 -1.39494,0.0833 -2.06118,0.0625 -0.47886,-0.0208 -0.95772,-0.0625 -1.4574,-0.1041 -0.54132,-0.0416 -1.08264,-0.14574 -1.62396,-0.29148 -0.64542,-0.16656 -1.29084,-0.37476 -1.91544,-0.64542 -0.24984,-0.0833 -0.47886,-0.2082 -0.70788,-0.33312 l -0.37476,-0.22902 0.16656,-0.39558 c 0.0625,-0.0625 0.0833,-0.14574 0.0833,-0.24984 0,-0.0208 0,-0.0416 0,-0.0625 -0.0416,-0.16656 -0.12492,-0.29148 -0.29148,-0.35394 -0.18738,-0.0625 -0.39558,-0.14574 -0.6246,-0.2082 -0.14574,-0.0625 -0.3123,-0.12492 -0.45804,-0.18738 -0.2082,-0.1041 -0.43722,-0.18738 -0.66624,-0.22902 -0.22902,-0.0416 -0.43722,-0.16656 -0.58296,-0.35394 l -0.8328,-1.02018 c -0.0416,-0.0416 -0.0833,-0.0625 -0.12492,-0.0833 -0.0208,0 -0.0416,0 -0.0625,0 -0.0625,0 -0.1041,0.0416 -0.14574,0.1041 -0.0208,0.0625 -0.0208,0.12492 -0.0208,0.18738 0,0.0625 0,0.12492 0.0208,0.16656 l 0.1041,0.24984 0.2082,0.56214 0.24984,0.66624 h -0.0208 c -0.35394,0.0208 -0.66623,0.1041 -0.95771,0.24984 -0.14574,0.0833 -0.37476,0.2082 -0.58296,0.33312 -0.29148,0.14574 -0.45804,0.29148 -0.60378,0.47886 -0.0625,0.0625 -0.12492,0.12492 -0.2082,0.16656 -0.1041,0.0625 -0.22902,0.0833 -0.35394,0.0416 -0.18738,-0.0416 -0.37476,-0.16656 -0.49968,-0.33312 l -0.91608,-1.18674 c -0.0625,-0.0625 -0.12492,-0.1041 -0.2082,-0.1041 -0.0208,-0.0208 -0.0416,-0.0208 -0.0416,-0.0208 -0.0833,0 -0.14574,0.0416 -0.18738,0.1041 -0.0416,0.0833 -0.0625,0.16656 -0.0625,0.24984 0,0.0416 0,0.1041 0.0208,0.16656 l 0.14574,0.33312 0.27066,0.66624 0.2082,0.4164 0.22902,0.3123 0.16656,0.24984 0.35394,0.60378 c 0.0208,0.0416 0.0416,0.0833 0.0416,0.12492 0,0.0625 -0.0208,0.1041 -0.0625,0.14574 -0.14574,0.18738 -0.3123,0.37476 -0.49968,0.56214 -0.14574,0.14574 -0.33312,0.24984 -0.5205,0.29148 -0.22902,0.0625 -0.4164,0.24984 -0.47886,0.47886 -0.0625,0.2082 -0.12492,0.43722 -0.14574,0.64542 -0.0416,0.35394 -0.2082,0.66624 -0.43722,0.91608 -0.18738,0.16656 -0.33312,0.35394 -0.45804,0.56214 -0.2082,0.3123 -0.4164,0.6246 -0.66624,0.91608 -0.18738,0.22902 -0.33312,0.49968 -0.45804,0.74952 -0.12492,0.3123 -0.29148,0.60378 -0.5205,0.8328 l -1.31166,1.41576 c -0.0208,0.1041 -0.0416,0.2082 -0.0416,0.3123 0,0.0833 0,0.14574 0.0208,0.2082 0.0416,0.29148 0.12492,0.58296 0.2082,0.85362 0.0833,0.22902 0.2082,0.4164 0.35394,0.60378 0.14574,0.16656 0.29148,0.33312 0.47886,0.47886 0.18738,0.14574 0.4164,0.27066 0.64542,0.35394 0.1041,0.0208 0.2082,0.0416 0.3123,0.0416 0.16656,0 0.33312,-0.0416 0.47886,-0.12492 0.14574,-0.0833 0.29148,-0.12492 0.45804,-0.16656 0.22902,-0.0625 0.47886,-0.0625 0.7287,-0.0208 0.35394,0.0625 0.66624,0.12492 0.95772,0.18738 -0.1041,-0.0208 0.0625,-0.0208 0.22902,-0.0208 0.16656,0 0.35394,-0.0208 0.54132,-0.0416 0.3123,-0.0833 0.6246,-0.14574 0.91608,-0.18738 0.16656,-0.0416 0.43722,-0.12492 0.68706,-0.22902 0.18738,-0.0833 0.39558,-0.0833 0.60378,-0.0208 0.22902,0.0833 0.45804,0.18738 0.68705,0.3123 0.5205,0.29148 1.08264,0.47886 1.6656,0.58296 0.2082,0.0416 0.4164,0.0833 0.60378,0.12492 0.27066,0.0416 0.60378,0.0833 0.91608,0.0833 0.22902,0.0208 0.45804,0.0625 0.68706,0.16656 0.4164,0.20819 0.79116,0.52049 1.06182,0.91607 0.35394,0.5205 0.66624,1.06177 0.9369,1.64477 0.2082,0.4372 0.45804,0.8953 0.70788,1.3325 0.18738,0.3123 0.35394,0.687 0.49968,1.0618 0.2082,0.5205 0.4164,0.9785 0.64542,1.4574 0.14574,0.3331 0.29148,0.6662 0.4164,1.0202 0.0416,0.1041 0.1041,0.2082 0.16656,0.2915 0.58296,0.7911 1.37412,1.3741 2.2902,1.6656 l 0.56214,0.1873 -0.58296,0.5205 -1.18674,1.0619 -0.6246,0.6037 -0.49968,0.5414 c -0.14574,0.229 -0.29148,0.4788 -0.47886,0.7078 -0.14574,0.2291 -0.27066,0.4164 -0.35394,0.6246 -0.0833,0.1874 -0.12492,0.3748 -0.12492,0.583 0,0.083 0.0208,0.1666 0.0208,0.2498 0.0625,0.3123 0.18738,0.6038 0.33312,0.8745 l 0.3123,0.5205 0.37476,0.4997 1.12428,1.0618 0.49968,0.4997 0.45804,0.4788 0.24984,0.3123 0.74952,0.9369 1.31166,1.395 0.68706,0.6454 0.54132,0.4164 0.43722,0.2915 0.3123,0.1457 0.16656,0.021 c 0.18738,0.4789 0.49968,0.9161 0.87444,1.2492 0.14574,0.1457 0.33311,0.2498 0.54131,0.2915 0.18738,0.042 0.35394,0.083 0.54132,0.1249 0.0416,0 0.0833,0 0.12492,0 0.0833,0 0.14574,0 0.22902,-0.021 l 0.12492,-0.042 -0.97854,-3.352 c -0.0416,-0.1249 -0.12492,-0.229 -0.27066,-0.2499 l -0.89525,-0.2082 c -0.0833,-0.042 -0.12492,-0.1249 -0.1041,-0.1873 0.0625,-0.1874 0.12492,-0.3748 0.18738,-0.5622 0.0208,-0.042 0.0416,-0.1249 0.0416,-0.1874 0,-0.1873 -0.1041,-0.3539 -0.27066,-0.4372 -0.14574,-0.083 -0.3123,-0.1457 -0.47886,-0.2082 -0.22902,-0.042 -0.43722,-0.1665 -0.6246,-0.2915 -0.24984,-0.1873 -0.49968,-0.3747 -0.74952,-0.5829 -0.33312,-0.2707 -0.6246,-0.6246 -0.8328,-0.9994 -0.18738,-0.3539 -0.37476,-0.7079 -0.58296,-1.041 -0.18738,-0.3331 -0.27066,-0.6246 -0.3123,-0.9369 -0.0416,-0.3331 0.0416,-0.6662 0.24984,-0.9577 0.2082,-0.2915 0.49968,-0.5413 0.81198,-0.6871 0.39558,-0.1873 0.79116,-0.3747 1.18674,-0.5621 0.35394,-0.1666 0.70788,-0.3331 1.08264,-0.4789 0.35394,-0.1249 0.66624,-0.3123 0.97854,-0.5205 0.2082,-0.1665 0.41639,-0.2914 0.64541,-0.4164 0.45804,-0.2914 0.81198,-0.6662 1.08264,-1.1451 l 0.12492,-0.229 0.5205,1.0618 0.2082,0.4581 0.16656,0.3539 0.33312,0.4789 0.4164,0.6038 0.6246,0.8952 0.5205,0.8328 0.56214,0.9161 0.27066,0.4372 0.79116,1.395 0.3123,0.6037 0.39558,0.7912 0.2082,0.4789 0.14574,0.4372 c 0.1041,0.229 0.16656,0.458 0.2082,0.7079 0.0208,0.1873 0.0625,0.3747 0.1041,0.5829 0,0.083 0.0208,0.1666 0.0208,0.2499 0,0.2914 -0.1041,0.5621 -0.3123,0.7703 l -0.66624,0.7495 -0.1041,0.1666 c -0.64542,0.1665 -1.12428,0.7079 -1.22838,1.3741 l -0.0208,0.1457 h 3.56022 c 0.29148,-0.3123 0.45804,-0.7078 0.45804,-1.1242 0,-0.2499 -0.0625,-0.4997 -0.16656,-0.7287 l -0.1041,-0.1874 c -0.0208,-0.083 0.0208,-0.1458 0.0833,-0.1458 l 0,0 h 0.4164 c 0.27066,-0.042 0.43722,-0.2706 0.43722,-0.5205 0,-0.042 0,-0.062 -0.0208,-0.1041 l -0.16656,-0.8328 -0.29148,-1.0201 -0.33312,-1.2284 -0.33312,-1.1451 -0.2082,-0.8328 -0.18738,-0.7704 -0.12492,-0.4996 -0.12492,-0.4997 -0.0833,-0.4581 -0.1041,-0.4788 -0.0833,-0.354 -0.22902,-0.8744 c -0.12492,-0.3956 -0.27066,-0.812 -0.37476,-1.2076 -0.16656,-0.6037 -0.39558,-1.2075 -0.68706,-1.7488 l -0.18738,-0.354 1.62396,-0.042 c 0.12492,0 0.22902,0 0.35394,0 0.45804,0 0.95772,0 1.43658,-0.042 0.77034,-0.042 1.58232,0.021 2.37348,0.2082 1.12428,0.229 2.24856,0.354 3.39366,0.3748 0.12492,0.021 0.22902,0.021 0.35394,0.021 1.24919,0 2.47757,-0.1249 3.68513,-0.3748 0.85362,-0.1665 1.47822,-0.2915 2.10282,-0.4164 l 0.12492,-0.021 c 0.45804,0.3748 0.95801,0.7079 1.49904,0.9577 l 0.0625,0.042 -0.29148,1.6448 c 0.0208,0.3331 0.29148,0.6038 0.6246,0.6038 0.27066,0 0.5205,-0.1457 0.60378,-0.3956 l 0.5205,-1.3741 0.77034,0.1666 -0.18738,1.3533 c 0,0.042 0,0.083 0,0.1249 0,0.1249 0.0208,0.2498 0.0833,0.3539 0.1041,0.1666 0.24984,0.2499 0.43722,0.2707 0.0416,0 0.0625,0 0.0833,0 0.12492,0 0.24984,-0.021 0.37476,-0.042 0.16656,-0.042 0.3123,-0.1666 0.33312,-0.354 l 0.29148,-1.5198 0.70788,0.042 c 0.0416,0.2706 0.0625,0.5621 0.0625,0.8536 0,0.042 0,0.083 0,0.1249 0,0.4164 -0.0416,0.812 -0.0833,1.2284 -0.0416,0.3539 -0.12492,0.6871 -0.24984,0.9994 -0.29148,0.6662 -0.6246,1.3533 -0.99936,1.9987 l -0.24984,0.4372 -0.45804,0.812 c -0.18738,0.4372 -0.45804,0.8328 -0.77034,1.1867 l -0.24984,0.2915 -0.29148,0.2915 -0.74952,0.6246 -0.58296,0.4997 -0.7287,0.6037 c -0.0833,0.062 -0.16656,0.1458 -0.24984,0.2082 -0.47886,0.4373 -0.85362,0.9786 -1.10346,1.5615 l -0.0625,0.1874 c -0.3123,0.1249 -0.60378,0.2915 -0.85362,0.4789 -0.3123,0.2706 -0.56214,0.5829 -0.7287,0.9577 l -0.0833,0.1874 h 3.24792 0.29148 l 0.0833,-0.021 1.02018,-1.8946 c 0.0208,-0.062 0.0833,-0.1041 0.14574,-0.1041 0.0416,0 0.0833,0.021 0.1041,0.042 l 0.27066,0.229 c 0.0416,0.042 0.1041,0.083 0.14574,0.083 0.0416,0 0.0625,-0.021 0.0833,-0.021 0.1041,-0.062 0.2082,-0.1249 0.29148,-0.2082 l 0.1041,-0.1249 0.39558,-0.4581 0.3123,-0.4164 1.12428,-1.8946 c 0.16656,-0.2498 0.3123,-0.458 0.45804,-0.6662 0.14574,-0.2082 0.37476,-0.4581 0.64542,-0.6663 l 0.58296,-0.4372 2.20692,-1.6448 c 0.0833,-0.1041 0.16656,-0.229 0.18738,-0.3747 l 0.6246,-2.7066 0.12492,-0.4789 0.29148,-0.7079 0.3123,-0.5413 0.24984,-0.2498 c 0.33311,0.6454 0.77033,1.2492 1.24919,1.7697 0.29148,0.3123 0.56214,0.5829 0.8328,0.8536 0.33312,0.3539 0.6246,0.7287 0.85362,1.1659 0.45804,0.8744 0.79116,1.853 0.97854,2.8315 0.1041,0.5413 0.18738,1.0827 0.29148,1.624 0.0208,0.2082 0.0416,0.458 0.0416,0.7079 0,0.2498 -0.0208,0.4996 -0.0625,0.7495 -0.0208,0.1665 -0.0833,0.3123 -0.18738,0.4372 -0.1041,0.1249 -0.2082,0.2707 -0.29148,0.4164 -0.0625,0.1041 -0.0833,0.229 -0.1041,0.3748 l -0.0208,0.3955 -0.39558,0.4164 -0.4164,0.3748 c -0.14574,0.2082 -0.22902,0.4164 -0.27066,0.6454 l -0.0833,0.4789 h 3.5394 l 0.33312,-0.5622 c 0.0833,-0.1249 0.1041,-0.2706 0.1041,-0.4164 0,-0.062 0,-0.1457 -0.0208,-0.2082 -0.0208,-0.1249 -0.0833,-0.2706 -0.16656,-0.3955 -0.0416,-0.083 -0.0833,-0.1874 -0.12492,-0.2915 -0.0416,-0.1249 -0.0625,-0.2499 -0.0833,-0.3748 0,-0.083 0.0208,-0.1665 0.0625,-0.229 0.0625,-0.083 0.14574,-0.1249 0.22902,-0.1457 l 0.39558,-0.083 c 0.0625,0 0.1041,-0.042 0.14574,-0.083 0.0833,-0.1041 0.12492,-0.2291 0.12492,-0.354 0,-0.083 -0.0208,-0.1665 -0.0416,-0.229 -0.0416,-0.083 -0.0625,-0.1666 -0.0833,-0.2498 -0.1041,-0.7704 -0.24984,-1.6032 -0.4164,-2.4152 l -0.12492,-0.687 -0.22902,-1.7073 c -0.0416,-0.229 -0.1041,-0.4996 -0.12492,-0.7703 -0.0416,-0.2915 -0.0416,-0.5621 0.0208,-0.8328 0.1041,-0.4997 0.18738,-1.0202 0.24984,-1.5407 0.0625,-0.4788 0.12492,-0.9369 0.18738,-1.3949 0.0208,-0.1249 0.0208,-0.2499 0.0208,-0.3956 0,-0.1041 0,-0.229 0,-0.3331 -0.0416,-0.354 -0.16656,-0.6871 -0.35394,-0.9577 -0.0833,-0.1458 -0.16656,-0.2915 -0.22902,-0.4581 l -0.22902,-0.6662 c -0.0208,-0.083 -0.0625,-0.1458 -0.0833,-0.2082 -0.14574,-0.4789 -0.24984,-0.9577 -0.27066,-1.4366 l 0,0 z"
       style="fill:#808080;fill-opacity:1" />
  </g>
</svg>
