<?xml version="1.0" encoding="UTF-8" standalone="no"?>
<!-- Created with Inkscape (http://www.inkscape.org/) -->

<svg
   xmlns:dc="http://purl.org/dc/elements/1.1/"
   xmlns:cc="http://creativecommons.org/ns#"
   xmlns:rdf="http://www.w3.org/1999/02/22-rdf-syntax-ns#"
   xmlns:svg="http://www.w3.org/2000/svg"
   xmlns="http://www.w3.org/2000/svg"
   xmlns:sodipodi="http://sodipodi.sourceforge.net/DTD/sodipodi-0.dtd"
   xmlns:inkscape="http://www.inkscape.org/namespaces/inkscape"
   width="100"
   height="100"
   id="svg2"
   inkscape:label="Pozadí"
   sodipodi:version="0.32"
   inkscape:version="0.47 r22583"
   sodipodi:docname="strolleraccessiblegrey.svg"
   inkscape:output_extension="org.inkscape.output.svg.inkscape"
   version="1.1">
  <defs
     id="defs2963">
    <inkscape:perspective
       sodipodi:type="inkscape:persp3d"
       inkscape:vp_x="0 : 526.18109 : 1"
       inkscape:vp_y="0 : 1000 : 0"
       inkscape:vp_z="744.09448 : 526.18109 : 1"
       inkscape:persp3d-origin="372.04724 : 350.78739 : 1"
       id="perspective346" />
    <inkscape:perspective
       id="perspective4464"
       inkscape:persp3d-origin="0.5 : 0.33333333 : 1"
       inkscape:vp_z="1 : 0.5 : 1"
       inkscape:vp_y="0 : 1000 : 0"
       inkscape:vp_x="0 : 0.5 : 1"
       sodipodi:type="inkscape:persp3d" />
    <inkscape:perspective
       id="perspective4512"
       inkscape:persp3d-origin="0.5 : 0.33333333 : 1"
       inkscape:vp_z="1 : 0.5 : 1"
       inkscape:vp_y="0 : 1000 : 0"
       inkscape:vp_x="0 : 0.5 : 1"
       sodipodi:type="inkscape:persp3d" />
    <inkscape:perspective
       id="perspective4512-4"
       inkscape:persp3d-origin="0.5 : 0.33333333 : 1"
       inkscape:vp_z="1 : 0.5 : 1"
       inkscape:vp_y="0 : 1000 : 0"
       inkscape:vp_x="0 : 0.5 : 1"
       sodipodi:type="inkscape:persp3d" />
    <inkscape:perspective
       id="perspective4919"
       inkscape:persp3d-origin="0.5 : 0.33333333 : 1"
       inkscape:vp_z="1 : 0.5 : 1"
       inkscape:vp_y="0 : 1000 : 0"
       inkscape:vp_x="0 : 0.5 : 1"
       sodipodi:type="inkscape:persp3d" />
    <inkscape:perspective
       id="perspective3045"
       inkscape:persp3d-origin="0.5 : 0.33333333 : 1"
       inkscape:vp_z="1 : 0.5 : 1"
       inkscape:vp_y="0 : 1000 : 0"
       inkscape:vp_x="0 : 0.5 : 1"
       sodipodi:type="inkscape:persp3d" />
    <inkscape:perspective
       id="perspective3637"
       inkscape:persp3d-origin="0.5 : 0.33333333 : 1"
       inkscape:vp_z="1 : 0.5 : 1"
       inkscape:vp_y="0 : 1000 : 0"
       inkscape:vp_x="0 : 0.5 : 1"
       sodipodi:type="inkscape:persp3d" />
    <inkscape:perspective
       id="perspective3615"
       inkscape:persp3d-origin="0.5 : 0.33333333 : 1"
       inkscape:vp_z="1 : 0.5 : 1"
       inkscape:vp_y="0 : 1000 : 0"
       inkscape:vp_x="0 : 0.5 : 1"
       sodipodi:type="inkscape:persp3d" />
  </defs>
  <sodipodi:namedview
     id="base"
     pagecolor="#ffffff"
     bordercolor="#666666"
     borderopacity="1.0"
     inkscape:pageopacity="0.0"
     inkscape:pageshadow="2"
     inkscape:zoom="2.52218"
     inkscape:cx="52.224168"
     inkscape:cy="48.742556"
     inkscape:document-units="px"
     inkscape:current-layer="layer1"
     inkscape:window-width="1024"
     inkscape:window-height="549"
     inkscape:window-x="0"
     inkscape:window-y="0"
     showgrid="false"
     inkscape:window-maximized="1" />
  <metadata
     id="metadata2966">
    <rdf:RDF>
      <cc:Work
         rdf:about="">
        <dc:format>image/svg+xml</dc:format>
        <dc:type
           rdf:resource="http://purl.org/dc/dcmitype/StillImage" />
        <dc:title></dc:title>
      </cc:Work>
    </rdf:RDF>
  </metadata>
  <g
     inkscape:label="Vrstva 1"
     inkscape:groupmode="layer"
     id="layer1"
     transform="translate(0,-952.36218)">
    <rect
       style="fill:#cccccc;fill-opacity:1;stroke:#cccccc;stroke-width:1.99660145999999994;stroke-linejoin:round;stroke-miterlimit:4;stroke-opacity:1;stroke-dasharray:none"
       id="rect4438-0-8"
       width="92.003395"
       height="92.003403"
       x="3.9550877"
       y="956.80017"
       rx="9.5836878"
       ry="9.5836878" />
    <rect
       style="fill:none;stroke:#4d4d4d;stroke-width:4;stroke-linejoin:round;stroke-miterlimit:4;stroke-opacity:0.30000000999999998;stroke-dasharray:none"
       id="rect4438"
       width="96"
       height="96"
       x="2.3964825"
       y="954.44861"
       rx="10"
       ry="10" />
    <rect
       style="fill:none;stroke:#4d4d4d;stroke-width:5;stroke-linejoin:round;stroke-miterlimit:4;stroke-opacity:0.69999999999999996;stroke-dasharray:none"
       id="rect4438-57"
       width="92.159996"
       height="92.160004"
       x="3.8767693"
       y="955.92902"
       rx="9.5999994"
       ry="9.6000004" />
    <rect
       style="fill:none;stroke:#4d4d4d;stroke-width:3.98613523999999986;stroke-linejoin:round;stroke-miterlimit:4;stroke-opacity:0.29999999999999999;stroke-dasharray:none"
       id="rect4438-5"
       width="88.013863"
       height="88.013863"
       x="5.7898545"
       y="958.55847"
       rx="9.1681108"
       ry="9.1681108" />
    <rect
       style="fill:none;stroke:#4d4d4d;stroke-width:1.99660145999999994;stroke-linejoin:round;stroke-miterlimit:4;stroke-opacity:1;stroke-dasharray:none"
       id="rect4438-0"
       width="92.003395"
       height="92.003403"
       x="4.2715678"
       y="956.08728"
       rx="9.5836878"
       ry="9.5836878" />
    <path
       id="path12"
       d="m 31.377501,985.58826 c -1.62996,-0.79295 -3.43612,-1.21145 -5.28634,-1.21145 -1.18943,0 -2.37886,0.17621 -3.52423,0.52863 -1.27754,-0.28634 -2.59912,-0.44053 -3.92071,-0.44053 -0.52863,0 -1.05727,0.022 -1.5859,0.0661 1.01322,0.77093 1.9163,1.51982 2.79736,2.29075 0.11013,1.03524 0.19823,2.09251 0.24229,3.17181 -0.0441,0.85903 -0.0661,1.74008 -0.0661,2.62114 0,0.50661 0,0.99119 0.022,1.4978 0,0.0661 0,0.15418 0,0.26432 0,1.91629 0.11014,3.83259 0.37445,5.72687 0.022,0.1762 0.0661,0.3524 0.13216,0.5066 0.4185,0.859 1.27754,1.3876 2.22467,1.3876 0.46256,0 0.90309,-0.1101 1.29956,-0.3524 0.26432,-0.1322 0.57269,-0.2423 0.88106,-0.2643 0.044,-0.022 0.0881,-0.022 0.13216,-0.044 0.26431,-0.1762 0.44053,-0.4846 0.46255,-0.815 -0.044,-0.3304 -0.044,-0.68277 0.022,-1.05722 0,-0.81498 0.19824,-1.60793 0.55066,-2.3348 0.28634,-0.77093 0.52863,-1.51982 0.68282,-2.31278 0.57269,-0.24229 1.07929,-0.48458 1.5859,-0.7489 1.12335,1.74009 1.71806,3.76652 1.74009,5.83701 l 0.044,2.40079 c 0.022,1.0133 0.0441,2.0265 0.0441,3.0397 0,-0.1101 0,-0.044 0,0.044 0.11013,1.3877 0.48458,2.7313 1.12334,3.9427 -2.37885,0.3965 -4.69163,1.1234 -6.85022,2.1806 -0.022,0 -0.022,0 -0.022,0 -0.79295,0.3525 -1.54185,0.815 -2.18062,1.3657 -0.15418,0.1321 -0.28634,0.2643 -0.39648,0.4185 0,0.022 0,0.022 0,0.044 -0.19823,0.3304 -0.30837,0.7048 -0.30837,1.0793 0,0.1982 0.022,0.3744 0.0661,0.5506 0.61674,2.5992 1.38767,5.0881 2.31278,7.511 l 0.26432,0.7049 c 0.19823,0.5506 0.39647,1.0352 0.63876,1.5198 0.0441,0.1321 0.13216,0.2643 0.19824,0.3744 1.21145,1.7181 3.10573,2.8414 5.19824,3.0177 v -3.7225 l -1.54185,0.022 c -0.30837,-0.7709 -0.94714,-1.3656 -1.71806,-1.6079 -0.0661,-0.022 -0.11014,-0.044 -0.15419,-0.066 -0.17621,-0.1322 -0.28634,-0.3304 -0.33039,-0.5287 v -0.022 c -0.19824,-1.696 -0.48459,-3.5021 -0.85904,-5.3083 l -0.0661,-0.2643 c -0.0661,-0.3745 0.17621,-0.7269 0.55066,-0.793 1.07929,-0.1321 2.09251,-0.3304 3.12775,-0.5947 1.40969,-0.044 2.81938,-0.3083 4.18502,-0.7709 0.44053,-0.1322 0.85903,-0.3084 1.27753,-0.4846 0.30837,-0.1321 0.59472,-0.3084 0.90309,-0.5066 0.33039,0.3084 0.70484,0.5507 1.07929,0.7709 0.022,0.022 0.0661,0.044 0.11014,0.088 0.30837,0.3304 0.57268,0.7049 0.77092,1.1234 v -0.022 c 0.4185,0.837 0.83701,1.6079 1.27753,2.3568 v -0.022 c 2.18062,3.4141 3.96476,7.0484 5.30837,10.837 l 0,0 c 0.11014,0.2202 0.15419,0.4845 0.15419,0.7268 0,0.3745 -0.11013,0.7489 -0.30837,1.0573 -0.022,0.044 -0.044,0.066 -0.0661,0.088 -0.96916,1.0573 -1.71806,2.3128 -2.18062,3.6564 l 4.11895,0.044 0.0661,-0.7489 c 0,-0.1101 0.022,-0.1982 0.022,-0.3084 0,-0.6167 0.22027,-1.2114 0.61674,-1.696 0.0881,-0.1101 0.19824,-0.1982 0.30837,-0.2643 0.44053,-0.2864 0.68282,-0.793 0.68282,-1.3216 0,-0.1982 -0.022,-0.3965 -0.11013,-0.5727 0,-0.022 0,-0.044 -0.022,-0.044 -0.30837,-0.6167 -0.61674,-1.2555 -0.94713,-1.9383 v -0.022 c -0.46256,-0.9912 -0.77093,-2.0925 -0.90309,-3.2159 -0.022,-0.1101 -0.044,-0.1982 -0.044,-0.3083 -0.17621,-0.837 -0.39648,-1.6741 -0.63877,-2.5111 -0.13216,-0.5506 -0.30837,-1.1674 -0.48458,-1.7841 -0.24229,-1.0793 -0.46255,-2.1365 -0.66079,-3.1938 -0.15419,-1.0132 -0.3304,-1.9603 -0.52864,-2.8855 1.85022,0.2864 3.70044,0.4185 5.55066,0.4185 2.13657,0 4.25111,-0.1762 6.34362,-0.5726 0.68282,-0.1102 1.34361,-0.2423 2.02643,-0.3965 0.37445,1.7841 0.70484,3.1057 1.05727,4.4273 l -0.0441,-0.1542 c 0.35243,1.2555 0.7489,2.4449 1.23348,3.6123 0.0881,0.1542 0.11014,0.3745 0.11014,0.5727 0,0.1982 -0.022,0.3965 -0.11014,0.5947 l 0,0 c -0.35242,0.8811 -0.79295,1.7621 -1.29955,2.5771 -0.7489,1.1013 -1.54186,2.2026 -2.40089,3.2819 -0.77092,0.9252 -1.43171,1.8723 -2.02643,2.9075 -0.022,0.044 -0.044,0.066 -0.0661,0.088 -0.837,1.0353 -1.54185,2.2027 -2.07048,3.4582 l 4.33921,0.066 0.13215,-1.5859 0.0441,-0.3965 c 0.022,-0.044 0.022,-0.066 0.044,-0.088 0.044,-0.044 0.0881,-0.088 0.13216,-0.1101 0.022,0 0.044,0 0.0661,0 l 0.022,-0.022 c 0.0881,-0.022 0.17622,-0.066 0.26432,-0.1102 0.3304,-0.2423 0.59472,-0.5506 0.72687,-0.9471 0.0441,-0.1101 0.0661,-0.1762 0.0881,-0.2423 0.48458,-1.1674 1.10132,-2.2907 1.82819,-3.348 1.34362,-1.8502 2.97357,-3.4582 4.80177,-4.8018 0,0 0,0 0.022,-0.022 0.35242,-0.2423 0.57269,-0.6608 0.57269,-1.1013 0,-0.088 0,-0.1542 -0.022,-0.2423 -0.11013,-0.6388 -0.24229,-1.3656 -0.37445,-2.0925 l -0.022,-0.044 c -0.0441,-0.2643 -0.0881,-0.5286 -0.13216,-0.8149 -0.15419,-1.9163 0.70484,-3.7445 2.26872,-4.8679 0.50661,0.7489 1.05727,1.4097 1.67401,2.0485 h -0.022 c 0.46256,0.4625 0.94714,0.9031 1.47577,1.3216 0.85903,0.5947 1.65199,1.2114 2.44494,1.8722 0.55066,0.4846 1.10132,0.9912 1.62995,1.5198 l 0,0 c 0.3304,0.3084 0.61674,0.6167 0.88106,0.9031 0,0 0.022,0.022 0.044,0.044 0.35243,0.4625 0.6608,0.9691 0.88106,1.4758 l 0.0881,0.1982 c 0.19823,0.3965 0.35242,0.7709 0.5066,1.1454 0.22027,0.6608 0.41851,1.3216 0.61674,1.9603 l 0.17622,0.5947 c 0.33039,0.9912 0.61674,2.0044 0.88105,3.0177 0.022,0.088 0.0441,0.2643 0.0441,0.4625 0,0.4405 -0.11014,0.859 -0.35243,1.2335 l 0,0 c -0.68282,0.881 -1.23348,1.8722 -1.60793,2.9295 l 4.05287,0.044 0.022,-1.8062 c 0,-0.022 0,-0.022 0,-0.022 0,-0.022 0,-0.044 0,-0.066 0,-0.1101 0.0441,-0.2423 0.15419,-0.3083 l 0,0 c 0.28634,-0.1542 0.52863,-0.3745 0.72687,-0.6168 v -0.022 c 0.13216,-0.1982 0.19824,-0.4405 0.19824,-0.6828 0,-0.1322 -0.022,-0.2643 -0.044,-0.4185 -0.55066,-1.7621 -1.18943,-3.8766 -1.78414,-6.0352 l -0.0881,-0.2864 -0.57269,-1.9824 h -0.022 c -0.28635,-0.9471 -0.37445,-1.9603 -0.24229,-2.9735 0,-0.066 0.022,-0.1542 0.022,-0.2423 0,-0.3965 -0.13216,-0.7489 -0.39647,-1.0572 -0.48459,-0.5948 -0.99119,-1.2335 -1.47578,-1.8723 -0.0881,-0.1101 -0.11013,-0.1542 -0.13215,-0.1762 -0.90309,-1.2996 -1.4978,-2.8194 -1.71807,-4.3833 -0.11013,-1.0793 -0.15418,-2.1806 -0.0881,-3.2819 0.022,-0.4185 0.022,-0.837 0.022,-1.2335 0,-1.0793 -0.0881,-2.1365 -0.2423,-3.1938 -0.0661,-0.2864 -0.13215,-0.5727 -0.19823,-0.837 -0.52864,-1.7401 -1.45375,-3.30394 -2.6652,-4.64755 0.85903,-0.0661 1.71806,0.15418 2.46696,0.61674 0.11013,0.0661 0.19824,0.13215 0.28634,0.22026 0.24229,0.19824 0.44053,0.44053 0.59472,0.70485 0.72687,1.3436 1.21145,2.7973 1.45374,4.3171 0.39648,2.9295 0.59471,5.815 0.59471,8.7005 0,0.3083 0,0.5947 0,0.9031 l 5.39648,-0.066 c -0.11013,-2.7093 -0.37445,-5.4406 -0.72687,-8.1718 -0.17621,-2.1146 -0.90309,-4.0969 -2.13657,-5.77093 -0.63876,-0.94714 -1.45374,-1.71806 -2.46696,-2.26872 -1.18942,-0.59472 -2.51101,-0.90309 -3.87665,-0.90309 -0.88106,0 -1.78414,0.15419 -2.6652,0.41851 -1.21145,-0.39648 -2.64317,-0.81498 -4.09691,-1.23348 -1.21146,-0.37445 -2.37886,-0.52864 -3.59031,-0.52864 -1.01322,0 -2.04846,0.11013 -3.03965,0.37445 -1.43172,0.30837 -2.86344,0.55066 -4.33921,0.72687 -0.33039,-1.36563 -0.74889,-3.01762 -1.1674,-4.62555 -0.22026,-0.70484 -0.35242,-1.05727 -0.5066,-1.43171 -0.28635,-0.63877 -0.48459,-1.29956 -0.59472,-2.00441 -0.0881,-0.66079 -0.17621,-1.36564 -0.22026,-2.04846 -0.11013,-0.79295 -0.30837,-1.56387 -0.55066,-2.31277 -0.3304,-1.18943 -0.77093,-2.33481 -1.32159,-3.4141 -0.48458,-0.7489 -0.63877,-1.65198 -0.44053,-2.46696 0.30837,-0.92511 0.46256,-1.85022 0.48458,-2.81938 -0.022,-0.7489 -0.17621,-1.51983 -0.48458,-2.2467 -0.15418,-0.26432 -0.33039,-0.50661 -0.55066,-0.70485 -0.55066,-0.39647 -1.21145,-0.59471 -1.87225,-0.59471 -0.17621,0 -0.35242,0.022 -0.52863,0.044 -0.46256,0.0661 -0.92511,0.17621 -1.36564,0.3304 -0.77092,0.19824 -1.29956,0.88106 -1.29956,1.67401 0,0.022 0,0.0441 0,0.0441 0,0.0661 0,0.11013 0,0.15419 0,0.28634 0.044,0.57268 0.13216,0.85903 0.022,0.22026 0.044,0.4185 0.0881,0.63876 -0.0881,0.26432 -0.13216,0.55066 -0.13216,0.85903 0,0.17622 0.022,0.35243 0.044,0.52864 0.044,0.68282 0.22026,1.36564 0.52863,1.98238 0.15419,0.22026 0.39648,0.35242 0.6608,0.37445 0.22026,0.022 0.44053,0.044 0.66079,0.044 0.0661,0 0.13216,0 0.19824,0 0.022,0.17621 0.044,0.3304 0.044,0.50661 0,0.46255 -0.11013,0.94713 -0.28634,1.36564 -0.99119,0.79295 -1.67401,1.9163 -1.9163,3.14978 -0.4185,2.51101 -0.79295,5.22026 -1.03524,7.92951 -1.34362,0.66079 -2.62115,1.36564 -3.78855,2.18062 -1.40969,-1.18943 -2.64317,-2.57709 -3.63436,-4.09692 -0.59472,-0.88106 -1.27753,-1.67401 -2.00441,-2.37885 -0.88105,-0.77093 -1.85022,-1.40969 -2.86343,-1.96035 l -0.022,-0.022 z"
       style="fill:#808080;fill-opacity:1" />
  </g>
</svg>
