<?xml version="1.0" encoding="UTF-8" standalone="no"?>
<!-- Created with Inkscape (http://www.inkscape.org/) -->

<svg
   xmlns:dc="http://purl.org/dc/elements/1.1/"
   xmlns:cc="http://creativecommons.org/ns#"
   xmlns:rdf="http://www.w3.org/1999/02/22-rdf-syntax-ns#"
   xmlns:svg="http://www.w3.org/2000/svg"
   xmlns="http://www.w3.org/2000/svg"
   xmlns:sodipodi="http://sodipodi.sourceforge.net/DTD/sodipodi-0.dtd"
   xmlns:inkscape="http://www.inkscape.org/namespaces/inkscape"
   width="100"
   height="100"
   id="svg2"
   inkscape:label="Pozadí"
   sodipodi:version="0.32"
   inkscape:version="0.47 r22583"
   sodipodi:docname="strolleraccessiblegrey.svg"
   inkscape:output_extension="org.inkscape.output.svg.inkscape"
   version="1.1">
  <defs
     id="defs2963">
    <inkscape:perspective
       sodipodi:type="inkscape:persp3d"
       inkscape:vp_x="0 : 526.18109 : 1"
       inkscape:vp_y="0 : 1000 : 0"
       inkscape:vp_z="744.09448 : 526.18109 : 1"
       inkscape:persp3d-origin="372.04724 : 350.78739 : 1"
       id="perspective346" />
    <inkscape:perspective
       id="perspective4464"
       inkscape:persp3d-origin="0.5 : 0.33333333 : 1"
       inkscape:vp_z="1 : 0.5 : 1"
       inkscape:vp_y="0 : 1000 : 0"
       inkscape:vp_x="0 : 0.5 : 1"
       sodipodi:type="inkscape:persp3d" />
    <inkscape:perspective
       id="perspective4512"
       inkscape:persp3d-origin="0.5 : 0.33333333 : 1"
       inkscape:vp_z="1 : 0.5 : 1"
       inkscape:vp_y="0 : 1000 : 0"
       inkscape:vp_x="0 : 0.5 : 1"
       sodipodi:type="inkscape:persp3d" />
    <inkscape:perspective
       id="perspective4512-4"
       inkscape:persp3d-origin="0.5 : 0.33333333 : 1"
       inkscape:vp_z="1 : 0.5 : 1"
       inkscape:vp_y="0 : 1000 : 0"
       inkscape:vp_x="0 : 0.5 : 1"
       sodipodi:type="inkscape:persp3d" />
    <inkscape:perspective
       id="perspective4919"
       inkscape:persp3d-origin="0.5 : 0.33333333 : 1"
       inkscape:vp_z="1 : 0.5 : 1"
       inkscape:vp_y="0 : 1000 : 0"
       inkscape:vp_x="0 : 0.5 : 1"
       sodipodi:type="inkscape:persp3d" />
    <inkscape:perspective
       id="perspective3045"
       inkscape:persp3d-origin="0.5 : 0.33333333 : 1"
       inkscape:vp_z="1 : 0.5 : 1"
       inkscape:vp_y="0 : 1000 : 0"
       inkscape:vp_x="0 : 0.5 : 1"
       sodipodi:type="inkscape:persp3d" />
    <inkscape:perspective
       id="perspective3637"
       inkscape:persp3d-origin="0.5 : 0.33333333 : 1"
       inkscape:vp_z="1 : 0.5 : 1"
       inkscape:vp_y="0 : 1000 : 0"
       inkscape:vp_x="0 : 0.5 : 1"
       sodipodi:type="inkscape:persp3d" />
    <inkscape:perspective
       id="perspective3614"
       inkscape:persp3d-origin="0.5 : 0.33333333 : 1"
       inkscape:vp_z="1 : 0.5 : 1"
       inkscape:vp_y="0 : 1000 : 0"
       inkscape:vp_x="0 : 0.5 : 1"
       sodipodi:type="inkscape:persp3d" />
  </defs>
  <sodipodi:namedview
     id="base"
     pagecolor="#ffffff"
     bordercolor="#666666"
     borderopacity="1.0"
     inkscape:pageopacity="0.0"
     inkscape:pageshadow="2"
     inkscape:zoom="2.52218"
     inkscape:cx="52.224168"
     inkscape:cy="48.742556"
     inkscape:document-units="px"
     inkscape:current-layer="layer1"
     inkscape:window-width="1024"
     inkscape:window-height="549"
     inkscape:window-x="0"
     inkscape:window-y="0"
     showgrid="false"
     inkscape:window-maximized="1" />
  <metadata
     id="metadata2966">
    <rdf:RDF>
      <cc:Work
         rdf:about="">
        <dc:format>image/svg+xml</dc:format>
        <dc:type
           rdf:resource="http://purl.org/dc/dcmitype/StillImage" />
        <dc:title></dc:title>
      </cc:Work>
    </rdf:RDF>
  </metadata>
  <g
     inkscape:label="Vrstva 1"
     inkscape:groupmode="layer"
     id="layer1"
     transform="translate(0,-952.36218)">
    <rect
       style="fill:#cccccc;fill-opacity:1;stroke:#cccccc;stroke-width:1.99660145999999994;stroke-linejoin:round;stroke-miterlimit:4;stroke-opacity:1;stroke-dasharray:none"
       id="rect4438-0-8"
       width="92.003395"
       height="92.003403"
       x="3.9550877"
       y="956.80017"
       rx="9.5836878"
       ry="9.5836878" />
    <rect
       style="fill:none;stroke:#4d4d4d;stroke-width:4;stroke-linejoin:round;stroke-miterlimit:4;stroke-opacity:0.30000000999999998;stroke-dasharray:none"
       id="rect4438"
       width="96"
       height="96"
       x="2.3964825"
       y="954.44861"
       rx="10"
       ry="10" />
    <rect
       style="fill:none;stroke:#4d4d4d;stroke-width:5;stroke-linejoin:round;stroke-miterlimit:4;stroke-opacity:0.69999999999999996;stroke-dasharray:none"
       id="rect4438-57"
       width="92.159996"
       height="92.160004"
       x="3.8767693"
       y="955.92902"
       rx="9.5999994"
       ry="9.6000004" />
    <rect
       style="fill:none;stroke:#4d4d4d;stroke-width:3.98613523999999986;stroke-linejoin:round;stroke-miterlimit:4;stroke-opacity:0.29999999999999999;stroke-dasharray:none"
       id="rect4438-5"
       width="88.013863"
       height="88.013863"
       x="5.7898545"
       y="958.55847"
       rx="9.1681108"
       ry="9.1681108" />
    <rect
       style="fill:none;stroke:#4d4d4d;stroke-width:1.99660145999999994;stroke-linejoin:round;stroke-miterlimit:4;stroke-opacity:1;stroke-dasharray:none"
       id="rect4438-0"
       width="92.003395"
       height="92.003403"
       x="4.2715678"
       y="956.08728"
       rx="9.5836878"
       ry="9.5836878" />
    <path
       id="path9"
       d="m 51.701163,978.99754 c 2.61854,0 4.735413,-2.13008 4.735413,-4.75321 0,-2.61854 -2.116873,-4.73541 -4.735413,-4.73541 -2.618539,0 -4.748614,2.11687 -4.748614,4.73541 0,2.62313 2.130075,4.75321 4.748614,4.75321 z"
       style="fill:#808080;fill-opacity:1" />
    <path
       id="path15"
       d="m 43.003796,996.86492 c -1.003507,3.90248 -2.656084,12.01268 -3.130472,15.39568 -0.638177,4.5511 -1.303534,8.8482 -2.128009,13.4725 -0.324315,1.8189 -0.341561,4.1165 0.982539,4.1165 1.515906,0 2.077293,0.2203 2.378908,-0.5126 0.843207,-2.108 2.503752,-9.645 3.731573,-14.5818 1.437612,-5.7803 2.817351,-11.013 2.817351,-11.013 0,0 4.374216,4.6315 5.976815,10.8605 0.985308,3.8297 1.489066,10.5004 2.23578,14.0348 0.349559,1.4574 1.931602,0.6884 3.483095,0.6884 0.216654,-0.8525 -0.111683,-13.3086 -0.398792,-16.0901 l -6.843314,-18.78073 0.758992,-4.07251 3.769252,2.69444 c 1.496669,1.28613 3.43312,1.68684 3.43312,1.68684 1.473719,0.60011 6.411611,1.24403 6.876449,1.35062 1.259906,0 1.106012,-0.48607 1.106012,-1.74598 0,-1.08082 -2.570363,-1.59892 -3.579436,-1.83655 l -5.772673,-3.12242 -4.583513,-6.4071 c -0.47792,-3.89993 -1.055611,-2.88595 -3.801346,-3.2782 -5.041989,-0.62173 -4.441891,2.79182 -4.441891,2.79182 l -2.87044,14.34889 z"
       style="fill:#808080;fill-opacity:1"
       sodipodi:nodetypes="cssscscsccccccccscccccc" />
    <rect
       style="fill:#808080;fill-opacity:1;stroke:none"
       id="rect3607"
       width="1.0270189"
       height="38.68438"
       x="100.44874"
       y="988.69366"
       transform="matrix(0.99954009,0.03032491,-0.03032491,0.99954009,0,0)"
       rx="1.7219683"
       ry="1.7219683" />
    <rect
       style="fill:#808080;fill-opacity:1;stroke:none"
       id="rect3609"
       width="6.3104258"
       height="14.176847"
       x="263.62979"
       y="943.64825"
       transform="matrix(0.97300678,0.23077651,-0.23077651,0.97300678,0,0)"
       ry="1.2966629" />
    <path
       style="fill:none;stroke:#808080;stroke-width:1.72196828999999996;stroke-linecap:round;stroke-linejoin:round;stroke-miterlimit:4;stroke-opacity:1;stroke-dasharray:none"
       d="m 29.377021,1024.9604 c 1.114534,-1.1395 5.41626,-0.1756 11.800768,0.8434 4.619614,1.7694 6.10903,3.6686 5.20473,5.8764 -0.904301,2.2078 -3.544357,2.7225 -7.896102,0.6945 -6.131059,-3.9583 -9.080906,-6.2977 -9.109396,-7.4143 z"
       id="path2828-2"
       sodipodi:nodetypes="ccccc" />
    <path
       style="fill:none;stroke:#808080;stroke-width:1.72196828999999996;stroke-linecap:round;stroke-linejoin:round;stroke-miterlimit:4;stroke-opacity:1;stroke-dasharray:none"
       d="m 47.289738,1026.3048 c 0.901535,-1.3145 5.30501,-1.1062 11.769608,-1.2024 4.85539,0.947 6.649742,2.5611 6.139355,4.8917 -0.510387,2.3306 -3.022286,3.2925 -7.658363,2.0446 -6.721371,-2.8428 -10.03015,-4.6389 -10.2506,-5.7339 z"
       id="path2828-6-1"
       sodipodi:nodetypes="ccccc" />
  </g>
</svg>
