<?xml version="1.0" encoding="UTF-8" standalone="no"?>
<!-- Created with Inkscape (http://www.inkscape.org/) -->

<svg
   xmlns:dc="http://purl.org/dc/elements/1.1/"
   xmlns:cc="http://creativecommons.org/ns#"
   xmlns:rdf="http://www.w3.org/1999/02/22-rdf-syntax-ns#"
   xmlns:svg="http://www.w3.org/2000/svg"
   xmlns="http://www.w3.org/2000/svg"
   xmlns:sodipodi="http://sodipodi.sourceforge.net/DTD/sodipodi-0.dtd"
   xmlns:inkscape="http://www.inkscape.org/namespaces/inkscape"
   width="100"
   height="100"
   id="svg2"
   inkscape:label="Pozadí"
   sodipodi:version="0.32"
   inkscape:version="0.47 r22583"
   sodipodi:docname="recommendedforkidsgrey.svg"
   inkscape:output_extension="org.inkscape.output.svg.inkscape"
   version="1.1">
  <defs
     id="defs2963">
    <inkscape:perspective
       sodipodi:type="inkscape:persp3d"
       inkscape:vp_x="0 : 526.18109 : 1"
       inkscape:vp_y="0 : 1000 : 0"
       inkscape:vp_z="744.09448 : 526.18109 : 1"
       inkscape:persp3d-origin="372.04724 : 350.78739 : 1"
       id="perspective346" />
    <inkscape:perspective
       id="perspective4464"
       inkscape:persp3d-origin="0.5 : 0.33333333 : 1"
       inkscape:vp_z="1 : 0.5 : 1"
       inkscape:vp_y="0 : 1000 : 0"
       inkscape:vp_x="0 : 0.5 : 1"
       sodipodi:type="inkscape:persp3d" />
    <inkscape:perspective
       id="perspective4512"
       inkscape:persp3d-origin="0.5 : 0.33333333 : 1"
       inkscape:vp_z="1 : 0.5 : 1"
       inkscape:vp_y="0 : 1000 : 0"
       inkscape:vp_x="0 : 0.5 : 1"
       sodipodi:type="inkscape:persp3d" />
    <inkscape:perspective
       id="perspective4512-4"
       inkscape:persp3d-origin="0.5 : 0.33333333 : 1"
       inkscape:vp_z="1 : 0.5 : 1"
       inkscape:vp_y="0 : 1000 : 0"
       inkscape:vp_x="0 : 0.5 : 1"
       sodipodi:type="inkscape:persp3d" />
    <inkscape:perspective
       id="perspective4919"
       inkscape:persp3d-origin="0.5 : 0.33333333 : 1"
       inkscape:vp_z="1 : 0.5 : 1"
       inkscape:vp_y="0 : 1000 : 0"
       inkscape:vp_x="0 : 0.5 : 1"
       sodipodi:type="inkscape:persp3d" />
    <inkscape:perspective
       id="perspective2831"
       inkscape:persp3d-origin="0.5 : 0.33333333 : 1"
       inkscape:vp_z="1 : 0.5 : 1"
       inkscape:vp_y="0 : 1000 : 0"
       inkscape:vp_x="0 : 0.5 : 1"
       sodipodi:type="inkscape:persp3d" />
    <inkscape:perspective
       id="perspective3788"
       inkscape:persp3d-origin="0.5 : 0.33333333 : 1"
       inkscape:vp_z="1 : 0.5 : 1"
       inkscape:vp_y="0 : 1000 : 0"
       inkscape:vp_x="0 : 0.5 : 1"
       sodipodi:type="inkscape:persp3d" />
    <inkscape:perspective
       id="perspective3832"
       inkscape:persp3d-origin="0.5 : 0.33333333 : 1"
       inkscape:vp_z="1 : 0.5 : 1"
       inkscape:vp_y="0 : 1000 : 0"
       inkscape:vp_x="0 : 0.5 : 1"
       sodipodi:type="inkscape:persp3d" />
    <inkscape:perspective
       id="perspective3593"
       inkscape:persp3d-origin="0.5 : 0.33333333 : 1"
       inkscape:vp_z="1 : 0.5 : 1"
       inkscape:vp_y="0 : 1000 : 0"
       inkscape:vp_x="0 : 0.5 : 1"
       sodipodi:type="inkscape:persp3d" />
    <inkscape:perspective
       id="perspective2862"
       inkscape:persp3d-origin="0.5 : 0.33333333 : 1"
       inkscape:vp_z="1 : 0.5 : 1"
       inkscape:vp_y="0 : 1000 : 0"
       inkscape:vp_x="0 : 0.5 : 1"
       sodipodi:type="inkscape:persp3d" />
  </defs>
  <sodipodi:namedview
     id="base"
     pagecolor="#ffffff"
     bordercolor="#666666"
     borderopacity="1.0"
     inkscape:pageopacity="0.0"
     inkscape:pageshadow="2"
     inkscape:zoom="2.52218"
     inkscape:cx="52.224168"
     inkscape:cy="48.742556"
     inkscape:document-units="px"
     inkscape:current-layer="layer1"
     inkscape:window-width="1024"
     inkscape:window-height="549"
     inkscape:window-x="0"
     inkscape:window-y="0"
     showgrid="false"
     inkscape:window-maximized="1" />
  <metadata
     id="metadata2966">
    <rdf:RDF>
      <cc:Work
         rdf:about="">
        <dc:format>image/svg+xml</dc:format>
        <dc:type
           rdf:resource="http://purl.org/dc/dcmitype/StillImage" />
        <dc:title></dc:title>
      </cc:Work>
    </rdf:RDF>
  </metadata>
  <g
     inkscape:label="Vrstva 1"
     inkscape:groupmode="layer"
     id="layer1"
     transform="translate(0,-952.36218)">
    <rect
       style="fill:#cccccc;fill-opacity:1;stroke:#cccccc;stroke-width:1.99660145999999994;stroke-linejoin:round;stroke-miterlimit:4;stroke-opacity:1;stroke-dasharray:none"
       id="rect4438-0-8"
       width="92.003395"
       height="92.003403"
       x="3.9550877"
       y="956.80017"
       rx="9.5836878"
       ry="9.5836878" />
    <rect
       style="fill:none;stroke:#4d4d4d;stroke-width:4;stroke-linejoin:round;stroke-miterlimit:4;stroke-opacity:0.30000000999999998;stroke-dasharray:none"
       id="rect4438"
       width="96"
       height="96"
       x="2.3964825"
       y="954.44861"
       rx="10"
       ry="10" />
    <rect
       style="fill:none;stroke:#4d4d4d;stroke-width:5;stroke-linejoin:round;stroke-miterlimit:4;stroke-opacity:0.69999999999999996;stroke-dasharray:none"
       id="rect4438-57"
       width="92.159996"
       height="92.160004"
       x="3.8767693"
       y="955.92902"
       rx="9.5999994"
       ry="9.6000004" />
    <rect
       style="fill:none;stroke:#4d4d4d;stroke-width:3.98613523999999986;stroke-linejoin:round;stroke-miterlimit:4;stroke-opacity:0.29999999999999999;stroke-dasharray:none"
       id="rect4438-5"
       width="88.013863"
       height="88.013863"
       x="5.7898545"
       y="958.55847"
       rx="9.1681108"
       ry="9.1681108" />
    <rect
       style="fill:none;stroke:#4d4d4d;stroke-width:1.99660145999999994;stroke-linejoin:round;stroke-miterlimit:4;stroke-opacity:1;stroke-dasharray:none"
       id="rect4438-0"
       width="92.003395"
       height="92.003403"
       x="4.2715678"
       y="956.08728"
       rx="9.5836878"
       ry="9.5836878" />
    <path
       id="path3206"
       style="fill:#808080;fill-opacity:1"
       d="m 24.131432,1029.6928 c -2.051308,-0.5455 -5.315888,-3.4505 -6.291788,-5.599 -1.562176,-3.439 -0.693672,-8.804 1.870947,-11.5574 3.651969,-3.9208 11.022075,-4.038 14.785998,-0.2351 4.070544,4.1127 4.123757,10.6916 0.118918,14.6966 -2.799163,2.7991 -6.507257,3.7523 -10.484075,2.6949 z m 44.553469,-0.098 c -3.614116,-1.1308 -6.454213,-4.5515 -7.107795,-8.5608 -0.665736,-4.0838 2.418273,-9.4142 6.305587,-10.8988 2.957242,-1.1294 7.287142,-0.7293 9.584767,0.8855 0.989953,0.6957 2.369106,2.0749 3.064888,3.0648 1.610578,2.2917 2.014637,6.628 0.891587,9.5687 -1.901247,4.9785 -7.48767,7.5835 -12.739034,5.9406 z m -21.507758,-7.0025 c -4.741053,-0.5 -6.527433,-1.7816 -7.574988,-5.4343 -0.963621,-3.36 -2.445702,-5.7016 -4.696486,-7.4202 -1.979568,-1.5115 -5.27605,-2.7506 -7.317737,-2.7506 -1.374008,0 -2.101144,-1.3656 -2.101144,-3.946 0,-2.2983 1.584963,-3.92775 5.582164,-5.73915 3.199888,-1.4501 3.927952,-1.5614 4.276307,-0.6536 0.133603,0.3481 0.406422,0.633 0.606278,0.633 0.199813,0 3.276479,-2.1838 6.83696,-4.8529 8.71509,-6.5332 9.396567,-6.5294 14.365787,0.082 1.635434,2.1758 3.070925,4.2098 3.190012,4.5201 0.203358,0.53 -4.788184,4.49555 -5.604614,4.45265 -0.190487,-0.01 -1.718481,-1.90894 -3.395566,-4.21985 -1.890532,-2.6052 -3.333706,-4.2008 -3.79794,-4.1991 -0.868926,0 -10.60743,7.37255 -10.961355,8.29495 -0.27362,0.7131 2.03312,3.2843 3.756286,4.1871 1.621845,0.8497 2.67113,0.7408 3.396072,-0.3525 0.592141,-0.893 0.965351,-0.9577 6.275845,-1.0877 l 5.646265,-0.1383 3.046115,-2.2882 c 1.675352,-1.2585 3.203515,-2.28815 3.395901,-2.28815 0.192387,0 1.005441,1.03535 1.806805,2.30065 l 1.457015,2.3007 5.117762,0.02 c 5.442611,0.022 6.415178,0.3624 5.876673,2.059 -0.222391,0.7008 -0.766804,0.8387 -3.938291,0.9981 -4.429491,0.2226 -6.885279,1.1979 -9.311611,3.698 -2.68915,2.771 -3.647285,5.1293 -3.65007,8.9839 l -0.0025,3.2699 -4.641921,-0.057 c -2.553057,-0.031 -5.990194,-0.199 -7.638161,-0.3728 z m -3.386708,-35.21375 c -0.425496,-1.1089 0.07102,-1.6347 1.977294,-2.0942 1.782076,-0.4296 1.880274,-0.5322 2.008391,-2.0967 0.159386,-1.9464 -0.409122,-2.4542 -2.350167,-2.099 -1.53846,0.2815 -1.691939,-0.057 -0.623579,-1.376 1.049922,-1.2962 2.328308,-1.8429 4.309269,-1.8429 3.514446,0 5.656735,2.2234 5.410291,5.6151 l -0.128623,1.7698 -2.751268,0 c -2.383969,0 -3.036749,0.1831 -4.889847,1.3715 -2.428278,1.5572 -2.632945,1.6092 -2.961761,0.7524 z" />
  </g>
</svg>
