<?xml version="1.0" encoding="UTF-8" standalone="no"?>
<!-- Created with Inkscape (http://www.inkscape.org/) -->

<svg
   xmlns:dc="http://purl.org/dc/elements/1.1/"
   xmlns:cc="http://creativecommons.org/ns#"
   xmlns:rdf="http://www.w3.org/1999/02/22-rdf-syntax-ns#"
   xmlns:svg="http://www.w3.org/2000/svg"
   xmlns="http://www.w3.org/2000/svg"
   xmlns:sodipodi="http://sodipodi.sourceforge.net/DTD/sodipodi-0.dtd"
   xmlns:inkscape="http://www.inkscape.org/namespaces/inkscape"
   width="100"
   height="100"
   id="svg2"
   inkscape:label="Pozadí"
   sodipodi:version="0.32"
   inkscape:version="0.47 r22583"
   sodipodi:docname="scubageargrey.svg"
   inkscape:output_extension="org.inkscape.output.svg.inkscape"
   version="1.1">
  <defs
     id="defs2963">
    <inkscape:perspective
       sodipodi:type="inkscape:persp3d"
       inkscape:vp_x="0 : 526.18109 : 1"
       inkscape:vp_y="0 : 1000 : 0"
       inkscape:vp_z="744.09448 : 526.18109 : 1"
       inkscape:persp3d-origin="372.04724 : 350.78739 : 1"
       id="perspective346" />
    <inkscape:perspective
       id="perspective4464"
       inkscape:persp3d-origin="0.5 : 0.33333333 : 1"
       inkscape:vp_z="1 : 0.5 : 1"
       inkscape:vp_y="0 : 1000 : 0"
       inkscape:vp_x="0 : 0.5 : 1"
       sodipodi:type="inkscape:persp3d" />
    <inkscape:perspective
       id="perspective4512"
       inkscape:persp3d-origin="0.5 : 0.33333333 : 1"
       inkscape:vp_z="1 : 0.5 : 1"
       inkscape:vp_y="0 : 1000 : 0"
       inkscape:vp_x="0 : 0.5 : 1"
       sodipodi:type="inkscape:persp3d" />
    <inkscape:perspective
       id="perspective4512-4"
       inkscape:persp3d-origin="0.5 : 0.33333333 : 1"
       inkscape:vp_z="1 : 0.5 : 1"
       inkscape:vp_y="0 : 1000 : 0"
       inkscape:vp_x="0 : 0.5 : 1"
       sodipodi:type="inkscape:persp3d" />
    <inkscape:perspective
       id="perspective4919"
       inkscape:persp3d-origin="0.5 : 0.33333333 : 1"
       inkscape:vp_z="1 : 0.5 : 1"
       inkscape:vp_y="0 : 1000 : 0"
       inkscape:vp_x="0 : 0.5 : 1"
       sodipodi:type="inkscape:persp3d" />
    <inkscape:perspective
       id="perspective3045"
       inkscape:persp3d-origin="0.5 : 0.33333333 : 1"
       inkscape:vp_z="1 : 0.5 : 1"
       inkscape:vp_y="0 : 1000 : 0"
       inkscape:vp_x="0 : 0.5 : 1"
       sodipodi:type="inkscape:persp3d" />
    <inkscape:perspective
       id="perspective3637"
       inkscape:persp3d-origin="0.5 : 0.33333333 : 1"
       inkscape:vp_z="1 : 0.5 : 1"
       inkscape:vp_y="0 : 1000 : 0"
       inkscape:vp_x="0 : 0.5 : 1"
       sodipodi:type="inkscape:persp3d" />
    <inkscape:perspective
       id="perspective3615"
       inkscape:persp3d-origin="0.5 : 0.33333333 : 1"
       inkscape:vp_z="1 : 0.5 : 1"
       inkscape:vp_y="0 : 1000 : 0"
       inkscape:vp_x="0 : 0.5 : 1"
       sodipodi:type="inkscape:persp3d" />
    <inkscape:perspective
       id="perspective2842"
       inkscape:persp3d-origin="0.5 : 0.33333333 : 1"
       inkscape:vp_z="1 : 0.5 : 1"
       inkscape:vp_y="0 : 1000 : 0"
       inkscape:vp_x="0 : 0.5 : 1"
       sodipodi:type="inkscape:persp3d" />
    <inkscape:perspective
       id="perspective3697"
       inkscape:persp3d-origin="0.5 : 0.33333333 : 1"
       inkscape:vp_z="1 : 0.5 : 1"
       inkscape:vp_y="0 : 1000 : 0"
       inkscape:vp_x="0 : 0.5 : 1"
       sodipodi:type="inkscape:persp3d" />
  </defs>
  <sodipodi:namedview
     id="base"
     pagecolor="#ffffff"
     bordercolor="#666666"
     borderopacity="1.0"
     inkscape:pageopacity="0.0"
     inkscape:pageshadow="2"
     inkscape:zoom="2.52218"
     inkscape:cx="78.830121"
     inkscape:cy="53.432429"
     inkscape:document-units="px"
     inkscape:current-layer="layer1"
     inkscape:window-width="1024"
     inkscape:window-height="549"
     inkscape:window-x="0"
     inkscape:window-y="0"
     showgrid="false"
     inkscape:window-maximized="1" />
  <metadata
     id="metadata2966">
    <rdf:RDF>
      <cc:Work
         rdf:about="">
        <dc:format>image/svg+xml</dc:format>
        <dc:type
           rdf:resource="http://purl.org/dc/dcmitype/StillImage" />
        <dc:title />
      </cc:Work>
    </rdf:RDF>
  </metadata>
  <g
     inkscape:label="Vrstva 1"
     inkscape:groupmode="layer"
     id="layer1"
     transform="translate(0,-952.36218)">
    <rect
       style="fill:#cccccc;fill-opacity:1;stroke:#cccccc;stroke-width:1.99660145999999994;stroke-linejoin:round;stroke-miterlimit:4;stroke-opacity:1;stroke-dasharray:none"
       id="rect4438-0-8"
       width="92.003395"
       height="92.003403"
       x="3.9550877"
       y="956.80017"
       rx="9.5836878"
       ry="9.5836878" />
    <rect
       style="fill:none;stroke:#4d4d4d;stroke-width:4;stroke-linejoin:round;stroke-miterlimit:4;stroke-opacity:0.30000000999999998;stroke-dasharray:none"
       id="rect4438"
       width="96"
       height="96"
       x="2.3964825"
       y="954.44861"
       rx="10"
       ry="10" />
    <rect
       style="fill:none;stroke:#4d4d4d;stroke-width:5;stroke-linejoin:round;stroke-miterlimit:4;stroke-opacity:0.69999999999999996;stroke-dasharray:none"
       id="rect4438-57"
       width="92.159996"
       height="92.160004"
       x="3.8767693"
       y="955.92902"
       rx="9.5999994"
       ry="9.6000004" />
    <rect
       style="fill:none;stroke:#4d4d4d;stroke-width:3.98613523999999986;stroke-linejoin:round;stroke-miterlimit:4;stroke-opacity:0.29999999999999999;stroke-dasharray:none"
       id="rect4438-5"
       width="88.013863"
       height="88.013863"
       x="5.7898545"
       y="958.55847"
       rx="9.1681108"
       ry="9.1681108" />
    <rect
       style="fill:none;stroke:#4d4d4d;stroke-width:1.99660145999999994;stroke-linejoin:round;stroke-miterlimit:4;stroke-opacity:1;stroke-dasharray:none"
       id="rect4438-0"
       width="92.003395"
       height="92.003403"
       x="4.2715678"
       y="956.08728"
       rx="9.5836878"
       ry="9.5836878" />
    <g
       id="g2853"
       transform="matrix(0.92301562,0.92301562,-0.92301562,0.92301562,940.89807,23.664365)">
      <path
         sodipodi:nodetypes="csccccsccc"
         id="path3398"
         d="m 63.834878,1009.0117 c 0,0 4.129594,5.1208 6.557496,6.4178 0.110198,0.059 0.407593,0.085 0.407593,0.085 l 6.518535,-4.6175 0.320526,1.5608 -6.161169,5.0008 c 0,0 -0.449153,0.5863 -0.707497,0.5742 -0.258296,-0.012 -0.797693,-0.4734 -0.797693,-0.4734 l -7.421079,-7.4034 1.283288,-1.1447 z"
         style="fill:#808080;fill-opacity:1;fill-rule:evenodd;stroke:none" />
      <path
         transform="matrix(0.26520118,0,0,0.35025511,176.47593,872.49776)"
         d="m -385.71427,374.50504 c 0,11.44018 -9.2741,20.71428 -20.71429,20.71428 -11.44018,0 -20.71428,-9.2741 -20.71428,-20.71428 0,-11.44019 9.2741,-20.71429 20.71428,-20.71429 11.44019,0 20.71429,9.2741 20.71429,20.71429 z"
         sodipodi:ry="20.714285"
         sodipodi:rx="20.714285"
         sodipodi:cy="374.50504"
         sodipodi:cx="-406.42856"
         id="path3400"
         style="fill:#999999;fill-opacity:0.3;stroke:none"
         sodipodi:type="arc" />
      <path
         sodipodi:nodetypes="cccscc"
         id="path3402"
         d="m 63.520944,1006.2424 -12.871342,4.6005 1.461621,8.4095 c 0,0 3.037447,-1.032 4.184319,-1.6796 4.074007,-2.3004 9.148928,-8.2964 9.148928,-8.2964 l -1.923526,-3.034 z"
         style="fill:#808080;fill-opacity:1;fill-rule:evenodd;stroke:none" />
      <path
         sodipodi:nodetypes="cccczczccsscc"
         id="path3404"
         d="m 52.243203,1019.2029 c 0,0 -7.47928,2.9055 -10.770164,2.9351 -2.271091,-0.5395 -10.237799,-2.6382 -10.237799,-2.6382 l 0.749105,-2.8365 c 0,0 9.308718,1.8576 9.738395,1.8471 0.462616,-0.011 6.492264,-2.9681 6.492264,-2.9681 0,0 -8.904052,0.8029 -9.738396,0.6596 -0.834338,-0.1433 -9.620522,-3.0669 -9.620522,-3.0669 l 1.366382,-2.6058 c 0,0 7.691763,1.9992 8.805503,2.3089 0.169047,0.047 0.403104,0.095 0.578378,0.087 1.959386,-0.095 11.171596,-2.0987 11.171596,-2.0987 l 1.465258,8.3765 z"
         style="fill:#808080;fill-opacity:1;fill-rule:evenodd;stroke:none" />
      <path
         transform="matrix(0.15739063,0,0,0.21165762,143.72675,901.82293)"
         d="m -445.98234,478.34299 c 0,2.37104 -1.69598,4.29315 -3.78808,4.29315 -2.09209,0 -3.78807,-1.92211 -3.78807,-4.29315 0,-2.37104 1.69598,-4.29315 3.78807,-4.29315 2.0921,0 3.78808,1.92211 3.78808,4.29315 z"
         sodipodi:ry="4.2931485"
         sodipodi:rx="3.7880721"
         sodipodi:cy="478.34299"
         sodipodi:cx="-449.77042"
         id="path3406"
         style="fill:#666666;fill-opacity:1;stroke:none"
         sodipodi:type="arc" />
      <path
         transform="matrix(0.17479168,0,0,0.23084995,148.98183,892.75511)"
         d="m -445.98234,478.34299 c 0,2.37104 -1.69598,4.29315 -3.78808,4.29315 -2.09209,0 -3.78807,-1.92211 -3.78807,-4.29315 0,-2.37104 1.69598,-4.29315 3.78807,-4.29315 2.0921,0 3.78808,1.92211 3.78808,4.29315 z"
         sodipodi:ry="4.2931485"
         sodipodi:rx="3.7880721"
         sodipodi:cy="478.34299"
         sodipodi:cx="-449.77042"
         id="path3408"
         style="fill:#666666;fill-opacity:1;stroke:none"
         sodipodi:type="arc" />
      <path
         id="path3410"
         d="m 68.691384,996.41464 c -3.03239,0 -5.495015,3.25243 -5.495015,7.25736 0,4.0049 2.462625,7.2501 5.495015,7.2501 0.863375,0 1.681713,-0.2592 2.408847,-0.7286 -3.205627,-0.4324 -5.653421,-2.746 -5.653421,-5.5332 0,-3.0947 3.018841,-5.60532 6.740407,-5.60532 0.258841,0 0.513439,0.0125 0.764713,0.0361 -1.007577,-1.63314 -2.5423,-2.67641 -4.260546,-2.67641 z"
         style="fill:#808080;fill-opacity:1;stroke:none" />
      <path
         sodipodi:nodetypes="csscsscccccs"
         id="path3412"
         d="m 67.756857,1001.1409 c 0.571322,-0.9964 1.278047,-1.35892 2.609085,-1.32977 0.749783,0.0164 1.248542,-0.005 1.879348,0.0218 0.862546,0.037 1.621685,-0.22458 2.165211,0.71237 0.597565,0.8861 0.685322,2.8877 0.49974,4.286 -0.137723,1.0378 -0.508836,1.4369 -1.071118,1.6275 -0.570531,0.1934 -0.622566,0.2814 -1.127349,-0.4048 -0.248466,-0.4101 -0.624598,-1.3155 -1.042816,-1.0777 -0.446199,0.289 -1.090286,1.2707 -1.538583,1.5647 -0.414562,0.3415 -0.876198,0.4672 -1.327198,0.5551 -0.726954,-0.04 -1.25062,-1.2061 -1.418076,-2.355 -0.193135,-1.2139 -0.172613,-2.6508 0.371756,-3.6002 z"
         style="fill:none;stroke:#808080;stroke-width:0.36635804;stroke-linecap:butt;stroke-linejoin:miter;stroke-miterlimit:4;stroke-opacity:1;stroke-dasharray:none" />
      <rect
         transform="matrix(0.95709285,-0.28978144,0.17102218,0.98526718,0,0)"
         ry="2.7111561"
         rx="3.3050389"
         y="983.32526"
         x="-127.61012"
         height="5.8883157"
         width="15.850554"
         id="rect3414"
         style="fill:#808080;fill-opacity:1;stroke:none" />
      <rect
         ry="2.1403089"
         rx="1.5631371"
         y="1006.6381"
         x="69.939117"
         height="5.2765708"
         width="3.4958339"
         id="rect3416"
         style="fill:#808080;fill-opacity:1;stroke:none" />
      <rect
         transform="matrix(0.95420599,-0.29915034,0.17689904,0.984229,0,0)"
         ry="2.1158106"
         rx="0.87371606"
         y="982.90759"
         x="-118.72417"
         height="2.6080873"
         width="2.2914989"
         id="rect3418"
         style="fill:#808080;fill-opacity:1;stroke:none" />
      <path
         sodipodi:nodetypes="cscsscszs"
         id="path3420"
         d="m 54.889086,1009.7022 c -0.399946,0.7489 0.939271,7.9821 1.743323,8.2175 1.182628,0.3461 5.060053,-3.746 5.060053,-3.746 0,0 -0.425368,-4.1365 0.01274,-5.0201 0.307594,-0.6205 1.052982,-0.9868 1.572941,-0.6583 0.534525,0.3377 0.928622,2.5974 0.928622,2.5974 0,0 0.987579,-0.5031 0.9391,-0.8753 -0.174871,-1.3429 -0.518571,-2.6438 -2.303475,-3.1961 -1.784908,-0.5523 -7.701366,2.2091 -7.953279,2.6809 z"
         style="fill:#ffffff;fill-opacity:0.2;fill-rule:evenodd;stroke:none" />
      <rect
         transform="matrix(0.1948209,0.98083883,-0.96571286,0.25961253,0,0)"
         y="145.25731"
         x="991.20593"
         height="0.79932028"
         width="8.7286558"
         id="rect3424"
         style="fill:#ffffff;fill-opacity:0.2;stroke:none" />
      <rect
         transform="matrix(0.1948209,0.98083883,-0.96571286,0.25961253,0,0)"
         y="144.83353"
         x="991.73688"
         height="1.6741757"
         width="1.1331619"
         id="rect3426"
         style="fill:none;stroke:#ffffff;stroke-width:0.48375756;stroke-linecap:round;stroke-linejoin:round;stroke-miterlimit:4;stroke-opacity:0.2;stroke-dasharray:none" />
      <rect
         transform="matrix(0.1948209,0.98083883,-0.96571286,0.25961253,0,0)"
         style="fill:none;stroke:#ffffff;stroke-width:0.48375756;stroke-linecap:round;stroke-linejoin:round;stroke-miterlimit:4;stroke-opacity:0.2;stroke-dasharray:none"
         id="rect3428"
         width="1.1331619"
         height="1.6741757"
         x="998.2572"
         y="144.82224" />
      <rect
         transform="matrix(0.1948209,0.98083883,-0.96571286,0.25961253,0,0)"
         y="144.85716"
         x="994.72339"
         height="1.6043328"
         width="1.5761591"
         id="rect3430"
         style="fill:none;stroke:#ffffff;stroke-width:0.55850691;stroke-linecap:round;stroke-linejoin:round;stroke-miterlimit:4;stroke-opacity:0.2;stroke-dasharray:none" />
      <path
         sodipodi:nodetypes="cccccccs"
         id="path3432"
         d="m 29.539434,1009.0453 c 0.562741,0.2114 0.782455,1.517 0.782455,1.517 l -1.420392,2.5767 -1.589065,-0.4353 -7.239953,5.2354 -3.805142,-6.1529 10.018341,-0.9285 c 0,0 2.252141,-2.1888 3.253756,-1.8124 z"
         style="fill:#808080;fill-opacity:1;fill-rule:evenodd;stroke:none" />
      <path
         style="fill:#808080;fill-opacity:1;fill-rule:evenodd;stroke:none"
         d="m 30.985538,1015.5423 c 0.581597,-0.084 1.12366,1.3192 1.12366,1.3192 l -0.716565,2.6834 -1.780457,0.7793 -6.617113,8.0798 -4.72185,-5.7113 10.215303,-3.8525 c 0,0 1.461849,-3.1481 2.497022,-3.2979 z"
         id="path3434"
         sodipodi:nodetypes="cccccccs" />
      <path
         sodipodi:nodetypes="cccccccccccz"
         id="path3436"
         d="m 77.204606,1009.6661 c 0.170595,-0.7055 0.553223,-0.8369 1.038615,-0.9849 0.210556,-0.083 0.733262,-0.1184 0.74509,0.4281 -0.02562,0.2475 -0.501089,0.4112 -0.115681,0.4694 0.492651,0.1552 1.380067,-0.8049 1.866273,-0.6847 0.295615,0.057 0.518861,1.3131 0.325513,1.9121 0.07209,0.3397 0.306183,0.4098 0.150622,0.7089 -0.148311,0.3342 -0.444248,0.6204 -0.597834,0.9186 -0.354038,0.4267 -0.813855,0.3811 -1.293593,0.5332 -0.483166,0.052 -1.213316,0.028 -1.920752,-0.3193 -0.39466,-0.4184 -0.202998,-1.0231 -0.308944,-1.5526 l 0.006,-0.8662"
         style="fill:#808080;fill-opacity:1;fill-rule:evenodd;stroke:none" />
      <path
         sodipodi:nodetypes="cccccsccc"
         id="path3438"
         d="m 63.474846,1010.7589 -3.339505,7.184 6.974459,-2.7554 0.621444,1.8902 -8.270798,3.0158 c 0,0 -1.305857,0.6833 -1.688315,0.3363 -0.474207,-0.4303 0.21227,-2.1239 0.21227,-2.1239 l 3.885688,-8.58 1.604757,1.033 z"
         style="fill:#808080;fill-opacity:1;fill-rule:evenodd;stroke:none" />
      <path
         inkscape:transform-center-x="-3.1377547"
         inkscape:transform-center-y="2.1925017"
         sodipodi:nodetypes="cccccccccccz"
         id="path3440"
         d="m 67.283772,1012.7793 c 0.398539,-0.7383 0.779856,-0.813 1.257003,-0.8874 0.213511,-0.052 0.683637,0 0.500943,0.6 -0.109885,0.2652 -0.58388,0.3585 -0.26708,0.4909 0.376359,0.2575 1.319489,-0.5414 1.702587,-0.3233 0.238801,0.1144 0.163085,1.4353 -0.217773,2.0536 -0.05689,0.3831 -0.09747,0.9926 -0.339287,1.2907 -0.247864,0.3377 -0.463226,0.4346 -0.703012,0.7322 -0.460608,0.4016 -0.997306,0.3538 -1.470931,0.4336 -0.441426,-0.029 -0.869313,-0.3372 -1.169563,-0.8785 -0.197639,-0.5267 0.01118,-1.3782 0.105476,-1.9743 l 0.311227,-0.943"
         style="fill:#808080;fill-opacity:1;fill-rule:evenodd;stroke:none" />
      <path
         sodipodi:nodetypes="ccc"
         id="path3442"
         d="m 61.978928,1004.8526 c -6.008378,10.76 8.235521,5.4404 9.531538,4.8902 l -0.249707,-0.3298"
         style="fill:none;stroke:#808080;stroke-width:0.60262412;stroke-linecap:round;stroke-linejoin:round;stroke-miterlimit:4;stroke-opacity:1;stroke-dasharray:none" />
    </g>
    <g
       id="g2877"
       transform="translate(10.308543,6.3437185)">
      <path
         transform="matrix(0.74731342,0,0,0.58326876,39.966149,963.89059)"
         d="m 45.985409,52.171925 c 0,0.317463 -0.257355,0.574817 -0.574818,0.574817 -0.317463,0 -0.574817,-0.257354 -0.574817,-0.574817 0,-0.317463 0.257354,-0.574818 0.574817,-0.574818 0.317463,0 0.574818,0.257355 0.574818,0.574818 z"
         sodipodi:ry="0.5748176"
         sodipodi:rx="0.5748176"
         sodipodi:cy="52.171925"
         sodipodi:cx="45.410591"
         id="path3616"
         style="fill:#808080;fill-opacity:1;stroke:#808080;stroke-width:4;stroke-linejoin:round;stroke-miterlimit:4;stroke-opacity:1;stroke-dasharray:none"
         sodipodi:type="arc" />
      <path
         transform="matrix(0.42703624,0,0,0.33329643,52.967439,959.96419)"
         d="m 45.985409,52.171925 c 0,0.317463 -0.257355,0.574817 -0.574818,0.574817 -0.317463,0 -0.574817,-0.257354 -0.574817,-0.574817 0,-0.317463 0.257354,-0.574818 0.574817,-0.574818 0.317463,0 0.574818,0.257355 0.574818,0.574818 z"
         sodipodi:ry="0.5748176"
         sodipodi:rx="0.5748176"
         sodipodi:cy="52.171925"
         sodipodi:cx="45.410591"
         id="path3616-3"
         style="fill:#808080;fill-opacity:1;stroke:#808080;stroke-width:4;stroke-linejoin:round;stroke-miterlimit:4;stroke-opacity:1;stroke-dasharray:none"
         sodipodi:type="arc" />
      <path
         transform="matrix(0.75585412,0,0,0.58993469,34.727299,958.4793)"
         d="m 45.985409,52.171925 c 0,0.317463 -0.257355,0.574817 -0.574818,0.574817 -0.317463,0 -0.574817,-0.257354 -0.574817,-0.574817 0,-0.317463 0.257354,-0.574818 0.574817,-0.574818 0.317463,0 0.574818,0.257355 0.574818,0.574818 z"
         sodipodi:ry="0.5748176"
         sodipodi:rx="0.5748176"
         sodipodi:cy="52.171925"
         sodipodi:cx="45.410591"
         id="path3616-7"
         style="fill:#808080;fill-opacity:1;stroke:#808080;stroke-width:4;stroke-linejoin:round;stroke-miterlimit:4;stroke-opacity:1;stroke-dasharray:none"
         sodipodi:type="arc" />
      <path
         transform="matrix(0.53379531,0,0,0.41662054,43.730331,960.00285)"
         d="m 45.985409,52.171925 c 0,0.317463 -0.257355,0.574817 -0.574818,0.574817 -0.317463,0 -0.574817,-0.257354 -0.574817,-0.574817 0,-0.317463 0.257354,-0.574818 0.574817,-0.574818 0.317463,0 0.574818,0.257355 0.574818,0.574818 z"
         sodipodi:ry="0.5748176"
         sodipodi:rx="0.5748176"
         sodipodi:cy="52.171925"
         sodipodi:cx="45.410591"
         id="path3616-9"
         style="fill:#808080;fill-opacity:1;stroke:#808080;stroke-width:4;stroke-linejoin:round;stroke-miterlimit:4;stroke-opacity:1;stroke-dasharray:none"
         sodipodi:type="arc" />
      <path
         transform="matrix(0.64055436,0,0,0.49994465,44.380149,958.92392)"
         d="m 45.985409,52.171925 c 0,0.317463 -0.257355,0.574817 -0.574818,0.574817 -0.317463,0 -0.574817,-0.257354 -0.574817,-0.574817 0,-0.317463 0.257354,-0.574818 0.574817,-0.574818 0.317463,0 0.574818,0.257355 0.574818,0.574818 z"
         sodipodi:ry="0.5748176"
         sodipodi:rx="0.5748176"
         sodipodi:cy="52.171925"
         sodipodi:cx="45.410591"
         id="path3616-2"
         style="fill:#808080;fill-opacity:1;stroke:#808080;stroke-width:4;stroke-linejoin:round;stroke-miterlimit:4;stroke-opacity:1;stroke-dasharray:none"
         sodipodi:type="arc" />
    </g>
  </g>
</svg>
