<?xml version="1.0" encoding="UTF-8" standalone="no"?>
<!-- Created with Inkscape (http://www.inkscape.org/) -->

<svg
   xmlns:dc="http://purl.org/dc/elements/1.1/"
   xmlns:cc="http://creativecommons.org/ns#"
   xmlns:rdf="http://www.w3.org/1999/02/22-rdf-syntax-ns#"
   xmlns:svg="http://www.w3.org/2000/svg"
   xmlns="http://www.w3.org/2000/svg"
   xmlns:sodipodi="http://sodipodi.sourceforge.net/DTD/sodipodi-0.dtd"
   xmlns:inkscape="http://www.inkscape.org/namespaces/inkscape"
   width="100"
   height="100"
   id="svg2"
   inkscape:label="Pozadí"
   sodipodi:version="0.32"
   inkscape:version="0.47 r22583"
   sodipodi:docname="strolleraccessible.svg"
   inkscape:output_extension="org.inkscape.output.svg.inkscape"
   version="1.1">
  <defs
     id="defs2963">
    <inkscape:perspective
       sodipodi:type="inkscape:persp3d"
       inkscape:vp_x="0 : 526.18109 : 1"
       inkscape:vp_y="0 : 1000 : 0"
       inkscape:vp_z="744.09448 : 526.18109 : 1"
       inkscape:persp3d-origin="372.04724 : 350.78739 : 1"
       id="perspective346" />
    <inkscape:perspective
       id="perspective4464"
       inkscape:persp3d-origin="0.5 : 0.33333333 : 1"
       inkscape:vp_z="1 : 0.5 : 1"
       inkscape:vp_y="0 : 1000 : 0"
       inkscape:vp_x="0 : 0.5 : 1"
       sodipodi:type="inkscape:persp3d" />
    <inkscape:perspective
       id="perspective4512"
       inkscape:persp3d-origin="0.5 : 0.33333333 : 1"
       inkscape:vp_z="1 : 0.5 : 1"
       inkscape:vp_y="0 : 1000 : 0"
       inkscape:vp_x="0 : 0.5 : 1"
       sodipodi:type="inkscape:persp3d" />
    <inkscape:perspective
       id="perspective4512-4"
       inkscape:persp3d-origin="0.5 : 0.33333333 : 1"
       inkscape:vp_z="1 : 0.5 : 1"
       inkscape:vp_y="0 : 1000 : 0"
       inkscape:vp_x="0 : 0.5 : 1"
       sodipodi:type="inkscape:persp3d" />
    <inkscape:perspective
       id="perspective4919"
       inkscape:persp3d-origin="0.5 : 0.33333333 : 1"
       inkscape:vp_z="1 : 0.5 : 1"
       inkscape:vp_y="0 : 1000 : 0"
       inkscape:vp_x="0 : 0.5 : 1"
       sodipodi:type="inkscape:persp3d" />
    <inkscape:perspective
       id="perspective3677"
       inkscape:persp3d-origin="0.5 : 0.33333333 : 1"
       inkscape:vp_z="1 : 0.5 : 1"
       inkscape:vp_y="0 : 1000 : 0"
       inkscape:vp_x="0 : 0.5 : 1"
       sodipodi:type="inkscape:persp3d" />
    <inkscape:perspective
       id="perspective3637"
       inkscape:persp3d-origin="0.5 : 0.33333333 : 1"
       inkscape:vp_z="1 : 0.5 : 1"
       inkscape:vp_y="0 : 1000 : 0"
       inkscape:vp_x="0 : 0.5 : 1"
       sodipodi:type="inkscape:persp3d" />
    <inkscape:perspective
       id="perspective3614"
       inkscape:persp3d-origin="0.5 : 0.33333333 : 1"
       inkscape:vp_z="1 : 0.5 : 1"
       inkscape:vp_y="0 : 1000 : 0"
       inkscape:vp_x="0 : 0.5 : 1"
       sodipodi:type="inkscape:persp3d" />
  </defs>
  <sodipodi:namedview
     id="base"
     pagecolor="#ffffff"
     bordercolor="#666666"
     borderopacity="1.0"
     inkscape:pageopacity="0.0"
     inkscape:pageshadow="2"
     inkscape:zoom="2.52218"
     inkscape:cx="45.33935"
     inkscape:cy="55.863955"
     inkscape:document-units="px"
     inkscape:current-layer="layer1"
     inkscape:window-width="1024"
     inkscape:window-height="549"
     inkscape:window-x="0"
     inkscape:window-y="0"
     showgrid="false"
     inkscape:window-maximized="1" />
  <metadata
     id="metadata2966">
    <rdf:RDF>
      <cc:Work
         rdf:about="">
        <dc:format>image/svg+xml</dc:format>
        <dc:type
           rdf:resource="http://purl.org/dc/dcmitype/StillImage" />
        <dc:title></dc:title>
      </cc:Work>
    </rdf:RDF>
  </metadata>
  <g
     inkscape:label="Vrstva 1"
     inkscape:groupmode="layer"
     id="layer1"
     transform="translate(0,-952.36218)">
    <rect
       style="fill:#ffffff;fill-opacity:1;stroke:#ffffff;stroke-width:1.99660146;stroke-linejoin:round;stroke-miterlimit:4;stroke-opacity:1;stroke-dasharray:none"
       id="rect4438-0-8"
       width="92.003395"
       height="92.003403"
       x="3.9550877"
       y="956.80017"
       rx="9.5836878"
       ry="9.5836878" />
    <rect
       style="fill:none;stroke:#008eff;stroke-width:4;stroke-linejoin:round;stroke-miterlimit:4;stroke-opacity:0.30000001;stroke-dasharray:none"
       id="rect4438"
       width="96"
       height="96"
       x="2.3964825"
       y="954.44861"
       rx="10"
       ry="10" />
    <rect
       style="fill:none;stroke:#008eff;stroke-width:5;stroke-linejoin:round;stroke-miterlimit:4;stroke-opacity:0.69999999999999996;stroke-dasharray:none"
       id="rect4438-57"
       width="92.159996"
       height="92.160004"
       x="3.8767693"
       y="955.92902"
       rx="9.5999994"
       ry="9.6000004" />
    <rect
       style="fill:none;stroke:#008eff;stroke-width:3.98613524;stroke-linejoin:round;stroke-miterlimit:4;stroke-opacity:0.3;stroke-dasharray:none"
       id="rect4438-5"
       width="88.013863"
       height="88.013863"
       x="5.7898545"
       y="958.55847"
       rx="9.1681108"
       ry="9.1681108" />
    <rect
       style="fill:none;stroke:#008eff;stroke-width:1.99660146;stroke-linejoin:round;stroke-miterlimit:4;stroke-opacity:1;stroke-dasharray:none"
       id="rect4438-0"
       width="92.003395"
       height="92.003403"
       x="4.2715678"
       y="956.08728"
       rx="9.5836878"
       ry="9.5836878" />
    <g
       id="g3598"
       transform="matrix(0.57398943,0,0,0.57398943,15.723229,967.23168)">
      <path
         style="fill:#008eff;fill-opacity:1"
         d="m 61.298985,21.879876 c 4.562,0 8.25,-3.711 8.25,-8.281 0,-4.562 -3.688,-8.2500003 -8.25,-8.2500003 -4.562,0 -8.273,3.6880003 -8.273,8.2500003 0,4.57 3.711,8.281 8.273,8.281 z"
         id="path9" />
      <path
         sodipodi:nodetypes="cssscscsccccccccscccccc"
         style="fill:#008eff;fill-opacity:1"
         d="m 46.146497,53.008288 c -1.748301,6.798949 -4.627409,20.928326 -5.453884,26.822283 -1.111827,7.928929 -2.271007,15.415283 -3.7074,23.471569 -0.56502,3.16902 -0.595066,7.17174 1.711772,7.17174 2.641,0 3.619043,0.38382 4.144514,-0.893 1.46903,-3.67258 4.362019,-16.803454 6.501119,-25.404275 2.504597,-10.070395 4.908367,-19.186729 4.908367,-19.186729 0,0 7.620725,8.069012 10.412761,18.92102 1.716597,6.672026 2.59424,18.293724 3.895159,24.451414 0.609,2.539 3.365222,1.19933 6.068222,1.19933 0.377452,-1.48521 -0.194574,-23.186275 -0.694773,-28.032125 l -11.922369,-32.719639 1.322311,-7.095105 6.566762,4.694242 c 2.607484,2.240689 5.981155,2.93879 5.981155,2.93879 2.567502,1.045508 11.170259,2.16735 11.980096,2.353048 2.195,0 1.926886,-0.846838 1.926886,-3.041838 0,-1.883 -4.478066,-2.785629 -6.236066,-3.199629 L 73.494022,40.019529 65.508661,28.857133 c -0.832628,-6.794419 -1.839077,-5.027886 -6.622676,-5.711257 -8.784114,-1.083162 -7.738629,4.863886 -7.738629,4.863886 l -5.000859,24.998526 z"
         id="path15" />
      <rect
         ry="3"
         rx="3"
         transform="matrix(0.99954009,0.03032491,-0.03032491,0.99954009,0,0)"
         y="40.419338"
         x="95.181137"
         height="67.39563"
         width="1.7892644"
         id="rect3607"
         style="fill:#008eff;fill-opacity:1;stroke:none" />
      <rect
         ry="2.2590363"
         transform="matrix(0.97300678,0.23077651,-0.23077651,0.97300678,0,0)"
         y="12.384113"
         x="42.73259"
         height="24.698795"
         width="10.993976"
         id="rect3609"
         style="fill:#008eff;fill-opacity:1;stroke:none" />
      <path
         sodipodi:nodetypes="ccccc"
         id="path2828-2"
         d="m 22.406035,101.95607 c 1.941732,-1.985273 9.436166,-0.30591 20.559208,1.46939 8.048256,3.0826 10.643105,6.3913 9.06764,10.23773 -1.575466,3.84643 -6.174952,4.74313 -13.756528,1.20999 -10.681484,-6.89622 -15.820685,-10.97174 -15.87032,-12.91711 z"
         style="fill:none;stroke:#008eff;stroke-width:3;stroke-linecap:round;stroke-linejoin:round;stroke-miterlimit:4;stroke-opacity:1;stroke-dasharray:none" />
      <path
         sodipodi:nodetypes="ccccc"
         id="path2828-6-1"
         d="m 53.613434,104.29819 c 1.570646,-2.29014 9.242348,-1.92713 20.504921,-2.0948 8.459022,1.64985 11.585129,4.46199 10.695936,8.52235 -0.889192,4.06035 -5.265403,5.73609 -13.342341,3.56204 -11.709921,-4.95274 -17.474451,-8.08187 -17.858516,-9.98959 z"
         style="fill:none;stroke:#008eff;stroke-width:3;stroke-linecap:round;stroke-linejoin:round;stroke-miterlimit:4;stroke-opacity:1;stroke-dasharray:none" />
    </g>
  </g>
</svg>
