<?xml version="1.0" encoding="UTF-8" standalone="no"?>
<!-- Created with Inkscape (http://www.inkscape.org/) -->

<svg
   xmlns:dc="http://purl.org/dc/elements/1.1/"
   xmlns:cc="http://creativecommons.org/ns#"
   xmlns:rdf="http://www.w3.org/1999/02/22-rdf-syntax-ns#"
   xmlns:svg="http://www.w3.org/2000/svg"
   xmlns="http://www.w3.org/2000/svg"
   xmlns:sodipodi="http://sodipodi.sourceforge.net/DTD/sodipodi-0.dtd"
   xmlns:inkscape="http://www.inkscape.org/namespaces/inkscape"
   width="100"
   height="100"
   id="svg2"
   inkscape:label="Pozadí"
   sodipodi:version="0.32"
   inkscape:version="0.47 r22583"
   sodipodi:docname="accessorparkingfee.svg"
   inkscape:output_extension="org.inkscape.output.svg.inkscape"
   version="1.1">
  <defs
     id="defs2963">
    <inkscape:perspective
       sodipodi:type="inkscape:persp3d"
       inkscape:vp_x="0 : 526.18109 : 1"
       inkscape:vp_y="0 : 1000 : 0"
       inkscape:vp_z="744.09448 : 526.18109 : 1"
       inkscape:persp3d-origin="372.04724 : 350.78739 : 1"
       id="perspective346" />
    <inkscape:perspective
       id="perspective4464"
       inkscape:persp3d-origin="0.5 : 0.33333333 : 1"
       inkscape:vp_z="1 : 0.5 : 1"
       inkscape:vp_y="0 : 1000 : 0"
       inkscape:vp_x="0 : 0.5 : 1"
       sodipodi:type="inkscape:persp3d" />
    <inkscape:perspective
       id="perspective4512"
       inkscape:persp3d-origin="0.5 : 0.33333333 : 1"
       inkscape:vp_z="1 : 0.5 : 1"
       inkscape:vp_y="0 : 1000 : 0"
       inkscape:vp_x="0 : 0.5 : 1"
       sodipodi:type="inkscape:persp3d" />
    <inkscape:perspective
       id="perspective4512-4"
       inkscape:persp3d-origin="0.5 : 0.33333333 : 1"
       inkscape:vp_z="1 : 0.5 : 1"
       inkscape:vp_y="0 : 1000 : 0"
       inkscape:vp_x="0 : 0.5 : 1"
       sodipodi:type="inkscape:persp3d" />
    <inkscape:perspective
       id="perspective4919"
       inkscape:persp3d-origin="0.5 : 0.33333333 : 1"
       inkscape:vp_z="1 : 0.5 : 1"
       inkscape:vp_y="0 : 1000 : 0"
       inkscape:vp_x="0 : 0.5 : 1"
       sodipodi:type="inkscape:persp3d" />
    <inkscape:perspective
       id="perspective3624"
       inkscape:persp3d-origin="0.5 : 0.33333333 : 1"
       inkscape:vp_z="1 : 0.5 : 1"
       inkscape:vp_y="0 : 1000 : 0"
       inkscape:vp_x="0 : 0.5 : 1"
       sodipodi:type="inkscape:persp3d" />
  </defs>
  <sodipodi:namedview
     id="base"
     pagecolor="#ffffff"
     bordercolor="#666666"
     borderopacity="1.0"
     inkscape:pageopacity="0.0"
     inkscape:pageshadow="2"
     inkscape:zoom="2.52218"
     inkscape:cx="34.814721"
     inkscape:cy="48.742556"
     inkscape:document-units="px"
     inkscape:current-layer="layer1"
     inkscape:window-width="1024"
     inkscape:window-height="549"
     inkscape:window-x="0"
     inkscape:window-y="0"
     showgrid="false"
     inkscape:window-maximized="1" />
  <metadata
     id="metadata2966">
    <rdf:RDF>
      <cc:Work
         rdf:about="">
        <dc:format>image/svg+xml</dc:format>
        <dc:type
           rdf:resource="http://purl.org/dc/dcmitype/StillImage" />
        <dc:title></dc:title>
      </cc:Work>
    </rdf:RDF>
  </metadata>
  <g
     inkscape:label="Vrstva 1"
     inkscape:groupmode="layer"
     id="layer1"
     transform="translate(0,-952.36218)">
    <rect
       style="fill:#ffffff;fill-opacity:1;stroke:#ffffff;stroke-width:1.99660146;stroke-linejoin:round;stroke-miterlimit:4;stroke-opacity:1;stroke-dasharray:none"
       id="rect4438-0-8"
       width="92.003395"
       height="92.003403"
       x="3.9550877"
       y="956.80017"
       rx="9.5836878"
       ry="9.5836878" />
    <rect
       style="fill:none;stroke:#008eff;stroke-width:4;stroke-linejoin:round;stroke-miterlimit:4;stroke-opacity:0.30000001;stroke-dasharray:none"
       id="rect4438"
       width="96"
       height="96"
       x="2.3964825"
       y="954.44861"
       rx="10"
       ry="10" />
    <rect
       style="fill:none;stroke:#008eff;stroke-width:5;stroke-linejoin:round;stroke-miterlimit:4;stroke-opacity:0.69999999999999996;stroke-dasharray:none"
       id="rect4438-57"
       width="92.159996"
       height="92.160004"
       x="3.8767693"
       y="955.92902"
       rx="9.5999994"
       ry="9.6000004" />
    <rect
       style="fill:none;stroke:#008eff;stroke-width:3.98613524;stroke-linejoin:round;stroke-miterlimit:4;stroke-opacity:0.3;stroke-dasharray:none"
       id="rect4438-5"
       width="88.013863"
       height="88.013863"
       x="5.7898545"
       y="958.55847"
       rx="9.1681108"
       ry="9.1681108" />
    <rect
       style="fill:none;stroke:#008eff;stroke-width:1.99660146;stroke-linejoin:round;stroke-miterlimit:4;stroke-opacity:1;stroke-dasharray:none"
       id="rect4438-0"
       width="92.003395"
       height="92.003403"
       x="4.2715678"
       y="956.08728"
       rx="9.5836878"
       ry="9.5836878" />
    <g
       id="g3591"
       transform="matrix(0.12657675,0,0,0.12657675,2.8530633,957.69665)">
      <path
         id="path5730"
         style="fill:#008eff;fill-opacity:1;fill-rule:nonzero;stroke:none"
         d="m 599.61811,126.7911 28.85964,0 0,-10.94235 -25.66012,0.12798 0,-25.788105 -10.75038,0 0,28.859645 -13.246,13.18201 7.61485,7.55085 13.18201,-12.99003 z" />
      <path
         id="path5732"
         style="fill:#008eff;fill-opacity:1;fill-rule:nonzero;stroke:none"
         d="m 185.21669,513.93263 c -3.51947,-3.39149 -9.02263,-3.39149 -12.41412,0 -3.39149,3.51947 -3.3275,9.02264 0,12.41412 l 26.61998,26.61998 c 3.51947,3.3275 9.02264,3.3275 12.41412,0 3.39149,-3.51946 3.39149,-9.02263 0,-12.41412 l -26.61998,-26.61998 z" />
      <path
         id="path5734"
         style="fill:#008eff;fill-opacity:1;fill-rule:nonzero;stroke:none"
         d="m 162.18017,536.84117 c -3.3275,-3.39149 -8.89465,-3.39149 -12.35013,0.12798 -3.39149,3.3275 -3.39149,8.83067 0.064,12.35014 l 26.68397,26.61997 c 3.39149,3.39149 8.89465,3.39149 12.35013,-0.12798 3.39149,-3.39148 3.39149,-8.89465 -0.12798,-12.22215 l -26.61998,-26.74796 z" />
      <path
         id="path5736"
         style="fill:#008eff;fill-opacity:1;fill-rule:nonzero;stroke:none"
         d="m 157.18893,599.93564 c 2.6236,0.38394 5.37518,-0.38394 7.35888,-2.36764 3.39149,-3.51947 3.39149,-9.02264 0,-12.41413 L 140.8074,561.54144 c -3.39149,-3.45548 -8.95865,-3.45548 -12.35013,0 -2.23967,2.23966 -3.00755,5.37519 -2.23967,8.25475 l 7.48687,23.03652 23.48446,7.10293 z" />
      <path
         id="path5738"
         style="fill:#008eff;fill-opacity:1;fill-rule:nonzero;stroke:none"
         d="m 516.11072,232.56712 -13.75792,13.8859 c -4.35134,4.79928 -7.03894,11.13432 -7.03894,18.17326 0,7.48687 3.07154,14.20585 7.9348,19.13311 l 79.41201,79.34802 c 25.46815,25.46815 41.20978,60.72683 41.20978,99.56896 0,77.87624 -63.03048,141.0347 -140.84273,141.0347 -77.87624,0 -140.97071,-63.15846 -140.97071,-141.0347 l 0.31995,-192.41894 c 0,-47.80078 -38.71415,-86.51493 -86.57893,-86.51493 -47.73679,0 -86.45094,38.71415 -86.45094,86.51493 0,23.8684 9.59855,45.49713 25.34017,61.23875 l 64.50226,64.43827 c 13.246,13.18201 21.37277,31.41925 21.37277,51.51222 0,20.15696 -8.12677,38.3942 -21.37277,51.51222 l -33.14699,33.083 -32.12315,-32.25112 33.7869,-33.21099 c 4.35134,-4.86326 6.97494,-11.2623 6.97494,-18.23725 0,-7.35888 -3.00754,-14.26984 -7.87081,-19.13311 l -69.23754,-68.34167 c -22.01268,-23.74042 -35.51464,-55.6716 -35.51464,-90.61032 0,-73.65288 59.76698,-133.22788 133.35586,-133.22788 73.58889,0 133.22788,59.575 133.22788,133.22788 l -0.12798,192.41894 c 0,52.2801 42.29761,94.51373 94.51373,94.51373 52.15212,0 94.51372,-42.23363 94.51372,-94.51373 0,-25.98008 -10.62239,-49.59251 -27.7718,-66.74192 l -78.8361,-79.34802 c -13.246,-13.246 -21.37277,-31.35526 -21.37277,-51.44823 0,-20.15695 8.12677,-38.3942 21.37277,-51.6402 l 19.96499,-20.02897 c 1.2798,-1.21582 1.9837,-3.00755 1.9837,-4.86327 0,-1.59976 -0.44793,-3.13553 -1.47178,-4.35134 l -10.62239,-12.28615 c -1.27981,-1.72774 -1.98371,-3.83942 -1.98371,-6.20706 0,0 -7.16691,-17.98128 58.42318,-33.85089 9.34259,-2.23966 20.09297,-1.59975 27.32387,5.56716 l 17.02143,14.71778 c 6.97495,7.35889 7.42288,18.10927 4.92726,27.45185 -17.27739,65.20616 -35.0667,57.71929 -35.0667,57.71929 -2.36765,-0.064 -4.47933,-0.83188 -6.20707,-2.11168 l -12.03018,-10.94235 c -1.21582,-1.02385 -2.68759,-1.53577 -4.28735,-1.59976 -1.85572,-0.064 -3.71144,0.70389 -4.92726,1.91971 l -7.87081,7.9348" />
    </g>
  </g>
</svg>
